<?xml version="1.0" encoding="utf-8"?>
<svg width="375px" height="282px" viewBox="0 0 375 282" version="1.1" xmlns:xlink="http://www.w3.org/1999/xlink" xmlns="http://www.w3.org/2000/svg">
  <g id="Group-101">
    <g id="Group-99">
      <path d="M0 0L307.09 0L375 0L375 282L0 282L0 0Z" id="Rectangle-14" fill="#FFFFFF" fill-rule="evenodd" stroke="none" />
      <g id="Group-94" transform="translate(13 11.000122)">
        <g id="JavaScript-String-Methods-The">
          <g id="JavaScript-String-Methods">
            <path d="M58.7216 65.9091Q58.354 65.9091 58.0904 65.6587Q57.8267 65.4084 57.8267 65.0568Q57.8267 64.7053 58.0904 64.4549Q58.354 64.2045 58.7216 64.2045Q59.0891 64.2045 59.3528 64.4549Q59.6165 64.7053 59.6165 65.0568Q59.6165 65.4084 59.3528 65.6587Q59.0891 65.9091 58.7216 65.9091ZM101.697 65.9091Q101.33 65.9091 101.066 65.6587Q100.803 65.4084 100.803 65.0568Q100.803 64.7053 101.066 64.4549Q101.33 64.2045 101.697 64.2045Q102.065 64.2045 102.329 64.4549Q102.592 64.7053 102.592 65.0568Q102.592 65.4084 102.329 65.6587Q102.065 65.9091 101.697 65.9091ZM39.9183 66.0156Q40.6001 66.4631 40.696 67.2727L41.9744 67.2727Q41.9478 66.4471 41.4657 65.7972Q40.9837 65.1474 40.1633 64.7718Q39.343 64.3963 38.2883 64.3963Q37.2443 64.3963 36.4 64.7772Q35.5558 65.158 35.0577 65.8425Q34.5597 66.527 34.5597 67.4432Q34.5597 68.5458 35.3054 69.2276Q36.0511 69.9094 37.3295 70.277L38.6719 70.6605Q39.2472 70.8203 39.7425 71.0334Q40.2379 71.2464 40.5415 71.5874Q40.8452 71.9283 40.8452 72.4716Q40.8452 73.0682 40.4936 73.513Q40.142 73.9577 39.5401 74.2054Q38.9382 74.4531 38.1818 74.4531Q37.532 74.4531 36.97 74.2587Q36.408 74.0643 36.0431 73.6621Q35.6783 73.2599 35.625 72.642L34.2614 72.642Q34.3572 73.9844 35.3906 74.8153Q36.424 75.6463 38.1818 75.6463Q39.4389 75.6463 40.3205 75.2255Q41.2021 74.8047 41.6628 74.0909Q42.1236 73.3771 42.1236 72.4929Q42.1236 71.7259 41.8093 71.1985Q41.495 70.6712 41.013 70.3329Q40.5309 69.9947 40.0062 69.7976Q39.4815 69.6005 39.0554 69.4886L37.9474 69.1903Q37.5426 69.0838 37.0499 68.8841Q36.5572 68.6843 36.1976 68.3248Q35.8381 67.9652 35.8381 67.3793Q35.8381 66.5962 36.4986 66.0822Q37.1591 65.5682 38.2457 65.5682Q39.2365 65.5682 39.9183 66.0156ZM85.8132 66.0156Q86.495 66.4631 86.5909 67.2727L87.8693 67.2727Q87.8427 66.4471 87.3606 65.7972Q86.8785 65.1474 86.0582 64.7718Q85.2379 64.3963 84.1832 64.3963Q83.1392 64.3963 82.2949 64.7772Q81.4506 65.158 80.9526 65.8425Q80.4545 66.527 80.4545 67.4432Q80.4545 68.5458 81.2003 69.2276Q81.946 69.9094 83.2244 70.277L84.5668 70.6605Q85.142 70.8203 85.6374 71.0334Q86.1328 71.2464 86.4364 71.5874Q86.7401 71.9283 86.7401 72.4716Q86.7401 73.0682 86.3885 73.513Q86.0369 73.9577 85.435 74.2054Q84.8331 74.4531 84.0767 74.4531Q83.4268 74.4531 82.8649 74.2587Q82.3029 74.0643 81.938 73.6621Q81.5731 73.2599 81.5199 72.642L80.1562 72.642Q80.2521 73.9844 81.2855 74.8153Q82.3189 75.6463 84.0767 75.6463Q85.3338 75.6463 86.2154 75.2255Q87.0969 74.8047 87.5577 74.0909Q88.0185 73.3771 88.0185 72.4929Q88.0185 71.7259 87.7042 71.1985Q87.3899 70.6712 86.9078 70.3329Q86.4258 69.9947 85.9011 69.7976Q85.3764 69.6005 84.9503 69.4886L83.8423 69.1903Q83.4375 69.0838 82.9448 68.8841Q82.452 68.6843 82.0925 68.3248Q81.7329 67.9652 81.7329 67.3793Q81.7329 66.5962 82.3935 66.0822Q83.054 65.5682 84.1406 65.5682Q85.1314 65.5682 85.8132 66.0156ZM5.49716 64.5455L6.81818 64.5455L6.81818 72.3438Q6.81818 73.9151 5.9739 74.7594Q5.12962 75.6037 3.70739 75.6037Q2.8125 75.6037 2.1147 75.2761Q1.4169 74.9485 1.0174 74.3413Q0.617898 73.734 0.617898 72.8977L1.91761 72.8977Q1.91761 73.5902 2.42365 74.011Q2.92969 74.4318 3.70739 74.4318Q4.56499 74.4318 5.03107 73.8965Q5.49716 73.3612 5.49716 72.3438L5.49716 64.5455ZM128.501 64.5455L126.925 64.5455L126.925 75.4545L128.161 75.4545L128.161 67.1662L128.267 67.1662L131.676 75.4545L132.869 75.4545L136.278 67.1662L136.385 67.1662L136.385 75.4545L137.621 75.4545L137.621 64.5455L136.044 64.5455L132.337 73.6009L132.209 73.6009L128.501 64.5455ZM155.54 70.5327L155.54 75.4545L154.283 75.4545L154.283 64.5455L155.54 64.5455L155.54 68.5511L155.646 68.5511Q155.934 67.9173 156.512 67.5417Q157.09 67.1662 158.054 67.1662Q159.311 67.1662 160.078 67.9226Q160.845 68.679 160.845 70.2557L160.845 75.4545L159.588 75.4545L159.588 70.3409Q159.588 69.3661 159.085 68.8308Q158.581 68.2955 157.692 68.2955Q156.76 68.2955 156.15 68.8787Q155.54 69.462 155.54 70.5327ZM175.185 75.625Q174.162 75.625 173.379 75.1056Q172.596 74.5863 172.154 73.6355Q171.712 72.6847 171.712 71.3849Q171.712 70.0959 172.154 69.1477Q172.596 68.1996 173.384 67.6829Q174.173 67.1662 175.206 67.1662Q176.005 67.1662 176.471 67.4299Q176.937 67.6935 177.185 68.0265Q177.433 68.3594 177.571 68.5724L177.678 68.5724L177.678 64.5455L178.935 64.5455L178.935 75.4545L177.72 75.4545L177.72 74.1974L177.571 74.1974Q177.433 74.4212 177.177 74.7594Q176.921 75.0977 176.447 75.3613Q175.973 75.625 175.185 75.625ZM74.3395 67.2727L74.3395 68.3381L72.5923 68.3381L72.5923 73.1108Q72.5923 73.6435 72.7495 73.9071Q72.9066 74.1708 73.1543 74.2587Q73.402 74.3466 73.679 74.3466Q73.8867 74.3466 74.0199 74.3226Q74.153 74.2987 74.2329 74.2827L74.4886 75.4119Q74.3608 75.4599 74.1317 75.5105Q73.9027 75.5611 73.5511 75.5611Q73.0185 75.5611 72.5098 75.332Q72.0011 75.103 71.6681 74.6342Q71.3352 74.1655 71.3352 73.4517L71.3352 68.3381L70.0994 68.3381L70.0994 67.2727L71.3352 67.2727L71.3352 65.3125L72.5923 65.3125L72.5923 67.2727L74.3395 67.2727ZM93.5795 67.2727L93.5795 68.3381L91.8324 68.3381L91.8324 73.1108Q91.8324 73.6435 91.9895 73.9071Q92.1467 74.1708 92.3943 74.2587Q92.642 74.3466 92.919 74.3466Q93.1268 74.3466 93.2599 74.3226Q93.3931 74.2987 93.473 74.2827L93.7287 75.4119Q93.6008 75.4599 93.3718 75.5105Q93.1427 75.5611 92.7912 75.5611Q92.2585 75.5611 91.7498 75.332Q91.2411 75.103 90.9082 74.6342Q90.5753 74.1655 90.5753 73.4517L90.5753 68.3381L89.3395 68.3381L89.3395 67.2727L90.5753 67.2727L90.5753 65.3125L91.8324 65.3125L91.8324 67.2727L93.5795 67.2727ZM152.386 68.3381L152.386 67.2727L150.639 67.2727L150.639 65.3125L149.382 65.3125L149.382 67.2727L148.146 67.2727L148.146 68.3381L149.382 68.3381L149.382 73.4517Q149.382 74.1655 149.715 74.6342Q150.048 75.103 150.557 75.332Q151.065 75.5611 151.598 75.5611Q151.95 75.5611 152.179 75.5105Q152.408 75.4599 152.536 75.4119L152.28 74.2827Q152.2 74.2987 152.067 74.3226Q151.934 74.3466 151.726 74.3466Q151.449 74.3466 151.201 74.2587Q150.953 74.1708 150.796 73.9071Q150.639 73.6435 150.639 73.1108L150.639 68.3381L152.386 68.3381ZM53.7145 67.2727L52.5 67.2727L52.5 75.4545L53.7571 75.4545L53.7571 70.277Q53.7571 69.446 54.343 68.9027Q54.929 68.3594 55.8239 68.3594Q56.0742 68.3594 56.3006 68.394Q56.527 68.4286 56.5909 68.4446L56.5909 67.1662Q56.4844 67.1555 56.2766 67.1502Q56.0689 67.1449 55.9304 67.1449Q55.1953 67.1449 54.6094 67.5231Q54.0234 67.9013 53.7997 68.5085L53.7145 68.5085L53.7145 67.2727ZM96.6903 67.2727L95.4758 67.2727L95.4758 75.4545L96.7329 75.4545L96.7329 70.277Q96.7329 69.446 97.3189 68.9027Q97.9048 68.3594 98.7997 68.3594Q99.0501 68.3594 99.2764 68.394Q99.5028 68.4286 99.5667 68.4446L99.5667 67.1662Q99.4602 67.1555 99.2525 67.1502Q99.0447 67.1449 98.9062 67.1449Q98.1712 67.1449 97.5852 67.5231Q96.9993 67.9013 96.7756 68.5085L96.6903 68.5085L96.6903 67.2727ZM11.6974 75.6463Q10.9197 75.6463 10.2859 75.3507Q9.65199 75.055 9.27912 74.4931Q8.90625 73.9311 8.90625 73.1321Q8.90625 72.429 9.18324 71.9895Q9.46023 71.5501 9.92365 71.2997Q10.3871 71.0494 10.949 70.9242Q11.511 70.799 12.081 70.7244Q12.8267 70.6285 13.2928 70.5779Q13.7589 70.5273 13.9746 70.4048Q14.1903 70.2823 14.1903 69.9787L14.1903 69.9361Q14.1903 69.1477 13.7615 68.7109Q13.3327 68.2741 12.4645 68.2741Q11.5643 68.2741 11.0529 68.6683Q10.5415 69.0625 10.3338 69.5099L9.14063 69.0838Q9.46023 68.3381 9.99556 67.9199Q10.5309 67.5018 11.1674 67.334Q11.804 67.1662 12.4219 67.1662Q12.8161 67.1662 13.3301 67.2594Q13.8441 67.3526 14.3262 67.6403Q14.8082 67.9279 15.1278 68.5085Q15.4474 69.0891 15.4474 70.0639L15.4474 75.4545L14.1903 75.4545L14.1903 74.3466L14.1264 74.3466Q13.9986 74.6129 13.7003 74.9165Q13.402 75.2202 12.9066 75.4332Q12.4112 75.6463 11.6974 75.6463ZM28.5085 75.6463Q27.7308 75.6463 27.0969 75.3507Q26.4631 75.055 26.0902 74.4931Q25.7173 73.9311 25.7173 73.1321Q25.7173 72.429 25.9943 71.9895Q26.2713 71.5501 26.7347 71.2997Q27.1982 71.0494 27.7601 70.9242Q28.3221 70.799 28.892 70.7244Q29.6378 70.6285 30.1039 70.5779Q30.57 70.5273 30.7857 70.4048Q31.0014 70.2823 31.0014 69.9787L31.0014 69.9361Q31.0014 69.1477 30.5726 68.7109Q30.1438 68.2741 29.2756 68.2741Q28.3754 68.2741 27.864 68.6683Q27.3526 69.0625 27.1449 69.5099L25.9517 69.0838Q26.2713 68.3381 26.8066 67.9199Q27.342 67.5018 27.9785 67.334Q28.6151 67.1662 29.233 67.1662Q29.6271 67.1662 30.1412 67.2594Q30.6552 67.3526 31.1373 67.6403Q31.6193 67.9279 31.9389 68.5085Q32.2585 69.0891 32.2585 70.0639L32.2585 75.4545L31.0014 75.4545L31.0014 74.3466L30.9375 74.3466Q30.8097 74.6129 30.5114 74.9165Q30.2131 75.2202 29.7177 75.4332Q29.2223 75.6463 28.5085 75.6463ZM47.4503 75.625Q46.2997 75.625 45.4687 75.0817Q44.6378 74.5384 44.1903 73.5849Q43.7429 72.6314 43.7429 71.4063Q43.7429 70.1598 44.2037 69.2037Q44.6644 68.2475 45.4927 67.7068Q46.321 67.1662 47.429 67.1662Q48.2919 67.1662 48.9844 67.4858Q49.6768 67.8054 50.119 68.3807Q50.5611 68.956 50.6676 69.723L49.4105 69.723Q49.2667 69.1637 48.774 68.7296Q48.2812 68.2955 47.4503 68.2955Q46.3477 68.2955 45.6738 69.1344Q45 69.9734 45 71.3636Q45 72.7859 45.6658 73.6408Q46.3317 74.4957 47.4503 74.4957Q48.1854 74.4957 48.71 74.1175Q49.2347 73.7393 49.4105 73.0682L50.6676 73.0682Q50.5611 73.7926 50.1429 74.3706Q49.7248 74.9485 49.0403 75.2868Q48.3558 75.625 47.4503 75.625ZM62.8551 67.2727L61.6406 67.2727L61.6406 78.5227L62.8977 78.5227L62.8977 74.1974L63.0043 74.1974Q63.1428 74.4212 63.3984 74.7594Q63.6541 75.0977 64.1282 75.3613Q64.6023 75.625 65.3906 75.625Q66.4134 75.625 67.1964 75.1056Q67.9794 74.5863 68.4215 73.6355Q68.8636 72.6847 68.8636 71.3849Q68.8636 70.0959 68.4215 69.1477Q67.9794 68.1996 67.191 67.6829Q66.4027 67.1662 65.3693 67.1662Q64.5703 67.1662 64.1042 67.4299Q63.6381 67.6935 63.3904 68.0265Q63.1428 68.3594 63.0043 68.5724L62.8551 68.5724L62.8551 67.2727ZM105.874 75.4545L105.874 70.5327Q105.874 69.462 106.467 68.8787Q107.061 68.2955 107.962 68.2955Q108.835 68.2955 109.336 68.8361Q109.837 69.3768 109.837 70.3409L109.837 75.4545L111.094 75.4545L111.094 70.2557Q111.094 68.6896 110.329 67.9279Q109.565 67.1662 108.324 67.1662Q107.397 67.1662 106.811 67.5471Q106.225 67.9279 105.937 68.5511L105.831 68.5511L105.831 67.2727L104.616 67.2727L104.616 75.4545L105.874 75.4545ZM116.697 78.6932Q115.328 78.6932 114.532 78.1951Q113.736 77.6971 113.352 77.0526L114.354 76.3494Q114.524 76.5732 114.785 76.8635Q115.046 77.1538 115.502 77.3695Q115.957 77.5852 116.697 77.5852Q117.688 77.5852 118.333 77.1058Q118.977 76.6264 118.977 75.6037L118.977 73.9418L118.871 73.9418Q118.732 74.1655 118.479 74.4931Q118.226 74.8207 117.755 75.0737Q117.283 75.3267 116.484 75.3267Q115.494 75.3267 114.708 74.858Q113.922 74.3892 113.467 73.4943Q113.011 72.5994 113.011 71.321Q113.011 70.0639 113.453 69.1291Q113.896 68.1942 114.684 67.6802Q115.472 67.1662 116.506 67.1662Q117.305 67.1662 117.776 67.4299Q118.248 67.6935 118.501 68.0265Q118.754 68.3594 118.892 68.5724L119.02 68.5724L119.02 67.2727L120.234 67.2727L120.234 75.6889Q120.234 76.7436 119.758 77.4068Q119.281 78.07 118.479 78.3816Q117.678 78.6932 116.697 78.6932ZM143.523 75.625Q142.34 75.625 141.485 75.1003Q140.63 74.5756 140.17 73.6301Q139.709 72.6847 139.709 71.4276Q139.709 70.1705 140.17 69.209Q140.63 68.2475 141.459 67.7068Q142.287 67.1662 143.395 67.1662Q144.034 67.1662 144.657 67.3793Q145.281 67.5923 145.792 68.0691Q146.303 68.5458 146.607 69.3288Q146.911 70.1119 146.911 71.2571L146.911 71.7898L140.971 71.7898Q141.014 73.1001 141.714 73.7979Q142.415 74.4957 143.523 74.4957Q144.263 74.4957 144.796 74.1761Q145.328 73.8565 145.568 73.2173L146.783 73.5582Q146.495 74.4851 145.632 75.055Q144.769 75.625 143.523 75.625ZM164.529 75.0977Q165.362 75.625 166.47 75.625Q167.578 75.625 168.412 75.0977Q169.245 74.5703 169.711 73.6222Q170.178 72.674 170.178 71.4063Q170.178 70.1278 169.711 69.1744Q169.245 68.2209 168.412 67.6935Q167.578 67.1662 166.47 67.1662Q165.362 67.1662 164.529 67.6935Q163.695 68.2209 163.229 69.1744Q162.763 70.1278 162.763 71.4063Q162.763 72.674 163.229 73.6222Q163.695 74.5703 164.529 75.0977ZM186.072 69.4247L187.202 69.1051Q186.909 68.2315 186.214 67.6989Q185.518 67.1662 184.304 67.1662Q183.441 67.1662 182.762 67.4698Q182.083 67.7734 181.691 68.3061Q181.3 68.8388 181.3 69.5313Q181.3 70.3782 181.824 70.9402Q182.349 71.5021 183.473 71.7685L184.837 72.0881Q186.051 72.3704 186.051 73.2386Q186.051 73.766 185.532 74.1415Q185.012 74.517 184.134 74.517Q182.573 74.517 182.237 73.196L181.044 73.4943Q181.262 74.5384 182.083 75.0817Q182.903 75.625 184.155 75.625Q185.108 75.625 185.827 75.3054Q186.547 74.9858 186.949 74.4318Q187.351 73.8778 187.351 73.1747Q187.351 71.4915 185.178 70.9588L183.963 70.6605Q183.239 70.4794 182.898 70.2077Q182.557 69.9361 182.557 69.4673Q182.557 68.94 183.055 68.5964Q183.553 68.2528 184.304 68.2528Q185.13 68.2528 185.518 68.6257Q185.907 68.9986 186.072 69.4247ZM21.4134 75.4545L24.4389 67.2727L23.0753 67.2727L20.8168 73.7926L20.7315 73.7926L18.473 67.2727L17.1094 67.2727L20.1349 75.4545L21.4134 75.4545ZM58.0824 67.2727L59.3395 67.2727L59.3395 75.4545L58.0824 75.4545L58.0824 67.2727ZM101.058 67.2727L102.315 67.2727L102.315 75.4545L101.058 75.4545L101.058 67.2727ZM63.481 73.6248Q62.8764 72.7539 62.8764 71.3636Q62.8764 69.9893 63.473 69.1424Q64.0696 68.2955 65.2202 68.2955Q66.0192 68.2955 66.5492 68.7029Q67.0792 69.1104 67.3429 69.8056Q67.6065 70.5007 67.6065 71.3636Q67.6065 72.2372 67.3375 72.9483Q67.0685 73.6594 66.5385 74.0776Q66.0085 74.4957 65.2202 74.4957Q64.0856 74.4957 63.481 73.6248ZM116.655 74.1974Q117.789 74.1974 118.394 73.4277Q118.999 72.658 118.999 71.2997Q118.999 69.9734 118.402 69.1344Q117.805 68.2955 116.655 68.2955Q115.856 68.2955 115.326 68.7003Q114.796 69.1051 114.532 69.7869Q114.268 70.4688 114.268 71.2997Q114.268 72.5781 114.87 73.3878Q115.472 74.1974 116.655 74.1974ZM140.971 70.7031L145.632 70.7031Q145.632 69.6644 145.025 68.9799Q144.418 68.2955 143.395 68.2955Q142.676 68.2955 142.148 68.631Q141.621 68.9666 141.317 69.5179Q141.014 70.0692 140.971 70.7031ZM167.855 74.0643Q167.312 74.4957 166.47 74.4957Q165.629 74.4957 165.085 74.0643Q164.542 73.6328 164.281 72.9297Q164.02 72.2266 164.02 71.4063Q164.02 70.5859 164.281 69.8775Q164.542 69.169 165.085 68.7322Q165.629 68.2955 166.47 68.2955Q167.312 68.2955 167.855 68.7322Q168.398 69.169 168.659 69.8775Q168.92 70.5859 168.92 71.4063Q168.92 72.2266 168.659 72.9297Q168.398 73.6328 167.855 74.0643ZM175.355 74.4957Q176.49 74.4957 177.094 73.6248Q177.699 72.7539 177.699 71.3636Q177.699 69.9893 177.102 69.1424Q176.506 68.2955 175.355 68.2955Q174.556 68.2955 174.026 68.7029Q173.496 69.1104 173.232 69.8056Q172.969 70.5007 172.969 71.3636Q172.969 72.2372 173.238 72.9483Q173.507 73.6594 174.037 74.0776Q174.567 74.4957 175.355 74.4957ZM11.8892 74.517Q12.6349 74.517 13.149 74.2241Q13.663 73.9311 13.9267 73.4677Q14.1903 73.0043 14.1903 72.4929L14.1903 71.3423Q14.1104 71.4382 13.8414 71.5154Q13.5724 71.5927 13.2235 71.6486Q12.8746 71.7045 12.5471 71.7445Q12.2195 71.7844 12.017 71.8111Q11.527 71.875 11.1035 72.0162Q10.68 72.1573 10.4217 72.437Q10.1634 72.7166 10.1634 73.196Q10.1634 73.8512 10.6507 74.1841Q11.1381 74.517 11.8892 74.517ZM28.7003 74.517Q29.446 74.517 29.96 74.2241Q30.4741 73.9311 30.7377 73.4677Q31.0014 73.0043 31.0014 72.4929L31.0014 71.3423Q30.9215 71.4382 30.6525 71.5154Q30.3835 71.5927 30.0346 71.6486Q29.6857 71.7045 29.3581 71.7445Q29.0305 71.7844 28.8281 71.8111Q28.3381 71.875 27.9146 72.0162Q27.4911 72.1573 27.2328 72.437Q26.9744 72.7166 26.9744 73.196Q26.9744 73.8512 27.4618 74.1841Q27.9492 74.517 28.7003 74.517Z" />
          </g>
          <g id="The-slice()-method-extract-a-part-of-a-string-and-">
            <path d="M65.1136 88.8523Q65.1136 86.8388 65.6383 85.1475Q66.163 83.4563 67.1378 82.0341L68.2457 82.0341Q67.7344 82.7372 67.3189 83.8558Q66.9034 84.9744 66.6584 86.2795Q66.4134 87.5845 66.4134 88.8523Q66.4134 90.12 66.6584 91.4251Q66.9034 92.7301 67.3189 93.8487Q67.7344 94.9673 68.2457 95.6705L67.1378 95.6705Q66.163 94.2482 65.6383 92.557Q65.1136 90.8658 65.1136 88.8523ZM72.2594 92.557Q72.7841 90.8658 72.7841 88.8523Q72.7841 86.8388 72.2594 85.1475Q71.7347 83.4563 70.7599 82.0341L69.652 82.0341Q70.1633 82.7372 70.5788 83.8558Q70.9943 84.9744 71.2393 86.2795Q71.4844 87.5845 71.4844 88.8523Q71.4844 90.12 71.2393 91.4251Q70.9943 92.7301 70.5788 93.8487Q70.1633 94.9673 69.652 95.6705L70.7599 95.6705Q71.7347 94.2482 72.2594 92.557ZM250.824 86.3381L250.824 85.2727L248.991 85.2727L248.991 84.4418Q248.991 83.8345 249.266 83.5202Q249.54 83.206 250.163 83.206Q250.435 83.206 250.603 83.2539Q250.771 83.3018 250.866 83.3338L251.229 82.2472Q251.085 82.1832 250.792 82.1087Q250.499 82.0341 250.035 82.0341Q249.45 82.0341 248.922 82.2685Q248.395 82.5028 248.065 82.9716Q247.734 83.4403 247.734 84.1435L247.734 85.2727L246.413 85.2727L246.413 86.3381L247.734 86.3381L247.734 93.4545L248.991 93.4545L248.991 86.3381L250.824 86.3381ZM44.0066 83.6587Q44.2702 83.9091 44.6378 83.9091Q45.0053 83.9091 45.269 83.6587Q45.5327 83.4084 45.5327 83.0568Q45.5327 82.7053 45.269 82.4549Q45.0053 82.2045 44.6378 82.2045Q44.2702 82.2045 44.0066 82.4549Q43.7429 82.7053 43.7429 83.0568Q43.7429 83.4084 44.0066 83.6587ZM289.006 83.9091Q288.638 83.9091 288.374 83.6587Q288.111 83.4084 288.111 83.0568Q288.111 82.7053 288.374 82.4549Q288.638 82.2045 289.006 82.2045Q289.373 82.2045 289.637 82.4549Q289.901 82.7053 289.901 83.0568Q289.901 83.4084 289.637 83.6587Q289.373 83.9091 289.006 83.9091ZM0.724432 82.5455L0.724432 83.7173L4.15483 83.7173L4.15483 93.4545L5.47585 93.4545L5.47585 83.7173L8.90625 83.7173L8.90625 82.5455L0.724432 82.5455ZM12.0384 93.4545L12.0384 88.5327Q12.0384 87.462 12.6483 86.8787Q13.2582 86.2955 14.1903 86.2955Q15.0799 86.2955 15.5833 86.8308Q16.0866 87.3661 16.0866 88.3409L16.0866 93.4545L17.3438 93.4545L17.3438 88.2557Q17.3438 86.679 16.5767 85.9226Q15.8097 85.1662 14.5526 85.1662Q13.5884 85.1662 13.0105 85.5417Q12.4325 85.9173 12.1449 86.5511L12.0384 86.5511L12.0384 82.5455L10.7813 82.5455L10.7813 93.4545L12.0384 93.4545ZM41.6974 82.5455L41.6974 93.4545L40.4403 93.4545L40.4403 82.5455L41.6974 82.5455ZM108.239 93.4545L108.239 88.5327Q108.239 87.462 108.849 86.8787Q109.458 86.2955 110.391 86.2955Q111.28 86.2955 111.784 86.8308Q112.287 87.3661 112.287 88.3409L112.287 93.4545L113.544 93.4545L113.544 88.2557Q113.544 86.679 112.777 85.9226Q112.01 85.1662 110.753 85.1662Q109.789 85.1662 109.211 85.5417Q108.633 85.9173 108.345 86.5511L108.239 86.5511L108.239 82.5455L106.982 82.5455L106.982 93.4545L108.239 93.4545ZM126.078 93.1056Q126.861 93.625 127.884 93.625Q128.672 93.625 129.146 93.3613Q129.62 93.0977 129.876 92.7594Q130.131 92.4212 130.27 92.1974L130.419 92.1974L130.419 93.4545L131.634 93.4545L131.634 82.5455L130.376 82.5455L130.376 86.5724L130.27 86.5724Q130.131 86.3594 129.884 86.0265Q129.636 85.6935 129.17 85.4299Q128.704 85.1662 127.905 85.1662Q126.871 85.1662 126.083 85.6829Q125.295 86.1996 124.853 87.1477Q124.411 88.0959 124.411 89.3849Q124.411 90.6847 124.853 91.6355Q125.295 92.5863 126.078 93.1056ZM332.583 93.1056Q333.366 93.625 334.389 93.625Q335.178 93.625 335.652 93.3613Q336.126 93.0977 336.381 92.7594Q336.637 92.4212 336.776 92.1974L336.925 92.1974L336.925 93.4545L338.139 93.4545L338.139 82.5455L336.882 82.5455L336.882 86.5724L336.776 86.5724Q336.637 86.3594 336.389 86.0265Q336.142 85.6935 335.676 85.4299Q335.21 85.1662 334.41 85.1662Q333.377 85.1662 332.589 85.6829Q331.8 86.1996 331.358 87.1477Q330.916 88.0959 330.916 89.3849Q330.916 90.6847 331.358 91.6355Q331.8 92.5863 332.583 93.1056ZM105.085 85.2727L105.085 86.3381L103.338 86.3381L103.338 91.1108Q103.338 91.6435 103.495 91.9071Q103.652 92.1708 103.9 92.2587Q104.148 92.3466 104.425 92.3466Q104.632 92.3466 104.766 92.3226Q104.899 92.2987 104.979 92.2827L105.234 93.4119Q105.107 93.4599 104.877 93.5105Q104.648 93.5611 104.297 93.5611Q103.764 93.5611 103.255 93.332Q102.747 93.103 102.414 92.6342Q102.081 92.1655 102.081 91.4517L102.081 86.3381L100.845 86.3381L100.845 85.2727L102.081 85.2727L102.081 83.3125L103.338 83.3125L103.338 85.2727L105.085 85.2727ZM158.714 85.2727L158.714 86.3381L156.967 86.3381L156.967 91.1108Q156.967 91.6435 157.124 91.9071Q157.282 92.1708 157.529 92.2587Q157.777 92.3466 158.054 92.3466Q158.262 92.3466 158.395 92.3226Q158.528 92.2987 158.608 92.2827L158.864 93.4119Q158.736 93.4599 158.507 93.5105Q158.278 93.5611 157.926 93.5611Q157.393 93.5611 156.885 93.332Q156.376 93.103 156.043 92.6342Q155.71 92.1655 155.71 91.4517L155.71 86.3381L154.474 86.3381L154.474 85.2727L155.71 85.2727L155.71 83.3125L156.967 83.3125L156.967 85.2727L158.714 85.2727ZM186.584 85.2727L186.584 86.3381L184.837 86.3381L184.837 91.1108Q184.837 91.6435 184.994 91.9071Q185.151 92.1708 185.399 92.2587Q185.646 92.3466 185.923 92.3466Q186.131 92.3466 186.264 92.3226Q186.397 92.2987 186.477 92.2827L186.733 93.4119Q186.605 93.4599 186.376 93.5105Q186.147 93.5611 185.795 93.5611Q185.263 93.5611 184.754 93.332Q184.245 93.103 183.912 92.6342Q183.58 92.1655 183.58 91.4517L183.58 86.3381L182.344 86.3381L182.344 85.2727L183.58 85.2727L183.58 83.3125L184.837 83.3125L184.837 85.2727L186.584 85.2727ZM232.116 86.3381L232.116 85.2727L230.369 85.2727L230.369 83.3125L229.112 83.3125L229.112 85.2727L227.876 85.2727L227.876 86.3381L229.112 86.3381L229.112 91.4517Q229.112 92.1655 229.445 92.6342Q229.778 93.103 230.287 93.332Q230.795 93.5611 231.328 93.5611Q231.68 93.5611 231.909 93.5105Q232.138 93.4599 232.266 93.4119L232.01 92.2827Q231.93 92.2987 231.797 92.3226Q231.664 92.3466 231.456 92.3466Q231.179 92.3466 230.931 92.2587Q230.684 92.1708 230.526 91.9071Q230.369 91.6435 230.369 91.1108L230.369 86.3381L232.116 86.3381ZM280.888 85.2727L280.888 86.3381L279.141 86.3381L279.141 91.1108Q279.141 91.6435 279.298 91.9071Q279.455 92.1708 279.703 92.2587Q279.95 92.3466 280.227 92.3466Q280.435 92.3466 280.568 92.3226Q280.701 92.2987 280.781 92.2827L281.037 93.4119Q280.909 93.4599 280.68 93.5105Q280.451 93.5611 280.099 93.5611Q279.567 93.5611 279.058 93.332Q278.549 93.103 278.216 92.6342Q277.884 92.1655 277.884 91.4517L277.884 86.3381L276.648 86.3381L276.648 85.2727L277.884 85.2727L277.884 83.3125L279.141 83.3125L279.141 85.2727L280.888 85.2727ZM161.825 85.2727L160.611 85.2727L160.611 93.4545L161.868 93.4545L161.868 88.277Q161.868 87.446 162.454 86.9027Q163.04 86.3594 163.935 86.3594Q164.185 86.3594 164.411 86.394Q164.638 86.4286 164.702 86.4446L164.702 85.1662Q164.595 85.1555 164.387 85.1502Q164.18 85.1449 164.041 85.1449Q163.306 85.1449 162.72 85.5231Q162.134 85.9013 161.911 86.5085L161.825 86.5085L161.825 85.2727ZM222.976 85.2727L224.19 85.2727L224.19 86.5085L224.276 86.5085Q224.499 85.9013 225.085 85.5231Q225.671 85.1449 226.406 85.1449Q226.545 85.1449 226.752 85.1502Q226.96 85.1555 227.067 85.1662L227.067 86.4446Q227.003 86.4286 226.776 86.394Q226.55 86.3594 226.3 86.3594Q225.405 86.3594 224.819 86.9027Q224.233 87.446 224.233 88.277L224.233 93.4545L222.976 93.4545L222.976 85.2727ZM283.999 85.2727L282.784 85.2727L282.784 93.4545L284.041 93.4545L284.041 88.277Q284.041 87.446 284.627 86.9027Q285.213 86.3594 286.108 86.3594Q286.358 86.3594 286.585 86.394Q286.811 86.4286 286.875 86.4446L286.875 85.1662Q286.768 85.1555 286.561 85.1502Q286.353 85.1449 286.214 85.1449Q285.479 85.1449 284.893 85.5231Q284.308 85.9013 284.084 86.5085L283.999 86.5085L283.999 85.2727ZM23.0753 93.625Q21.8928 93.625 21.0378 93.1003Q20.1829 92.5756 19.7221 91.6301Q19.2614 90.6847 19.2614 89.4276Q19.2614 88.1705 19.7221 87.209Q20.1829 86.2475 21.0112 85.7068Q21.8395 85.1662 22.9474 85.1662Q23.5866 85.1662 24.2099 85.3793Q24.8331 85.5923 25.3445 86.0691Q25.8558 86.5458 26.1594 87.3288Q26.4631 88.1119 26.4631 89.2571L26.4631 89.7898L20.5238 89.7898Q20.5664 91.1001 21.2669 91.7979Q21.9673 92.4957 23.0753 92.4957Q23.8157 92.4957 24.3484 92.1761Q24.881 91.8565 25.1207 91.2173L26.3352 91.5582Q26.0476 92.4851 25.1847 93.055Q24.3217 93.625 23.0753 93.625ZM37.2656 87.4247L38.3949 87.1051Q38.1019 86.2315 37.4068 85.6989Q36.7116 85.1662 35.4972 85.1662Q34.6342 85.1662 33.9551 85.4698Q33.2759 85.7734 32.8844 86.3061Q32.4929 86.8388 32.4929 87.5313Q32.4929 88.3782 33.0176 88.9402Q33.5423 89.5021 34.6662 89.7685L36.0298 90.0881Q37.2443 90.3704 37.2443 91.2386Q37.2443 91.766 36.725 92.1415Q36.2056 92.517 35.3267 92.517Q33.766 92.517 33.4304 91.196L32.2372 91.4943Q32.4556 92.5384 33.2759 93.0817Q34.0962 93.625 35.348 93.625Q36.3015 93.625 37.0206 93.3054Q37.7397 92.9858 38.1419 92.4318Q38.544 91.8778 38.544 91.1747Q38.544 89.4915 36.3707 88.9588L35.1563 88.6605Q34.4318 88.4794 34.0909 88.2077Q33.75 87.9361 33.75 87.4673Q33.75 86.94 34.248 86.5964Q34.7461 86.2528 35.4972 86.2528Q36.3228 86.2528 36.7116 86.6257Q37.1005 86.9986 37.2656 87.4247ZM50.8807 93.625Q49.7301 93.625 48.8991 93.0817Q48.0682 92.5384 47.6207 91.5849Q47.1733 90.6314 47.1733 89.4063Q47.1733 88.1598 47.6341 87.2037Q48.0948 86.2475 48.9231 85.7068Q49.7514 85.1662 50.8594 85.1662Q51.7223 85.1662 52.4148 85.4858Q53.1072 85.8054 53.5494 86.3807Q53.9915 86.956 54.098 87.723L52.8409 87.723Q52.6971 87.1637 52.2044 86.7296Q51.7116 86.2955 50.8807 86.2955Q49.7781 86.2955 49.1042 87.1344Q48.4304 87.9734 48.4304 89.3636Q48.4304 90.7859 49.0962 91.6408Q49.7621 92.4957 50.8807 92.4957Q51.6158 92.4957 52.1404 92.1175Q52.6651 91.7393 52.8409 91.0682L54.098 91.0682Q53.9915 91.7926 53.5733 92.3706Q53.1552 92.9485 52.4707 93.2868Q51.7862 93.625 50.8807 93.625ZM57.3233 93.1003Q58.1783 93.625 59.3608 93.625Q60.6072 93.625 61.4702 93.055Q62.3331 92.4851 62.6207 91.5582L61.4063 91.2173Q61.1665 91.8565 60.6339 92.1761Q60.1012 92.4957 59.3608 92.4957Q58.2528 92.4957 57.5524 91.7979Q56.8519 91.1001 56.8093 89.7898L62.7486 89.7898L62.7486 89.2571Q62.7486 88.1119 62.445 87.3288Q62.1413 86.5458 61.63 86.0691Q61.1186 85.5923 60.4954 85.3793Q59.8722 85.1662 59.233 85.1662Q58.125 85.1662 57.2967 85.7068Q56.4684 86.2475 56.0076 87.209Q55.5469 88.1705 55.5469 89.4276Q55.5469 90.6847 56.0076 91.6301Q56.4684 92.5756 57.3233 93.1003ZM79.7514 85.2727L80.9659 85.2727L80.9659 86.5511L81.0724 86.5511Q81.3281 85.896 81.8981 85.5311Q82.468 85.1662 83.267 85.1662Q84.0767 85.1662 84.6174 85.5311Q85.158 85.896 85.4616 86.5511L85.5469 86.5511Q85.8611 85.9173 86.4897 85.5417Q87.1182 85.1662 87.9972 85.1662Q89.0945 85.1662 89.7923 85.8507Q90.4901 86.5352 90.4901 87.9787L90.4901 93.4545L89.2329 93.4545L89.2329 87.9787Q89.2329 87.0732 88.7376 86.6843Q88.2422 86.2955 87.571 86.2955Q86.7081 86.2955 86.234 86.8148Q85.7599 87.3342 85.7599 88.1278L85.7599 93.4545L84.4815 93.4545L84.4815 87.8509Q84.4815 87.1531 84.0288 86.7243Q83.576 86.2955 82.8622 86.2955Q82.3722 86.2955 81.9487 86.5565Q81.5252 86.8175 81.2669 87.2782Q81.0085 87.739 81.0085 88.3409L81.0085 93.4545L79.7514 93.4545L79.7514 85.2727ZM94.1841 93.1003Q95.0391 93.625 96.2216 93.625Q97.468 93.625 98.331 93.055Q99.1939 92.4851 99.4815 91.5582L98.267 91.2173Q98.0273 91.8565 97.4947 92.1761Q96.962 92.4957 96.2216 92.4957Q95.1136 92.4957 94.4132 91.7979Q93.7127 91.1001 93.6701 89.7898L99.6094 89.7898L99.6094 89.2571Q99.6094 88.1119 99.3057 87.3288Q99.0021 86.5458 98.4908 86.0691Q97.9794 85.5923 97.3562 85.3793Q96.7329 85.1662 96.0937 85.1662Q94.9858 85.1662 94.1575 85.7068Q93.3292 86.2475 92.8684 87.209Q92.4077 88.1705 92.4077 89.4276Q92.4077 90.6847 92.8684 91.6301Q93.3292 92.5756 94.1841 93.1003ZM119.169 93.625Q118.061 93.625 117.227 93.0977Q116.394 92.5703 115.928 91.6222Q115.462 90.674 115.462 89.4063Q115.462 88.1278 115.928 87.1744Q116.394 86.2209 117.227 85.6935Q118.061 85.1662 119.169 85.1662Q120.277 85.1662 121.111 85.6935Q121.944 86.2209 122.41 87.1744Q122.876 88.1278 122.876 89.4063Q122.876 90.674 122.41 91.6222Q121.944 92.5703 121.111 93.0977Q120.277 93.625 119.169 93.625ZM141.754 93.625Q140.572 93.625 139.717 93.1003Q138.862 92.5756 138.401 91.6301Q137.94 90.6847 137.94 89.4276Q137.94 88.1705 138.401 87.209Q138.862 86.2475 139.69 85.7068Q140.518 85.1662 141.626 85.1662Q142.266 85.1662 142.889 85.3793Q143.512 85.5923 144.023 86.0691Q144.535 86.5458 144.838 87.3288Q145.142 88.1119 145.142 89.2571L145.142 89.7898L139.203 89.7898Q139.245 91.1001 139.946 91.7979Q140.646 92.4957 141.754 92.4957Q142.495 92.4957 143.027 92.1761Q143.56 91.8565 143.8 91.2173L145.014 91.5582Q144.727 92.4851 143.864 93.055Q143.001 93.625 141.754 93.625ZM168.601 93.6463Q167.823 93.6463 167.189 93.3507Q166.555 93.055 166.183 92.4931Q165.81 91.9311 165.81 91.1321Q165.81 90.429 166.087 89.9895Q166.364 89.5501 166.827 89.2997Q167.29 89.0494 167.852 88.9242Q168.414 88.799 168.984 88.7244Q169.73 88.6285 170.196 88.5779Q170.662 88.5273 170.878 88.4048Q171.094 88.2823 171.094 87.9787L171.094 87.9361Q171.094 87.1477 170.665 86.7109Q170.236 86.2741 169.368 86.2741Q168.468 86.2741 167.956 86.6683Q167.445 87.0625 167.237 87.5099L166.044 87.0838Q166.364 86.3381 166.899 85.9199Q167.434 85.5018 168.071 85.334Q168.707 85.1662 169.325 85.1662Q169.719 85.1662 170.233 85.2594Q170.747 85.3526 171.23 85.6403Q171.712 85.9279 172.031 86.5085Q172.351 87.0891 172.351 88.0639L172.351 93.4545L171.094 93.4545L171.094 92.3466L171.03 92.3466Q170.902 92.6129 170.604 92.9165Q170.305 93.2202 169.81 93.4332Q169.315 93.6463 168.601 93.6463ZM175.994 93.0817Q176.825 93.625 177.976 93.625Q178.881 93.625 179.566 93.2868Q180.25 92.9485 180.668 92.3706Q181.087 91.7926 181.193 91.0682L179.936 91.0682Q179.76 91.7393 179.236 92.1175Q178.711 92.4957 177.976 92.4957Q176.857 92.4957 176.191 91.6408Q175.526 90.7859 175.526 89.3636Q175.526 87.9734 176.199 87.1344Q176.873 86.2955 177.976 86.2955Q178.807 86.2955 179.3 86.7296Q179.792 87.1637 179.936 87.723L181.193 87.723Q181.087 86.956 180.645 86.3807Q180.202 85.8054 179.51 85.4858Q178.817 85.1662 177.955 85.1662Q176.847 85.1662 176.018 85.7068Q175.19 86.2475 174.729 87.2037Q174.268 88.1598 174.268 89.4063Q174.268 90.6314 174.716 91.5849Q175.163 92.5384 175.994 93.0817ZM193.695 93.3507Q194.329 93.6463 195.107 93.6463Q195.82 93.6463 196.316 93.4332Q196.811 93.2202 197.109 92.9165Q197.408 92.6129 197.535 92.3466L197.599 92.3466L197.599 93.4545L198.857 93.4545L198.857 88.0639Q198.857 87.0891 198.537 86.5085Q198.217 85.9279 197.735 85.6403Q197.253 85.3526 196.739 85.2594Q196.225 85.1662 195.831 85.1662Q195.213 85.1662 194.577 85.334Q193.94 85.5018 193.405 85.9199Q192.869 86.3381 192.55 87.0838L193.743 87.5099Q193.951 87.0625 194.462 86.6683Q194.973 86.2741 195.874 86.2741Q196.742 86.2741 197.171 86.7109Q197.599 87.1477 197.599 87.9361L197.599 87.9787Q197.599 88.2823 197.384 88.4048Q197.168 88.5273 196.702 88.5779Q196.236 88.6285 195.49 88.7244Q194.92 88.799 194.358 88.9242Q193.796 89.0494 193.333 89.2997Q192.869 89.5501 192.592 89.9895Q192.315 90.429 192.315 91.1321Q192.315 91.9311 192.688 92.4931Q193.061 93.055 193.695 93.3507ZM205.376 96.5227L205.376 85.2727L206.591 85.2727L206.591 86.5724L206.74 86.5724Q206.879 86.3594 207.126 86.0265Q207.374 85.6935 207.84 85.4299Q208.306 85.1662 209.105 85.1662Q210.138 85.1662 210.927 85.6829Q211.715 86.1996 212.157 87.1477Q212.599 88.0959 212.599 89.3849Q212.599 90.6847 212.157 91.6355Q211.715 92.5863 210.932 93.1056Q210.149 93.625 209.126 93.625Q208.338 93.625 207.864 93.3613Q207.39 93.0977 207.134 92.7594Q206.879 92.4212 206.74 92.1974L206.633 92.1974L206.633 96.5227L205.376 96.5227ZM215.513 93.3507Q216.147 93.6463 216.925 93.6463Q217.638 93.6463 218.134 93.4332Q218.629 93.2202 218.928 92.9165Q219.226 92.6129 219.354 92.3466L219.418 92.3466L219.418 93.4545L220.675 93.4545L220.675 88.0639Q220.675 87.0891 220.355 86.5085Q220.035 85.9279 219.553 85.6403Q219.071 85.3526 218.557 85.2594Q218.043 85.1662 217.649 85.1662Q217.031 85.1662 216.395 85.334Q215.758 85.5018 215.223 85.9199Q214.687 86.3381 214.368 87.0838L215.561 87.5099Q215.769 87.0625 216.28 86.6683Q216.792 86.2741 217.692 86.2741Q218.56 86.2741 218.989 86.7109Q219.418 87.1477 219.418 87.9361L219.418 87.9787Q219.418 88.2823 219.202 88.4048Q218.986 88.5273 218.52 88.5779Q218.054 88.6285 217.308 88.7244Q216.738 88.799 216.176 88.9242Q215.614 89.0494 215.151 89.2997Q214.687 89.5501 214.41 89.9895Q214.133 90.429 214.133 91.1321Q214.133 91.9311 214.506 92.4931Q214.879 93.055 215.513 93.3507ZM241.555 93.625Q240.447 93.625 239.614 93.0977Q238.78 92.5703 238.314 91.6222Q237.848 90.674 237.848 89.4063Q237.848 88.1278 238.314 87.1744Q238.78 86.2209 239.614 85.6935Q240.447 85.1662 241.555 85.1662Q242.663 85.1662 243.497 85.6935Q244.331 86.2209 244.797 87.1744Q245.263 88.1278 245.263 89.4063Q245.263 90.674 244.797 91.6222Q244.331 92.5703 243.497 93.0977Q242.663 93.625 241.555 93.625ZM259.219 93.6463Q258.441 93.6463 257.807 93.3507Q257.173 93.055 256.8 92.4931Q256.428 91.9311 256.428 91.1321Q256.428 90.429 256.704 89.9895Q256.982 89.5501 257.445 89.2997Q257.908 89.0494 258.47 88.9242Q259.032 88.799 259.602 88.7244Q260.348 88.6285 260.814 88.5779Q261.28 88.5273 261.496 88.4048Q261.712 88.2823 261.712 87.9787L261.712 87.9361Q261.712 87.1477 261.283 86.7109Q260.854 86.2741 259.986 86.2741Q259.086 86.2741 258.574 86.6683Q258.063 87.0625 257.855 87.5099L256.662 87.0838Q256.982 86.3381 257.517 85.9199Q258.052 85.5018 258.689 85.334Q259.325 85.1662 259.943 85.1662Q260.337 85.1662 260.851 85.2594Q261.365 85.3526 261.847 85.6403Q262.329 85.9279 262.649 86.5085Q262.969 87.0891 262.969 88.0639L262.969 93.4545L261.712 93.4545L261.712 92.3466L261.648 92.3466Q261.52 92.6129 261.222 92.9165Q260.923 93.2202 260.428 93.4332Q259.932 93.6463 259.219 93.6463ZM274.155 87.4247L275.284 87.1051Q274.991 86.2315 274.296 85.6989Q273.601 85.1662 272.386 85.1662Q271.523 85.1662 270.844 85.4698Q270.165 85.7734 269.774 86.3061Q269.382 86.8388 269.382 87.5313Q269.382 88.3782 269.907 88.9402Q270.431 89.5021 271.555 89.7685L272.919 90.0881Q274.133 90.3704 274.133 91.2386Q274.133 91.766 273.614 92.1415Q273.095 92.517 272.216 92.517Q270.655 92.517 270.32 91.196L269.126 91.4943Q269.345 92.5384 270.165 93.0817Q270.985 93.625 272.237 93.625Q273.191 93.625 273.91 93.3054Q274.629 92.9858 275.031 92.4318Q275.433 91.8778 275.433 91.1747Q275.433 89.4915 273.26 88.9588L272.045 88.6605Q271.321 88.4794 270.98 88.2077Q270.639 87.9361 270.639 87.4673Q270.639 86.94 271.137 86.5964Q271.635 86.2528 272.386 86.2528Q273.212 86.2528 273.601 86.6257Q273.99 86.9986 274.155 87.4247ZM293.182 93.4545L293.182 88.5327Q293.182 87.462 293.776 86.8787Q294.37 86.2955 295.27 86.2955Q296.143 86.2955 296.644 86.8361Q297.145 87.3768 297.145 88.3409L297.145 93.4545L298.402 93.4545L298.402 88.2557Q298.402 86.6896 297.638 85.9279Q296.873 85.1662 295.632 85.1662Q294.705 85.1662 294.119 85.5471Q293.533 85.9279 293.246 86.5511L293.139 86.5511L293.139 85.2727L291.925 85.2727L291.925 93.4545L293.182 93.4545ZM304.006 96.6932Q302.637 96.6932 301.84 96.1951Q301.044 95.6971 300.66 95.0526L301.662 94.3494Q301.832 94.5732 302.093 94.8635Q302.354 95.1538 302.81 95.3695Q303.265 95.5852 304.006 95.5852Q304.996 95.5852 305.641 95.1058Q306.285 94.6264 306.285 93.6037L306.285 91.9418L306.179 91.9418Q306.04 92.1655 305.787 92.4931Q305.534 92.8207 305.063 93.0737Q304.592 93.3267 303.793 93.3267Q302.802 93.3267 302.016 92.858Q301.23 92.3892 300.775 91.4943Q300.32 90.5994 300.32 89.321Q300.32 88.0639 300.762 87.1291Q301.204 86.1942 301.992 85.6802Q302.781 85.1662 303.814 85.1662Q304.613 85.1662 305.084 85.4299Q305.556 85.6935 305.809 86.0265Q306.062 86.3594 306.2 86.5724L306.328 86.5724L306.328 85.2727L307.543 85.2727L307.543 93.6889Q307.543 94.7436 307.066 95.4068Q306.589 96.07 305.787 96.3816Q304.986 96.6932 304.006 96.6932ZM315.059 93.3507Q315.692 93.6463 316.47 93.6463Q317.184 93.6463 317.679 93.4332Q318.175 93.2202 318.473 92.9165Q318.771 92.6129 318.899 92.3466L318.963 92.3466L318.963 93.4545L320.22 93.4545L320.22 88.0639Q320.22 87.0891 319.901 86.5085Q319.581 85.9279 319.099 85.6403Q318.617 85.3526 318.103 85.2594Q317.589 85.1662 317.195 85.1662Q316.577 85.1662 315.94 85.334Q315.304 85.5018 314.768 85.9199Q314.233 86.3381 313.913 87.0838L315.107 87.5099Q315.314 87.0625 315.826 86.6683Q316.337 86.2741 317.237 86.2741Q318.105 86.2741 318.534 86.7109Q318.963 87.1477 318.963 87.9361L318.963 87.9787Q318.963 88.2823 318.747 88.4048Q318.532 88.5273 318.066 88.5779Q317.599 88.6285 316.854 88.7244Q316.284 88.799 315.722 88.9242Q315.16 89.0494 314.696 89.2997Q314.233 89.5501 313.956 89.9895Q313.679 90.429 313.679 91.1321Q313.679 91.9311 314.052 92.4931Q314.425 93.055 315.059 93.3507ZM323.778 88.5327L323.778 93.4545L322.521 93.4545L322.521 85.2727L323.736 85.2727L323.736 86.5511L323.842 86.5511Q324.13 85.9279 324.716 85.5471Q325.302 85.1662 326.229 85.1662Q327.47 85.1662 328.234 85.9279Q328.999 86.6896 328.999 88.2557L328.999 93.4545L327.741 93.4545L327.741 88.3409Q327.741 87.3768 327.241 86.8361Q326.74 86.2955 325.866 86.2955Q324.966 86.2955 324.372 86.8787Q323.778 87.462 323.778 88.5327ZM43.9986 85.2727L43.9986 93.4545L45.2557 93.4545L45.2557 85.2727L43.9986 85.2727ZM149.957 88.6179L147.997 85.2727L146.548 85.2727L149.148 89.3636L146.548 93.4545L147.997 93.4545L149.957 90.2798L151.918 93.4545L153.366 93.4545L150.724 89.3636L153.366 85.2727L151.918 85.2727L149.957 88.6179ZM288.366 85.2727L289.624 85.2727L289.624 93.4545L288.366 93.4545L288.366 85.2727ZM20.5238 88.7031L25.1847 88.7031Q25.1847 87.6644 24.5774 86.9799Q23.9702 86.2955 22.9474 86.2955Q22.2283 86.2955 21.701 86.631Q21.1737 86.9666 20.87 87.5179Q20.5664 88.0692 20.5238 88.7031ZM61.4702 88.7031L56.8093 88.7031Q56.8519 88.0692 57.1555 87.5179Q57.4592 86.9666 57.9865 86.631Q58.5139 86.2955 59.233 86.2955Q60.2557 86.2955 60.8629 86.9799Q61.4702 87.6644 61.4702 88.7031ZM98.331 88.7031L93.6701 88.7031Q93.7127 88.0692 94.0163 87.5179Q94.3199 86.9666 94.8473 86.631Q95.3746 86.2955 96.0937 86.2955Q97.1165 86.2955 97.7237 86.9799Q98.331 87.6644 98.331 88.7031ZM119.169 92.4957Q120.011 92.4957 120.554 92.0643Q121.097 91.6328 121.358 90.9297Q121.619 90.2266 121.619 89.4063Q121.619 88.5859 121.358 87.8775Q121.097 87.169 120.554 86.7322Q120.011 86.2955 119.169 86.2955Q118.327 86.2955 117.784 86.7322Q117.241 87.169 116.98 87.8775Q116.719 88.5859 116.719 89.4063Q116.719 90.2266 116.98 90.9297Q117.241 91.6328 117.784 92.0643Q118.327 92.4957 119.169 92.4957ZM129.793 91.6248Q129.189 92.4957 128.054 92.4957Q127.266 92.4957 126.736 92.0776Q126.206 91.6594 125.937 90.9483Q125.668 90.2372 125.668 89.3636Q125.668 88.5007 125.931 87.8056Q126.195 87.1104 126.725 86.7029Q127.255 86.2955 128.054 86.2955Q129.205 86.2955 129.801 87.1424Q130.398 87.9893 130.398 89.3636Q130.398 90.7539 129.793 91.6248ZM139.203 88.7031L143.864 88.7031Q143.864 87.6644 143.256 86.9799Q142.649 86.2955 141.626 86.2955Q140.907 86.2955 140.38 86.631Q139.853 86.9666 139.549 87.5179Q139.245 88.0692 139.203 88.7031ZM206.612 89.3636Q206.612 90.7539 207.217 91.6248Q207.821 92.4957 208.956 92.4957Q209.744 92.4957 210.274 92.0776Q210.804 91.6594 211.073 90.9483Q211.342 90.2372 211.342 89.3636Q211.342 88.5007 211.079 87.8056Q210.815 87.1104 210.285 86.7029Q209.755 86.2955 208.956 86.2955Q207.805 86.2955 207.209 87.1424Q206.612 87.9893 206.612 89.3636ZM241.555 92.4957Q242.397 92.4957 242.94 92.0643Q243.484 91.6328 243.745 90.9297Q244.006 90.2266 244.006 89.4063Q244.006 88.5859 243.745 87.8775Q243.484 87.169 242.94 86.7322Q242.397 86.2955 241.555 86.2955Q240.714 86.2955 240.17 86.7322Q239.627 87.169 239.366 87.8775Q239.105 88.5859 239.105 89.4063Q239.105 90.2266 239.366 90.9297Q239.627 91.6328 240.17 92.0643Q240.714 92.4957 241.555 92.4957ZM303.963 92.1974Q305.098 92.1974 305.702 91.4277Q306.307 90.658 306.307 89.2997Q306.307 87.9734 305.71 87.1344Q305.114 86.2955 303.963 86.2955Q303.164 86.2955 302.634 86.7003Q302.104 87.1051 301.84 87.7869Q301.577 88.4688 301.577 89.2997Q301.577 90.5781 302.179 91.3878Q302.781 92.1974 303.963 92.1974ZM336.299 91.6248Q335.694 92.4957 334.56 92.4957Q333.771 92.4957 333.241 92.0776Q332.711 91.6594 332.442 90.9483Q332.173 90.2372 332.173 89.3636Q332.173 88.5007 332.437 87.8056Q332.701 87.1104 333.231 86.7029Q333.761 86.2955 334.56 86.2955Q335.71 86.2955 336.307 87.1424Q336.903 87.9893 336.903 89.3636Q336.903 90.7539 336.299 91.6248ZM168.793 92.517Q169.538 92.517 170.052 92.2241Q170.566 91.9311 170.83 91.4677Q171.094 91.0043 171.094 90.4929L171.094 89.3423Q171.014 89.4382 170.745 89.5154Q170.476 89.5927 170.127 89.6486Q169.778 89.7045 169.45 89.7445Q169.123 89.7844 168.92 89.8111Q168.43 89.875 168.007 90.0162Q167.583 90.1573 167.325 90.437Q167.067 90.7166 167.067 91.196Q167.067 91.8512 167.554 92.1841Q168.042 92.517 168.793 92.517ZM196.558 92.2241Q196.044 92.517 195.298 92.517Q194.547 92.517 194.06 92.1841Q193.572 91.8512 193.572 91.196Q193.572 90.7166 193.831 90.437Q194.089 90.1573 194.513 90.0162Q194.936 89.875 195.426 89.8111Q195.629 89.7844 195.956 89.7445Q196.284 89.7045 196.633 89.6486Q196.982 89.5927 197.251 89.5154Q197.52 89.4382 197.599 89.3423L197.599 90.4929Q197.599 91.0043 197.336 91.4677Q197.072 91.9311 196.558 92.2241ZM218.376 92.2241Q217.862 92.517 217.116 92.517Q216.365 92.517 215.878 92.1841Q215.391 91.8512 215.391 91.196Q215.391 90.7166 215.649 90.437Q215.907 90.1573 216.331 90.0162Q216.754 89.875 217.244 89.8111Q217.447 89.7844 217.774 89.7445Q218.102 89.7045 218.451 89.6486Q218.8 89.5927 219.069 89.5154Q219.338 89.4382 219.418 89.3423L219.418 90.4929Q219.418 91.0043 219.154 91.4677Q218.89 91.9311 218.376 92.2241ZM259.41 92.517Q260.156 92.517 260.67 92.2241Q261.184 91.9311 261.448 91.4677Q261.712 91.0043 261.712 90.4929L261.712 89.3423Q261.632 89.4382 261.363 89.5154Q261.094 89.5927 260.745 89.6486Q260.396 89.7045 260.068 89.7445Q259.741 89.7844 259.538 89.8111Q259.048 89.875 258.625 90.0162Q258.201 90.1573 257.943 90.437Q257.685 90.7166 257.685 91.196Q257.685 91.8512 258.172 92.1841Q258.659 92.517 259.41 92.517ZM317.922 92.2241Q317.408 92.517 316.662 92.517Q315.911 92.517 315.423 92.1841Q314.936 91.8512 314.936 91.196Q314.936 90.7166 315.194 90.437Q315.453 90.1573 315.876 90.0162Q316.3 89.875 316.79 89.8111Q316.992 89.7844 317.32 89.7445Q317.647 89.7045 317.996 89.6486Q318.345 89.5927 318.614 89.5154Q318.883 89.4382 318.963 89.3423L318.963 90.4929Q318.963 91.0043 318.699 91.4677Q318.436 91.9311 317.922 92.2241Z" />
          </g>
          <g id="returns-the-extracted-parts-in-a-new-string">
            <path d="M196.457 101.659Q196.721 101.909 197.088 101.909Q197.456 101.909 197.719 101.659Q197.983 101.408 197.983 101.057Q197.983 100.705 197.719 100.455Q197.456 100.205 197.088 100.205Q196.721 100.205 196.457 100.455Q196.193 100.705 196.193 101.057Q196.193 101.408 196.457 101.659ZM279.119 101.909Q278.752 101.909 278.488 101.659Q278.224 101.408 278.224 101.057Q278.224 100.705 278.488 100.455Q278.752 100.205 279.119 100.205Q279.487 100.205 279.751 100.455Q280.014 100.705 280.014 101.057Q280.014 101.408 279.751 101.659Q279.487 101.909 279.119 101.909ZM62.7699 111.455L62.7699 106.533Q62.7699 105.462 63.3798 104.879Q63.9897 104.295 64.9219 104.295Q65.8114 104.295 66.3148 104.831Q66.8182 105.366 66.8182 106.341L66.8182 111.455L68.0753 111.455L68.0753 106.256Q68.0753 104.679 67.3082 103.923Q66.5412 103.166 65.2841 103.166Q64.32 103.166 63.742 103.542Q63.1641 103.917 62.8764 104.551L62.7699 104.551L62.7699 100.545L61.5128 100.545L61.5128 111.455L62.7699 111.455ZM143.507 111.106Q144.29 111.625 145.312 111.625Q146.101 111.625 146.575 111.361Q147.049 111.098 147.305 110.759Q147.56 110.421 147.699 110.197L147.848 110.197L147.848 111.455L149.062 111.455L149.062 100.545L147.805 100.545L147.805 104.572L147.699 104.572Q147.56 104.359 147.313 104.026Q147.065 103.694 146.599 103.43Q146.133 103.166 145.334 103.166Q144.3 103.166 143.512 103.683Q142.724 104.2 142.282 105.148Q141.839 106.096 141.839 107.385Q141.839 108.685 142.282 109.635Q142.724 110.586 143.507 111.106ZM19.027 104.338L19.027 103.273L17.2798 103.273L17.2798 101.313L16.0227 101.313L16.0227 103.273L14.7869 103.273L14.7869 104.338L16.0227 104.338L16.0227 109.452Q16.0227 110.165 16.3556 110.634Q16.6886 111.103 17.1973 111.332Q17.706 111.561 18.2386 111.561Q18.5902 111.561 18.8192 111.51Q19.0483 111.46 19.1761 111.412L18.9205 110.283Q18.8406 110.299 18.7074 110.323Q18.5742 110.347 18.3665 110.347Q18.0895 110.347 17.8418 110.259Q17.5941 110.171 17.437 109.907Q17.2798 109.643 17.2798 109.111L17.2798 104.338L19.027 104.338ZM59.6165 103.273L59.6165 104.338L57.8693 104.338L57.8693 109.111Q57.8693 109.643 58.0265 109.907Q58.1836 110.171 58.4313 110.259Q58.679 110.347 58.956 110.347Q59.1637 110.347 59.2969 110.323Q59.43 110.299 59.5099 110.283L59.7656 111.412Q59.6378 111.46 59.4087 111.51Q59.1797 111.561 58.8281 111.561Q58.2955 111.561 57.7868 111.332Q57.2781 111.103 56.9451 110.634Q56.6122 110.165 56.6122 109.452L56.6122 104.338L55.3764 104.338L55.3764 103.273L56.6122 103.273L56.6122 101.313L57.8693 101.313L57.8693 103.273L59.6165 103.273ZM103.722 104.338L103.722 103.273L101.974 103.273L101.974 101.313L100.717 101.313L100.717 103.273L99.4815 103.273L99.4815 104.338L100.717 104.338L100.717 109.452Q100.717 110.165 101.05 110.634Q101.383 111.103 101.892 111.332Q102.401 111.561 102.933 111.561Q103.285 111.561 103.514 111.51Q103.743 111.46 103.871 111.412L103.615 110.283Q103.535 110.299 103.402 110.323Q103.269 110.347 103.061 110.347Q102.784 110.347 102.536 110.259Q102.289 110.171 102.132 109.907Q101.974 109.643 101.974 109.111L101.974 104.338L103.722 104.338ZM131.591 104.338L131.591 103.273L129.844 103.273L129.844 101.313L128.587 101.313L128.587 103.273L127.351 103.273L127.351 104.338L128.587 104.338L128.587 109.452Q128.587 110.165 128.92 110.634Q129.252 111.103 129.761 111.332Q130.27 111.561 130.803 111.561Q131.154 111.561 131.383 111.51Q131.612 111.46 131.74 111.412L131.484 110.283Q131.404 110.299 131.271 110.323Q131.138 110.347 130.93 110.347Q130.653 110.347 130.406 110.259Q130.158 110.171 130.001 109.907Q129.844 109.643 129.844 109.111L129.844 104.338L131.591 104.338ZM182.493 104.338L182.493 103.273L180.746 103.273L180.746 101.313L179.489 101.313L179.489 103.273L178.253 103.273L178.253 104.338L179.489 104.338L179.489 109.452Q179.489 110.165 179.822 110.634Q180.154 111.103 180.663 111.332Q181.172 111.561 181.705 111.561Q182.056 111.561 182.285 111.51Q182.514 111.46 182.642 111.412L182.386 110.283Q182.306 110.299 182.173 110.323Q182.04 110.347 181.832 110.347Q181.555 110.347 181.308 110.259Q181.06 110.171 180.903 109.907Q180.746 109.643 180.746 109.111L180.746 104.338L182.493 104.338ZM271.001 103.273L271.001 104.338L269.254 104.338L269.254 109.111Q269.254 109.643 269.411 109.907Q269.569 110.171 269.816 110.259Q270.064 110.347 270.341 110.347Q270.549 110.347 270.682 110.323Q270.815 110.299 270.895 110.283L271.151 111.412Q271.023 111.46 270.794 111.51Q270.565 111.561 270.213 111.561Q269.68 111.561 269.172 111.332Q268.663 111.103 268.33 110.634Q267.997 110.165 267.997 109.452L267.997 104.338L266.761 104.338L266.761 103.273L267.997 103.273L267.997 101.313L269.254 101.313L269.254 103.273L271.001 103.273ZM1.15057 111.455L1.15057 103.273L2.36506 103.273L2.36506 104.509L2.45028 104.509Q2.67401 103.901 3.25994 103.523Q3.84588 103.145 4.58097 103.145Q4.71946 103.145 4.9272 103.15Q5.13494 103.156 5.24148 103.166L5.24148 104.445Q5.17756 104.429 4.95117 104.394Q4.72479 104.359 4.47443 104.359Q3.57955 104.359 2.99361 104.903Q2.40767 105.446 2.40767 106.277L2.40767 111.455L1.15057 111.455ZM29.6378 103.273L29.6378 111.455L30.8949 111.455L30.8949 106.277Q30.8949 105.446 31.4808 104.903Q32.0668 104.359 32.9616 104.359Q33.212 104.359 33.4384 104.394Q33.6648 104.429 33.7287 104.445L33.7287 103.166Q33.6222 103.156 33.4144 103.15Q33.2067 103.145 33.0682 103.145Q32.3331 103.145 31.7472 103.523Q31.1612 103.901 30.9375 104.509L30.8523 104.509L30.8523 103.273L29.6378 103.273ZM105.618 103.273L106.832 103.273L106.832 104.509L106.918 104.509Q107.141 103.901 107.727 103.523Q108.313 103.145 109.048 103.145Q109.187 103.145 109.395 103.15Q109.602 103.156 109.709 103.166L109.709 104.445Q109.645 104.429 109.418 104.394Q109.192 104.359 108.942 104.359Q108.047 104.359 107.461 104.903Q106.875 105.446 106.875 106.277L106.875 111.455L105.618 111.455L105.618 103.273ZM173.352 103.273L174.567 103.273L174.567 104.509L174.652 104.509Q174.876 103.901 175.462 103.523Q176.048 103.145 176.783 103.145Q176.921 103.145 177.129 103.15Q177.337 103.156 177.443 103.166L177.443 104.445Q177.379 104.429 177.153 104.394Q176.926 104.359 176.676 104.359Q175.781 104.359 175.195 104.903Q174.609 105.446 174.609 106.277L174.609 111.455L173.352 111.455L173.352 103.273ZM274.112 103.273L272.898 103.273L272.898 111.455L274.155 111.455L274.155 106.277Q274.155 105.446 274.741 104.903Q275.327 104.359 276.222 104.359Q276.472 104.359 276.698 104.394Q276.925 104.429 276.989 104.445L276.989 103.166Q276.882 103.156 276.674 103.15Q276.467 103.145 276.328 103.145Q275.593 103.145 275.007 103.523Q274.421 103.901 274.197 104.509L274.112 104.509L274.112 103.273ZM10.1634 111.625Q8.98082 111.625 8.12589 111.1Q7.27095 110.576 6.81019 109.63Q6.34943 108.685 6.34943 107.428Q6.34943 106.17 6.81019 105.209Q7.27095 104.248 8.09925 103.707Q8.92756 103.166 10.0355 103.166Q10.6747 103.166 11.2979 103.379Q11.9212 103.592 12.4325 104.069Q12.9439 104.546 13.2475 105.329Q13.5511 106.112 13.5511 107.257L13.5511 107.79L7.61186 107.79Q7.65447 109.1 8.35494 109.798Q9.0554 110.496 10.1634 110.496Q10.9038 110.496 11.4364 110.176Q11.9691 109.857 12.2088 109.217L13.4233 109.558Q13.1357 110.485 12.2727 111.055Q11.4098 111.625 10.1634 111.625ZM36.4773 106.533L36.4773 111.455L35.2202 111.455L35.2202 103.273L36.4347 103.273L36.4347 104.551L36.5412 104.551Q36.8288 103.928 37.4148 103.547Q38.0007 103.166 38.9276 103.166Q40.1687 103.166 40.9331 103.928Q41.6974 104.69 41.6974 106.256L41.6974 111.455L40.4403 111.455L40.4403 106.341Q40.4403 105.377 39.9396 104.836Q39.4389 104.295 38.5653 104.295Q37.6651 104.295 37.0712 104.879Q36.4773 105.462 36.4773 106.533ZM48.6648 105.425L49.794 105.105Q49.5011 104.232 48.8059 103.699Q48.1108 103.166 46.8963 103.166Q46.0334 103.166 45.3542 103.47Q44.6751 103.773 44.2836 104.306Q43.892 104.839 43.892 105.531Q43.892 106.378 44.4167 106.94Q44.9414 107.502 46.0653 107.768L47.429 108.088Q48.6435 108.37 48.6435 109.239Q48.6435 109.766 48.1241 110.142Q47.6048 110.517 46.7259 110.517Q45.1651 110.517 44.8295 109.196L43.6364 109.494Q43.8548 110.538 44.6751 111.082Q45.4954 111.625 46.7472 111.625Q47.7006 111.625 48.4197 111.305Q49.1388 110.986 49.541 110.432Q49.9432 109.878 49.9432 109.175Q49.9432 107.491 47.7699 106.959L46.5554 106.661Q45.831 106.479 45.4901 106.208Q45.1491 105.936 45.1491 105.467Q45.1491 104.94 45.6472 104.596Q46.1452 104.253 46.8963 104.253Q47.7219 104.253 48.1108 104.626Q48.4996 104.999 48.6648 105.425ZM73.8068 111.625Q72.6243 111.625 71.7693 111.1Q70.9144 110.576 70.4537 109.63Q69.9929 108.685 69.9929 107.428Q69.9929 106.17 70.4537 105.209Q70.9144 104.248 71.7427 103.707Q72.571 103.166 73.679 103.166Q74.3182 103.166 74.9414 103.379Q75.5646 103.592 76.076 104.069Q76.5873 104.546 76.891 105.329Q77.1946 106.112 77.1946 107.257L77.1946 107.79L71.2553 107.79Q71.2979 109.1 71.9984 109.798Q72.6989 110.496 73.8068 110.496Q74.5472 110.496 75.0799 110.176Q75.6126 109.857 75.8523 109.217L77.0668 109.558Q76.7791 110.485 75.9162 111.055Q75.0533 111.625 73.8068 111.625ZM84.7239 111.1Q85.5788 111.625 86.7614 111.625Q88.0078 111.625 88.8707 111.055Q89.7337 110.485 90.0213 109.558L88.8068 109.217Q88.5671 109.857 88.0344 110.176Q87.5018 110.496 86.7614 110.496Q85.6534 110.496 84.9529 109.798Q84.2525 109.1 84.2099 107.79L90.1491 107.79L90.1491 107.257Q90.1491 106.112 89.8455 105.329Q89.5419 104.546 89.0305 104.069Q88.5192 103.592 87.8959 103.379Q87.2727 103.166 86.6335 103.166Q85.5256 103.166 84.6973 103.707Q83.869 104.248 83.4082 105.209Q82.9474 106.17 82.9474 107.428Q82.9474 108.685 83.4082 109.63Q83.869 110.576 84.7239 111.1ZM112.196 111.351Q112.83 111.646 113.608 111.646Q114.322 111.646 114.817 111.433Q115.312 111.22 115.611 110.917Q115.909 110.613 116.037 110.347L116.101 110.347L116.101 111.455L117.358 111.455L117.358 106.064Q117.358 105.089 117.038 104.509Q116.719 103.928 116.237 103.64Q115.755 103.353 115.241 103.259Q114.727 103.166 114.332 103.166Q113.714 103.166 113.078 103.334Q112.441 103.502 111.906 103.92Q111.371 104.338 111.051 105.084L112.244 105.51Q112.452 105.063 112.963 104.668Q113.475 104.274 114.375 104.274Q115.243 104.274 115.672 104.711Q116.101 105.148 116.101 105.936L116.101 105.979Q116.101 106.282 115.885 106.405Q115.669 106.527 115.203 106.578Q114.737 106.629 113.991 106.724Q113.422 106.799 112.86 106.924Q112.298 107.049 111.834 107.3Q111.371 107.55 111.094 107.99Q110.817 108.429 110.817 109.132Q110.817 109.931 111.19 110.493Q111.562 111.055 112.196 111.351ZM122.983 111.625Q121.832 111.625 121.001 111.082Q120.17 110.538 119.723 109.585Q119.276 108.631 119.276 107.406Q119.276 106.16 119.736 105.204Q120.197 104.248 121.025 103.707Q121.854 103.166 122.962 103.166Q123.825 103.166 124.517 103.486Q125.21 103.805 125.652 104.381Q126.094 104.956 126.2 105.723L124.943 105.723Q124.799 105.164 124.307 104.73Q123.814 104.295 122.983 104.295Q121.88 104.295 121.206 105.134Q120.533 105.973 120.533 107.364Q120.533 108.786 121.199 109.641Q121.864 110.496 122.983 110.496Q123.718 110.496 124.243 110.118Q124.767 109.739 124.943 109.068L126.2 109.068Q126.094 109.793 125.676 110.371Q125.257 110.949 124.573 111.287Q123.888 111.625 122.983 111.625ZM136.918 111.625Q135.735 111.625 134.88 111.1Q134.025 110.576 133.564 109.63Q133.104 108.685 133.104 107.428Q133.104 106.17 133.564 105.209Q134.025 104.248 134.854 103.707Q135.682 103.166 136.79 103.166Q137.429 103.166 138.052 103.379Q138.675 103.592 139.187 104.069Q139.698 104.546 140.002 105.329Q140.305 106.112 140.305 107.257L140.305 107.79L134.366 107.79Q134.409 109.1 135.109 109.798Q135.81 110.496 136.918 110.496Q137.658 110.496 138.191 110.176Q138.723 109.857 138.963 109.217L140.178 109.558Q139.89 110.485 139.027 111.055Q138.164 111.625 136.918 111.625ZM155.753 114.523L155.753 103.273L156.967 103.273L156.967 104.572L157.116 104.572Q157.255 104.359 157.503 104.026Q157.75 103.694 158.216 103.43Q158.683 103.166 159.482 103.166Q160.515 103.166 161.303 103.683Q162.092 104.2 162.534 105.148Q162.976 106.096 162.976 107.385Q162.976 108.685 162.534 109.635Q162.092 110.586 161.309 111.106Q160.526 111.625 159.503 111.625Q158.714 111.625 158.24 111.361Q157.766 111.098 157.511 110.759Q157.255 110.421 157.116 110.197L157.01 110.197L157.01 114.523L155.753 114.523ZM165.89 111.351Q166.523 111.646 167.301 111.646Q168.015 111.646 168.51 111.433Q169.006 111.22 169.304 110.917Q169.602 110.613 169.73 110.347L169.794 110.347L169.794 111.455L171.051 111.455L171.051 106.064Q171.051 105.089 170.732 104.509Q170.412 103.928 169.93 103.64Q169.448 103.353 168.934 103.259Q168.42 103.166 168.026 103.166Q167.408 103.166 166.771 103.334Q166.135 103.502 165.599 103.92Q165.064 104.338 164.744 105.084L165.937 105.51Q166.145 105.063 166.657 104.668Q167.168 104.274 168.068 104.274Q168.936 104.274 169.365 104.711Q169.794 105.148 169.794 105.936L169.794 105.979Q169.794 106.282 169.578 106.405Q169.363 106.527 168.896 106.578Q168.43 106.629 167.685 106.724Q167.115 106.799 166.553 106.924Q165.991 107.049 165.527 107.3Q165.064 107.55 164.787 107.99Q164.51 108.429 164.51 109.132Q164.51 109.931 164.883 110.493Q165.256 111.055 165.89 111.351ZM190.185 105.105L189.055 105.425Q188.89 104.999 188.501 104.626Q188.113 104.253 187.287 104.253Q186.536 104.253 186.038 104.596Q185.54 104.94 185.54 105.467Q185.54 105.936 185.881 106.208Q186.222 106.479 186.946 106.661L188.16 106.959Q190.334 107.491 190.334 109.175Q190.334 109.878 189.932 110.432Q189.529 110.986 188.81 111.305Q188.091 111.625 187.138 111.625Q185.886 111.625 185.066 111.082Q184.245 110.538 184.027 109.494L185.22 109.196Q185.556 110.517 187.116 110.517Q187.995 110.517 188.515 110.142Q189.034 109.766 189.034 109.239Q189.034 108.37 187.82 108.088L186.456 107.768Q185.332 107.502 184.807 106.94Q184.283 106.378 184.283 105.531Q184.283 104.839 184.674 104.306Q185.066 103.773 185.745 103.47Q186.424 103.166 187.287 103.166Q188.501 103.166 189.197 103.699Q189.892 104.232 190.185 105.105ZM201.264 106.533L201.264 111.455L200.007 111.455L200.007 103.273L201.222 103.273L201.222 104.551L201.328 104.551Q201.616 103.928 202.202 103.547Q202.788 103.166 203.714 103.166Q204.956 103.166 205.72 103.928Q206.484 104.69 206.484 106.256L206.484 111.455L205.227 111.455L205.227 106.341Q205.227 105.377 204.727 104.836Q204.226 104.295 203.352 104.295Q202.452 104.295 201.858 104.879Q201.264 105.462 201.264 106.533ZM214 111.351Q214.634 111.646 215.412 111.646Q216.126 111.646 216.621 111.433Q217.116 111.22 217.415 110.917Q217.713 110.613 217.841 110.347L217.905 110.347L217.905 111.455L219.162 111.455L219.162 106.064Q219.162 105.089 218.842 104.509Q218.523 103.928 218.041 103.64Q217.559 103.353 217.045 103.259Q216.531 103.166 216.136 103.166Q215.518 103.166 214.882 103.334Q214.245 103.502 213.71 103.92Q213.175 104.338 212.855 105.084L214.048 105.51Q214.256 105.063 214.767 104.668Q215.279 104.274 216.179 104.274Q217.047 104.274 217.476 104.711Q217.905 105.148 217.905 105.936L217.905 105.979Q217.905 106.282 217.689 106.405Q217.473 106.527 217.007 106.578Q216.541 106.629 215.795 106.724Q215.225 106.799 214.664 106.924Q214.102 107.049 213.638 107.3Q213.175 107.55 212.898 107.99Q212.621 108.429 212.621 109.132Q212.621 109.931 212.994 110.493Q213.366 111.055 214 111.351ZM226.939 106.533L226.939 111.455L225.682 111.455L225.682 103.273L226.896 103.273L226.896 104.551L227.003 104.551Q227.29 103.928 227.876 103.547Q228.462 103.166 229.389 103.166Q230.63 103.166 231.395 103.928Q232.159 104.69 232.159 106.256L232.159 111.455L230.902 111.455L230.902 106.341Q230.902 105.377 230.401 104.836Q229.901 104.295 229.027 104.295Q228.127 104.295 227.533 104.879Q226.939 105.462 226.939 106.533ZM235.853 111.1Q236.708 111.625 237.891 111.625Q239.137 111.625 240 111.055Q240.863 110.485 241.151 109.558L239.936 109.217Q239.696 109.857 239.164 110.176Q238.631 110.496 237.891 110.496Q236.783 110.496 236.082 109.798Q235.382 109.1 235.339 107.79L241.278 107.79L241.278 107.257Q241.278 106.112 240.975 105.329Q240.671 104.546 240.16 104.069Q239.648 103.592 239.025 103.379Q238.402 103.166 237.763 103.166Q236.655 103.166 235.827 103.707Q234.998 104.248 234.537 105.209Q234.077 106.17 234.077 107.428Q234.077 108.685 234.537 109.63Q234.998 110.576 235.853 111.1ZM264.268 105.425L265.398 105.105Q265.105 104.232 264.41 103.699Q263.714 103.166 262.5 103.166Q261.637 103.166 260.958 103.47Q260.279 103.773 259.887 104.306Q259.496 104.839 259.496 105.531Q259.496 106.378 260.02 106.94Q260.545 107.502 261.669 107.768L263.033 108.088Q264.247 108.37 264.247 109.239Q264.247 109.766 263.728 110.142Q263.208 110.517 262.33 110.517Q260.769 110.517 260.433 109.196L259.24 109.494Q259.458 110.538 260.279 111.082Q261.099 111.625 262.351 111.625Q263.304 111.625 264.023 111.305Q264.743 110.986 265.145 110.432Q265.547 109.878 265.547 109.175Q265.547 107.491 263.374 106.959L262.159 106.661Q261.435 106.479 261.094 106.208Q260.753 105.936 260.753 105.467Q260.753 104.94 261.251 104.596Q261.749 104.253 262.5 104.253Q263.326 104.253 263.714 104.626Q264.103 104.999 264.268 105.425ZM283.295 111.455L283.295 106.533Q283.295 105.462 283.889 104.879Q284.483 104.295 285.384 104.295Q286.257 104.295 286.758 104.836Q287.259 105.377 287.259 106.341L287.259 111.455L288.516 111.455L288.516 106.256Q288.516 104.69 287.751 103.928Q286.987 103.166 285.746 103.166Q284.819 103.166 284.233 103.547Q283.647 103.928 283.359 104.551L283.253 104.551L283.253 103.273L282.038 103.273L282.038 111.455L283.295 111.455ZM294.119 114.693Q292.75 114.693 291.954 114.195Q291.158 113.697 290.774 113.053L291.776 112.349Q291.946 112.573 292.207 112.863Q292.468 113.154 292.923 113.369Q293.379 113.585 294.119 113.585Q295.11 113.585 295.755 113.106Q296.399 112.626 296.399 111.604L296.399 109.942L296.293 109.942Q296.154 110.165 295.901 110.493Q295.648 110.821 295.177 111.074Q294.705 111.327 293.906 111.327Q292.915 111.327 292.13 110.858Q291.344 110.389 290.889 109.494Q290.433 108.599 290.433 107.321Q290.433 106.064 290.875 105.129Q291.317 104.194 292.106 103.68Q292.894 103.166 293.928 103.166Q294.727 103.166 295.198 103.43Q295.669 103.694 295.922 104.026Q296.175 104.359 296.314 104.572L296.442 104.572L296.442 103.273L297.656 103.273L297.656 111.689Q297.656 112.744 297.18 113.407Q296.703 114.07 295.901 114.382Q295.099 114.693 294.119 114.693ZM26.0795 108.109L26.0795 103.273L27.3366 103.273L27.3366 111.455L26.0795 111.455L26.0795 110.07L25.9943 110.07Q25.7067 110.693 25.0994 111.127Q24.4922 111.561 23.5653 111.561Q22.4148 111.561 21.669 110.799Q20.9233 110.038 20.9233 108.472L20.9233 103.273L22.1804 103.273L22.1804 108.386Q22.1804 109.281 22.6838 109.814Q23.1871 110.347 23.9702 110.347Q24.4389 110.347 24.9263 110.107Q25.4137 109.867 25.7466 109.372Q26.0795 108.876 26.0795 108.109ZM93.0042 103.273L94.9645 106.618L96.9247 103.273L98.3736 103.273L95.7315 107.364L98.3736 111.455L96.9247 111.455L94.9645 108.28L93.0042 111.455L91.5554 111.455L94.1548 107.364L91.5554 103.273L93.0042 103.273ZM197.706 103.273L196.449 103.273L196.449 111.455L197.706 111.455L197.706 103.273ZM242.557 103.273L243.878 103.273L245.646 109.537L245.732 109.537L247.479 103.273L248.821 103.273L250.547 109.516L250.632 109.516L252.401 103.273L253.722 103.273L251.229 111.455L249.993 111.455L248.203 105.169L248.075 105.169L246.285 111.455L245.05 111.455L242.557 103.273ZM278.48 103.273L279.737 103.273L279.737 111.455L278.48 111.455L278.48 103.273ZM300.197 105.185Q300.479 105.467 300.874 105.467Q301.268 105.467 301.55 105.185Q301.832 104.903 301.832 104.509Q301.832 104.114 301.55 103.832Q301.268 103.55 300.874 103.55Q300.479 103.55 300.197 103.832Q299.915 104.114 299.915 104.509Q299.915 104.903 300.197 105.185ZM7.61186 106.703L12.2727 106.703Q12.2727 105.664 11.6655 104.98Q11.0582 104.295 10.0355 104.295Q9.31641 104.295 8.78906 104.631Q8.26172 104.967 7.9581 105.518Q7.65447 106.069 7.61186 106.703ZM71.2553 106.703L75.9162 106.703Q75.9162 105.664 75.3089 104.98Q74.7017 104.295 73.679 104.295Q72.9599 104.295 72.4325 104.631Q71.9052 104.967 71.6016 105.518Q71.2979 106.069 71.2553 106.703ZM88.8707 106.703L84.2099 106.703Q84.2525 106.069 84.5561 105.518Q84.8597 104.967 85.3871 104.631Q85.9144 104.295 86.6335 104.295Q87.6562 104.295 88.2635 104.98Q88.8707 105.664 88.8707 106.703ZM134.366 106.703L139.027 106.703Q139.027 105.664 138.42 104.98Q137.812 104.295 136.79 104.295Q136.071 104.295 135.543 104.631Q135.016 104.967 134.712 105.518Q134.409 106.069 134.366 106.703ZM147.222 109.625Q146.618 110.496 145.483 110.496Q144.695 110.496 144.165 110.078Q143.635 109.659 143.366 108.948Q143.097 108.237 143.097 107.364Q143.097 106.501 143.36 105.806Q143.624 105.11 144.154 104.703Q144.684 104.295 145.483 104.295Q146.634 104.295 147.23 105.142Q147.827 105.989 147.827 107.364Q147.827 108.754 147.222 109.625ZM156.989 107.364Q156.989 108.754 157.593 109.625Q158.198 110.496 159.332 110.496Q160.121 110.496 160.651 110.078Q161.181 109.659 161.45 108.948Q161.719 108.237 161.719 107.364Q161.719 106.501 161.455 105.806Q161.191 105.11 160.661 104.703Q160.131 104.295 159.332 104.295Q158.182 104.295 157.585 105.142Q156.989 105.989 156.989 107.364ZM240 106.703L235.339 106.703Q235.382 106.069 235.685 105.518Q235.989 104.967 236.516 104.631Q237.044 104.295 237.763 104.295Q238.785 104.295 239.393 104.98Q240 105.664 240 106.703ZM294.077 110.197Q295.211 110.197 295.816 109.428Q296.42 108.658 296.42 107.3Q296.42 105.973 295.824 105.134Q295.227 104.295 294.077 104.295Q293.278 104.295 292.748 104.7Q292.218 105.105 291.954 105.787Q291.69 106.469 291.69 107.3Q291.69 108.578 292.292 109.388Q292.894 110.197 294.077 110.197ZM115.059 110.224Q114.545 110.517 113.8 110.517Q113.049 110.517 112.561 110.184Q112.074 109.851 112.074 109.196Q112.074 108.717 112.332 108.437Q112.591 108.157 113.014 108.016Q113.437 107.875 113.928 107.811Q114.13 107.784 114.458 107.744Q114.785 107.705 115.134 107.649Q115.483 107.593 115.752 107.515Q116.021 107.438 116.101 107.342L116.101 108.493Q116.101 109.004 115.837 109.468Q115.574 109.931 115.059 110.224ZM168.753 110.224Q168.239 110.517 167.493 110.517Q166.742 110.517 166.254 110.184Q165.767 109.851 165.767 109.196Q165.767 108.717 166.025 108.437Q166.284 108.157 166.707 108.016Q167.131 107.875 167.621 107.811Q167.823 107.784 168.151 107.744Q168.478 107.705 168.827 107.649Q169.176 107.593 169.445 107.515Q169.714 107.438 169.794 107.342L169.794 108.493Q169.794 109.004 169.53 109.468Q169.267 109.931 168.753 110.224ZM216.863 110.224Q216.349 110.517 215.604 110.517Q214.853 110.517 214.365 110.184Q213.878 109.851 213.878 109.196Q213.878 108.717 214.136 108.437Q214.395 108.157 214.818 108.016Q215.241 107.875 215.732 107.811Q215.934 107.784 216.262 107.744Q216.589 107.705 216.938 107.649Q217.287 107.593 217.556 107.515Q217.825 107.438 217.905 107.342L217.905 108.493Q217.905 109.004 217.641 109.468Q217.377 109.931 216.863 110.224ZM300.197 111.257Q300.479 111.54 300.874 111.54Q301.268 111.54 301.55 111.257Q301.832 110.975 301.832 110.581Q301.832 110.187 301.55 109.904Q301.268 109.622 300.874 109.622Q300.479 109.622 300.197 109.904Q299.915 110.187 299.915 110.581Q299.915 110.975 300.197 111.257Z" />
          </g>
          <g id="Banana">
            <path d="M1.32102 136.545L1.32102 147.455L5.26278 147.455Q6.55185 147.455 7.35618 147.071Q8.16051 146.688 8.53338 146.032Q8.90625 145.377 8.90625 144.557Q8.90625 143.694 8.56534 143.097Q8.22443 142.501 7.7184 142.181Q7.21236 141.862 6.71165 141.83L6.71165 141.723Q7.1804 141.595 7.58256 141.329Q7.98473 141.063 8.23242 140.604Q8.48011 140.146 8.48011 139.443Q8.48011 138.644 8.1179 137.986Q7.75568 137.328 7.01527 136.937Q6.27486 136.545 5.13494 136.545L1.32102 136.545ZM5.09233 141.339L2.64205 141.339L2.64205 137.717L5.13494 137.717Q6.22159 137.717 6.7223 138.221Q7.22301 138.724 7.22301 139.443Q7.22301 140.306 6.60511 140.823Q5.98722 141.339 5.09233 141.339ZM11.9052 147.351Q12.5391 147.646 13.3168 147.646Q14.0305 147.646 14.5259 147.433Q15.0213 147.22 15.3196 146.917Q15.6179 146.613 15.7457 146.347L15.8097 146.347L15.8097 147.455L17.0668 147.455L17.0668 142.064Q17.0668 141.089 16.7472 140.509Q16.4276 139.928 15.9455 139.64Q15.4634 139.353 14.9494 139.259Q14.4354 139.166 14.0412 139.166Q13.4233 139.166 12.7868 139.334Q12.1502 139.502 11.6149 139.92Q11.0795 140.338 10.7599 141.084L11.9531 141.51Q12.1609 141.063 12.6722 140.668Q13.1836 140.274 14.0838 140.274Q14.9521 140.274 15.3809 140.711Q15.8097 141.148 15.8097 141.936L15.8097 141.979Q15.8097 142.282 15.5939 142.405Q15.3782 142.527 14.9121 142.578Q14.446 142.629 13.7003 142.724Q13.1303 142.799 12.5684 142.924Q12.0064 143.049 11.543 143.3Q11.0795 143.55 10.8026 143.99Q10.5256 144.429 10.5256 145.132Q10.5256 145.931 10.8984 146.493Q11.2713 147.055 11.9052 147.351ZM20.625 142.533L20.625 147.455L19.3679 147.455L19.3679 139.273L20.5824 139.273L20.5824 140.551L20.6889 140.551Q20.9766 139.928 21.5625 139.547Q22.1484 139.166 23.0753 139.166Q24.3164 139.166 25.0808 139.928Q25.8452 140.69 25.8452 142.256L25.8452 147.455L24.5881 147.455L24.5881 142.341Q24.5881 141.377 24.0874 140.836Q23.5866 140.295 22.7131 140.295Q21.8129 140.295 21.2189 140.879Q20.625 141.462 20.625 142.533ZM29.1424 147.351Q29.7763 147.646 30.554 147.646Q31.2678 147.646 31.7631 147.433Q32.2585 147.22 32.5568 146.917Q32.8551 146.613 32.983 146.347L33.0469 146.347L33.0469 147.455L34.304 147.455L34.304 142.064Q34.304 141.089 33.9844 140.509Q33.6648 139.928 33.1827 139.64Q32.7006 139.353 32.1866 139.259Q31.6726 139.166 31.2784 139.166Q30.6605 139.166 30.024 139.334Q29.3874 139.502 28.8521 139.92Q28.3168 140.338 27.9972 141.084L29.1903 141.51Q29.3981 141.063 29.9094 140.668Q30.4208 140.274 31.321 140.274Q32.1893 140.274 32.6181 140.711Q33.0469 141.148 33.0469 141.936L33.0469 141.979Q33.0469 142.282 32.8311 142.405Q32.6154 142.527 32.1493 142.578Q31.6832 142.629 30.9375 142.724Q30.3675 142.799 29.8056 142.924Q29.2436 143.049 28.7802 143.3Q28.3168 143.55 28.0398 143.99Q27.7628 144.429 27.7628 145.132Q27.7628 145.931 28.1357 146.493Q28.5085 147.055 29.1424 147.351ZM37.8622 142.533L37.8622 147.455L36.6051 147.455L36.6051 139.273L37.8196 139.273L37.8196 140.551L37.9261 140.551Q38.2138 139.928 38.7997 139.547Q39.3857 139.166 40.3125 139.166Q41.5536 139.166 42.318 139.928Q43.0824 140.69 43.0824 142.256L43.0824 147.455L41.8253 147.455L41.8253 142.341Q41.8253 141.377 41.3246 140.836Q40.8239 140.295 39.9503 140.295Q39.0501 140.295 38.4561 140.879Q37.8622 141.462 37.8622 142.533ZM46.3796 147.351Q47.0135 147.646 47.7912 147.646Q48.505 147.646 49.0004 147.433Q49.4957 147.22 49.794 146.917Q50.0923 146.613 50.2202 146.347L50.2841 146.347L50.2841 147.455L51.5412 147.455L51.5412 142.064Q51.5412 141.089 51.2216 140.509Q50.902 139.928 50.4199 139.64Q49.9379 139.353 49.4238 139.259Q48.9098 139.166 48.5156 139.166Q47.8977 139.166 47.2612 139.334Q46.6246 139.502 46.0893 139.92Q45.554 140.338 45.2344 141.084L46.4276 141.51Q46.6353 141.063 47.1467 140.668Q47.658 140.274 48.5582 140.274Q49.4265 140.274 49.8553 140.711Q50.2841 141.148 50.2841 141.936L50.2841 141.979Q50.2841 142.282 50.0684 142.405Q49.8526 142.527 49.3865 142.578Q48.9205 142.629 48.1747 142.724Q47.6048 142.799 47.0428 142.924Q46.4808 143.049 46.0174 143.3Q45.554 143.55 45.277 143.99Q45 144.429 45 145.132Q45 145.931 45.3729 146.493Q45.7457 147.055 46.3796 147.351ZM5.26278 146.283L2.64205 146.283L2.64205 142.49L5.3267 142.49Q6.04048 142.49 6.5625 142.775Q7.08452 143.06 7.36683 143.531Q7.64915 144.003 7.64915 144.557Q7.64915 145.276 7.10316 145.779Q6.55717 146.283 5.26278 146.283ZM14.7683 146.224Q14.2543 146.517 13.5085 146.517Q12.7575 146.517 12.2701 146.184Q11.7827 145.851 11.7827 145.196Q11.7827 144.717 12.041 144.437Q12.2994 144.157 12.7228 144.016Q13.1463 143.875 13.6364 143.811Q13.8388 143.784 14.1664 143.744Q14.494 143.705 14.8429 143.649Q15.1918 143.593 15.4608 143.515Q15.7298 143.438 15.8097 143.342L15.8097 144.493Q15.8097 145.004 15.546 145.468Q15.2823 145.931 14.7683 146.224ZM32.0055 146.224Q31.4915 146.517 30.7457 146.517Q29.9947 146.517 29.5073 146.184Q29.0199 145.851 29.0199 145.196Q29.0199 144.717 29.2782 144.437Q29.5366 144.157 29.9601 144.016Q30.3835 143.875 30.8736 143.811Q31.076 143.784 31.4036 143.744Q31.7312 143.705 32.0801 143.649Q32.429 143.593 32.698 143.515Q32.967 143.438 33.0469 143.342L33.0469 144.493Q33.0469 145.004 32.7832 145.468Q32.5195 145.931 32.0055 146.224ZM49.2427 146.224Q48.7287 146.517 47.983 146.517Q47.2319 146.517 46.7445 146.184Q46.2571 145.851 46.2571 145.196Q46.2571 144.717 46.5154 144.437Q46.7738 144.157 47.1973 144.016Q47.6207 143.875 48.1108 143.811Q48.3132 143.784 48.6408 143.744Q48.9684 143.705 49.3173 143.649Q49.6662 143.593 49.9352 143.515Q50.2042 143.438 50.2841 143.342L50.2841 144.493Q50.2841 145.004 50.0204 145.468Q49.7567 145.931 49.2427 146.224Z" />
          </g>
        </g>
      </g>
    </g>
  </g>
</svg>