<?xml version="1.0" encoding="utf-8"?>
<svg width="375px" height="282px" viewBox="0 0 375 282" version="1.1" xmlns:xlink="http://www.w3.org/1999/xlink" xmlns="http://www.w3.org/2000/svg">
  <g id="Group-96">
    <path d="M0 0L307.09 0L375 0L375 282L0 282L0 0Z" id="Rectangle-14" fill="#FFFFFF" fill-rule="evenodd" stroke="none" />
    <g id="Group-94" transform="translate(13 11.000122)">
      <g id="JavaScript-program-to-get-the">
        <g id="JavaScript-program-to-get-the-">
          <path d="M82.0739 58.9574Q81.4063 58.9574 80.9233 58.5064Q80.4403 58.0554 80.4403 57.4233Q80.4403 56.7912 80.9233 56.3438Q81.4063 55.8963 82.0739 55.8963Q82.7486 55.8963 83.2315 56.3438Q83.7145 56.7912 83.7145 57.4233Q83.7145 58.0554 83.2315 58.5064Q82.7486 58.9574 82.0739 58.9574ZM54.7479 59.5753Q55.3977 60.0511 55.483 60.9105L58.4304 60.9105Q58.4091 59.6108 57.7344 58.6236Q57.0597 57.6364 55.8487 57.0824Q54.6378 56.5284 53.0185 56.5284Q51.4276 56.5284 50.1776 57.0788Q48.9276 57.6293 48.2138 58.62Q47.5 59.6108 47.5071 60.9318Q47.5 62.5369 48.5653 63.4957Q49.6307 64.4545 51.4702 64.8949L53.054 65.2926Q54.2401 65.5767 54.8793 65.9744Q55.5185 66.3722 55.5256 67.1108Q55.5185 67.9063 54.8189 68.4034Q54.1193 68.9006 52.9474 68.9006Q51.7472 68.9006 50.9624 68.3501Q50.1776 67.7997 50.0994 66.706L47.1236 66.706Q47.1804 69.0639 48.7571 70.2713Q50.3338 71.4787 52.983 71.4787Q55.6463 71.4787 57.1342 70.2962Q58.6222 69.1136 58.6293 67.1179Q58.6293 65.9034 58.0646 65.0547Q57.5 64.206 56.5163 63.6662Q55.5327 63.1264 54.2685 62.8423L52.9616 62.5298Q52.017 62.3097 51.3317 61.9084Q50.6463 61.5071 50.6605 60.7259Q50.6605 60.0227 51.2642 59.5611Q51.8679 59.0994 52.9972 59.0994Q54.098 59.0994 54.7479 59.5753ZM7.08807 56.7273L10.1278 56.7273L10.1278 66.8693Q10.1278 68.2756 9.49929 69.309Q8.87074 70.3423 7.75568 70.907Q6.64063 71.4716 5.16335 71.4716Q3.84943 71.4716 2.78054 71.0028Q1.71165 70.5341 1.08665 69.5824Q0.461648 68.6307 0.46875 67.1818L3.52983 67.1818Q3.54403 68.0483 4.03054 68.5277Q4.51705 69.0071 5.3196 69.0071Q7.07386 69.0071 7.08807 66.8693L7.08807 56.7273ZM271.967 64.9659L271.967 71.2727L268.942 71.2727L268.942 56.7273L271.882 56.7273L271.882 62.2884L272.01 62.2884Q272.386 61.3224 273.207 60.772Q274.027 60.2216 275.27 60.2216Q276.974 60.2216 278.011 61.3153Q279.048 62.4091 279.041 64.3267L279.041 71.2727L276.016 71.2727L276.016 64.8665Q276.023 63.858 275.508 63.2969Q274.993 62.7358 274.07 62.7358Q273.146 62.7358 272.56 63.3217Q271.974 63.9077 271.967 64.9659ZM104.446 60.3636L104.446 62.6364L102.393 62.6364L102.393 67.9205Q102.393 68.5455 102.678 68.7656Q102.962 68.9858 103.416 68.9858Q103.629 68.9858 103.842 68.9467Q104.055 68.9077 104.169 68.8864L104.645 71.1378Q104.418 71.2088 104.006 71.3047Q103.594 71.4006 103.004 71.4219Q101.357 71.4929 100.359 70.7081Q99.3608 69.9233 99.3679 68.3182L99.3679 62.6364L97.8764 62.6364L97.8764 60.3636L99.3679 60.3636L99.3679 57.75L102.393 57.75L102.393 60.3636L104.446 60.3636ZM205.27 60.3636L205.27 62.6364L203.217 62.6364L203.217 67.9205Q203.217 68.5455 203.501 68.7656Q203.786 68.9858 204.24 68.9858Q204.453 68.9858 204.666 68.9467Q204.879 68.9077 204.993 68.8864L205.469 71.1378Q205.241 71.2088 204.83 71.3047Q204.418 71.4006 203.828 71.4219Q202.18 71.4929 201.183 70.7081Q200.185 69.9233 200.192 68.3182L200.192 62.6364L198.7 62.6364L198.7 60.3636L200.192 60.3636L200.192 57.75L203.217 57.75L203.217 60.3636L205.27 60.3636ZM254.567 60.3636L254.567 62.6364L252.514 62.6364L252.514 67.9205Q252.514 68.5455 252.798 68.7656Q253.082 68.9858 253.537 68.9858Q253.75 68.9858 253.963 68.9467Q254.176 68.9077 254.29 68.8864L254.766 71.1378Q254.538 71.2088 254.126 71.3047Q253.714 71.4006 253.125 71.4219Q251.477 71.4929 250.479 70.7081Q249.482 69.9233 249.489 68.3182L249.489 62.6364L247.997 62.6364L247.997 60.3636L249.489 60.3636L249.489 57.75L252.514 57.75L252.514 60.3636L254.567 60.3636ZM266.974 62.6364L266.974 60.3636L264.922 60.3636L264.922 57.75L261.896 57.75L261.896 60.3636L260.405 60.3636L260.405 62.6364L261.896 62.6364L261.896 68.3182Q261.889 69.9233 262.887 70.7081Q263.885 71.4929 265.533 71.4219Q266.122 71.4006 266.534 71.3047Q266.946 71.2088 267.173 71.1378L266.697 68.8864Q266.584 68.9077 266.371 68.9467Q266.158 68.9858 265.945 68.9858Q265.49 68.9858 265.206 68.7656Q264.922 68.5455 264.922 67.9205L264.922 62.6364L266.974 62.6364ZM75.3125 60.3636L72.3793 60.3636L72.3793 71.2727L75.4048 71.2727L75.4048 65.1009Q75.4048 64.0923 76.0618 63.4638Q76.7188 62.8352 77.7202 62.8352Q78.0327 62.8352 78.4091 62.8814Q78.7855 62.9276 78.9986 62.9986L78.9986 60.3139Q78.5511 60.2074 78.0469 60.2074Q77.1307 60.2074 76.4276 60.7294Q75.7244 61.2514 75.4261 62.267L75.3125 62.267L75.3125 60.3636ZM123.7 60.3636L126.634 60.3636L126.634 62.267L126.747 62.267Q127.045 61.2514 127.749 60.7294Q128.452 60.2074 129.368 60.2074Q129.872 60.2074 130.32 60.3139L130.32 62.9986Q130.107 62.9276 129.73 62.8814Q129.354 62.8352 129.041 62.8352Q128.04 62.8352 127.383 63.4638Q126.726 64.0923 126.726 65.1009L126.726 71.2727L123.7 71.2727L123.7 60.3636ZM159.744 60.3636L156.811 60.3636L156.811 71.2727L159.837 71.2727L159.837 65.1009Q159.837 64.0923 160.494 63.4638Q161.151 62.8352 162.152 62.8352Q162.464 62.8352 162.841 62.8814Q163.217 62.9276 163.43 62.9986L163.43 60.3139Q162.983 60.2074 162.479 60.2074Q161.562 60.2074 160.859 60.7294Q160.156 61.2514 159.858 62.267L159.744 62.267L159.744 60.3636ZM15.7173 71.4787Q14.1548 71.4787 13.125 70.6619Q12.0952 69.8452 12.0952 68.2259Q12.0952 67.0043 12.6705 66.3082Q13.2457 65.6122 14.1797 65.2891Q15.1136 64.9659 16.1932 64.8665Q17.6136 64.7244 18.2244 64.5682Q18.8352 64.4119 18.8352 63.8864L18.8352 63.8438Q18.8352 63.169 18.4126 62.7997Q17.9901 62.4304 17.2159 62.4304Q16.3991 62.4304 15.9162 62.7855Q15.4332 63.1406 15.277 63.6875L12.4787 63.4602Q12.7912 61.9688 14.0305 61.0952Q15.2699 60.2216 17.2301 60.2216Q18.4446 60.2216 19.5028 60.6051Q20.5611 60.9886 21.2109 61.8018Q21.8608 62.6151 21.8608 63.9148L21.8608 71.2727L18.9915 71.2727L18.9915 69.7599L18.9063 69.7599Q18.5085 70.5199 17.7166 70.9993Q16.9247 71.4787 15.7173 71.4787ZM39.0412 71.4787Q37.4787 71.4787 36.4489 70.6619Q35.419 69.8452 35.419 68.2259Q35.419 67.0043 35.9943 66.3082Q36.5696 65.6122 37.5036 65.2891Q38.4375 64.9659 39.517 64.8665Q40.9375 64.7244 41.5483 64.5682Q42.1591 64.4119 42.1591 63.8864L42.1591 63.8438Q42.1591 63.169 41.7365 62.7997Q41.3139 62.4304 40.5398 62.4304Q39.723 62.4304 39.2401 62.7855Q38.7571 63.1406 38.6009 63.6875L35.8026 63.4602Q36.1151 61.9688 37.3544 61.0952Q38.5938 60.2216 40.554 60.2216Q41.7685 60.2216 42.8267 60.6051Q43.8849 60.9886 44.5348 61.8018Q45.1847 62.6151 45.1847 63.9148L45.1847 71.2727L42.3153 71.2727L42.3153 69.7599L42.2301 69.7599Q41.8324 70.5199 41.0405 70.9993Q40.2486 71.4787 39.0412 71.4787ZM65.5611 71.4858Q63.8849 71.4858 62.6811 70.772Q61.4773 70.0582 60.8345 68.7869Q60.1918 67.5156 60.1918 65.8608Q60.1918 64.1847 60.8416 62.9169Q61.4915 61.6491 62.6918 60.9354Q63.892 60.2216 65.5469 60.2216Q66.9744 60.2216 68.0504 60.7401Q69.1264 61.2585 69.7479 62.196Q70.3693 63.1335 70.4332 64.3977L67.5781 64.3977Q67.4574 63.581 66.9425 63.0803Q66.4276 62.5795 65.5966 62.5795Q64.5455 62.5795 63.9063 63.4247Q63.267 64.2699 63.267 65.8182Q63.267 67.3807 63.9027 68.2365Q64.5384 69.0923 65.5966 69.0923Q66.3778 69.0923 66.9105 68.62Q67.4432 68.1477 67.5781 67.2741L70.4332 67.2741Q70.3622 68.5241 69.755 69.4759Q69.1477 70.4276 68.0824 70.9567Q67.017 71.4858 65.5611 71.4858ZM85.9943 60.3636L85.9943 75.3636L89.0199 75.3636L89.0199 69.5256L89.1122 69.5256Q89.3253 69.9801 89.7124 70.424Q90.0994 70.8679 90.7138 71.1591Q91.3281 71.4503 92.2088 71.4503Q93.4517 71.4503 94.4531 70.8075Q95.4545 70.1648 96.044 68.9112Q96.6335 67.6577 96.6335 65.8324Q96.6335 63.9574 96.0263 62.7109Q95.419 61.4645 94.4176 60.843Q93.4162 60.2216 92.2159 60.2216Q91.3068 60.2216 90.6889 60.5305Q90.071 60.8395 89.6946 61.294Q89.3182 61.7486 89.1122 62.196L88.9773 62.196L88.9773 60.3636L85.9943 60.3636ZM111.051 60.3636L111.051 75.3636L114.077 75.3636L114.077 69.5256L114.169 69.5256Q114.382 69.9801 114.769 70.424Q115.156 70.8679 115.771 71.1591Q116.385 71.4503 117.266 71.4503Q118.509 71.4503 119.51 70.8075Q120.511 70.1648 121.101 68.9112Q121.69 67.6577 121.69 65.8324Q121.69 63.9574 121.083 62.7109Q120.476 61.4645 119.474 60.843Q118.473 60.2216 117.273 60.2216Q116.364 60.2216 115.746 60.5305Q115.128 60.8395 114.751 61.294Q114.375 61.7486 114.169 62.196L114.034 62.196L114.034 60.3636L111.051 60.3636ZM133.945 70.7791Q135.149 71.4858 136.804 71.4858Q138.459 71.4858 139.663 70.7791Q140.866 70.0724 141.52 68.8047Q142.173 67.5369 142.173 65.8608Q142.173 64.1705 141.52 62.9027Q140.866 61.6349 139.663 60.9283Q138.459 60.2216 136.804 60.2216Q135.149 60.2216 133.945 60.9283Q132.741 61.6349 132.088 62.9027Q131.435 64.1705 131.435 65.8608Q131.435 67.5369 132.088 68.8047Q132.741 70.0724 133.945 70.7791ZM149.063 75.5909Q146.861 75.5909 145.604 74.7138Q144.347 73.8366 144.077 72.5511L146.875 72.1747Q147.06 72.6719 147.596 73.0447Q148.132 73.4176 149.134 73.4176Q150.121 73.4176 150.763 72.9382Q151.406 72.4588 151.406 71.3366L151.406 69.3409L151.278 69.3409Q150.98 70.0156 150.227 70.5661Q149.474 71.1165 148.168 71.1165Q146.939 71.1165 145.934 70.5412Q144.929 69.9659 144.336 68.7869Q143.743 67.608 143.743 65.7969Q143.743 63.9361 144.35 62.7003Q144.957 61.4645 145.962 60.843Q146.967 60.2216 148.161 60.2216Q149.077 60.2216 149.695 60.5305Q150.313 60.8395 150.696 61.294Q151.08 61.7486 151.278 62.196L151.392 62.196L151.392 60.3636L154.396 60.3636L154.396 71.3793Q154.396 72.7713 153.711 73.7088Q153.026 74.6463 151.825 75.1186Q150.625 75.5909 149.063 75.5909ZM168.097 71.4787Q166.534 71.4787 165.504 70.6619Q164.474 69.8452 164.474 68.2259Q164.474 67.0043 165.05 66.3082Q165.625 65.6122 166.559 65.2891Q167.493 64.9659 168.572 64.8665Q169.993 64.7244 170.604 64.5682Q171.214 64.4119 171.214 63.8864L171.214 63.8438Q171.214 63.169 170.792 62.7997Q170.369 62.4304 169.595 62.4304Q168.778 62.4304 168.295 62.7855Q167.812 63.1406 167.656 63.6875L164.858 63.4602Q165.17 61.9688 166.41 61.0952Q167.649 60.2216 169.609 60.2216Q170.824 60.2216 171.882 60.6051Q172.94 60.9886 173.59 61.8018Q174.24 62.6151 174.24 63.9148L174.24 71.2727L171.371 71.2727L171.371 69.7599L171.285 69.7599Q170.888 70.5199 170.096 70.9993Q169.304 71.4787 168.097 71.4787ZM179.474 60.3636L176.591 60.3636L176.591 71.2727L179.616 71.2727L179.616 64.7244Q179.616 63.8153 180.128 63.2649Q180.639 62.7145 181.392 62.7145Q182.138 62.7145 182.596 63.1903Q183.054 63.6662 183.054 64.4688L183.054 71.2727L185.987 71.2727L185.987 64.6108Q185.987 63.7656 186.449 63.2401Q186.911 62.7145 187.734 62.7145Q188.459 62.7145 188.942 63.169Q189.425 63.6236 189.425 64.5327L189.425 71.2727L192.443 71.2727L192.443 63.9361Q192.443 62.1605 191.488 61.1911Q190.533 60.2216 189.006 60.2216Q187.805 60.2216 186.928 60.7862Q186.051 61.3509 185.717 62.2884L185.604 62.2884Q185.341 61.3366 184.553 60.7791Q183.764 60.2216 182.642 60.2216Q181.541 60.2216 180.742 60.772Q179.943 61.3224 179.602 62.2884L179.474 62.2884L179.474 60.3636ZM209.308 70.7791Q210.511 71.4858 212.166 71.4858Q213.821 71.4858 215.025 70.7791Q216.229 70.0724 216.882 68.8047Q217.535 67.5369 217.535 65.8608Q217.535 64.1705 216.882 62.9027Q216.229 61.6349 215.025 60.9283Q213.821 60.2216 212.166 60.2216Q210.511 60.2216 209.308 60.9283Q208.104 61.6349 207.45 62.9027Q206.797 64.1705 206.797 65.8608Q206.797 67.5369 207.45 68.8047Q208.104 70.0724 209.308 70.7791ZM229.062 75.5909Q226.861 75.5909 225.604 74.7138Q224.347 73.8366 224.077 72.5511L226.875 72.1747Q227.06 72.6719 227.596 73.0447Q228.132 73.4176 229.133 73.4176Q230.121 73.4176 230.763 72.9382Q231.406 72.4588 231.406 71.3366L231.406 69.3409L231.278 69.3409Q230.98 70.0156 230.227 70.5661Q229.474 71.1165 228.168 71.1165Q226.939 71.1165 225.934 70.5412Q224.929 69.9659 224.336 68.7869Q223.743 67.608 223.743 65.7969Q223.743 63.9361 224.35 62.7003Q224.957 61.4645 225.962 60.843Q226.967 60.2216 228.16 60.2216Q229.077 60.2216 229.695 60.5305Q230.312 60.8395 230.696 61.294Q231.08 61.7486 231.278 62.196L231.392 62.196L231.392 60.3636L234.396 60.3636L234.396 71.3793Q234.396 72.7713 233.711 73.7088Q233.026 74.6463 231.825 75.1186Q230.625 75.5909 229.062 75.5909ZM238.892 70.8004Q240.107 71.4858 241.783 71.4858Q243.807 71.4858 245.107 70.5767Q246.406 69.6676 246.726 68.1477L243.928 67.9631Q243.7 68.5881 243.146 68.9077Q242.592 69.2273 241.832 69.2273Q240.696 69.2273 240.028 68.5241Q239.361 67.821 239.361 66.5994L239.361 66.5923L246.79 66.5923L246.79 65.7614Q246.79 63.9077 246.108 62.6754Q245.426 61.4432 244.265 60.8324Q243.104 60.2216 241.662 60.2216Q240.057 60.2216 238.867 60.9318Q237.678 61.642 237.024 62.9134Q236.371 64.1847 236.371 65.8679Q236.371 67.5938 237.024 68.8544Q237.678 70.1151 238.892 70.8004ZM283.509 70.8004Q284.723 71.4858 286.399 71.4858Q288.423 71.4858 289.723 70.5767Q291.023 69.6676 291.342 68.1477L288.544 67.9631Q288.317 68.5881 287.763 68.9077Q287.209 69.2273 286.449 69.2273Q285.312 69.2273 284.645 68.5241Q283.977 67.821 283.977 66.5994L283.977 66.5923L291.406 66.5923L291.406 65.7614Q291.406 63.9077 290.724 62.6754Q290.043 61.4432 288.881 60.8324Q287.72 60.2216 286.278 60.2216Q284.673 60.2216 283.484 60.9318Q282.294 61.642 281.641 62.9134Q280.987 64.1847 280.987 65.8679Q280.987 67.5938 281.641 68.8544Q282.294 70.1151 283.509 70.8004ZM30.5682 71.2727L34.3821 60.3636L31.179 60.3636L28.9205 68.169L28.8068 68.169L26.5412 60.3636L23.3452 60.3636L27.1591 71.2727L30.5682 71.2727ZM80.554 60.3636L83.5795 60.3636L83.5795 71.2727L80.554 71.2727L80.554 60.3636ZM243.942 64.7173L239.361 64.7173Q239.41 63.7869 240.057 63.1335Q240.703 62.4801 241.712 62.4801Q242.699 62.4801 243.317 63.1122Q243.935 63.7443 243.942 64.7173ZM288.558 64.7173L283.977 64.7173Q284.027 63.7869 284.673 63.1335Q285.32 62.4801 286.328 62.4801Q287.315 62.4801 287.933 63.1122Q288.551 63.7443 288.558 64.7173ZM138.519 68.2045Q137.94 69.142 136.818 69.142Q135.675 69.142 135.092 68.2045Q134.51 67.267 134.51 65.8395Q134.51 64.4119 135.092 63.4709Q135.675 62.5298 136.818 62.5298Q137.94 62.5298 138.519 63.4709Q139.098 64.4119 139.098 65.8395Q139.098 67.267 138.519 68.2045ZM213.881 68.2045Q213.303 69.142 212.18 69.142Q211.037 69.142 210.455 68.2045Q209.872 67.267 209.872 65.8395Q209.872 64.4119 210.455 63.4709Q211.037 62.5298 212.18 62.5298Q213.303 62.5298 213.881 63.4709Q214.46 64.4119 214.46 65.8395Q214.46 67.267 213.881 68.2045ZM89.5561 68.1584Q88.956 67.2741 88.956 65.8182Q88.956 64.3551 89.5526 63.4922Q90.1491 62.6293 91.25 62.6293Q92.3722 62.6293 92.9581 63.5135Q93.544 64.3977 93.544 65.8182Q93.544 67.2457 92.9545 68.1442Q92.3651 69.0426 91.25 69.0426Q90.1562 69.0426 89.5561 68.1584ZM114.613 68.1584Q114.013 67.2741 114.013 65.8182Q114.013 64.3551 114.609 63.4922Q115.206 62.6293 116.307 62.6293Q117.429 62.6293 118.015 63.5135Q118.601 64.3977 118.601 65.8182Q118.601 67.2457 118.011 68.1442Q117.422 69.0426 116.307 69.0426Q115.213 69.0426 114.613 68.1584ZM149.126 68.8438Q150.22 68.8438 150.82 68.0341Q151.42 67.2244 151.42 65.7827Q151.42 64.348 150.824 63.4886Q150.227 62.6293 149.126 62.6293Q148.004 62.6293 147.418 63.5099Q146.832 64.3906 146.832 65.7827Q146.832 67.196 147.422 68.0199Q148.011 68.8438 149.126 68.8438ZM229.126 68.8438Q230.22 68.8438 230.82 68.0341Q231.42 67.2244 231.42 65.7827Q231.42 64.348 230.824 63.4886Q230.227 62.6293 229.126 62.6293Q228.004 62.6293 227.418 63.5099Q226.832 64.3906 226.832 65.7827Q226.832 67.196 227.422 68.0199Q228.011 68.8438 229.126 68.8438ZM16.5838 69.3906Q17.5781 69.3906 18.2173 68.8118Q18.8565 68.233 18.8565 67.3736L18.8565 66.2159Q18.679 66.3366 18.3061 66.429Q17.9332 66.5213 17.5107 66.5888Q17.0881 66.6563 16.7543 66.706Q15.9588 66.8196 15.4723 67.1534Q14.9858 67.4872 14.9858 68.1264Q14.9858 68.7514 15.4368 69.071Q15.8878 69.3906 16.5838 69.3906ZM39.9077 69.3906Q40.902 69.3906 41.5412 68.8118Q42.1804 68.233 42.1804 67.3736L42.1804 66.2159Q42.0028 66.3366 41.63 66.429Q41.2571 66.5213 40.8345 66.5888Q40.4119 66.6563 40.0781 66.706Q39.2827 66.8196 38.7962 67.1534Q38.3097 67.4872 38.3097 68.1264Q38.3097 68.7514 38.7607 69.071Q39.2116 69.3906 39.9077 69.3906ZM168.963 69.3906Q169.957 69.3906 170.597 68.8118Q171.236 68.233 171.236 67.3736L171.236 66.2159Q171.058 66.3366 170.685 66.429Q170.312 66.5213 169.89 66.5888Q169.467 66.6563 169.134 66.706Q168.338 66.8196 167.852 67.1534Q167.365 67.4872 167.365 68.1264Q167.365 68.7514 167.816 69.071Q168.267 69.3906 168.963 69.3906Z" />
        </g>
        <g id="website-URL-(loading-page).">
          <path d="M55.625 82.9574Q54.9574 82.9574 54.4744 82.5064Q53.9915 82.0554 53.9915 81.4233Q53.9915 80.7912 54.4744 80.3438Q54.9574 79.8963 55.625 79.8963Q56.2997 79.8963 56.7827 80.3438Q57.2656 80.7912 57.2656 81.4233Q57.2656 82.0554 56.7827 82.5064Q56.2997 82.9574 55.625 82.9574ZM178.182 82.5064Q178.665 82.9574 179.332 82.9574Q180.007 82.9574 180.49 82.5064Q180.973 82.0554 180.973 81.4233Q180.973 80.7912 180.49 80.3438Q180.007 79.8963 179.332 79.8963Q178.665 79.8963 178.182 80.3438Q177.699 80.7912 177.699 81.4233Q177.699 82.0554 178.182 82.5064ZM266.96 89.4418Q266.96 94.6832 264.091 98.4261L261.2 98.4261Q261.946 97.4886 262.536 96.022Q263.125 94.5554 263.469 92.8366Q263.814 91.1179 263.814 89.4418Q263.814 87.7585 263.469 86.0398Q263.125 84.321 262.536 82.8544Q261.946 81.3878 261.2 80.4503L264.091 80.4503Q266.96 84.1932 266.96 89.4418ZM128.274 89.4418Q128.274 84.2003 131.143 80.4574L134.034 80.4574Q133.295 81.3949 132.702 82.8615Q132.109 84.3281 131.765 86.0433Q131.42 87.7585 131.42 89.4418Q131.42 91.125 131.765 92.8402Q132.109 94.5554 132.702 96.0256Q133.295 97.4957 134.034 98.4332L131.143 98.4332Q128.274 94.6903 128.274 89.4418ZM30.2202 95.2727L30.2202 80.7273L33.2457 80.7273L33.2457 86.196L33.3381 86.196Q33.544 85.7486 33.9205 85.294Q34.2969 84.8395 34.9148 84.5305Q35.5327 84.2216 36.4418 84.2216Q37.642 84.2216 38.6435 84.843Q39.6449 85.4645 40.2521 86.7109Q40.8594 87.9574 40.8594 89.8324Q40.8594 91.6577 40.2699 92.9112Q39.6804 94.1648 38.679 94.8075Q37.6776 95.4503 36.4347 95.4503Q35.554 95.4503 34.9396 95.1591Q34.3253 94.8679 33.9382 94.424Q33.5511 93.9801 33.3381 93.5256L33.2031 93.5256L33.2031 95.2727L30.2202 95.2727ZM96.0227 80.7273L92.9474 80.7273L92.9474 89.9105Q92.9474 91.1534 92.1413 91.9631Q91.3352 92.7727 89.9929 92.7727Q88.6577 92.7727 87.848 91.9631Q87.0384 91.1534 87.0384 89.9105L87.0384 80.7273L83.9631 80.7273L83.9631 90.1733Q83.9631 91.7642 84.7159 92.9574Q85.4688 94.1506 86.8253 94.8146Q88.1818 95.4787 89.9929 95.4787Q91.804 95.4787 93.1605 94.8146Q94.5171 94.1506 95.2699 92.9574Q96.0227 91.7642 96.0227 90.1733L96.0227 80.7273ZM98.5511 95.2727L98.5511 80.7273L104.29 80.7273Q106.768 80.7273 108.136 82.0199Q109.503 83.3125 109.503 85.4787Q109.503 86.9702 108.839 88.0284Q108.175 89.0866 106.932 89.6193L110.021 95.2727L106.626 95.2727L103.871 90.1165L101.626 90.1165L101.626 95.2727L98.5511 95.2727ZM111.676 80.7273L111.676 95.2727L120.987 95.2727L120.987 92.7372L114.751 92.7372L114.751 80.7273L111.676 80.7273ZM138.814 95.2727L138.814 80.7273L135.788 80.7273L135.788 95.2727L138.814 95.2727ZM169.126 95.4503Q167.884 95.4503 166.882 94.8075Q165.881 94.1648 165.291 92.9112Q164.702 91.6577 164.702 89.8324Q164.702 87.9574 165.309 86.7109Q165.916 85.4645 166.921 84.843Q167.926 84.2216 169.119 84.2216Q170.036 84.2216 170.65 84.5305Q171.264 84.8395 171.644 85.294Q172.024 85.7486 172.223 86.196L172.315 86.196L172.315 80.7273L175.334 80.7273L175.334 95.2727L172.351 95.2727L172.351 93.5256L172.223 93.5256Q172.017 93.9801 171.626 94.424Q171.236 94.8679 170.621 95.1591Q170.007 95.4503 169.126 95.4503ZM65.348 86.6364L65.348 84.3636L63.2955 84.3636L63.2955 81.75L60.2699 81.75L60.2699 84.3636L58.7784 84.3636L58.7784 86.6364L60.2699 86.6364L60.2699 92.3182Q60.2628 93.9233 61.2607 94.7081Q62.2585 95.4929 63.9063 95.4219Q64.4957 95.4006 64.9077 95.3047Q65.3196 95.2088 65.5469 95.1378L65.071 92.8864Q64.9574 92.9077 64.7443 92.9467Q64.5313 92.9858 64.3182 92.9858Q63.8636 92.9858 63.5795 92.7656Q63.2955 92.5455 63.2955 91.9205L63.2955 86.6364L65.348 86.6364ZM101.626 87.6449L103.714 87.6449Q106.335 87.6449 106.335 85.4787Q106.335 83.2415 103.7 83.2415L101.626 83.2415L101.626 87.6449ZM20.2912 94.8004Q21.5057 95.4858 23.1818 95.4858Q25.206 95.4858 26.5057 94.5767Q27.8054 93.6676 28.125 92.1477L25.3267 91.9631Q25.0994 92.5881 24.5455 92.9077Q23.9915 93.2273 23.2315 93.2273Q22.0952 93.2273 21.4276 92.5241Q20.7599 91.821 20.7599 90.5994L20.7599 90.5923L28.1889 90.5923L28.1889 89.7614Q28.1889 87.9077 27.5071 86.6754Q26.8253 85.4432 25.6641 84.8324Q24.5028 84.2216 23.0611 84.2216Q21.456 84.2216 20.2663 84.9318Q19.0767 85.642 18.4233 86.9134Q17.7699 88.1847 17.7699 89.8679Q17.7699 91.5938 18.4233 92.8544Q19.0767 94.1151 20.2912 94.8004ZM49.1761 87.6449L51.946 87.4744Q51.7472 85.9688 50.5575 85.0952Q49.3679 84.2216 47.3011 84.2216Q45.206 84.2216 43.9382 85.1307Q42.6705 86.0398 42.6776 87.6165Q42.6633 90.1023 45.831 90.7344L47.7202 91.1108Q49.098 91.3878 49.1193 92.1974Q49.1122 92.6804 48.6257 92.9929Q48.1392 93.3054 47.3438 93.3054Q46.5341 93.3054 46.0192 92.9645Q45.5043 92.6236 45.3622 91.956L42.3864 92.1122Q42.5994 93.6747 43.8849 94.5803Q45.1705 95.4858 47.3366 95.4858Q48.75 95.4858 49.8438 95.0348Q50.9375 94.5838 51.566 93.7741Q52.1946 92.9645 52.1946 91.892Q52.1875 89.5838 49.0412 88.9375L47.0668 88.5398Q46.3068 88.3764 45.9908 88.1065Q45.6747 87.8366 45.6818 87.446Q45.6747 86.956 46.1612 86.6612Q46.6477 86.3665 47.3508 86.3665Q48.1392 86.3665 48.6008 86.7429Q49.0625 87.1193 49.1761 87.6449ZM72.2869 95.4858Q70.6108 95.4858 69.3963 94.8004Q68.1818 94.1151 67.5284 92.8544Q66.875 91.5938 66.875 89.8679Q66.875 88.1847 67.5284 86.9134Q68.1818 85.642 69.3715 84.9318Q70.5611 84.2216 72.1662 84.2216Q73.608 84.2216 74.7692 84.8324Q75.9304 85.4432 76.6122 86.6754Q77.294 87.9077 77.294 89.7614L77.294 90.5923L69.8651 90.5923L69.8651 90.5994Q69.8651 91.821 70.5327 92.5241Q71.2003 93.2273 72.3366 93.2273Q73.0966 93.2273 73.6506 92.9077Q74.2045 92.5881 74.4318 91.9631L77.2301 92.1477Q76.9105 93.6676 75.6108 94.5767Q74.3111 95.4858 72.2869 95.4858ZM146.158 95.4858Q144.503 95.4858 143.299 94.7791Q142.095 94.0724 141.442 92.8047Q140.788 91.5369 140.788 89.8608Q140.788 88.1705 141.442 86.9027Q142.095 85.6349 143.299 84.9283Q144.503 84.2216 146.158 84.2216Q147.813 84.2216 149.016 84.9283Q150.22 85.6349 150.874 86.9027Q151.527 88.1705 151.527 89.8608Q151.527 91.5369 150.874 92.8047Q150.22 94.0724 149.016 94.7791Q147.813 95.4858 146.158 95.4858ZM154.02 94.6619Q155.05 95.4787 156.612 95.4787Q157.82 95.4787 158.612 94.9993Q159.403 94.5199 159.801 93.7599L159.886 93.7599L159.886 95.2727L162.756 95.2727L162.756 87.9148Q162.756 86.6151 162.106 85.8018Q161.456 84.9886 160.398 84.6051Q159.339 84.2216 158.125 84.2216Q156.165 84.2216 154.925 85.0952Q153.686 85.9688 153.374 87.4602L156.172 87.6875Q156.328 87.1406 156.811 86.7855Q157.294 86.4304 158.111 86.4304Q158.885 86.4304 159.308 86.7997Q159.73 87.169 159.73 87.8438L159.73 87.8864Q159.73 88.4119 159.119 88.5682Q158.509 88.7244 157.088 88.8665Q156.009 88.9659 155.075 89.2891Q154.141 89.6122 153.565 90.3082Q152.99 91.0043 152.99 92.2259Q152.99 93.8452 154.02 94.6619ZM186.278 88.9659L186.278 95.2727L183.253 95.2727L183.253 84.3636L186.136 84.3636L186.136 86.2884L186.264 86.2884Q186.634 85.3366 187.482 84.7791Q188.331 84.2216 189.545 84.2216Q191.25 84.2216 192.28 85.3189Q193.31 86.4162 193.31 88.3267L193.31 95.2727L190.284 95.2727L190.284 88.8665Q190.291 87.8651 189.773 87.3004Q189.254 86.7358 188.345 86.7358Q187.429 86.7358 186.857 87.3217Q186.286 87.9077 186.278 88.9659ZM197.145 98.7138Q198.402 99.5909 200.604 99.5909Q202.166 99.5909 203.366 99.1186Q204.567 98.6463 205.252 97.7088Q205.938 96.7713 205.938 95.3793L205.938 84.3636L202.933 84.3636L202.933 86.196L202.82 86.196Q202.621 85.7486 202.237 85.294Q201.854 84.8395 201.236 84.5305Q200.618 84.2216 199.702 84.2216Q198.509 84.2216 197.504 84.843Q196.499 85.4645 195.891 86.7003Q195.284 87.9361 195.284 89.7969Q195.284 91.608 195.877 92.7869Q196.47 93.9659 197.475 94.5412Q198.48 95.1165 199.709 95.1165Q201.016 95.1165 201.768 94.5661Q202.521 94.0156 202.82 93.3409L202.947 93.3409L202.947 95.3366Q202.947 96.4588 202.305 96.9382Q201.662 97.4176 200.675 97.4176Q199.673 97.4176 199.137 97.0447Q198.601 96.6719 198.416 96.1747L195.618 96.5511Q195.888 97.8366 197.145 98.7138ZM212.99 99.3636L212.99 84.3636L215.973 84.3636L215.973 86.196L216.108 86.196Q216.314 85.7486 216.69 85.294Q217.067 84.8395 217.685 84.5305Q218.303 84.2216 219.212 84.2216Q220.412 84.2216 221.413 84.843Q222.415 85.4645 223.022 86.7109Q223.629 87.9574 223.629 89.8324Q223.629 91.6577 223.04 92.9112Q222.45 94.1648 221.449 94.8075Q220.447 95.4503 219.205 95.4503Q218.324 95.4503 217.71 95.1591Q217.095 94.8679 216.708 94.424Q216.321 93.9801 216.108 93.5256L216.016 93.5256L216.016 99.3636L212.99 99.3636ZM226.158 94.6619Q227.188 95.4787 228.75 95.4787Q229.957 95.4787 230.749 94.9993Q231.541 94.5199 231.939 93.7599L232.024 93.7599L232.024 95.2727L234.893 95.2727L234.893 87.9148Q234.893 86.6151 234.244 85.8018Q233.594 84.9886 232.536 84.6051Q231.477 84.2216 230.263 84.2216Q228.303 84.2216 227.063 85.0952Q225.824 85.9688 225.511 87.4602L228.31 87.6875Q228.466 87.1406 228.949 86.7855Q229.432 86.4304 230.249 86.4304Q231.023 86.4304 231.445 86.7997Q231.868 87.169 231.868 87.8438L231.868 87.8864Q231.868 88.4119 231.257 88.5682Q230.646 88.7244 229.226 88.8665Q228.146 88.9659 227.212 89.2891Q226.278 89.6122 225.703 90.3082Q225.128 91.0043 225.128 92.2259Q225.128 93.8452 226.158 94.6619ZM242.159 99.5909Q239.957 99.5909 238.7 98.7138Q237.443 97.8366 237.173 96.5511L239.972 96.1747Q240.156 96.6719 240.692 97.0447Q241.229 97.4176 242.23 97.4176Q243.217 97.4176 243.86 96.9382Q244.503 96.4588 244.503 95.3366L244.503 93.3409L244.375 93.3409Q244.077 94.0156 243.324 94.5661Q242.571 95.1165 241.264 95.1165Q240.036 95.1165 239.031 94.5412Q238.026 93.9659 237.433 92.7869Q236.839 91.608 236.839 89.7969Q236.839 87.9361 237.447 86.7003Q238.054 85.4645 239.059 84.843Q240.064 84.2216 241.257 84.2216Q242.173 84.2216 242.791 84.5305Q243.409 84.8395 243.793 85.294Q244.176 85.7486 244.375 86.196L244.489 86.196L244.489 84.3636L247.493 84.3636L247.493 95.3793Q247.493 96.7713 246.808 97.7088Q246.122 98.6463 244.922 99.1186Q243.722 99.5909 242.159 99.5909ZM251.989 94.8004Q253.203 95.4858 254.879 95.4858Q256.903 95.4858 258.203 94.5767Q259.503 93.6676 259.822 92.1477L257.024 91.9631Q256.797 92.5881 256.243 92.9077Q255.689 93.2273 254.929 93.2273Q253.793 93.2273 253.125 92.5241Q252.457 91.821 252.457 90.5994L252.457 90.5923L259.886 90.5923L259.886 89.7614Q259.886 87.9077 259.205 86.6754Q258.523 85.4432 257.362 84.8324Q256.2 84.2216 254.759 84.2216Q253.153 84.2216 251.964 84.9318Q250.774 85.642 250.121 86.9134Q249.467 88.1847 249.467 89.8679Q249.467 91.5938 250.121 92.8544Q250.774 94.1151 251.989 94.8004ZM0.390625 84.3636L3.35938 95.2727L6.5554 95.2727L8.4304 88.4119L8.56534 88.4119L10.4403 95.2727L13.6435 95.2727L16.6051 84.3636L13.5511 84.3636L11.8892 91.6506L11.7969 91.6506L10.0071 84.3636L7.00284 84.3636L5.24148 91.6932L5.14205 91.6932L3.4517 84.3636L0.390625 84.3636ZM54.1051 84.3636L57.1307 84.3636L57.1307 95.2727L54.1051 95.2727L54.1051 84.3636ZM180.838 84.3636L177.813 84.3636L177.813 95.2727L180.838 95.2727L180.838 84.3636ZM25.3409 88.7173L20.7599 88.7173Q20.8097 87.7869 21.456 87.1335Q22.1023 86.4801 23.1108 86.4801Q24.098 86.4801 24.7159 87.1122Q25.3338 87.7443 25.3409 88.7173ZM69.8651 88.7173L74.446 88.7173Q74.4389 87.7443 73.821 87.1122Q73.2031 86.4801 72.2159 86.4801Q71.2074 86.4801 70.5611 87.1335Q69.9148 87.7869 69.8651 88.7173ZM257.038 88.7173L252.457 88.7173Q252.507 87.7869 253.153 87.1335Q253.8 86.4801 254.808 86.4801Q255.795 86.4801 256.413 87.1122Q257.031 87.7443 257.038 88.7173ZM146.172 93.142Q147.294 93.142 147.873 92.2045Q148.452 91.267 148.452 89.8395Q148.452 88.4119 147.873 87.4709Q147.294 86.5298 146.172 86.5298Q145.028 86.5298 144.446 87.4709Q143.864 88.4119 143.864 89.8395Q143.864 91.267 144.446 92.2045Q145.028 93.142 146.172 93.142ZM33.1818 89.8182Q33.1818 91.2741 33.782 92.1584Q34.3821 93.0426 35.4759 93.0426Q36.5909 93.0426 37.1804 92.1442Q37.7699 91.2457 37.7699 89.8182Q37.7699 88.3977 37.1839 87.5135Q36.598 86.6293 35.4759 86.6293Q34.375 86.6293 33.7784 87.4922Q33.1818 88.3551 33.1818 89.8182ZM170.085 93.0426Q171.179 93.0426 171.779 92.1584Q172.379 91.2741 172.379 89.8182Q172.379 88.3551 171.783 87.4922Q171.186 86.6293 170.085 86.6293Q168.963 86.6293 168.377 87.5135Q167.791 88.3977 167.791 89.8182Q167.791 91.2457 168.381 92.1442Q168.97 93.0426 170.085 93.0426ZM202.362 92.0341Q201.761 92.8438 200.668 92.8438Q199.553 92.8438 198.963 92.0199Q198.374 91.196 198.374 89.7827Q198.374 88.3906 198.96 87.5099Q199.545 86.6293 200.668 86.6293Q201.768 86.6293 202.365 87.4886Q202.962 88.348 202.962 89.7827Q202.962 91.2244 202.362 92.0341ZM215.952 89.8182Q215.952 91.2741 216.552 92.1584Q217.152 93.0426 218.246 93.0426Q219.361 93.0426 219.95 92.1442Q220.54 91.2457 220.54 89.8182Q220.54 88.3977 219.954 87.5135Q219.368 86.6293 218.246 86.6293Q217.145 86.6293 216.548 87.4922Q215.952 88.3551 215.952 89.8182ZM242.223 92.8438Q243.317 92.8438 243.917 92.0341Q244.517 91.2244 244.517 89.7827Q244.517 88.348 243.92 87.4886Q243.324 86.6293 242.223 86.6293Q241.101 86.6293 240.515 87.5099Q239.929 88.3906 239.929 89.7827Q239.929 91.196 240.518 92.0199Q241.108 92.8438 242.223 92.8438ZM159.112 92.8118Q158.473 93.3906 157.479 93.3906Q156.783 93.3906 156.332 93.071Q155.881 92.7514 155.881 92.1264Q155.881 91.4872 156.367 91.1534Q156.854 90.8196 157.649 90.706Q157.983 90.6563 158.406 90.5888Q158.828 90.5213 159.201 90.429Q159.574 90.3366 159.751 90.2159L159.751 91.3736Q159.751 92.233 159.112 92.8118ZM231.25 92.8118Q230.611 93.3906 229.616 93.3906Q228.92 93.3906 228.469 93.071Q228.018 92.7514 228.018 92.1264Q228.018 91.4872 228.505 91.1534Q228.991 90.8196 229.787 90.706Q230.121 90.6563 230.543 90.5888Q230.966 90.5213 231.339 90.429Q231.712 90.3366 231.889 90.2159L231.889 91.3736Q231.889 92.233 231.25 92.8118ZM270.604 94.9602Q271.108 95.4574 271.811 95.4574Q272.493 95.4574 273.001 94.9602Q273.509 94.4631 273.516 93.7528Q273.509 93.0568 273.001 92.5597Q272.493 92.0625 271.811 92.0625Q271.108 92.0625 270.604 92.5597Q270.099 93.0568 270.107 93.7528Q270.099 94.4631 270.604 94.9602Z" />
        </g>
        <g id="http127.0.0.13000html-filesjs-exercises">
          <path d="M34.5384 140.095L38.054 127.034L36.9034 127.034L33.3878 140.095L34.5384 140.095ZM43.402 127.034L39.8864 140.095L38.7358 140.095L42.2514 127.034L43.402 127.034ZM149.766 140.095L153.281 127.034L152.131 127.034L148.615 140.095L149.766 140.095ZM196.236 131.338L196.236 130.273L194.403 130.273L194.403 129.442Q194.403 128.835 194.678 128.52Q194.952 128.206 195.575 128.206Q195.847 128.206 196.015 128.254Q196.183 128.302 196.278 128.334L196.641 127.247Q196.497 127.183 196.204 127.109Q195.911 127.034 195.447 127.034Q194.861 127.034 194.334 127.268Q193.807 127.503 193.477 127.972Q193.146 128.44 193.146 129.143L193.146 130.273L191.825 130.273L191.825 131.338L193.146 131.338L193.146 138.455L194.403 138.455L194.403 131.338L196.236 131.338ZM225.554 127.034L222.038 140.095L220.888 140.095L224.403 127.034L225.554 127.034ZM313.189 140.095L316.705 127.034L315.554 127.034L312.038 140.095L313.189 140.095ZM198.643 128.909Q198.276 128.909 198.012 128.659Q197.749 128.408 197.749 128.057Q197.749 127.705 198.012 127.455Q198.276 127.205 198.643 127.205Q199.011 127.205 199.275 127.455Q199.538 127.705 199.538 128.057Q199.538 128.408 199.275 128.659Q199.011 128.909 198.643 128.909ZM227.032 128.659Q227.296 128.909 227.663 128.909Q228.031 128.909 228.295 128.659Q228.558 128.408 228.558 128.057Q228.558 127.705 228.295 127.455Q228.031 127.205 227.663 127.205Q227.296 127.205 227.032 127.455Q226.768 127.705 226.768 128.057Q226.768 128.408 227.032 128.659ZM284.88 128.659Q285.144 128.909 285.511 128.909Q285.879 128.909 286.143 128.659Q286.406 128.408 286.406 128.057Q286.406 127.705 286.143 127.455Q285.879 127.205 285.511 127.205Q285.144 127.205 284.88 127.455Q284.617 127.705 284.617 128.057Q284.617 128.408 284.88 128.659ZM51.8395 138.455L51.8395 137.496L55.4403 133.554Q56.0742 132.862 56.4844 132.347Q56.8945 131.833 57.0943 131.378Q57.294 130.923 57.294 130.422Q57.294 129.559 56.6948 129.053Q56.0955 128.547 55.206 128.547Q54.2578 128.547 53.6985 129.114Q53.1392 129.681 53.1392 130.614L51.8821 130.614Q51.8821 129.655 52.3242 128.93Q52.7663 128.206 53.5307 127.801Q54.2951 127.396 55.2486 127.396Q56.2074 127.396 56.9478 127.801Q57.6882 128.206 58.109 128.893Q58.5298 129.58 58.5298 130.422Q58.5298 131.024 58.3141 131.596Q58.0984 132.169 57.5684 132.869Q57.0384 133.57 56.1009 134.577L53.6506 137.197L53.6506 137.283L58.7216 137.283L58.7216 138.455L51.8395 138.455ZM74.3741 137.139Q75.3675 138.604 77.1733 138.604Q78.979 138.604 79.9725 137.139Q80.9659 135.674 80.9659 133Q80.9659 130.347 79.9645 128.872Q78.9631 127.396 77.1733 127.396Q75.3835 127.396 74.3821 128.872Q73.3807 130.347 73.3807 133Q73.3807 135.674 74.3741 137.139ZM87.8826 137.139Q88.8761 138.604 90.6818 138.604Q92.4876 138.604 93.481 137.139Q94.4744 135.674 94.4744 133Q94.4744 130.347 93.473 128.872Q92.4716 127.396 90.6818 127.396Q88.892 127.396 87.8906 128.872Q86.8892 130.347 86.8892 133Q86.8892 135.674 87.8826 137.139ZM113.541 138.241Q114.364 138.604 115.419 138.604Q116.479 138.604 117.31 138.199Q118.141 137.794 118.623 137.088Q119.105 136.382 119.105 135.493Q119.105 134.454 118.524 133.748Q117.944 133.043 116.911 132.872L116.911 132.787Q117.736 132.537 118.218 131.887Q118.7 131.237 118.7 130.315Q118.7 129.543 118.311 128.877Q117.923 128.211 117.198 127.804Q116.474 127.396 115.462 127.396Q114.519 127.396 113.733 127.759Q112.947 128.121 112.463 128.768Q111.978 129.415 111.946 130.273L113.224 130.273Q113.251 129.729 113.565 129.343Q113.88 128.957 114.378 128.752Q114.876 128.547 115.44 128.547Q116.346 128.547 116.884 129.05Q117.422 129.554 117.422 130.379Q117.422 131.242 116.809 131.759Q116.197 132.276 115.227 132.276L114.354 132.276L114.354 133.447L115.227 133.447Q116.468 133.447 117.137 134.017Q117.805 134.587 117.805 135.493Q117.805 136.361 117.126 136.896Q116.447 137.432 115.398 137.432Q114.45 137.432 113.781 136.974Q113.113 136.516 113.054 135.727L111.712 135.727Q111.754 136.585 112.236 137.232Q112.718 137.879 113.541 138.241ZM124.837 138.604Q123.031 138.604 122.037 137.139Q121.044 135.674 121.044 133Q121.044 130.347 122.045 128.872Q123.047 127.396 124.837 127.396Q126.626 127.396 127.628 128.872Q128.629 130.347 128.629 133Q128.629 135.674 127.636 137.139Q126.642 138.604 124.837 138.604ZM131.412 137.139Q132.406 138.604 134.212 138.604Q136.017 138.604 137.011 137.139Q138.004 135.674 138.004 133Q138.004 130.347 137.003 128.872Q136.001 127.396 134.212 127.396Q132.422 127.396 131.42 128.872Q130.419 130.347 130.419 133Q130.419 135.674 131.412 137.139ZM143.587 138.604Q141.781 138.604 140.787 137.139Q139.794 135.674 139.794 133Q139.794 130.347 140.795 128.872Q141.797 127.396 143.587 127.396Q145.376 127.396 146.378 128.872Q147.379 130.347 147.379 133Q147.379 135.674 146.386 137.139Q145.392 138.604 143.587 138.604ZM2.40767 138.455L2.40767 133.533Q2.40767 132.462 3.01758 131.879Q3.62749 131.295 4.55966 131.295Q5.44922 131.295 5.95259 131.831Q6.45597 132.366 6.45597 133.341L6.45597 138.455L7.71307 138.455L7.71307 133.256Q7.71307 131.679 6.94602 130.923Q6.17898 130.166 4.92188 130.166Q3.95774 130.166 3.37979 130.542Q2.80185 130.917 2.5142 131.551L2.40767 131.551L2.40767 127.545L1.15057 127.545L1.15057 138.455L2.40767 138.455ZM48.7074 138.455L48.7074 127.545L47.3864 127.545L44.6591 129.357L44.6591 130.699L47.3224 128.93L47.3864 128.93L47.3864 138.455L48.7074 138.455ZM66.1364 128.803L61.2571 138.455L62.642 138.455L67.5 128.781L67.5 127.545L60.5114 127.545L60.5114 128.717L66.1364 128.717L66.1364 128.803ZM103.146 138.455L104.467 138.455L104.467 127.545L103.146 127.545L100.419 129.357L100.419 130.699L103.082 128.93L103.146 128.93L103.146 138.455ZM156.03 133.533L156.03 138.455L154.773 138.455L154.773 127.545L156.03 127.545L156.03 131.551L156.136 131.551Q156.424 130.917 157.002 130.542Q157.58 130.166 158.544 130.166Q159.801 130.166 160.568 130.923Q161.335 131.679 161.335 133.256L161.335 138.455L160.078 138.455L160.078 133.341Q160.078 132.366 159.575 131.831Q159.071 131.295 158.182 131.295Q157.25 131.295 156.64 131.879Q156.03 132.462 156.03 133.533ZM182.131 138.455L183.388 138.455L183.388 127.545L182.131 127.545L182.131 138.455ZM201.563 138.455L202.82 138.455L202.82 127.545L201.563 127.545L201.563 138.455ZM13.5724 131.338L13.5724 130.273L11.8253 130.273L11.8253 128.313L10.5682 128.313L10.5682 130.273L9.33239 130.273L9.33239 131.338L10.5682 131.338L10.5682 136.452Q10.5682 137.165 10.9011 137.634Q11.234 138.103 11.7427 138.332Q12.2514 138.561 12.7841 138.561Q13.1357 138.561 13.3647 138.51Q13.5937 138.46 13.7216 138.412L13.4659 137.283Q13.386 137.299 13.2528 137.323Q13.1197 137.347 12.9119 137.347Q12.6349 137.347 12.3873 137.259Q12.1396 137.171 11.9824 136.907Q11.8253 136.643 11.8253 136.111L11.8253 131.338L13.5724 131.338ZM19.027 130.273L19.027 131.338L17.2798 131.338L17.2798 136.111Q17.2798 136.643 17.437 136.907Q17.5941 137.171 17.8418 137.259Q18.0895 137.347 18.3665 137.347Q18.5742 137.347 18.7074 137.323Q18.8406 137.299 18.9205 137.283L19.1761 138.412Q19.0483 138.46 18.8192 138.51Q18.5902 138.561 18.2386 138.561Q17.706 138.561 17.1973 138.332Q16.6886 138.103 16.3556 137.634Q16.0227 137.165 16.0227 136.452L16.0227 131.338L14.7869 131.338L14.7869 130.273L16.0227 130.273L16.0227 128.313L17.2798 128.313L17.2798 130.273L19.027 130.273ZM167.195 131.338L167.195 130.273L165.447 130.273L165.447 128.313L164.19 128.313L164.19 130.273L162.955 130.273L162.955 131.338L164.19 131.338L164.19 136.452Q164.19 137.165 164.523 137.634Q164.856 138.103 165.365 138.332Q165.874 138.561 166.406 138.561Q166.758 138.561 166.987 138.51Q167.216 138.46 167.344 138.412L167.088 137.283Q167.008 137.299 166.875 137.323Q166.742 137.347 166.534 137.347Q166.257 137.347 166.009 137.259Q165.762 137.171 165.605 136.907Q165.447 136.643 165.447 136.111L165.447 131.338L167.195 131.338ZM79.027 136.281Q78.3665 137.432 77.1733 137.432Q75.9854 137.432 75.3223 136.281Q74.6591 135.131 74.6591 133Q74.6591 130.875 75.3249 129.711Q75.9908 128.547 77.1733 128.547Q78.3558 128.547 79.0217 129.711Q79.6875 130.875 79.6875 133Q79.6875 135.131 79.027 136.281ZM92.5355 136.281Q91.875 137.432 90.6818 137.432Q89.494 137.432 88.8308 136.281Q88.1676 135.131 88.1676 133Q88.1676 130.875 88.8335 129.711Q89.4993 128.547 90.6818 128.547Q91.8643 128.547 92.5302 129.711Q93.196 130.875 93.196 133Q93.196 135.131 92.5355 136.281ZM124.837 137.432Q126.03 137.432 126.69 136.281Q127.351 135.131 127.351 133Q127.351 130.875 126.685 129.711Q126.019 128.547 124.837 128.547Q123.654 128.547 122.988 129.711Q122.322 130.875 122.322 133Q122.322 135.131 122.986 136.281Q123.649 137.432 124.837 137.432ZM136.065 136.281Q135.405 137.432 134.212 137.432Q133.024 137.432 132.361 136.281Q131.697 135.131 131.697 133Q131.697 130.875 132.363 129.711Q133.029 128.547 134.212 128.547Q135.394 128.547 136.06 129.711Q136.726 130.875 136.726 133Q136.726 135.131 136.065 136.281ZM143.587 137.432Q144.78 137.432 145.44 136.281Q146.101 135.131 146.101 133Q146.101 130.875 145.435 129.711Q144.769 128.547 143.587 128.547Q142.404 128.547 141.738 129.711Q141.072 130.875 141.072 133Q141.072 135.131 141.736 136.281Q142.399 137.432 143.587 137.432ZM272.131 130.273L270.916 130.273L270.916 138.455L272.173 138.455L272.173 133.277Q272.173 132.446 272.759 131.903Q273.345 131.359 274.24 131.359Q274.49 131.359 274.717 131.394Q274.943 131.429 275.007 131.445L275.007 130.166Q274.901 130.156 274.693 130.15Q274.485 130.145 274.347 130.145Q273.612 130.145 273.026 130.523Q272.44 130.901 272.216 131.509L272.131 131.509L272.131 130.273ZM20.9233 130.273L20.9233 141.523L22.1804 141.523L22.1804 137.197L22.2869 137.197Q22.4254 137.421 22.6811 137.759Q22.9368 138.098 23.4109 138.361Q23.8849 138.625 24.6733 138.625Q25.696 138.625 26.479 138.106Q27.2621 137.586 27.7042 136.635Q28.1463 135.685 28.1463 134.385Q28.1463 133.096 27.7042 132.148Q27.2621 131.2 26.4737 130.683Q25.6854 130.166 24.652 130.166Q23.853 130.166 23.3869 130.43Q22.9208 130.694 22.6731 131.026Q22.4254 131.359 22.2869 131.572L22.1378 131.572L22.1378 130.273L20.9233 130.273ZM169.091 130.273L170.305 130.273L170.305 131.551L170.412 131.551Q170.668 130.896 171.238 130.531Q171.808 130.166 172.607 130.166Q173.416 130.166 173.957 130.531Q174.497 130.896 174.801 131.551L174.886 131.551Q175.201 130.917 175.829 130.542Q176.458 130.166 177.337 130.166Q178.434 130.166 179.132 130.851Q179.83 131.535 179.83 132.979L179.83 138.455L178.572 138.455L178.572 132.979Q178.572 132.073 178.077 131.684Q177.582 131.295 176.91 131.295Q176.048 131.295 175.573 131.815Q175.099 132.334 175.099 133.128L175.099 138.455L173.821 138.455L173.821 132.851Q173.821 132.153 173.368 131.724Q172.915 131.295 172.202 131.295Q171.712 131.295 171.288 131.556Q170.865 131.817 170.606 132.278Q170.348 132.739 170.348 133.341L170.348 138.455L169.091 138.455L169.091 130.273ZM208.551 138.625Q207.369 138.625 206.514 138.1Q205.659 137.576 205.198 136.63Q204.737 135.685 204.737 134.428Q204.737 133.17 205.198 132.209Q205.659 131.248 206.487 130.707Q207.315 130.166 208.423 130.166Q209.063 130.166 209.686 130.379Q210.309 130.592 210.82 131.069Q211.332 131.546 211.635 132.329Q211.939 133.112 211.939 134.257L211.939 134.79L206 134.79Q206.042 136.1 206.743 136.798Q207.443 137.496 208.551 137.496Q209.292 137.496 209.824 137.176Q210.357 136.857 210.597 136.217L211.811 136.558Q211.523 137.485 210.661 138.055Q209.798 138.625 208.551 138.625ZM218.523 132.425L219.652 132.105Q219.359 131.232 218.664 130.699Q217.969 130.166 216.754 130.166Q215.891 130.166 215.212 130.47Q214.533 130.773 214.142 131.306Q213.75 131.839 213.75 132.531Q213.75 133.378 214.275 133.94Q214.799 134.502 215.923 134.768L217.287 135.088Q218.501 135.37 218.501 136.239Q218.501 136.766 217.982 137.142Q217.463 137.517 216.584 137.517Q215.023 137.517 214.688 136.196L213.494 136.494Q213.713 137.538 214.533 138.082Q215.353 138.625 216.605 138.625Q217.559 138.625 218.278 138.305Q218.997 137.986 219.399 137.432Q219.801 136.878 219.801 136.175Q219.801 134.491 217.628 133.959L216.413 133.661Q215.689 133.479 215.348 133.208Q215.007 132.936 215.007 132.467Q215.007 131.94 215.505 131.596Q216.003 131.253 216.754 131.253Q217.58 131.253 217.969 131.626Q218.358 131.999 218.523 132.425ZM236.399 132.105L235.27 132.425Q235.105 131.999 234.716 131.626Q234.327 131.253 233.501 131.253Q232.75 131.253 232.252 131.596Q231.754 131.94 231.754 132.467Q231.754 132.936 232.095 133.208Q232.436 133.479 233.161 133.661L234.375 133.959Q236.548 134.491 236.548 136.175Q236.548 136.878 236.146 137.432Q235.744 137.986 235.025 138.305Q234.306 138.625 233.352 138.625Q232.1 138.625 231.28 138.082Q230.46 137.538 230.241 136.494L231.435 136.196Q231.77 137.517 233.331 137.517Q234.21 137.517 234.729 137.142Q235.249 136.766 235.249 136.239Q235.249 135.37 234.034 135.088L232.67 134.768Q231.547 134.502 231.022 133.94Q230.497 133.378 230.497 132.531Q230.497 131.839 230.889 131.306Q231.28 130.773 231.959 130.47Q232.638 130.166 233.501 130.166Q234.716 130.166 235.411 130.699Q236.106 131.232 236.399 132.105ZM248.778 138.625Q247.596 138.625 246.741 138.1Q245.886 137.576 245.425 136.63Q244.964 135.685 244.964 134.428Q244.964 133.17 245.425 132.209Q245.886 131.248 246.714 130.707Q247.543 130.166 248.651 130.166Q249.29 130.166 249.913 130.379Q250.536 130.592 251.048 131.069Q251.559 131.546 251.863 132.329Q252.166 133.112 252.166 134.257L252.166 134.79L246.227 134.79Q246.27 136.1 246.97 136.798Q247.67 137.496 248.778 137.496Q249.519 137.496 250.051 137.176Q250.584 136.857 250.824 136.217L252.038 136.558Q251.751 137.485 250.888 138.055Q250.025 138.625 248.778 138.625ZM265.611 138.625Q264.428 138.625 263.573 138.1Q262.718 137.576 262.258 136.63Q261.797 135.685 261.797 134.428Q261.797 133.17 262.258 132.209Q262.718 131.248 263.547 130.707Q264.375 130.166 265.483 130.166Q266.122 130.166 266.745 130.379Q267.369 130.592 267.88 131.069Q268.391 131.546 268.695 132.329Q268.999 133.112 268.999 134.257L268.999 134.79L263.059 134.79Q263.102 136.1 263.802 136.798Q264.503 137.496 265.611 137.496Q266.351 137.496 266.884 137.176Q267.417 136.857 267.656 136.217L268.871 136.558Q268.583 137.485 267.72 138.055Q266.857 138.625 265.611 138.625ZM279.822 138.625Q278.672 138.625 277.841 138.082Q277.01 137.538 276.563 136.585Q276.115 135.631 276.115 134.406Q276.115 133.16 276.576 132.204Q277.037 131.248 277.865 130.707Q278.693 130.166 279.801 130.166Q280.664 130.166 281.357 130.486Q282.049 130.805 282.491 131.381Q282.933 131.956 283.04 132.723L281.783 132.723Q281.639 132.164 281.146 131.73Q280.653 131.295 279.822 131.295Q278.72 131.295 278.046 132.134Q277.372 132.973 277.372 134.364Q277.372 135.786 278.038 136.641Q278.704 137.496 279.822 137.496Q280.558 137.496 281.082 137.118Q281.607 136.739 281.783 136.068L283.04 136.068Q282.933 136.793 282.515 137.371Q282.097 137.949 281.413 138.287Q280.728 138.625 279.822 138.625ZM294.226 132.105L293.097 132.425Q292.931 131.999 292.543 131.626Q292.154 131.253 291.328 131.253Q290.577 131.253 290.079 131.596Q289.581 131.94 289.581 132.467Q289.581 132.936 289.922 133.208Q290.263 133.479 290.987 133.661L292.202 133.959Q294.375 134.491 294.375 136.175Q294.375 136.878 293.973 137.432Q293.571 137.986 292.852 138.305Q292.132 138.625 291.179 138.625Q289.927 138.625 289.107 138.082Q288.287 137.538 288.068 136.494L289.261 136.196Q289.597 137.517 291.158 137.517Q292.037 137.517 292.556 137.142Q293.075 136.766 293.075 136.239Q293.075 135.37 291.861 135.088L290.497 134.768Q289.373 134.502 288.849 133.94Q288.324 133.378 288.324 132.531Q288.324 131.839 288.715 131.306Q289.107 130.773 289.786 130.47Q290.465 130.166 291.328 130.166Q292.543 130.166 293.238 130.699Q293.933 131.232 294.226 132.105ZM297.664 138.1Q298.519 138.625 299.702 138.625Q300.948 138.625 301.811 138.055Q302.674 137.485 302.962 136.558L301.747 136.217Q301.507 136.857 300.975 137.176Q300.442 137.496 299.702 137.496Q298.594 137.496 297.893 136.798Q297.193 136.1 297.15 134.79L303.09 134.79L303.09 134.257Q303.09 133.112 302.786 132.329Q302.482 131.546 301.971 131.069Q301.46 130.592 300.836 130.379Q300.213 130.166 299.574 130.166Q298.466 130.166 297.638 130.707Q296.809 131.248 296.349 132.209Q295.888 133.17 295.888 134.428Q295.888 135.685 296.349 136.63Q296.809 137.576 297.664 138.1ZM310.803 132.105L309.673 132.425Q309.508 131.999 309.119 131.626Q308.73 131.253 307.905 131.253Q307.154 131.253 306.656 131.596Q306.158 131.94 306.158 132.467Q306.158 132.936 306.499 133.208Q306.84 133.479 307.564 133.661L308.778 133.959Q310.952 134.491 310.952 136.175Q310.952 136.878 310.55 137.432Q310.147 137.986 309.428 138.305Q308.709 138.625 307.756 138.625Q306.504 138.625 305.684 138.082Q304.863 137.538 304.645 136.494L305.838 136.196Q306.174 137.517 307.734 137.517Q308.613 137.517 309.133 137.142Q309.652 136.766 309.652 136.239Q309.652 135.37 308.438 135.088L307.074 134.768Q305.95 134.502 305.425 133.94Q304.901 133.378 304.901 132.531Q304.901 131.839 305.292 131.306Q305.684 130.773 306.363 130.47Q307.042 130.166 307.905 130.166Q309.119 130.166 309.814 130.699Q310.51 131.232 310.803 132.105ZM198.004 130.273L199.261 130.273L199.261 138.455L198.004 138.455L198.004 130.273ZM228.303 130.273L227.045 130.273L227.045 139.051Q227.045 139.674 226.779 140.013Q226.513 140.351 225.938 140.351L225.703 140.351L225.703 141.523L225.959 141.523Q227.141 141.523 227.722 140.854Q228.303 140.186 228.303 139.051L228.303 130.273ZM256.982 133.618L255.021 130.273L253.572 130.273L256.172 134.364L253.572 138.455L255.021 138.455L256.982 135.28L258.942 138.455L260.391 138.455L257.749 134.364L260.391 130.273L258.942 130.273L256.982 133.618ZM286.129 130.273L284.872 130.273L284.872 138.455L286.129 138.455L286.129 130.273ZM30.9801 132.467Q30.5859 132.467 30.3036 132.185Q30.0213 131.903 30.0213 131.509Q30.0213 131.114 30.3036 130.832Q30.5859 130.55 30.9801 130.55Q31.3743 130.55 31.6566 130.832Q31.9389 131.114 31.9389 131.509Q31.9389 131.903 31.6566 132.185Q31.3743 132.467 30.9801 132.467ZM108.537 132.467Q108.143 132.467 107.86 132.185Q107.578 131.903 107.578 131.509Q107.578 131.114 107.86 130.832Q108.143 130.55 108.537 130.55Q108.931 130.55 109.213 130.832Q109.496 131.114 109.496 131.509Q109.496 131.903 109.213 132.185Q108.931 132.467 108.537 132.467ZM22.7637 136.625Q22.1591 135.754 22.1591 134.364Q22.1591 132.989 22.7557 132.142Q23.3523 131.295 24.5028 131.295Q25.3018 131.295 25.8319 131.703Q26.3619 132.11 26.6255 132.806Q26.8892 133.501 26.8892 134.364Q26.8892 135.237 26.6202 135.948Q26.3512 136.659 25.8212 137.078Q25.2912 137.496 24.5028 137.496Q23.3683 137.496 22.7637 136.625ZM206 133.703L210.661 133.703Q210.661 132.664 210.053 131.98Q209.446 131.295 208.423 131.295Q207.704 131.295 207.177 131.631Q206.65 131.967 206.346 132.518Q206.042 133.069 206 133.703ZM246.227 133.703L250.888 133.703Q250.888 132.664 250.281 131.98Q249.673 131.295 248.651 131.295Q247.931 131.295 247.404 131.631Q246.877 131.967 246.573 132.518Q246.27 133.069 246.227 133.703ZM263.059 133.703L267.72 133.703Q267.72 132.664 267.113 131.98Q266.506 131.295 265.483 131.295Q264.764 131.295 264.237 131.631Q263.709 131.967 263.406 132.518Q263.102 133.069 263.059 133.703ZM301.811 133.703L297.15 133.703Q297.193 133.069 297.496 132.518Q297.8 131.967 298.327 131.631Q298.855 131.295 299.574 131.295Q300.597 131.295 301.204 131.98Q301.811 132.664 301.811 133.703ZM190.376 133.192L190.376 134.364L185.604 134.364L185.604 133.192L190.376 133.192ZM243.132 134.364L243.132 133.192L238.359 133.192L238.359 134.364L243.132 134.364ZM30.9801 138.54Q30.5859 138.54 30.3036 138.257Q30.0213 137.975 30.0213 137.581Q30.0213 137.187 30.3036 136.904Q30.5859 136.622 30.9801 136.622Q31.3743 136.622 31.6566 136.904Q31.9389 137.187 31.9389 137.581Q31.9389 137.975 31.6566 138.257Q31.3743 138.54 30.9801 138.54ZM70.419 138.54Q70.0249 138.54 69.7425 138.257Q69.4602 137.975 69.4602 137.581Q69.4602 137.187 69.7425 136.904Q70.0249 136.622 70.419 136.622Q70.8132 136.622 71.0955 136.904Q71.3778 137.187 71.3778 137.581Q71.3778 137.975 71.0955 138.257Q70.8132 138.54 70.419 138.54ZM83.9276 138.54Q83.5334 138.54 83.2511 138.257Q82.9688 137.975 82.9688 137.581Q82.9688 137.187 83.2511 136.904Q83.5334 136.622 83.9276 136.622Q84.3217 136.622 84.604 136.904Q84.8864 137.187 84.8864 137.581Q84.8864 137.975 84.604 138.257Q84.3217 138.54 83.9276 138.54ZM97.4361 138.54Q97.0419 138.54 96.7596 138.257Q96.4773 137.975 96.4773 137.581Q96.4773 137.187 96.7596 136.904Q97.0419 136.622 97.4361 136.622Q97.8303 136.622 98.1126 136.904Q98.3949 137.187 98.3949 137.581Q98.3949 137.975 98.1126 138.257Q97.8303 138.54 97.4361 138.54ZM108.537 138.54Q108.143 138.54 107.86 138.257Q107.578 137.975 107.578 137.581Q107.578 137.187 107.86 136.904Q108.143 136.622 108.537 136.622Q108.931 136.622 109.213 136.904Q109.496 137.187 109.496 137.581Q109.496 137.975 109.213 138.257Q108.931 138.54 108.537 138.54Z" />
        </g>
        <g id="jsprogramsjs-txtfilesjs-Program5.html">
          <path d="M80.625 158.095L84.1406 145.034L82.9901 145.034L79.4744 158.095L80.625 158.095ZM126.584 148.273L126.584 149.338L124.751 149.338L124.751 156.455L123.494 156.455L123.494 149.338L122.173 149.338L122.173 148.273L123.494 148.273L123.494 147.143Q123.494 146.44 123.825 145.972Q124.155 145.503 124.682 145.268Q125.21 145.034 125.795 145.034Q126.259 145.034 126.552 145.109Q126.845 145.183 126.989 145.247L126.626 146.334Q126.531 146.302 126.363 146.254Q126.195 146.206 125.923 146.206Q125.3 146.206 125.026 146.52Q124.751 146.835 124.751 147.442L124.751 148.273L126.584 148.273ZM152.386 158.095L155.902 145.034L154.751 145.034L151.236 158.095L152.386 158.095ZM1.76847 146.909Q1.40092 146.909 1.13725 146.659Q0.873579 146.408 0.87358 146.057Q0.87358 145.705 1.13725 145.455Q1.40092 145.205 1.76847 145.205Q2.13601 145.205 2.39968 145.455Q2.66335 145.705 2.66335 146.057Q2.66335 146.408 2.39968 146.659Q2.13601 146.909 1.76847 146.909ZM86.25 146.909Q85.8825 146.909 85.6188 146.659Q85.3551 146.408 85.3551 146.057Q85.3551 145.705 85.6188 145.455Q85.8825 145.205 86.25 145.205Q86.6175 145.205 86.8812 145.455Q87.1449 145.705 87.1449 146.057Q87.1449 146.408 86.8812 146.659Q86.6175 146.909 86.25 146.909ZM128.36 146.659Q128.624 146.909 128.991 146.909Q129.359 146.909 129.623 146.659Q129.886 146.408 129.886 146.057Q129.886 145.705 129.623 145.455Q129.359 145.205 128.991 145.205Q128.624 145.205 128.36 145.455Q128.097 145.705 128.097 146.057Q128.097 146.408 128.36 146.659ZM158.011 146.909Q157.644 146.909 157.38 146.659Q157.116 146.408 157.116 146.057Q157.116 145.705 157.38 145.455Q157.644 145.205 158.011 145.205Q158.379 145.205 158.643 145.455Q158.906 145.705 158.906 146.057Q158.906 146.408 158.643 146.659Q158.379 146.909 158.011 146.909ZM133.168 145.545L133.168 156.455L131.911 156.455L131.911 145.545L133.168 145.545ZM175.867 145.545L175.867 156.455L177.188 156.455L177.188 152.47L179.574 152.47Q180.847 152.47 181.662 152.004Q182.477 151.538 182.868 150.75Q183.26 149.961 183.26 148.997Q183.26 148.033 182.866 147.25Q182.472 146.467 181.654 146.006Q180.836 145.545 179.553 145.545L175.867 145.545ZM239.361 156.604Q238.423 156.604 237.672 156.231Q236.921 155.858 236.468 155.208Q236.016 154.558 235.973 153.727L237.251 153.727Q237.326 154.468 237.925 154.95Q238.525 155.432 239.361 155.432Q240.032 155.432 240.557 155.118Q241.081 154.803 241.382 154.252Q241.683 153.701 241.683 153.003Q241.683 152.289 241.372 151.727Q241.06 151.165 240.517 150.84Q239.973 150.515 239.276 150.51Q238.775 150.505 238.248 150.662Q237.72 150.819 237.379 151.064L236.143 150.915L236.804 145.545L242.472 145.545L242.472 146.717L237.912 146.717L237.528 149.935L237.592 149.935Q237.928 149.668 238.434 149.493Q238.94 149.317 239.489 149.317Q240.49 149.317 241.276 149.794Q242.061 150.27 242.512 151.096Q242.962 151.922 242.962 152.982Q242.962 154.026 242.496 154.843Q242.029 155.661 241.215 156.132Q240.4 156.604 239.361 156.604ZM250.483 151.533L250.483 156.455L249.226 156.455L249.226 145.545L250.483 145.545L250.483 149.551L250.59 149.551Q250.877 148.917 251.455 148.542Q252.033 148.166 252.997 148.166Q254.254 148.166 255.021 148.923Q255.788 149.679 255.788 151.256L255.788 156.455L254.531 156.455L254.531 151.341Q254.531 150.366 254.028 149.831Q253.525 149.295 252.635 149.295Q251.703 149.295 251.093 149.879Q250.483 150.462 250.483 151.533ZM277.841 156.455L277.841 145.545L276.584 145.545L276.584 156.455L277.841 156.455ZM107.493 149.338L107.493 148.273L105.746 148.273L105.746 146.313L104.489 146.313L104.489 148.273L103.253 148.273L103.253 149.338L104.489 149.338L104.489 154.452Q104.489 155.165 104.822 155.634Q105.154 156.103 105.663 156.332Q106.172 156.561 106.705 156.561Q107.056 156.561 107.285 156.51Q107.514 156.46 107.642 156.412L107.386 155.283Q107.306 155.299 107.173 155.323Q107.04 155.347 106.832 155.347Q106.555 155.347 106.308 155.259Q106.06 155.171 105.903 154.907Q105.746 154.643 105.746 154.111L105.746 149.338L107.493 149.338ZM121.044 149.338L121.044 148.273L119.297 148.273L119.297 146.313L118.04 146.313L118.04 148.273L116.804 148.273L116.804 149.338L118.04 149.338L118.04 154.452Q118.04 155.165 118.373 155.634Q118.706 156.103 119.214 156.332Q119.723 156.561 120.256 156.561Q120.607 156.561 120.836 156.51Q121.065 156.46 121.193 156.412L120.938 155.283Q120.858 155.299 120.724 155.323Q120.591 155.347 120.384 155.347Q120.107 155.347 119.859 155.259Q119.611 155.171 119.454 154.907Q119.297 154.643 119.297 154.111L119.297 149.338L121.044 149.338ZM261.648 149.338L261.648 148.273L259.901 148.273L259.901 146.313L258.644 146.313L258.644 148.273L257.408 148.273L257.408 149.338L258.644 149.338L258.644 154.452Q258.644 155.165 258.976 155.634Q259.309 156.103 259.818 156.332Q260.327 156.561 260.859 156.561Q261.211 156.561 261.44 156.51Q261.669 156.46 261.797 156.412L261.541 155.283Q261.461 155.299 261.328 155.323Q261.195 155.347 260.987 155.347Q260.71 155.347 260.463 155.259Q260.215 155.171 260.058 154.907Q259.901 154.643 259.901 154.111L259.901 149.338L261.648 149.338ZM179.531 151.298L177.188 151.298L177.188 146.717L179.51 146.717Q180.842 146.717 181.401 147.365Q181.96 148.012 181.96 148.997Q181.96 149.977 181.404 150.638Q180.847 151.298 179.531 151.298ZM21.6903 148.273L22.9048 148.273L22.9048 149.509L22.9901 149.509Q23.2138 148.901 23.7997 148.523Q24.3857 148.145 25.1207 148.145Q25.2592 148.145 25.467 148.15Q25.6747 148.156 25.7813 148.166L25.7813 149.445Q25.7173 149.429 25.4909 149.394Q25.2646 149.359 25.0142 149.359Q24.1193 149.359 23.5334 149.903Q22.9474 150.446 22.9474 151.277L22.9474 156.455L21.6903 156.455L21.6903 148.273ZM46.5767 148.273L45.3622 148.273L45.3622 156.455L46.6193 156.455L46.6193 151.277Q46.6193 150.446 47.2053 149.903Q47.7912 149.359 48.6861 149.359Q48.9364 149.359 49.1628 149.394Q49.3892 149.429 49.4531 149.445L49.4531 148.166Q49.3466 148.156 49.1388 148.15Q48.9311 148.145 48.7926 148.145Q48.0575 148.145 47.4716 148.523Q46.8857 148.901 46.6619 149.509L46.5767 149.509L46.5767 148.273ZM185.22 148.273L186.435 148.273L186.435 149.509L186.52 149.509Q186.744 148.901 187.33 148.523Q187.916 148.145 188.651 148.145Q188.789 148.145 188.997 148.15Q189.205 148.156 189.311 148.166L189.311 149.445Q189.247 149.429 189.021 149.394Q188.794 149.359 188.544 149.359Q187.649 149.359 187.063 149.903Q186.477 150.446 186.477 151.277L186.477 156.455L185.22 156.455L185.22 148.273ZM210.107 148.273L208.892 148.273L208.892 156.455L210.149 156.455L210.149 151.277Q210.149 150.446 210.735 149.903Q211.321 149.359 212.216 149.359Q212.466 149.359 212.693 149.394Q212.919 149.429 212.983 149.445L212.983 148.166Q212.876 148.156 212.669 148.15Q212.461 148.145 212.322 148.145Q211.587 148.145 211.001 148.523Q210.416 148.901 210.192 149.509L210.107 149.509L210.107 148.273ZM10.5043 150.105L9.375 150.425Q9.20987 149.999 8.82102 149.626Q8.43217 149.253 7.60653 149.253Q6.85547 149.253 6.35742 149.596Q5.85938 149.94 5.85938 150.467Q5.85938 150.936 6.20028 151.208Q6.54119 151.479 7.26563 151.661L8.48011 151.959Q10.6534 152.491 10.6534 154.175Q10.6534 154.878 10.2512 155.432Q9.84908 155.986 9.12997 156.305Q8.41087 156.625 7.45739 156.625Q6.20561 156.625 5.3853 156.082Q4.56499 155.538 4.34659 154.494L5.53977 154.196Q5.87536 155.517 7.43608 155.517Q8.31499 155.517 8.83434 155.142Q9.35369 154.766 9.35369 154.239Q9.35369 153.37 8.1392 153.088L6.77557 152.768Q5.65163 152.502 5.12695 151.94Q4.60227 151.378 4.60227 150.531Q4.60227 149.839 4.99379 149.306Q5.3853 148.773 6.06445 148.47Q6.74361 148.166 7.60653 148.166Q8.82102 148.166 9.51616 148.699Q10.2113 149.232 10.5043 150.105ZM12.5497 148.273L12.5497 159.523L13.8068 159.523L13.8068 155.197L13.9134 155.197Q14.0518 155.421 14.3075 155.759Q14.5632 156.098 15.0373 156.361Q15.5114 156.625 16.2997 156.625Q17.3224 156.625 18.1055 156.106Q18.8885 155.586 19.3306 154.635Q19.7727 153.685 19.7727 152.385Q19.7727 151.096 19.3306 150.148Q18.8885 149.2 18.1001 148.683Q17.3118 148.166 16.2784 148.166Q15.4794 148.166 15.0133 148.43Q14.5472 148.694 14.2995 149.026Q14.0518 149.359 13.9134 149.572L13.7642 149.572L13.7642 148.273L12.5497 148.273ZM28.655 156.098Q29.4886 156.625 30.5966 156.625Q31.7045 156.625 32.5382 156.098Q33.3718 155.57 33.8379 154.622Q34.304 153.674 34.304 152.406Q34.304 151.128 33.8379 150.174Q33.3718 149.221 32.5382 148.694Q31.7045 148.166 30.5966 148.166Q29.4886 148.166 28.655 148.694Q27.8214 149.221 27.3553 150.174Q26.8892 151.128 26.8892 152.406Q26.8892 153.674 27.3553 154.622Q27.8214 155.57 28.655 156.098ZM39.5241 159.693Q38.1552 159.693 37.3588 159.195Q36.5625 158.697 36.179 158.053L37.1804 157.349Q37.3509 157.573 37.6119 157.863Q37.8729 158.154 38.3283 158.369Q38.7837 158.585 39.5241 158.585Q40.5149 158.585 41.1594 158.106Q41.804 157.626 41.804 156.604L41.804 154.942L41.6974 154.942Q41.5589 155.165 41.3059 155.493Q41.0529 155.821 40.5815 156.074Q40.1101 156.327 39.3111 156.327Q38.3203 156.327 37.5346 155.858Q36.7489 155.389 36.2935 154.494Q35.8381 153.599 35.8381 152.321Q35.8381 151.064 36.2802 150.129Q36.7223 149.194 37.5107 148.68Q38.299 148.166 39.3324 148.166Q40.1314 148.166 40.6028 148.43Q41.0742 148.694 41.3272 149.026Q41.5803 149.359 41.7188 149.572L41.8466 149.572L41.8466 148.273L43.0611 148.273L43.0611 156.689Q43.0611 157.744 42.5843 158.407Q42.1076 159.07 41.3059 159.382Q40.5043 159.693 39.5241 159.693ZM53.3523 156.646Q52.5746 156.646 51.9407 156.351Q51.3068 156.055 50.9339 155.493Q50.5611 154.931 50.5611 154.132Q50.5611 153.429 50.8381 152.99Q51.1151 152.55 51.5785 152.3Q52.0419 152.049 52.6039 151.924Q53.1658 151.799 53.7358 151.724Q54.4815 151.629 54.9476 151.578Q55.4137 151.527 55.6294 151.405Q55.8452 151.282 55.8452 150.979L55.8452 150.936Q55.8452 150.148 55.4164 149.711Q54.9876 149.274 54.1193 149.274Q53.2191 149.274 52.7077 149.668Q52.1964 150.063 51.9886 150.51L50.7955 150.084Q51.1151 149.338 51.6504 148.92Q52.1857 148.502 52.8223 148.334Q53.4588 148.166 54.0767 148.166Q54.4709 148.166 54.9849 148.259Q55.4989 148.353 55.981 148.64Q56.4631 148.928 56.7827 149.509Q57.1023 150.089 57.1023 151.064L57.1023 156.455L55.8452 156.455L55.8452 155.347L55.7813 155.347Q55.6534 155.613 55.3551 155.917Q55.0568 156.22 54.5614 156.433Q54.0661 156.646 53.3523 156.646ZM60.6179 148.273L59.4034 148.273L59.4034 156.455L60.6605 156.455L60.6605 151.341Q60.6605 150.739 60.9189 150.278Q61.1772 149.817 61.6007 149.556Q62.0241 149.295 62.5142 149.295Q63.228 149.295 63.6808 149.724Q64.1335 150.153 64.1335 150.851L64.1335 156.455L65.4119 156.455L65.4119 151.128Q65.4119 150.334 65.886 149.815Q66.3601 149.295 67.223 149.295Q67.8942 149.295 68.3896 149.684Q68.8849 150.073 68.8849 150.979L68.8849 156.455L70.142 156.455L70.142 150.979Q70.142 149.535 69.4442 148.851Q68.7464 148.166 67.6491 148.166Q66.7702 148.166 66.1417 148.542Q65.5131 148.917 65.1989 149.551L65.1136 149.551Q64.81 148.896 64.2693 148.531Q63.7287 148.166 62.919 148.166Q62.12 148.166 61.5501 148.531Q60.9801 148.896 60.7244 149.551L60.6179 149.551L60.6179 148.273ZM78.2386 150.105L77.1094 150.425Q76.9442 149.999 76.5554 149.626Q76.1665 149.253 75.3409 149.253Q74.5898 149.253 74.0918 149.596Q73.5938 149.94 73.5938 150.467Q73.5938 150.936 73.9347 151.208Q74.2756 151.479 75 151.661L76.2145 151.959Q78.3878 152.491 78.3878 154.175Q78.3878 154.878 77.9856 155.432Q77.5835 155.986 76.8643 156.305Q76.1452 156.625 75.1918 156.625Q73.94 156.625 73.1197 156.082Q72.2994 155.538 72.081 154.494L73.2741 154.196Q73.6097 155.517 75.1704 155.517Q76.0494 155.517 76.5687 155.142Q77.0881 154.766 77.0881 154.239Q77.0881 153.37 75.8736 153.088L74.5099 152.768Q73.386 152.502 72.8613 151.94Q72.3366 151.378 72.3366 150.531Q72.3366 149.839 72.7282 149.306Q73.1197 148.773 73.7988 148.47Q74.478 148.166 75.3409 148.166Q76.5554 148.166 77.2505 148.699Q77.9457 149.232 78.2386 150.105ZM93.8565 150.425L94.9858 150.105Q94.6928 149.232 93.9977 148.699Q93.3026 148.166 92.0881 148.166Q91.2251 148.166 90.546 148.47Q89.8668 148.773 89.4753 149.306Q89.0838 149.839 89.0838 150.531Q89.0838 151.378 89.6085 151.94Q90.1332 152.502 91.2571 152.768L92.6207 153.088Q93.8352 153.37 93.8352 154.239Q93.8352 154.766 93.3159 155.142Q92.7965 155.517 91.9176 155.517Q90.3569 155.517 90.0213 154.196L88.8281 154.494Q89.0465 155.538 89.8668 156.082Q90.6871 156.625 91.9389 156.625Q92.8924 156.625 93.6115 156.305Q94.3306 155.986 94.7328 155.432Q95.1349 154.878 95.1349 154.175Q95.1349 152.491 92.9616 151.959L91.7472 151.661Q91.0227 151.479 90.6818 151.208Q90.3409 150.936 90.3409 150.467Q90.3409 149.94 90.839 149.596Q91.337 149.253 92.0881 149.253Q92.9137 149.253 93.3026 149.626Q93.6914 149.999 93.8565 150.425ZM136.862 156.1Q137.717 156.625 138.899 156.625Q140.146 156.625 141.009 156.055Q141.871 155.485 142.159 154.558L140.945 154.217Q140.705 154.857 140.172 155.176Q139.64 155.496 138.899 155.496Q137.791 155.496 137.091 154.798Q136.39 154.1 136.348 152.79L142.287 152.79L142.287 152.257Q142.287 151.112 141.983 150.329Q141.68 149.546 141.168 149.069Q140.657 148.592 140.034 148.379Q139.411 148.166 138.771 148.166Q137.663 148.166 136.835 148.707Q136.007 149.248 135.546 150.209Q135.085 151.17 135.085 152.428Q135.085 153.685 135.546 154.63Q136.007 155.576 136.862 156.1ZM150 150.105L148.871 150.425Q148.706 149.999 148.317 149.626Q147.928 149.253 147.102 149.253Q146.351 149.253 145.853 149.596Q145.355 149.94 145.355 150.467Q145.355 150.936 145.696 151.208Q146.037 151.479 146.761 151.661L147.976 151.959Q150.149 152.491 150.149 154.175Q150.149 154.878 149.747 155.432Q149.345 155.986 148.626 156.305Q147.907 156.625 146.953 156.625Q145.701 156.625 144.881 156.082Q144.061 155.538 143.842 154.494L145.036 154.196Q145.371 155.517 146.932 155.517Q147.811 155.517 148.33 155.142Q148.849 154.766 148.849 154.239Q148.849 153.37 147.635 153.088L146.271 152.768Q145.147 152.502 144.623 151.94Q144.098 151.378 144.098 150.531Q144.098 149.839 144.49 149.306Q144.881 148.773 145.56 148.47Q146.239 148.166 147.102 148.166Q148.317 148.166 149.012 148.699Q149.707 149.232 150 150.105ZM165.618 150.425L166.747 150.105Q166.454 149.232 165.759 148.699Q165.064 148.166 163.849 148.166Q162.987 148.166 162.307 148.47Q161.628 148.773 161.237 149.306Q160.845 149.839 160.845 150.531Q160.845 151.378 161.37 151.94Q161.895 152.502 163.018 152.768L164.382 153.088Q165.597 153.37 165.597 154.239Q165.597 154.766 165.077 155.142Q164.558 155.517 163.679 155.517Q162.118 155.517 161.783 154.196L160.589 154.494Q160.808 155.538 161.628 156.082Q162.449 156.625 163.7 156.625Q164.654 156.625 165.373 156.305Q166.092 155.986 166.494 155.432Q166.896 154.878 166.896 154.175Q166.896 152.491 164.723 151.959L163.509 151.661Q162.784 151.479 162.443 151.208Q162.102 150.936 162.102 150.467Q162.102 149.94 162.6 149.596Q163.098 149.253 163.849 149.253Q164.675 149.253 165.064 149.626Q165.453 149.999 165.618 150.425ZM192.185 156.098Q193.018 156.625 194.126 156.625Q195.234 156.625 196.068 156.098Q196.902 155.57 197.368 154.622Q197.834 153.674 197.834 152.406Q197.834 151.128 197.368 150.174Q196.902 149.221 196.068 148.694Q195.234 148.166 194.126 148.166Q193.018 148.166 192.185 148.694Q191.351 149.221 190.885 150.174Q190.419 151.128 190.419 152.406Q190.419 153.674 190.885 154.622Q191.351 155.57 192.185 156.098ZM203.054 159.693Q201.685 159.693 200.889 159.195Q200.092 158.697 199.709 158.053L200.71 157.349Q200.881 157.573 201.142 157.863Q201.403 158.154 201.858 158.369Q202.314 158.585 203.054 158.585Q204.045 158.585 204.689 158.106Q205.334 157.626 205.334 156.604L205.334 154.942L205.227 154.942Q205.089 155.165 204.836 155.493Q204.583 155.821 204.111 156.074Q203.64 156.327 202.841 156.327Q201.85 156.327 201.064 155.858Q200.279 155.389 199.823 154.494Q199.368 153.599 199.368 152.321Q199.368 151.064 199.81 150.129Q200.252 149.194 201.041 148.68Q201.829 148.166 202.862 148.166Q203.661 148.166 204.133 148.43Q204.604 148.694 204.857 149.026Q205.11 149.359 205.249 149.572L205.376 149.572L205.376 148.273L206.591 148.273L206.591 156.689Q206.591 157.744 206.114 158.407Q205.637 159.07 204.836 159.382Q204.034 159.693 203.054 159.693ZM216.882 156.646Q216.104 156.646 215.471 156.351Q214.837 156.055 214.464 155.493Q214.091 154.931 214.091 154.132Q214.091 153.429 214.368 152.99Q214.645 152.55 215.108 152.3Q215.572 152.049 216.134 151.924Q216.696 151.799 217.266 151.724Q218.011 151.629 218.477 151.578Q218.944 151.527 219.159 151.405Q219.375 151.282 219.375 150.979L219.375 150.936Q219.375 150.148 218.946 149.711Q218.517 149.274 217.649 149.274Q216.749 149.274 216.238 149.668Q215.726 150.063 215.518 150.51L214.325 150.084Q214.645 149.338 215.18 148.92Q215.716 148.502 216.352 148.334Q216.989 148.166 217.607 148.166Q218.001 148.166 218.515 148.259Q219.029 148.353 219.511 148.64Q219.993 148.928 220.313 149.509Q220.632 150.089 220.632 151.064L220.632 156.455L219.375 156.455L219.375 155.347L219.311 155.347Q219.183 155.613 218.885 155.917Q218.587 156.22 218.091 156.433Q217.596 156.646 216.882 156.646ZM224.148 148.273L222.933 148.273L222.933 156.455L224.19 156.455L224.19 151.341Q224.19 150.739 224.449 150.278Q224.707 149.817 225.131 149.556Q225.554 149.295 226.044 149.295Q226.758 149.295 227.211 149.724Q227.663 150.153 227.663 150.851L227.663 156.455L228.942 156.455L228.942 151.128Q228.942 150.334 229.416 149.815Q229.89 149.295 230.753 149.295Q231.424 149.295 231.919 149.684Q232.415 150.073 232.415 150.979L232.415 156.455L233.672 156.455L233.672 150.979Q233.672 149.535 232.974 148.851Q232.276 148.166 231.179 148.166Q230.3 148.166 229.672 148.542Q229.043 148.917 228.729 149.551L228.643 149.551Q228.34 148.896 227.799 148.531Q227.259 148.166 226.449 148.166Q225.65 148.166 225.08 148.531Q224.51 148.896 224.254 149.551L224.148 149.551L224.148 148.273ZM263.544 148.273L264.759 148.273L264.759 149.551L264.865 149.551Q265.121 148.896 265.691 148.531Q266.261 148.166 267.06 148.166Q267.869 148.166 268.41 148.531Q268.951 148.896 269.254 149.551L269.34 149.551Q269.654 148.917 270.282 148.542Q270.911 148.166 271.79 148.166Q272.887 148.166 273.585 148.851Q274.283 149.535 274.283 150.979L274.283 156.455L273.026 156.455L273.026 150.979Q273.026 150.073 272.53 149.684Q272.035 149.295 271.364 149.295Q270.501 149.295 270.027 149.815Q269.553 150.334 269.553 151.128L269.553 156.455L268.274 156.455L268.274 150.851Q268.274 150.153 267.821 149.724Q267.369 149.295 266.655 149.295Q266.165 149.295 265.741 149.556Q265.318 149.817 265.06 150.278Q264.801 150.739 264.801 151.341L264.801 156.455L263.544 156.455L263.544 148.273ZM1.15057 148.273L2.40767 148.273L2.40767 157.051Q2.40767 158.186 1.82706 158.854Q1.24645 159.523 0.0639205 159.523L-0.191761 159.523L-0.191761 158.351L0.0426136 158.351Q0.617898 158.351 0.884233 158.013Q1.15057 157.674 1.15057 157.051L1.15057 148.273ZM85.6321 148.273L86.8892 148.273L86.8892 157.051Q86.8892 158.186 86.3086 158.854Q85.728 159.523 84.5455 159.523L84.2898 159.523L84.2898 158.351L84.5241 158.351Q85.0994 158.351 85.3658 158.013Q85.6321 157.674 85.6321 157.051L85.6321 148.273ZM110.327 148.273L112.287 151.618L114.247 148.273L115.696 148.273L113.054 152.364L115.696 156.455L114.247 156.455L112.287 153.28L110.327 156.455L108.878 156.455L111.477 152.364L108.878 148.273L110.327 148.273ZM129.609 148.273L128.352 148.273L128.352 156.455L129.609 156.455L129.609 148.273ZM157.393 148.273L158.651 148.273L158.651 157.051Q158.651 158.186 158.07 158.854Q157.489 159.523 156.307 159.523L156.051 159.523L156.051 158.351L156.286 158.351Q156.861 158.351 157.127 158.013Q157.393 157.674 157.393 157.051L157.393 148.273ZM14.3901 154.625Q13.7855 153.754 13.7855 152.364Q13.7855 150.989 14.3821 150.142Q14.9787 149.295 16.1293 149.295Q16.9283 149.295 17.4583 149.703Q17.9883 150.11 18.252 150.806Q18.5156 151.501 18.5156 152.364Q18.5156 153.237 18.2466 153.948Q17.9776 154.659 17.4476 155.078Q16.9176 155.496 16.1293 155.496Q14.9947 155.496 14.3901 154.625ZM31.9815 155.064Q31.4382 155.496 30.5966 155.496Q29.755 155.496 29.2116 155.064Q28.6683 154.633 28.4073 153.93Q28.1463 153.227 28.1463 152.406Q28.1463 151.586 28.4073 150.877Q28.6683 150.169 29.2116 149.732Q29.755 149.295 30.5966 149.295Q31.4382 149.295 31.9815 149.732Q32.5249 150.169 32.7859 150.877Q33.0469 151.586 33.0469 152.406Q33.0469 153.227 32.7859 153.93Q32.5249 154.633 31.9815 155.064ZM39.4815 155.197Q40.6161 155.197 41.2207 154.428Q41.8253 153.658 41.8253 152.3Q41.8253 150.973 41.2287 150.134Q40.6321 149.295 39.4815 149.295Q38.6825 149.295 38.1525 149.7Q37.6225 150.105 37.3588 150.787Q37.0952 151.469 37.0952 152.3Q37.0952 153.578 37.6971 154.388Q38.299 155.197 39.4815 155.197ZM141.009 151.703L136.348 151.703Q136.39 151.069 136.694 150.518Q136.998 149.967 137.525 149.631Q138.052 149.295 138.771 149.295Q139.794 149.295 140.401 149.98Q141.009 150.664 141.009 151.703ZM195.511 155.064Q194.968 155.496 194.126 155.496Q193.285 155.496 192.742 155.064Q192.198 154.633 191.937 153.93Q191.676 153.227 191.676 152.406Q191.676 151.586 191.937 150.877Q192.198 150.169 192.742 149.732Q193.285 149.295 194.126 149.295Q194.968 149.295 195.511 149.732Q196.055 150.169 196.316 150.877Q196.577 151.586 196.577 152.406Q196.577 153.227 196.316 153.93Q196.055 154.633 195.511 155.064ZM203.011 155.197Q204.146 155.197 204.751 154.428Q205.355 153.658 205.355 152.3Q205.355 150.973 204.759 150.134Q204.162 149.295 203.011 149.295Q202.212 149.295 201.682 149.7Q201.152 150.105 200.889 150.787Q200.625 151.469 200.625 152.3Q200.625 153.578 201.227 154.388Q201.829 155.197 203.011 155.197ZM101.719 151.192L101.719 152.364L96.946 152.364L96.946 151.192L101.719 151.192ZM173.48 151.192L173.48 152.364L168.707 152.364L168.707 151.192L173.48 151.192ZM53.544 155.517Q54.2898 155.517 54.8038 155.224Q55.3178 154.931 55.5815 154.468Q55.8452 154.004 55.8452 153.493L55.8452 152.342Q55.7653 152.438 55.4963 152.515Q55.2273 152.593 54.8784 152.649Q54.5295 152.705 54.2019 152.744Q53.8743 152.784 53.6719 152.811Q53.1818 152.875 52.7583 153.016Q52.3349 153.157 52.0765 153.437Q51.8182 153.717 51.8182 154.196Q51.8182 154.851 52.3056 155.184Q52.793 155.517 53.544 155.517ZM217.074 155.517Q217.82 155.517 218.334 155.224Q218.848 154.931 219.111 154.468Q219.375 154.004 219.375 153.493L219.375 152.342Q219.295 152.438 219.026 152.515Q218.757 152.593 218.408 152.649Q218.059 152.705 217.732 152.744Q217.404 152.784 217.202 152.811Q216.712 152.875 216.288 153.016Q215.865 153.157 215.606 153.437Q215.348 153.717 215.348 154.196Q215.348 154.851 215.835 155.184Q216.323 155.517 217.074 155.517ZM245.332 156.257Q245.614 156.54 246.009 156.54Q246.403 156.54 246.685 156.257Q246.967 155.975 246.967 155.581Q246.967 155.187 246.685 154.904Q246.403 154.622 246.009 154.622Q245.614 154.622 245.332 154.904Q245.05 155.187 245.05 155.581Q245.05 155.975 245.332 156.257Z" />
        </g>
      </g>
    </g>
  </g>
</svg>