<?xml version="1.0" encoding="utf-8"?>
<svg width="375px" height="282px" viewBox="0 0 375 282" version="1.1" xmlns:xlink="http://www.w3.org/1999/xlink" xmlns="http://www.w3.org/2000/svg">
  <g id="Group-96">
    <path d="M0 0L307.09 0L375 0L375 282L0 282L0 0Z" id="Rectangle-14" fill="#FFFFFF" fill-rule="evenodd" stroke="none" />
    <g id="Group-94" transform="translate(13 11.000122)">
      <g id="Check-whether-a-given-year-is">
        <g id="Check-whether-a-given-year-is-a-leap-year-or-not">
          <path d="M135.511 83.9091Q135.144 83.9091 134.88 83.6587Q134.616 83.4084 134.616 83.0568Q134.616 82.7053 134.88 82.4549Q135.144 82.2045 135.511 82.2045Q135.879 82.2045 136.143 82.4549Q136.406 82.7053 136.406 83.0568Q136.406 83.4084 136.143 83.6587Q135.879 83.9091 135.511 83.9091ZM204.503 83.9091Q204.135 83.9091 203.872 83.6587Q203.608 83.4084 203.608 83.0568Q203.608 82.7053 203.872 82.4549Q204.135 82.2045 204.503 82.2045Q204.87 82.2045 205.134 82.4549Q205.398 82.7053 205.398 83.0568Q205.398 83.4084 205.134 83.6587Q204.87 83.9091 204.503 83.9091ZM8.77841 85.9545L10.0994 85.9545Q9.89702 84.8359 9.27379 84.0396Q8.65057 83.2432 7.72905 82.8198Q6.80753 82.3963 5.71023 82.3963Q4.31463 82.3963 3.22798 83.0781Q2.14134 83.7599 1.51811 85.017Q0.894886 86.2741 0.894886 88Q0.894886 89.7259 1.51811 90.983Q2.14134 92.2401 3.22798 92.9219Q4.31463 93.6037 5.71023 93.6037Q6.80753 93.6037 7.72905 93.1802Q8.65057 92.7567 9.27379 91.9604Q9.89702 91.1641 10.0994 90.0455L8.77841 90.0455Q8.61861 90.8018 8.16584 91.3185Q7.71307 91.8352 7.07386 92.1016Q6.43466 92.3679 5.71023 92.3679Q4.71946 92.3679 3.91779 91.8672Q3.11612 91.3665 2.64471 90.3917Q2.1733 89.4169 2.1733 88Q2.1733 86.5831 2.64471 85.6083Q3.11612 84.6335 3.91779 84.1328Q4.71946 83.6321 5.71023 83.6321Q6.43466 83.6321 7.07386 83.8984Q7.71307 84.1648 8.16584 84.6815Q8.61861 85.1982 8.77841 85.9545ZM13.3168 93.4545L13.3168 88.5327Q13.3168 87.462 13.9267 86.8787Q14.5366 86.2955 15.4688 86.2955Q16.3583 86.2955 16.8617 86.8308Q17.3651 87.3661 17.3651 88.3409L17.3651 93.4545L18.6222 93.4545L18.6222 88.2557Q18.6222 86.679 17.8551 85.9226Q17.0881 85.1662 15.831 85.1662Q14.8668 85.1662 14.2889 85.5417Q13.7109 85.9173 13.4233 86.5511L13.3168 86.5511L13.3168 82.5455L12.0597 82.5455L12.0597 93.4545L13.3168 93.4545ZM38.0327 82.5455L39.2898 82.5455L39.2898 88.9162L39.4389 88.9162L43.0185 85.2727L44.5739 85.2727L41.1168 88.767L44.8295 93.4545L43.2315 93.4545L40.1687 89.5767L39.2898 90.3917L39.2898 93.4545L38.0327 93.4545L38.0327 82.5455ZM63.8565 88.5327L63.8565 93.4545L62.5994 93.4545L62.5994 82.5455L63.8565 82.5455L63.8565 86.5511L63.9631 86.5511Q64.2507 85.9173 64.8287 85.5417Q65.4066 85.1662 66.3707 85.1662Q67.6278 85.1662 68.3949 85.9226Q69.1619 86.679 69.1619 88.2557L69.1619 93.4545L67.9048 93.4545L67.9048 88.3409Q67.9048 87.3661 67.4015 86.8308Q66.8981 86.2955 66.0085 86.2955Q65.0763 86.2955 64.4664 86.8787Q63.8565 87.462 63.8565 88.5327ZM86.9105 93.4545L86.9105 88.5327Q86.9105 87.462 87.5204 86.8787Q88.1303 86.2955 89.0625 86.2955Q89.9521 86.2955 90.4554 86.8308Q90.9588 87.3661 90.9588 88.3409L90.9588 93.4545L92.2159 93.4545L92.2159 88.2557Q92.2159 86.679 91.4489 85.9226Q90.6818 85.1662 89.4247 85.1662Q88.4606 85.1662 87.8826 85.5417Q87.3047 85.9173 87.017 86.5511L86.9105 86.5511L86.9105 82.5455L85.6534 82.5455L85.6534 93.4545L86.9105 93.4545ZM232.159 93.4545L233.416 93.4545L233.416 82.5455L232.159 82.5455L232.159 93.4545ZM83.7571 85.2727L83.7571 86.3381L82.0099 86.3381L82.0099 91.1108Q82.0099 91.6435 82.1671 91.9071Q82.3242 92.1708 82.5719 92.2587Q82.8196 92.3466 83.0966 92.3466Q83.3043 92.3466 83.4375 92.3226Q83.5707 92.2987 83.6506 92.2827L83.9063 93.4119Q83.7784 93.4599 83.5494 93.5105Q83.3203 93.5611 82.9688 93.5611Q82.4361 93.5611 81.9274 93.332Q81.4187 93.103 81.0858 92.6342Q80.7528 92.1655 80.7528 91.4517L80.7528 86.3381L79.517 86.3381L79.517 85.2727L80.7528 85.2727L80.7528 83.3125L82.0099 83.3125L82.0099 85.2727L83.7571 85.2727ZM341.655 86.3381L341.655 85.2727L339.908 85.2727L339.908 83.3125L338.651 83.3125L338.651 85.2727L337.415 85.2727L337.415 86.3381L338.651 86.3381L338.651 91.4517Q338.651 92.1655 338.983 92.6342Q339.316 93.103 339.825 93.332Q340.334 93.5611 340.866 93.5611Q341.218 93.5611 341.447 93.5105Q341.676 93.4599 341.804 93.4119L341.548 92.2827Q341.468 92.2987 341.335 92.3226Q341.202 92.3466 340.994 92.3466Q340.717 92.3466 340.47 92.2587Q340.222 92.1708 340.065 91.9071Q339.908 91.6435 339.908 91.1108L339.908 86.3381L341.655 86.3381ZM104.467 85.2727L103.253 85.2727L103.253 93.4545L104.51 93.4545L104.51 88.277Q104.51 87.446 105.096 86.9027Q105.682 86.3594 106.577 86.3594Q106.827 86.3594 107.053 86.394Q107.28 86.4286 107.344 86.4446L107.344 85.1662Q107.237 85.1555 107.029 85.1502Q106.822 85.1449 106.683 85.1449Q105.948 85.1449 105.362 85.5231Q104.776 85.9013 104.553 86.5085L104.467 86.5085L104.467 85.2727ZM195.277 85.2727L194.063 85.2727L194.063 93.4545L195.32 93.4545L195.32 88.277Q195.32 87.446 195.906 86.9027Q196.491 86.3594 197.386 86.3594Q197.637 86.3594 197.863 86.394Q198.089 86.4286 198.153 86.4446L198.153 85.1662Q198.047 85.1555 197.839 85.1502Q197.631 85.1449 197.493 85.1449Q196.758 85.1449 196.172 85.5231Q195.586 85.9013 195.362 86.5085L195.277 86.5085L195.277 85.2727ZM291.818 85.2727L293.033 85.2727L293.033 86.5085L293.118 86.5085Q293.342 85.9013 293.928 85.5231Q294.513 85.1449 295.249 85.1449Q295.387 85.1449 295.595 85.1502Q295.803 85.1555 295.909 85.1662L295.909 86.4446Q295.845 86.4286 295.619 86.394Q295.392 86.3594 295.142 86.3594Q294.247 86.3594 293.661 86.9027Q293.075 87.446 293.075 88.277L293.075 93.4545L291.818 93.4545L291.818 85.2727ZM310.568 85.2727L311.783 85.2727L311.783 86.5085L311.868 86.5085Q312.092 85.9013 312.678 85.5231Q313.263 85.1449 313.999 85.1449Q314.137 85.1449 314.345 85.1502Q314.553 85.1555 314.659 85.1662L314.659 86.4446Q314.595 86.4286 314.369 86.394Q314.142 86.3594 313.892 86.3594Q312.997 86.3594 312.411 86.9027Q311.825 87.446 311.825 88.277L311.825 93.4545L310.568 93.4545L310.568 85.2727ZM24.3537 93.625Q23.1712 93.625 22.3162 93.1003Q21.4613 92.5756 21.0005 91.6301Q20.5398 90.6847 20.5398 89.4276Q20.5398 88.1705 21.0005 87.209Q21.4613 86.2475 22.2896 85.7068Q23.1179 85.1662 24.2259 85.1662Q24.8651 85.1662 25.4883 85.3793Q26.1115 85.5923 26.6229 86.0691Q27.1342 86.5458 27.4379 87.3288Q27.7415 88.1119 27.7415 89.2571L27.7415 89.7898L21.8022 89.7898Q21.8448 91.1001 22.5453 91.7979Q23.2457 92.4957 24.3537 92.4957Q25.0941 92.4957 25.6268 92.1761Q26.1594 91.8565 26.3991 91.2173L27.6136 91.5582Q27.326 92.4851 26.4631 93.055Q25.6001 93.625 24.3537 93.625ZM31.0014 93.0817Q31.8324 93.625 32.983 93.625Q33.8885 93.625 34.573 93.2868Q35.2575 92.9485 35.6756 92.3706Q36.0938 91.7926 36.2003 91.0682L34.9432 91.0682Q34.7674 91.7393 34.2427 92.1175Q33.718 92.4957 32.983 92.4957Q31.8643 92.4957 31.1985 91.6408Q30.5327 90.7859 30.5327 89.3636Q30.5327 87.9734 31.2065 87.1344Q31.8803 86.2955 32.983 86.2955Q33.8139 86.2955 34.3066 86.7296Q34.7994 87.1637 34.9432 87.723L36.2003 87.723Q36.0938 86.956 35.6516 86.3807Q35.2095 85.8054 34.517 85.4858Q33.8246 85.1662 32.9616 85.1662Q31.8537 85.1662 31.0254 85.7068Q30.1971 86.2475 29.7363 87.2037Q29.2756 88.1598 29.2756 89.4063Q29.2756 90.6314 29.723 91.5849Q30.1705 92.5384 31.0014 93.0817ZM72.856 93.1003Q73.7109 93.625 74.8935 93.625Q76.1399 93.625 77.0028 93.055Q77.8658 92.4851 78.1534 91.5582L76.9389 91.2173Q76.6992 91.8565 76.1665 92.1761Q75.6339 92.4957 74.8935 92.4957Q73.7855 92.4957 73.0851 91.7979Q72.3846 91.1001 72.342 89.7898L78.2813 89.7898L78.2813 89.2571Q78.2813 88.1119 77.9776 87.3288Q77.674 86.5458 77.1626 86.0691Q76.6513 85.5923 76.0281 85.3793Q75.4048 85.1662 74.7656 85.1662Q73.6577 85.1662 72.8294 85.7068Q72.0011 86.2475 71.5403 87.209Q71.0795 88.1705 71.0795 89.4276Q71.0795 90.6847 71.5403 91.6301Q72.0011 92.5756 72.856 93.1003ZM97.9474 93.625Q96.7649 93.625 95.91 93.1003Q95.055 92.5756 94.5943 91.6301Q94.1335 90.6847 94.1335 89.4276Q94.1335 88.1705 94.5943 87.209Q95.055 86.2475 95.8833 85.7068Q96.7116 85.1662 97.8196 85.1662Q98.4588 85.1662 99.082 85.3793Q99.7052 85.5923 100.217 86.0691Q100.728 86.5458 101.032 87.3288Q101.335 88.1119 101.335 89.2571L101.335 89.7898L95.3959 89.7898Q95.4386 91.1001 96.139 91.7979Q96.8395 92.4957 97.9474 92.4957Q98.6879 92.4957 99.2205 92.1761Q99.7532 91.8565 99.9929 91.2173L101.207 91.5582Q100.92 92.4851 100.057 93.055Q99.1939 93.625 97.9474 93.625ZM115.462 93.6463Q114.684 93.6463 114.05 93.3507Q113.416 93.055 113.043 92.4931Q112.67 91.9311 112.67 91.1321Q112.67 90.429 112.947 89.9895Q113.224 89.5501 113.688 89.2997Q114.151 89.0494 114.713 88.9242Q115.275 88.799 115.845 88.7244Q116.591 88.6285 117.057 88.5779Q117.523 88.5273 117.739 88.4048Q117.955 88.2823 117.955 87.9787L117.955 87.9361Q117.955 87.1477 117.526 86.7109Q117.097 86.2741 116.229 86.2741Q115.328 86.2741 114.817 86.6683Q114.306 87.0625 114.098 87.5099L112.905 87.0838Q113.224 86.3381 113.76 85.9199Q114.295 85.5018 114.932 85.334Q115.568 85.1662 116.186 85.1662Q116.58 85.1662 117.094 85.2594Q117.608 85.3526 118.09 85.6403Q118.572 85.9279 118.892 86.5085Q119.212 87.0891 119.212 88.0639L119.212 93.4545L117.955 93.4545L117.955 92.3466L117.891 92.3466Q117.763 92.6129 117.464 92.9165Q117.166 93.2202 116.671 93.4332Q116.175 93.6463 115.462 93.6463ZM126.869 96.1951Q127.665 96.6932 129.034 96.6932Q130.014 96.6932 130.816 96.3816Q131.618 96.07 132.094 95.4068Q132.571 94.7436 132.571 93.6889L132.571 85.2727L131.357 85.2727L131.357 86.5724L131.229 86.5724Q131.09 86.3594 130.837 86.0265Q130.584 85.6935 130.113 85.4299Q129.641 85.1662 128.842 85.1662Q127.809 85.1662 127.021 85.6802Q126.232 86.1942 125.79 87.1291Q125.348 88.0639 125.348 89.321Q125.348 90.5994 125.803 91.4943Q126.259 92.3892 127.045 92.858Q127.83 93.3267 128.821 93.3267Q129.62 93.3267 130.091 93.0737Q130.563 92.8207 130.816 92.4931Q131.069 92.1655 131.207 91.9418L131.314 91.9418L131.314 93.6037Q131.314 94.6264 130.669 95.1058Q130.025 95.5852 129.034 95.5852Q128.294 95.5852 127.838 95.3695Q127.383 95.1538 127.122 94.8635Q126.861 94.5732 126.69 94.3494L125.689 95.0526Q126.072 95.6971 126.869 96.1951ZM150.213 93.625Q149.031 93.625 148.176 93.1003Q147.321 92.5756 146.86 91.6301Q146.399 90.6847 146.399 89.4276Q146.399 88.1705 146.86 87.209Q147.321 86.2475 148.149 85.7068Q148.977 85.1662 150.085 85.1662Q150.724 85.1662 151.348 85.3793Q151.971 85.5923 152.482 86.0691Q152.994 86.5458 153.297 87.3288Q153.601 88.1119 153.601 89.2571L153.601 89.7898L147.662 89.7898Q147.704 91.1001 148.405 91.7979Q149.105 92.4957 150.213 92.4957Q150.953 92.4957 151.486 92.1761Q152.019 91.8565 152.259 91.2173L153.473 91.5582Q153.185 92.4851 152.322 93.055Q151.46 93.625 150.213 93.625ZM156.776 93.4545L156.776 88.5327Q156.776 87.462 157.37 86.8787Q157.963 86.2955 158.864 86.2955Q159.737 86.2955 160.238 86.8361Q160.739 87.3768 160.739 88.3409L160.739 93.4545L161.996 93.4545L161.996 88.2557Q161.996 86.6896 161.231 85.9279Q160.467 85.1662 159.226 85.1662Q158.299 85.1662 157.713 85.5471Q157.127 85.9279 156.839 86.5511L156.733 86.5511L156.733 85.2727L155.518 85.2727L155.518 93.4545L156.776 93.4545ZM178.261 93.1003Q179.116 93.625 180.298 93.625Q181.545 93.625 182.408 93.055Q183.271 92.4851 183.558 91.5582L182.344 91.2173Q182.104 91.8565 181.571 92.1761Q181.039 92.4957 180.298 92.4957Q179.19 92.4957 178.49 91.7979Q177.789 91.1001 177.747 89.7898L183.686 89.7898L183.686 89.2571Q183.686 88.1119 183.382 87.3288Q183.079 86.5458 182.567 86.0691Q182.056 85.5923 181.433 85.3793Q180.81 85.1662 180.17 85.1662Q179.063 85.1662 178.234 85.7068Q177.406 86.2475 176.945 87.209Q176.484 88.1705 176.484 89.4276Q176.484 90.6847 176.945 91.6301Q177.406 92.5756 178.261 93.1003ZM188.011 93.6463Q187.234 93.6463 186.6 93.3507Q185.966 93.055 185.593 92.4931Q185.22 91.9311 185.22 91.1321Q185.22 90.429 185.497 89.9895Q185.774 89.5501 186.238 89.2997Q186.701 89.0494 187.263 88.9242Q187.825 88.799 188.395 88.7244Q189.141 88.6285 189.607 88.5779Q190.073 88.5273 190.289 88.4048Q190.504 88.2823 190.504 87.9787L190.504 87.9361Q190.504 87.1477 190.075 86.7109Q189.647 86.2741 188.778 86.2741Q187.878 86.2741 187.367 86.6683Q186.855 87.0625 186.648 87.5099L185.455 87.0838Q185.774 86.3381 186.309 85.9199Q186.845 85.5018 187.481 85.334Q188.118 85.1662 188.736 85.1662Q189.13 85.1662 189.644 85.2594Q190.158 85.3526 190.64 85.6403Q191.122 85.9279 191.442 86.5085Q191.761 87.0891 191.761 88.0639L191.761 93.4545L190.504 93.4545L190.504 92.3466L190.44 92.3466Q190.313 92.6129 190.014 92.9165Q189.716 93.2202 189.221 93.4332Q188.725 93.6463 188.011 93.6463ZM212.088 87.4247L213.217 87.1051Q212.924 86.2315 212.229 85.6989Q211.534 85.1662 210.32 85.1662Q209.457 85.1662 208.778 85.4698Q208.098 85.7734 207.707 86.3061Q207.315 86.8388 207.315 87.5313Q207.315 88.3782 207.84 88.9402Q208.365 89.5021 209.489 89.7685L210.852 90.0881Q212.067 90.3704 212.067 91.2386Q212.067 91.766 211.547 92.1415Q211.028 92.517 210.149 92.517Q208.588 92.517 208.253 91.196L207.06 91.4943Q207.278 92.5384 208.098 93.0817Q208.919 93.625 210.17 93.625Q211.124 93.625 211.843 93.3054Q212.562 92.9858 212.964 92.4318Q213.366 91.8778 213.366 91.1747Q213.366 89.4915 211.193 88.9588L209.979 88.6605Q209.254 88.4794 208.913 88.2077Q208.572 87.9361 208.572 87.4673Q208.572 86.94 209.07 86.5964Q209.569 86.2528 210.32 86.2528Q211.145 86.2528 211.534 86.6257Q211.923 86.9986 212.088 87.4247ZM221.889 93.6463Q221.112 93.6463 220.478 93.3507Q219.844 93.055 219.471 92.4931Q219.098 91.9311 219.098 91.1321Q219.098 90.429 219.375 89.9895Q219.652 89.5501 220.115 89.2997Q220.579 89.0494 221.141 88.9242Q221.703 88.799 222.273 88.7244Q223.018 88.6285 223.485 88.5779Q223.951 88.5273 224.166 88.4048Q224.382 88.2823 224.382 87.9787L224.382 87.9361Q224.382 87.1477 223.953 86.7109Q223.525 86.2741 222.656 86.2741Q221.756 86.2741 221.245 86.6683Q220.733 87.0625 220.526 87.5099L219.332 87.0838Q219.652 86.3381 220.187 85.9199Q220.723 85.5018 221.359 85.334Q221.996 85.1662 222.614 85.1662Q223.008 85.1662 223.522 85.2594Q224.036 85.3526 224.518 85.6403Q225 85.9279 225.32 86.5085Q225.639 87.0891 225.639 88.0639L225.639 93.4545L224.382 93.4545L224.382 92.3466L224.318 92.3466Q224.19 92.6129 223.892 92.9165Q223.594 93.2202 223.098 93.4332Q222.603 93.6463 221.889 93.6463ZM239.148 93.625Q237.965 93.625 237.11 93.1003Q236.255 92.5756 235.795 91.6301Q235.334 90.6847 235.334 89.4276Q235.334 88.1705 235.795 87.209Q236.255 86.2475 237.084 85.7068Q237.912 85.1662 239.02 85.1662Q239.659 85.1662 240.282 85.3793Q240.906 85.5923 241.417 86.0691Q241.928 86.5458 242.232 87.3288Q242.536 88.1119 242.536 89.2571L242.536 89.7898L236.596 89.7898Q236.639 91.1001 237.339 91.7979Q238.04 92.4957 239.148 92.4957Q239.888 92.4957 240.421 92.1761Q240.953 91.8565 241.193 91.2173L242.408 91.5582Q242.12 92.4851 241.257 93.055Q240.394 93.625 239.148 93.625ZM245.449 93.3507Q246.083 93.6463 246.861 93.6463Q247.575 93.6463 248.07 93.4332Q248.565 93.2202 248.864 92.9165Q249.162 92.6129 249.29 92.3466L249.354 92.3466L249.354 93.4545L250.611 93.4545L250.611 88.0639Q250.611 87.0891 250.291 86.5085Q249.972 85.9279 249.49 85.6403Q249.007 85.3526 248.493 85.2594Q247.979 85.1662 247.585 85.1662Q246.967 85.1662 246.331 85.334Q245.694 85.5018 245.159 85.9199Q244.624 86.3381 244.304 87.0838L245.497 87.5099Q245.705 87.0625 246.216 86.6683Q246.728 86.2741 247.628 86.2741Q248.496 86.2741 248.925 86.7109Q249.354 87.1477 249.354 87.9361L249.354 87.9787Q249.354 88.2823 249.138 88.4048Q248.922 88.5273 248.456 88.5779Q247.99 88.6285 247.244 88.7244Q246.674 88.799 246.112 88.9242Q245.55 89.0494 245.087 89.2997Q244.624 89.5501 244.347 89.9895Q244.07 90.429 244.07 91.1321Q244.07 91.9311 244.442 92.4931Q244.815 93.055 245.449 93.3507ZM252.912 96.5227L252.912 85.2727L254.126 85.2727L254.126 86.5724L254.276 86.5724Q254.414 86.3594 254.662 86.0265Q254.909 85.6935 255.376 85.4299Q255.842 85.1662 256.641 85.1662Q257.674 85.1662 258.462 85.6829Q259.251 86.1996 259.693 87.1477Q260.135 88.0959 260.135 89.3849Q260.135 90.6847 259.693 91.6355Q259.251 92.5863 258.468 93.1056Q257.685 93.625 256.662 93.625Q255.874 93.625 255.4 93.3613Q254.925 93.0977 254.67 92.7594Q254.414 92.4212 254.276 92.1974L254.169 92.1974L254.169 96.5227L252.912 96.5227ZM278.054 93.625Q276.871 93.625 276.016 93.1003Q275.162 92.5756 274.701 91.6301Q274.24 90.6847 274.24 89.4276Q274.24 88.1705 274.701 87.209Q275.162 86.2475 275.99 85.7068Q276.818 85.1662 277.926 85.1662Q278.565 85.1662 279.189 85.3793Q279.812 85.5923 280.323 86.0691Q280.835 86.5458 281.138 87.3288Q281.442 88.1119 281.442 89.2571L281.442 89.7898L275.502 89.7898Q275.545 91.1001 276.246 91.7979Q276.946 92.4957 278.054 92.4957Q278.794 92.4957 279.327 92.1761Q279.86 91.8565 280.099 91.2173L281.314 91.5582Q281.026 92.4851 280.163 93.055Q279.3 93.625 278.054 93.625ZM284.355 93.3507Q284.989 93.6463 285.767 93.6463Q286.481 93.6463 286.976 93.4332Q287.472 93.2202 287.77 92.9165Q288.068 92.6129 288.196 92.3466L288.26 92.3466L288.26 93.4545L289.517 93.4545L289.517 88.0639Q289.517 87.0891 289.197 86.5085Q288.878 85.9279 288.396 85.6403Q287.914 85.3526 287.4 85.2594Q286.886 85.1662 286.491 85.1662Q285.874 85.1662 285.237 85.334Q284.6 85.5018 284.065 85.9199Q283.53 86.3381 283.21 87.0838L284.403 87.5099Q284.611 87.0625 285.122 86.6683Q285.634 86.2741 286.534 86.2741Q287.402 86.2741 287.831 86.7109Q288.26 87.1477 288.26 87.9361L288.26 87.9787Q288.26 88.2823 288.044 88.4048Q287.828 88.5273 287.362 88.5779Q286.896 88.6285 286.151 88.7244Q285.581 88.799 285.019 88.9242Q284.457 89.0494 283.993 89.2997Q283.53 89.5501 283.253 89.9895Q282.976 90.429 282.976 91.1321Q282.976 91.9311 283.349 92.4931Q283.722 93.055 284.355 93.3507ZM303.002 93.0977Q303.835 93.625 304.943 93.625Q306.051 93.625 306.885 93.0977Q307.718 92.5703 308.184 91.6222Q308.651 90.674 308.651 89.4063Q308.651 88.1278 308.184 87.1744Q307.718 86.2209 306.885 85.6935Q306.051 85.1662 304.943 85.1662Q303.835 85.1662 303.002 85.6935Q302.168 86.2209 301.702 87.1744Q301.236 88.1278 301.236 89.4063Q301.236 90.674 301.702 91.6222Q302.168 92.5703 303.002 93.0977ZM321.626 93.4545L321.626 88.5327Q321.626 87.462 322.22 86.8787Q322.814 86.2955 323.714 86.2955Q324.588 86.2955 325.089 86.8361Q325.589 87.3768 325.589 88.3409L325.589 93.4545L326.847 93.4545L326.847 88.2557Q326.847 86.6896 326.082 85.9279Q325.318 85.1662 324.077 85.1662Q323.15 85.1662 322.564 85.5471Q321.978 85.9279 321.69 86.5511L321.584 86.5511L321.584 85.2727L320.369 85.2727L320.369 93.4545L321.626 93.4545ZM332.472 93.625Q331.364 93.625 330.53 93.0977Q329.696 92.5703 329.23 91.6222Q328.764 90.674 328.764 89.4063Q328.764 88.1278 329.23 87.1744Q329.696 86.2209 330.53 85.6935Q331.364 85.1662 332.472 85.1662Q333.58 85.1662 334.413 85.6935Q335.247 86.2209 335.713 87.1744Q336.179 88.1278 336.179 89.4063Q336.179 90.674 335.713 91.6222Q335.247 92.5703 334.413 93.0977Q333.58 93.625 332.472 93.625ZM51.0938 85.2727L49.7727 85.2727L52.2656 93.4545L53.5014 93.4545L55.2912 87.169L55.419 87.169L57.2088 93.4545L58.4446 93.4545L60.9375 85.2727L59.6165 85.2727L57.848 91.5156L57.7628 91.5156L56.0369 85.2727L54.6946 85.2727L52.9474 91.5369L52.8622 91.5369L51.0938 85.2727ZM134.872 85.2727L136.129 85.2727L136.129 93.4545L134.872 93.4545L134.872 85.2727ZM140.817 93.4545L142.095 93.4545L145.121 85.2727L143.757 85.2727L141.499 91.7926L141.413 91.7926L139.155 85.2727L137.791 85.2727L140.817 93.4545ZM169.325 96.5227Q169.006 96.5227 168.755 96.4721Q168.505 96.4215 168.409 96.3736L168.729 95.2656Q169.187 95.3828 169.538 95.3509Q169.89 95.3189 170.164 95.0392Q170.439 94.7596 170.668 94.1364L170.902 93.4972L167.876 85.2727L169.24 85.2727L171.499 91.7926L171.584 91.7926L173.842 85.2727L175.206 85.2727L171.733 94.6477Q171.035 96.5227 169.325 96.5227ZM203.864 85.2727L205.121 85.2727L205.121 93.4545L203.864 93.4545L203.864 85.2727ZM266.511 96.4721Q266.761 96.5227 267.081 96.5227Q268.791 96.5227 269.489 94.6477L272.962 85.2727L271.598 85.2727L269.339 91.7926L269.254 91.7926L266.996 85.2727L265.632 85.2727L268.658 93.4972L268.423 94.1364Q268.194 94.7596 267.92 95.0392Q267.646 95.3189 267.294 95.3509Q266.942 95.3828 266.484 95.2656L266.165 96.3736Q266.261 96.4215 266.511 96.4721ZM21.8022 88.7031L26.4631 88.7031Q26.4631 87.6644 25.8558 86.9799Q25.2486 86.2955 24.2259 86.2955Q23.5067 86.2955 22.9794 86.631Q22.4521 86.9666 22.1484 87.5179Q21.8448 88.0692 21.8022 88.7031ZM77.0028 88.7031L72.342 88.7031Q72.3846 88.0692 72.6882 87.5179Q72.9918 86.9666 73.5192 86.631Q74.0465 86.2955 74.7656 86.2955Q75.7884 86.2955 76.3956 86.9799Q77.0028 87.6644 77.0028 88.7031ZM95.3959 88.7031L100.057 88.7031Q100.057 87.6644 99.4496 86.9799Q98.8423 86.2955 97.8196 86.2955Q97.1005 86.2955 96.5731 86.631Q96.0458 86.9666 95.7422 87.5179Q95.4386 88.0692 95.3959 88.7031ZM130.731 91.4277Q130.126 92.1974 128.991 92.1974Q127.809 92.1974 127.207 91.3878Q126.605 90.5781 126.605 89.2997Q126.605 88.4688 126.869 87.7869Q127.132 87.1051 127.662 86.7003Q128.192 86.2955 128.991 86.2955Q130.142 86.2955 130.739 87.1344Q131.335 87.9734 131.335 89.2997Q131.335 90.658 130.731 91.4277ZM147.662 88.7031L152.322 88.7031Q152.322 87.6644 151.715 86.9799Q151.108 86.2955 150.085 86.2955Q149.366 86.2955 148.839 86.631Q148.311 86.9666 148.008 87.5179Q147.704 88.0692 147.662 88.7031ZM182.408 88.7031L177.747 88.7031Q177.789 88.0692 178.093 87.5179Q178.397 86.9666 178.924 86.631Q179.451 86.2955 180.17 86.2955Q181.193 86.2955 181.8 86.9799Q182.408 87.6644 182.408 88.7031ZM236.596 88.7031L241.257 88.7031Q241.257 87.6644 240.65 86.9799Q240.043 86.2955 239.02 86.2955Q238.301 86.2955 237.773 86.631Q237.246 86.9666 236.942 87.5179Q236.639 88.0692 236.596 88.7031ZM254.148 89.3636Q254.148 90.7539 254.752 91.6248Q255.357 92.4957 256.491 92.4957Q257.28 92.4957 257.81 92.0776Q258.34 91.6594 258.609 90.9483Q258.878 90.2372 258.878 89.3636Q258.878 88.5007 258.614 87.8056Q258.35 87.1104 257.82 86.7029Q257.29 86.2955 256.491 86.2955Q255.341 86.2955 254.744 87.1424Q254.148 87.9893 254.148 89.3636ZM275.502 88.7031L280.163 88.7031Q280.163 87.6644 279.556 86.9799Q278.949 86.2955 277.926 86.2955Q277.207 86.2955 276.68 86.631Q276.152 86.9666 275.849 87.5179Q275.545 88.0692 275.502 88.7031ZM306.328 92.0643Q305.785 92.4957 304.943 92.4957Q304.102 92.4957 303.558 92.0643Q303.015 91.6328 302.754 90.9297Q302.493 90.2266 302.493 89.4063Q302.493 88.5859 302.754 87.8775Q303.015 87.169 303.558 86.7322Q304.102 86.2955 304.943 86.2955Q305.785 86.2955 306.328 86.7322Q306.871 87.169 307.132 87.8775Q307.393 88.5859 307.393 89.4063Q307.393 90.2266 307.132 90.9297Q306.871 91.6328 306.328 92.0643ZM332.472 92.4957Q333.313 92.4957 333.857 92.0643Q334.4 91.6328 334.661 90.9297Q334.922 90.2266 334.922 89.4063Q334.922 88.5859 334.661 87.8775Q334.4 87.169 333.857 86.7322Q333.313 86.2955 332.472 86.2955Q331.63 86.2955 331.087 86.7322Q330.543 87.169 330.282 87.8775Q330.021 88.5859 330.021 89.4063Q330.021 90.2266 330.282 90.9297Q330.543 91.6328 331.087 92.0643Q331.63 92.4957 332.472 92.4957ZM115.653 92.517Q116.399 92.517 116.913 92.2241Q117.427 91.9311 117.691 91.4677Q117.955 91.0043 117.955 90.4929L117.955 89.3423Q117.875 89.4382 117.606 89.5154Q117.337 89.5927 116.988 89.6486Q116.639 89.7045 116.311 89.7445Q115.984 89.7844 115.781 89.8111Q115.291 89.875 114.868 90.0162Q114.444 90.1573 114.186 90.437Q113.928 90.7166 113.928 91.196Q113.928 91.8512 114.415 92.1841Q114.902 92.517 115.653 92.517ZM188.203 92.517Q188.949 92.517 189.463 92.2241Q189.977 91.9311 190.241 91.4677Q190.504 91.0043 190.504 90.4929L190.504 89.3423Q190.424 89.4382 190.155 89.5154Q189.886 89.5927 189.537 89.6486Q189.189 89.7045 188.861 89.7445Q188.533 89.7844 188.331 89.8111Q187.841 89.875 187.417 90.0162Q186.994 90.1573 186.736 90.437Q186.477 90.7166 186.477 91.196Q186.477 91.8512 186.965 92.1841Q187.452 92.517 188.203 92.517ZM222.081 92.517Q222.827 92.517 223.341 92.2241Q223.855 91.9311 224.118 91.4677Q224.382 91.0043 224.382 90.4929L224.382 89.3423Q224.302 89.4382 224.033 89.5154Q223.764 89.5927 223.415 89.6486Q223.066 89.7045 222.739 89.7445Q222.411 89.7844 222.209 89.8111Q221.719 89.875 221.295 90.0162Q220.872 90.1573 220.613 90.437Q220.355 90.7166 220.355 91.196Q220.355 91.8512 220.843 92.1841Q221.33 92.517 222.081 92.517ZM248.312 92.2241Q247.798 92.517 247.053 92.517Q246.301 92.517 245.814 92.1841Q245.327 91.8512 245.327 91.196Q245.327 90.7166 245.585 90.437Q245.843 90.1573 246.267 90.0162Q246.69 89.875 247.18 89.8111Q247.383 89.7844 247.71 89.7445Q248.038 89.7045 248.387 89.6486Q248.736 89.5927 249.005 89.5154Q249.274 89.4382 249.354 89.3423L249.354 90.4929Q249.354 91.0043 249.09 91.4677Q248.826 91.9311 248.312 92.2241ZM287.219 92.2241Q286.705 92.517 285.959 92.517Q285.208 92.517 284.72 92.1841Q284.233 91.8512 284.233 91.196Q284.233 90.7166 284.491 90.437Q284.75 90.1573 285.173 90.0162Q285.597 89.875 286.087 89.8111Q286.289 89.7844 286.617 89.7445Q286.944 89.7045 287.293 89.6486Q287.642 89.5927 287.911 89.5154Q288.18 89.4382 288.26 89.3423L288.26 90.4929Q288.26 91.0043 287.996 91.4677Q287.733 91.9311 287.219 92.2241Z" />
        </g>
        <g id="2021-is-not-a-leap-year">
          <path d="M40.5043 119.909Q40.1367 119.909 39.8731 119.659Q39.6094 119.408 39.6094 119.057Q39.6094 118.705 39.8731 118.455Q40.1367 118.205 40.5043 118.205Q40.8718 118.205 41.1355 118.455Q41.3992 118.705 41.3992 119.057Q41.3992 119.408 41.1355 119.659Q40.8718 119.909 40.5043 119.909ZM1.12926 128.496L1.12926 129.455L8.01136 129.455L8.01136 128.283L2.94034 128.283L2.94034 128.197L5.39063 125.577Q6.32812 124.57 6.85813 123.869Q7.38814 123.169 7.60387 122.596Q7.8196 122.024 7.8196 121.422Q7.8196 120.58 7.39879 119.893Q6.97798 119.206 6.23757 118.801Q5.49716 118.396 4.53835 118.396Q3.58487 118.396 2.82049 118.801Q2.05611 119.206 1.61399 119.93Q1.17188 120.655 1.17188 121.614L2.42898 121.614Q2.42898 120.681 2.98828 120.114Q3.54759 119.547 4.49574 119.547Q5.3853 119.547 5.98455 120.053Q6.58381 120.559 6.58381 121.422Q6.58381 121.923 6.38406 122.378Q6.1843 122.833 5.77415 123.347Q5.36399 123.862 4.73011 124.554L1.12926 128.496ZM10.965 128.139Q11.9585 129.604 13.7642 129.604Q15.57 129.604 16.5634 128.139Q17.5568 126.674 17.5568 124Q17.5568 121.347 16.5554 119.872Q15.554 118.396 13.7642 118.396Q11.9744 118.396 10.973 119.872Q9.97159 121.347 9.97159 124Q9.97159 126.674 10.965 128.139ZM19.581 129.455L19.581 128.496L23.1818 124.554Q23.8157 123.862 24.2259 123.347Q24.636 122.833 24.8358 122.378Q25.0355 121.923 25.0355 121.422Q25.0355 120.559 24.4363 120.053Q23.837 119.547 22.9474 119.547Q21.9993 119.547 21.44 120.114Q20.8807 120.681 20.8807 121.614L19.6236 121.614Q19.6236 120.655 20.0657 119.93Q20.5078 119.206 21.2722 118.801Q22.0366 118.396 22.9901 118.396Q23.9489 118.396 24.6893 118.801Q25.4297 119.206 25.8505 119.893Q26.2713 120.58 26.2713 121.422Q26.2713 122.024 26.0556 122.596Q25.8398 123.169 25.3098 123.869Q24.7798 124.57 23.8423 125.577L21.392 128.197L21.392 128.283L26.4631 128.283L26.4631 129.455L19.581 129.455ZM31.1719 129.455L32.4929 129.455L32.4929 118.545L31.1719 118.545L28.4446 120.357L28.4446 121.699L31.108 119.93L31.1719 119.93L31.1719 129.455ZM96.8182 129.455L95.5611 129.455L95.5611 118.545L96.8182 118.545L96.8182 129.455ZM76.7685 121.273L76.7685 122.338L75.0213 122.338L75.0213 127.111Q75.0213 127.643 75.1784 127.907Q75.3356 128.171 75.5833 128.259Q75.831 128.347 76.108 128.347Q76.3157 128.347 76.4489 128.323Q76.582 128.299 76.6619 128.283L76.9176 129.412Q76.7898 129.46 76.5607 129.51Q76.3317 129.561 75.9801 129.561Q75.4474 129.561 74.9387 129.332Q74.43 129.103 74.0971 128.634Q73.7642 128.165 73.7642 127.452L73.7642 122.338L72.5284 122.338L72.5284 121.273L73.7642 121.273L73.7642 119.313L75.0213 119.313L75.0213 121.273L76.7685 121.273ZM15.6179 127.281Q14.9574 128.432 13.7642 128.432Q12.5763 128.432 11.9132 127.281Q11.25 126.131 11.25 124Q11.25 121.875 11.9158 120.711Q12.5817 119.547 13.7642 119.547Q14.9467 119.547 15.6126 120.711Q16.2784 121.875 16.2784 124Q16.2784 126.131 15.6179 127.281ZM156.435 121.273L155.22 121.273L155.22 129.455L156.477 129.455L156.477 124.277Q156.477 123.446 157.063 122.903Q157.649 122.359 158.544 122.359Q158.794 122.359 159.021 122.394Q159.247 122.429 159.311 122.445L159.311 121.166Q159.205 121.156 158.997 121.15Q158.789 121.145 158.651 121.145Q157.915 121.145 157.33 121.523Q156.744 121.901 156.52 122.509L156.435 122.509L156.435 121.273ZM48.0895 123.425L49.2188 123.105Q48.9258 122.232 48.2307 121.699Q47.5355 121.166 46.321 121.166Q45.4581 121.166 44.7789 121.47Q44.0998 121.773 43.7083 122.306Q43.3168 122.839 43.3168 123.531Q43.3168 124.378 43.8414 124.94Q44.3661 125.502 45.4901 125.768L46.8537 126.088Q48.0682 126.37 48.0682 127.239Q48.0682 127.766 47.5488 128.142Q47.0295 128.517 46.1506 128.517Q44.5898 128.517 44.2543 127.196L43.0611 127.494Q43.2795 128.538 44.0998 129.082Q44.9201 129.625 46.1719 129.625Q47.1254 129.625 47.8445 129.305Q48.5636 128.986 48.9657 128.432Q49.3679 127.878 49.3679 127.175Q49.3679 125.491 47.1946 124.959L45.9801 124.661Q45.2557 124.479 44.9148 124.208Q44.5739 123.936 44.5739 123.467Q44.5739 122.94 45.0719 122.596Q45.57 122.253 46.321 122.253Q47.1467 122.253 47.5355 122.626Q47.9244 122.999 48.0895 123.425ZM56.7401 124.533L56.7401 129.455L55.483 129.455L55.483 121.273L56.6974 121.273L56.6974 122.551L56.804 122.551Q57.0916 121.928 57.6776 121.547Q58.2635 121.166 59.1903 121.166Q60.4315 121.166 61.1959 121.928Q61.9602 122.69 61.9602 124.256L61.9602 129.455L60.7031 129.455L60.7031 124.341Q60.7031 123.377 60.2024 122.836Q59.7017 122.295 58.8281 122.295Q57.9279 122.295 57.334 122.879Q56.7401 123.462 56.7401 124.533ZM65.6436 129.098Q66.4773 129.625 67.5852 129.625Q68.6932 129.625 69.5268 129.098Q70.3604 128.57 70.8265 127.622Q71.2926 126.674 71.2926 125.406Q71.2926 124.128 70.8265 123.174Q70.3604 122.221 69.5268 121.694Q68.6932 121.166 67.5852 121.166Q66.4773 121.166 65.6436 121.694Q64.81 122.221 64.3439 123.174Q63.8778 124.128 63.8778 125.406Q63.8778 126.674 64.3439 127.622Q64.81 128.57 65.6436 129.098ZM83.8796 129.351Q84.5135 129.646 85.2912 129.646Q86.005 129.646 86.5004 129.433Q86.9957 129.22 87.294 128.917Q87.5923 128.613 87.7202 128.347L87.7841 128.347L87.7841 129.455L89.0412 129.455L89.0412 124.064Q89.0412 123.089 88.7216 122.509Q88.402 121.928 87.9199 121.64Q87.4379 121.353 86.9238 121.259Q86.4098 121.166 86.0156 121.166Q85.3977 121.166 84.7612 121.334Q84.1246 121.502 83.5893 121.92Q83.054 122.338 82.7344 123.084L83.9276 123.51Q84.1353 123.063 84.6467 122.668Q85.158 122.274 86.0582 122.274Q86.9265 122.274 87.3553 122.711Q87.7841 123.148 87.7841 123.936L87.7841 123.979Q87.7841 124.282 87.5684 124.405Q87.3526 124.527 86.8865 124.578Q86.4205 124.629 85.6747 124.724Q85.1048 124.799 84.5428 124.924Q83.9808 125.049 83.5174 125.3Q83.054 125.55 82.777 125.99Q82.5 126.429 82.5 127.132Q82.5 127.931 82.8729 128.493Q83.2457 129.055 83.8796 129.351ZM100.512 129.1Q101.367 129.625 102.55 129.625Q103.796 129.625 104.659 129.055Q105.522 128.485 105.81 127.558L104.595 127.217Q104.355 127.857 103.823 128.176Q103.29 128.496 102.55 128.496Q101.442 128.496 100.741 127.798Q100.041 127.1 99.9982 125.79L105.938 125.79L105.938 125.257Q105.938 124.112 105.634 123.329Q105.33 122.546 104.819 122.069Q104.308 121.592 103.684 121.379Q103.061 121.166 102.422 121.166Q101.314 121.166 100.486 121.707Q99.6573 122.248 99.1966 123.209Q98.7358 124.17 98.7358 125.428Q98.7358 126.685 99.1966 127.63Q99.6573 128.576 100.512 129.1ZM110.263 129.646Q109.485 129.646 108.851 129.351Q108.217 129.055 107.844 128.493Q107.472 127.931 107.472 127.132Q107.472 126.429 107.749 125.99Q108.026 125.55 108.489 125.3Q108.952 125.049 109.514 124.924Q110.076 124.799 110.646 124.724Q111.392 124.629 111.858 124.578Q112.324 124.527 112.54 124.405Q112.756 124.282 112.756 123.979L112.756 123.936Q112.756 123.148 112.327 122.711Q111.898 122.274 111.03 122.274Q110.13 122.274 109.618 122.668Q109.107 123.063 108.899 123.51L107.706 123.084Q108.026 122.338 108.561 121.92Q109.096 121.502 109.733 121.334Q110.369 121.166 110.987 121.166Q111.381 121.166 111.895 121.259Q112.409 121.353 112.892 121.64Q113.374 121.928 113.693 122.509Q114.013 123.089 114.013 124.064L114.013 129.455L112.756 129.455L112.756 128.347L112.692 128.347Q112.564 128.613 112.266 128.917Q111.967 129.22 111.472 129.433Q110.977 129.646 110.263 129.646ZM116.314 121.273L116.314 132.523L117.571 132.523L117.571 128.197L117.678 128.197Q117.816 128.421 118.072 128.759Q118.327 129.098 118.801 129.361Q119.276 129.625 120.064 129.625Q121.087 129.625 121.87 129.106Q122.653 128.586 123.095 127.635Q123.537 126.685 123.537 125.385Q123.537 124.096 123.095 123.148Q122.653 122.2 121.864 121.683Q121.076 121.166 120.043 121.166Q119.244 121.166 118.778 121.43Q118.311 121.694 118.064 122.026Q117.816 122.359 117.678 122.572L117.528 122.572L117.528 121.273L116.314 121.273ZM139.419 129.1Q140.273 129.625 141.456 129.625Q142.702 129.625 143.565 129.055Q144.428 128.485 144.716 127.558L143.501 127.217Q143.262 127.857 142.729 128.176Q142.196 128.496 141.456 128.496Q140.348 128.496 139.648 127.798Q138.947 127.1 138.904 125.79L144.844 125.79L144.844 125.257Q144.844 124.112 144.54 123.329Q144.237 122.546 143.725 122.069Q143.214 121.592 142.591 121.379Q141.967 121.166 141.328 121.166Q140.22 121.166 139.392 121.707Q138.564 122.248 138.103 123.209Q137.642 124.17 137.642 125.428Q137.642 126.685 138.103 127.63Q138.564 128.576 139.419 129.1ZM149.169 129.646Q148.391 129.646 147.757 129.351Q147.124 129.055 146.751 128.493Q146.378 127.931 146.378 127.132Q146.378 126.429 146.655 125.99Q146.932 125.55 147.395 125.3Q147.859 125.049 148.421 124.924Q148.983 124.799 149.553 124.724Q150.298 124.629 150.764 124.578Q151.23 124.527 151.446 124.405Q151.662 124.282 151.662 123.979L151.662 123.936Q151.662 123.148 151.233 122.711Q150.804 122.274 149.936 122.274Q149.036 122.274 148.525 122.668Q148.013 123.063 147.805 123.51L146.612 123.084Q146.932 122.338 147.467 121.92Q148.003 121.502 148.639 121.334Q149.276 121.166 149.893 121.166Q150.288 121.166 150.802 121.259Q151.316 121.353 151.798 121.64Q152.28 121.928 152.599 122.509Q152.919 123.089 152.919 124.064L152.919 129.455L151.662 129.455L151.662 128.347L151.598 128.347Q151.47 128.613 151.172 128.917Q150.874 129.22 150.378 129.433Q149.883 129.646 149.169 129.646ZM39.8651 129.455L39.8651 121.273L41.1222 121.273L41.1222 129.455L39.8651 129.455ZM130.483 132.523Q130.163 132.523 129.913 132.472Q129.663 132.422 129.567 132.374L129.886 131.266Q130.344 131.383 130.696 131.351Q131.048 131.319 131.322 131.039Q131.596 130.76 131.825 130.136L132.06 129.497L129.034 121.273L130.398 121.273L132.656 127.793L132.741 127.793L135 121.273L136.364 121.273L132.891 130.648Q132.193 132.523 130.483 132.523ZM68.9702 128.064Q68.4268 128.496 67.5852 128.496Q66.7436 128.496 66.2003 128.064Q65.657 127.633 65.396 126.93Q65.1349 126.227 65.1349 125.406Q65.1349 124.586 65.396 123.877Q65.657 123.169 66.2003 122.732Q66.7436 122.295 67.5852 122.295Q68.4268 122.295 68.9702 122.732Q69.5135 123.169 69.7745 123.877Q70.0355 124.586 70.0355 125.406Q70.0355 126.227 69.7745 126.93Q69.5135 127.633 68.9702 128.064ZM104.659 124.703L99.9982 124.703Q100.041 124.069 100.344 123.518Q100.648 122.967 101.175 122.631Q101.703 122.295 102.422 122.295Q103.445 122.295 104.052 122.98Q104.659 123.664 104.659 124.703ZM118.154 127.625Q117.55 126.754 117.55 125.364Q117.55 123.989 118.146 123.142Q118.743 122.295 119.893 122.295Q120.692 122.295 121.222 122.703Q121.752 123.11 122.016 123.806Q122.28 124.501 122.28 125.364Q122.28 126.237 122.011 126.948Q121.742 127.659 121.212 128.078Q120.682 128.496 119.893 128.496Q118.759 128.496 118.154 127.625ZM143.565 124.703L138.904 124.703Q138.947 124.069 139.251 123.518Q139.554 122.967 140.082 122.631Q140.609 122.295 141.328 122.295Q142.351 122.295 142.958 122.98Q143.565 123.664 143.565 124.703ZM86.7427 128.224Q86.2287 128.517 85.483 128.517Q84.7319 128.517 84.2445 128.184Q83.7571 127.851 83.7571 127.196Q83.7571 126.717 84.0154 126.437Q84.2738 126.157 84.6973 126.016Q85.1207 125.875 85.6108 125.811Q85.8132 125.784 86.1408 125.744Q86.4684 125.705 86.8173 125.649Q87.1662 125.593 87.4352 125.515Q87.7042 125.438 87.7841 125.342L87.7841 126.493Q87.7841 127.004 87.5204 127.468Q87.2567 127.931 86.7427 128.224ZM110.455 128.517Q111.2 128.517 111.714 128.224Q112.228 127.931 112.492 127.468Q112.756 127.004 112.756 126.493L112.756 125.342Q112.676 125.438 112.407 125.515Q112.138 125.593 111.789 125.649Q111.44 125.705 111.112 125.744Q110.785 125.784 110.582 125.811Q110.092 125.875 109.669 126.016Q109.245 126.157 108.987 126.437Q108.729 126.717 108.729 127.196Q108.729 127.851 109.216 128.184Q109.703 128.517 110.455 128.517ZM149.361 128.517Q150.107 128.517 150.621 128.224Q151.135 127.931 151.398 127.468Q151.662 127.004 151.662 126.493L151.662 125.342Q151.582 125.438 151.313 125.515Q151.044 125.593 150.695 125.649Q150.346 125.705 150.019 125.744Q149.691 125.784 149.489 125.811Q148.999 125.875 148.575 126.016Q148.152 126.157 147.893 126.437Q147.635 126.717 147.635 127.196Q147.635 127.851 148.122 128.184Q148.61 128.517 149.361 128.517Z" />
        </g>
      </g>
    </g>
  </g>
</svg>