<?xml version="1.0" encoding="utf-8"?>
<svg width="375px" height="282px" viewBox="0 0 375 282" version="1.1" xmlns:xlink="http://www.w3.org/1999/xlink" xmlns="http://www.w3.org/2000/svg">
  <g id="Group-98">
    <g id="Group-95">
      <path d="M0 0L307.09 0L375 0L375 282L0 282L0 0Z" id="Rectangle-14" fill="#FFFFFF" fill-rule="evenodd" stroke="none" />
      <g id="Group-94" transform="translate(13 11.000122)">
        <g id="JavaScript-program-to-find-the">
          <g id="JavaScript-program-to-find-the-greatest-among-">
            <path d="M166.832 40.2727L166.832 41.3381L165 41.3381L165 48.4545L163.743 48.4545L163.743 41.3381L162.422 41.3381L162.422 40.2727L163.743 40.2727L163.743 39.1435Q163.743 38.4403 164.073 37.9716Q164.403 37.5028 164.931 37.2685Q165.458 37.0341 166.044 37.0341Q166.507 37.0341 166.8 37.1087Q167.093 37.1832 167.237 37.2472L166.875 38.3338Q166.779 38.3018 166.611 38.2539Q166.444 38.206 166.172 38.206Q165.549 38.206 165.274 38.5202Q165 38.8345 165 39.4418L165 40.2727L166.832 40.2727ZM58.7216 38.9091Q58.354 38.9091 58.0904 38.6587Q57.8267 38.4084 57.8267 38.0568Q57.8267 37.7053 58.0904 37.4549Q58.354 37.2045 58.7216 37.2045Q59.0891 37.2045 59.3528 37.4549Q59.6165 37.7053 59.6165 38.0568Q59.6165 38.4084 59.3528 38.6587Q59.0891 38.9091 58.7216 38.9091ZM168.609 38.6587Q168.873 38.9091 169.24 38.9091Q169.608 38.9091 169.871 38.6587Q170.135 38.4084 170.135 38.0568Q170.135 37.7053 169.871 37.4549Q169.608 37.2045 169.24 37.2045Q168.873 37.2045 168.609 37.4549Q168.345 37.7053 168.345 38.0568Q168.345 38.4084 168.609 38.6587ZM39.9183 39.0156Q40.6001 39.4631 40.696 40.2727L41.9744 40.2727Q41.9478 39.4471 41.4657 38.7972Q40.9837 38.1474 40.1633 37.7718Q39.343 37.3963 38.2883 37.3963Q37.2443 37.3963 36.4 37.7772Q35.5558 38.158 35.0577 38.8425Q34.5597 39.527 34.5597 40.4432Q34.5597 41.5458 35.3054 42.2276Q36.0511 42.9094 37.3295 43.277L38.6719 43.6605Q39.2472 43.8203 39.7425 44.0334Q40.2379 44.2464 40.5415 44.5874Q40.8452 44.9283 40.8452 45.4716Q40.8452 46.0682 40.4936 46.513Q40.142 46.9577 39.5401 47.2054Q38.9382 47.4531 38.1818 47.4531Q37.532 47.4531 36.97 47.2587Q36.408 47.0643 36.0431 46.6621Q35.6783 46.2599 35.625 45.642L34.2614 45.642Q34.3572 46.9844 35.3906 47.8153Q36.424 48.6463 38.1818 48.6463Q39.4389 48.6463 40.3205 48.2255Q41.2021 47.8047 41.6628 47.0909Q42.1236 46.3771 42.1236 45.4929Q42.1236 44.7258 41.8093 44.1985Q41.495 43.6712 41.013 43.3329Q40.5309 42.9947 40.0062 42.7976Q39.4815 42.6005 39.0554 42.4886L37.9474 42.1903Q37.5426 42.0838 37.0499 41.8841Q36.5572 41.6843 36.1976 41.3247Q35.8381 40.9652 35.8381 40.3793Q35.8381 39.5962 36.4986 39.0822Q37.1591 38.5682 38.2457 38.5682Q39.2365 38.5682 39.9183 39.0156ZM5.49716 37.5455L6.81818 37.5455L6.81818 45.3438Q6.81818 46.9151 5.9739 47.7594Q5.12962 48.6037 3.70739 48.6037Q2.8125 48.6037 2.1147 48.2761Q1.4169 47.9485 1.0174 47.3413Q0.617898 46.734 0.617898 45.8977L1.91761 45.8977Q1.91761 46.5902 2.42365 47.011Q2.92969 47.4318 3.70739 47.4318Q4.56499 47.4318 5.03107 46.8965Q5.49716 46.3611 5.49716 45.3438L5.49716 37.5455ZM182.221 48.1056Q183.004 48.625 184.027 48.625Q184.815 48.625 185.289 48.3613Q185.764 48.0977 186.019 47.7594Q186.275 47.4212 186.413 47.1974L186.563 47.1974L186.563 48.4545L187.777 48.4545L187.777 37.5455L186.52 37.5455L186.52 41.5724L186.413 41.5724Q186.275 41.3594 186.027 41.0265Q185.779 40.6935 185.313 40.4299Q184.847 40.1662 184.048 40.1662Q183.015 40.1662 182.227 40.6829Q181.438 41.1996 180.996 42.1477Q180.554 43.0959 180.554 44.3849Q180.554 45.6847 180.996 46.6355Q181.438 47.5863 182.221 48.1056ZM201.179 48.4545L201.179 43.5327Q201.179 42.462 201.789 41.8787Q202.399 41.2955 203.331 41.2955Q204.221 41.2955 204.724 41.8308Q205.227 42.3661 205.227 43.3409L205.227 48.4545L206.484 48.4545L206.484 43.2557Q206.484 41.679 205.717 40.9226Q204.95 40.1662 203.693 40.1662Q202.729 40.1662 202.151 40.5417Q201.573 40.9173 201.286 41.5511L201.179 41.5511L201.179 37.5455L199.922 37.5455L199.922 48.4545L201.179 48.4545ZM74.3395 40.2727L74.3395 41.3381L72.5923 41.3381L72.5923 46.1108Q72.5923 46.6435 72.7495 46.9071Q72.9066 47.1708 73.1543 47.2587Q73.402 47.3466 73.679 47.3466Q73.8867 47.3466 74.0199 47.3226Q74.153 47.2986 74.2329 47.2827L74.4886 48.4119Q74.3608 48.4599 74.1317 48.5105Q73.9027 48.5611 73.5511 48.5611Q73.0185 48.5611 72.5098 48.332Q72.0011 48.103 71.6681 47.6342Q71.3352 47.1655 71.3352 46.4517L71.3352 41.3381L70.0994 41.3381L70.0994 40.2727L71.3352 40.2727L71.3352 38.3125L72.5923 38.3125L72.5923 40.2727L74.3395 40.2727ZM148.125 40.2727L148.125 41.3381L146.378 41.3381L146.378 46.1108Q146.378 46.6435 146.535 46.9071Q146.692 47.1708 146.94 47.2587Q147.188 47.3466 147.464 47.3466Q147.672 47.3466 147.805 47.3226Q147.939 47.2986 148.018 47.2827L148.274 48.4119Q148.146 48.4599 147.917 48.5105Q147.688 48.5611 147.337 48.5611Q146.804 48.5611 146.295 48.332Q145.787 48.103 145.454 47.6342Q145.121 47.1655 145.121 46.4517L145.121 41.3381L143.885 41.3381L143.885 40.2727L145.121 40.2727L145.121 38.3125L146.378 38.3125L146.378 40.2727L148.125 40.2727ZM198.026 40.2727L198.026 41.3381L196.278 41.3381L196.278 46.1108Q196.278 46.6435 196.436 46.9071Q196.593 47.1708 196.84 47.2587Q197.088 47.3466 197.365 47.3466Q197.573 47.3466 197.706 47.3226Q197.839 47.2986 197.919 47.2827L198.175 48.4119Q198.047 48.4599 197.818 48.5105Q197.589 48.5611 197.237 48.5611Q196.705 48.5611 196.196 48.332Q195.687 48.103 195.354 47.6342Q195.021 47.1655 195.021 46.4517L195.021 41.3381L193.786 41.3381L193.786 40.2727L195.021 40.2727L195.021 38.3125L196.278 38.3125L196.278 40.2727L198.026 40.2727ZM257.216 41.3381L257.216 40.2727L255.469 40.2727L255.469 38.3125L254.212 38.3125L254.212 40.2727L252.976 40.2727L252.976 41.3381L254.212 41.3381L254.212 46.4517Q254.212 47.1655 254.545 47.6342Q254.877 48.103 255.386 48.332Q255.895 48.5611 256.428 48.5611Q256.779 48.5611 257.008 48.5105Q257.237 48.4599 257.365 48.4119L257.109 47.2827Q257.029 47.2986 256.896 47.3226Q256.763 47.3466 256.555 47.3466Q256.278 47.3466 256.031 47.2587Q255.783 47.1708 255.626 46.9071Q255.469 46.6435 255.469 46.1108L255.469 41.3381L257.216 41.3381ZM279.247 40.2727L279.247 41.3381L277.5 41.3381L277.5 46.1108Q277.5 46.6435 277.657 46.9071Q277.814 47.1708 278.062 47.2587Q278.31 47.3466 278.587 47.3466Q278.794 47.3466 278.928 47.3226Q279.061 47.2986 279.141 47.2827L279.396 48.4119Q279.268 48.4599 279.039 48.5105Q278.81 48.5611 278.459 48.5611Q277.926 48.5611 277.417 48.332Q276.909 48.103 276.576 47.6342Q276.243 47.1655 276.243 46.4517L276.243 41.3381L275.007 41.3381L275.007 40.2727L276.243 40.2727L276.243 38.3125L277.5 38.3125L277.5 40.2727L279.247 40.2727ZM53.7145 40.2727L52.5 40.2727L52.5 48.4545L53.7571 48.4545L53.7571 43.277Q53.7571 42.446 54.343 41.9027Q54.929 41.3594 55.8239 41.3594Q56.0742 41.3594 56.3006 41.394Q56.527 41.4286 56.5909 41.4446L56.5909 40.1662Q56.4844 40.1555 56.2766 40.1502Q56.0689 40.1449 55.9304 40.1449Q55.1953 40.1449 54.6094 40.5231Q54.0234 40.9013 53.7997 41.5085L53.7145 41.5085L53.7145 40.2727ZM89.5952 40.2727L90.8097 40.2727L90.8097 41.5085L90.8949 41.5085Q91.1186 40.9013 91.7045 40.5231Q92.2905 40.1449 93.0256 40.1449Q93.1641 40.1449 93.3718 40.1502Q93.5795 40.1555 93.6861 40.1662L93.6861 41.4446Q93.6222 41.4286 93.3958 41.394Q93.1694 41.3594 92.919 41.3594Q92.0241 41.3594 91.4382 41.9027Q90.8523 42.446 90.8523 43.277L90.8523 48.4545L89.5952 48.4545L89.5952 40.2727ZM114.482 40.2727L113.267 40.2727L113.267 48.4545L114.524 48.4545L114.524 43.277Q114.524 42.446 115.11 41.9027Q115.696 41.3594 116.591 41.3594Q116.841 41.3594 117.068 41.394Q117.294 41.4286 117.358 41.4446L117.358 40.1662Q117.251 40.1555 117.044 40.1502Q116.836 40.1449 116.697 40.1449Q115.962 40.1449 115.376 40.5231Q114.79 40.9013 114.567 41.5085L114.482 41.5085L114.482 40.2727ZM230.881 40.2727L232.095 40.2727L232.095 41.5085L232.18 41.5085Q232.404 40.9013 232.99 40.5231Q233.576 40.1449 234.311 40.1449Q234.45 40.1449 234.657 40.1502Q234.865 40.1555 234.972 40.1662L234.972 41.4446Q234.908 41.4286 234.681 41.394Q234.455 41.3594 234.205 41.3594Q233.31 41.3594 232.724 41.9027Q232.138 42.446 232.138 43.277L232.138 48.4545L230.881 48.4545L230.881 40.2727ZM11.6974 48.6463Q10.9197 48.6463 10.2859 48.3507Q9.65199 48.055 9.27912 47.4931Q8.90625 46.9311 8.90625 46.1321Q8.90625 45.429 9.18324 44.9895Q9.46023 44.5501 9.92365 44.2997Q10.3871 44.0494 10.949 43.9242Q11.511 43.799 12.081 43.7244Q12.8267 43.6286 13.2928 43.5779Q13.7589 43.5273 13.9746 43.4048Q14.1903 43.2823 14.1903 42.9787L14.1903 42.9361Q14.1903 42.1477 13.7615 41.7109Q13.3327 41.2741 12.4645 41.2741Q11.5643 41.2741 11.0529 41.6683Q10.5415 42.0625 10.3338 42.5099L9.14063 42.0838Q9.46023 41.3381 9.99556 40.9199Q10.5309 40.5018 11.1674 40.334Q11.804 40.1662 12.4219 40.1662Q12.8161 40.1662 13.3301 40.2594Q13.8441 40.3526 14.3262 40.6403Q14.8082 40.9279 15.1278 41.5085Q15.4474 42.0891 15.4474 43.0639L15.4474 48.4545L14.1903 48.4545L14.1903 47.3466L14.1264 47.3466Q13.9986 47.6129 13.7003 47.9165Q13.402 48.2202 12.9066 48.4332Q12.4112 48.6463 11.6974 48.6463ZM28.5085 48.6463Q27.7308 48.6463 27.0969 48.3507Q26.4631 48.055 26.0902 47.4931Q25.7173 46.9311 25.7173 46.1321Q25.7173 45.429 25.9943 44.9895Q26.2713 44.5501 26.7347 44.2997Q27.1982 44.0494 27.7601 43.9242Q28.3221 43.799 28.892 43.7244Q29.6378 43.6286 30.1039 43.5779Q30.57 43.5273 30.7857 43.4048Q31.0014 43.2823 31.0014 42.9787L31.0014 42.9361Q31.0014 42.1477 30.5726 41.7109Q30.1438 41.2741 29.2756 41.2741Q28.3754 41.2741 27.864 41.6683Q27.3526 42.0625 27.1449 42.5099L25.9517 42.0838Q26.2713 41.3381 26.8066 40.9199Q27.342 40.5018 27.9785 40.334Q28.6151 40.1662 29.233 40.1662Q29.6271 40.1662 30.1412 40.2594Q30.6552 40.3526 31.1373 40.6403Q31.6193 40.9279 31.9389 41.5085Q32.2585 42.0891 32.2585 43.0639L32.2585 48.4545L31.0014 48.4545L31.0014 47.3466L30.9375 47.3466Q30.8097 47.6129 30.5114 47.9165Q30.2131 48.2202 29.7177 48.4332Q29.2223 48.6463 28.5085 48.6463ZM47.4503 48.625Q46.2997 48.625 45.4687 48.0817Q44.6378 47.5383 44.1903 46.5849Q43.7429 45.6314 43.7429 44.4063Q43.7429 43.1598 44.2037 42.2037Q44.6644 41.2475 45.4927 40.7069Q46.321 40.1662 47.429 40.1662Q48.2919 40.1662 48.9844 40.4858Q49.6768 40.8054 50.119 41.3807Q50.5611 41.956 50.6676 42.723L49.4105 42.723Q49.2667 42.1637 48.774 41.7296Q48.2812 41.2955 47.4503 41.2955Q46.3477 41.2955 45.6738 42.1344Q45 42.9734 45 44.3636Q45 45.7859 45.6658 46.6408Q46.3317 47.4957 47.4503 47.4957Q48.1854 47.4957 48.71 47.1175Q49.2347 46.7393 49.4105 46.0682L50.6676 46.0682Q50.5611 46.7926 50.1429 47.3706Q49.7248 47.9485 49.0403 48.2868Q48.3558 48.625 47.4503 48.625ZM61.6406 40.2727L61.6406 51.5227L62.8977 51.5227L62.8977 47.1974L63.0043 47.1974Q63.1428 47.4212 63.3984 47.7594Q63.6541 48.0977 64.1282 48.3613Q64.6023 48.625 65.3906 48.625Q66.4134 48.625 67.1964 48.1056Q67.9794 47.5863 68.4215 46.6355Q68.8636 45.6847 68.8636 44.3849Q68.8636 43.0959 68.4215 42.1477Q67.9794 41.1996 67.191 40.6829Q66.4027 40.1662 65.3693 40.1662Q64.5703 40.1662 64.1042 40.4299Q63.6381 40.6935 63.3904 41.0265Q63.1428 41.3594 63.0043 41.5724L62.8551 41.5724L62.8551 40.2727L61.6406 40.2727ZM80.4545 40.2727L80.4545 51.5227L81.7116 51.5227L81.7116 47.1974L81.8182 47.1974Q81.9567 47.4212 82.2123 47.7594Q82.468 48.0977 82.9421 48.3613Q83.4162 48.625 84.2045 48.625Q85.2273 48.625 86.0103 48.1056Q86.7933 47.5863 87.2354 46.6355Q87.6776 45.6847 87.6776 44.3849Q87.6776 43.0959 87.2354 42.1477Q86.7933 41.1996 86.005 40.6829Q85.2166 40.1662 84.1832 40.1662Q83.3842 40.1662 82.9181 40.4299Q82.452 40.6935 82.2044 41.0265Q81.9567 41.3594 81.8182 41.5724L81.669 41.5724L81.669 40.2727L80.4545 40.2727ZM96.5598 48.0977Q97.3935 48.625 98.5014 48.625Q99.6094 48.625 100.443 48.0977Q101.277 47.5703 101.743 46.6222Q102.209 45.674 102.209 44.4063Q102.209 43.1278 101.743 42.1744Q101.277 41.2209 100.443 40.6935Q99.6094 40.1662 98.5014 40.1662Q97.3935 40.1662 96.5598 40.6935Q95.7262 41.2209 95.2601 42.1744Q94.794 43.1278 94.794 44.4063Q94.794 45.674 95.2601 46.6222Q95.7262 47.5703 96.5598 48.0977ZM107.429 51.6932Q106.06 51.6932 105.264 51.1951Q104.467 50.6971 104.084 50.0526L105.085 49.3494Q105.256 49.5732 105.517 49.8635Q105.778 50.1538 106.233 50.3695Q106.689 50.5852 107.429 50.5852Q108.42 50.5852 109.064 50.1058Q109.709 49.6264 109.709 48.6037L109.709 46.9418L109.602 46.9418Q109.464 47.1655 109.211 47.4931Q108.958 47.8207 108.486 48.0737Q108.015 48.3267 107.216 48.3267Q106.225 48.3267 105.439 47.858Q104.654 47.3892 104.198 46.4943Q103.743 45.5994 103.743 44.321Q103.743 43.0639 104.185 42.1291Q104.627 41.1942 105.415 40.6802Q106.204 40.1662 107.237 40.1662Q108.036 40.1662 108.508 40.4299Q108.979 40.6935 109.232 41.0265Q109.485 41.3594 109.624 41.5724L109.751 41.5724L109.751 40.2727L110.966 40.2727L110.966 48.6889Q110.966 49.7436 110.489 50.4068Q110.012 51.07 109.211 51.3816Q108.409 51.6932 107.429 51.6932ZM121.257 48.6463Q120.479 48.6463 119.846 48.3507Q119.212 48.055 118.839 47.4931Q118.466 46.9311 118.466 46.1321Q118.466 45.429 118.743 44.9895Q119.02 44.5501 119.483 44.2997Q119.947 44.0494 120.509 43.9242Q121.071 43.799 121.641 43.7244Q122.386 43.6286 122.852 43.5779Q123.319 43.5273 123.534 43.4048Q123.75 43.2823 123.75 42.9787L123.75 42.9361Q123.75 42.1477 123.321 41.7109Q122.892 41.2741 122.024 41.2741Q121.124 41.2741 120.613 41.6683Q120.101 42.0625 119.893 42.5099L118.7 42.0838Q119.02 41.3381 119.555 40.9199Q120.091 40.5018 120.727 40.334Q121.364 40.1662 121.982 40.1662Q122.376 40.1662 122.89 40.2594Q123.404 40.3526 123.886 40.6403Q124.368 40.9279 124.688 41.5085Q125.007 42.0891 125.007 43.0639L125.007 48.4545L123.75 48.4545L123.75 47.3466L123.686 47.3466Q123.558 47.6129 123.26 47.9165Q122.962 48.2202 122.466 48.4332Q121.971 48.6463 121.257 48.6463ZM128.523 40.2727L127.308 40.2727L127.308 48.4545L128.565 48.4545L128.565 43.3409Q128.565 42.739 128.824 42.2782Q129.082 41.8175 129.506 41.5565Q129.929 41.2955 130.419 41.2955Q131.133 41.2955 131.586 41.7243Q132.038 42.1531 132.038 42.8508L132.038 48.4545L133.317 48.4545L133.317 43.1278Q133.317 42.3342 133.791 41.8148Q134.265 41.2955 135.128 41.2955Q135.799 41.2955 136.294 41.6843Q136.79 42.0732 136.79 42.9787L136.79 48.4545L138.047 48.4545L138.047 42.9787Q138.047 41.5352 137.349 40.8507Q136.651 40.1662 135.554 40.1662Q134.675 40.1662 134.047 40.5417Q133.418 40.9173 133.104 41.5511L133.018 41.5511Q132.715 40.896 132.174 40.5311Q131.634 40.1662 130.824 40.1662Q130.025 40.1662 129.455 40.5311Q128.885 40.896 128.629 41.5511L128.523 41.5511L128.523 40.2727ZM151.404 48.0977Q152.237 48.625 153.345 48.625Q154.453 48.625 155.287 48.0977Q156.12 47.5703 156.586 46.6222Q157.053 45.674 157.053 44.4063Q157.053 43.1278 156.586 42.1744Q156.12 41.2209 155.287 40.6935Q154.453 40.1662 153.345 40.1662Q152.237 40.1662 151.404 40.6935Q150.57 41.2209 150.104 42.1744Q149.638 43.1278 149.638 44.4063Q149.638 45.674 150.104 46.6222Q150.57 47.5703 151.404 48.0977ZM173.416 43.5327L173.416 48.4545L172.159 48.4545L172.159 40.2727L173.374 40.2727L173.374 41.5511L173.48 41.5511Q173.768 40.9279 174.354 40.5471Q174.94 40.1662 175.866 40.1662Q177.108 40.1662 177.872 40.9279Q178.636 41.6896 178.636 43.2557L178.636 48.4545L177.379 48.4545L177.379 43.3409Q177.379 42.3768 176.879 41.8361Q176.378 41.2955 175.504 41.2955Q174.604 41.2955 174.01 41.8787Q173.416 42.462 173.416 43.5327ZM212.216 48.625Q211.033 48.625 210.178 48.1003Q209.324 47.5756 208.863 46.6301Q208.402 45.6847 208.402 44.4276Q208.402 43.1705 208.863 42.209Q209.324 41.2475 210.152 40.7069Q210.98 40.1662 212.088 40.1662Q212.727 40.1662 213.351 40.3793Q213.974 40.5923 214.485 41.0691Q214.996 41.5458 215.3 42.3288Q215.604 43.1119 215.604 44.2571L215.604 44.7898L209.664 44.7898Q209.707 46.1001 210.408 46.7979Q211.108 47.4957 212.216 47.4957Q212.956 47.4957 213.489 47.1761Q214.022 46.8565 214.261 46.2173L215.476 46.5582Q215.188 47.4851 214.325 48.055Q213.462 48.625 212.216 48.625ZM222.877 51.1951Q223.674 51.6932 225.043 51.6932Q226.023 51.6932 226.824 51.3816Q227.626 51.07 228.103 50.4068Q228.58 49.7436 228.58 48.6889L228.58 40.2727L227.365 40.2727L227.365 41.5724L227.237 41.5724Q227.099 41.3594 226.846 41.0265Q226.593 40.6935 226.121 40.4299Q225.65 40.1662 224.851 40.1662Q223.817 40.1662 223.029 40.6802Q222.241 41.1942 221.799 42.1291Q221.357 43.0639 221.357 44.321Q221.357 45.5994 221.812 46.4943Q222.267 47.3892 223.053 47.858Q223.839 48.3267 224.83 48.3267Q225.629 48.3267 226.1 48.0737Q226.571 47.8207 226.824 47.4931Q227.077 47.1655 227.216 46.9418L227.322 46.9418L227.322 48.6037Q227.322 49.6264 226.678 50.1058Q226.033 50.5852 225.043 50.5852Q224.302 50.5852 223.847 50.3695Q223.391 50.1538 223.13 49.8635Q222.869 49.5732 222.699 49.3494L221.697 50.0526Q222.081 50.6971 222.877 51.1951ZM237.856 48.1003Q238.711 48.625 239.893 48.625Q241.14 48.625 242.003 48.055Q242.866 47.4851 243.153 46.5582L241.939 46.2173Q241.699 46.8565 241.167 47.1761Q240.634 47.4957 239.893 47.4957Q238.786 47.4957 238.085 46.7979Q237.385 46.1001 237.342 44.7898L243.281 44.7898L243.281 44.2571Q243.281 43.1119 242.978 42.3288Q242.674 41.5458 242.163 41.0691Q241.651 40.5923 241.028 40.3793Q240.405 40.1662 239.766 40.1662Q238.658 40.1662 237.829 40.7069Q237.001 41.2475 236.54 42.209Q236.08 43.1705 236.08 44.4276Q236.08 45.6847 236.54 46.6301Q237.001 47.5756 237.856 48.1003ZM247.607 48.6463Q246.829 48.6463 246.195 48.3507Q245.561 48.055 245.188 47.4931Q244.815 46.9311 244.815 46.1321Q244.815 45.429 245.092 44.9895Q245.369 44.5501 245.833 44.2997Q246.296 44.0494 246.858 43.9242Q247.42 43.799 247.99 43.7244Q248.736 43.6286 249.202 43.5779Q249.668 43.5273 249.884 43.4048Q250.099 43.2823 250.099 42.9787L250.099 42.9361Q250.099 42.1477 249.671 41.7109Q249.242 41.2741 248.374 41.2741Q247.473 41.2741 246.962 41.6683Q246.451 42.0625 246.243 42.5099L245.05 42.0838Q245.369 41.3381 245.905 40.9199Q246.44 40.5018 247.077 40.334Q247.713 40.1662 248.331 40.1662Q248.725 40.1662 249.239 40.2594Q249.753 40.3526 250.235 40.6403Q250.717 40.9279 251.037 41.5085Q251.357 42.0891 251.357 43.0639L251.357 48.4545L250.099 48.4545L250.099 47.3466L250.036 47.3466Q249.908 47.6129 249.609 47.9165Q249.311 48.2202 248.816 48.4332Q248.32 48.6463 247.607 48.6463ZM262.543 48.625Q261.36 48.625 260.505 48.1003Q259.65 47.5756 259.189 46.6301Q258.729 45.6847 258.729 44.4276Q258.729 43.1705 259.189 42.209Q259.65 41.2475 260.479 40.7069Q261.307 40.1662 262.415 40.1662Q263.054 40.1662 263.677 40.3793Q264.3 40.5923 264.812 41.0691Q265.323 41.5458 265.627 42.3288Q265.93 43.1119 265.93 44.2571L265.93 44.7898L259.991 44.7898Q260.034 46.1001 260.734 46.7979Q261.435 47.4957 262.543 47.4957Q263.283 47.4957 263.816 47.1761Q264.348 46.8565 264.588 46.2173L265.803 46.5582Q265.515 47.4851 264.652 48.055Q263.789 48.625 262.543 48.625ZM272.514 42.4247L273.643 42.1051Q273.35 41.2315 272.655 40.6989Q271.96 40.1662 270.746 40.1662Q269.883 40.1662 269.204 40.4698Q268.525 40.7734 268.133 41.3061Q267.741 41.8388 267.741 42.5313Q267.741 43.3782 268.266 43.9402Q268.791 44.5021 269.915 44.7685L271.278 45.0881Q272.493 45.3704 272.493 46.2386Q272.493 46.766 271.974 47.1415Q271.454 47.517 270.575 47.517Q269.015 47.517 268.679 46.196L267.486 46.4943Q267.704 47.5383 268.525 48.0817Q269.345 48.625 270.597 48.625Q271.55 48.625 272.269 48.3054Q272.988 47.9858 273.39 47.4318Q273.793 46.8778 273.793 46.1747Q273.793 44.4915 271.619 43.9588L270.405 43.6605Q269.68 43.4794 269.34 43.2077Q268.999 42.9361 268.999 42.4673Q268.999 41.94 269.497 41.5964Q269.995 41.2528 270.746 41.2528Q271.571 41.2528 271.96 41.6257Q272.349 41.9986 272.514 42.4247ZM286.358 48.3507Q286.992 48.6463 287.77 48.6463Q288.484 48.6463 288.979 48.4332Q289.474 48.2202 289.773 47.9165Q290.071 47.6129 290.199 47.3466L290.263 47.3466L290.263 48.4545L291.52 48.4545L291.52 43.0639Q291.52 42.0891 291.2 41.5085Q290.881 40.9279 290.399 40.6403Q289.917 40.3526 289.403 40.2594Q288.889 40.1662 288.494 40.1662Q287.876 40.1662 287.24 40.334Q286.603 40.5018 286.068 40.9199Q285.533 41.3381 285.213 42.0838L286.406 42.5099Q286.614 42.0625 287.125 41.6683Q287.637 41.2741 288.537 41.2741Q289.405 41.2741 289.834 41.7109Q290.263 42.1477 290.263 42.9361L290.263 42.9787Q290.263 43.2823 290.047 43.4048Q289.831 43.5273 289.365 43.5779Q288.899 43.6286 288.153 43.7244Q287.583 43.799 287.022 43.9242Q286.46 44.0494 285.996 44.2997Q285.533 44.5501 285.256 44.9895Q284.979 45.429 284.979 46.1321Q284.979 46.9311 285.352 47.4931Q285.724 48.055 286.358 48.3507ZM293.821 40.2727L295.036 40.2727L295.036 41.5511L295.142 41.5511Q295.398 40.896 295.968 40.5311Q296.538 40.1662 297.337 40.1662Q298.146 40.1662 298.687 40.5311Q299.228 40.896 299.531 41.5511L299.616 41.5511Q299.931 40.9173 300.559 40.5417Q301.188 40.1662 302.067 40.1662Q303.164 40.1662 303.862 40.8507Q304.56 41.5352 304.56 42.9787L304.56 48.4545L303.303 48.4545L303.303 42.9787Q303.303 42.0732 302.807 41.6843Q302.312 41.2955 301.641 41.2955Q300.778 41.2955 300.304 41.8148Q299.83 42.3342 299.83 43.1278L299.83 48.4545L298.551 48.4545L298.551 42.8508Q298.551 42.1531 298.098 41.7243Q297.646 41.2955 296.932 41.2955Q296.442 41.2955 296.018 41.5565Q295.595 41.8175 295.336 42.2782Q295.078 42.739 295.078 43.3409L295.078 48.4545L293.821 48.4545L293.821 40.2727ZM308.243 48.0977Q309.077 48.625 310.185 48.625Q311.293 48.625 312.126 48.0977Q312.96 47.5703 313.426 46.6222Q313.892 45.674 313.892 44.4063Q313.892 43.1278 313.426 42.1744Q312.96 41.2209 312.126 40.6935Q311.293 40.1662 310.185 40.1662Q309.077 40.1662 308.243 40.6935Q307.409 41.2209 306.943 42.1744Q306.477 43.1278 306.477 44.4063Q306.477 45.674 306.943 46.6222Q307.409 47.5703 308.243 48.0977ZM317.067 43.5327L317.067 48.4545L315.81 48.4545L315.81 40.2727L317.024 40.2727L317.024 41.5511L317.131 41.5511Q317.418 40.9279 318.004 40.5471Q318.59 40.1662 319.517 40.1662Q320.758 40.1662 321.523 40.9279Q322.287 41.6896 322.287 43.2557L322.287 48.4545L321.03 48.4545L321.03 43.3409Q321.03 42.3768 320.529 41.8361Q320.028 41.2955 319.155 41.2955Q318.255 41.2955 317.661 41.8787Q317.067 42.462 317.067 43.5327ZM325.725 51.1951Q326.522 51.6932 327.891 51.6932Q328.871 51.6932 329.672 51.3816Q330.474 51.07 330.951 50.4068Q331.428 49.7436 331.428 48.6889L331.428 40.2727L330.213 40.2727L330.213 41.5724L330.085 41.5724Q329.947 41.3594 329.694 41.0265Q329.441 40.6935 328.969 40.4299Q328.498 40.1662 327.699 40.1662Q326.665 40.1662 325.877 40.6802Q325.089 41.1942 324.647 42.1291Q324.205 43.0639 324.205 44.321Q324.205 45.5994 324.66 46.4943Q325.115 47.3892 325.901 47.858Q326.687 48.3267 327.678 48.3267Q328.477 48.3267 328.948 48.0737Q329.419 47.8207 329.672 47.4931Q329.925 47.1655 330.064 46.9418L330.17 46.9418L330.17 48.6037Q330.17 49.6264 329.526 50.1058Q328.881 50.5852 327.891 50.5852Q327.15 50.5852 326.695 50.3695Q326.239 50.1538 325.978 49.8635Q325.717 49.5732 325.547 49.3494L324.545 50.0526Q324.929 50.6971 325.725 51.1951ZM21.4134 48.4545L24.4389 40.2727L23.0753 40.2727L20.8168 46.7926L20.7315 46.7926L18.473 40.2727L17.1094 40.2727L20.1349 48.4545L21.4134 48.4545ZM58.0824 40.2727L59.3395 40.2727L59.3395 48.4545L58.0824 48.4545L58.0824 40.2727ZM169.858 40.2727L168.601 40.2727L168.601 48.4545L169.858 48.4545L169.858 40.2727ZM63.481 46.6248Q62.8764 45.7539 62.8764 44.3636Q62.8764 42.9893 63.473 42.1424Q64.0696 41.2955 65.2202 41.2955Q66.0192 41.2955 66.5492 41.7029Q67.0792 42.1104 67.3429 42.8056Q67.6065 43.5007 67.6065 44.3636Q67.6065 45.2372 67.3375 45.9483Q67.0685 46.6594 66.5385 47.0776Q66.0085 47.4957 65.2202 47.4957Q64.0856 47.4957 63.481 46.6248ZM82.2949 46.6248Q81.6903 45.7539 81.6903 44.3636Q81.6903 42.9893 82.2869 42.1424Q82.8835 41.2955 84.0341 41.2955Q84.8331 41.2955 85.3631 41.7029Q85.8931 42.1104 86.1568 42.8056Q86.4204 43.5007 86.4204 44.3636Q86.4204 45.2372 86.1515 45.9483Q85.8824 46.6594 85.3524 47.0776Q84.8224 47.4957 84.0341 47.4957Q82.8995 47.4957 82.2949 46.6248ZM99.8864 47.0643Q99.343 47.4957 98.5014 47.4957Q97.6598 47.4957 97.1165 47.0643Q96.5732 46.6328 96.3121 45.9297Q96.0511 45.2266 96.0511 44.4063Q96.0511 43.5859 96.3121 42.8775Q96.5732 42.169 97.1165 41.7322Q97.6598 41.2955 98.5014 41.2955Q99.343 41.2955 99.8864 41.7322Q100.43 42.169 100.691 42.8775Q100.952 43.5859 100.952 44.4063Q100.952 45.2266 100.691 45.9297Q100.43 46.6328 99.8864 47.0643ZM107.386 47.1974Q108.521 47.1974 109.126 46.4277Q109.73 45.658 109.73 44.2997Q109.73 42.9734 109.134 42.1344Q108.537 41.2955 107.386 41.2955Q106.587 41.2955 106.057 41.7003Q105.527 42.1051 105.264 42.7869Q105 43.4688 105 44.2997Q105 45.5781 105.602 46.3878Q106.204 47.1974 107.386 47.1974ZM154.73 47.0643Q154.187 47.4957 153.345 47.4957Q152.504 47.4957 151.96 47.0643Q151.417 46.6328 151.156 45.9297Q150.895 45.2266 150.895 44.4063Q150.895 43.5859 151.156 42.8775Q151.417 42.169 151.96 41.7322Q152.504 41.2955 153.345 41.2955Q154.187 41.2955 154.73 41.7322Q155.273 42.169 155.534 42.8775Q155.795 43.5859 155.795 44.4063Q155.795 45.2266 155.534 45.9297Q155.273 46.6328 154.73 47.0643ZM185.937 46.6248Q185.332 47.4957 184.197 47.4957Q183.409 47.4957 182.879 47.0776Q182.349 46.6594 182.08 45.9483Q181.811 45.2372 181.811 44.3636Q181.811 43.5007 182.075 42.8056Q182.338 42.1104 182.868 41.7029Q183.398 41.2955 184.197 41.2955Q185.348 41.2955 185.945 42.1424Q186.541 42.9893 186.541 44.3636Q186.541 45.7539 185.937 46.6248ZM209.664 43.7031L214.325 43.7031Q214.325 42.6644 213.718 41.9799Q213.111 41.2955 212.088 41.2955Q211.369 41.2955 210.842 41.631Q210.314 41.9666 210.011 42.5179Q209.707 43.0692 209.664 43.7031ZM226.739 46.4277Q226.135 47.1974 225 47.1974Q223.817 47.1974 223.216 46.3878Q222.614 45.5781 222.614 44.2997Q222.614 43.4688 222.877 42.7869Q223.141 42.1051 223.671 41.7003Q224.201 41.2955 225 41.2955Q226.151 41.2955 226.747 42.1344Q227.344 42.9734 227.344 44.2997Q227.344 45.658 226.739 46.4277ZM242.003 43.7031L237.342 43.7031Q237.385 43.0692 237.688 42.5179Q237.992 41.9666 238.519 41.631Q239.047 41.2955 239.766 41.2955Q240.788 41.2955 241.396 41.9799Q242.003 42.6644 242.003 43.7031ZM259.991 43.7031L264.652 43.7031Q264.652 42.6644 264.045 41.9799Q263.438 41.2955 262.415 41.2955Q261.696 41.2955 261.168 41.631Q260.641 41.9666 260.337 42.5179Q260.034 43.0692 259.991 43.7031ZM311.57 47.0643Q311.026 47.4957 310.185 47.4957Q309.343 47.4957 308.8 47.0643Q308.256 46.6328 307.995 45.9297Q307.734 45.2266 307.734 44.4063Q307.734 43.5859 307.995 42.8775Q308.256 42.169 308.8 41.7322Q309.343 41.2955 310.185 41.2955Q311.026 41.2955 311.57 41.7322Q312.113 42.169 312.374 42.8775Q312.635 43.5859 312.635 44.4063Q312.635 45.2266 312.374 45.9297Q312.113 46.6328 311.57 47.0643ZM329.587 46.4277Q328.983 47.1974 327.848 47.1974Q326.665 47.1974 326.064 46.3878Q325.462 45.5781 325.462 44.2997Q325.462 43.4688 325.725 42.7869Q325.989 42.1051 326.519 41.7003Q327.049 41.2955 327.848 41.2955Q328.999 41.2955 329.595 42.1344Q330.192 42.9734 330.192 44.2997Q330.192 45.658 329.587 46.4277ZM11.8892 47.517Q12.6349 47.517 13.149 47.2241Q13.663 46.9311 13.9267 46.4677Q14.1903 46.0043 14.1903 45.4929L14.1903 44.3423Q14.1104 44.4382 13.8414 44.5154Q13.5724 44.5927 13.2235 44.6486Q12.8746 44.7045 12.5471 44.7445Q12.2195 44.7844 12.017 44.8111Q11.527 44.875 11.1035 45.0162Q10.68 45.1573 10.4217 45.437Q10.1634 45.7166 10.1634 46.196Q10.1634 46.8512 10.6507 47.1841Q11.1381 47.517 11.8892 47.517ZM28.7003 47.517Q29.446 47.517 29.96 47.2241Q30.4741 46.9311 30.7377 46.4677Q31.0014 46.0043 31.0014 45.4929L31.0014 44.3423Q30.9215 44.4382 30.6525 44.5154Q30.3835 44.5927 30.0346 44.6486Q29.6857 44.7045 29.3581 44.7445Q29.0305 44.7844 28.8281 44.8111Q28.3381 44.875 27.9146 45.0162Q27.4911 45.1573 27.2328 45.437Q26.9744 45.7166 26.9744 46.196Q26.9744 46.8512 27.4618 47.1841Q27.9492 47.517 28.7003 47.517ZM121.449 47.517Q122.195 47.517 122.709 47.2241Q123.223 46.9311 123.486 46.4677Q123.75 46.0043 123.75 45.4929L123.75 44.3423Q123.67 44.4382 123.401 44.5154Q123.132 44.5927 122.783 44.6486Q122.434 44.7045 122.107 44.7445Q121.779 44.7844 121.577 44.8111Q121.087 44.875 120.663 45.0162Q120.24 45.1573 119.981 45.437Q119.723 45.7166 119.723 46.196Q119.723 46.8512 120.21 47.1841Q120.698 47.517 121.449 47.517ZM247.798 47.517Q248.544 47.517 249.058 47.2241Q249.572 46.9311 249.836 46.4677Q250.099 46.0043 250.099 45.4929L250.099 44.3423Q250.02 44.4382 249.751 44.5154Q249.482 44.5927 249.133 44.6486Q248.784 44.7045 248.456 44.7445Q248.129 44.7844 247.926 44.8111Q247.436 44.875 247.013 45.0162Q246.589 45.1573 246.331 45.437Q246.072 45.7166 246.072 46.196Q246.072 46.8512 246.56 47.1841Q247.047 47.517 247.798 47.517ZM289.221 47.2241Q288.707 47.517 287.962 47.517Q287.211 47.517 286.723 47.1841Q286.236 46.8512 286.236 46.196Q286.236 45.7166 286.494 45.437Q286.753 45.1573 287.176 45.0162Q287.599 44.875 288.09 44.8111Q288.292 44.7844 288.62 44.7445Q288.947 44.7045 289.296 44.6486Q289.645 44.5927 289.914 44.5154Q290.183 44.4382 290.263 44.3423L290.263 45.4929Q290.263 46.0043 289.999 46.4677Q289.735 46.9311 289.221 47.2241Z" />
          </g>
          <g id="three-numbers.-Display-the-greater-number-with-">
            <path d="M124.517 56.9091Q124.15 56.9091 123.886 56.6587Q123.622 56.4084 123.622 56.0568Q123.622 55.7053 123.886 55.4549Q124.15 55.2045 124.517 55.2045Q124.885 55.2045 125.148 55.4549Q125.412 55.7053 125.412 56.0568Q125.412 56.4084 125.148 56.6587Q124.885 56.9091 124.517 56.9091ZM322.764 56.6587Q323.027 56.9091 323.395 56.9091Q323.762 56.9091 324.026 56.6587Q324.29 56.4084 324.29 56.0568Q324.29 55.7053 324.026 55.4549Q323.762 55.2045 323.395 55.2045Q323.027 55.2045 322.764 55.4549Q322.5 55.7053 322.5 56.0568Q322.5 56.4084 322.764 56.6587ZM7.86222 66.4545L7.86222 61.5327Q7.86222 60.462 8.47212 59.8787Q9.08203 59.2955 10.0142 59.2955Q10.9038 59.2955 11.4071 59.8308Q11.9105 60.3661 11.9105 61.3409L11.9105 66.4545L13.1676 66.4545L13.1676 61.2557Q13.1676 59.679 12.4006 58.9226Q11.6335 58.1662 10.3764 58.1662Q9.41229 58.1662 8.83434 58.5417Q8.25639 58.9173 7.96875 59.5511L7.86222 59.5511L7.86222 55.5455L6.60511 55.5455L6.60511 66.4545L7.86222 66.4545ZM73.4446 66.4545L73.4446 55.5455L74.7017 55.5455L74.7017 59.5724L74.8082 59.5724Q74.9467 59.3594 75.1944 59.0265Q75.4421 58.6935 75.9082 58.4299Q76.3743 58.1662 77.1733 58.1662Q78.2067 58.1662 78.995 58.6829Q79.7834 59.1996 80.2255 60.1477Q80.6676 61.0959 80.6676 62.3849Q80.6676 63.6847 80.2255 64.6355Q79.7834 65.5863 79.0004 66.1056Q78.2173 66.625 77.1946 66.625Q76.4063 66.625 75.9322 66.3613Q75.4581 66.0977 75.2024 65.7594Q74.9467 65.4212 74.8082 65.1974L74.6591 65.1974L74.6591 66.4545L73.4446 66.4545ZM113.267 66.4545L116.634 66.4545Q118.295 66.4545 119.457 65.7967Q120.618 65.1388 121.225 63.911Q121.832 62.6832 121.832 60.9787Q121.832 59.2848 121.23 58.0676Q120.629 56.8505 119.499 56.198Q118.37 55.5455 116.783 55.5455L113.267 55.5455L113.267 66.4545ZM145.675 66.4545L145.675 55.5455L144.418 55.5455L144.418 66.4545L145.675 66.4545ZM175.717 66.4545L175.717 61.5327Q175.717 60.462 176.327 59.8787Q176.937 59.2955 177.869 59.2955Q178.759 59.2955 179.262 59.8308Q179.766 60.3661 179.766 61.3409L179.766 66.4545L181.023 66.4545L181.023 61.2557Q181.023 59.679 180.256 58.9226Q179.489 58.1662 178.232 58.1662Q177.267 58.1662 176.689 58.5417Q176.112 58.9173 175.824 59.5511L175.717 59.5511L175.717 55.5455L174.46 55.5455L174.46 66.4545L175.717 66.4545ZM282.891 55.5455L282.891 66.4545L284.105 66.4545L284.105 65.1974L284.254 65.1974Q284.393 65.4212 284.648 65.7594Q284.904 66.0977 285.378 66.3613Q285.852 66.625 286.641 66.625Q287.663 66.625 288.446 66.1056Q289.229 65.5863 289.671 64.6355Q290.114 63.6847 290.114 62.3849Q290.114 61.0959 289.671 60.1477Q289.229 59.1996 288.441 58.6829Q287.653 58.1662 286.619 58.1662Q285.82 58.1662 285.354 58.4299Q284.888 58.6935 284.64 59.0265Q284.393 59.3594 284.254 59.5724L284.148 59.5724L284.148 55.5455L282.891 55.5455ZM333.026 66.4545L333.026 61.5327Q333.026 60.462 333.635 59.8787Q334.245 59.2955 335.178 59.2955Q336.067 59.2955 336.57 59.8308Q337.074 60.3661 337.074 61.3409L337.074 66.4545L338.331 66.4545L338.331 61.2557Q338.331 59.679 337.564 58.9226Q336.797 58.1662 335.54 58.1662Q334.576 58.1662 333.998 58.5417Q333.42 58.9173 333.132 59.5511L333.026 59.5511L333.026 55.5455L331.768 55.5455L331.768 66.4545L333.026 66.4545ZM4.70881 59.3381L4.70881 58.2727L2.96165 58.2727L2.96165 56.3125L1.70455 56.3125L1.70455 58.2727L0.46875 58.2727L0.46875 59.3381L1.70455 59.3381L1.70455 64.4517Q1.70455 65.1655 2.03746 65.6342Q2.37038 66.103 2.87908 66.332Q3.38778 66.5611 3.92045 66.5611Q4.27202 66.5611 4.50107 66.5105Q4.73011 66.4599 4.85795 66.4119L4.60227 65.2827Q4.52237 65.2987 4.3892 65.3226Q4.25604 65.3466 4.0483 65.3466Q3.77131 65.3466 3.52362 65.2587Q3.27592 65.1708 3.11879 64.9071Q2.96165 64.6435 2.96165 64.1108L2.96165 59.3381L4.70881 59.3381ZM172.564 58.2727L172.564 59.3381L170.817 59.3381L170.817 64.1108Q170.817 64.6435 170.974 64.9071Q171.131 65.1708 171.379 65.2587Q171.626 65.3466 171.903 65.3466Q172.111 65.3466 172.244 65.3226Q172.377 65.2987 172.457 65.2827L172.713 66.4119Q172.585 66.4599 172.356 66.5105Q172.127 66.5611 171.776 66.5611Q171.243 66.5611 170.734 66.332Q170.225 66.103 169.893 65.6342Q169.56 65.1655 169.56 64.4517L169.56 59.3381L168.324 59.3381L168.324 58.2727L169.56 58.2727L169.56 56.3125L170.817 56.3125L170.817 58.2727L172.564 58.2727ZM231.754 59.3381L231.754 58.2727L230.007 58.2727L230.007 56.3125L228.75 56.3125L228.75 58.2727L227.514 58.2727L227.514 59.3381L228.75 59.3381L228.75 64.4517Q228.75 65.1655 229.083 65.6342Q229.416 66.103 229.925 66.332Q230.433 66.5611 230.966 66.5611Q231.317 66.5611 231.547 66.5105Q231.776 66.4599 231.903 66.4119L231.648 65.2827Q231.568 65.2987 231.435 65.3226Q231.301 65.3466 231.094 65.3466Q230.817 65.3466 230.569 65.2587Q230.321 65.1708 230.164 64.9071Q230.007 64.6435 230.007 64.1108L230.007 59.3381L231.754 59.3381ZM329.872 58.2727L329.872 59.3381L328.125 59.3381L328.125 64.1108Q328.125 64.6435 328.282 64.9071Q328.439 65.1708 328.687 65.2587Q328.935 65.3466 329.212 65.3466Q329.419 65.3466 329.552 65.3226Q329.686 65.2987 329.766 65.2827L330.021 66.4119Q329.893 66.4599 329.664 66.5105Q329.435 66.5611 329.084 66.5611Q328.551 66.5611 328.042 66.332Q327.534 66.103 327.201 65.6342Q326.868 65.1655 326.868 64.4517L326.868 59.3381L325.632 59.3381L325.632 58.2727L326.868 58.2727L326.868 56.3125L328.125 56.3125L328.125 58.2727L329.872 58.2727ZM116.548 65.2827L114.588 65.2827L114.588 56.7173L116.697 56.7173Q118.615 56.7173 119.585 57.8572Q120.554 58.9972 120.554 60.9787Q120.554 62.9762 119.566 64.1294Q118.578 65.2827 116.548 65.2827ZM15.4688 66.4545L15.4688 58.2727L16.6832 58.2727L16.6832 59.5085L16.7685 59.5085Q16.9922 58.9013 17.5781 58.5231Q18.1641 58.1449 18.8991 58.1449Q19.0376 58.1449 19.2454 58.1502Q19.4531 58.1555 19.5597 58.1662L19.5597 59.4446Q19.4957 59.4286 19.2694 59.394Q19.043 59.3594 18.7926 59.3594Q17.8977 59.3594 17.3118 59.9027Q16.7259 60.446 16.7259 61.277L16.7259 66.4545L15.4688 66.4545ZM91.321 58.2727L92.5355 58.2727L92.5355 59.5085L92.6207 59.5085Q92.8445 58.9013 93.4304 58.5231Q94.0163 58.1449 94.7514 58.1449Q94.8899 58.1449 95.0977 58.1502Q95.3054 58.1555 95.4119 58.1662L95.4119 59.4446Q95.348 59.4286 95.1216 59.394Q94.8952 59.3594 94.6449 59.3594Q93.75 59.3594 93.1641 59.9027Q92.5781 60.446 92.5781 61.277L92.5781 66.4545L91.321 66.4545L91.321 58.2727ZM205.419 58.2727L206.634 58.2727L206.634 59.5085L206.719 59.5085Q206.942 58.9013 207.528 58.5231Q208.114 58.1449 208.849 58.1449Q208.988 58.1449 209.196 58.1502Q209.403 58.1555 209.51 58.1662L209.51 59.4446Q209.446 59.4286 209.22 59.394Q208.993 59.3594 208.743 59.3594Q207.848 59.3594 207.262 59.9027Q206.676 60.446 206.676 61.277L206.676 66.4545L205.419 66.4545L205.419 58.2727ZM243.601 58.2727L242.386 58.2727L242.386 66.4545L243.643 66.4545L243.643 61.277Q243.643 60.446 244.229 59.9027Q244.815 59.3594 245.71 59.3594Q245.961 59.3594 246.187 59.394Q246.413 59.4286 246.477 59.4446L246.477 58.1662Q246.371 58.1555 246.163 58.1502Q245.955 58.1449 245.817 58.1449Q245.082 58.1449 244.496 58.5231Q243.91 58.9013 243.686 59.5085L243.601 59.5085L243.601 58.2727ZM301.981 58.2727L300.767 58.2727L300.767 66.4545L302.024 66.4545L302.024 61.277Q302.024 60.446 302.61 59.9027Q303.196 59.3594 304.091 59.3594Q304.341 59.3594 304.568 59.394Q304.794 59.4286 304.858 59.4446L304.858 58.1662Q304.751 58.1555 304.544 58.1502Q304.336 58.1449 304.197 58.1449Q303.462 58.1449 302.876 58.5231Q302.29 58.9013 302.067 59.5085L301.981 59.5085L301.981 58.2727ZM22.4441 66.1003Q23.299 66.625 24.4815 66.625Q25.728 66.625 26.5909 66.055Q27.4538 65.4851 27.7415 64.5582L26.527 64.2173Q26.2873 64.8565 25.7546 65.1761Q25.2219 65.4957 24.4815 65.4957Q23.3736 65.4957 22.6731 64.7979Q21.9727 64.1001 21.93 62.7898L27.8693 62.7898L27.8693 62.2571Q27.8693 61.1119 27.5657 60.3288Q27.2621 59.5458 26.7507 59.0691Q26.2393 58.5923 25.6161 58.3793Q24.9929 58.1662 24.3537 58.1662Q23.2457 58.1662 22.4174 58.7069Q21.5891 59.2475 21.1284 60.209Q20.6676 61.1705 20.6676 62.4276Q20.6676 63.6847 21.1284 64.6301Q21.5891 65.5756 22.4441 66.1003ZM33.2173 66.625Q32.0348 66.625 31.1799 66.1003Q30.3249 65.5756 29.8642 64.6301Q29.4034 63.6847 29.4034 62.4276Q29.4034 61.1705 29.8642 60.209Q30.3249 59.2475 31.1532 58.7069Q31.9815 58.1662 33.0895 58.1662Q33.7287 58.1662 34.3519 58.3793Q34.9751 58.5923 35.4865 59.0691Q35.9979 59.5458 36.3015 60.3288Q36.6051 61.1119 36.6051 62.2571L36.6051 62.7898L30.6658 62.7898Q30.7085 64.1001 31.4089 64.7979Q32.1094 65.4957 33.2173 65.4957Q33.9577 65.4957 34.4904 65.1761Q35.0231 64.8565 35.2628 64.2173L36.4773 64.5582Q36.1896 65.4851 35.3267 66.055Q34.4638 66.625 33.2173 66.625ZM43.9986 66.4545L43.9986 61.5327Q43.9986 60.462 44.5925 59.8787Q45.1864 59.2955 46.0866 59.2955Q46.9602 59.2955 47.4609 59.8361Q47.9616 60.3768 47.9616 61.3409L47.9616 66.4545L49.2188 66.4545L49.2188 61.2557Q49.2188 59.6896 48.4544 58.9279Q47.69 58.1662 46.4489 58.1662Q45.522 58.1662 44.9361 58.5471Q44.3501 58.9279 44.0625 59.5511L43.956 59.5511L43.956 58.2727L42.7415 58.2727L42.7415 66.4545L43.9986 66.4545ZM60.2344 58.2727L60.2344 66.4545L61.4915 66.4545L61.4915 61.3409Q61.4915 60.739 61.7498 60.2782Q62.0082 59.8175 62.4316 59.5565Q62.8551 59.2955 63.3452 59.2955Q64.0589 59.2955 64.5117 59.7243Q64.9645 60.1531 64.9645 60.8508L64.9645 66.4545L66.2429 66.4545L66.2429 61.1278Q66.2429 60.3342 66.717 59.8148Q67.191 59.2955 68.054 59.2955Q68.7251 59.2955 69.2205 59.6843Q69.7159 60.0732 69.7159 60.9787L69.7159 66.4545L70.973 66.4545L70.973 60.9787Q70.973 59.5352 70.2752 58.8507Q69.5774 58.1662 68.4801 58.1662Q67.6012 58.1662 66.9727 58.5417Q66.3441 58.9173 66.0298 59.5511L65.9446 59.5511Q65.641 58.896 65.1003 58.5311Q64.5597 58.1662 63.75 58.1662Q62.951 58.1662 62.381 58.5311Q61.8111 58.896 61.5554 59.5511L61.4489 59.5511L61.4489 58.2727L60.2344 58.2727ZM83.9782 66.1003Q84.8331 66.625 86.0156 66.625Q87.2621 66.625 88.125 66.055Q88.9879 65.4851 89.2756 64.5582L88.0611 64.2173Q87.8214 64.8565 87.2887 65.1761Q86.756 65.4957 86.0156 65.4957Q84.9077 65.4957 84.2072 64.7979Q83.5068 64.1001 83.4641 62.7898L89.4034 62.7898L89.4034 62.2571Q89.4034 61.1119 89.0998 60.3288Q88.7962 59.5458 88.2848 59.0691Q87.7734 58.5923 87.1502 58.3793Q86.527 58.1662 85.8878 58.1662Q84.7798 58.1662 83.9515 58.7069Q83.1232 59.2475 82.6625 60.209Q82.2017 61.1705 82.2017 62.4276Q82.2017 63.6847 82.6625 64.6301Q83.1232 65.5756 83.9782 66.1003ZM101.57 60.4247L102.699 60.1051Q102.406 59.2315 101.711 58.6989Q101.016 58.1662 99.8011 58.1662Q98.9382 58.1662 98.2591 58.4698Q97.5799 58.7734 97.1884 59.3061Q96.7969 59.8388 96.7969 60.5313Q96.7969 61.3782 97.3216 61.9402Q97.8462 62.5021 98.9702 62.7685L100.334 63.0881Q101.548 63.3704 101.548 64.2386Q101.548 64.766 101.029 65.1415Q100.51 65.517 99.6307 65.517Q98.07 65.517 97.7344 64.196L96.5412 64.4943Q96.7596 65.5384 97.5799 66.0817Q98.4002 66.625 99.652 66.625Q100.605 66.625 101.325 66.3054Q102.044 65.9858 102.446 65.4318Q102.848 64.8778 102.848 64.1747Q102.848 62.4915 100.675 61.9588L99.4602 61.6605Q98.7358 61.4794 98.3949 61.2077Q98.054 60.9361 98.054 60.4673Q98.054 59.94 98.552 59.5964Q99.0501 59.2528 99.8011 59.2528Q100.627 59.2528 101.016 59.6257Q101.404 59.9986 101.57 60.4247ZM132.102 60.4247L133.232 60.1051Q132.939 59.2315 132.243 58.6989Q131.548 58.1662 130.334 58.1662Q129.471 58.1662 128.792 58.4698Q128.113 58.7734 127.721 59.3061Q127.33 59.8388 127.33 60.5313Q127.33 61.3782 127.854 61.9402Q128.379 62.5021 129.503 62.7685L130.866 63.0881Q132.081 63.3704 132.081 64.2386Q132.081 64.766 131.562 65.1415Q131.042 65.517 130.163 65.517Q128.603 65.517 128.267 64.196L127.074 64.4943Q127.292 65.5384 128.113 66.0817Q128.933 66.625 130.185 66.625Q131.138 66.625 131.857 66.3054Q132.576 65.9858 132.979 65.4318Q133.381 64.8778 133.381 64.1747Q133.381 62.4915 131.207 61.9588L129.993 61.6605Q129.268 61.4794 128.928 61.2077Q128.587 60.9361 128.587 60.4673Q128.587 59.94 129.085 59.5964Q129.583 59.2528 130.334 59.2528Q131.159 59.2528 131.548 59.6257Q131.937 59.9986 132.102 60.4247ZM135.277 69.5227L135.277 58.2727L136.491 58.2727L136.491 59.5724L136.641 59.5724Q136.779 59.3594 137.027 59.0265Q137.275 58.6935 137.741 58.4299Q138.207 58.1662 139.006 58.1662Q140.039 58.1662 140.827 58.6829Q141.616 59.1996 142.058 60.1477Q142.5 61.0959 142.5 62.3849Q142.5 63.6847 142.058 64.6355Q141.616 65.5863 140.833 66.1056Q140.05 66.625 139.027 66.625Q138.239 66.625 137.765 66.3613Q137.29 66.0977 137.035 65.7594Q136.779 65.4212 136.641 65.1974L136.534 65.1974L136.534 69.5227L135.277 69.5227ZM150.384 66.6463Q149.606 66.6463 148.972 66.3507Q148.338 66.055 147.965 65.4931Q147.592 64.9311 147.592 64.1321Q147.592 63.429 147.869 62.9895Q148.146 62.5501 148.61 62.2997Q149.073 62.0494 149.635 61.9242Q150.197 61.799 150.767 61.7244Q151.513 61.6286 151.979 61.5779Q152.445 61.5273 152.661 61.4048Q152.876 61.2823 152.876 60.9787L152.876 60.9361Q152.876 60.1477 152.448 59.7109Q152.019 59.2741 151.151 59.2741Q150.25 59.2741 149.739 59.6683Q149.228 60.0625 149.02 60.5099L147.827 60.0838Q148.146 59.3381 148.682 58.9199Q149.217 58.5018 149.854 58.334Q150.49 58.1662 151.108 58.1662Q151.502 58.1662 152.016 58.2594Q152.53 58.3526 153.012 58.6403Q153.494 58.9279 153.814 59.5085Q154.134 60.0891 154.134 61.0639L154.134 66.4545L152.876 66.4545L152.876 65.3466L152.813 65.3466Q152.685 65.6129 152.386 65.9165Q152.088 66.2202 151.593 66.4332Q151.097 66.6463 150.384 66.6463ZM186.754 66.625Q185.572 66.625 184.717 66.1003Q183.862 65.5756 183.401 64.6301Q182.94 63.6847 182.94 62.4276Q182.94 61.1705 183.401 60.209Q183.862 59.2475 184.69 58.7069Q185.518 58.1662 186.626 58.1662Q187.266 58.1662 187.889 58.3793Q188.512 58.5923 189.023 59.0691Q189.535 59.5458 189.838 60.3288Q190.142 61.1119 190.142 62.2571L190.142 62.7898L184.203 62.7898Q184.245 64.1001 184.946 64.7979Q185.646 65.4957 186.754 65.4957Q187.495 65.4957 188.027 65.1761Q188.56 64.8565 188.8 64.2173L190.014 64.5582Q189.727 65.4851 188.864 66.055Q188.001 66.625 186.754 66.625ZM197.416 69.1951Q198.212 69.6932 199.581 69.6932Q200.561 69.6932 201.363 69.3816Q202.164 69.07 202.641 68.4068Q203.118 67.7436 203.118 66.6889L203.118 58.2727L201.903 58.2727L201.903 59.5724L201.776 59.5724Q201.637 59.3594 201.384 59.0265Q201.131 58.6935 200.66 58.4299Q200.188 58.1662 199.389 58.1662Q198.356 58.1662 197.567 58.6802Q196.779 59.1942 196.337 60.1291Q195.895 61.0639 195.895 62.321Q195.895 63.5994 196.35 64.4943Q196.806 65.3892 197.591 65.858Q198.377 66.3267 199.368 66.3267Q200.167 66.3267 200.638 66.0737Q201.11 65.8207 201.363 65.4931Q201.616 65.1655 201.754 64.9418L201.861 64.9418L201.861 66.6037Q201.861 67.6264 201.216 68.1058Q200.572 68.5852 199.581 68.5852Q198.841 68.5852 198.385 68.3695Q197.93 68.1538 197.669 67.8635Q197.408 67.5732 197.237 67.3494L196.236 68.0526Q196.619 68.6971 197.416 69.1951ZM212.394 66.1003Q213.249 66.625 214.432 66.625Q215.678 66.625 216.541 66.055Q217.404 65.4851 217.692 64.5582L216.477 64.2173Q216.238 64.8565 215.705 65.1761Q215.172 65.4957 214.432 65.4957Q213.324 65.4957 212.623 64.7979Q211.923 64.1001 211.88 62.7898L217.82 62.7898L217.82 62.2571Q217.82 61.1119 217.516 60.3288Q217.212 59.5458 216.701 59.0691Q216.19 58.5923 215.566 58.3793Q214.943 58.1662 214.304 58.1662Q213.196 58.1662 212.368 58.7069Q211.539 59.2475 211.079 60.209Q210.618 61.1705 210.618 62.4276Q210.618 63.6847 211.079 64.6301Q211.539 65.5756 212.394 66.1003ZM222.145 66.6463Q221.367 66.6463 220.733 66.3507Q220.099 66.055 219.727 65.4931Q219.354 64.9311 219.354 64.1321Q219.354 63.429 219.631 62.9895Q219.908 62.5501 220.371 62.2997Q220.835 62.0494 221.396 61.9242Q221.958 61.799 222.528 61.7244Q223.274 61.6286 223.74 61.5779Q224.206 61.5273 224.422 61.4048Q224.638 61.2823 224.638 60.9787L224.638 60.9361Q224.638 60.1477 224.209 59.7109Q223.78 59.2741 222.912 59.2741Q222.012 59.2741 221.5 59.6683Q220.989 60.0625 220.781 60.5099L219.588 60.0838Q219.908 59.3381 220.443 58.9199Q220.978 58.5018 221.615 58.334Q222.251 58.1662 222.869 58.1662Q223.263 58.1662 223.778 58.2594Q224.292 58.3526 224.774 58.6403Q225.256 58.9279 225.575 59.5085Q225.895 60.0891 225.895 61.0639L225.895 66.4545L224.638 66.4545L224.638 65.3466L224.574 65.3466Q224.446 65.6129 224.148 65.9165Q223.849 66.2202 223.354 66.4332Q222.859 66.6463 222.145 66.6463ZM237.081 66.625Q235.898 66.625 235.043 66.1003Q234.189 65.5756 233.728 64.6301Q233.267 63.6847 233.267 62.4276Q233.267 61.1705 233.728 60.209Q234.189 59.2475 235.017 58.7069Q235.845 58.1662 236.953 58.1662Q237.592 58.1662 238.216 58.3793Q238.839 58.5923 239.35 59.0691Q239.861 59.5458 240.165 60.3288Q240.469 61.1119 240.469 62.2571L240.469 62.7898L234.529 62.7898Q234.572 64.1001 235.273 64.7979Q235.973 65.4957 237.081 65.4957Q237.821 65.4957 238.354 65.1761Q238.887 64.8565 239.126 64.2173L240.341 64.5582Q240.053 65.4851 239.19 66.055Q238.327 66.625 237.081 66.625ZM253.445 61.5327L253.445 66.4545L252.187 66.4545L252.187 58.2727L253.402 58.2727L253.402 59.5511L253.508 59.5511Q253.796 58.9279 254.382 58.5471Q254.968 58.1662 255.895 58.1662Q257.136 58.1662 257.9 58.9279Q258.665 59.6896 258.665 61.2557L258.665 66.4545L257.408 66.4545L257.408 61.3409Q257.408 60.3768 256.907 59.8361Q256.406 59.2955 255.533 59.2955Q254.632 59.2955 254.039 59.8787Q253.445 60.462 253.445 61.5327ZM269.68 58.2727L270.895 58.2727L270.895 59.5511L271.001 59.5511Q271.257 58.896 271.827 58.5311Q272.397 58.1662 273.196 58.1662Q274.006 58.1662 274.546 58.5311Q275.087 58.896 275.391 59.5511L275.476 59.5511Q275.79 58.9173 276.419 58.5417Q277.047 58.1662 277.926 58.1662Q279.023 58.1662 279.721 58.8507Q280.419 59.5352 280.419 60.9787L280.419 66.4545L279.162 66.4545L279.162 60.9787Q279.162 60.0732 278.667 59.6843Q278.171 59.2955 277.5 59.2955Q276.637 59.2955 276.163 59.8148Q275.689 60.3342 275.689 61.1278L275.689 66.4545L274.41 66.4545L274.41 60.8508Q274.41 60.1531 273.958 59.7243Q273.505 59.2955 272.791 59.2955Q272.301 59.2955 271.878 59.5565Q271.454 59.8175 271.196 60.2782Q270.937 60.739 270.937 61.3409L270.937 66.4545L269.68 66.4545L269.68 58.2727ZM295.462 66.625Q294.279 66.625 293.424 66.1003Q292.569 65.5756 292.108 64.6301Q291.648 63.6847 291.648 62.4276Q291.648 61.1705 292.108 60.209Q292.569 59.2475 293.397 58.7069Q294.226 58.1662 295.334 58.1662Q295.973 58.1662 296.596 58.3793Q297.219 58.5923 297.731 59.0691Q298.242 59.5458 298.546 60.3288Q298.849 61.1119 298.849 62.2571L298.849 62.7898L292.91 62.7898Q292.953 64.1001 293.653 64.7979Q294.354 65.4957 295.462 65.4957Q296.202 65.4957 296.735 65.1761Q297.267 64.8565 297.507 64.2173L298.722 64.5582Q298.434 65.4851 297.571 66.055Q296.708 66.625 295.462 66.625ZM56.6761 63.1094L56.6761 58.2727L57.9332 58.2727L57.9332 66.4545L56.6761 66.4545L56.6761 65.0696L56.5909 65.0696Q56.3033 65.6928 55.696 66.127Q55.0888 66.5611 54.1619 66.5611Q53.0114 66.5611 52.2656 65.7994Q51.5199 65.0376 51.5199 63.4716L51.5199 58.2727L52.777 58.2727L52.777 63.3864Q52.777 64.2813 53.2804 64.8139Q53.7837 65.3466 54.5668 65.3466Q55.0355 65.3466 55.5229 65.1069Q56.0103 64.8672 56.3432 64.3718Q56.6761 63.8764 56.6761 63.1094ZM123.878 58.2727L125.135 58.2727L125.135 66.4545L123.878 66.4545L123.878 58.2727ZM156.674 69.4721Q156.925 69.5227 157.244 69.5227Q158.954 69.5227 159.652 67.6477L163.125 58.2727L161.761 58.2727L159.503 64.7926L159.418 64.7926L157.159 58.2727L155.795 58.2727L158.821 66.4972L158.587 67.1364Q158.358 67.7596 158.083 68.0392Q157.809 68.3189 157.457 68.3509Q157.106 68.3828 156.648 68.2656L156.328 69.3736Q156.424 69.4215 156.674 69.4721ZM266.122 58.2727L266.122 63.1094Q266.122 63.8764 265.789 64.3718Q265.456 64.8672 264.969 65.1069Q264.482 65.3466 264.013 65.3466Q263.23 65.3466 262.726 64.8139Q262.223 64.2813 262.223 63.3864L262.223 58.2727L260.966 58.2727L260.966 63.4716Q260.966 65.0376 261.712 65.7994Q262.457 66.5611 263.608 66.5611Q264.535 66.5611 265.142 66.127Q265.749 65.6928 266.037 65.0696L266.122 65.0696L266.122 66.4545L267.379 66.4545L267.379 58.2727L266.122 58.2727ZM309.929 58.2727L311.25 58.2727L313.018 64.5369L313.104 64.5369L314.851 58.2727L316.193 58.2727L317.919 64.5156L318.004 64.5156L319.773 58.2727L321.094 58.2727L318.601 66.4545L317.365 66.4545L315.575 60.169L315.447 60.169L313.658 66.4545L312.422 66.4545L309.929 58.2727ZM324.013 58.2727L322.756 58.2727L322.756 66.4545L324.013 66.4545L324.013 58.2727ZM26.5909 61.7031L21.93 61.7031Q21.9727 61.0692 22.2763 60.5179Q22.5799 59.9666 23.1072 59.631Q23.6346 59.2955 24.3537 59.2955Q25.3764 59.2955 25.9837 59.9799Q26.5909 60.6644 26.5909 61.7031ZM30.6658 61.7031L35.3267 61.7031Q35.3267 60.6644 34.7195 59.9799Q34.1122 59.2955 33.0895 59.2955Q32.3704 59.2955 31.843 59.631Q31.3157 59.9666 31.0121 60.5179Q30.7085 61.0692 30.6658 61.7031ZM74.6804 62.3636Q74.6804 63.7539 75.285 64.6248Q75.8896 65.4957 77.0241 65.4957Q77.8125 65.4957 78.3425 65.0776Q78.8725 64.6594 79.1415 63.9483Q79.4105 63.2372 79.4105 62.3636Q79.4105 61.5007 79.1468 60.8056Q78.8832 60.1104 78.3532 59.7029Q77.8232 59.2955 77.0241 59.2955Q75.8736 59.2955 75.277 60.1424Q74.6804 60.9893 74.6804 62.3636ZM88.125 61.7031L83.4641 61.7031Q83.5068 61.0692 83.8104 60.5179Q84.114 59.9666 84.6413 59.631Q85.1687 59.2955 85.8878 59.2955Q86.9105 59.2955 87.5178 59.9799Q88.125 60.6644 88.125 61.7031ZM136.513 62.3636Q136.513 63.7539 137.117 64.6248Q137.722 65.4957 138.857 65.4957Q139.645 65.4957 140.175 65.0776Q140.705 64.6594 140.974 63.9483Q141.243 63.2372 141.243 62.3636Q141.243 61.5007 140.979 60.8056Q140.716 60.1104 140.186 59.7029Q139.656 59.2955 138.857 59.2955Q137.706 59.2955 137.109 60.1424Q136.513 60.9893 136.513 62.3636ZM184.203 61.7031L188.864 61.7031Q188.864 60.6644 188.256 59.9799Q187.649 59.2955 186.626 59.2955Q185.907 59.2955 185.38 59.631Q184.853 59.9666 184.549 60.5179Q184.245 61.0692 184.203 61.7031ZM201.278 64.4277Q200.673 65.1974 199.538 65.1974Q198.356 65.1974 197.754 64.3878Q197.152 63.5781 197.152 62.2997Q197.152 61.4688 197.416 60.7869Q197.679 60.1051 198.209 59.7003Q198.739 59.2955 199.538 59.2955Q200.689 59.2955 201.286 60.1344Q201.882 60.9734 201.882 62.2997Q201.882 63.658 201.278 64.4277ZM216.541 61.7031L211.88 61.7031Q211.923 61.0692 212.227 60.5179Q212.53 59.9666 213.058 59.631Q213.585 59.2955 214.304 59.2955Q215.327 59.2955 215.934 59.9799Q216.541 60.6644 216.541 61.7031ZM234.529 61.7031L239.19 61.7031Q239.19 60.6644 238.583 59.9799Q237.976 59.2955 236.953 59.2955Q236.234 59.2955 235.707 59.631Q235.179 59.9666 234.876 60.5179Q234.572 61.0692 234.529 61.7031ZM284.731 64.6248Q284.126 63.7539 284.126 62.3636Q284.126 60.9893 284.723 60.1424Q285.32 59.2955 286.47 59.2955Q287.269 59.2955 287.799 59.7029Q288.329 60.1104 288.593 60.8056Q288.856 61.5007 288.856 62.3636Q288.856 63.2372 288.587 63.9483Q288.318 64.6594 287.788 65.0776Q287.258 65.4957 286.47 65.4957Q285.336 65.4957 284.731 64.6248ZM292.91 61.7031L297.571 61.7031Q297.571 60.6644 296.964 59.9799Q296.356 59.2955 295.334 59.2955Q294.615 59.2955 294.087 59.631Q293.56 59.9666 293.256 60.5179Q292.953 61.0692 292.91 61.7031ZM150.575 65.517Q151.321 65.517 151.835 65.2241Q152.349 64.9311 152.613 64.4677Q152.876 64.0043 152.876 63.4929L152.876 62.3423Q152.797 62.4382 152.528 62.5154Q152.259 62.5927 151.91 62.6486Q151.561 62.7045 151.233 62.7445Q150.906 62.7844 150.703 62.8111Q150.213 62.875 149.79 63.0162Q149.366 63.1573 149.108 63.437Q148.849 63.7166 148.849 64.196Q148.849 64.8512 149.337 65.1841Q149.824 65.517 150.575 65.517ZM222.337 65.517Q223.082 65.517 223.596 65.2241Q224.11 64.9311 224.374 64.4677Q224.638 64.0043 224.638 63.4929L224.638 62.3423Q224.558 62.4382 224.289 62.5154Q224.02 62.5927 223.671 62.6486Q223.322 62.7045 222.994 62.7445Q222.667 62.7844 222.464 62.8111Q221.974 62.875 221.551 63.0162Q221.127 63.1573 220.869 63.437Q220.611 63.7166 220.611 64.196Q220.611 64.8512 221.098 65.1841Q221.586 65.517 222.337 65.517ZM105.661 66.5398Q105.266 66.5398 104.984 66.2575Q104.702 65.9751 104.702 65.581Q104.702 65.1868 104.984 64.9045Q105.266 64.6222 105.661 64.6222Q106.055 64.6222 106.337 64.9045Q106.619 65.1868 106.619 65.581Q106.619 65.9751 106.337 66.2575Q106.055 66.5398 105.661 66.5398Z" />
          </g>
          <g id="appropriate-message-using-if-else.">
            <path d="M205.036 76.2727L205.036 77.3381L203.203 77.3381L203.203 84.4545L201.946 84.4545L201.946 77.3381L200.625 77.3381L200.625 76.2727L201.946 76.2727L201.946 75.1435Q201.946 74.4403 202.276 73.9716Q202.607 73.5028 203.134 73.2685Q203.661 73.0341 204.247 73.0341Q204.711 73.0341 205.004 73.1087Q205.297 73.1832 205.44 73.2472L205.078 74.3338Q204.982 74.3018 204.814 74.2539Q204.647 74.206 204.375 74.206Q203.752 74.206 203.477 74.5202Q203.203 74.8345 203.203 75.4418L203.203 76.2727L205.036 76.2727ZM57.1529 74.6587Q57.4165 74.9091 57.7841 74.9091Q58.1516 74.9091 58.4153 74.6587Q58.679 74.4084 58.679 74.0568Q58.679 73.7053 58.4153 73.4549Q58.1516 73.2045 57.7841 73.2045Q57.4165 73.2045 57.1529 73.4549Q56.8892 73.7053 56.8892 74.0568Q56.8892 74.4084 57.1529 74.6587ZM172.777 74.9091Q172.409 74.9091 172.146 74.6587Q171.882 74.4084 171.882 74.0568Q171.882 73.7053 172.146 73.4549Q172.409 73.2045 172.777 73.2045Q173.145 73.2045 173.408 73.4549Q173.672 73.7053 173.672 74.0568Q173.672 74.4084 173.408 74.6587Q173.145 74.9091 172.777 74.9091ZM197.842 74.6587Q198.105 74.9091 198.473 74.9091Q198.841 74.9091 199.104 74.6587Q199.368 74.4084 199.368 74.0568Q199.368 73.7053 199.104 73.4549Q198.841 73.2045 198.473 73.2045Q198.105 73.2045 197.842 73.4549Q197.578 73.7053 197.578 74.0568Q197.578 74.4084 197.842 74.6587ZM221.016 73.5455L221.016 84.4545L219.759 84.4545L219.759 73.5455L221.016 73.5455ZM72.7202 77.3381L72.7202 76.2727L70.973 76.2727L70.973 74.3125L69.7159 74.3125L69.7159 76.2727L68.4801 76.2727L68.4801 77.3381L69.7159 77.3381L69.7159 82.4517Q69.7159 83.1655 70.0488 83.6342Q70.3818 84.103 70.8904 84.332Q71.3992 84.5611 71.9318 84.5611Q72.2834 84.5611 72.5124 84.5105Q72.7415 84.4599 72.8693 84.4119L72.6136 83.2827Q72.5337 83.2987 72.4006 83.3226Q72.2674 83.3466 72.0597 83.3466Q71.7827 83.3466 71.535 83.2587Q71.2873 83.1708 71.1301 82.9071Q70.973 82.6435 70.973 82.1108L70.973 77.3381L72.7202 77.3381ZM29.1051 76.2727L27.8906 76.2727L27.8906 84.4545L29.1477 84.4545L29.1477 79.277Q29.1477 78.446 29.7337 77.9027Q30.3196 77.3594 31.2145 77.3594Q31.4648 77.3594 31.6912 77.394Q31.9176 77.4286 31.9815 77.4446L31.9815 76.1662Q31.875 76.1555 31.6673 76.1502Q31.4595 76.1449 31.321 76.1449Q30.5859 76.1449 30 76.5231Q29.4141 76.9013 29.1903 77.5085L29.1051 77.5085L29.1051 76.2727ZM51.5625 76.2727L52.777 76.2727L52.777 77.5085L52.8622 77.5085Q53.0859 76.9013 53.6719 76.5231Q54.2578 76.1449 54.9929 76.1449Q55.1314 76.1449 55.3391 76.1502Q55.5469 76.1555 55.6534 76.1662L55.6534 77.4446Q55.5895 77.4286 55.3631 77.394Q55.1367 77.3594 54.8864 77.3594Q53.9915 77.3594 53.4055 77.9027Q52.8196 78.446 52.8196 79.277L52.8196 84.4545L51.5625 84.4545L51.5625 76.2727ZM2.14666 84.3507Q2.78054 84.6463 3.55824 84.6463Q4.27202 84.6463 4.7674 84.4332Q5.26278 84.2202 5.56108 83.9165Q5.85938 83.6129 5.98722 83.3466L6.05114 83.3466L6.05114 84.4545L7.30824 84.4545L7.30824 79.0639Q7.30824 78.0891 6.98864 77.5085Q6.66903 76.9279 6.18697 76.6403Q5.7049 76.3526 5.19087 76.2594Q4.67685 76.1662 4.28267 76.1662Q3.66477 76.1662 3.02823 76.334Q2.39169 76.5018 1.85636 76.9199Q1.32102 77.3381 1.00142 78.0838L2.1946 78.5099Q2.40234 78.0625 2.91371 77.6683Q3.42507 77.2741 4.32528 77.2741Q5.19354 77.2741 5.62234 77.7109Q6.05114 78.1477 6.05114 78.9361L6.05114 78.9787Q6.05114 79.2823 5.8354 79.4048Q5.61967 79.5273 5.15359 79.5779Q4.6875 79.6285 3.94176 79.7244Q3.3718 79.799 2.80984 79.9242Q2.24787 80.0494 1.78445 80.2997Q1.32102 80.5501 1.04403 80.9895Q0.767045 81.429 0.767045 82.1321Q0.767045 82.9311 1.13991 83.4931Q1.51278 84.055 2.14666 84.3507ZM9.60938 76.2727L9.60938 87.5227L10.8665 87.5227L10.8665 83.1974L10.973 83.1974Q11.1115 83.4212 11.3672 83.7594Q11.6229 84.0977 12.0969 84.3613Q12.571 84.625 13.3594 84.625Q14.3821 84.625 15.1651 84.1056Q15.9482 83.5863 16.3903 82.6355Q16.8324 81.6847 16.8324 80.3849Q16.8324 79.0959 16.3903 78.1477Q15.9482 77.1996 15.1598 76.6829Q14.3714 76.1662 13.3381 76.1662Q12.5391 76.1662 12.073 76.4299Q11.6069 76.6935 11.3592 77.0265Q11.1115 77.3594 10.973 77.5724L10.8239 77.5724L10.8239 76.2727L9.60938 76.2727ZM18.75 87.5227L18.75 76.2727L19.9645 76.2727L19.9645 77.5724L20.1136 77.5724Q20.2521 77.3594 20.4998 77.0265Q20.7475 76.6935 21.2136 76.4299Q21.6797 76.1662 22.4787 76.1662Q23.5121 76.1662 24.3004 76.6829Q25.0888 77.1996 25.5309 78.1477Q25.973 79.0959 25.973 80.3849Q25.973 81.6847 25.5309 82.6355Q25.0888 83.5863 24.3058 84.1056Q23.5227 84.625 22.5 84.625Q21.7116 84.625 21.2376 84.3613Q20.7635 84.0977 20.5078 83.7594Q20.2521 83.4212 20.1136 83.1974L20.0071 83.1974L20.0071 87.5227L18.75 87.5227ZM36.7969 84.625Q35.6889 84.625 34.8553 84.0977Q34.0217 83.5703 33.5556 82.6222Q33.0895 81.674 33.0895 80.4063Q33.0895 79.1278 33.5556 78.1744Q34.0217 77.2209 34.8553 76.6935Q35.6889 76.1662 36.7969 76.1662Q37.9048 76.1662 38.7385 76.6935Q39.5721 77.2209 40.0382 78.1744Q40.5043 79.1278 40.5043 80.4063Q40.5043 81.674 40.0382 82.6222Q39.5721 83.5703 38.7385 84.0977Q37.9048 84.625 36.7969 84.625ZM42.4219 76.2727L42.4219 87.5227L43.679 87.5227L43.679 83.1974L43.7855 83.1974Q43.924 83.4212 44.1797 83.7594Q44.4354 84.0977 44.9094 84.3613Q45.3835 84.625 46.1719 84.625Q47.1946 84.625 47.9776 84.1056Q48.7607 83.5863 49.2028 82.6355Q49.6449 81.6847 49.6449 80.3849Q49.6449 79.0959 49.2028 78.1477Q48.7607 77.1996 47.9723 76.6829Q47.184 76.1662 46.1506 76.1662Q45.3516 76.1662 44.8855 76.4299Q44.4194 76.6935 44.1717 77.0265Q43.924 77.3594 43.7855 77.5724L43.6364 77.5724L43.6364 76.2727L42.4219 76.2727ZM63.1108 84.6463Q62.3331 84.6463 61.6992 84.3507Q61.0653 84.055 60.6925 83.4931Q60.3196 82.9311 60.3196 82.1321Q60.3196 81.429 60.5966 80.9895Q60.8736 80.5501 61.337 80.2997Q61.8004 80.0494 62.3624 79.9242Q62.9244 79.799 63.4943 79.7244Q64.2401 79.6285 64.7061 79.5779Q65.1722 79.5273 65.388 79.4048Q65.6037 79.2823 65.6037 78.9787L65.6037 78.9361Q65.6037 78.1477 65.1749 77.7109Q64.7461 77.2741 63.8778 77.2741Q62.9776 77.2741 62.4663 77.6683Q61.9549 78.0625 61.7472 78.5099L60.554 78.0838Q60.8736 77.3381 61.4089 76.9199Q61.9442 76.5018 62.5808 76.334Q63.2173 76.1662 63.8352 76.1662Q64.2294 76.1662 64.7434 76.2594Q65.2575 76.3526 65.7395 76.6403Q66.2216 76.9279 66.5412 77.5085Q66.8608 78.0891 66.8608 79.0639L66.8608 84.4545L65.6037 84.4545L65.6037 83.3466L65.5398 83.3466Q65.4119 83.6129 65.1136 83.9165Q64.8153 84.2202 64.32 84.4332Q63.8246 84.6463 63.1108 84.6463ZM78.0469 84.625Q76.8643 84.625 76.0094 84.1003Q75.1545 83.5756 74.6937 82.6301Q74.233 81.6847 74.233 80.4276Q74.233 79.1705 74.6937 78.209Q75.1545 77.2475 75.9828 76.7068Q76.8111 76.1662 77.919 76.1662Q78.5582 76.1662 79.1815 76.3793Q79.8047 76.5923 80.3161 77.0691Q80.8274 77.5458 81.131 78.3288Q81.4347 79.1119 81.4347 80.2571L81.4347 80.7898L75.4954 80.7898Q75.538 82.1001 76.2385 82.7979Q76.9389 83.4957 78.0469 83.4957Q78.7873 83.4957 79.32 83.1761Q79.8526 82.8565 80.0923 82.2173L81.3068 82.5582Q81.0192 83.4851 80.1563 84.055Q79.2933 84.625 78.0469 84.625ZM88.7855 76.2727L87.571 76.2727L87.571 84.4545L88.8281 84.4545L88.8281 79.3409Q88.8281 78.739 89.0865 78.2782Q89.3448 77.8175 89.7683 77.5565Q90.1918 77.2955 90.6818 77.2955Q91.3956 77.2955 91.8484 77.7243Q92.3011 78.1531 92.3011 78.8509L92.3011 84.4545L93.5795 84.4545L93.5795 79.1278Q93.5795 78.3342 94.0536 77.8148Q94.5277 77.2955 95.3906 77.2955Q96.0618 77.2955 96.5572 77.6843Q97.0526 78.0732 97.0526 78.9787L97.0526 84.4545L98.3097 84.4545L98.3097 78.9787Q98.3097 77.5352 97.6119 76.8507Q96.9141 76.1662 95.8168 76.1662Q94.9379 76.1662 94.3093 76.5417Q93.6808 76.9173 93.3665 77.5511L93.2813 77.5511Q92.9776 76.896 92.437 76.5311Q91.8963 76.1662 91.0866 76.1662Q90.2876 76.1662 89.7177 76.5311Q89.1477 76.896 88.892 77.5511L88.7855 77.5511L88.7855 76.2727ZM104.041 84.625Q102.859 84.625 102.004 84.1003Q101.149 83.5756 100.688 82.6301Q100.227 81.6847 100.227 80.4276Q100.227 79.1705 100.688 78.209Q101.149 77.2475 101.977 76.7068Q102.805 76.1662 103.913 76.1662Q104.553 76.1662 105.176 76.3793Q105.799 76.5923 106.31 77.0691Q106.822 77.5458 107.125 78.3288Q107.429 79.1119 107.429 80.2571L107.429 80.7898L101.49 80.7898Q101.532 82.1001 102.233 82.7979Q102.933 83.4957 104.041 83.4957Q104.782 83.4957 105.314 83.1761Q105.847 82.8565 106.087 82.2173L107.301 82.5582Q107.013 83.4851 106.151 84.055Q105.288 84.625 104.041 84.625ZM114.013 78.4247L115.142 78.1051Q114.849 77.2315 114.154 76.6989Q113.459 76.1662 112.244 76.1662Q111.381 76.1662 110.702 76.4698Q110.023 76.7734 109.632 77.3061Q109.24 77.8388 109.24 78.5313Q109.24 79.3782 109.765 79.9402Q110.289 80.5021 111.413 80.7685L112.777 81.0881Q113.991 81.3704 113.991 82.2386Q113.991 82.766 113.472 83.1415Q112.953 83.517 112.074 83.517Q110.513 83.517 110.178 82.196L108.984 82.4943Q109.203 83.5384 110.023 84.0817Q110.843 84.625 112.095 84.625Q113.049 84.625 113.768 84.3054Q114.487 83.9858 114.889 83.4318Q115.291 82.8778 115.291 82.1747Q115.291 80.4915 113.118 79.9588L111.903 79.6605Q111.179 79.4794 110.838 79.2077Q110.497 78.9361 110.497 78.4673Q110.497 77.94 110.995 77.5964Q111.493 77.2528 112.244 77.2528Q113.07 77.2528 113.459 77.6257Q113.848 77.9986 114.013 78.4247ZM122.983 78.1051L121.854 78.4247Q121.689 77.9986 121.3 77.6257Q120.911 77.2528 120.085 77.2528Q119.334 77.2528 118.836 77.5964Q118.338 77.94 118.338 78.4673Q118.338 78.9361 118.679 79.2077Q119.02 79.4794 119.744 79.6605L120.959 79.9588Q123.132 80.4915 123.132 82.1747Q123.132 82.8778 122.73 83.4318Q122.328 83.9858 121.609 84.3054Q120.89 84.625 119.936 84.625Q118.684 84.625 117.864 84.0817Q117.044 83.5384 116.825 82.4943L118.018 82.196Q118.354 83.517 119.915 83.517Q120.794 83.517 121.313 83.1415Q121.832 82.766 121.832 82.2386Q121.832 81.3704 120.618 81.0881L119.254 80.7685Q118.13 80.5021 117.606 79.9402Q117.081 79.3782 117.081 78.5313Q117.081 77.8388 117.472 77.3061Q117.864 76.7734 118.543 76.4698Q119.222 76.1662 120.085 76.1662Q121.3 76.1662 121.995 76.6989Q122.69 77.2315 122.983 78.1051ZM126.025 84.3507Q126.658 84.6463 127.436 84.6463Q128.15 84.6463 128.645 84.4332Q129.141 84.2202 129.439 83.9165Q129.737 83.6129 129.865 83.3466L129.929 83.3466L129.929 84.4545L131.186 84.4545L131.186 79.0639Q131.186 78.0891 130.866 77.5085Q130.547 76.9279 130.065 76.6403Q129.583 76.3526 129.069 76.2594Q128.555 76.1662 128.161 76.1662Q127.543 76.1662 126.906 76.334Q126.27 76.5018 125.734 76.9199Q125.199 77.3381 124.879 78.0838L126.072 78.5099Q126.28 78.0625 126.792 77.6683Q127.303 77.2741 128.203 77.2741Q129.071 77.2741 129.5 77.7109Q129.929 78.1477 129.929 78.9361L129.929 78.9787Q129.929 79.2823 129.713 79.4048Q129.498 79.5273 129.031 79.5779Q128.565 79.6285 127.82 79.7244Q127.25 79.799 126.688 79.9242Q126.126 80.0494 125.662 80.2997Q125.199 80.5501 124.922 80.9895Q124.645 81.429 124.645 82.1321Q124.645 82.9311 125.018 83.4931Q125.391 84.055 126.025 84.3507ZM136.79 87.6932Q135.421 87.6932 134.624 87.1951Q133.828 86.6971 133.445 86.0526L134.446 85.3494Q134.616 85.5732 134.877 85.8635Q135.139 86.1538 135.594 86.3695Q136.049 86.5852 136.79 86.5852Q137.781 86.5852 138.425 86.1058Q139.07 85.6264 139.07 84.6037L139.07 82.9418L138.963 82.9418Q138.825 83.1655 138.572 83.4931Q138.319 83.8207 137.847 84.0737Q137.376 84.3267 136.577 84.3267Q135.586 84.3267 134.8 83.858Q134.015 83.3892 133.559 82.4943Q133.104 81.5994 133.104 80.321Q133.104 79.0639 133.546 78.1291Q133.988 77.1942 134.776 76.6802Q135.565 76.1662 136.598 76.1662Q137.397 76.1662 137.868 76.4299Q138.34 76.6935 138.593 77.0265Q138.846 77.3594 138.984 77.5724L139.112 77.5724L139.112 76.2727L140.327 76.2727L140.327 84.6889Q140.327 85.7436 139.85 86.4068Q139.373 87.07 138.572 87.3816Q137.77 87.6932 136.79 87.6932ZM144.021 84.1003Q144.876 84.625 146.058 84.625Q147.305 84.625 148.168 84.055Q149.031 83.4851 149.318 82.5582L148.104 82.2173Q147.864 82.8565 147.331 83.1761Q146.799 83.4957 146.058 83.4957Q144.95 83.4957 144.25 82.7979Q143.549 82.1001 143.507 80.7898L149.446 80.7898L149.446 80.2571Q149.446 79.1119 149.142 78.3288Q148.839 77.5458 148.327 77.0691Q147.816 76.5923 147.193 76.3793Q146.57 76.1662 145.93 76.1662Q144.822 76.1662 143.994 76.7068Q143.166 77.2475 142.705 78.209Q142.244 79.1705 142.244 80.4276Q142.244 81.6847 142.705 82.6301Q143.166 83.5756 144.021 84.1003ZM168.963 78.4247L170.092 78.1051Q169.799 77.2315 169.104 76.6989Q168.409 76.1662 167.195 76.1662Q166.332 76.1662 165.653 76.4698Q164.973 76.7734 164.582 77.3061Q164.19 77.8388 164.19 78.5313Q164.19 79.3782 164.715 79.9402Q165.24 80.5021 166.364 80.7685L167.727 81.0881Q168.942 81.3704 168.942 82.2386Q168.942 82.766 168.422 83.1415Q167.903 83.517 167.024 83.517Q165.463 83.517 165.128 82.196L163.935 82.4943Q164.153 83.5384 164.973 84.0817Q165.794 84.625 167.045 84.625Q167.999 84.625 168.718 84.3054Q169.437 83.9858 169.839 83.4318Q170.241 82.8778 170.241 82.1747Q170.241 80.4915 168.068 79.9588L166.854 79.6605Q166.129 79.4794 165.788 79.2077Q165.447 78.9361 165.447 78.4673Q165.447 77.94 165.945 77.5964Q166.444 77.2528 167.195 77.2528Q168.02 77.2528 168.409 77.6257Q168.798 77.9986 168.963 78.4247ZM176.953 84.4545L176.953 79.5327Q176.953 78.462 177.547 77.8787Q178.141 77.2955 179.041 77.2955Q179.915 77.2955 180.415 77.8361Q180.916 78.3768 180.916 79.3409L180.916 84.4545L182.173 84.4545L182.173 79.2557Q182.173 77.6896 181.409 76.9279Q180.645 76.1662 179.403 76.1662Q178.477 76.1662 177.891 76.5471Q177.305 76.9279 177.017 77.5511L176.911 77.5511L176.911 76.2727L175.696 76.2727L175.696 84.4545L176.953 84.4545ZM187.777 87.6932Q186.408 87.6932 185.612 87.1951Q184.815 86.6971 184.432 86.0526L185.433 85.3494Q185.604 85.5732 185.865 85.8635Q186.126 86.1538 186.581 86.3695Q187.037 86.5852 187.777 86.5852Q188.768 86.5852 189.412 86.1058Q190.057 85.6264 190.057 84.6037L190.057 82.9418L189.95 82.9418Q189.812 83.1655 189.559 83.4931Q189.306 83.8207 188.834 84.0737Q188.363 84.3267 187.564 84.3267Q186.573 84.3267 185.787 83.858Q185.002 83.3892 184.546 82.4943Q184.091 81.5994 184.091 80.321Q184.091 79.0639 184.533 78.1291Q184.975 77.1942 185.764 76.6802Q186.552 76.1662 187.585 76.1662Q188.384 76.1662 188.856 76.4299Q189.327 76.6935 189.58 77.0265Q189.833 77.3594 189.972 77.5724L190.099 77.5724L190.099 76.2727L191.314 76.2727L191.314 84.6889Q191.314 85.7436 190.837 86.4068Q190.36 87.07 189.559 87.3816Q188.757 87.6932 187.777 87.6932ZM212.416 84.1003Q213.271 84.625 214.453 84.625Q215.7 84.625 216.563 84.055Q217.425 83.4851 217.713 82.5582L216.499 82.2173Q216.259 82.8565 215.726 83.1761Q215.194 83.4957 214.453 83.4957Q213.345 83.4957 212.645 82.7979Q211.944 82.1001 211.902 80.7898L217.841 80.7898L217.841 80.2571Q217.841 79.1119 217.537 78.3288Q217.234 77.5458 216.722 77.0691Q216.211 76.5923 215.588 76.3793Q214.965 76.1662 214.325 76.1662Q213.217 76.1662 212.389 76.7068Q211.561 77.2475 211.1 78.209Q210.639 79.1705 210.639 80.4276Q210.639 81.6847 211.1 82.6301Q211.561 83.5756 212.416 84.1003ZM227.983 78.4247L229.112 78.1051Q228.819 77.2315 228.124 76.6989Q227.429 76.1662 226.215 76.1662Q225.352 76.1662 224.672 76.4698Q223.993 76.7734 223.602 77.3061Q223.21 77.8388 223.21 78.5313Q223.21 79.3782 223.735 79.9402Q224.26 80.5021 225.384 80.7685L226.747 81.0881Q227.962 81.3704 227.962 82.2386Q227.962 82.766 227.442 83.1415Q226.923 83.517 226.044 83.517Q224.483 83.517 224.148 82.196L222.955 82.4943Q223.173 83.5384 223.993 84.0817Q224.814 84.625 226.065 84.625Q227.019 84.625 227.738 84.3054Q228.457 83.9858 228.859 83.4318Q229.261 82.8778 229.261 82.1747Q229.261 80.4915 227.088 79.9588L225.874 79.6605Q225.149 79.4794 224.808 79.2077Q224.467 78.9361 224.467 78.4673Q224.467 77.94 224.965 77.5964Q225.463 77.2528 226.215 77.2528Q227.04 77.2528 227.429 77.6257Q227.818 77.9986 227.983 78.4247ZM234.588 84.625Q233.406 84.625 232.551 84.1003Q231.696 83.5756 231.235 82.6301Q230.774 81.6847 230.774 80.4276Q230.774 79.1705 231.235 78.209Q231.696 77.2475 232.524 76.7068Q233.352 76.1662 234.46 76.1662Q235.099 76.1662 235.723 76.3793Q236.346 76.5923 236.857 77.0691Q237.369 77.5458 237.672 78.3288Q237.976 79.1119 237.976 80.2571L237.976 80.7898L232.037 80.7898Q232.079 82.1001 232.78 82.7979Q233.48 83.4957 234.588 83.4957Q235.329 83.4957 235.861 83.1761Q236.394 82.8565 236.634 82.2173L237.848 82.5582Q237.56 83.4851 236.697 84.055Q235.835 84.625 234.588 84.625ZM58.402 76.2727L57.1449 76.2727L57.1449 84.4545L58.402 84.4545L58.402 76.2727ZM160.739 81.1094L160.739 76.2727L161.996 76.2727L161.996 84.4545L160.739 84.4545L160.739 83.0696L160.653 83.0696Q160.366 83.6928 159.759 84.127Q159.151 84.5611 158.224 84.5611Q157.074 84.5611 156.328 83.7994Q155.582 83.0376 155.582 81.4716L155.582 76.2727L156.839 76.2727L156.839 81.3864Q156.839 82.2813 157.343 82.8139Q157.846 83.3466 158.629 83.3466Q159.098 83.3466 159.585 83.1069Q160.073 82.8672 160.406 82.3718Q160.739 81.8764 160.739 81.1094ZM172.138 76.2727L173.395 76.2727L173.395 84.4545L172.138 84.4545L172.138 76.2727ZM199.091 76.2727L197.834 76.2727L197.834 84.4545L199.091 84.4545L199.091 76.2727ZM11.4498 82.6248Q10.8452 81.7539 10.8452 80.3636Q10.8452 78.9893 11.4418 78.1424Q12.0384 77.2955 13.1889 77.2955Q13.9879 77.2955 14.5179 77.7029Q15.0479 78.1104 15.3116 78.8056Q15.5753 79.5007 15.5753 80.3636Q15.5753 81.2372 15.3063 81.9483Q15.0373 82.6594 14.5073 83.0776Q13.9773 83.4957 13.1889 83.4957Q12.0543 83.4957 11.4498 82.6248ZM19.9858 80.3636Q19.9858 81.7539 20.5904 82.6248Q21.195 83.4957 22.3295 83.4957Q23.1179 83.4957 23.6479 83.0776Q24.1779 82.6594 24.4469 81.9483Q24.7159 81.2372 24.7159 80.3636Q24.7159 79.5007 24.4522 78.8056Q24.1886 78.1104 23.6586 77.7029Q23.1286 77.2955 22.3295 77.2955Q21.179 77.2955 20.5824 78.1424Q19.9858 78.9893 19.9858 80.3636ZM36.7969 83.4957Q37.6385 83.4957 38.1818 83.0643Q38.7251 82.6328 38.9862 81.9297Q39.2472 81.2266 39.2472 80.4063Q39.2472 79.5859 38.9862 78.8775Q38.7251 78.169 38.1818 77.7322Q37.6385 77.2955 36.7969 77.2955Q35.9553 77.2955 35.4119 77.7322Q34.8686 78.169 34.6076 78.8775Q34.3466 79.5859 34.3466 80.4063Q34.3466 81.2266 34.6076 81.9297Q34.8686 82.6328 35.4119 83.0643Q35.9553 83.4957 36.7969 83.4957ZM44.2623 82.6248Q43.6577 81.7539 43.6577 80.3636Q43.6577 78.9893 44.2543 78.1424Q44.8509 77.2955 46.0014 77.2955Q46.8004 77.2955 47.3304 77.7029Q47.8604 78.1104 48.1241 78.8056Q48.3878 79.5007 48.3878 80.3636Q48.3878 81.2372 48.1188 81.9483Q47.8498 82.6594 47.3198 83.0776Q46.7898 83.4957 46.0014 83.4957Q44.8668 83.4957 44.2623 82.6248ZM75.4954 79.7031L80.1563 79.7031Q80.1563 78.6644 79.549 77.9799Q78.9418 77.2955 77.919 77.2955Q77.1999 77.2955 76.6726 77.631Q76.1452 77.9666 75.8416 78.5179Q75.538 79.0692 75.4954 79.7031ZM101.49 79.7031L106.151 79.7031Q106.151 78.6644 105.543 77.9799Q104.936 77.2955 103.913 77.2955Q103.194 77.2955 102.667 77.631Q102.14 77.9666 101.836 78.5179Q101.532 79.0692 101.49 79.7031ZM136.747 83.1974Q137.882 83.1974 138.486 82.4277Q139.091 81.658 139.091 80.2997Q139.091 78.9734 138.494 78.1344Q137.898 77.2955 136.747 77.2955Q135.948 77.2955 135.418 77.7003Q134.888 78.1051 134.624 78.7869Q134.361 79.4688 134.361 80.2997Q134.361 81.5781 134.963 82.3878Q135.565 83.1974 136.747 83.1974ZM148.168 79.7031L143.507 79.7031Q143.549 79.0692 143.853 78.5179Q144.157 77.9666 144.684 77.631Q145.211 77.2955 145.93 77.2955Q146.953 77.2955 147.56 77.9799Q148.168 78.6644 148.168 79.7031ZM187.734 83.1974Q188.869 83.1974 189.474 82.4277Q190.078 81.658 190.078 80.2997Q190.078 78.9734 189.482 78.1344Q188.885 77.2955 187.734 77.2955Q186.935 77.2955 186.405 77.7003Q185.875 78.1051 185.612 78.7869Q185.348 79.4688 185.348 80.2997Q185.348 81.5781 185.95 82.3878Q186.552 83.1974 187.734 83.1974ZM216.563 79.7031L211.902 79.7031Q211.944 79.0692 212.248 78.5179Q212.552 77.9666 213.079 77.631Q213.606 77.2955 214.325 77.2955Q215.348 77.2955 215.955 77.9799Q216.563 78.6644 216.563 79.7031ZM232.037 79.7031L236.697 79.7031Q236.697 78.6644 236.09 77.9799Q235.483 77.2955 234.46 77.2955Q233.741 77.2955 233.214 77.631Q232.686 77.9666 232.383 78.5179Q232.079 79.0692 232.037 79.7031ZM5.00977 83.2241Q4.49574 83.517 3.75 83.517Q2.99893 83.517 2.51154 83.1841Q2.02415 82.8512 2.02415 82.196Q2.02415 81.7166 2.28249 81.437Q2.54084 81.1573 2.96431 81.0162Q3.38778 80.875 3.87784 80.8111Q4.08026 80.7844 4.40785 80.7445Q4.73544 80.7045 5.08434 80.6486Q5.43324 80.5927 5.70224 80.5154Q5.97124 80.4382 6.05114 80.3423L6.05114 81.4929Q6.05114 82.0043 5.78746 82.4677Q5.52379 82.9311 5.00977 83.2241ZM63.3026 83.517Q64.0483 83.517 64.5623 83.2241Q65.0764 82.9311 65.34 82.4677Q65.6037 82.0043 65.6037 81.4929L65.6037 80.3423Q65.5238 80.4382 65.2548 80.5154Q64.9858 80.5927 64.6369 80.6486Q64.288 80.7045 63.9604 80.7445Q63.6328 80.7844 63.4304 80.8111Q62.9403 80.875 62.5169 81.0162Q62.0934 81.1573 61.8351 81.437Q61.5767 81.7166 61.5767 82.196Q61.5767 82.8512 62.0641 83.1841Q62.5515 83.517 63.3026 83.517ZM128.888 83.2241Q128.374 83.517 127.628 83.517Q126.877 83.517 126.389 83.1841Q125.902 82.8512 125.902 82.196Q125.902 81.7166 126.16 81.437Q126.419 81.1573 126.842 81.0162Q127.266 80.875 127.756 80.8111Q127.958 80.7844 128.286 80.7445Q128.613 80.7045 128.962 80.6486Q129.311 80.5927 129.58 80.5154Q129.849 80.4382 129.929 80.3423L129.929 81.4929Q129.929 82.0043 129.665 82.4677Q129.402 82.9311 128.888 83.2241ZM240.133 84.2575Q240.416 84.5398 240.81 84.5398Q241.204 84.5398 241.486 84.2575Q241.768 83.9751 241.768 83.581Q241.768 83.1868 241.486 82.9045Q241.204 82.6222 240.81 82.6222Q240.416 82.6222 240.133 82.9045Q239.851 83.1868 239.851 83.581Q239.851 83.9751 240.133 84.2575Z" />
          </g>
          <g id="A-=-5">
            <path d="M1.76847 120.455L0.383523 120.455L4.3892 109.545L5.75284 109.545L9.75852 120.455L8.37358 120.455L7.27628 117.365L2.86577 117.365L1.76847 120.455ZM31.3157 120.231Q32.0668 120.604 33.0043 120.604Q34.043 120.604 34.858 120.132Q35.6729 119.661 36.139 118.843Q36.6051 118.026 36.6051 116.982Q36.6051 115.922 36.155 115.096Q35.7049 114.27 34.9192 113.794Q34.1335 113.317 33.1321 113.317Q32.5835 113.317 32.0774 113.493Q31.5714 113.668 31.2358 113.935L31.1719 113.935L31.5554 110.717L36.1151 110.717L36.1151 109.545L30.4474 109.545L29.7869 114.915L31.0227 115.064Q31.3636 114.819 31.891 114.662Q32.4183 114.505 32.919 114.51Q33.6168 114.515 34.1602 114.84Q34.7035 115.165 35.0151 115.727Q35.3267 116.289 35.3267 117.003Q35.3267 117.701 35.0257 118.252Q34.7248 118.803 34.2001 119.118Q33.6754 119.432 33.0043 119.432Q32.168 119.432 31.5687 118.95Q30.9695 118.468 30.8949 117.727L29.6165 117.727Q29.6591 118.558 30.1119 119.208Q30.5646 119.858 31.3157 120.231ZM3.28125 116.193L6.8608 116.193L5.11364 111.271L5.02841 111.271L3.28125 116.193ZM16.0227 115.192L16.0227 114.041L22.5852 114.041L22.5852 115.192L16.0227 115.192ZM16.0227 118.345L16.0227 117.195L22.5852 117.195L22.5852 118.345L16.0227 118.345Z" />
          </g>
          <g id="B-=-10">
            <path d="M36.938 137.139Q37.9315 138.604 39.7372 138.604Q41.543 138.604 42.5364 137.139Q43.5298 135.674 43.5298 133Q43.5298 130.347 42.5284 128.872Q41.527 127.396 39.7372 127.396Q37.9474 127.396 36.946 128.872Q35.9446 130.347 35.9446 133Q35.9446 135.674 36.938 137.139ZM1.32102 127.545L1.32102 138.455L5.26278 138.455Q6.55185 138.455 7.35618 138.071Q8.16051 137.688 8.53338 137.032Q8.90625 136.377 8.90625 135.557Q8.90625 134.694 8.56534 134.097Q8.22443 133.501 7.7184 133.181Q7.21236 132.862 6.71165 132.83L6.71165 132.723Q7.1804 132.595 7.58256 132.329Q7.98473 132.063 8.23242 131.604Q8.48011 131.146 8.48011 130.443Q8.48011 129.644 8.1179 128.986Q7.75568 128.328 7.01527 127.937Q6.27486 127.545 5.13494 127.545L1.32102 127.545ZM33.0469 127.545L33.0469 138.455L31.7259 138.455L31.7259 128.93L31.6619 128.93L28.9986 130.699L28.9986 129.357L31.7259 127.545L33.0469 127.545ZM41.5909 136.281Q40.9304 137.432 39.7372 137.432Q38.5494 137.432 37.8862 136.281Q37.223 135.131 37.223 133Q37.223 130.875 37.8889 129.711Q38.5547 128.547 39.7372 128.547Q40.9197 128.547 41.5856 129.711Q42.2514 130.875 42.2514 133Q42.2514 135.131 41.5909 136.281ZM5.09233 132.339L2.64205 132.339L2.64205 128.717L5.13494 128.717Q6.22159 128.717 6.7223 129.221Q7.22301 129.724 7.22301 130.443Q7.22301 131.306 6.60511 131.823Q5.98722 132.339 5.09233 132.339ZM15.6392 132.041L15.6392 133.192L22.2017 133.192L22.2017 132.041L15.6392 132.041ZM5.26278 137.283L2.64205 137.283L2.64205 133.49L5.3267 133.49Q6.04048 133.49 6.5625 133.775Q7.08452 134.06 7.36683 134.531Q7.64915 135.003 7.64915 135.557Q7.64915 136.276 7.10316 136.779Q6.55717 137.283 5.26278 137.283ZM15.6392 135.195L15.6392 136.345L22.2017 136.345L22.2017 135.195L15.6392 135.195Z" />
          </g>
          <g id="C-=-15">
            <path d="M8.77841 148.955L10.0994 148.955Q9.89702 147.836 9.27379 147.04Q8.65057 146.243 7.72905 145.82Q6.80753 145.396 5.71023 145.396Q4.31463 145.396 3.22798 146.078Q2.14134 146.76 1.51811 148.017Q0.894886 149.274 0.894886 151Q0.894886 152.726 1.51811 153.983Q2.14134 155.24 3.22798 155.922Q4.31463 156.604 5.71023 156.604Q6.80753 156.604 7.72905 156.18Q8.65057 155.757 9.27379 154.96Q9.89702 154.164 10.0994 153.045L8.77841 153.045Q8.61861 153.802 8.16584 154.319Q7.71307 154.835 7.07386 155.102Q6.43466 155.368 5.71023 155.368Q4.71946 155.368 3.91779 154.867Q3.11612 154.366 2.64471 153.392Q2.1733 152.417 2.1733 151Q2.1733 149.583 2.64471 148.608Q3.11612 147.634 3.91779 147.133Q4.71946 146.632 5.71023 146.632Q6.43466 146.632 7.07386 146.898Q7.71307 147.165 8.16584 147.681Q8.61861 148.198 8.77841 148.955ZM34.1974 156.455L32.8764 156.455L32.8764 146.93L32.8125 146.93L30.1491 148.699L30.1491 147.357L32.8764 145.545L34.1974 145.545L34.1974 156.455ZM39.0501 156.231Q39.8011 156.604 40.7386 156.604Q41.7773 156.604 42.5923 156.132Q43.4073 155.661 43.8734 154.843Q44.3395 154.026 44.3395 152.982Q44.3395 151.922 43.8894 151.096Q43.4393 150.27 42.6536 149.794Q41.8679 149.317 40.8665 149.317Q40.3178 149.317 39.8118 149.493Q39.3058 149.668 38.9702 149.935L38.9063 149.935L39.2898 146.717L43.8494 146.717L43.8494 145.545L38.1818 145.545L37.5213 150.915L38.7571 151.064Q39.098 150.819 39.6254 150.662Q40.1527 150.505 40.6534 150.51Q41.3512 150.515 41.8945 150.84Q42.4379 151.165 42.7495 151.727Q43.0611 152.289 43.0611 153.003Q43.0611 153.701 42.7601 154.252Q42.4592 154.803 41.9345 155.118Q41.4098 155.432 40.7386 155.432Q39.9023 155.432 39.3031 154.95Q38.7038 154.468 38.6293 153.727L37.3509 153.727Q37.3935 154.558 37.8462 155.208Q38.299 155.858 39.0501 156.231ZM16.7898 150.041L16.7898 151.192L23.3523 151.192L23.3523 150.041L16.7898 150.041ZM16.7898 153.195L16.7898 154.345L23.3523 154.345L23.3523 153.195L16.7898 153.195Z" />
          </g>
          <g id="15-is-the-biggest-number">
            <path d="M22.0952 164.909Q21.7276 164.909 21.464 164.659Q21.2003 164.408 21.2003 164.057Q21.2003 163.705 21.464 163.455Q21.7276 163.205 22.0952 163.205Q22.4627 163.205 22.7264 163.455Q22.9901 163.705 22.9901 164.057Q22.9901 164.408 22.7264 164.659Q22.4627 164.909 22.0952 164.909ZM74.2969 164.909Q73.9293 164.909 73.6657 164.659Q73.402 164.408 73.402 164.057Q73.402 163.705 73.6657 163.455Q73.9293 163.205 74.2969 163.205Q74.6644 163.205 74.9281 163.455Q75.1918 163.705 75.1918 164.057Q75.1918 164.408 74.9281 164.659Q74.6644 164.909 74.2969 164.909ZM4.96449 174.455L4.96449 163.545L3.64347 163.545L0.916193 165.357L0.916193 166.699L3.57955 164.93L3.64347 164.93L3.64347 174.455L4.96449 174.455ZM9.81712 174.231Q10.5682 174.604 11.5057 174.604Q12.5444 174.604 13.3594 174.132Q14.1744 173.661 14.6404 172.843Q15.1065 172.026 15.1065 170.982Q15.1065 169.922 14.6564 169.096Q14.2063 168.27 13.4206 167.794Q12.6349 167.317 11.6335 167.317Q11.0849 167.317 10.5788 167.493Q10.0728 167.668 9.73722 167.935L9.6733 167.935L10.0568 164.717L14.6165 164.717L14.6165 163.545L8.94886 163.545L8.28835 168.915L9.52415 169.064Q9.86506 168.819 10.3924 168.662Q10.9197 168.505 11.4205 168.51Q12.1183 168.515 12.6616 168.84Q13.2049 169.165 13.5165 169.727Q13.8281 170.289 13.8281 171.003Q13.8281 171.701 13.5272 172.252Q13.2262 172.803 12.7015 173.118Q12.1768 173.432 11.5057 173.432Q10.6694 173.432 10.0701 172.95Q9.47088 172.468 9.39631 171.727L8.1179 171.727Q8.16051 172.558 8.61328 173.208Q9.06605 173.858 9.81712 174.231ZM43.7855 174.455L43.7855 169.533Q43.7855 168.462 44.3954 167.879Q45.0053 167.295 45.9375 167.295Q46.8271 167.295 47.3304 167.831Q47.8338 168.366 47.8338 169.341L47.8338 174.455L49.0909 174.455L49.0909 169.256Q49.0909 167.679 48.3239 166.923Q47.5568 166.166 46.2997 166.166Q45.3356 166.166 44.7576 166.542Q44.1797 166.917 43.892 167.551L43.7855 167.551L43.7855 163.545L42.5284 163.545L42.5284 174.455L43.7855 174.455ZM64.517 163.545L64.517 174.455L65.7315 174.455L65.7315 173.197L65.8807 173.197Q66.0192 173.421 66.2749 173.759Q66.5305 174.098 67.0046 174.361Q67.4787 174.625 68.267 174.625Q69.2898 174.625 70.0728 174.106Q70.8558 173.586 71.2979 172.635Q71.7401 171.685 71.7401 170.385Q71.7401 169.096 71.2979 168.148Q70.8558 167.2 70.0675 166.683Q69.2791 166.166 68.2457 166.166Q67.4467 166.166 66.9806 166.43Q66.5146 166.694 66.2669 167.026Q66.0192 167.359 65.8807 167.572L65.7741 167.572L65.7741 163.545L64.517 163.545ZM152.45 163.545L152.45 174.455L153.665 174.455L153.665 173.197L153.814 173.197Q153.952 173.421 154.208 173.759Q154.464 174.098 154.938 174.361Q155.412 174.625 156.2 174.625Q157.223 174.625 158.006 174.106Q158.789 173.586 159.231 172.635Q159.673 171.685 159.673 170.385Q159.673 169.096 159.231 168.148Q158.789 167.2 158.001 166.683Q157.212 166.166 156.179 166.166Q155.38 166.166 154.914 166.43Q154.448 166.694 154.2 167.026Q153.952 167.359 153.814 167.572L153.707 167.572L153.707 163.545L152.45 163.545ZM40.6321 166.273L40.6321 167.338L38.8849 167.338L38.8849 172.111Q38.8849 172.643 39.0421 172.907Q39.1992 173.171 39.4469 173.259Q39.6946 173.347 39.9716 173.347Q40.1793 173.347 40.3125 173.323Q40.4457 173.299 40.5256 173.283L40.7813 174.412Q40.6534 174.46 40.4244 174.51Q40.1953 174.561 39.8438 174.561Q39.3111 174.561 38.8024 174.332Q38.2937 174.103 37.9608 173.634Q37.6278 173.165 37.6278 172.452L37.6278 167.338L36.392 167.338L36.392 166.273L37.6278 166.273L37.6278 164.313L38.8849 164.313L38.8849 166.273L40.6321 166.273ZM115.632 167.338L115.632 166.273L113.885 166.273L113.885 164.313L112.628 164.313L112.628 166.273L111.392 166.273L111.392 167.338L112.628 167.338L112.628 172.452Q112.628 173.165 112.961 173.634Q113.294 174.103 113.802 174.332Q114.311 174.561 114.844 174.561Q115.195 174.561 115.424 174.51Q115.653 174.46 115.781 174.412L115.526 173.283Q115.446 173.299 115.312 173.323Q115.179 173.347 114.972 173.347Q114.695 173.347 114.447 173.259Q114.199 173.171 114.042 172.907Q113.885 172.643 113.885 172.111L113.885 167.338L115.632 167.338ZM171.541 166.273L170.327 166.273L170.327 174.455L171.584 174.455L171.584 169.277Q171.584 168.446 172.17 167.903Q172.756 167.359 173.651 167.359Q173.901 167.359 174.127 167.394Q174.354 167.429 174.418 167.445L174.418 166.166Q174.311 166.156 174.103 166.15Q173.896 166.145 173.757 166.145Q173.022 166.145 172.436 166.523Q171.85 166.901 171.626 167.509L171.541 167.509L171.541 166.273ZM29.6804 168.425L30.8097 168.105Q30.5167 167.232 29.8216 166.699Q29.1264 166.166 27.9119 166.166Q27.049 166.166 26.3699 166.47Q25.6907 166.773 25.2992 167.306Q24.9077 167.839 24.9077 168.531Q24.9077 169.378 25.4324 169.94Q25.957 170.502 27.081 170.768L28.4446 171.088Q29.6591 171.37 29.6591 172.239Q29.6591 172.766 29.1397 173.142Q28.6204 173.517 27.7415 173.517Q26.1808 173.517 25.8452 172.196L24.652 172.494Q24.8704 173.538 25.6907 174.082Q26.511 174.625 27.7628 174.625Q28.7163 174.625 29.4354 174.305Q30.1545 173.986 30.5566 173.432Q30.9588 172.878 30.9588 172.175Q30.9588 170.491 28.7855 169.959L27.571 169.661Q26.8466 169.479 26.5057 169.208Q26.1648 168.936 26.1648 168.467Q26.1648 167.94 26.6628 167.596Q27.1609 167.253 27.9119 167.253Q28.7376 167.253 29.1264 167.626Q29.5153 167.999 29.6804 168.425ZM54.8224 174.625Q53.6399 174.625 52.785 174.1Q51.93 173.576 51.4693 172.63Q51.0085 171.685 51.0085 170.428Q51.0085 169.17 51.4693 168.209Q51.93 167.248 52.7583 166.707Q53.5866 166.166 54.6946 166.166Q55.3338 166.166 55.957 166.379Q56.5803 166.592 57.0916 167.069Q57.603 167.546 57.9066 168.329Q58.2102 169.112 58.2102 170.257L58.2102 170.79L52.271 170.79Q52.3136 172.1 53.014 172.798Q53.7145 173.496 54.8224 173.496Q55.5629 173.496 56.0955 173.176Q56.6282 172.857 56.8679 172.217L58.0824 172.558Q57.7947 173.485 56.9318 174.055Q56.0689 174.625 54.8224 174.625ZM78.3531 177.195Q79.1495 177.693 80.5185 177.693Q81.4986 177.693 82.3002 177.382Q83.1019 177.07 83.5786 176.407Q84.0554 175.744 84.0554 174.689L84.0554 166.273L82.8409 166.273L82.8409 167.572L82.7131 167.572Q82.5746 167.359 82.3215 167.026Q82.0685 166.694 81.5971 166.43Q81.1257 166.166 80.3267 166.166Q79.2933 166.166 78.505 166.68Q77.7166 167.194 77.2745 168.129Q76.8324 169.064 76.8324 170.321Q76.8324 171.599 77.2878 172.494Q77.7432 173.389 78.5289 173.858Q79.3146 174.327 80.3054 174.327Q81.1044 174.327 81.5758 174.074Q82.0472 173.821 82.3002 173.493Q82.5533 173.165 82.6917 172.942L82.7983 172.942L82.7983 174.604Q82.7983 175.626 82.1538 176.106Q81.5092 176.585 80.5185 176.585Q79.778 176.585 79.3226 176.369Q78.8672 176.154 78.6062 175.863Q78.3452 175.573 78.1747 175.349L77.1733 176.053Q77.5568 176.697 78.3531 177.195ZM89.6591 177.693Q88.2901 177.693 87.4938 177.195Q86.6974 176.697 86.3139 176.053L87.3153 175.349Q87.4858 175.573 87.7468 175.863Q88.0078 176.154 88.4632 176.369Q88.9187 176.585 89.6591 176.585Q90.6498 176.585 91.2944 176.106Q91.9389 175.626 91.9389 174.604L91.9389 172.942L91.8324 172.942Q91.6939 173.165 91.4409 173.493Q91.1878 173.821 90.7164 174.074Q90.245 174.327 89.446 174.327Q88.4552 174.327 87.6696 173.858Q86.8839 173.389 86.4284 172.494Q85.973 171.599 85.973 170.321Q85.973 169.064 86.4151 168.129Q86.8572 167.194 87.6456 166.68Q88.4339 166.166 89.4673 166.166Q90.2663 166.166 90.7377 166.43Q91.2092 166.694 91.4622 167.026Q91.7152 167.359 91.8537 167.572L91.9815 167.572L91.9815 166.273L93.196 166.273L93.196 174.689Q93.196 175.744 92.7193 176.407Q92.2425 177.07 91.4409 177.382Q90.6392 177.693 89.6591 177.693ZM96.8901 174.1Q97.745 174.625 98.9275 174.625Q100.174 174.625 101.037 174.055Q101.9 173.485 102.187 172.558L100.973 172.217Q100.733 172.857 100.201 173.176Q99.668 173.496 98.9275 173.496Q97.8196 173.496 97.1191 172.798Q96.4187 172.1 96.3761 170.79L102.315 170.79L102.315 170.257Q102.315 169.112 102.012 168.329Q101.708 167.546 101.197 167.069Q100.685 166.592 100.062 166.379Q99.4389 166.166 98.7997 166.166Q97.6917 166.166 96.8634 166.707Q96.0351 167.248 95.5744 168.209Q95.1136 169.17 95.1136 170.428Q95.1136 171.685 95.5744 172.63Q96.0351 173.576 96.8901 174.1ZM110.028 168.105L108.899 168.425Q108.734 167.999 108.345 167.626Q107.956 167.253 107.131 167.253Q106.38 167.253 105.882 167.596Q105.384 167.94 105.384 168.467Q105.384 168.936 105.724 169.208Q106.065 169.479 106.79 169.661L108.004 169.959Q110.178 170.491 110.178 172.175Q110.178 172.878 109.775 173.432Q109.373 173.986 108.654 174.305Q107.935 174.625 106.982 174.625Q105.73 174.625 104.909 174.082Q104.089 173.538 103.871 172.494L105.064 172.196Q105.399 173.517 106.96 173.517Q107.839 173.517 108.358 173.142Q108.878 172.766 108.878 172.239Q108.878 171.37 107.663 171.088L106.3 170.768Q105.176 170.502 104.651 169.94Q104.126 169.378 104.126 168.531Q104.126 167.839 104.518 167.306Q104.909 166.773 105.589 166.47Q106.268 166.166 107.131 166.166Q108.345 166.166 109.04 166.699Q109.735 167.232 110.028 168.105ZM123.004 169.533L123.004 174.455L121.747 174.455L121.747 166.273L122.962 166.273L122.962 167.551L123.068 167.551Q123.356 166.928 123.942 166.547Q124.528 166.166 125.455 166.166Q126.696 166.166 127.46 166.928Q128.224 167.69 128.224 169.256L128.224 174.455L126.967 174.455L126.967 169.341Q126.967 168.377 126.467 167.836Q125.966 167.295 125.092 167.295Q124.192 167.295 123.598 167.879Q123.004 168.462 123.004 169.533ZM139.24 166.273L140.455 166.273L140.455 167.551L140.561 167.551Q140.817 166.896 141.387 166.531Q141.957 166.166 142.756 166.166Q143.565 166.166 144.106 166.531Q144.647 166.896 144.95 167.551L145.036 167.551Q145.35 166.917 145.978 166.542Q146.607 166.166 147.486 166.166Q148.583 166.166 149.281 166.851Q149.979 167.535 149.979 168.979L149.979 174.455L148.722 174.455L148.722 168.979Q148.722 168.073 148.226 167.684Q147.731 167.295 147.06 167.295Q146.197 167.295 145.723 167.815Q145.249 168.334 145.249 169.128L145.249 174.455L143.97 174.455L143.97 168.851Q143.97 168.153 143.517 167.724Q143.065 167.295 142.351 167.295Q141.861 167.295 141.437 167.556Q141.014 167.817 140.755 168.278Q140.497 168.739 140.497 169.341L140.497 174.455L139.24 174.455L139.24 166.273ZM165.021 174.625Q163.839 174.625 162.984 174.1Q162.129 173.576 161.668 172.63Q161.207 171.685 161.207 170.428Q161.207 169.17 161.668 168.209Q162.129 167.248 162.957 166.707Q163.786 166.166 164.893 166.166Q165.533 166.166 166.156 166.379Q166.779 166.592 167.29 167.069Q167.802 167.546 168.105 168.329Q168.409 169.112 168.409 170.257L168.409 170.79L162.47 170.79Q162.512 172.1 163.213 172.798Q163.913 173.496 165.021 173.496Q165.762 173.496 166.294 173.176Q166.827 172.857 167.067 172.217L168.281 172.558Q167.994 173.485 167.131 174.055Q166.268 174.625 165.021 174.625ZM21.456 174.455L21.456 166.273L22.7131 166.273L22.7131 174.455L21.456 174.455ZM73.6577 166.273L74.9148 166.273L74.9148 174.455L73.6577 174.455L73.6577 166.273ZM135.682 166.273L135.682 171.109Q135.682 171.876 135.349 172.372Q135.016 172.867 134.529 173.107Q134.041 173.347 133.572 173.347Q132.789 173.347 132.286 172.814Q131.783 172.281 131.783 171.386L131.783 166.273L130.526 166.273L130.526 171.472Q130.526 173.038 131.271 173.799Q132.017 174.561 133.168 174.561Q134.094 174.561 134.702 174.127Q135.309 173.693 135.597 173.07L135.682 173.07L135.682 174.455L136.939 174.455L136.939 166.273L135.682 166.273ZM52.271 169.703L56.9318 169.703Q56.9318 168.664 56.3246 167.98Q55.7173 167.295 54.6946 167.295Q53.9755 167.295 53.4482 167.631Q52.9208 167.967 52.6172 168.518Q52.3136 169.069 52.271 169.703ZM66.3574 172.625Q65.7528 171.754 65.7528 170.364Q65.7528 168.989 66.3494 168.142Q66.946 167.295 68.0966 167.295Q68.8956 167.295 69.4256 167.703Q69.9556 168.11 70.2193 168.806Q70.4829 169.501 70.4829 170.364Q70.4829 171.237 70.214 171.948Q69.945 172.659 69.4149 173.078Q68.8849 173.496 68.0966 173.496Q66.962 173.496 66.3574 172.625ZM82.215 172.428Q81.6104 173.197 80.4758 173.197Q79.2933 173.197 78.6914 172.388Q78.0895 171.578 78.0895 170.3Q78.0895 169.469 78.3531 168.787Q78.6168 168.105 79.1468 167.7Q79.6768 167.295 80.4758 167.295Q81.6264 167.295 82.223 168.134Q82.8196 168.973 82.8196 170.3Q82.8196 171.658 82.215 172.428ZM89.6165 173.197Q90.7511 173.197 91.3556 172.428Q91.9602 171.658 91.9602 170.3Q91.9602 168.973 91.3636 168.134Q90.767 167.295 89.6165 167.295Q88.8175 167.295 88.2875 167.7Q87.7574 168.105 87.4938 168.787Q87.2301 169.469 87.2301 170.3Q87.2301 171.578 87.832 172.388Q88.4339 173.197 89.6165 173.197ZM101.037 169.703L96.3761 169.703Q96.4187 169.069 96.7223 168.518Q97.0259 167.967 97.5533 167.631Q98.0806 167.295 98.7997 167.295Q99.8224 167.295 100.43 167.98Q101.037 168.664 101.037 169.703ZM154.291 172.625Q153.686 171.754 153.686 170.364Q153.686 168.989 154.283 168.142Q154.879 167.295 156.03 167.295Q156.829 167.295 157.359 167.703Q157.889 168.11 158.153 168.806Q158.416 169.501 158.416 170.364Q158.416 171.237 158.147 171.948Q157.878 172.659 157.348 173.078Q156.818 173.496 156.03 173.496Q154.895 173.496 154.291 172.625ZM162.47 169.703L167.131 169.703Q167.131 168.664 166.523 167.98Q165.916 167.295 164.893 167.295Q164.174 167.295 163.647 167.631Q163.12 167.967 162.816 168.518Q162.512 169.069 162.47 169.703Z" />
          </g>
        </g>
      </g>
    </g>
  </g>
</svg>