<?xml version="1.0" encoding="utf-8"?>
<svg width="375px" height="282px" viewBox="0 0 375 282" version="1.1" xmlns:xlink="http://www.w3.org/1999/xlink" xmlns="http://www.w3.org/2000/svg">
  <g id="Group-95">
    <path d="M0 0L307.09 0L375 0L375 282L0 282L0 0Z" id="Rectangle-14" fill="#FFFFFF" fill-rule="evenodd" stroke="none" />
    <g id="Group-94" transform="translate(13 11.000122)">
      <g id="JavaScript-function-to-convert">
        <g id="JavaScript-function-to-convert-the-temperature-">
          <path d="M84.098 59.3381L84.098 58.2727L82.2656 58.2727L82.2656 57.4418Q82.2656 56.8345 82.5399 56.5202Q82.8143 56.206 83.4375 56.206Q83.7092 56.206 83.8769 56.2539Q84.0447 56.3018 84.1406 56.3338L84.5028 55.2472Q84.359 55.1832 84.066 55.1087Q83.7731 55.0341 83.3097 55.0341Q82.7237 55.0341 82.1964 55.2685Q81.669 55.5028 81.3388 55.9716Q81.0085 56.4403 81.0085 57.1435L81.0085 58.2727L79.6875 58.2727L79.6875 59.3381L81.0085 59.3381L81.0085 66.4545L82.2656 66.4545L82.2656 59.3381L84.098 59.3381ZM58.7216 56.9091Q58.354 56.9091 58.0904 56.6587Q57.8267 56.4084 57.8267 56.0568Q57.8267 55.7053 58.0904 55.4549Q58.354 55.2045 58.7216 55.2045Q59.0891 55.2045 59.3528 55.4549Q59.6165 55.7053 59.6165 56.0568Q59.6165 56.4084 59.3528 56.6587Q59.0891 56.9091 58.7216 56.9091ZM117.827 56.9091Q117.459 56.9091 117.195 56.6587Q116.932 56.4084 116.932 56.0568Q116.932 55.7053 117.195 55.4549Q117.459 55.2045 117.827 55.2045Q118.194 55.2045 118.458 55.4549Q118.722 55.7053 118.722 56.0568Q118.722 56.4084 118.458 56.6587Q118.194 56.9091 117.827 56.9091ZM39.9183 57.0156Q40.6001 57.4631 40.696 58.2727L41.9744 58.2727Q41.9478 57.4471 41.4657 56.7972Q40.9837 56.1474 40.1633 55.7718Q39.343 55.3963 38.2883 55.3963Q37.2443 55.3963 36.4 55.7772Q35.5558 56.158 35.0577 56.8425Q34.5597 57.527 34.5597 58.4432Q34.5597 59.5458 35.3054 60.2276Q36.0511 60.9094 37.3295 61.277L38.6719 61.6605Q39.2472 61.8203 39.7425 62.0334Q40.2379 62.2464 40.5415 62.5874Q40.8452 62.9283 40.8452 63.4716Q40.8452 64.0682 40.4936 64.513Q40.142 64.9577 39.5401 65.2054Q38.9382 65.4531 38.1818 65.4531Q37.532 65.4531 36.97 65.2587Q36.408 65.0643 36.0431 64.6621Q35.6783 64.2599 35.625 63.642L34.2614 63.642Q34.3572 64.9844 35.3906 65.8153Q36.424 66.6463 38.1818 66.6463Q39.4389 66.6463 40.3205 66.2255Q41.2021 65.8047 41.6628 65.0909Q42.1236 64.3771 42.1236 63.4929Q42.1236 62.7258 41.8093 62.1985Q41.495 61.6712 41.013 61.3329Q40.5309 60.9947 40.0062 60.7976Q39.4815 60.6005 39.0554 60.4886L37.9474 60.1903Q37.5426 60.0838 37.0499 59.8841Q36.5572 59.6843 36.1976 59.3247Q35.8381 58.9652 35.8381 58.3793Q35.8381 57.5962 36.4986 57.0822Q37.1591 56.5682 38.2457 56.5682Q39.2365 56.5682 39.9183 57.0156ZM5.49716 55.5455L6.81818 55.5455L6.81818 63.3438Q6.81818 64.9151 5.9739 65.7594Q5.12962 66.6037 3.70739 66.6037Q2.8125 66.6037 2.1147 66.2761Q1.4169 65.9485 1.0174 65.3413Q0.617898 64.734 0.617898 63.8977L1.91761 63.8977Q1.91761 64.5902 2.42365 65.011Q2.92969 65.4318 3.70739 65.4318Q4.56499 65.4318 5.03107 64.8965Q5.49716 64.3612 5.49716 63.3438L5.49716 55.5455ZM226.47 66.4545L226.47 61.5327Q226.47 60.462 227.08 59.8787Q227.69 59.2955 228.622 59.2955Q229.512 59.2955 230.015 59.8308Q230.518 60.3661 230.518 61.3409L230.518 66.4545L231.776 66.4545L231.776 61.2557Q231.776 59.679 231.009 58.9226Q230.241 58.1662 228.984 58.1662Q228.02 58.1662 227.442 58.5417Q226.864 58.9173 226.577 59.5511L226.47 59.5511L226.47 55.5455L225.213 55.5455L225.213 66.4545L226.47 66.4545ZM74.3395 58.2727L74.3395 59.3381L72.5923 59.3381L72.5923 64.1108Q72.5923 64.6435 72.7495 64.9071Q72.9066 65.1708 73.1543 65.2587Q73.402 65.3466 73.679 65.3466Q73.8867 65.3466 74.0199 65.3226Q74.153 65.2987 74.2329 65.2827L74.4886 66.4119Q74.3608 66.4599 74.1317 66.5105Q73.9027 66.5611 73.5511 66.5611Q73.0185 66.5611 72.5098 66.332Q72.0011 66.103 71.6681 65.6342Q71.3352 65.1655 71.3352 64.4517L71.3352 59.3381L70.0994 59.3381L70.0994 58.2727L71.3352 58.2727L71.3352 56.3125L72.5923 56.3125L72.5923 58.2727L74.3395 58.2727ZM115.291 59.3381L115.291 58.2727L113.544 58.2727L113.544 56.3125L112.287 56.3125L112.287 58.2727L111.051 58.2727L111.051 59.3381L112.287 59.3381L112.287 64.4517Q112.287 65.1655 112.62 65.6342Q112.953 66.103 113.461 66.332Q113.97 66.5611 114.503 66.5611Q114.854 66.5611 115.083 66.5105Q115.312 66.4599 115.44 66.4119L115.185 65.2827Q115.105 65.2987 114.972 65.3226Q114.838 65.3466 114.631 65.3466Q114.354 65.3466 114.106 65.2587Q113.858 65.1708 113.701 64.9071Q113.544 64.6435 113.544 64.1108L113.544 59.3381L115.291 59.3381ZM146.25 59.3381L146.25 58.2727L144.503 58.2727L144.503 56.3125L143.246 56.3125L143.246 58.2727L142.01 58.2727L142.01 59.3381L143.246 59.3381L143.246 64.4517Q143.246 65.1655 143.579 65.6342Q143.912 66.103 144.42 66.332Q144.929 66.5611 145.462 66.5611Q145.813 66.5611 146.042 66.5105Q146.271 66.4599 146.399 66.4119L146.143 65.2827Q146.064 65.2987 145.93 65.3226Q145.797 65.3466 145.589 65.3466Q145.312 65.3466 145.065 65.2587Q144.817 65.1708 144.66 64.9071Q144.503 64.6435 144.503 64.1108L144.503 59.3381L146.25 59.3381ZM213.643 59.3381L213.643 58.2727L211.896 58.2727L211.896 56.3125L210.639 56.3125L210.639 58.2727L209.403 58.2727L209.403 59.3381L210.639 59.3381L210.639 64.4517Q210.639 65.1655 210.972 65.6342Q211.305 66.103 211.814 66.332Q212.322 66.5611 212.855 66.5611Q213.207 66.5611 213.436 66.5105Q213.665 66.4599 213.793 66.4119L213.537 65.2827Q213.457 65.2987 213.324 65.3226Q213.191 65.3466 212.983 65.3466Q212.706 65.3466 212.458 65.2587Q212.211 65.1708 212.053 64.9071Q211.896 64.6435 211.896 64.1108L211.896 59.3381L213.643 59.3381ZM223.317 58.2727L223.317 59.3381L221.57 59.3381L221.57 64.1108Q221.57 64.6435 221.727 64.9071Q221.884 65.1708 222.132 65.2587Q222.379 65.3466 222.656 65.3466Q222.864 65.3466 222.997 65.3226Q223.13 65.2987 223.21 65.2827L223.466 66.4119Q223.338 66.4599 223.109 66.5105Q222.88 66.5611 222.528 66.5611Q221.996 66.5611 221.487 66.332Q220.978 66.103 220.645 65.6342Q220.313 65.1655 220.313 64.4517L220.313 59.3381L219.077 59.3381L219.077 58.2727L220.313 58.2727L220.313 56.3125L221.57 56.3125L221.57 58.2727L223.317 58.2727ZM250.589 59.3381L250.589 58.2727L248.842 58.2727L248.842 56.3125L247.585 56.3125L247.585 58.2727L246.349 58.2727L246.349 59.3381L247.585 59.3381L247.585 64.4517Q247.585 65.1655 247.918 65.6342Q248.251 66.103 248.76 66.332Q249.268 66.5611 249.801 66.5611Q250.153 66.5611 250.382 66.5105Q250.611 66.4599 250.739 66.4119L250.483 65.2827Q250.403 65.2987 250.27 65.3226Q250.137 65.3466 249.929 65.3466Q249.652 65.3466 249.404 65.2587Q249.157 65.1708 248.999 64.9071Q248.842 64.6435 248.842 64.1108L248.842 59.3381L250.589 59.3381ZM309.737 58.2727L309.737 59.3381L307.99 59.3381L307.99 64.1108Q307.99 64.6435 308.147 64.9071Q308.304 65.1708 308.552 65.2587Q308.8 65.3466 309.077 65.3466Q309.284 65.3466 309.418 65.3226Q309.551 65.2987 309.631 65.2827L309.886 66.4119Q309.759 66.4599 309.529 66.5105Q309.3 66.5611 308.949 66.5611Q308.416 66.5611 307.908 66.332Q307.399 66.103 307.066 65.6342Q306.733 65.1655 306.733 64.4517L306.733 59.3381L305.497 59.3381L305.497 58.2727L306.733 58.2727L306.733 56.3125L307.99 56.3125L307.99 58.2727L309.737 58.2727ZM53.7145 58.2727L52.5 58.2727L52.5 66.4545L53.7571 66.4545L53.7571 61.277Q53.7571 60.446 54.343 59.9027Q54.929 59.3594 55.8239 59.3594Q56.0742 59.3594 56.3006 59.394Q56.527 59.4286 56.5909 59.4446L56.5909 58.1662Q56.4844 58.1555 56.2766 58.1502Q56.0689 58.1449 55.9304 58.1449Q55.1953 58.1449 54.6094 58.5231Q54.0234 58.9013 53.7997 59.5085L53.7145 59.5085L53.7145 58.2727ZM204.503 58.2727L205.717 58.2727L205.717 59.5085L205.803 59.5085Q206.026 58.9013 206.612 58.5231Q207.198 58.1449 207.933 58.1449Q208.072 58.1449 208.279 58.1502Q208.487 58.1555 208.594 58.1662L208.594 59.4446Q208.53 59.4286 208.303 59.394Q208.077 59.3594 207.827 59.3594Q206.932 59.3594 206.346 59.9027Q205.76 60.446 205.76 61.277L205.76 66.4545L204.503 66.4545L204.503 58.2727ZM292.138 58.2727L293.352 58.2727L293.352 59.5085L293.438 59.5085Q293.661 58.9013 294.247 58.5231Q294.833 58.1449 295.568 58.1449Q295.707 58.1449 295.914 58.1502Q296.122 58.1555 296.229 58.1662L296.229 59.4446Q296.165 59.4286 295.938 59.394Q295.712 59.3594 295.462 59.3594Q294.567 59.3594 293.981 59.9027Q293.395 60.446 293.395 61.277L293.395 66.4545L292.138 66.4545L292.138 58.2727ZM320.348 58.2727L321.563 58.2727L321.563 59.5085L321.648 59.5085Q321.871 58.9013 322.457 58.5231Q323.043 58.1449 323.778 58.1449Q323.917 58.1449 324.125 58.1502Q324.332 58.1555 324.439 58.1662L324.439 59.4446Q324.375 59.4286 324.149 59.394Q323.922 59.3594 323.672 59.3594Q322.777 59.3594 322.191 59.9027Q321.605 60.446 321.605 61.277L321.605 66.4545L320.348 66.4545L320.348 58.2727ZM11.6974 66.6463Q10.9197 66.6463 10.2859 66.3507Q9.65199 66.055 9.27912 65.4931Q8.90625 64.9311 8.90625 64.1321Q8.90625 63.429 9.18324 62.9895Q9.46023 62.5501 9.92365 62.2997Q10.3871 62.0494 10.949 61.9242Q11.511 61.799 12.081 61.7244Q12.8267 61.6286 13.2928 61.5779Q13.7589 61.5273 13.9746 61.4048Q14.1903 61.2823 14.1903 60.9787L14.1903 60.9361Q14.1903 60.1477 13.7615 59.7109Q13.3327 59.2741 12.4645 59.2741Q11.5643 59.2741 11.0529 59.6683Q10.5415 60.0625 10.3338 60.5099L9.14063 60.0838Q9.46023 59.3381 9.99556 58.9199Q10.5309 58.5018 11.1674 58.334Q11.804 58.1662 12.4219 58.1662Q12.8161 58.1662 13.3301 58.2594Q13.8441 58.3526 14.3262 58.6403Q14.8082 58.9279 15.1278 59.5085Q15.4474 60.0891 15.4474 61.0639L15.4474 66.4545L14.1903 66.4545L14.1903 65.3466L14.1264 65.3466Q13.9986 65.6129 13.7003 65.9165Q13.402 66.2202 12.9066 66.4332Q12.4112 66.6463 11.6974 66.6463ZM28.5085 66.6463Q27.7308 66.6463 27.0969 66.3507Q26.4631 66.055 26.0902 65.4931Q25.7173 64.9311 25.7173 64.1321Q25.7173 63.429 25.9943 62.9895Q26.2713 62.5501 26.7347 62.2997Q27.1982 62.0494 27.7601 61.9242Q28.3221 61.799 28.892 61.7244Q29.6378 61.6286 30.1039 61.5779Q30.57 61.5273 30.7857 61.4048Q31.0014 61.2823 31.0014 60.9787L31.0014 60.9361Q31.0014 60.1477 30.5726 59.7109Q30.1438 59.2741 29.2756 59.2741Q28.3754 59.2741 27.864 59.6683Q27.3526 60.0625 27.1449 60.5099L25.9517 60.0838Q26.2713 59.3381 26.8066 58.9199Q27.342 58.5018 27.9785 58.334Q28.6151 58.1662 29.233 58.1662Q29.6271 58.1662 30.1412 58.2594Q30.6552 58.3526 31.1373 58.6403Q31.6193 58.9279 31.9389 59.5085Q32.2585 60.0891 32.2585 61.0639L32.2585 66.4545L31.0014 66.4545L31.0014 65.3466L30.9375 65.3466Q30.8097 65.6129 30.5114 65.9165Q30.2131 66.2202 29.7177 66.4332Q29.2223 66.6463 28.5085 66.6463ZM47.4503 66.625Q46.2997 66.625 45.4687 66.0817Q44.6378 65.5384 44.1903 64.5849Q43.7429 63.6314 43.7429 62.4063Q43.7429 61.1598 44.2037 60.2037Q44.6644 59.2475 45.4927 58.7069Q46.321 58.1662 47.429 58.1662Q48.2919 58.1662 48.9844 58.4858Q49.6768 58.8054 50.119 59.3807Q50.5611 59.956 50.6676 60.723L49.4105 60.723Q49.2667 60.1637 48.774 59.7296Q48.2812 59.2955 47.4503 59.2955Q46.3477 59.2955 45.6738 60.1344Q45 60.9734 45 62.3636Q45 63.7859 45.6658 64.6408Q46.3317 65.4957 47.4503 65.4957Q48.1854 65.4957 48.71 65.1175Q49.2347 64.7393 49.4105 64.0682L50.6676 64.0682Q50.5611 64.7926 50.1429 65.3706Q49.7248 65.9485 49.0403 66.2868Q48.3558 66.625 47.4503 66.625ZM61.6406 58.2727L61.6406 69.5227L62.8977 69.5227L62.8977 65.1974L63.0043 65.1974Q63.1428 65.4212 63.3984 65.7594Q63.6541 66.0977 64.1282 66.3613Q64.6023 66.625 65.3906 66.625Q66.4134 66.625 67.1964 66.1056Q67.9794 65.5863 68.4215 64.6355Q68.8636 63.6847 68.8636 62.3849Q68.8636 61.0959 68.4215 60.1477Q67.9794 59.1996 67.191 58.6829Q66.4027 58.1662 65.3693 58.1662Q64.5703 58.1662 64.1042 58.4299Q63.6381 58.6935 63.3904 59.0265Q63.1428 59.3594 63.0043 59.5724L62.8551 59.5724L62.8551 58.2727L61.6406 58.2727ZM95.8381 66.4545L95.8381 61.5327Q95.8381 60.462 96.432 59.8787Q97.0259 59.2955 97.9261 59.2955Q98.7997 59.2955 99.3004 59.8361Q99.8011 60.3768 99.8011 61.3409L99.8011 66.4545L101.058 66.4545L101.058 61.2557Q101.058 59.6896 100.294 58.9279Q99.5295 58.1662 98.2883 58.1662Q97.3615 58.1662 96.7756 58.5471Q96.1896 58.9279 95.902 59.5511L95.7954 59.5511L95.7954 58.2727L94.581 58.2727L94.581 66.4545L95.8381 66.4545ZM106.683 66.625Q105.533 66.625 104.702 66.0817Q103.871 65.5384 103.423 64.5849Q102.976 63.6314 102.976 62.4063Q102.976 61.1598 103.437 60.2037Q103.897 59.2475 104.726 58.7069Q105.554 58.1662 106.662 58.1662Q107.525 58.1662 108.217 58.4858Q108.91 58.8054 109.352 59.3807Q109.794 59.956 109.901 60.723L108.643 60.723Q108.5 60.1637 108.007 59.7296Q107.514 59.2955 106.683 59.2955Q105.581 59.2955 104.907 60.1344Q104.233 60.9734 104.233 62.3636Q104.233 63.7859 104.899 64.6408Q105.565 65.4957 106.683 65.4957Q107.418 65.4957 107.943 65.1175Q108.468 64.7393 108.643 64.0682L109.901 64.0682Q109.794 64.7926 109.376 65.3706Q108.958 65.9485 108.273 66.2868Q107.589 66.625 106.683 66.625ZM122.128 66.0977Q122.962 66.625 124.07 66.625Q125.178 66.625 126.011 66.0977Q126.845 65.5703 127.311 64.6222Q127.777 63.674 127.777 62.4063Q127.777 61.1278 127.311 60.1744Q126.845 59.2209 126.011 58.6935Q125.178 58.1662 124.07 58.1662Q122.962 58.1662 122.128 58.6935Q121.294 59.2209 120.828 60.1744Q120.362 61.1278 120.362 62.4063Q120.362 63.674 120.828 64.6222Q121.294 65.5703 122.128 66.0977ZM130.952 61.5327L130.952 66.4545L129.695 66.4545L129.695 58.2727L130.909 58.2727L130.909 59.5511L131.016 59.5511Q131.303 58.9279 131.889 58.5471Q132.475 58.1662 133.402 58.1662Q134.643 58.1662 135.407 58.9279Q136.172 59.6896 136.172 61.2557L136.172 66.4545L134.915 66.4545L134.915 61.3409Q134.915 60.3768 134.414 59.8361Q133.913 59.2955 133.04 59.2955Q132.14 59.2955 131.546 59.8787Q130.952 60.462 130.952 61.5327ZM151.47 66.625Q150.362 66.625 149.529 66.0977Q148.695 65.5703 148.229 64.6222Q147.763 63.674 147.763 62.4063Q147.763 61.1278 148.229 60.1744Q148.695 59.2209 149.529 58.6935Q150.362 58.1662 151.47 58.1662Q152.578 58.1662 153.412 58.6935Q154.245 59.2209 154.711 60.1744Q155.178 61.1278 155.178 62.4063Q155.178 63.674 154.711 64.6222Q154.245 65.5703 153.412 66.0977Q152.578 66.625 151.47 66.625ZM162.656 66.0817Q163.487 66.625 164.638 66.625Q165.543 66.625 166.228 66.2868Q166.912 65.9485 167.33 65.3706Q167.749 64.7926 167.855 64.0682L166.598 64.0682Q166.422 64.7393 165.898 65.1175Q165.373 65.4957 164.638 65.4957Q163.519 65.4957 162.853 64.6408Q162.188 63.7859 162.188 62.3636Q162.188 60.9734 162.861 60.1344Q163.535 59.2955 164.638 59.2955Q165.469 59.2955 165.961 59.7296Q166.454 60.1637 166.598 60.723L167.855 60.723Q167.749 59.956 167.306 59.3807Q166.864 58.8054 166.172 58.4858Q165.479 58.1662 164.616 58.1662Q163.509 58.1662 162.68 58.7069Q161.852 59.2475 161.391 60.2037Q160.93 61.1598 160.93 62.4063Q160.93 63.6314 161.378 64.5849Q161.825 65.5384 162.656 66.0817ZM173.011 66.625Q171.903 66.625 171.07 66.0977Q170.236 65.5703 169.77 64.6222Q169.304 63.674 169.304 62.4063Q169.304 61.1278 169.77 60.1744Q170.236 59.2209 171.07 58.6935Q171.903 58.1662 173.011 58.1662Q174.119 58.1662 174.953 58.6935Q175.787 59.2209 176.253 60.1744Q176.719 61.1278 176.719 62.4063Q176.719 63.674 176.253 64.6222Q175.787 65.5703 174.953 66.0977Q174.119 66.625 173.011 66.625ZM179.893 66.4545L179.893 61.5327Q179.893 60.462 180.487 59.8787Q181.081 59.2955 181.982 59.2955Q182.855 59.2955 183.356 59.8361Q183.857 60.3768 183.857 61.3409L183.857 66.4545L185.114 66.4545L185.114 61.2557Q185.114 59.6896 184.349 58.9279Q183.585 58.1662 182.344 58.1662Q181.417 58.1662 180.831 58.5471Q180.245 58.9279 179.957 59.5511L179.851 59.5511L179.851 58.2727L178.636 58.2727L178.636 66.4545L179.893 66.4545ZM197.16 66.1003Q198.015 66.625 199.197 66.625Q200.444 66.625 201.307 66.055Q202.17 65.4851 202.457 64.5582L201.243 64.2173Q201.003 64.8565 200.471 65.1761Q199.938 65.4957 199.197 65.4957Q198.089 65.4957 197.389 64.7979Q196.689 64.1001 196.646 62.7898L202.585 62.7898L202.585 62.2571Q202.585 61.1119 202.282 60.3288Q201.978 59.5458 201.467 59.0691Q200.955 58.5923 200.332 58.3793Q199.709 58.1662 199.07 58.1662Q197.962 58.1662 197.133 58.7069Q196.305 59.2475 195.844 60.209Q195.384 61.1705 195.384 62.4276Q195.384 63.6847 195.844 64.6301Q196.305 65.5756 197.16 66.1003ZM237.507 66.625Q236.325 66.625 235.47 66.1003Q234.615 65.5756 234.154 64.6301Q233.693 63.6847 233.693 62.4276Q233.693 61.1705 234.154 60.209Q234.615 59.2475 235.443 58.7069Q236.271 58.1662 237.379 58.1662Q238.018 58.1662 238.642 58.3793Q239.265 58.5923 239.776 59.0691Q240.288 59.5458 240.591 60.3288Q240.895 61.1119 240.895 62.2571L240.895 62.7898L234.956 62.7898Q234.998 64.1001 235.699 64.7979Q236.399 65.4957 237.507 65.4957Q238.248 65.4957 238.78 65.1761Q239.313 64.8565 239.553 64.2173L240.767 64.5582Q240.479 65.4851 239.616 66.055Q238.754 66.625 237.507 66.625ZM255.916 66.625Q254.734 66.625 253.879 66.1003Q253.024 65.5756 252.563 64.6301Q252.102 63.6847 252.102 62.4276Q252.102 61.1705 252.563 60.209Q253.024 59.2475 253.852 58.7069Q254.68 58.1662 255.788 58.1662Q256.428 58.1662 257.051 58.3793Q257.674 58.5923 258.185 59.0691Q258.697 59.5458 259 60.3288Q259.304 61.1119 259.304 62.2571L259.304 62.7898L253.365 62.7898Q253.407 64.1001 254.108 64.7979Q254.808 65.4957 255.916 65.4957Q256.657 65.4957 257.189 65.1761Q257.722 64.8565 257.962 64.2173L259.176 64.5582Q258.888 65.4851 258.026 66.055Q257.163 66.625 255.916 66.625ZM262.436 58.2727L261.222 58.2727L261.222 66.4545L262.479 66.4545L262.479 61.3409Q262.479 60.739 262.737 60.2782Q262.995 59.8175 263.419 59.5565Q263.842 59.2955 264.332 59.2955Q265.046 59.2955 265.499 59.7243Q265.952 60.1531 265.952 60.8508L265.952 66.4545L267.23 66.4545L267.23 61.1278Q267.23 60.3342 267.704 59.8148Q268.178 59.2955 269.041 59.2955Q269.712 59.2955 270.208 59.6843Q270.703 60.0732 270.703 60.9787L270.703 66.4545L271.96 66.4545L271.96 60.9787Q271.96 59.5352 271.262 58.8507Q270.565 58.1662 269.467 58.1662Q268.588 58.1662 267.96 58.5417Q267.331 58.9173 267.017 59.5511L266.932 59.5511Q266.628 58.896 266.088 58.5311Q265.547 58.1662 264.737 58.1662Q263.938 58.1662 263.368 58.5311Q262.798 58.896 262.543 59.5511L262.436 59.5511L262.436 58.2727ZM274.261 69.5227L274.261 58.2727L275.476 58.2727L275.476 59.5724L275.625 59.5724Q275.763 59.3594 276.011 59.0265Q276.259 58.6935 276.725 58.4299Q277.191 58.1662 277.99 58.1662Q279.023 58.1662 279.812 58.6829Q280.6 59.1996 281.042 60.1477Q281.484 61.0959 281.484 62.3849Q281.484 63.6847 281.042 64.6355Q280.6 65.5863 279.817 66.1056Q279.034 66.625 278.011 66.625Q277.223 66.625 276.749 66.3613Q276.275 66.0977 276.019 65.7594Q275.763 65.4212 275.625 65.1974L275.518 65.1974L275.518 69.5227L274.261 69.5227ZM284.795 66.1003Q285.65 66.625 286.832 66.625Q288.079 66.625 288.942 66.055Q289.805 65.4851 290.092 64.5582L288.878 64.2173Q288.638 64.8565 288.105 65.1761Q287.573 65.4957 286.832 65.4957Q285.724 65.4957 285.024 64.7979Q284.323 64.1001 284.281 62.7898L290.22 62.7898L290.22 62.2571Q290.22 61.1119 289.917 60.3288Q289.613 59.5458 289.102 59.0691Q288.59 58.5923 287.967 58.3793Q287.344 58.1662 286.705 58.1662Q285.597 58.1662 284.768 58.7069Q283.94 59.2475 283.479 60.209Q283.018 61.1705 283.018 62.4276Q283.018 63.6847 283.479 64.6301Q283.94 65.5756 284.795 66.1003ZM298.716 66.3507Q299.35 66.6463 300.128 66.6463Q300.842 66.6463 301.337 66.4332Q301.832 66.2202 302.131 65.9165Q302.429 65.6129 302.557 65.3466L302.621 65.3466L302.621 66.4545L303.878 66.4545L303.878 61.0639Q303.878 60.0891 303.558 59.5085Q303.239 58.9279 302.757 58.6403Q302.275 58.3526 301.76 58.2594Q301.246 58.1662 300.852 58.1662Q300.234 58.1662 299.598 58.334Q298.961 58.5018 298.426 58.9199Q297.891 59.3381 297.571 60.0838L298.764 60.5099Q298.972 60.0625 299.483 59.6683Q299.995 59.2741 300.895 59.2741Q301.763 59.2741 302.192 59.7109Q302.621 60.1477 302.621 60.9361L302.621 60.9787Q302.621 61.2823 302.405 61.4048Q302.189 61.5273 301.723 61.5779Q301.257 61.6286 300.511 61.7244Q299.941 61.799 299.379 61.9242Q298.817 62.0494 298.354 62.2997Q297.891 62.5501 297.614 62.9895Q297.337 63.429 297.337 64.1321Q297.337 64.9311 297.71 65.4931Q298.082 66.055 298.716 66.3507ZM327.323 66.1003Q328.178 66.625 329.361 66.625Q330.607 66.625 331.47 66.055Q332.333 65.4851 332.621 64.5582L331.406 64.2173Q331.167 64.8565 330.634 65.1761Q330.101 65.4957 329.361 65.4957Q328.253 65.4957 327.552 64.7979Q326.852 64.1001 326.809 62.7898L332.749 62.7898L332.749 62.2571Q332.749 61.1119 332.445 60.3288Q332.141 59.5458 331.63 59.0691Q331.119 58.5923 330.495 58.3793Q329.872 58.1662 329.233 58.1662Q328.125 58.1662 327.297 58.7069Q326.468 59.2475 326.008 60.209Q325.547 61.1705 325.547 62.4276Q325.547 63.6847 326.008 64.6301Q326.468 65.5756 327.323 66.1003ZM21.4134 66.4545L24.4389 58.2727L23.0753 58.2727L20.8168 64.7926L20.7315 64.7926L18.473 58.2727L17.1094 58.2727L20.1349 66.4545L21.4134 66.4545ZM58.0824 58.2727L59.3395 58.2727L59.3395 66.4545L58.0824 66.4545L58.0824 58.2727ZM91.0227 63.1094L91.0227 58.2727L92.2798 58.2727L92.2798 66.4545L91.0227 66.4545L91.0227 65.0696L90.9375 65.0696Q90.6499 65.6928 90.0426 66.127Q89.4354 66.5611 88.5085 66.5611Q87.3579 66.5611 86.6122 65.7994Q85.8665 65.0376 85.8665 63.4716L85.8665 58.2727L87.1236 58.2727L87.1236 63.3864Q87.1236 64.2813 87.6269 64.8139Q88.1303 65.3466 88.9133 65.3466Q89.3821 65.3466 89.8695 65.1069Q90.3569 64.8672 90.6898 64.3718Q91.0227 63.8764 91.0227 63.1094ZM117.187 58.2727L118.445 58.2727L118.445 66.4545L117.187 66.4545L117.187 58.2727ZM191.08 66.4545L189.801 66.4545L186.776 58.2727L188.139 58.2727L190.398 64.7926L190.483 64.7926L192.741 58.2727L194.105 58.2727L191.08 66.4545ZM316.79 58.2727L316.79 63.1094Q316.79 63.8764 316.457 64.3718Q316.124 64.8672 315.637 65.1069Q315.149 65.3466 314.68 65.3466Q313.897 65.3466 313.394 64.8139Q312.891 64.2813 312.891 63.3864L312.891 58.2727L311.634 58.2727L311.634 63.4716Q311.634 65.0376 312.379 65.7994Q313.125 66.5611 314.276 66.5611Q315.202 66.5611 315.81 66.127Q316.417 65.6928 316.705 65.0696L316.79 65.0696L316.79 66.4545L318.047 66.4545L318.047 58.2727L316.79 58.2727ZM63.481 64.6248Q62.8764 63.7539 62.8764 62.3636Q62.8764 60.9893 63.473 60.1424Q64.0696 59.2955 65.2202 59.2955Q66.0192 59.2955 66.5492 59.7029Q67.0792 60.1104 67.3429 60.8056Q67.6065 61.5007 67.6065 62.3636Q67.6065 63.2372 67.3375 63.9483Q67.0685 64.6594 66.5385 65.0776Q66.0085 65.4957 65.2202 65.4957Q64.0856 65.4957 63.481 64.6248ZM125.455 65.0643Q124.911 65.4957 124.07 65.4957Q123.228 65.4957 122.685 65.0643Q122.141 64.6328 121.88 63.9297Q121.619 63.2266 121.619 62.4063Q121.619 61.5859 121.88 60.8775Q122.141 60.169 122.685 59.7322Q123.228 59.2955 124.07 59.2955Q124.911 59.2955 125.455 59.7322Q125.998 60.169 126.259 60.8775Q126.52 61.5859 126.52 62.4063Q126.52 63.2266 126.259 63.9297Q125.998 64.6328 125.455 65.0643ZM151.47 65.4957Q152.312 65.4957 152.855 65.0643Q153.398 64.6328 153.659 63.9297Q153.92 63.2266 153.92 62.4063Q153.92 61.5859 153.659 60.8775Q153.398 60.169 152.855 59.7322Q152.312 59.2955 151.47 59.2955Q150.629 59.2955 150.085 59.7322Q149.542 60.169 149.281 60.8775Q149.02 61.5859 149.02 62.4063Q149.02 63.2266 149.281 63.9297Q149.542 64.6328 150.085 65.0643Q150.629 65.4957 151.47 65.4957ZM173.011 65.4957Q173.853 65.4957 174.396 65.0643Q174.94 64.6328 175.201 63.9297Q175.462 63.2266 175.462 62.4063Q175.462 61.5859 175.201 60.8775Q174.94 60.169 174.396 59.7322Q173.853 59.2955 173.011 59.2955Q172.17 59.2955 171.626 59.7322Q171.083 60.169 170.822 60.8775Q170.561 61.5859 170.561 62.4063Q170.561 63.2266 170.822 63.9297Q171.083 64.6328 171.626 65.0643Q172.17 65.4957 173.011 65.4957ZM201.307 61.7031L196.646 61.7031Q196.689 61.0692 196.992 60.5179Q197.296 59.9666 197.823 59.631Q198.351 59.2955 199.07 59.2955Q200.092 59.2955 200.7 59.9799Q201.307 60.6644 201.307 61.7031ZM234.956 61.7031L239.616 61.7031Q239.616 60.6644 239.009 59.9799Q238.402 59.2955 237.379 59.2955Q236.66 59.2955 236.133 59.631Q235.605 59.9666 235.302 60.5179Q234.998 61.0692 234.956 61.7031ZM253.365 61.7031L258.026 61.7031Q258.026 60.6644 257.418 59.9799Q256.811 59.2955 255.788 59.2955Q255.069 59.2955 254.542 59.631Q254.015 59.9666 253.711 60.5179Q253.407 61.0692 253.365 61.7031ZM275.497 62.3636Q275.497 63.7539 276.102 64.6248Q276.706 65.4957 277.841 65.4957Q278.629 65.4957 279.159 65.0776Q279.689 64.6594 279.958 63.9483Q280.227 63.2372 280.227 62.3636Q280.227 61.5007 279.964 60.8056Q279.7 60.1104 279.17 59.7029Q278.64 59.2955 277.841 59.2955Q276.69 59.2955 276.094 60.1424Q275.497 60.9893 275.497 62.3636ZM288.942 61.7031L284.281 61.7031Q284.323 61.0692 284.627 60.5179Q284.931 59.9666 285.458 59.631Q285.985 59.2955 286.705 59.2955Q287.727 59.2955 288.335 59.9799Q288.942 60.6644 288.942 61.7031ZM331.47 61.7031L326.809 61.7031Q326.852 61.0692 327.156 60.5179Q327.459 59.9666 327.987 59.631Q328.514 59.2955 329.233 59.2955Q330.256 59.2955 330.863 59.9799Q331.47 60.6644 331.47 61.7031ZM11.8892 65.517Q12.6349 65.517 13.149 65.2241Q13.663 64.9311 13.9267 64.4677Q14.1903 64.0043 14.1903 63.4929L14.1903 62.3423Q14.1104 62.4382 13.8414 62.5154Q13.5724 62.5927 13.2235 62.6486Q12.8746 62.7045 12.5471 62.7445Q12.2195 62.7844 12.017 62.8111Q11.527 62.875 11.1035 63.0162Q10.68 63.1573 10.4217 63.437Q10.1634 63.7166 10.1634 64.196Q10.1634 64.8512 10.6507 65.1841Q11.1381 65.517 11.8892 65.517ZM28.7003 65.517Q29.446 65.517 29.96 65.2241Q30.4741 64.9311 30.7377 64.4677Q31.0014 64.0043 31.0014 63.4929L31.0014 62.3423Q30.9215 62.4382 30.6525 62.5154Q30.3835 62.5927 30.0346 62.6486Q29.6857 62.7045 29.3581 62.7445Q29.0305 62.7844 28.8281 62.8111Q28.3381 62.875 27.9146 63.0162Q27.4911 63.1573 27.2328 63.437Q26.9744 63.7166 26.9744 64.196Q26.9744 64.8512 27.4618 65.1841Q27.9492 65.517 28.7003 65.517ZM301.579 65.2241Q301.065 65.517 300.32 65.517Q299.569 65.517 299.081 65.1841Q298.594 64.8512 298.594 64.196Q298.594 63.7166 298.852 63.437Q299.11 63.1573 299.534 63.0162Q299.957 62.875 300.447 62.8111Q300.65 62.7844 300.977 62.7445Q301.305 62.7045 301.654 62.6486Q302.003 62.5927 302.272 62.5154Q302.541 62.4382 302.621 62.3423L302.621 63.4929Q302.621 64.0043 302.357 64.4677Q302.093 64.9311 301.579 65.2241Z" />
        </g>
        <g id="value-from-Celsius-to-Fahrenheit.">
          <path d="M46.8324 76.2727L46.8324 77.3381L45 77.3381L45 84.4545L43.7429 84.4545L43.7429 77.3381L42.4219 77.3381L42.4219 76.2727L43.7429 76.2727L43.7429 75.1435Q43.7429 74.4403 44.0732 73.9716Q44.4034 73.5028 44.9308 73.2685Q45.4581 73.0341 46.044 73.0341Q46.5075 73.0341 46.8004 73.1087Q47.0934 73.1832 47.2372 73.2472L46.875 74.3338Q46.7791 74.3018 46.6113 74.2539Q46.4435 74.206 46.1719 74.206Q45.5487 74.206 45.2743 74.5202Q45 74.8345 45 75.4418L45 76.2727L46.8324 76.2727ZM112.074 74.9091Q111.706 74.9091 111.443 74.6587Q111.179 74.4084 111.179 74.0568Q111.179 73.7053 111.443 73.4549Q111.706 73.2045 112.074 73.2045Q112.441 73.2045 112.705 73.4549Q112.969 73.7053 112.969 74.0568Q112.969 74.4084 112.705 74.6587Q112.441 74.9091 112.074 74.9091ZM221.215 74.6587Q221.479 74.9091 221.847 74.9091Q222.214 74.9091 222.478 74.6587Q222.741 74.4084 222.741 74.0568Q222.741 73.7053 222.478 73.4549Q222.214 73.2045 221.847 73.2045Q221.479 73.2045 221.215 73.4549Q220.952 73.7053 220.952 74.0568Q220.952 74.4084 221.215 74.6587ZM89.3395 76.9545L88.0185 76.9545Q87.8587 76.1982 87.4059 75.6815Q86.9531 75.1648 86.3139 74.8984Q85.6747 74.6321 84.9503 74.6321Q83.9595 74.6321 83.1579 75.1328Q82.3562 75.6335 81.8848 76.6083Q81.4134 77.5831 81.4134 79Q81.4134 80.4169 81.8848 81.3917Q82.3562 82.3665 83.1579 82.8672Q83.9595 83.3679 84.9503 83.3679Q85.6747 83.3679 86.3139 83.1016Q86.9531 82.8352 87.4059 82.3185Q87.8587 81.8018 88.0185 81.0455L89.3395 81.0455Q89.1371 82.1641 88.5139 82.9604Q87.8906 83.7567 86.9691 84.1802Q86.0476 84.6037 84.9503 84.6037Q83.5547 84.6037 82.468 83.9219Q81.3814 83.2401 80.7582 81.983Q80.1349 80.7259 80.1349 79Q80.1349 77.2741 80.7582 76.017Q81.3814 74.7599 82.468 74.0781Q83.5547 73.3963 84.9503 73.3963Q86.0476 73.3963 86.9691 73.8198Q87.8906 74.2432 88.5139 75.0396Q89.1371 75.8359 89.3395 76.9545ZM19.2188 84.4545L19.2188 73.5455L17.9616 73.5455L17.9616 84.4545L19.2188 84.4545ZM101.293 84.4545L100.036 84.4545L100.036 73.5455L101.293 73.5455L101.293 84.4545ZM161.101 73.5455L154.56 73.5455L154.56 84.4545L155.881 84.4545L155.881 79.5753L160.611 79.5753L160.611 78.4034L155.881 78.4034L155.881 74.7173L161.101 74.7173L161.101 73.5455ZM172.905 84.4545L172.905 79.5327Q172.905 78.462 173.515 77.8787Q174.125 77.2955 175.057 77.2955Q175.946 77.2955 176.45 77.8308Q176.953 78.3661 176.953 79.3409L176.953 84.4545L178.21 84.4545L178.21 79.2557Q178.21 77.679 177.443 76.9226Q176.676 76.1662 175.419 76.1662Q174.455 76.1662 173.877 76.5417Q173.299 76.9173 173.011 77.5511L172.905 77.5511L172.905 73.5455L171.648 73.5455L171.648 84.4545L172.905 84.4545ZM204.865 84.4545L204.865 79.5327Q204.865 78.462 205.475 77.8787Q206.085 77.2955 207.017 77.2955Q207.907 77.2955 208.41 77.8308Q208.913 78.3661 208.913 79.3409L208.913 84.4545L210.17 84.4545L210.17 79.2557Q210.17 77.679 209.403 76.9226Q208.636 76.1662 207.379 76.1662Q206.415 76.1662 205.837 76.5417Q205.259 76.9173 204.972 77.5511L204.865 77.5511L204.865 73.5455L203.608 73.5455L203.608 84.4545L204.865 84.4545ZM139.325 77.3381L139.325 76.2727L137.578 76.2727L137.578 74.3125L136.321 74.3125L136.321 76.2727L135.085 76.2727L135.085 77.3381L136.321 77.3381L136.321 82.4517Q136.321 83.1655 136.654 83.6342Q136.987 84.103 137.496 84.332Q138.004 84.5611 138.537 84.5611Q138.888 84.5611 139.118 84.5105Q139.347 84.4599 139.474 84.4119L139.219 83.2827Q139.139 83.2987 139.006 83.3226Q138.873 83.3466 138.665 83.3466Q138.388 83.3466 138.14 83.2587Q137.892 83.1708 137.735 82.9071Q137.578 82.6435 137.578 82.1108L137.578 77.3381L139.325 77.3381ZM228.324 76.2727L228.324 77.3381L226.577 77.3381L226.577 82.1108Q226.577 82.6435 226.734 82.9071Q226.891 83.1708 227.139 83.2587Q227.386 83.3466 227.663 83.3466Q227.871 83.3466 228.004 83.3226Q228.137 83.2987 228.217 83.2827L228.473 84.4119Q228.345 84.4599 228.116 84.5105Q227.887 84.5611 227.535 84.5611Q227.003 84.5611 226.494 84.332Q225.985 84.103 225.652 83.6342Q225.32 83.1655 225.32 82.4517L225.32 77.3381L224.084 77.3381L224.084 76.2727L225.32 76.2727L225.32 74.3125L226.577 74.3125L226.577 76.2727L228.324 76.2727ZM48.6009 76.2727L48.6009 84.4545L49.858 84.4545L49.858 79.277Q49.858 78.446 50.4439 77.9027Q51.0298 77.3594 51.9247 77.3594Q52.1751 77.3594 52.4015 77.394Q52.6278 77.4286 52.6918 77.4446L52.6918 76.1662Q52.5852 76.1555 52.3775 76.1502Q52.1697 76.1449 52.0313 76.1449Q51.2962 76.1449 50.7102 76.5231Q50.1243 76.9013 49.9006 77.5085L49.8153 77.5085L49.8153 76.2727L48.6009 76.2727ZM180.511 84.4545L180.511 76.2727L181.726 76.2727L181.726 77.5085L181.811 77.5085Q182.035 76.9013 182.621 76.5231Q183.207 76.1449 183.942 76.1449Q184.08 76.1449 184.288 76.1502Q184.496 76.1555 184.602 76.1662L184.602 77.4446Q184.538 77.4286 184.312 77.394Q184.086 77.3594 183.835 77.3594Q182.94 77.3594 182.354 77.9027Q181.768 78.446 181.768 79.277L181.768 84.4545L180.511 84.4545ZM11.9105 84.6463Q11.1328 84.6463 10.4989 84.3507Q9.86506 84.055 9.49219 83.4931Q9.11932 82.9311 9.11932 82.1321Q9.11932 81.429 9.39631 80.9895Q9.6733 80.5501 10.1367 80.2997Q10.6001 80.0494 11.1621 79.9242Q11.7241 79.799 12.294 79.7244Q13.0398 79.6285 13.5059 79.5779Q13.9719 79.5273 14.1877 79.4048Q14.4034 79.2823 14.4034 78.9787L14.4034 78.9361Q14.4034 78.1477 13.9746 77.7109Q13.5458 77.2741 12.6776 77.2741Q11.7773 77.2741 11.266 77.6683Q10.7546 78.0625 10.5469 78.5099L9.35369 78.0838Q9.6733 77.3381 10.2086 76.9199Q10.744 76.5018 11.3805 76.334Q12.017 76.1662 12.6349 76.1662Q13.0291 76.1662 13.5431 76.2594Q14.0572 76.3526 14.5392 76.6403Q15.0213 76.9279 15.3409 77.5085Q15.6605 78.0891 15.6605 79.0639L15.6605 84.4545L14.4034 84.4545L14.4034 83.3466L14.3395 83.3466Q14.2116 83.6129 13.9134 83.9165Q13.6151 84.2202 13.1197 84.4332Q12.6243 84.6463 11.9105 84.6463ZM31.6273 84.1003Q32.4822 84.625 33.6648 84.625Q34.9112 84.625 35.7742 84.055Q36.6371 83.4851 36.9247 82.5582L35.7102 82.2173Q35.4705 82.8565 34.9379 83.1761Q34.4052 83.4957 33.6648 83.4957Q32.5568 83.4957 31.8564 82.7979Q31.1559 82.1001 31.1133 80.7898L37.0526 80.7898L37.0526 80.2571Q37.0526 79.1119 36.7489 78.3288Q36.4453 77.5458 35.934 77.0691Q35.4226 76.5923 34.7994 76.3793Q34.1761 76.1662 33.5369 76.1662Q32.429 76.1662 31.6007 76.7068Q30.7724 77.2475 30.3116 78.209Q29.8509 79.1705 29.8509 80.4276Q29.8509 81.6847 30.3116 82.6301Q30.7724 83.5756 31.6273 84.1003ZM57.5071 84.625Q56.3992 84.625 55.5655 84.0977Q54.7319 83.5703 54.2658 82.6222Q53.7997 81.674 53.7997 80.4063Q53.7997 79.1278 54.2658 78.1744Q54.7319 77.2209 55.5655 76.6935Q56.3992 76.1662 57.5071 76.1662Q58.6151 76.1662 59.4487 76.6935Q60.2823 77.2209 60.7484 78.1744Q61.2145 79.1278 61.2145 80.4063Q61.2145 81.674 60.7484 82.6222Q60.2823 83.5703 59.4487 84.0977Q58.6151 84.625 57.5071 84.625ZM63.1321 76.2727L63.1321 84.4545L64.3892 84.4545L64.3892 79.3409Q64.3892 78.739 64.6476 78.2782Q64.9059 77.8175 65.3294 77.5565Q65.7528 77.2955 66.2429 77.2955Q66.9567 77.2955 67.4094 77.7243Q67.8622 78.1531 67.8622 78.8509L67.8622 84.4545L69.1406 84.4545L69.1406 79.1278Q69.1406 78.3342 69.6147 77.8148Q70.0888 77.2955 70.9517 77.2955Q71.6229 77.2955 72.1183 77.6843Q72.6136 78.0732 72.6136 78.9787L72.6136 84.4545L73.8707 84.4545L73.8707 78.9787Q73.8707 77.5352 73.1729 76.8507Q72.4751 76.1662 71.3778 76.1662Q70.4989 76.1662 69.8704 76.5417Q69.2418 76.9173 68.9276 77.5511L68.8423 77.5511Q68.5387 76.896 67.998 76.5311Q67.4574 76.1662 66.6477 76.1662Q65.8487 76.1662 65.2788 76.5311Q64.7088 76.896 64.4531 77.5511L64.3466 77.5511L64.3466 76.2727L63.1321 76.2727ZM92.6926 84.1003Q93.5476 84.625 94.7301 84.625Q95.9766 84.625 96.8395 84.055Q97.7024 83.4851 97.9901 82.5582L96.7756 82.2173Q96.5359 82.8565 96.0032 83.1761Q95.4705 83.4957 94.7301 83.4957Q93.6222 83.4957 92.9217 82.7979Q92.2212 82.1001 92.1786 80.7898L98.1179 80.7898L98.1179 80.2571Q98.1179 79.1119 97.8143 78.3288Q97.5107 77.5458 96.9993 77.0691Q96.4879 76.5923 95.8647 76.3793Q95.2415 76.1662 94.6023 76.1662Q93.4943 76.1662 92.666 76.7068Q91.8377 77.2475 91.377 78.209Q90.9162 79.1705 90.9162 80.4276Q90.9162 81.6847 91.377 82.6301Q91.8377 83.5756 92.6926 84.1003ZM108.26 78.4247L109.389 78.1051Q109.096 77.2315 108.401 76.6989Q107.706 76.1662 106.491 76.1662Q105.629 76.1662 104.949 76.4698Q104.27 76.7734 103.879 77.3061Q103.487 77.8388 103.487 78.5313Q103.487 79.3782 104.012 79.9402Q104.537 80.5021 105.661 80.7685L107.024 81.0881Q108.239 81.3704 108.239 82.2386Q108.239 82.766 107.719 83.1415Q107.2 83.517 106.321 83.517Q104.76 83.517 104.425 82.196L103.232 82.4943Q103.45 83.5384 104.27 84.0817Q105.091 84.625 106.342 84.625Q107.296 84.625 108.015 84.3054Q108.734 83.9858 109.136 83.4318Q109.538 82.8778 109.538 82.1747Q109.538 80.4915 107.365 79.9588L106.151 79.6605Q105.426 79.4794 105.085 79.2077Q104.744 78.9361 104.744 78.4673Q104.744 77.94 105.242 77.5964Q105.74 77.2528 106.491 77.2528Q107.317 77.2528 107.706 77.6257Q108.095 77.9986 108.26 78.4247ZM129.503 78.1051L128.374 78.4247Q128.208 77.9986 127.82 77.6257Q127.431 77.2528 126.605 77.2528Q125.854 77.2528 125.356 77.5964Q124.858 77.94 124.858 78.4673Q124.858 78.9361 125.199 79.2077Q125.54 79.4794 126.264 79.6605L127.479 79.9588Q129.652 80.4915 129.652 82.1747Q129.652 82.8778 129.25 83.4318Q128.848 83.9858 128.129 84.3054Q127.409 84.625 126.456 84.625Q125.204 84.625 124.384 84.0817Q123.564 83.5384 123.345 82.4943L124.538 82.196Q124.874 83.517 126.435 83.517Q127.314 83.517 127.833 83.1415Q128.352 82.766 128.352 82.2386Q128.352 81.3704 127.138 81.0881L125.774 80.7685Q124.65 80.5021 124.126 79.9402Q123.601 79.3782 123.601 78.5313Q123.601 77.8388 123.992 77.3061Q124.384 76.7734 125.063 76.4698Q125.742 76.1662 126.605 76.1662Q127.82 76.1662 128.515 76.6989Q129.21 77.2315 129.503 78.1051ZM144.545 84.625Q143.437 84.625 142.604 84.0977Q141.77 83.5703 141.304 82.6222Q140.838 81.674 140.838 80.4063Q140.838 79.1278 141.304 78.1744Q141.77 77.2209 142.604 76.6935Q143.437 76.1662 144.545 76.1662Q145.653 76.1662 146.487 76.6935Q147.321 77.2209 147.787 78.1744Q148.253 79.1278 148.253 80.4063Q148.253 81.674 147.787 82.6222Q147.321 83.5703 146.487 84.0977Q145.653 84.625 144.545 84.625ZM165.597 84.6463Q164.819 84.6463 164.185 84.3507Q163.551 84.055 163.178 83.4931Q162.805 82.9311 162.805 82.1321Q162.805 81.429 163.082 80.9895Q163.359 80.5501 163.823 80.2997Q164.286 80.0494 164.848 79.9242Q165.41 79.799 165.98 79.7244Q166.726 79.6285 167.192 79.5779Q167.658 79.5273 167.874 79.4048Q168.089 79.2823 168.089 78.9787L168.089 78.9361Q168.089 78.1477 167.661 77.7109Q167.232 77.2741 166.364 77.2741Q165.463 77.2741 164.952 77.6683Q164.441 78.0625 164.233 78.5099L163.04 78.0838Q163.359 77.3381 163.895 76.9199Q164.43 76.5018 165.067 76.334Q165.703 76.1662 166.321 76.1662Q166.715 76.1662 167.229 76.2594Q167.743 76.3526 168.225 76.6403Q168.707 76.9279 169.027 77.5085Q169.347 78.0891 169.347 79.0639L169.347 84.4545L168.089 84.4545L168.089 83.3466L168.026 83.3466Q167.898 83.6129 167.599 83.9165Q167.301 84.2202 166.806 84.4332Q166.31 84.6463 165.597 84.6463ZM187.487 84.1003Q188.342 84.625 189.524 84.625Q190.771 84.625 191.633 84.055Q192.496 83.4851 192.784 82.5582L191.57 82.2173Q191.33 82.8565 190.797 83.1761Q190.265 83.4957 189.524 83.4957Q188.416 83.4957 187.716 82.7979Q187.015 82.1001 186.973 80.7898L192.912 80.7898L192.912 80.2571Q192.912 79.1119 192.608 78.3288Q192.305 77.5458 191.793 77.0691Q191.282 76.5923 190.659 76.3793Q190.035 76.1662 189.396 76.1662Q188.288 76.1662 187.46 76.7068Q186.632 77.2475 186.171 78.209Q185.71 79.1705 185.71 80.4276Q185.71 81.6847 186.171 82.6301Q186.632 83.5756 187.487 84.1003ZM196.087 79.5327L196.087 84.4545L194.83 84.4545L194.83 76.2727L196.044 76.2727L196.044 77.5511L196.151 77.5511Q196.438 76.9279 197.024 76.5471Q197.61 76.1662 198.537 76.1662Q199.778 76.1662 200.542 76.9279Q201.307 77.6896 201.307 79.2557L201.307 84.4545L200.05 84.4545L200.05 79.3409Q200.05 78.3768 199.549 77.8361Q199.048 77.2955 198.175 77.2955Q197.274 77.2955 196.681 77.8787Q196.087 78.462 196.087 79.5327ZM215.902 84.625Q214.719 84.625 213.865 84.1003Q213.01 83.5756 212.549 82.6301Q212.088 81.6847 212.088 80.4276Q212.088 79.1705 212.549 78.209Q213.01 77.2475 213.838 76.7068Q214.666 76.1662 215.774 76.1662Q216.413 76.1662 217.037 76.3793Q217.66 76.5923 218.171 77.0691Q218.683 77.5458 218.986 78.3288Q219.29 79.1119 219.29 80.2571L219.29 80.7898L213.35 80.7898Q213.393 82.1001 214.094 82.7979Q214.794 83.4957 215.902 83.4957Q216.642 83.4957 217.175 83.1761Q217.708 82.8565 217.947 82.2173L219.162 82.5582Q218.874 83.4851 218.011 84.055Q217.148 84.625 215.902 84.625ZM7.84091 76.2727L4.81534 84.4545L3.53693 84.4545L0.511364 76.2727L1.875 76.2727L4.13352 82.7926L4.21875 82.7926L6.47727 76.2727L7.84091 76.2727ZM26.6761 81.1094L26.6761 76.2727L27.9332 76.2727L27.9332 84.4545L26.6761 84.4545L26.6761 83.0696L26.5909 83.0696Q26.3033 83.6928 25.696 84.127Q25.0888 84.5611 24.1619 84.5611Q23.0114 84.5611 22.2656 83.7994Q21.5199 83.0376 21.5199 81.4716L21.5199 76.2727L22.777 76.2727L22.777 81.3864Q22.777 82.2813 23.2804 82.8139Q23.7837 83.3466 24.5668 83.3466Q25.0355 83.3466 25.5229 83.1069Q26.0103 82.8672 26.3432 82.3718Q26.6761 81.8764 26.6761 81.1094ZM111.435 84.4545L111.435 76.2727L112.692 76.2727L112.692 84.4545L111.435 84.4545ZM120.149 76.2727L120.149 81.1094Q120.149 81.8764 119.816 82.3718Q119.483 82.8672 118.996 83.1069Q118.509 83.3466 118.04 83.3466Q117.257 83.3466 116.753 82.8139Q116.25 82.2813 116.25 81.3864L116.25 76.2727L114.993 76.2727L114.993 81.4716Q114.993 83.0376 115.739 83.7994Q116.484 84.5611 117.635 84.5611Q118.562 84.5611 119.169 84.127Q119.776 83.6928 120.064 83.0696L120.149 83.0696L120.149 84.4545L121.406 84.4545L121.406 76.2727L120.149 76.2727ZM221.207 76.2727L221.207 84.4545L222.464 84.4545L222.464 76.2727L221.207 76.2727ZM35.7742 79.7031L31.1133 79.7031Q31.1559 79.0692 31.4595 78.5179Q31.7631 77.9666 32.2905 77.631Q32.8178 77.2955 33.5369 77.2955Q34.5597 77.2955 35.1669 77.9799Q35.7742 78.6644 35.7742 79.7031ZM57.5071 83.4957Q58.3487 83.4957 58.892 83.0643Q59.4354 82.6328 59.6964 81.9297Q59.9574 81.2266 59.9574 80.4063Q59.9574 79.5859 59.6964 78.8775Q59.4354 78.169 58.892 77.7322Q58.3487 77.2955 57.5071 77.2955Q56.6655 77.2955 56.1222 77.7322Q55.5788 78.169 55.3178 78.8775Q55.0568 79.5859 55.0568 80.4063Q55.0568 81.2266 55.3178 81.9297Q55.5788 82.6328 56.1222 83.0643Q56.6655 83.4957 57.5071 83.4957ZM96.8395 79.7031L92.1786 79.7031Q92.2212 79.0692 92.5249 78.5179Q92.8285 77.9666 93.3558 77.631Q93.8832 77.2955 94.6023 77.2955Q95.625 77.2955 96.2322 77.9799Q96.8395 78.6644 96.8395 79.7031ZM144.545 83.4957Q145.387 83.4957 145.93 83.0643Q146.474 82.6328 146.735 81.9297Q146.996 81.2266 146.996 80.4063Q146.996 79.5859 146.735 78.8775Q146.474 78.169 145.93 77.7322Q145.387 77.2955 144.545 77.2955Q143.704 77.2955 143.161 77.7322Q142.617 78.169 142.356 78.8775Q142.095 79.5859 142.095 80.4063Q142.095 81.2266 142.356 81.9297Q142.617 82.6328 143.161 83.0643Q143.704 83.4957 144.545 83.4957ZM191.633 79.7031L186.973 79.7031Q187.015 79.0692 187.319 78.5179Q187.622 77.9666 188.15 77.631Q188.677 77.2955 189.396 77.2955Q190.419 77.2955 191.026 77.9799Q191.633 78.6644 191.633 79.7031ZM213.35 79.7031L218.011 79.7031Q218.011 78.6644 217.404 77.9799Q216.797 77.2955 215.774 77.2955Q215.055 77.2955 214.528 77.631Q214 77.9666 213.697 78.5179Q213.393 79.0692 213.35 79.7031ZM12.1023 83.517Q12.848 83.517 13.362 83.2241Q13.8761 82.9311 14.1397 82.4677Q14.4034 82.0043 14.4034 81.4929L14.4034 80.3423Q14.3235 80.4382 14.0545 80.5154Q13.7855 80.5927 13.4366 80.6486Q13.0877 80.7045 12.7601 80.7445Q12.4325 80.7844 12.2301 80.8111Q11.7401 80.875 11.3166 81.0162Q10.8931 81.1573 10.6348 81.437Q10.3764 81.7166 10.3764 82.196Q10.3764 82.8512 10.8638 83.1841Q11.3512 83.517 12.1023 83.517ZM165.788 83.517Q166.534 83.517 167.048 83.2241Q167.562 82.9311 167.826 82.4677Q168.089 82.0043 168.089 81.4929L168.089 80.3423Q168.01 80.4382 167.741 80.5154Q167.472 80.5927 167.123 80.6486Q166.774 80.7045 166.446 80.7445Q166.119 80.7844 165.916 80.8111Q165.426 80.875 165.003 81.0162Q164.579 81.1573 164.321 81.437Q164.063 81.7166 164.063 82.196Q164.063 82.8512 164.55 83.1841Q165.037 83.517 165.788 83.517ZM230.46 84.2575Q230.742 84.5398 231.136 84.5398Q231.531 84.5398 231.813 84.2575Q232.095 83.9751 232.095 83.581Q232.095 83.1868 231.813 82.9045Q231.531 82.6222 231.136 82.6222Q230.742 82.6222 230.46 82.9045Q230.178 83.1868 230.178 83.581Q230.178 83.9751 230.46 84.2575Z" />
        </g>
        <g id="Assume-that-the-temperature-value-is-100.">
          <path d="M255.938 92.9091Q255.57 92.9091 255.306 92.6587Q255.043 92.4084 255.043 92.0568Q255.043 91.7053 255.306 91.4549Q255.57 91.2045 255.938 91.2045Q256.305 91.2045 256.569 91.4549Q256.832 91.7053 256.832 92.0568Q256.832 92.4084 256.569 92.6587Q256.305 92.9091 255.938 92.9091ZM278.621 101.139Q279.615 102.604 281.42 102.604Q283.226 102.604 284.22 101.139Q285.213 99.674 285.213 97Q285.213 94.3473 284.212 92.8718Q283.21 91.3963 281.42 91.3963Q279.631 91.3963 278.629 92.8718Q277.628 94.3473 277.628 97Q277.628 99.674 278.621 101.139ZM290.795 102.604Q288.99 102.604 287.996 101.139Q287.003 99.674 287.003 97Q287.003 94.3473 288.004 92.8718Q289.006 91.3963 290.795 91.3963Q292.585 91.3963 293.587 92.8718Q294.588 94.3473 294.588 97Q294.588 99.674 293.595 101.139Q292.601 102.604 290.795 102.604ZM1.76847 102.455L0.383523 102.455L4.3892 91.5455L5.75284 91.5455L9.75852 102.455L8.37358 102.455L7.27628 99.3651L2.86577 99.3651L1.76847 102.455ZM68.3949 97.5327L68.3949 102.455L67.1378 102.455L67.1378 91.5455L68.3949 91.5455L68.3949 95.5511L68.5014 95.5511Q68.7891 94.9173 69.367 94.5417Q69.945 94.1662 70.9091 94.1662Q72.1662 94.1662 72.9332 94.9226Q73.7003 95.679 73.7003 97.2557L73.7003 102.455L72.4432 102.455L72.4432 97.3409Q72.4432 96.3661 71.9398 95.8308Q71.4364 95.2955 70.5469 95.2955Q69.6147 95.2955 69.0048 95.8787Q68.3949 96.462 68.3949 97.5327ZM100.845 97.5327L100.845 102.455L99.5881 102.455L99.5881 91.5455L100.845 91.5455L100.845 95.5511L100.952 95.5511Q101.239 94.9173 101.817 94.5417Q102.395 94.1662 103.359 94.1662Q104.616 94.1662 105.384 94.9226Q106.151 95.679 106.151 97.2557L106.151 102.455L104.893 102.455L104.893 97.3409Q104.893 96.3661 104.39 95.8308Q103.887 95.2955 102.997 95.2955Q102.065 95.2955 101.455 95.8787Q100.845 96.462 100.845 97.5327ZM231.328 102.455L231.328 91.5455L230.071 91.5455L230.071 102.455L231.328 102.455ZM274.73 91.5455L274.73 102.455L273.409 102.455L273.409 92.9304L273.345 92.9304L270.682 94.6989L270.682 93.3565L273.409 91.5455L274.73 91.5455ZM65.2415 95.3381L65.2415 94.2727L63.4943 94.2727L63.4943 92.3125L62.2372 92.3125L62.2372 94.2727L61.0014 94.2727L61.0014 95.3381L62.2372 95.3381L62.2372 100.452Q62.2372 101.165 62.5701 101.634Q62.9031 102.103 63.4118 102.332Q63.9205 102.561 64.4531 102.561Q64.8047 102.561 65.0337 102.51Q65.2628 102.46 65.3906 102.412L65.1349 101.283Q65.055 101.299 64.9219 101.323Q64.7887 101.347 64.581 101.347Q64.304 101.347 64.0563 101.259Q63.8086 101.171 63.6515 100.907Q63.4943 100.643 63.4943 100.111L63.4943 95.3381L65.2415 95.3381ZM88.0185 94.2727L88.0185 95.3381L86.2713 95.3381L86.2713 100.111Q86.2713 100.643 86.4284 100.907Q86.5856 101.171 86.8333 101.259Q87.081 101.347 87.3579 101.347Q87.5657 101.347 87.6989 101.323Q87.832 101.299 87.9119 101.283L88.1676 102.412Q88.0398 102.46 87.8107 102.51Q87.5817 102.561 87.2301 102.561Q86.6974 102.561 86.1887 102.332Q85.68 102.103 85.3471 101.634Q85.0142 101.165 85.0142 100.452L85.0142 95.3381L83.7784 95.3381L83.7784 94.2727L85.0142 94.2727L85.0142 92.3125L86.2713 92.3125L86.2713 94.2727L88.0185 94.2727ZM97.6918 95.3381L97.6918 94.2727L95.9446 94.2727L95.9446 92.3125L94.6875 92.3125L94.6875 94.2727L93.4517 94.2727L93.4517 95.3381L94.6875 95.3381L94.6875 100.452Q94.6875 101.165 95.0204 101.634Q95.3533 102.103 95.862 102.332Q96.3707 102.561 96.9034 102.561Q97.255 102.561 97.484 102.51Q97.7131 102.46 97.8409 102.412L97.5852 101.283Q97.5053 101.299 97.3722 101.323Q97.239 101.347 97.0312 101.347Q96.7543 101.347 96.5066 101.259Q96.2589 101.171 96.1017 100.907Q95.9446 100.643 95.9446 100.111L95.9446 95.3381L97.6918 95.3381ZM124.964 94.2727L124.964 95.3381L123.217 95.3381L123.217 100.111Q123.217 100.643 123.374 100.907Q123.532 101.171 123.779 101.259Q124.027 101.347 124.304 101.347Q124.512 101.347 124.645 101.323Q124.778 101.299 124.858 101.283L125.114 102.412Q124.986 102.46 124.757 102.51Q124.528 102.561 124.176 102.561Q123.643 102.561 123.135 102.332Q122.626 102.103 122.293 101.634Q121.96 101.165 121.96 100.452L121.96 95.3381L120.724 95.3381L120.724 94.2727L121.96 94.2727L121.96 92.3125L123.217 92.3125L123.217 94.2727L124.964 94.2727ZM184.112 95.3381L184.112 94.2727L182.365 94.2727L182.365 92.3125L181.108 92.3125L181.108 94.2727L179.872 94.2727L179.872 95.3381L181.108 95.3381L181.108 100.452Q181.108 101.165 181.441 101.634Q181.774 102.103 182.282 102.332Q182.791 102.561 183.324 102.561Q183.675 102.561 183.904 102.51Q184.134 102.46 184.261 102.412L184.006 101.283Q183.926 101.299 183.793 101.323Q183.659 101.347 183.452 101.347Q183.175 101.347 182.927 101.259Q182.679 101.171 182.522 100.907Q182.365 100.643 182.365 100.111L182.365 95.3381L184.112 95.3381ZM283.274 100.281Q282.614 101.432 281.42 101.432Q280.233 101.432 279.569 100.281Q278.906 99.1307 278.906 97Q278.906 94.8746 279.572 93.7108Q280.238 92.5469 281.42 92.5469Q282.603 92.5469 283.269 93.7108Q283.935 94.8746 283.935 97Q283.935 99.1307 283.274 100.281ZM290.795 101.432Q291.989 101.432 292.649 100.281Q293.31 99.1307 293.31 97Q293.31 94.8746 292.644 93.7108Q291.978 92.5469 290.795 92.5469Q289.613 92.5469 288.947 93.7108Q288.281 94.8746 288.281 97Q288.281 99.1307 288.944 100.281Q289.608 101.432 290.795 101.432ZM3.28125 98.1932L6.8608 98.1932L5.11364 93.2713L5.02841 93.2713L3.28125 98.1932ZM167.727 94.2727L166.513 94.2727L166.513 102.455L167.77 102.455L167.77 97.277Q167.77 96.446 168.356 95.9027Q168.942 95.3594 169.837 95.3594Q170.087 95.3594 170.313 95.394Q170.54 95.4286 170.604 95.4446L170.604 94.1662Q170.497 94.1555 170.289 94.1502Q170.082 94.1449 169.943 94.1449Q169.208 94.1449 168.622 94.5231Q168.036 94.9013 167.813 95.5085L167.727 95.5085L167.727 94.2727ZM195.937 94.2727L194.723 94.2727L194.723 102.455L195.98 102.455L195.98 97.277Q195.98 96.446 196.566 95.9027Q197.152 95.3594 198.047 95.3594Q198.297 95.3594 198.524 95.394Q198.75 95.4286 198.814 95.4446L198.814 94.1662Q198.707 94.1555 198.5 94.1502Q198.292 94.1449 198.153 94.1449Q197.418 94.1449 196.832 94.5231Q196.246 94.9013 196.023 95.5085L195.937 95.5085L195.937 94.2727ZM17.0881 96.1051L15.9588 96.4247Q15.7937 95.9986 15.4048 95.6257Q15.016 95.2528 14.1903 95.2528Q13.4393 95.2528 12.9412 95.5964Q12.4432 95.94 12.4432 96.4673Q12.4432 96.9361 12.7841 97.2077Q13.125 97.4794 13.8494 97.6605L15.0639 97.9588Q17.2372 98.4915 17.2372 100.175Q17.2372 100.878 16.835 101.432Q16.4329 101.986 15.7138 102.305Q14.9947 102.625 14.0412 102.625Q12.7894 102.625 11.9691 102.082Q11.1488 101.538 10.9304 100.494L12.1236 100.196Q12.4592 101.517 14.0199 101.517Q14.8988 101.517 15.4181 101.142Q15.9375 100.766 15.9375 100.239Q15.9375 99.3704 14.723 99.0881L13.3594 98.7685Q12.2354 98.5021 11.7108 97.9402Q11.1861 97.3782 11.1861 96.5313Q11.1861 95.8388 11.5776 95.3061Q11.9691 94.7734 12.6483 94.4698Q13.3274 94.1662 14.1903 94.1662Q15.4048 94.1662 16.1 94.6989Q16.7951 95.2315 17.0881 96.1051ZM23.7997 96.4247L24.929 96.1051Q24.636 95.2315 23.9409 94.6989Q23.2457 94.1662 22.0313 94.1662Q21.1683 94.1662 20.4892 94.4698Q19.81 94.7734 19.4185 95.3061Q19.027 95.8388 19.027 96.5313Q19.027 97.3782 19.5517 97.9402Q20.0763 98.5021 21.2003 98.7685L22.5639 99.0881Q23.7784 99.3704 23.7784 100.239Q23.7784 100.766 23.2591 101.142Q22.7397 101.517 21.8608 101.517Q20.3001 101.517 19.9645 100.196L18.7713 100.494Q18.9897 101.538 19.81 102.082Q20.6303 102.625 21.8821 102.625Q22.8356 102.625 23.5547 102.305Q24.2738 101.986 24.676 101.432Q25.0781 100.878 25.0781 100.175Q25.0781 98.4915 22.9048 97.9588L21.6903 97.6605Q20.9659 97.4794 20.625 97.2077Q20.2841 96.9361 20.2841 96.4673Q20.2841 95.94 20.7821 95.5964Q21.2802 95.2528 22.0313 95.2528Q22.8569 95.2528 23.2457 95.6257Q23.6346 95.9986 23.7997 96.4247ZM35.6889 94.2727L35.6889 102.455L36.946 102.455L36.946 97.3409Q36.946 96.739 37.2044 96.2782Q37.4627 95.8175 37.8862 95.5565Q38.3097 95.2955 38.7997 95.2955Q39.5135 95.2955 39.9663 95.7243Q40.419 96.1531 40.419 96.8509L40.419 102.455L41.6974 102.455L41.6974 97.1278Q41.6974 96.3342 42.1715 95.8148Q42.6456 95.2955 43.5085 95.2955Q44.1797 95.2955 44.6751 95.6843Q45.1705 96.0732 45.1705 96.9787L45.1705 102.455L46.4276 102.455L46.4276 96.9787Q46.4276 95.5352 45.7298 94.8507Q45.032 94.1662 43.9347 94.1662Q43.0558 94.1662 42.4272 94.5417Q41.7987 94.9173 41.4844 95.5511L41.3991 95.5511Q41.0955 94.896 40.5549 94.5311Q40.0142 94.1662 39.2045 94.1662Q38.4055 94.1662 37.8356 94.5311Q37.2656 94.896 37.0099 95.5511L36.9034 95.5511L36.9034 94.2727L35.6889 94.2727ZM52.1591 102.625Q50.9766 102.625 50.1216 102.1Q49.2667 101.576 48.8059 100.63Q48.3452 99.6847 48.3452 98.4276Q48.3452 97.1705 48.8059 96.209Q49.2667 95.2475 50.095 94.7068Q50.9233 94.1662 52.0313 94.1662Q52.6705 94.1662 53.2937 94.3793Q53.9169 94.5923 54.4283 95.0691Q54.9396 95.5458 55.2433 96.3288Q55.5469 97.1119 55.5469 98.2571L55.5469 98.7898L49.6076 98.7898Q49.6502 100.1 50.3507 100.798Q51.0511 101.496 52.1591 101.496Q52.8995 101.496 53.4322 101.176Q53.9648 100.857 54.2045 100.217L55.419 100.558Q55.1314 101.485 54.2685 102.055Q53.4055 102.625 52.1591 102.625ZM76.9975 102.351Q77.6314 102.646 78.4091 102.646Q79.1229 102.646 79.6182 102.433Q80.1136 102.22 80.4119 101.917Q80.7102 101.613 80.8381 101.347L80.902 101.347L80.902 102.455L82.1591 102.455L82.1591 97.0639Q82.1591 96.0891 81.8395 95.5085Q81.5199 94.9279 81.0378 94.6403Q80.5557 94.3526 80.0417 94.2594Q79.5277 94.1662 79.1335 94.1662Q78.5156 94.1662 77.8791 94.334Q77.2425 94.5018 76.7072 94.9199Q76.1719 95.3381 75.8523 96.0838L77.0454 96.5099Q77.2532 96.0625 77.7645 95.6683Q78.2759 95.2741 79.1761 95.2741Q80.0444 95.2741 80.4732 95.7109Q80.902 96.1477 80.902 96.9361L80.902 96.9787Q80.902 97.2823 80.6862 97.4048Q80.4705 97.5273 80.0044 97.5779Q79.5383 97.6285 78.7926 97.7244Q78.2226 97.799 77.6607 97.9242Q77.0987 98.0494 76.6353 98.2997Q76.1719 98.5501 75.8949 98.9895Q75.6179 99.429 75.6179 100.132Q75.6179 100.931 75.9908 101.493Q76.3636 102.055 76.9975 102.351ZM109.845 102.1Q110.7 102.625 111.882 102.625Q113.129 102.625 113.991 102.055Q114.854 101.485 115.142 100.558L113.928 100.217Q113.688 100.857 113.155 101.176Q112.623 101.496 111.882 101.496Q110.774 101.496 110.074 100.798Q109.373 100.1 109.331 98.7898L115.27 98.7898L115.27 98.2571Q115.27 97.1119 114.966 96.3288Q114.663 95.5458 114.151 95.0691Q113.64 94.5923 113.017 94.3793Q112.393 94.1662 111.754 94.1662Q110.646 94.1662 109.818 94.7068Q108.99 95.2475 108.529 96.209Q108.068 97.1705 108.068 98.4276Q108.068 99.6847 108.529 100.63Q108.99 101.576 109.845 102.1ZM128.254 102.1Q129.109 102.625 130.291 102.625Q131.538 102.625 132.401 102.055Q133.263 101.485 133.551 100.558L132.337 100.217Q132.097 100.857 131.564 101.176Q131.032 101.496 130.291 101.496Q129.183 101.496 128.483 100.798Q127.782 100.1 127.74 98.7898L133.679 98.7898L133.679 98.2571Q133.679 97.1119 133.375 96.3288Q133.072 95.5458 132.56 95.0691Q132.049 94.5923 131.426 94.3793Q130.803 94.1662 130.163 94.1662Q129.055 94.1662 128.227 94.7068Q127.399 95.2475 126.938 96.209Q126.477 97.1705 126.477 98.4276Q126.477 99.6847 126.938 100.63Q127.399 101.576 128.254 102.1ZM135.597 102.455L135.597 94.2727L136.811 94.2727L136.811 95.5511L136.918 95.5511Q137.173 94.896 137.743 94.5311Q138.313 94.1662 139.112 94.1662Q139.922 94.1662 140.463 94.5311Q141.003 94.896 141.307 95.5511L141.392 95.5511Q141.706 94.9173 142.335 94.5417Q142.963 94.1662 143.842 94.1662Q144.94 94.1662 145.637 94.8507Q146.335 95.5352 146.335 96.9787L146.335 102.455L145.078 102.455L145.078 96.9787Q145.078 96.0732 144.583 95.6843Q144.087 95.2955 143.416 95.2955Q142.553 95.2955 142.079 95.8148Q141.605 96.3342 141.605 97.1278L141.605 102.455L140.327 102.455L140.327 96.8509Q140.327 96.1531 139.874 95.7243Q139.421 95.2955 138.707 95.2955Q138.217 95.2955 137.794 95.5565Q137.37 95.8175 137.112 96.2782Q136.854 96.739 136.854 97.3409L136.854 102.455L135.597 102.455ZM148.636 94.2727L148.636 105.523L149.893 105.523L149.893 101.197L150 101.197Q150.138 101.421 150.394 101.759Q150.65 102.098 151.124 102.361Q151.598 102.625 152.386 102.625Q153.409 102.625 154.192 102.106Q154.975 101.586 155.417 100.635Q155.859 99.6847 155.859 98.3849Q155.859 97.0959 155.417 96.1477Q154.975 95.1996 154.187 94.6829Q153.398 94.1662 152.365 94.1662Q151.566 94.1662 151.1 94.4299Q150.634 94.6935 150.386 95.0265Q150.138 95.3594 150 95.5724L149.851 95.5724L149.851 94.2727L148.636 94.2727ZM161.207 102.625Q160.025 102.625 159.17 102.1Q158.315 101.576 157.854 100.63Q157.393 99.6847 157.393 98.4276Q157.393 97.1705 157.854 96.209Q158.315 95.2475 159.143 94.7068Q159.972 94.1662 161.08 94.1662Q161.719 94.1662 162.342 94.3793Q162.965 94.5923 163.477 95.0691Q163.988 95.5458 164.292 96.3288Q164.595 97.1119 164.595 98.2571L164.595 98.7898L158.656 98.7898Q158.699 100.1 159.399 100.798Q160.099 101.496 161.207 101.496Q161.948 101.496 162.48 101.176Q163.013 100.857 163.253 100.217L164.467 100.558Q164.18 101.485 163.317 102.055Q162.454 102.625 161.207 102.625ZM174.503 102.646Q173.725 102.646 173.091 102.351Q172.457 102.055 172.085 101.493Q171.712 100.931 171.712 100.132Q171.712 99.429 171.989 98.9895Q172.266 98.5501 172.729 98.2997Q173.192 98.0494 173.754 97.9242Q174.316 97.799 174.886 97.7244Q175.632 97.6285 176.098 97.5779Q176.564 97.5273 176.78 97.4048Q176.996 97.2823 176.996 96.9787L176.996 96.9361Q176.996 96.1477 176.567 95.7109Q176.138 95.2741 175.27 95.2741Q174.37 95.2741 173.858 95.6683Q173.347 96.0625 173.139 96.5099L171.946 96.0838Q172.266 95.3381 172.801 94.9199Q173.336 94.5018 173.973 94.334Q174.609 94.1662 175.227 94.1662Q175.621 94.1662 176.135 94.2594Q176.649 94.3526 177.132 94.6403Q177.614 94.9279 177.933 95.5085Q178.253 96.0891 178.253 97.0639L178.253 102.455L176.996 102.455L176.996 101.347L176.932 101.347Q176.804 101.613 176.506 101.917Q176.207 102.22 175.712 102.433Q175.217 102.646 174.503 102.646ZM203.736 102.625Q202.553 102.625 201.698 102.1Q200.843 101.576 200.383 100.63Q199.922 99.6847 199.922 98.4276Q199.922 97.1705 200.383 96.209Q200.843 95.2475 201.672 94.7068Q202.5 94.1662 203.608 94.1662Q204.247 94.1662 204.87 94.3793Q205.494 94.5923 206.005 95.0691Q206.516 95.5458 206.82 96.3288Q207.124 97.1119 207.124 98.2571L207.124 98.7898L201.184 98.7898Q201.227 100.1 201.927 100.798Q202.628 101.496 203.736 101.496Q204.476 101.496 205.009 101.176Q205.542 100.857 205.781 100.217L206.996 100.558Q206.708 101.485 205.845 102.055Q204.982 102.625 203.736 102.625ZM224.02 102.646Q223.242 102.646 222.608 102.351Q221.974 102.055 221.602 101.493Q221.229 100.931 221.229 100.132Q221.229 99.429 221.506 98.9895Q221.783 98.5501 222.246 98.2997Q222.71 98.0494 223.271 97.9242Q223.833 97.799 224.403 97.7244Q225.149 97.6285 225.615 97.5779Q226.081 97.5273 226.297 97.4048Q226.513 97.2823 226.513 96.9787L226.513 96.9361Q226.513 96.1477 226.084 95.7109Q225.655 95.2741 224.787 95.2741Q223.887 95.2741 223.375 95.6683Q222.864 96.0625 222.656 96.5099L221.463 96.0838Q221.783 95.3381 222.318 94.9199Q222.853 94.5018 223.49 94.334Q224.126 94.1662 224.744 94.1662Q225.138 94.1662 225.653 94.2594Q226.167 94.3526 226.649 94.6403Q227.131 94.9279 227.45 95.5085Q227.77 96.0891 227.77 97.0639L227.77 102.455L226.513 102.455L226.513 101.347L226.449 101.347Q226.321 101.613 226.023 101.917Q225.724 102.22 225.229 102.433Q224.734 102.646 224.02 102.646ZM243.737 102.1Q244.592 102.625 245.774 102.625Q247.021 102.625 247.884 102.055Q248.746 101.485 249.034 100.558L247.82 100.217Q247.58 100.857 247.047 101.176Q246.515 101.496 245.774 101.496Q244.666 101.496 243.966 100.798Q243.265 100.1 243.223 98.7898L249.162 98.7898L249.162 98.2571Q249.162 97.1119 248.858 96.3288Q248.555 95.5458 248.043 95.0691Q247.532 94.5923 246.909 94.3793Q246.286 94.1662 245.646 94.1662Q244.538 94.1662 243.71 94.7068Q242.882 95.2475 242.421 96.209Q241.96 97.1705 241.96 98.4276Q241.96 99.6847 242.421 100.63Q242.882 101.576 243.737 102.1ZM263.523 96.4247L264.652 96.1051Q264.359 95.2315 263.664 94.6989Q262.969 94.1662 261.754 94.1662Q260.891 94.1662 260.212 94.4698Q259.533 94.7734 259.142 95.3061Q258.75 95.8388 258.75 96.5313Q258.75 97.3782 259.275 97.9402Q259.799 98.5021 260.923 98.7685L262.287 99.0881Q263.501 99.3704 263.501 100.239Q263.501 100.766 262.982 101.142Q262.463 101.517 261.584 101.517Q260.023 101.517 259.688 100.196L258.494 100.494Q258.713 101.538 259.533 102.082Q260.353 102.625 261.605 102.625Q262.559 102.625 263.278 102.305Q263.997 101.986 264.399 101.432Q264.801 100.878 264.801 100.175Q264.801 98.4915 262.628 97.9588L261.413 97.6605Q260.689 97.4794 260.348 97.2077Q260.007 96.9361 260.007 96.4673Q260.007 95.94 260.505 95.5964Q261.003 95.2528 261.754 95.2528Q262.58 95.2528 262.969 95.6257Q263.358 95.9986 263.523 96.4247ZM32.1307 99.1094L32.1307 94.2727L33.3878 94.2727L33.3878 102.455L32.1307 102.455L32.1307 101.07L32.0455 101.07Q31.7578 101.693 31.1506 102.127Q30.5433 102.561 29.6165 102.561Q28.4659 102.561 27.7202 101.799Q26.9744 101.038 26.9744 99.4716L26.9744 94.2727L28.2315 94.2727L28.2315 99.3864Q28.2315 100.281 28.7349 100.814Q29.2383 101.347 30.0213 101.347Q30.4901 101.347 30.9775 101.107Q31.4648 100.867 31.7978 100.372Q32.1307 99.8764 32.1307 99.1094ZM191.165 99.1094L191.165 94.2727L192.422 94.2727L192.422 102.455L191.165 102.455L191.165 101.07L191.08 101.07Q190.792 101.693 190.185 102.127Q189.577 102.561 188.651 102.561Q187.5 102.561 186.754 101.799Q186.009 101.038 186.009 99.4716L186.009 94.2727L187.266 94.2727L187.266 99.3864Q187.266 100.281 187.769 100.814Q188.272 101.347 189.055 101.347Q189.524 101.347 190.012 101.107Q190.499 100.867 190.832 100.372Q191.165 99.8764 191.165 99.1094ZM215.646 102.455L216.925 102.455L219.95 94.2727L218.587 94.2727L216.328 100.793L216.243 100.793L213.984 94.2727L212.621 94.2727L215.646 102.455ZM238.786 99.1094L238.786 94.2727L240.043 94.2727L240.043 102.455L238.786 102.455L238.786 101.07L238.7 101.07Q238.413 101.693 237.805 102.127Q237.198 102.561 236.271 102.561Q235.121 102.561 234.375 101.799Q233.629 101.038 233.629 99.4716L233.629 94.2727L234.886 94.2727L234.886 99.3864Q234.886 100.281 235.39 100.814Q235.893 101.347 236.676 101.347Q237.145 101.347 237.632 101.107Q238.12 100.867 238.453 100.372Q238.786 99.8764 238.786 99.1094ZM255.298 94.2727L256.555 94.2727L256.555 102.455L255.298 102.455L255.298 94.2727ZM49.6076 97.7031L54.2685 97.7031Q54.2685 96.6644 53.6612 95.9799Q53.054 95.2955 52.0313 95.2955Q51.3121 95.2955 50.7848 95.631Q50.2575 95.9666 49.9538 96.5179Q49.6502 97.0692 49.6076 97.7031ZM113.991 97.7031L109.331 97.7031Q109.373 97.0692 109.677 96.5179Q109.98 95.9666 110.508 95.631Q111.035 95.2955 111.754 95.2955Q112.777 95.2955 113.384 95.9799Q113.991 96.6644 113.991 97.7031ZM132.401 97.7031L127.74 97.7031Q127.782 97.0692 128.086 96.5179Q128.39 95.9666 128.917 95.631Q129.444 95.2955 130.163 95.2955Q131.186 95.2955 131.793 95.9799Q132.401 96.6644 132.401 97.7031ZM150.477 100.625Q149.872 99.7539 149.872 98.3636Q149.872 96.9893 150.469 96.1424Q151.065 95.2955 152.216 95.2955Q153.015 95.2955 153.545 95.7029Q154.075 96.1104 154.339 96.8056Q154.602 97.5007 154.602 98.3636Q154.602 99.2372 154.333 99.9483Q154.064 100.659 153.534 101.078Q153.004 101.496 152.216 101.496Q151.081 101.496 150.477 100.625ZM158.656 97.7031L163.317 97.7031Q163.317 96.6644 162.71 95.9799Q162.102 95.2955 161.08 95.2955Q160.36 95.2955 159.833 95.631Q159.306 95.9666 159.002 96.5179Q158.699 97.0692 158.656 97.7031ZM201.184 97.7031L205.845 97.7031Q205.845 96.6644 205.238 95.9799Q204.631 95.2955 203.608 95.2955Q202.889 95.2955 202.361 95.631Q201.834 95.9666 201.531 96.5179Q201.227 97.0692 201.184 97.7031ZM247.884 97.7031L243.223 97.7031Q243.265 97.0692 243.569 96.5179Q243.873 95.9666 244.4 95.631Q244.927 95.2955 245.646 95.2955Q246.669 95.2955 247.276 95.9799Q247.884 96.6644 247.884 97.7031ZM79.8606 101.224Q79.3466 101.517 78.6008 101.517Q77.8498 101.517 77.3624 101.184Q76.875 100.851 76.875 100.196Q76.875 99.7166 77.1333 99.437Q77.3917 99.1573 77.8152 99.0162Q78.2386 98.875 78.7287 98.8111Q78.9311 98.7844 79.2587 98.7445Q79.5863 98.7045 79.9352 98.6486Q80.2841 98.5927 80.5531 98.5154Q80.8221 98.4382 80.902 98.3423L80.902 99.4929Q80.902 100.004 80.6383 100.468Q80.3746 100.931 79.8606 101.224ZM174.695 101.517Q175.44 101.517 175.954 101.224Q176.468 100.931 176.732 100.468Q176.996 100.004 176.996 99.4929L176.996 98.3423Q176.916 98.4382 176.647 98.5154Q176.378 98.5927 176.029 98.6486Q175.68 98.7045 175.352 98.7445Q175.025 98.7844 174.822 98.8111Q174.332 98.875 173.909 99.0162Q173.485 99.1573 173.227 99.437Q172.969 99.7166 172.969 100.196Q172.969 100.851 173.456 101.184Q173.944 101.517 174.695 101.517ZM224.212 101.517Q224.957 101.517 225.471 101.224Q225.985 100.931 226.249 100.468Q226.513 100.004 226.513 99.4929L226.513 98.3423Q226.433 98.4382 226.164 98.5154Q225.895 98.5927 225.546 98.6486Q225.197 98.7045 224.869 98.7445Q224.542 98.7844 224.339 98.8111Q223.849 98.875 223.426 99.0162Q223.002 99.1573 222.744 99.437Q222.486 99.7166 222.486 100.196Q222.486 100.851 222.973 101.184Q223.461 101.517 224.212 101.517ZM296.873 102.257Q297.156 102.54 297.55 102.54Q297.944 102.54 298.226 102.257Q298.509 101.975 298.509 101.581Q298.509 101.187 298.226 100.904Q297.944 100.622 297.55 100.622Q297.156 100.622 296.873 100.904Q296.591 101.187 296.591 101.581Q296.591 101.975 296.873 102.257Z" />
        </g>
        <g id="Temperature-in-celcius--100">
          <path d="M97.1884 128.659Q97.4521 128.909 97.8196 128.909Q98.1871 128.909 98.4508 128.659Q98.7145 128.408 98.7145 128.057Q98.7145 127.705 98.4508 127.455Q98.1871 127.205 97.8196 127.205Q97.4521 127.205 97.1884 127.455Q96.9247 127.705 96.9247 128.057Q96.9247 128.408 97.1884 128.659ZM142.785 128.659Q143.049 128.909 143.416 128.909Q143.784 128.909 144.047 128.659Q144.311 128.408 144.311 128.057Q144.311 127.705 144.047 127.455Q143.784 127.205 143.416 127.205Q143.049 127.205 142.785 127.455Q142.521 127.705 142.521 128.057Q142.521 128.408 142.785 128.659ZM185.966 138.604Q184.16 138.604 183.167 137.139Q182.173 135.674 182.173 133Q182.173 130.347 183.175 128.872Q184.176 127.396 185.966 127.396Q187.756 127.396 188.757 128.872Q189.759 130.347 189.759 133Q189.759 135.674 188.765 137.139Q187.772 138.604 185.966 138.604ZM192.542 137.139Q193.535 138.604 195.341 138.604Q197.147 138.604 198.14 137.139Q199.134 135.674 199.134 133Q199.134 130.347 198.132 128.872Q197.131 127.396 195.341 127.396Q193.551 127.396 192.55 128.872Q191.548 130.347 191.548 133Q191.548 135.674 192.542 137.139ZM0.724432 127.545L0.724432 128.717L4.15483 128.717L4.15483 138.455L5.47585 138.455L5.47585 128.717L8.90625 128.717L8.90625 127.545L0.724432 127.545ZM132.102 138.455L132.102 127.545L130.845 127.545L130.845 138.455L132.102 138.455ZM179.276 138.455L179.276 127.545L177.955 127.545L175.227 129.357L175.227 130.699L177.891 128.93L177.955 128.93L177.955 138.455L179.276 138.455ZM68.0327 131.338L68.0327 130.273L66.2855 130.273L66.2855 128.313L65.0284 128.313L65.0284 130.273L63.7926 130.273L63.7926 131.338L65.0284 131.338L65.0284 136.452Q65.0284 137.165 65.3613 137.634Q65.6942 138.103 66.2029 138.332Q66.7116 138.561 67.2443 138.561Q67.5959 138.561 67.8249 138.51Q68.054 138.46 68.1818 138.412L67.9261 137.283Q67.8462 137.299 67.7131 137.323Q67.5799 137.347 67.3722 137.347Q67.0952 137.347 66.8475 137.259Q66.5998 137.171 66.4426 136.907Q66.2855 136.643 66.2855 136.111L66.2855 131.338L68.0327 131.338ZM185.966 137.432Q187.159 137.432 187.82 136.281Q188.48 135.131 188.48 133Q188.48 130.875 187.814 129.711Q187.148 128.547 185.966 128.547Q184.783 128.547 184.118 129.711Q183.452 130.875 183.452 133Q183.452 135.131 184.115 136.281Q184.778 137.432 185.966 137.432ZM197.195 136.281Q196.534 137.432 195.341 137.432Q194.153 137.432 193.49 136.281Q192.827 135.131 192.827 133Q192.827 130.875 193.493 129.711Q194.158 128.547 195.341 128.547Q196.523 128.547 197.189 129.711Q197.855 130.875 197.855 133Q197.855 135.131 197.195 136.281ZM51.6477 130.273L50.4332 130.273L50.4332 138.455L51.6903 138.455L51.6903 133.277Q51.6903 132.446 52.2763 131.903Q52.8622 131.359 53.7571 131.359Q54.0075 131.359 54.2338 131.394Q54.4602 131.429 54.5241 131.445L54.5241 130.166Q54.4176 130.156 54.2099 130.15Q54.0021 130.145 53.8636 130.145Q53.1286 130.145 52.5426 130.523Q51.9567 130.901 51.733 131.509L51.6477 131.509L51.6477 130.273ZM79.8579 130.273L78.6435 130.273L78.6435 138.455L79.9006 138.455L79.9006 133.277Q79.9006 132.446 80.4865 131.903Q81.0724 131.359 81.9673 131.359Q82.2177 131.359 82.4441 131.394Q82.6704 131.429 82.7344 131.445L82.7344 130.166Q82.6278 130.156 82.4201 130.15Q82.2123 130.145 82.0739 130.145Q81.3388 130.145 80.7528 130.523Q80.1669 130.901 79.9432 131.509L79.8579 131.509L79.8579 130.273ZM12.1742 138.1Q13.0291 138.625 14.2116 138.625Q15.4581 138.625 16.321 138.055Q17.1839 137.485 17.4716 136.558L16.2571 136.217Q16.0174 136.857 15.4847 137.176Q14.9521 137.496 14.2116 137.496Q13.1037 137.496 12.4032 136.798Q11.7028 136.1 11.6602 134.79L17.5994 134.79L17.5994 134.257Q17.5994 133.112 17.2958 132.329Q16.9922 131.546 16.4808 131.069Q15.9695 130.592 15.3462 130.379Q14.723 130.166 14.0838 130.166Q12.9759 130.166 12.1476 130.707Q11.3192 131.248 10.8585 132.209Q10.3977 133.17 10.3977 134.428Q10.3977 135.685 10.8585 136.63Q11.3192 137.576 12.1742 138.1ZM19.517 138.455L19.517 130.273L20.7315 130.273L20.7315 131.551L20.8381 131.551Q21.0938 130.896 21.6637 130.531Q22.2337 130.166 23.0327 130.166Q23.8423 130.166 24.383 130.531Q24.9237 130.896 25.2273 131.551L25.3125 131.551Q25.6268 130.917 26.2553 130.542Q26.8839 130.166 27.7628 130.166Q28.8601 130.166 29.5579 130.851Q30.2557 131.535 30.2557 132.979L30.2557 138.455L28.9986 138.455L28.9986 132.979Q28.9986 132.073 28.5032 131.684Q28.0078 131.295 27.3366 131.295Q26.4737 131.295 25.9996 131.815Q25.5256 132.334 25.5256 133.128L25.5256 138.455L24.2472 138.455L24.2472 132.851Q24.2472 132.153 23.7944 131.724Q23.3416 131.295 22.6278 131.295Q22.1378 131.295 21.7143 131.556Q21.2908 131.817 21.0325 132.278Q20.7741 132.739 20.7741 133.341L20.7741 138.455L19.517 138.455ZM32.5568 130.273L32.5568 141.523L33.8139 141.523L33.8139 137.197L33.9205 137.197Q34.0589 137.421 34.3146 137.759Q34.5703 138.098 35.0444 138.361Q35.5185 138.625 36.3068 138.625Q37.3295 138.625 38.1126 138.106Q38.8956 137.586 39.3377 136.635Q39.7798 135.685 39.7798 134.385Q39.7798 133.096 39.3377 132.148Q38.8956 131.2 38.1072 130.683Q37.3189 130.166 36.2855 130.166Q35.4865 130.166 35.0204 130.43Q34.5543 130.694 34.3066 131.026Q34.0589 131.359 33.9205 131.572L33.7713 131.572L33.7713 130.273L32.5568 130.273ZM45.1278 138.625Q43.9453 138.625 43.0904 138.1Q42.2354 137.576 41.7747 136.63Q41.3139 135.685 41.3139 134.428Q41.3139 133.17 41.7747 132.209Q42.2354 131.248 43.0637 130.707Q43.892 130.166 45 130.166Q45.6392 130.166 46.2624 130.379Q46.8857 130.592 47.397 131.069Q47.9084 131.546 48.212 132.329Q48.5156 133.112 48.5156 134.257L48.5156 134.79L42.5764 134.79Q42.619 136.1 43.3194 136.798Q44.0199 137.496 45.1278 137.496Q45.8683 137.496 46.4009 137.176Q46.9336 136.857 47.1733 136.217L48.3878 136.558Q48.1001 137.485 47.2372 138.055Q46.3743 138.625 45.1278 138.625ZM58.4233 138.646Q57.6456 138.646 57.0117 138.351Q56.3778 138.055 56.005 137.493Q55.6321 136.931 55.6321 136.132Q55.6321 135.429 55.9091 134.99Q56.1861 134.55 56.6495 134.3Q57.1129 134.049 57.6749 133.924Q58.2369 133.799 58.8068 133.724Q59.5526 133.629 60.0186 133.578Q60.4847 133.527 60.7005 133.405Q60.9162 133.282 60.9162 132.979L60.9162 132.936Q60.9162 132.148 60.4874 131.711Q60.0586 131.274 59.1903 131.274Q58.2901 131.274 57.7788 131.668Q57.2674 132.063 57.0597 132.51L55.8665 132.084Q56.1861 131.338 56.7214 130.92Q57.2567 130.502 57.8933 130.334Q58.5298 130.166 59.1477 130.166Q59.5419 130.166 60.0559 130.259Q60.57 130.353 61.052 130.64Q61.5341 130.928 61.8537 131.509Q62.1733 132.089 62.1733 133.064L62.1733 138.455L60.9162 138.455L60.9162 137.347L60.8523 137.347Q60.7244 137.613 60.4261 137.917Q60.1278 138.22 59.6325 138.433Q59.1371 138.646 58.4233 138.646ZM87.6562 138.625Q86.4737 138.625 85.6188 138.1Q84.7638 137.576 84.3031 136.63Q83.8423 135.685 83.8423 134.428Q83.8423 133.17 84.3031 132.209Q84.7638 131.248 85.5921 130.707Q86.4204 130.166 87.5284 130.166Q88.1676 130.166 88.7908 130.379Q89.4141 130.592 89.9254 131.069Q90.4368 131.546 90.7404 132.329Q91.044 133.112 91.044 134.257L91.044 134.79L85.1048 134.79Q85.1474 136.1 85.8478 136.798Q86.5483 137.496 87.6562 137.496Q88.3967 137.496 88.9293 137.176Q89.462 136.857 89.7017 136.217L90.9162 136.558Q90.6285 137.485 89.7656 138.055Q88.9027 138.625 87.6562 138.625ZM101.996 133.533L101.996 138.455L100.739 138.455L100.739 130.273L101.953 130.273L101.953 131.551L102.06 131.551Q102.347 130.928 102.933 130.547Q103.519 130.166 104.446 130.166Q105.687 130.166 106.452 130.928Q107.216 131.69 107.216 133.256L107.216 138.455L105.959 138.455L105.959 133.341Q105.959 132.377 105.458 131.836Q104.957 131.295 104.084 131.295Q103.184 131.295 102.59 131.879Q101.996 132.462 101.996 133.533ZM115.078 138.082Q115.909 138.625 117.06 138.625Q117.965 138.625 118.65 138.287Q119.334 137.949 119.752 137.371Q120.17 136.793 120.277 136.068L119.02 136.068Q118.844 136.739 118.319 137.118Q117.795 137.496 117.06 137.496Q115.941 137.496 115.275 136.641Q114.609 135.786 114.609 134.364Q114.609 132.973 115.283 132.134Q115.957 131.295 117.06 131.295Q117.891 131.295 118.383 131.73Q118.876 132.164 119.02 132.723L120.277 132.723Q120.17 131.956 119.728 131.381Q119.286 130.805 118.594 130.486Q117.901 130.166 117.038 130.166Q115.93 130.166 115.102 130.707Q114.274 131.248 113.813 132.204Q113.352 133.16 113.352 134.406Q113.352 135.631 113.8 136.585Q114.247 137.538 115.078 138.082ZM125.54 138.625Q124.357 138.625 123.502 138.1Q122.647 137.576 122.187 136.63Q121.726 135.685 121.726 134.428Q121.726 133.17 122.187 132.209Q122.647 131.248 123.476 130.707Q124.304 130.166 125.412 130.166Q126.051 130.166 126.674 130.379Q127.298 130.592 127.809 131.069Q128.32 131.546 128.624 132.329Q128.928 133.112 128.928 134.257L128.928 134.79L122.988 134.79Q123.031 136.1 123.731 136.798Q124.432 137.496 125.54 137.496Q126.28 137.496 126.813 137.176Q127.346 136.857 127.585 136.217L128.8 136.558Q128.512 137.485 127.649 138.055Q126.786 138.625 125.54 138.625ZM137.727 138.625Q136.577 138.625 135.746 138.082Q134.915 137.538 134.467 136.585Q134.02 135.631 134.02 134.406Q134.02 133.16 134.481 132.204Q134.941 131.248 135.77 130.707Q136.598 130.166 137.706 130.166Q138.569 130.166 139.261 130.486Q139.954 130.805 140.396 131.381Q140.838 131.956 140.945 132.723L139.688 132.723Q139.544 132.164 139.051 131.73Q138.558 131.295 137.727 131.295Q136.625 131.295 135.951 132.134Q135.277 132.973 135.277 134.364Q135.277 135.786 135.943 136.641Q136.609 137.496 137.727 137.496Q138.462 137.496 138.987 137.118Q139.512 136.739 139.688 136.068L140.945 136.068Q140.838 136.793 140.42 137.371Q140.002 137.949 139.317 138.287Q138.633 138.625 137.727 138.625ZM159.716 132.425L160.845 132.105Q160.552 131.232 159.857 130.699Q159.162 130.166 157.947 130.166Q157.085 130.166 156.405 130.47Q155.726 130.773 155.335 131.306Q154.943 131.839 154.943 132.531Q154.943 133.378 155.468 133.94Q155.993 134.502 157.116 134.768L158.48 135.088Q159.695 135.37 159.695 136.239Q159.695 136.766 159.175 137.142Q158.656 137.517 157.777 137.517Q156.216 137.517 155.881 136.196L154.688 136.494Q154.906 137.538 155.726 138.082Q156.547 138.625 157.798 138.625Q158.752 138.625 159.471 138.305Q160.19 137.986 160.592 137.432Q160.994 136.878 160.994 136.175Q160.994 134.491 158.821 133.959L157.607 133.661Q156.882 133.479 156.541 133.208Q156.2 132.936 156.2 132.467Q156.2 131.94 156.698 131.596Q157.196 131.253 157.947 131.253Q158.773 131.253 159.162 131.626Q159.551 131.999 159.716 132.425ZM75.0852 135.109L75.0852 130.273L76.3423 130.273L76.3423 138.455L75.0852 138.455L75.0852 137.07L75 137.07Q74.7124 137.693 74.1051 138.127Q73.4979 138.561 72.571 138.561Q71.4204 138.561 70.6747 137.799Q69.929 137.038 69.929 135.472L69.929 130.273L71.1861 130.273L71.1861 135.386Q71.1861 136.281 71.6894 136.814Q72.1928 137.347 72.9758 137.347Q73.4446 137.347 73.932 137.107Q74.4194 136.867 74.7523 136.372Q75.0852 135.876 75.0852 135.109ZM98.4375 130.273L97.1804 130.273L97.1804 138.455L98.4375 138.455L98.4375 130.273ZM144.034 130.273L142.777 130.273L142.777 138.455L144.034 138.455L144.034 130.273ZM151.491 135.109L151.491 130.273L152.749 130.273L152.749 138.455L151.491 138.455L151.491 137.07L151.406 137.07Q151.119 137.693 150.511 138.127Q149.904 138.561 148.977 138.561Q147.827 138.561 147.081 137.799Q146.335 137.038 146.335 135.472L146.335 130.273L147.592 130.273L147.592 135.386Q147.592 136.281 148.096 136.814Q148.599 137.347 149.382 137.347Q149.851 137.347 150.338 137.107Q150.826 136.867 151.159 136.372Q151.491 135.876 151.491 135.109ZM168.026 132.467Q167.631 132.467 167.349 132.185Q167.067 131.903 167.067 131.509Q167.067 131.114 167.349 130.832Q167.631 130.55 168.026 130.55Q168.42 130.55 168.702 130.832Q168.984 131.114 168.984 131.509Q168.984 131.903 168.702 132.185Q168.42 132.467 168.026 132.467ZM16.321 133.703L11.6602 133.703Q11.7028 133.069 12.0064 132.518Q12.31 131.967 12.8374 131.631Q13.3647 131.295 14.0838 131.295Q15.1065 131.295 15.7138 131.98Q16.321 132.664 16.321 133.703ZM34.3972 136.625Q33.7926 135.754 33.7926 134.364Q33.7926 132.989 34.3892 132.142Q34.9858 131.295 36.1364 131.295Q36.9354 131.295 37.4654 131.703Q37.9954 132.11 38.2591 132.806Q38.5227 133.501 38.5227 134.364Q38.5227 135.237 38.2537 135.948Q37.9847 136.659 37.4547 137.078Q36.9247 137.496 36.1364 137.496Q35.0018 137.496 34.3972 136.625ZM42.5764 133.703L47.2372 133.703Q47.2372 132.664 46.63 131.98Q46.0227 131.295 45 131.295Q44.2809 131.295 43.7536 131.631Q43.2262 131.967 42.9226 132.518Q42.619 133.069 42.5764 133.703ZM85.1048 133.703L89.7656 133.703Q89.7656 132.664 89.1584 131.98Q88.5511 131.295 87.5284 131.295Q86.8093 131.295 86.282 131.631Q85.7546 131.967 85.451 132.518Q85.1474 133.069 85.1048 133.703ZM122.988 133.703L127.649 133.703Q127.649 132.664 127.042 131.98Q126.435 131.295 125.412 131.295Q124.693 131.295 124.165 131.631Q123.638 131.967 123.335 132.518Q123.031 133.069 122.988 133.703ZM58.6151 137.517Q59.3608 137.517 59.8748 137.224Q60.3888 136.931 60.6525 136.468Q60.9162 136.004 60.9162 135.493L60.9162 134.342Q60.8363 134.438 60.5673 134.515Q60.2983 134.593 59.9494 134.649Q59.6005 134.705 59.2729 134.744Q58.9453 134.784 58.7429 134.811Q58.2528 134.875 57.8294 135.016Q57.4059 135.157 57.1475 135.437Q56.8892 135.717 56.8892 136.196Q56.8892 136.851 57.3766 137.184Q57.864 137.517 58.6151 137.517ZM168.026 138.54Q167.631 138.54 167.349 138.257Q167.067 137.975 167.067 137.581Q167.067 137.187 167.349 136.904Q167.631 136.622 168.026 136.622Q168.42 136.622 168.702 136.904Q168.984 137.187 168.984 137.581Q168.984 137.975 168.702 138.257Q168.42 138.54 168.026 138.54Z" />
        </g>
        <g id="Temperature-in-farenheit--212">
          <path d="M117.379 149.338L117.379 148.273L115.547 148.273L115.547 147.442Q115.547 146.835 115.821 146.52Q116.096 146.206 116.719 146.206Q116.99 146.206 117.158 146.254Q117.326 146.302 117.422 146.334L117.784 145.247Q117.64 145.183 117.347 145.109Q117.054 145.034 116.591 145.034Q116.005 145.034 115.478 145.268Q114.95 145.503 114.62 145.972Q114.29 146.44 114.29 147.143L114.29 148.273L112.969 148.273L112.969 149.338L114.29 149.338L114.29 156.455L115.547 156.455L115.547 149.338L117.379 149.338ZM97.1884 146.659Q97.4521 146.909 97.8196 146.909Q98.1871 146.909 98.4508 146.659Q98.7145 146.408 98.7145 146.057Q98.7145 145.705 98.4508 145.455Q98.1871 145.205 97.8196 145.205Q97.4521 145.205 97.1884 145.455Q96.9247 145.705 96.9247 146.057Q96.9247 146.408 97.1884 146.659ZM168.942 146.909Q168.574 146.909 168.311 146.659Q168.047 146.408 168.047 146.057Q168.047 145.705 168.311 145.455Q168.574 145.205 168.942 145.205Q169.309 145.205 169.573 145.455Q169.837 145.705 169.837 146.057Q169.837 146.408 169.573 146.659Q169.309 146.909 168.942 146.909ZM189.865 155.496L189.865 156.455L196.747 156.455L196.747 155.283L191.676 155.283L191.676 155.197L194.126 152.577Q195.064 151.57 195.594 150.869Q196.124 150.169 196.34 149.596Q196.555 149.024 196.555 148.422Q196.555 147.58 196.135 146.893Q195.714 146.206 194.973 145.801Q194.233 145.396 193.274 145.396Q192.321 145.396 191.556 145.801Q190.792 146.206 190.35 146.93Q189.908 147.655 189.908 148.614L191.165 148.614Q191.165 147.681 191.724 147.114Q192.283 146.547 193.232 146.547Q194.121 146.547 194.72 147.053Q195.32 147.559 195.32 148.422Q195.32 148.923 195.12 149.378Q194.92 149.833 194.51 150.347Q194.1 150.862 193.466 151.554L189.865 155.496ZM205.909 155.496L205.909 156.455L212.791 156.455L212.791 155.283L207.72 155.283L207.72 155.197L210.17 152.577Q211.108 151.57 211.638 150.869Q212.168 150.169 212.384 149.596Q212.599 149.024 212.599 148.422Q212.599 147.58 212.179 146.893Q211.758 146.206 211.017 145.801Q210.277 145.396 209.318 145.396Q208.365 145.396 207.6 145.801Q206.836 146.206 206.394 146.93Q205.952 147.655 205.952 148.614L207.209 148.614Q207.209 147.681 207.768 147.114Q208.327 146.547 209.276 146.547Q210.165 146.547 210.764 147.053Q211.364 147.559 211.364 148.422Q211.364 148.923 211.164 149.378Q210.964 149.833 210.554 150.347Q210.144 150.862 209.51 151.554L205.909 155.496ZM0.724432 145.545L0.724432 146.717L4.15483 146.717L4.15483 156.455L5.47585 156.455L5.47585 146.717L8.90625 146.717L8.90625 145.545L0.724432 145.545ZM151.96 151.533L151.96 156.455L150.703 156.455L150.703 145.545L151.96 145.545L151.96 149.551L152.067 149.551Q152.354 148.917 152.932 148.542Q153.51 148.166 154.474 148.166Q155.732 148.166 156.499 148.923Q157.266 149.679 157.266 151.256L157.266 156.455L156.009 156.455L156.009 151.341Q156.009 150.366 155.505 149.831Q155.002 149.295 154.112 149.295Q153.18 149.295 152.57 149.879Q151.96 150.462 151.96 151.533ZM202.777 145.545L202.777 156.455L201.456 156.455L201.456 146.93L201.392 146.93L198.729 148.699L198.729 147.357L201.456 145.545L202.777 145.545ZM68.0327 149.338L68.0327 148.273L66.2855 148.273L66.2855 146.313L65.0284 146.313L65.0284 148.273L63.7926 148.273L63.7926 149.338L65.0284 149.338L65.0284 154.452Q65.0284 155.165 65.3613 155.634Q65.6942 156.103 66.2029 156.332Q66.7116 156.561 67.2443 156.561Q67.5959 156.561 67.8249 156.51Q68.054 156.46 68.1818 156.412L67.9261 155.283Q67.8462 155.299 67.7131 155.323Q67.5799 155.347 67.3722 155.347Q67.0952 155.347 66.8475 155.259Q66.5998 155.171 66.4426 154.907Q66.2855 154.643 66.2855 154.111L66.2855 149.338L68.0327 149.338ZM175.419 149.338L175.419 148.273L173.672 148.273L173.672 146.313L172.415 146.313L172.415 148.273L171.179 148.273L171.179 149.338L172.415 149.338L172.415 154.452Q172.415 155.165 172.748 155.634Q173.081 156.103 173.589 156.332Q174.098 156.561 174.631 156.561Q174.982 156.561 175.211 156.51Q175.44 156.46 175.568 156.412L175.313 155.283Q175.233 155.299 175.099 155.323Q174.966 155.347 174.759 155.347Q174.482 155.347 174.234 155.259Q173.986 155.171 173.829 154.907Q173.672 154.643 173.672 154.111L173.672 149.338L175.419 149.338ZM51.6477 148.273L50.4332 148.273L50.4332 156.455L51.6903 156.455L51.6903 151.277Q51.6903 150.446 52.2763 149.903Q52.8622 149.359 53.7571 149.359Q54.0075 149.359 54.2338 149.394Q54.4602 149.429 54.5241 149.445L54.5241 148.166Q54.4176 148.156 54.2099 148.15Q54.0021 148.145 53.8636 148.145Q53.1286 148.145 52.5426 148.523Q51.9567 148.901 51.733 149.509L51.6477 149.509L51.6477 148.273ZM79.8579 148.273L78.6435 148.273L78.6435 156.455L79.9006 156.455L79.9006 151.277Q79.9006 150.446 80.4865 149.903Q81.0724 149.359 81.9673 149.359Q82.2177 149.359 82.4441 149.394Q82.6704 149.429 82.7344 149.445L82.7344 148.166Q82.6278 148.156 82.4201 148.15Q82.2123 148.145 82.0739 148.145Q81.3388 148.145 80.7528 148.523Q80.1669 148.901 79.9432 149.509L79.8579 149.509L79.8579 148.273ZM128.821 148.273L127.607 148.273L127.607 156.455L128.864 156.455L128.864 151.277Q128.864 150.446 129.45 149.903Q130.036 149.359 130.93 149.359Q131.181 149.359 131.407 149.394Q131.634 149.429 131.697 149.445L131.697 148.166Q131.591 148.156 131.383 148.15Q131.175 148.145 131.037 148.145Q130.302 148.145 129.716 148.523Q129.13 148.901 128.906 149.509L128.821 149.509L128.821 148.273ZM12.1742 156.1Q13.0291 156.625 14.2116 156.625Q15.4581 156.625 16.321 156.055Q17.1839 155.485 17.4716 154.558L16.2571 154.217Q16.0174 154.857 15.4847 155.176Q14.9521 155.496 14.2116 155.496Q13.1037 155.496 12.4032 154.798Q11.7028 154.1 11.6602 152.79L17.5994 152.79L17.5994 152.257Q17.5994 151.112 17.2958 150.329Q16.9922 149.546 16.4808 149.069Q15.9695 148.592 15.3462 148.379Q14.723 148.166 14.0838 148.166Q12.9759 148.166 12.1476 148.707Q11.3192 149.248 10.8585 150.209Q10.3977 151.17 10.3977 152.428Q10.3977 153.685 10.8585 154.63Q11.3192 155.576 12.1742 156.1ZM19.517 156.455L19.517 148.273L20.7315 148.273L20.7315 149.551L20.8381 149.551Q21.0938 148.896 21.6637 148.531Q22.2337 148.166 23.0327 148.166Q23.8423 148.166 24.383 148.531Q24.9237 148.896 25.2273 149.551L25.3125 149.551Q25.6268 148.917 26.2553 148.542Q26.8839 148.166 27.7628 148.166Q28.8601 148.166 29.5579 148.851Q30.2557 149.535 30.2557 150.979L30.2557 156.455L28.9986 156.455L28.9986 150.979Q28.9986 150.073 28.5032 149.684Q28.0078 149.295 27.3366 149.295Q26.4737 149.295 25.9996 149.815Q25.5256 150.334 25.5256 151.128L25.5256 156.455L24.2472 156.455L24.2472 150.851Q24.2472 150.153 23.7944 149.724Q23.3416 149.295 22.6278 149.295Q22.1378 149.295 21.7143 149.556Q21.2908 149.817 21.0325 150.278Q20.7741 150.739 20.7741 151.341L20.7741 156.455L19.517 156.455ZM32.5568 148.273L32.5568 159.523L33.8139 159.523L33.8139 155.197L33.9205 155.197Q34.0589 155.421 34.3146 155.759Q34.5703 156.098 35.0444 156.361Q35.5185 156.625 36.3068 156.625Q37.3295 156.625 38.1126 156.106Q38.8956 155.586 39.3377 154.635Q39.7798 153.685 39.7798 152.385Q39.7798 151.096 39.3377 150.148Q38.8956 149.2 38.1072 148.683Q37.3189 148.166 36.2855 148.166Q35.4865 148.166 35.0204 148.43Q34.5543 148.694 34.3066 149.026Q34.0589 149.359 33.9205 149.572L33.7713 149.572L33.7713 148.273L32.5568 148.273ZM45.1278 156.625Q43.9453 156.625 43.0904 156.1Q42.2354 155.576 41.7747 154.63Q41.3139 153.685 41.3139 152.428Q41.3139 151.17 41.7747 150.209Q42.2354 149.248 43.0637 148.707Q43.892 148.166 45 148.166Q45.6392 148.166 46.2624 148.379Q46.8857 148.592 47.397 149.069Q47.9084 149.546 48.212 150.329Q48.5156 151.112 48.5156 152.257L48.5156 152.79L42.5764 152.79Q42.619 154.1 43.3194 154.798Q44.0199 155.496 45.1278 155.496Q45.8683 155.496 46.4009 155.176Q46.9336 154.857 47.1733 154.217L48.3878 154.558Q48.1001 155.485 47.2372 156.055Q46.3743 156.625 45.1278 156.625ZM58.4233 156.646Q57.6456 156.646 57.0117 156.351Q56.3778 156.055 56.005 155.493Q55.6321 154.931 55.6321 154.132Q55.6321 153.429 55.9091 152.99Q56.1861 152.55 56.6495 152.3Q57.1129 152.049 57.6749 151.924Q58.2369 151.799 58.8068 151.724Q59.5526 151.629 60.0186 151.578Q60.4847 151.527 60.7005 151.405Q60.9162 151.282 60.9162 150.979L60.9162 150.936Q60.9162 150.148 60.4874 149.711Q60.0586 149.274 59.1903 149.274Q58.2901 149.274 57.7788 149.668Q57.2674 150.063 57.0597 150.51L55.8665 150.084Q56.1861 149.338 56.7214 148.92Q57.2567 148.502 57.8933 148.334Q58.5298 148.166 59.1477 148.166Q59.5419 148.166 60.0559 148.259Q60.57 148.353 61.052 148.64Q61.5341 148.928 61.8537 149.509Q62.1733 150.089 62.1733 151.064L62.1733 156.455L60.9162 156.455L60.9162 155.347L60.8523 155.347Q60.7244 155.613 60.4261 155.917Q60.1278 156.22 59.6325 156.433Q59.1371 156.646 58.4233 156.646ZM87.6562 156.625Q86.4737 156.625 85.6188 156.1Q84.7638 155.576 84.3031 154.63Q83.8423 153.685 83.8423 152.428Q83.8423 151.17 84.3031 150.209Q84.7638 149.248 85.5921 148.707Q86.4204 148.166 87.5284 148.166Q88.1676 148.166 88.7908 148.379Q89.4141 148.592 89.9254 149.069Q90.4368 149.546 90.7404 150.329Q91.044 151.112 91.044 152.257L91.044 152.79L85.1048 152.79Q85.1474 154.1 85.8478 154.798Q86.5483 155.496 87.6562 155.496Q88.3967 155.496 88.9293 155.176Q89.462 154.857 89.7017 154.217L90.9162 154.558Q90.6285 155.485 89.7656 156.055Q88.9027 156.625 87.6562 156.625ZM101.996 151.533L101.996 156.455L100.739 156.455L100.739 148.273L101.953 148.273L101.953 149.551L102.06 149.551Q102.347 148.928 102.933 148.547Q103.519 148.166 104.446 148.166Q105.687 148.166 106.452 148.928Q107.216 149.69 107.216 151.256L107.216 156.455L105.959 156.455L105.959 151.341Q105.959 150.377 105.458 149.836Q104.957 149.295 104.084 149.295Q103.184 149.295 102.59 149.879Q101.996 150.462 101.996 151.533ZM121.555 156.646Q120.778 156.646 120.144 156.351Q119.51 156.055 119.137 155.493Q118.764 154.931 118.764 154.132Q118.764 153.429 119.041 152.99Q119.318 152.55 119.782 152.3Q120.245 152.049 120.807 151.924Q121.369 151.799 121.939 151.724Q122.685 151.629 123.151 151.578Q123.617 151.527 123.833 151.405Q124.048 151.282 124.048 150.979L124.048 150.936Q124.048 150.148 123.619 149.711Q123.191 149.274 122.322 149.274Q121.422 149.274 120.911 149.668Q120.399 150.063 120.192 150.51L118.999 150.084Q119.318 149.338 119.854 148.92Q120.389 148.502 121.025 148.334Q121.662 148.166 122.28 148.166Q122.674 148.166 123.188 148.259Q123.702 148.353 124.184 148.64Q124.666 148.928 124.986 149.509Q125.305 150.089 125.305 151.064L125.305 156.455L124.048 156.455L124.048 155.347L123.984 155.347Q123.857 155.613 123.558 155.917Q123.26 156.22 122.765 156.433Q122.269 156.646 121.555 156.646ZM136.619 156.625Q135.437 156.625 134.582 156.1Q133.727 155.576 133.266 154.63Q132.805 153.685 132.805 152.428Q132.805 151.17 133.266 150.209Q133.727 149.248 134.555 148.707Q135.384 148.166 136.491 148.166Q137.131 148.166 137.754 148.379Q138.377 148.592 138.888 149.069Q139.4 149.546 139.703 150.329Q140.007 151.112 140.007 152.257L140.007 152.79L134.068 152.79Q134.11 154.1 134.811 154.798Q135.511 155.496 136.619 155.496Q137.36 155.496 137.892 155.176Q138.425 154.857 138.665 154.217L139.879 154.558Q139.592 155.485 138.729 156.055Q137.866 156.625 136.619 156.625ZM143.182 156.455L143.182 151.533Q143.182 150.462 143.776 149.879Q144.37 149.295 145.27 149.295Q146.143 149.295 146.644 149.836Q147.145 150.377 147.145 151.341L147.145 156.455L148.402 156.455L148.402 151.256Q148.402 149.69 147.638 148.928Q146.873 148.166 145.632 148.166Q144.705 148.166 144.119 148.547Q143.533 148.928 143.246 149.551L143.139 149.551L143.139 148.273L141.925 148.273L141.925 156.455L143.182 156.455ZM160.96 156.1Q161.815 156.625 162.997 156.625Q164.244 156.625 165.107 156.055Q165.969 155.485 166.257 154.558L165.043 154.217Q164.803 154.857 164.27 155.176Q163.738 155.496 162.997 155.496Q161.889 155.496 161.189 154.798Q160.488 154.1 160.446 152.79L166.385 152.79L166.385 152.257Q166.385 151.112 166.081 150.329Q165.778 149.546 165.266 149.069Q164.755 148.592 164.132 148.379Q163.509 148.166 162.869 148.166Q161.761 148.166 160.933 148.707Q160.105 149.248 159.644 150.209Q159.183 151.17 159.183 152.428Q159.183 153.685 159.644 154.63Q160.105 155.576 160.96 156.1ZM75.0852 153.109L75.0852 148.273L76.3423 148.273L76.3423 156.455L75.0852 156.455L75.0852 155.07L75 155.07Q74.7124 155.693 74.1051 156.127Q73.4979 156.561 72.571 156.561Q71.4204 156.561 70.6747 155.799Q69.929 155.038 69.929 153.472L69.929 148.273L71.1861 148.273L71.1861 153.386Q71.1861 154.281 71.6894 154.814Q72.1928 155.347 72.9758 155.347Q73.4446 155.347 73.932 155.107Q74.4194 154.867 74.7523 154.372Q75.0852 153.876 75.0852 153.109ZM98.4375 148.273L97.1804 148.273L97.1804 156.455L98.4375 156.455L98.4375 148.273ZM168.303 148.273L169.56 148.273L169.56 156.455L168.303 156.455L168.303 148.273ZM182.45 150.467Q182.056 150.467 181.774 150.185Q181.491 149.903 181.491 149.509Q181.491 149.114 181.774 148.832Q182.056 148.55 182.45 148.55Q182.844 148.55 183.127 148.832Q183.409 149.114 183.409 149.509Q183.409 149.903 183.127 150.185Q182.844 150.467 182.45 150.467ZM16.321 151.703L11.6602 151.703Q11.7028 151.069 12.0064 150.518Q12.31 149.967 12.8374 149.631Q13.3647 149.295 14.0838 149.295Q15.1065 149.295 15.7138 149.98Q16.321 150.664 16.321 151.703ZM34.3972 154.625Q33.7926 153.754 33.7926 152.364Q33.7926 150.989 34.3892 150.142Q34.9858 149.295 36.1364 149.295Q36.9354 149.295 37.4654 149.703Q37.9954 150.11 38.2591 150.806Q38.5227 151.501 38.5227 152.364Q38.5227 153.237 38.2537 153.948Q37.9847 154.659 37.4547 155.078Q36.9247 155.496 36.1364 155.496Q35.0018 155.496 34.3972 154.625ZM42.5764 151.703L47.2372 151.703Q47.2372 150.664 46.63 149.98Q46.0227 149.295 45 149.295Q44.2809 149.295 43.7536 149.631Q43.2262 149.967 42.9226 150.518Q42.619 151.069 42.5764 151.703ZM85.1048 151.703L89.7656 151.703Q89.7656 150.664 89.1584 149.98Q88.5511 149.295 87.5284 149.295Q86.8093 149.295 86.282 149.631Q85.7546 149.967 85.451 150.518Q85.1474 151.069 85.1048 151.703ZM134.068 151.703L138.729 151.703Q138.729 150.664 138.121 149.98Q137.514 149.295 136.491 149.295Q135.772 149.295 135.245 149.631Q134.718 149.967 134.414 150.518Q134.11 151.069 134.068 151.703ZM165.107 151.703L160.446 151.703Q160.488 151.069 160.792 150.518Q161.096 149.967 161.623 149.631Q162.15 149.295 162.869 149.295Q163.892 149.295 164.499 149.98Q165.107 150.664 165.107 151.703ZM58.6151 155.517Q59.3608 155.517 59.8748 155.224Q60.3888 154.931 60.6525 154.468Q60.9162 154.004 60.9162 153.493L60.9162 152.342Q60.8363 152.438 60.5673 152.515Q60.2983 152.593 59.9494 152.649Q59.6005 152.705 59.2729 152.744Q58.9453 152.784 58.7429 152.811Q58.2528 152.875 57.8294 153.016Q57.4059 153.157 57.1475 153.437Q56.8892 153.717 56.8892 154.196Q56.8892 154.851 57.3766 155.184Q57.864 155.517 58.6151 155.517ZM121.747 155.517Q122.493 155.517 123.007 155.224Q123.521 154.931 123.785 154.468Q124.048 154.004 124.048 153.493L124.048 152.342Q123.968 152.438 123.699 152.515Q123.43 152.593 123.081 152.649Q122.733 152.705 122.405 152.744Q122.077 152.784 121.875 152.811Q121.385 152.875 120.961 153.016Q120.538 153.157 120.28 153.437Q120.021 153.717 120.021 154.196Q120.021 154.851 120.509 155.184Q120.996 155.517 121.747 155.517ZM182.45 156.54Q182.056 156.54 181.774 156.257Q181.491 155.975 181.491 155.581Q181.491 155.187 181.774 154.904Q182.056 154.622 182.45 154.622Q182.844 154.622 183.127 154.904Q183.409 155.187 183.409 155.581Q183.409 155.975 183.127 156.257Q182.844 156.54 182.45 156.54Z" />
        </g>
      </g>
    </g>
  </g>
</svg>