<?xml version="1.0" encoding="utf-8"?>
<svg width="375px" height="282px" viewBox="0 0 375 282" version="1.1" xmlns:xlink="http://www.w3.org/1999/xlink" xmlns="http://www.w3.org/2000/svg">
  <g id="Group-95">
    <path d="M0 0L307.09 0L375 0L375 282L0 282L0 0Z" id="Rectangle-14" fill="#FFFFFF" fill-rule="evenodd" stroke="none" />
    <g id="Group-94" transform="translate(13 11.000122)">
      <g id="To-find-area-of-triangle-whose">
        <g id="To-find-area-of-triangle-whose-">
          <path d="M33.1108 71.0057L33.1108 69.7273L30.9119 69.7273L30.9119 68.7301Q30.9119 68.0014 31.2411 67.6243Q31.5703 67.2472 32.3182 67.2472Q32.6442 67.2472 32.8455 67.3047Q33.0469 67.3622 33.1619 67.4006L33.5966 66.0966Q33.424 66.0199 33.0724 65.9304Q32.7209 65.8409 32.1648 65.8409Q31.4616 65.8409 30.8288 66.1222Q30.196 66.4034 29.7997 66.9659Q29.4034 67.5284 29.4034 68.3722L29.4034 69.7273L27.8182 69.7273L27.8182 71.0057L29.4034 71.0057L29.4034 79.5455L30.9119 79.5455L30.9119 71.0057L33.1108 71.0057ZM123.929 69.7273L123.929 71.0057L121.73 71.0057L121.73 79.5455L120.222 79.5455L120.222 71.0057L118.636 71.0057L118.636 69.7273L120.222 69.7273L120.222 68.3722Q120.222 67.5284 120.618 66.9659Q121.014 66.4034 121.647 66.1222Q122.28 65.8409 122.983 65.8409Q123.539 65.8409 123.891 65.9304Q124.242 66.0199 124.415 66.0966L123.98 67.4006Q123.865 67.3622 123.664 67.3047Q123.462 67.2472 123.136 67.2472Q122.388 67.2472 122.059 67.6243Q121.73 68.0014 121.73 68.7301L121.73 69.7273L123.929 69.7273ZM36 68.0909Q35.5589 68.0909 35.2425 67.7905Q34.9261 67.4901 34.9261 67.0682Q34.9261 66.6463 35.2425 66.3459Q35.5589 66.0455 36 66.0455Q36.4411 66.0455 36.7575 66.3459Q37.0739 66.6463 37.0739 67.0682Q37.0739 67.4901 36.7575 67.7905Q36.4411 68.0909 36 68.0909ZM144.368 67.7905Q144.684 68.0909 145.125 68.0909Q145.566 68.0909 145.882 67.7905Q146.199 67.4901 146.199 67.0682Q146.199 66.6463 145.882 66.3459Q145.566 66.0455 145.125 66.0455Q144.684 66.0455 144.368 66.3459Q144.051 66.6463 144.051 67.0682Q144.051 67.4901 144.368 67.7905ZM0.869318 67.8608L0.869318 66.4545L10.6875 66.4545L10.6875 67.8608L6.57102 67.8608L6.57102 79.5455L4.9858 79.5455L4.9858 67.8608L0.869318 67.8608ZM53.7443 79.75Q52.517 79.75 51.5774 79.1268Q50.6378 78.5036 50.1072 77.3626Q49.5767 76.2216 49.5767 74.6619Q49.5767 73.1151 50.1072 71.9773Q50.6378 70.8395 51.5838 70.2195Q52.5298 69.5994 53.7699 69.5994Q54.7287 69.5994 55.288 69.9158Q55.8473 70.2322 56.1445 70.6317Q56.4418 71.0313 56.608 71.2869L56.7358 71.2869L56.7358 66.4545L58.2443 66.4545L58.2443 79.5455L56.7869 79.5455L56.7869 78.0369L56.608 78.0369Q56.4418 78.3054 56.1349 78.7113Q55.8281 79.1172 55.2592 79.4336Q54.6903 79.75 53.7443 79.75ZM181.79 79.5455L181.79 66.4545L180.281 66.4545L180.281 79.5455L181.79 79.5455ZM216.23 73.6392L216.23 79.5455L214.722 79.5455L214.722 66.4545L216.23 66.4545L216.23 71.2614L216.358 71.2614Q216.703 70.5007 217.397 70.0501Q218.09 69.5994 219.247 69.5994Q220.756 69.5994 221.676 70.5071Q222.597 71.4148 222.597 73.3068L222.597 79.5455L221.088 79.5455L221.088 73.4091Q221.088 72.2393 220.484 71.5969Q219.88 70.9545 218.812 70.9545Q217.694 70.9545 216.962 71.6545Q216.23 72.3544 216.23 73.6392ZM135.384 71.0057L135.384 69.7273L133.287 69.7273L133.287 67.375L131.778 67.375L131.778 69.7273L130.295 69.7273L130.295 71.0057L131.778 71.0057L131.778 77.142Q131.778 77.9986 132.178 78.5611Q132.577 79.1236 133.188 79.3984Q133.798 79.6733 134.437 79.6733Q134.859 79.6733 135.134 79.6126Q135.409 79.5518 135.562 79.4943L135.256 78.1392Q135.16 78.1584 135 78.1871Q134.84 78.2159 134.591 78.2159Q134.259 78.2159 133.961 78.1104Q133.664 78.005 133.475 77.6886Q133.287 77.3722 133.287 76.733L133.287 71.0057L135.384 71.0057ZM76.4233 69.7273L77.8807 69.7273L77.8807 71.2102L77.9829 71.2102Q78.2514 70.4815 78.9545 70.0277Q79.6577 69.5739 80.5398 69.5739Q80.706 69.5739 80.9553 69.5803Q81.2045 69.5866 81.3324 69.5994L81.3324 71.1335Q81.2557 71.1143 80.984 71.0728Q80.7124 71.0313 80.4119 71.0313Q79.3381 71.0313 78.6349 71.6832Q77.9318 72.3352 77.9318 73.3324L77.9318 79.5455L76.4233 79.5455L76.4233 69.7273ZM137.659 69.7273L139.116 69.7273L139.116 71.2102L139.219 71.2102Q139.487 70.4815 140.19 70.0277Q140.893 69.5739 141.776 69.5739Q141.942 69.5739 142.191 69.5803Q142.44 69.5866 142.568 69.5994L142.568 71.1335Q142.491 71.1143 142.22 71.0728Q141.948 71.0313 141.648 71.0313Q140.574 71.0313 139.871 71.6832Q139.168 72.3352 139.168 73.3324L139.168 79.5455L137.659 79.5455L137.659 69.7273ZM16.9261 79.75Q15.5966 79.75 14.5962 79.1172Q13.5959 78.4844 13.0366 77.3466Q12.4773 76.2088 12.4773 74.6875Q12.4773 73.1534 13.0366 72.0092Q13.5959 70.8651 14.5962 70.2322Q15.5966 69.5994 16.9261 69.5994Q18.2557 69.5994 19.256 70.2322Q20.2564 70.8651 20.8157 72.0092Q21.375 73.1534 21.375 74.6875Q21.375 76.2088 20.8157 77.3466Q20.2564 78.4844 19.256 79.1172Q18.2557 79.75 16.9261 79.75ZM41.0114 79.5455L41.0114 73.6392Q41.0114 72.3544 41.7241 71.6545Q42.4368 70.9545 43.517 70.9545Q44.5653 70.9545 45.1662 71.6033Q45.767 72.2521 45.767 73.4091L45.767 79.5455L47.2756 79.5455L47.2756 73.3068Q47.2756 71.4276 46.3583 70.5135Q45.4411 69.5994 43.9517 69.5994Q42.8395 69.5994 42.1364 70.0565Q41.4332 70.5135 41.0881 71.2614L40.9602 71.2614L40.9602 69.7273L39.5028 69.7273L39.5028 79.5455L41.0114 79.5455ZM67.468 79.4208Q68.2287 79.7756 69.1619 79.7756Q70.0185 79.7756 70.6129 79.5199Q71.2074 79.2642 71.5653 78.8999Q71.9233 78.5355 72.0767 78.2159L72.1534 78.2159L72.1534 79.5455L73.6619 79.5455L73.6619 73.0767Q73.6619 71.907 73.2784 71.2102Q72.8949 70.5135 72.3164 70.1683Q71.7379 69.8232 71.1211 69.7113Q70.5043 69.5994 70.0313 69.5994Q69.2898 69.5994 68.5259 69.8008Q67.7621 70.0021 67.1197 70.5039Q66.4773 71.0057 66.0938 71.9006L67.5256 72.4119Q67.7749 71.875 68.3885 71.402Q69.0021 70.929 70.0824 70.929Q71.1243 70.929 71.6388 71.4531Q72.1534 71.9773 72.1534 72.9233L72.1534 72.9744Q72.1534 73.3388 71.8945 73.4858Q71.6357 73.6328 71.0763 73.6935Q70.517 73.7543 69.6222 73.8693Q68.9382 73.9588 68.2638 74.109Q67.5895 74.2592 67.0334 74.5597Q66.4773 74.8601 66.1449 75.3874Q65.8125 75.9148 65.8125 76.7585Q65.8125 77.7173 66.2599 78.3917Q66.7074 79.0661 67.468 79.4208ZM84.7937 79.1204Q85.8196 79.75 87.2386 79.75Q88.7344 79.75 89.7699 79.0661Q90.8054 78.3821 91.1506 77.2699L89.6932 76.8608Q89.4055 77.6278 88.7663 78.0114Q88.1271 78.3949 87.2386 78.3949Q85.9091 78.3949 85.0685 77.5575Q84.228 76.7202 84.1768 75.1477L91.304 75.1477L91.304 74.5085Q91.304 73.1342 90.9396 72.1946Q90.5753 71.255 89.9616 70.6829Q89.348 70.1108 88.6001 69.8551Q87.8523 69.5994 87.0852 69.5994Q85.7557 69.5994 84.7617 70.2482Q83.7677 70.897 83.2148 72.0508Q82.6619 73.2045 82.6619 74.7131Q82.6619 76.2216 83.2148 77.3562Q83.7677 78.4908 84.7937 79.1204ZM96.4943 79.7756Q95.5611 79.7756 94.8004 79.4208Q94.0398 79.0661 93.5923 78.3917Q93.1449 77.7173 93.1449 76.7585Q93.1449 75.9148 93.4773 75.3874Q93.8097 74.8601 94.3658 74.5597Q94.9219 74.2592 95.5962 74.109Q96.2706 73.9588 96.9545 73.8693Q97.8494 73.7543 98.4087 73.6935Q98.968 73.6328 99.2269 73.4858Q99.4858 73.3388 99.4858 72.9744L99.4858 72.9233Q99.4858 71.9773 98.9712 71.4531Q98.4567 70.929 97.4148 70.929Q96.3345 70.929 95.7209 71.402Q95.1072 71.875 94.8579 72.4119L93.4261 71.9006Q93.8097 71.0057 94.4521 70.5039Q95.0945 70.0021 95.8583 69.8008Q96.6222 69.5994 97.3636 69.5994Q97.8366 69.5994 98.4535 69.7113Q99.0703 69.8232 99.6488 70.1683Q100.227 70.5135 100.611 71.2102Q100.994 71.907 100.994 73.0767L100.994 79.5455L99.4858 79.5455L99.4858 78.2159L99.4091 78.2159Q99.2557 78.5355 98.8977 78.8999Q98.5398 79.2642 97.9453 79.5199Q97.3508 79.7756 96.4943 79.7756ZM110.477 79.1172Q111.477 79.75 112.807 79.75Q114.136 79.75 115.137 79.1172Q116.137 78.4844 116.696 77.3466Q117.256 76.2088 117.256 74.6875Q117.256 73.1534 116.696 72.0092Q116.137 70.8651 115.137 70.2322Q114.136 69.5994 112.807 69.5994Q111.477 69.5994 110.477 70.2322Q109.477 70.8651 108.917 72.0092Q108.358 73.1534 108.358 74.6875Q108.358 76.2088 108.917 77.3466Q109.477 78.4844 110.477 79.1172ZM151.517 79.7756Q150.584 79.7756 149.823 79.4208Q149.062 79.0661 148.615 78.3917Q148.168 77.7173 148.168 76.7585Q148.168 75.9148 148.5 75.3874Q148.832 74.8601 149.388 74.5597Q149.945 74.2592 150.619 74.109Q151.293 73.9588 151.977 73.8693Q152.872 73.7543 153.431 73.6935Q153.991 73.6328 154.25 73.4858Q154.509 73.3388 154.509 72.9744L154.509 72.9233Q154.509 71.9773 153.994 71.4531Q153.479 70.929 152.437 70.929Q151.357 70.929 150.744 71.402Q150.13 71.875 149.881 72.4119L148.449 71.9006Q148.832 71.0057 149.475 70.5039Q150.117 70.0021 150.881 69.8008Q151.645 69.5994 152.386 69.5994Q152.859 69.5994 153.476 69.7113Q154.093 69.8232 154.672 70.1683Q155.25 70.5135 155.634 71.2102Q156.017 71.907 156.017 73.0767L156.017 79.5455L154.509 79.5455L154.509 78.2159L154.432 78.2159Q154.278 78.5355 153.92 78.8999Q153.562 79.2642 152.968 79.5199Q152.374 79.7756 151.517 79.7756ZM160.287 79.5455L160.287 73.6392Q160.287 72.3544 161 71.6545Q161.712 70.9545 162.793 70.9545Q163.841 70.9545 164.442 71.6033Q165.043 72.2521 165.043 73.4091L165.043 79.5455L166.551 79.5455L166.551 73.3068Q166.551 71.4276 165.634 70.5135Q164.717 69.5994 163.227 69.5994Q162.115 69.5994 161.412 70.0565Q160.709 70.5135 160.364 71.2614L160.236 71.2614L160.236 69.7273L158.778 69.7273L158.778 79.5455L160.287 79.5455ZM173.276 83.4318Q171.633 83.4318 170.677 82.8342Q169.722 82.2365 169.261 81.4631L170.463 80.6193Q170.668 80.8878 170.981 81.2362Q171.294 81.5845 171.841 81.8434Q172.387 82.1023 173.276 82.1023Q174.464 82.1023 175.238 81.527Q176.011 80.9517 176.011 79.7244L176.011 77.7301L175.884 77.7301Q175.717 77.9986 175.414 78.3917Q175.11 78.7848 174.544 79.0884Q173.979 79.392 173.02 79.392Q171.831 79.392 170.888 78.8295Q169.945 78.267 169.399 77.1932Q168.852 76.1193 168.852 74.5852Q168.852 73.0767 169.383 71.9549Q169.913 70.8331 170.859 70.2163Q171.805 69.5994 173.045 69.5994Q174.004 69.5994 174.57 69.9158Q175.136 70.2322 175.439 70.6317Q175.743 71.0313 175.909 71.2869L176.062 71.2869L176.062 69.7273L177.52 69.7273L177.52 79.8267Q177.52 81.0923 176.948 81.8881Q176.376 82.684 175.414 83.0579Q174.452 83.4318 173.276 83.4318ZM188.668 79.75Q187.249 79.75 186.223 79.1204Q185.197 78.4908 184.644 77.3562Q184.091 76.2216 184.091 74.7131Q184.091 73.2045 184.644 72.0508Q185.197 70.897 186.191 70.2482Q187.185 69.5994 188.514 69.5994Q189.281 69.5994 190.029 69.8551Q190.777 70.1108 191.391 70.6829Q192.004 71.255 192.369 72.1946Q192.733 73.1342 192.733 74.5085L192.733 75.1477L185.606 75.1477Q185.657 76.7202 186.497 77.5575Q187.338 78.3949 188.668 78.3949Q189.556 78.3949 190.195 78.0114Q190.835 77.6278 191.122 76.8608L192.58 77.2699Q192.234 78.3821 191.199 79.0661Q190.163 79.75 188.668 79.75ZM227.017 79.1172Q228.017 79.75 229.347 79.75Q230.676 79.75 231.676 79.1172Q232.677 78.4844 233.236 77.3466Q233.795 76.2088 233.795 74.6875Q233.795 73.1534 233.236 72.0092Q232.677 70.8651 231.676 70.2322Q230.676 69.5994 229.347 69.5994Q228.017 69.5994 227.017 70.2322Q226.016 70.8651 225.457 72.0092Q224.898 73.1534 224.898 74.6875Q224.898 76.2088 225.457 77.3466Q226.016 78.4844 227.017 79.1172ZM243.051 71.9261L241.696 72.3097Q241.498 71.7983 241.031 71.3509Q240.565 70.9034 239.574 70.9034Q238.673 70.9034 238.075 71.3157Q237.477 71.728 237.477 72.3608Q237.477 72.9233 237.886 73.2493Q238.295 73.5753 239.165 73.7926L240.622 74.1506Q243.23 74.7898 243.23 76.8097Q243.23 77.6534 242.747 78.3182Q242.265 78.983 241.402 79.3665Q240.539 79.75 239.395 79.75Q237.893 79.75 236.908 79.098Q235.924 78.446 235.662 77.1932L237.094 76.8352Q237.496 78.4205 239.369 78.4205Q240.424 78.4205 241.047 77.9698Q241.67 77.5192 241.67 76.8864Q241.67 75.8445 240.213 75.5057L238.577 75.1222Q237.228 74.8026 236.598 74.1282Q235.969 73.4538 235.969 72.4375Q235.969 71.6065 236.439 70.9673Q236.908 70.3281 237.723 69.9638Q238.538 69.5994 239.574 69.5994Q241.031 69.5994 241.865 70.2386Q242.7 70.8778 243.051 71.9261ZM247.177 79.1204Q248.203 79.75 249.622 79.75Q251.118 79.75 252.153 79.0661Q253.189 78.3821 253.534 77.2699L252.077 76.8608Q251.789 77.6278 251.15 78.0114Q250.511 78.3949 249.622 78.3949Q248.293 78.3949 247.452 77.5575Q246.611 76.7202 246.56 75.1477L253.687 75.1477L253.687 74.5085Q253.687 73.1342 253.323 72.1946Q252.959 71.255 252.345 70.6829Q251.732 70.1108 250.984 69.8551Q250.236 69.5994 249.469 69.5994Q248.139 69.5994 247.145 70.2482Q246.151 70.897 245.598 72.0508Q245.045 73.2045 245.045 74.7131Q245.045 76.2216 245.598 77.3562Q246.151 78.4908 247.177 79.1204ZM35.233 79.5455L35.233 69.7273L36.7415 69.7273L36.7415 79.5455L35.233 79.5455ZM145.866 69.7273L144.358 69.7273L144.358 79.5455L145.866 79.5455L145.866 69.7273ZM200.915 69.7273L199.33 69.7273L202.321 79.5455L203.804 79.5455L205.952 72.0028L206.105 72.0028L208.253 79.5455L209.736 79.5455L212.727 69.7273L211.142 69.7273L209.02 77.2188L208.918 77.2188L206.847 69.7273L205.236 69.7273L203.139 77.2443L203.037 77.2443L200.915 69.7273ZM16.9261 78.3949Q17.9361 78.3949 18.5881 77.8771Q19.2401 77.3594 19.5533 76.5156Q19.8665 75.6719 19.8665 74.6875Q19.8665 73.7031 19.5533 72.853Q19.2401 72.0028 18.5881 71.4787Q17.9361 70.9545 16.9261 70.9545Q15.9162 70.9545 15.2642 71.4787Q14.6122 72.0028 14.299 72.853Q13.9858 73.7031 13.9858 74.6875Q13.9858 75.6719 14.299 76.5156Q14.6122 77.3594 15.2642 77.8771Q15.9162 78.3949 16.9261 78.3949ZM53.9489 78.3949Q55.3104 78.3949 56.0359 77.3498Q56.7614 76.3047 56.7614 74.6364Q56.7614 72.9872 56.0455 71.9709Q55.3295 70.9545 53.9489 70.9545Q52.9901 70.9545 52.354 71.4435Q51.718 71.9325 51.4016 72.7667Q51.0852 73.6009 51.0852 74.6364Q51.0852 75.6847 51.408 76.538Q51.7308 77.3913 52.3668 77.8931Q53.0028 78.3949 53.9489 78.3949ZM89.7699 73.8438L84.1768 73.8438Q84.228 73.0831 84.5923 72.4215Q84.9567 71.7599 85.5895 71.3572Q86.2223 70.9545 87.0852 70.9545Q88.3125 70.9545 89.0412 71.7759Q89.7699 72.5973 89.7699 73.8438ZM114.469 77.8771Q113.817 78.3949 112.807 78.3949Q111.797 78.3949 111.145 77.8771Q110.493 77.3594 110.18 76.5156Q109.866 75.6719 109.866 74.6875Q109.866 73.7031 110.18 72.853Q110.493 72.0028 111.145 71.4787Q111.797 70.9545 112.807 70.9545Q113.817 70.9545 114.469 71.4787Q115.121 72.0028 115.434 72.853Q115.747 73.7031 115.747 74.6875Q115.747 75.6719 115.434 76.5156Q115.121 77.3594 114.469 77.8771ZM173.224 78.0369Q174.586 78.0369 175.311 77.1133Q176.037 76.1896 176.037 74.5597Q176.037 72.968 175.321 71.9613Q174.605 70.9545 173.224 70.9545Q172.266 70.9545 171.63 71.4403Q170.994 71.9261 170.677 72.7443Q170.361 73.5625 170.361 74.5597Q170.361 76.0938 171.083 77.0653Q171.805 78.0369 173.224 78.0369ZM185.606 73.8438L191.199 73.8438Q191.199 72.5973 190.47 71.7759Q189.741 70.9545 188.514 70.9545Q187.651 70.9545 187.018 71.3572Q186.386 71.7599 186.021 72.4215Q185.657 73.0831 185.606 73.8438ZM231.009 77.8771Q230.357 78.3949 229.347 78.3949Q228.337 78.3949 227.685 77.8771Q227.033 77.3594 226.719 76.5156Q226.406 75.6719 226.406 74.6875Q226.406 73.7031 226.719 72.853Q227.033 72.0028 227.685 71.4787Q228.337 70.9545 229.347 70.9545Q230.357 70.9545 231.009 71.4787Q231.661 72.0028 231.974 72.853Q232.287 73.7031 232.287 74.6875Q232.287 75.6719 231.974 76.5156Q231.661 77.3594 231.009 77.8771ZM252.153 73.8438L246.56 73.8438Q246.611 73.0831 246.976 72.4215Q247.34 71.7599 247.973 71.3572Q248.606 70.9545 249.469 70.9545Q250.696 70.9545 251.425 71.7759Q252.153 72.5973 252.153 73.8438ZM70.9038 78.0689Q70.2869 78.4205 69.392 78.4205Q68.4908 78.4205 67.9059 78.021Q67.321 77.6215 67.321 76.8352Q67.321 76.2599 67.631 75.9244Q67.941 75.5888 68.4492 75.4194Q68.9574 75.25 69.5455 75.1733Q69.7884 75.1413 70.1815 75.0934Q70.5746 75.0455 70.9932 74.9783Q71.4119 74.9112 71.7347 74.8185Q72.0575 74.7259 72.1534 74.6108L72.1534 75.9915Q72.1534 76.6051 71.837 77.1612Q71.5206 77.7173 70.9038 78.0689ZM96.7244 78.4205Q97.6193 78.4205 98.2361 78.0689Q98.853 77.7173 99.1694 77.1612Q99.4858 76.6051 99.4858 75.9915L99.4858 74.6108Q99.3899 74.7259 99.0671 74.8185Q98.7443 74.9112 98.3256 74.9783Q97.907 75.0455 97.5138 75.0934Q97.1207 75.1413 96.8778 75.1733Q96.2898 75.25 95.7816 75.4194Q95.2734 75.5888 94.9634 75.9244Q94.6534 76.2599 94.6534 76.8352Q94.6534 77.6215 95.2383 78.021Q95.8232 78.4205 96.7244 78.4205ZM151.747 78.4205Q152.642 78.4205 153.259 78.0689Q153.876 77.7173 154.192 77.1612Q154.509 76.6051 154.509 75.9915L154.509 74.6108Q154.413 74.7259 154.09 74.8185Q153.767 74.9112 153.348 74.9783Q152.93 75.0455 152.537 75.0934Q152.143 75.1413 151.901 75.1733Q151.312 75.25 150.804 75.4194Q150.296 75.5888 149.986 75.9244Q149.676 76.2599 149.676 76.8352Q149.676 77.6215 150.261 78.021Q150.846 78.4205 151.747 78.4205Z" />
        </g>
        <g id="sides-are-5,6,7">
          <path d="M11.5568 90.0909Q11.1158 90.0909 10.7994 89.7905Q10.483 89.4901 10.483 89.0682Q10.483 88.6463 10.7994 88.3459Q11.1158 88.0455 11.5568 88.0455Q11.9979 88.0455 12.3143 88.3459Q12.6307 88.6463 12.6307 89.0682Q12.6307 89.4901 12.3143 89.7905Q11.9979 90.0909 11.5568 90.0909ZM102.273 101.418Q103.078 101.712 103.884 101.724Q105.207 101.737 106.188 101.146Q107.169 100.555 107.712 99.5479Q108.256 98.5412 108.256 97.3267Q108.256 96.0611 107.693 95.0799Q107.131 94.0987 106.197 93.5394Q105.264 92.9801 104.139 92.9801Q103.129 92.9801 102.292 93.4435Q101.455 93.907 100.918 94.7188L100.815 94.7188Q100.822 92.3281 101.694 91.005Q102.567 89.6818 104.088 89.6818Q105.124 89.6818 105.75 90.2635Q106.376 90.8452 106.594 91.7273L108.153 91.7273Q107.994 90.7109 107.45 89.9311Q106.907 89.1513 106.047 88.7134Q105.188 88.2756 104.088 88.2756Q101.876 88.2756 100.604 90.158Q99.3324 92.0405 99.3324 95.5114Q99.3324 97.3267 99.7351 98.5252Q100.138 99.7237 100.803 100.424Q101.467 101.124 102.273 101.418ZM16.6001 101.127Q17.5398 101.75 18.767 101.75Q19.7131 101.75 20.282 101.434Q20.8509 101.117 21.1577 100.711Q21.4645 100.305 21.6307 100.037L21.8097 100.037L21.8097 101.545L23.267 101.545L23.267 88.4545L21.7585 88.4545L21.7585 93.2869L21.6307 93.2869Q21.4645 93.0313 21.1673 92.6317Q20.87 92.2322 20.3107 91.9158Q19.7514 91.5994 18.7926 91.5994Q17.5526 91.5994 16.6065 92.2195Q15.6605 92.8395 15.13 93.9773Q14.5994 95.1151 14.5994 96.6619Q14.5994 98.2216 15.13 99.3626Q15.6605 100.504 16.6001 101.127ZM85.6215 101.277Q86.5227 101.724 87.6477 101.724Q88.8942 101.724 89.8722 101.159Q90.8501 100.593 91.4094 99.6119Q91.9688 98.6307 91.9688 97.3778Q91.9688 96.1058 91.4286 95.1151Q90.8885 94.1243 89.9457 93.5522Q89.0028 92.9801 87.8011 92.9801Q87.1428 92.9801 86.5355 93.1911Q85.9283 93.402 85.5256 93.7216L85.4489 93.7216L85.9091 89.8608L91.3807 89.8608L91.3807 88.4545L84.5795 88.4545L83.7869 94.8977L85.2699 95.0767Q85.679 94.7827 86.3118 94.5941Q86.9446 94.4055 87.5455 94.4119Q88.3828 94.4183 89.0348 94.8082Q89.6868 95.1982 90.0607 95.8725Q90.4347 96.5469 90.4347 97.4034Q90.4347 98.2408 90.0735 98.9023Q89.7124 99.5639 89.0827 99.9411Q88.4531 100.318 87.6477 100.318Q86.6442 100.318 85.9251 99.7397Q85.206 99.1612 85.1165 98.2727L83.5824 98.2727Q83.6335 99.2699 84.1768 100.05Q84.7202 100.83 85.6215 101.277ZM122.063 89.9631L116.207 101.545L117.869 101.545L123.699 89.9375L123.699 88.4545L115.313 88.4545L115.313 89.8608L122.063 89.8608L122.063 89.9631ZM62.7955 91.7273L61.3381 91.7273L61.3381 101.545L62.8466 101.545L62.8466 95.3324Q62.8466 94.3352 63.5497 93.6832Q64.2528 93.0313 65.3267 93.0313Q65.6271 93.0313 65.8988 93.0728Q66.1705 93.1143 66.2472 93.1335L66.2472 91.5994Q66.1193 91.5866 65.87 91.5803Q65.6207 91.5739 65.4546 91.5739Q64.5724 91.5739 63.8693 92.0277Q63.1662 92.4815 62.8977 93.2102L62.7955 93.2102L62.7955 91.7273ZM8.33523 93.9261L6.98011 94.3097Q6.78196 93.7983 6.31534 93.3509Q5.84872 92.9034 4.85795 92.9034Q3.95668 92.9034 3.35902 93.3157Q2.76136 93.728 2.76136 94.3608Q2.76136 94.9233 3.17045 95.2493Q3.57955 95.5753 4.44886 95.7926L5.90625 96.1506Q8.5142 96.7898 8.5142 98.8097Q8.5142 99.6534 8.03161 100.318Q7.54901 100.983 6.68608 101.366Q5.82315 101.75 4.67898 101.75Q3.17685 101.75 2.19247 101.098Q1.2081 100.446 0.946023 99.1932L2.37784 98.8352Q2.78054 100.42 4.65341 100.42Q5.7081 100.42 6.33132 99.9698Q6.95455 99.5192 6.95455 98.8864Q6.95455 97.8445 5.49716 97.5057L3.8608 97.1222Q2.51207 96.8026 1.88246 96.1282Q1.25284 95.4538 1.25284 94.4375Q1.25284 93.6065 1.72266 92.9673Q2.19247 92.3281 3.00746 91.9638Q3.82244 91.5994 4.85795 91.5994Q6.31534 91.5994 7.1495 92.2386Q7.98366 92.8778 8.33523 93.9261ZM30.3494 101.75Q28.9304 101.75 27.9045 101.12Q26.8785 100.491 26.3256 99.3562Q25.7727 98.2216 25.7727 96.7131Q25.7727 95.2045 26.3256 94.0508Q26.8785 92.897 27.8725 92.2482Q28.8665 91.5994 30.196 91.5994Q30.9631 91.5994 31.7109 91.8551Q32.4588 92.1108 33.0724 92.6829Q33.6861 93.255 34.0504 94.1946Q34.4148 95.1342 34.4148 96.5085L34.4148 97.1477L27.2876 97.1477Q27.3388 98.7202 28.1793 99.5575Q29.0199 100.395 30.3494 100.395Q31.2379 100.395 31.8771 100.011Q32.5163 99.6278 32.804 98.8608L34.2614 99.2699Q33.9162 100.382 32.8807 101.066Q31.8452 101.75 30.3494 101.75ZM42.3153 94.3097L43.6705 93.9261Q43.3189 92.8778 42.4847 92.2386Q41.6506 91.5994 40.1932 91.5994Q39.1577 91.5994 38.3427 91.9638Q37.5277 92.3281 37.0579 92.9673Q36.5881 93.6065 36.5881 94.4375Q36.5881 95.4538 37.2177 96.1282Q37.8473 96.8026 39.196 97.1222L40.8324 97.5057Q42.2898 97.8445 42.2898 98.8864Q42.2898 99.5192 41.6665 99.9698Q41.0433 100.42 39.9886 100.42Q38.1158 100.42 37.7131 98.8352L36.2813 99.1932Q36.5433 100.446 37.5277 101.098Q38.5121 101.75 40.0142 101.75Q41.1584 101.75 42.0213 101.366Q42.8842 100.983 43.3668 100.318Q43.8494 99.6534 43.8494 98.8097Q43.8494 96.7898 41.2415 96.1506L39.7841 95.7926Q38.9148 95.5753 38.5057 95.2493Q38.0966 94.9233 38.0966 94.3608Q38.0966 93.728 38.6942 93.3157Q39.2919 92.9034 40.1932 92.9034Q41.1839 92.9034 41.6506 93.3509Q42.1172 93.7983 42.3153 94.3097ZM54.0767 101.776Q53.1435 101.776 52.3828 101.421Q51.6222 101.066 51.1747 100.392Q50.7273 99.7173 50.7273 98.7585Q50.7273 97.9148 51.0597 97.3874Q51.392 96.8601 51.9482 96.5597Q52.5043 96.2592 53.1786 96.109Q53.853 95.9588 54.5369 95.8693Q55.4318 95.7543 55.9911 95.6935Q56.5504 95.6328 56.8093 95.4858Q57.0682 95.3388 57.0682 94.9744L57.0682 94.9233Q57.0682 93.9773 56.5536 93.4531Q56.0391 92.929 54.9972 92.929Q53.9169 92.929 53.3033 93.402Q52.6896 93.875 52.4403 94.4119L51.0085 93.9006Q51.392 93.0057 52.0344 92.5039Q52.6768 92.0021 53.4407 91.8008Q54.2045 91.5994 54.946 91.5994Q55.419 91.5994 56.0359 91.7113Q56.6527 91.8232 57.2312 92.1683Q57.8097 92.5135 58.1932 93.2102Q58.5767 93.907 58.5767 95.0767L58.5767 101.545L57.0682 101.545L57.0682 100.216L56.9915 100.216Q56.8381 100.536 56.4801 100.9Q56.1222 101.264 55.5277 101.52Q54.9332 101.776 54.0767 101.776ZM72.1534 101.75Q70.7344 101.75 69.7085 101.12Q68.6825 100.491 68.1296 99.3562Q67.5767 98.2216 67.5767 96.7131Q67.5767 95.2045 68.1296 94.0508Q68.6825 92.897 69.6765 92.2482Q70.6705 91.5994 72 91.5994Q72.767 91.5994 73.5149 91.8551Q74.2628 92.1108 74.8764 92.6829Q75.4901 93.255 75.8544 94.1946Q76.2188 95.1342 76.2188 96.5085L76.2188 97.1477L69.0916 97.1477Q69.1428 98.7202 69.9833 99.5575Q70.8239 100.395 72.1534 100.395Q73.0419 100.395 73.6811 100.011Q74.3203 99.6278 74.608 98.8608L76.0653 99.2699Q75.7202 100.382 74.6847 101.066Q73.6491 101.75 72.1534 101.75ZM10.7898 101.545L10.7898 91.7273L12.2983 91.7273L12.2983 101.545L10.7898 101.545ZM21.0586 99.3498Q20.3331 100.395 18.9716 100.395Q18.0256 100.395 17.3896 99.8931Q16.7536 99.3913 16.4308 98.538Q16.108 97.6847 16.108 96.6364Q16.108 95.6009 16.4244 94.7667Q16.7408 93.9325 17.3768 93.4435Q18.0128 92.9545 18.9716 92.9545Q20.3523 92.9545 21.0682 93.9709Q21.7841 94.9872 21.7841 96.6364Q21.7841 98.3047 21.0586 99.3498ZM27.2876 95.8438L32.8807 95.8438Q32.8807 94.5973 32.152 93.7759Q31.4233 92.9545 30.196 92.9545Q29.3331 92.9545 28.7003 93.3572Q28.0675 93.7599 27.7031 94.4215Q27.3388 95.0831 27.2876 95.8438ZM69.0916 95.8438L74.6847 95.8438Q74.6847 94.5973 73.956 93.7759Q73.2273 92.9545 72 92.9545Q71.1371 92.9545 70.5043 93.3572Q69.8715 93.7599 69.5071 94.4215Q69.1428 95.0831 69.0916 95.8438ZM105.331 99.9155Q104.689 100.318 103.884 100.318Q103.065 100.318 102.423 99.9027Q101.781 99.4872 101.413 98.8097Q101.045 98.1321 101.045 97.3523Q101.052 96.5661 101.435 95.8917Q101.819 95.2173 102.471 94.8018Q103.123 94.3864 103.935 94.3864Q104.74 94.3864 105.37 94.7827Q105.999 95.179 106.36 95.8469Q106.722 96.5149 106.722 97.3267Q106.722 98.1577 106.348 98.8352Q105.974 99.5128 105.331 99.9155ZM54.3068 100.42Q55.2017 100.42 55.8185 100.069Q56.4354 99.7173 56.7518 99.1612Q57.0682 98.6051 57.0682 97.9915L57.0682 96.6108Q56.9723 96.7259 56.6495 96.8185Q56.3267 96.9112 55.908 96.9783Q55.4893 97.0455 55.0962 97.0934Q54.7031 97.1413 54.4602 97.1733Q53.8722 97.25 53.364 97.4194Q52.8558 97.5888 52.5458 97.9244Q52.2358 98.2599 52.2358 98.8352Q52.2358 99.6215 52.8207 100.021Q53.4055 100.42 54.3068 100.42ZM96.7756 99.7557L96.6733 100.446Q96.5646 101.175 96.3441 102.006Q96.1236 102.837 95.8871 103.572Q95.6506 104.307 95.4972 104.741L94.3466 104.741Q94.4297 104.332 94.5639 103.661Q94.6982 102.99 94.8356 102.162Q94.973 101.335 95.0625 100.472L95.1392 99.7557L96.7756 99.7557ZM113.037 99.7557L112.935 100.446Q112.826 101.175 112.605 102.006Q112.385 102.837 112.148 103.572Q111.912 104.307 111.759 104.741L110.608 104.741Q110.691 104.332 110.825 103.661Q110.96 102.99 111.097 102.162Q111.234 101.335 111.324 100.472L111.401 99.7557L113.037 99.7557Z" />
        </g>
        <g id="14.696938456699069">
          <path d="M41.625 132.276Q42.4304 132.282 43.2358 132.582Q44.0412 132.883 44.706 133.576Q45.3707 134.27 45.7734 135.465Q46.1761 136.661 46.1761 138.463Q46.1761 141.953 44.9009 143.839Q43.6257 145.724 41.4205 145.724Q39.7713 145.724 38.6783 144.762Q37.5852 143.8 37.3551 142.247L38.9148 142.247Q39.1257 143.148 39.7553 143.733Q40.3849 144.318 41.4205 144.318Q42.9354 144.318 43.8143 142.995Q44.6932 141.672 44.6932 139.256L44.5909 139.256Q44.054 140.061 43.2198 140.528Q42.3857 140.994 41.3693 140.994Q40.2443 140.994 39.3079 140.435Q38.3714 139.876 37.8121 138.895Q37.2528 137.913 37.2528 136.648Q37.2528 135.446 37.793 134.446Q38.3331 133.445 39.3143 132.851Q40.2955 132.256 41.625 132.276ZM64.0739 132.276Q64.8793 132.282 65.6847 132.582Q66.4901 132.883 67.1548 133.576Q67.8196 134.27 68.2223 135.465Q68.625 136.661 68.625 138.463Q68.625 141.953 67.3498 143.839Q66.0746 145.724 63.8693 145.724Q62.2202 145.724 61.1271 144.762Q60.0341 143.8 59.804 142.247L61.3636 142.247Q61.5746 143.148 62.2042 143.733Q62.8338 144.318 63.8693 144.318Q65.3842 144.318 66.2631 142.995Q67.1421 141.672 67.1421 139.256L67.0398 139.256Q66.5028 140.061 65.6687 140.528Q64.8345 140.994 63.8182 140.994Q62.6932 140.994 61.7568 140.435Q60.8203 139.876 60.261 138.895Q59.7017 137.913 59.7017 136.648Q59.7017 135.446 60.2418 134.446Q60.782 133.445 61.7631 132.851Q62.7443 132.256 64.0739 132.276ZM144.409 132.582Q143.604 132.282 142.798 132.276Q141.469 132.256 140.488 132.851Q139.506 133.445 138.966 134.446Q138.426 135.446 138.426 136.648Q138.426 137.913 138.985 138.895Q139.545 139.876 140.481 140.435Q141.418 140.994 142.543 140.994Q143.559 140.994 144.393 140.528Q145.227 140.061 145.764 139.256L145.866 139.256Q145.866 141.672 144.988 142.995Q144.109 144.318 142.594 144.318Q141.558 144.318 140.929 143.733Q140.299 143.148 140.088 142.247L138.528 142.247Q138.759 143.8 139.852 144.762Q140.945 145.724 142.594 145.724Q144.799 145.724 146.074 143.839Q147.349 141.953 147.349 138.463Q147.349 136.661 146.947 135.465Q146.544 134.27 145.879 133.576Q145.214 132.883 144.409 132.582ZM154.023 132.276Q154.828 132.282 155.634 132.582Q156.439 132.883 157.104 133.576Q157.768 134.27 158.171 135.465Q158.574 136.661 158.574 138.463Q158.574 141.953 157.299 143.839Q156.023 145.724 153.818 145.724Q152.169 145.724 151.076 144.762Q149.983 143.8 149.753 142.247L151.313 142.247Q151.523 143.148 152.153 143.733Q152.783 144.318 153.818 144.318Q155.333 144.318 156.212 142.995Q157.091 141.672 157.091 139.256L156.989 139.256Q156.452 140.061 155.618 140.528Q154.783 140.994 153.767 140.994Q152.642 140.994 151.706 140.435Q150.769 139.876 150.21 138.895Q149.651 137.913 149.651 136.648Q149.651 135.446 150.191 134.446Q150.731 133.445 151.712 132.851Q152.693 132.256 154.023 132.276ZM189.332 132.582Q188.527 132.282 187.722 132.276Q186.392 132.256 185.411 132.851Q184.43 133.445 183.89 134.446Q183.349 135.446 183.349 136.648Q183.349 137.913 183.909 138.895Q184.468 139.876 185.404 140.435Q186.341 140.994 187.466 140.994Q188.482 140.994 189.316 140.528Q190.151 140.061 190.687 139.256L190.79 139.256Q190.79 141.672 189.911 142.995Q189.032 144.318 187.517 144.318Q186.482 144.318 185.852 143.733Q185.222 143.148 185.011 142.247L183.452 142.247Q183.682 143.8 184.775 144.762Q185.868 145.724 187.517 145.724Q189.722 145.724 190.997 143.839Q192.273 141.953 192.273 138.463Q192.273 136.661 191.87 135.465Q191.467 134.27 190.803 133.576Q190.138 132.883 189.332 132.582ZM28.9688 145.418Q29.7741 145.712 30.5795 145.724Q31.9027 145.737 32.8839 145.146Q33.8651 144.555 34.4084 143.548Q34.9517 142.541 34.9517 141.327Q34.9517 140.061 34.3892 139.08Q33.8267 138.099 32.8935 137.539Q31.9602 136.98 30.8352 136.98Q29.8253 136.98 28.9879 137.444Q28.1506 137.907 27.6136 138.719L27.5114 138.719Q27.5178 136.328 28.3903 135.005Q29.2628 133.682 30.7841 133.682Q31.8196 133.682 32.446 134.263Q33.0724 134.845 33.2898 135.727L34.8494 135.727Q34.6896 134.711 34.1463 133.931Q33.603 133.151 32.7433 132.713Q31.8835 132.276 30.7841 132.276Q28.5724 132.276 27.3004 134.158Q26.0284 136.04 26.0284 139.511Q26.0284 141.327 26.4311 142.525Q26.8338 143.724 27.4986 144.424Q28.1634 145.124 28.9688 145.418ZM51.4176 145.418Q52.223 145.712 53.0284 145.724Q54.3516 145.737 55.3327 145.146Q56.3139 144.555 56.8572 143.548Q57.4006 142.541 57.4006 141.327Q57.4006 140.061 56.8381 139.08Q56.2756 138.099 55.3423 137.539Q54.4091 136.98 53.2841 136.98Q52.2742 136.98 51.4368 137.444Q50.5994 137.907 50.0625 138.719L49.9602 138.719Q49.9666 136.328 50.8391 135.005Q51.7117 133.682 53.233 133.682Q54.2685 133.682 54.8949 134.263Q55.5213 134.845 55.7386 135.727L57.2983 135.727Q57.1385 134.711 56.5952 133.931Q56.0518 133.151 55.1921 132.713Q54.3324 132.276 53.233 132.276Q51.0213 132.276 49.7493 134.158Q48.4773 136.04 48.4773 139.511Q48.4773 141.327 48.88 142.525Q49.2827 143.724 49.9474 144.424Q50.6122 145.124 51.4176 145.418ZM73.3008 145.29Q74.2884 145.724 75.554 145.724Q76.826 145.724 77.8232 145.239Q78.8203 144.753 79.3988 143.906Q79.9773 143.059 79.9773 141.991Q79.9773 140.745 79.2805 139.898Q78.5838 139.051 77.3438 138.847L77.3438 138.744Q78.3345 138.444 78.913 137.664Q79.4915 136.884 79.4915 135.778Q79.4915 134.852 79.0249 134.053Q78.5582 133.254 77.6889 132.765Q76.8196 132.276 75.6051 132.276Q74.4737 132.276 73.5309 132.71Q72.5881 133.145 72.0064 133.922Q71.4247 134.698 71.3864 135.727L72.9205 135.727Q72.9524 135.075 73.3296 134.612Q73.7067 134.148 74.3043 133.902Q74.902 133.656 75.5796 133.656Q76.6662 133.656 77.3118 134.26Q77.9574 134.864 77.9574 135.855Q77.9574 136.891 77.2223 137.511Q76.4872 138.131 75.3239 138.131L74.2756 138.131L74.2756 139.537L75.3239 139.537Q76.8132 139.537 77.6154 140.221Q78.4176 140.905 78.4176 141.991Q78.4176 143.033 77.6026 143.676Q76.7876 144.318 75.5284 144.318Q74.3906 144.318 73.5884 143.768Q72.7862 143.219 72.7159 142.273L71.1051 142.273Q71.1563 143.302 71.7347 144.078Q72.3132 144.855 73.3008 145.29ZM86.7784 145.724Q85.4617 145.724 84.4549 145.255Q83.4482 144.785 82.8857 143.957Q82.3232 143.129 82.3296 142.068Q82.3232 141.237 82.6555 140.531Q82.9879 139.825 83.5664 139.348Q84.1449 138.872 84.8608 138.744L84.8608 138.668Q83.9212 138.425 83.3651 137.61Q82.809 136.795 82.8153 135.753Q82.809 134.756 83.3203 133.969Q83.8317 133.183 84.7298 132.729Q85.6278 132.276 86.7784 132.276Q87.9162 132.276 88.8111 132.729Q89.706 133.183 90.2205 133.969Q90.7351 134.756 90.7415 135.753Q90.7351 136.795 90.1758 137.61Q89.6165 138.425 88.696 138.668L88.696 138.744Q89.4055 138.872 89.9744 139.348Q90.5433 139.825 90.8821 140.531Q91.2209 141.237 91.2273 142.068Q91.2209 143.129 90.6552 143.957Q90.0895 144.785 89.0891 145.255Q88.0888 145.724 86.7784 145.724ZM118.918 145.418Q119.723 145.712 120.528 145.724Q121.852 145.737 122.833 145.146Q123.814 144.555 124.357 143.548Q124.901 142.541 124.901 141.327Q124.901 140.061 124.338 139.08Q123.776 138.099 122.842 137.539Q121.909 136.98 120.784 136.98Q119.774 136.98 118.937 137.444Q118.099 137.907 117.563 138.719L117.46 138.719Q117.467 136.328 118.339 135.005Q119.212 133.682 120.733 133.682Q121.768 133.682 122.395 134.263Q123.021 134.845 123.239 135.727L124.798 135.727Q124.638 134.711 124.095 133.931Q123.552 133.151 122.692 132.713Q121.832 132.276 120.733 132.276Q118.521 132.276 117.249 134.158Q115.977 136.04 115.977 139.511Q115.977 141.327 116.38 142.525Q116.783 143.724 117.447 144.424Q118.112 145.124 118.918 145.418ZM131.753 145.724Q130.947 145.712 130.142 145.418Q129.337 145.124 128.672 144.424Q128.007 143.724 127.604 142.525Q127.202 141.327 127.202 139.511Q127.202 136.04 128.474 134.158Q129.746 132.276 131.957 132.276Q133.057 132.276 133.917 132.713Q134.776 133.151 135.32 133.931Q135.863 134.711 136.023 135.727L134.463 135.727Q134.246 134.845 133.619 134.263Q132.993 133.682 131.957 133.682Q130.436 133.682 129.564 135.005Q128.691 136.328 128.685 138.719L128.787 138.719Q129.324 137.907 130.161 137.444Q130.999 136.98 132.009 136.98Q133.134 136.98 134.067 137.539Q135 138.099 135.563 139.08Q136.125 140.061 136.125 141.327Q136.125 142.541 135.582 143.548Q135.038 144.555 134.057 145.146Q133.076 145.737 131.753 145.724ZM161.99 143.967Q163.183 145.724 165.349 145.724Q167.516 145.724 168.708 143.967Q169.901 142.209 169.901 139Q169.901 135.817 168.699 134.046Q167.497 132.276 165.349 132.276Q163.202 132.276 162 134.046Q160.798 135.817 160.798 139Q160.798 142.209 161.99 143.967ZM176.676 145.724Q175.871 145.712 175.065 145.418Q174.26 145.124 173.595 144.424Q172.93 143.724 172.528 142.525Q172.125 141.327 172.125 139.511Q172.125 136.04 173.397 134.158Q174.669 132.276 176.881 132.276Q177.98 132.276 178.84 132.713Q179.7 133.151 180.243 133.931Q180.786 134.711 180.946 135.727L179.386 135.727Q179.169 134.845 178.543 134.263Q177.916 133.682 176.881 133.682Q175.359 133.682 174.487 135.005Q173.614 136.328 173.608 138.719L173.71 138.719Q174.247 137.907 175.085 137.444Q175.922 136.98 176.932 136.98Q178.057 136.98 178.99 137.539Q179.923 138.099 180.486 139.08Q181.048 140.061 181.048 141.327Q181.048 142.541 180.505 143.548Q179.962 144.555 178.98 145.146Q177.999 145.737 176.676 145.724ZM5.95739 145.545L5.95739 132.455L4.37216 132.455L1.09943 134.628L1.09943 136.239L4.29545 134.116L4.37216 134.116L4.37216 145.545L5.95739 145.545ZM9.40909 141.557L9.40909 142.861L15.571 142.861L15.571 145.545L17.0795 145.545L17.0795 142.861L18.8693 142.861L18.8693 141.455L17.0795 141.455L17.0795 132.455L15.1619 132.455L9.40909 141.557ZM93.375 141.557L93.375 142.861L99.5369 142.861L99.5369 145.545L101.045 145.545L101.045 142.861L102.835 142.861L102.835 141.455L101.045 141.455L101.045 132.455L99.1278 132.455L93.375 141.557ZM109.33 145.724Q108.205 145.724 107.303 145.277Q106.402 144.83 105.859 144.05Q105.315 143.27 105.264 142.273L106.798 142.273Q106.888 143.161 107.607 143.74Q108.326 144.318 109.33 144.318Q110.135 144.318 110.765 143.941Q111.394 143.564 111.755 142.902Q112.116 142.241 112.116 141.403Q112.116 140.547 111.743 139.873Q111.369 139.198 110.717 138.808Q110.065 138.418 109.227 138.412Q108.626 138.406 107.994 138.594Q107.361 138.783 106.952 139.077L105.469 138.898L106.261 132.455L113.063 132.455L113.063 133.861L107.591 133.861L107.131 137.722L107.207 137.722Q107.61 137.402 108.217 137.191Q108.825 136.98 109.483 136.98Q110.685 136.98 111.627 137.552Q112.57 138.124 113.11 139.115Q113.651 140.106 113.651 141.378Q113.651 142.631 113.091 143.612Q112.532 144.593 111.554 145.159Q110.576 145.724 109.33 145.724ZM86.7784 138.105Q87.8331 138.105 88.5171 137.488Q89.201 136.871 89.2074 135.855Q89.201 134.858 88.533 134.257Q87.8651 133.656 86.7784 133.656Q85.679 133.656 85.011 134.257Q84.343 134.858 84.3494 135.855Q84.343 136.871 85.0238 137.488Q85.7046 138.105 86.7784 138.105ZM167.574 142.938Q166.781 144.318 165.349 144.318Q163.924 144.318 163.128 142.938Q162.332 141.557 162.332 139Q162.332 136.45 163.131 135.053Q163.93 133.656 165.349 133.656Q166.768 133.656 167.567 135.053Q168.366 136.45 168.366 139Q168.366 141.557 167.574 142.938ZM41.625 133.682Q40.8196 133.682 40.1772 134.081Q39.5348 134.481 39.1609 135.155Q38.7869 135.83 38.7869 136.648Q38.7869 137.466 39.1481 138.134Q39.5092 138.802 40.1388 139.195Q40.7685 139.588 41.5739 139.588Q42.3793 139.588 43.0344 139.173Q43.6896 138.757 44.0763 138.08Q44.4631 137.402 44.4631 136.622Q44.4631 135.855 44.0955 135.184Q43.728 134.513 43.0856 134.097Q42.4432 133.682 41.625 133.682ZM64.0739 133.682Q63.2685 133.682 62.6261 134.081Q61.9837 134.481 61.6097 135.155Q61.2358 135.83 61.2358 136.648Q61.2358 137.466 61.597 138.134Q61.9581 138.802 62.5877 139.195Q63.2173 139.588 64.0227 139.588Q64.8281 139.588 65.4833 139.173Q66.1385 138.757 66.5252 138.08Q66.9119 137.402 66.9119 136.622Q66.9119 135.855 66.5444 135.184Q66.1768 134.513 65.5344 134.097Q64.8921 133.682 64.0739 133.682ZM141.351 134.081Q141.993 133.682 142.798 133.682Q143.616 133.682 144.259 134.097Q144.901 134.513 145.269 135.184Q145.636 135.855 145.636 136.622Q145.636 137.402 145.25 138.08Q144.863 138.757 144.208 139.173Q143.553 139.588 142.747 139.588Q141.942 139.588 141.312 139.195Q140.683 138.802 140.321 138.134Q139.96 137.466 139.96 136.648Q139.96 135.83 140.334 135.155Q140.708 134.481 141.351 134.081ZM154.023 133.682Q153.217 133.682 152.575 134.081Q151.933 134.481 151.559 135.155Q151.185 135.83 151.185 136.648Q151.185 137.466 151.546 138.134Q151.907 138.802 152.537 139.195Q153.166 139.588 153.972 139.588Q154.777 139.588 155.432 139.173Q156.087 138.757 156.474 138.08Q156.861 137.402 156.861 136.622Q156.861 135.855 156.493 135.184Q156.126 134.513 155.483 134.097Q154.841 133.682 154.023 133.682ZM186.274 134.081Q186.916 133.682 187.722 133.682Q188.54 133.682 189.182 134.097Q189.825 134.513 190.192 135.184Q190.56 135.855 190.56 136.622Q190.56 137.402 190.173 138.08Q189.786 138.757 189.131 139.173Q188.476 139.588 187.67 139.588Q186.865 139.588 186.235 139.195Q185.606 138.802 185.245 138.134Q184.884 137.466 184.884 136.648Q184.884 135.83 185.257 135.155Q185.631 134.481 186.274 134.081ZM15.571 134.474L15.571 141.455L11.1222 141.455L11.1222 141.352L15.4688 134.474L15.571 134.474ZM99.5369 134.474L99.5369 141.455L95.0881 141.455L95.0881 141.352L99.4347 134.474L99.5369 134.474ZM32.0273 143.915Q31.3849 144.318 30.5795 144.318Q29.7614 144.318 29.119 143.903Q28.4766 143.487 28.109 142.81Q27.7415 142.132 27.7415 141.352Q27.7479 140.566 28.1314 139.892Q28.5149 139.217 29.1669 138.802Q29.8189 138.386 30.6307 138.386Q31.4361 138.386 32.0657 138.783Q32.6953 139.179 33.0565 139.847Q33.4176 140.515 33.4176 141.327Q33.4176 142.158 33.0437 142.835Q32.6697 143.513 32.0273 143.915ZM54.4762 143.915Q53.8338 144.318 53.0284 144.318Q52.2102 144.318 51.5678 143.903Q50.9254 143.487 50.5579 142.81Q50.1903 142.132 50.1903 141.352Q50.1967 140.566 50.5803 139.892Q50.9638 139.217 51.6158 138.802Q52.2678 138.386 53.0795 138.386Q53.8849 138.386 54.5146 138.783Q55.1442 139.179 55.5053 139.847Q55.8665 140.515 55.8665 141.327Q55.8665 142.158 55.4925 142.835Q55.1186 143.513 54.4762 143.915ZM121.976 143.915Q121.334 144.318 120.528 144.318Q119.71 144.318 119.068 143.903Q118.425 143.487 118.058 142.81Q117.69 142.132 117.69 141.352Q117.697 140.566 118.08 139.892Q118.464 139.217 119.116 138.802Q119.768 138.386 120.58 138.386Q121.385 138.386 122.015 138.783Q122.644 139.179 123.005 139.847Q123.366 140.515 123.366 141.327Q123.366 142.158 122.993 142.835Q122.619 143.513 121.976 143.915ZM131.753 144.318Q132.558 144.318 133.201 143.915Q133.843 143.513 134.217 142.835Q134.591 142.158 134.591 141.327Q134.591 140.515 134.23 139.847Q133.869 139.179 133.239 138.783Q132.609 138.386 131.804 138.386Q130.992 138.386 130.34 138.802Q129.688 139.217 129.305 139.892Q128.921 140.566 128.915 141.352Q128.915 142.132 129.282 142.81Q129.65 143.487 130.292 143.903Q130.935 144.318 131.753 144.318ZM176.676 144.318Q177.482 144.318 178.124 143.915Q178.766 143.513 179.14 142.835Q179.514 142.158 179.514 141.327Q179.514 140.515 179.153 139.847Q178.792 139.179 178.162 138.783Q177.533 138.386 176.727 138.386Q175.915 138.386 175.263 138.802Q174.611 139.217 174.228 139.892Q173.844 140.566 173.838 141.352Q173.838 142.132 174.206 142.81Q174.573 143.487 175.216 143.903Q175.858 144.318 176.676 144.318ZM86.7784 144.318Q88.108 144.318 88.8846 143.682Q89.6612 143.046 89.6676 141.991Q89.6612 141.25 89.2841 140.681Q88.907 140.112 88.2582 139.786Q87.6094 139.46 86.7784 139.46Q85.9411 139.46 85.2859 139.786Q84.6307 140.112 84.2568 140.681Q83.8828 141.25 83.8892 141.991Q83.8828 143.046 84.6563 143.682Q85.4297 144.318 86.7784 144.318ZM22.3977 145.648Q21.9247 145.648 21.5859 145.309Q21.2472 144.97 21.2472 144.497Q21.2472 144.024 21.5859 143.685Q21.9247 143.347 22.3977 143.347Q22.8707 143.347 23.2095 143.685Q23.5483 144.024 23.5483 144.497Q23.5483 144.97 23.2095 145.309Q22.8707 145.648 22.3977 145.648Z" />
        </g>
      </g>
    </g>
  </g>
</svg>