<?xml version="1.0" encoding="utf-8"?>
<svg width="381px" height="282px" viewBox="0 0 381 282" version="1.1" xmlns:xlink="http://www.w3.org/1999/xlink" xmlns="http://www.w3.org/2000/svg">
  <g id="Group-100">
    <g id="Group-98">
      <path d="M0 0L307.09 0L375 0L375 282L0 282L0 0Z" id="Rectangle-14" fill="#FFFFFF" fill-rule="evenodd" stroke="none" />
      <g id="Group-94" transform="translate(13 11.000244)">
        <g id="JavaScript-String-Properties-T">
          <g id="JavaScript-String-Properties">
            <path d="M58.0904 74.6587Q58.354 74.9091 58.7216 74.9091Q59.0891 74.9091 59.3528 74.6587Q59.6165 74.4084 59.6165 74.0568Q59.6165 73.7053 59.3528 73.4549Q59.0891 73.2045 58.7216 73.2045Q58.354 73.2045 58.0904 73.4549Q57.8267 73.7053 57.8267 74.0568Q57.8267 74.4084 58.0904 74.6587ZM101.066 74.6587Q101.33 74.9091 101.697 74.9091Q102.065 74.9091 102.329 74.6587Q102.592 74.4084 102.592 74.0568Q102.592 73.7053 102.329 73.4549Q102.065 73.2045 101.697 73.2045Q101.33 73.2045 101.066 73.4549Q100.803 73.7053 100.803 74.0568Q100.803 74.4084 101.066 74.6587ZM179.731 74.6587Q179.995 74.9091 180.362 74.9091Q180.73 74.9091 180.993 74.6587Q181.257 74.4084 181.257 74.0568Q181.257 73.7053 180.993 73.4549Q180.73 73.2045 180.362 73.2045Q179.995 73.2045 179.731 73.4549Q179.467 73.7053 179.467 74.0568Q179.467 74.4084 179.731 74.6587ZM40.696 76.2727Q40.6001 75.4631 39.9183 75.0156Q39.2365 74.5682 38.2457 74.5682Q37.1591 74.5682 36.4986 75.0822Q35.8381 75.5962 35.8381 76.3793Q35.8381 76.9652 36.1976 77.3248Q36.5572 77.6843 37.0499 77.8841Q37.5426 78.0838 37.9474 78.1903L39.0554 78.4886Q39.4815 78.6005 40.0062 78.7976Q40.5309 78.9947 41.013 79.3329Q41.495 79.6712 41.8093 80.1985Q42.1236 80.7259 42.1236 81.4929Q42.1236 82.3771 41.6628 83.0909Q41.2021 83.8047 40.3205 84.2255Q39.4389 84.6463 38.1818 84.6463Q36.424 84.6463 35.3906 83.8153Q34.3572 82.9844 34.2614 81.642L35.625 81.642Q35.6783 82.2599 36.0431 82.6621Q36.408 83.0643 36.97 83.2587Q37.532 83.4531 38.1818 83.4531Q38.9382 83.4531 39.5401 83.2054Q40.142 82.9577 40.4936 82.513Q40.8452 82.0682 40.8452 81.4716Q40.8452 80.9283 40.5415 80.5874Q40.2379 80.2464 39.7425 80.0334Q39.2472 79.8203 38.6719 79.6605L37.3295 79.277Q36.0511 78.9094 35.3054 78.2276Q34.5597 77.5458 34.5597 76.4432Q34.5597 75.527 35.0577 74.8425Q35.5558 74.158 36.4 73.7772Q37.2443 73.3963 38.2883 73.3963Q39.343 73.3963 40.1633 73.7718Q40.9837 74.1474 41.4657 74.7972Q41.9478 75.4471 41.9744 76.2727L40.696 76.2727ZM86.5909 76.2727Q86.495 75.4631 85.8132 75.0156Q85.1314 74.5682 84.1406 74.5682Q83.054 74.5682 82.3935 75.0822Q81.7329 75.5962 81.7329 76.3793Q81.7329 76.9652 82.0925 77.3248Q82.452 77.6843 82.9448 77.8841Q83.4375 78.0838 83.8423 78.1903L84.9503 78.4886Q85.3764 78.6005 85.9011 78.7976Q86.4258 78.9947 86.9078 79.3329Q87.3899 79.6712 87.7042 80.1985Q88.0185 80.7259 88.0185 81.4929Q88.0185 82.3771 87.5577 83.0909Q87.0969 83.8047 86.2154 84.2255Q85.3338 84.6463 84.0767 84.6463Q82.3189 84.6463 81.2855 83.8153Q80.2521 82.9844 80.1562 81.642L81.5199 81.642Q81.5731 82.2599 81.938 82.6621Q82.3029 83.0643 82.8649 83.2587Q83.4268 83.4531 84.0767 83.4531Q84.8331 83.4531 85.435 83.2054Q86.0369 82.9577 86.3885 82.513Q86.7401 82.0682 86.7401 81.4716Q86.7401 80.9283 86.4364 80.5874Q86.1328 80.2464 85.6374 80.0334Q85.142 79.8203 84.5668 79.6605L83.2244 79.277Q81.946 78.9094 81.2003 78.2276Q80.4545 77.5458 80.4545 76.4432Q80.4545 75.527 80.9526 74.8425Q81.4506 74.158 82.2949 73.7772Q83.1392 73.3963 84.1832 73.3963Q85.2379 73.3963 86.0582 73.7718Q86.8785 74.1474 87.3606 74.7972Q87.8427 75.4471 87.8693 76.2727L86.5909 76.2727ZM6.81818 73.5455L5.49716 73.5455L5.49716 81.3438Q5.49716 82.3612 5.03107 82.8965Q4.56499 83.4318 3.70739 83.4318Q2.92969 83.4318 2.42365 83.011Q1.91761 82.5902 1.91761 81.8977L0.617898 81.8977Q0.617898 82.734 1.0174 83.3413Q1.4169 83.9485 2.1147 84.2761Q2.8125 84.6037 3.70739 84.6037Q5.12962 84.6037 5.9739 83.7594Q6.81818 82.9151 6.81818 81.3438L6.81818 73.5455ZM126.925 84.4545L126.925 73.5455L130.611 73.5455Q131.895 73.5455 132.712 74.0062Q133.53 74.467 133.924 75.25Q134.318 76.033 134.318 76.9972Q134.318 77.9613 133.927 78.7496Q133.535 79.538 132.72 80.0041Q131.905 80.4702 130.632 80.4702L128.246 80.4702L128.246 84.4545L126.925 84.4545ZM74.3395 77.3381L74.3395 76.2727L72.5923 76.2727L72.5923 74.3125L71.3352 74.3125L71.3352 76.2727L70.0994 76.2727L70.0994 77.3381L71.3352 77.3381L71.3352 82.4517Q71.3352 83.1655 71.6681 83.6342Q72.0011 84.103 72.5098 84.332Q73.0185 84.5611 73.5511 84.5611Q73.9027 84.5611 74.1317 84.5105Q74.3608 84.4599 74.4886 84.4119L74.2329 83.2827Q74.153 83.2987 74.0199 83.3226Q73.8867 83.3466 73.679 83.3466Q73.402 83.3466 73.1543 83.2587Q72.9066 83.1708 72.7495 82.9071Q72.5923 82.6435 72.5923 82.1108L72.5923 77.3381L74.3395 77.3381ZM93.5795 77.3381L93.5795 76.2727L91.8324 76.2727L91.8324 74.3125L90.5753 74.3125L90.5753 76.2727L89.3395 76.2727L89.3395 77.3381L90.5753 77.3381L90.5753 82.4517Q90.5753 83.1655 90.9082 83.6342Q91.2411 84.103 91.7498 84.332Q92.2585 84.5611 92.7912 84.5611Q93.1427 84.5611 93.3718 84.5105Q93.6008 84.4599 93.7287 84.4119L93.473 83.2827Q93.3931 83.2987 93.2599 83.3226Q93.1268 83.3466 92.919 83.3466Q92.642 83.3466 92.3943 83.2587Q92.1467 83.1708 91.9895 82.9071Q91.8324 82.6435 91.8324 82.1108L91.8324 77.3381L93.5795 77.3381ZM177.827 76.2727L177.827 77.3381L176.08 77.3381L176.08 82.1108Q176.08 82.6435 176.237 82.9071Q176.394 83.1708 176.642 83.2587Q176.889 83.3466 177.166 83.3466Q177.374 83.3466 177.507 83.3226Q177.64 83.2987 177.72 83.2827L177.976 84.4119Q177.848 84.4599 177.619 84.5105Q177.39 84.5611 177.038 84.5611Q176.506 84.5611 175.997 84.332Q175.488 84.103 175.155 83.6342Q174.822 83.1655 174.822 82.4517L174.822 77.3381L173.587 77.3381L173.587 76.2727L174.822 76.2727L174.822 74.3125L176.08 74.3125L176.08 76.2727L177.827 76.2727ZM128.246 79.2983L130.589 79.2983Q131.905 79.2983 132.462 78.6378Q133.018 77.9773 133.018 76.9972Q133.018 76.0117 132.459 75.3645Q131.9 74.7173 130.568 74.7173L128.246 74.7173L128.246 79.2983ZM52.5 76.2727L53.7145 76.2727L53.7145 77.5085L53.7997 77.5085Q54.0234 76.9013 54.6094 76.5231Q55.1953 76.1449 55.9304 76.1449Q56.0689 76.1449 56.2766 76.1502Q56.4844 76.1555 56.5909 76.1662L56.5909 77.4446Q56.527 77.4286 56.3006 77.394Q56.0742 77.3594 55.8239 77.3594Q54.929 77.3594 54.343 77.9027Q53.7571 78.446 53.7571 79.277L53.7571 84.4545L52.5 84.4545L52.5 76.2727ZM95.4758 76.2727L96.6903 76.2727L96.6903 77.5085L96.7756 77.5085Q96.9993 76.9013 97.5852 76.5231Q98.1712 76.1449 98.9062 76.1449Q99.0447 76.1449 99.2525 76.1502Q99.4602 76.1555 99.5667 76.1662L99.5667 77.4446Q99.5028 77.4286 99.2764 77.394Q99.0501 77.3594 98.7997 77.3594Q97.9048 77.3594 97.3189 77.9027Q96.7329 78.446 96.7329 79.277L96.7329 84.4545L95.4758 84.4545L95.4758 76.2727ZM137.493 76.2727L136.278 76.2727L136.278 84.4545L137.536 84.4545L137.536 79.277Q137.536 78.446 138.121 77.9027Q138.707 77.3594 139.602 77.3594Q139.853 77.3594 140.079 77.394Q140.305 77.4286 140.369 77.4446L140.369 76.1662Q140.263 76.1555 140.055 76.1502Q139.847 76.1449 139.709 76.1449Q138.974 76.1449 138.388 76.5231Q137.802 76.9013 137.578 77.5085L137.493 77.5085L137.493 76.2727ZM169.901 76.2727L168.686 76.2727L168.686 84.4545L169.943 84.4545L169.943 79.277Q169.943 78.446 170.529 77.9027Q171.115 77.3594 172.01 77.3594Q172.26 77.3594 172.487 77.394Q172.713 77.4286 172.777 77.4446L172.777 76.1662Q172.67 76.1555 172.463 76.1502Q172.255 76.1449 172.116 76.1449Q171.381 76.1449 170.795 76.5231Q170.21 76.9013 169.986 77.5085L169.901 77.5085L169.901 76.2727ZM10.2859 84.3507Q10.9197 84.6463 11.6974 84.6463Q12.4112 84.6463 12.9066 84.4332Q13.402 84.2202 13.7003 83.9165Q13.9986 83.6129 14.1264 83.3466L14.1903 83.3466L14.1903 84.4545L15.4474 84.4545L15.4474 79.0639Q15.4474 78.0891 15.1278 77.5085Q14.8082 76.9279 14.3262 76.6403Q13.8441 76.3526 13.3301 76.2594Q12.8161 76.1662 12.4219 76.1662Q11.804 76.1662 11.1674 76.334Q10.5309 76.5018 9.99556 76.9199Q9.46023 77.3381 9.14063 78.0838L10.3338 78.5099Q10.5415 78.0625 11.0529 77.6683Q11.5643 77.2741 12.4645 77.2741Q13.3327 77.2741 13.7615 77.7109Q14.1903 78.1477 14.1903 78.9361L14.1903 78.9787Q14.1903 79.2823 13.9746 79.4048Q13.7589 79.5273 13.2928 79.5779Q12.8267 79.6285 12.081 79.7244Q11.511 79.799 10.949 79.9242Q10.3871 80.0494 9.92365 80.2997Q9.46023 80.5501 9.18324 80.9895Q8.90625 81.429 8.90625 82.1321Q8.90625 82.9311 9.27912 83.4931Q9.65199 84.055 10.2859 84.3507ZM27.0969 84.3507Q27.7308 84.6463 28.5085 84.6463Q29.2223 84.6463 29.7177 84.4332Q30.2131 84.2202 30.5114 83.9165Q30.8097 83.6129 30.9375 83.3466L31.0014 83.3466L31.0014 84.4545L32.2585 84.4545L32.2585 79.0639Q32.2585 78.0891 31.9389 77.5085Q31.6193 76.9279 31.1373 76.6403Q30.6552 76.3526 30.1412 76.2594Q29.6271 76.1662 29.233 76.1662Q28.6151 76.1662 27.9785 76.334Q27.342 76.5018 26.8066 76.9199Q26.2713 77.3381 25.9517 78.0838L27.1449 78.5099Q27.3526 78.0625 27.864 77.6683Q28.3754 77.2741 29.2756 77.2741Q30.1438 77.2741 30.5726 77.7109Q31.0014 78.1477 31.0014 78.9361L31.0014 78.9787Q31.0014 79.2823 30.7857 79.4048Q30.57 79.5273 30.1039 79.5779Q29.6378 79.6285 28.892 79.7244Q28.3221 79.799 27.7601 79.9242Q27.1982 80.0494 26.7347 80.2997Q26.2713 80.5501 25.9943 80.9895Q25.7173 81.429 25.7173 82.1321Q25.7173 82.9311 26.0902 83.4931Q26.4631 84.055 27.0969 84.3507ZM45.4687 84.0817Q46.2997 84.625 47.4503 84.625Q48.3558 84.625 49.0403 84.2868Q49.7248 83.9485 50.1429 83.3706Q50.5611 82.7926 50.6676 82.0682L49.4105 82.0682Q49.2347 82.7393 48.71 83.1175Q48.1854 83.4957 47.4503 83.4957Q46.3317 83.4957 45.6658 82.6408Q45 81.7859 45 80.3636Q45 78.9734 45.6738 78.1344Q46.3477 77.2955 47.4503 77.2955Q48.2812 77.2955 48.774 77.7296Q49.2667 78.1637 49.4105 78.723L50.6676 78.723Q50.5611 77.956 50.119 77.3807Q49.6768 76.8054 48.9844 76.4858Q48.2919 76.1662 47.429 76.1662Q46.321 76.1662 45.4927 76.7068Q44.6644 77.2475 44.2037 78.2037Q43.7429 79.1598 43.7429 80.4063Q43.7429 81.6314 44.1903 82.5849Q44.6378 83.5384 45.4687 84.0817ZM61.6406 76.2727L62.8551 76.2727L62.8551 77.5724L63.0043 77.5724Q63.1428 77.3594 63.3904 77.0265Q63.6381 76.6935 64.1042 76.4299Q64.5703 76.1662 65.3693 76.1662Q66.4027 76.1662 67.191 76.6829Q67.9794 77.1996 68.4215 78.1477Q68.8636 79.0959 68.8636 80.3849Q68.8636 81.6847 68.4215 82.6355Q67.9794 83.5863 67.1964 84.1056Q66.4134 84.625 65.3906 84.625Q64.6023 84.625 64.1282 84.3613Q63.6541 84.0977 63.3984 83.7594Q63.1428 83.4212 63.0043 83.1974L62.8977 83.1974L62.8977 87.5227L61.6406 87.5227L61.6406 76.2727ZM105.874 79.5327L105.874 84.4545L104.616 84.4545L104.616 76.2727L105.831 76.2727L105.831 77.5511L105.937 77.5511Q106.225 76.9279 106.811 76.5471Q107.397 76.1662 108.324 76.1662Q109.565 76.1662 110.329 76.9279Q111.094 77.6896 111.094 79.2557L111.094 84.4545L109.837 84.4545L109.837 79.3409Q109.837 78.3768 109.336 77.8361Q108.835 77.2955 107.962 77.2955Q107.061 77.2955 106.467 77.8787Q105.874 78.462 105.874 79.5327ZM114.532 87.1951Q115.328 87.6932 116.697 87.6932Q117.678 87.6932 118.479 87.3816Q119.281 87.07 119.758 86.4068Q120.234 85.7436 120.234 84.6889L120.234 76.2727L119.02 76.2727L119.02 77.5724L118.892 77.5724Q118.754 77.3594 118.501 77.0265Q118.248 76.6935 117.776 76.4299Q117.305 76.1662 116.506 76.1662Q115.472 76.1662 114.684 76.6802Q113.896 77.1942 113.453 78.1291Q113.011 79.0639 113.011 80.321Q113.011 81.5994 113.467 82.4943Q113.922 83.3892 114.708 83.858Q115.494 84.3267 116.484 84.3267Q117.283 84.3267 117.755 84.0737Q118.226 83.8207 118.479 83.4931Q118.732 83.1655 118.871 82.9418L118.977 82.9418L118.977 84.6037Q118.977 85.6264 118.333 86.1058Q117.688 86.5852 116.697 86.5852Q115.957 86.5852 115.502 86.3695Q115.046 86.1538 114.785 85.8635Q114.524 85.5732 114.354 85.3494L113.352 86.0526Q113.736 86.6971 114.532 87.1951ZM145.185 84.625Q144.077 84.625 143.243 84.0977Q142.409 83.5703 141.943 82.6222Q141.477 81.674 141.477 80.4063Q141.477 79.1278 141.943 78.1744Q142.409 77.2209 143.243 76.6935Q144.077 76.1662 145.185 76.1662Q146.293 76.1662 147.126 76.6935Q147.96 77.2209 148.426 78.1744Q148.892 79.1278 148.892 80.4063Q148.892 81.674 148.426 82.6222Q147.96 83.5703 147.126 84.0977Q146.293 84.625 145.185 84.625ZM152.024 76.2727L150.81 76.2727L150.81 87.5227L152.067 87.5227L152.067 83.1974L152.173 83.1974Q152.312 83.4212 152.567 83.7594Q152.823 84.0977 153.297 84.3613Q153.771 84.625 154.56 84.625Q155.582 84.625 156.365 84.1056Q157.148 83.5863 157.591 82.6355Q158.033 81.6847 158.033 80.3849Q158.033 79.0959 157.591 78.1477Q157.148 77.1996 156.36 76.6829Q155.572 76.1662 154.538 76.1662Q153.739 76.1662 153.273 76.4299Q152.807 76.6935 152.559 77.0265Q152.312 77.3594 152.173 77.5724L152.024 77.5724L152.024 76.2727ZM163.381 84.625Q162.198 84.625 161.343 84.1003Q160.488 83.5756 160.028 82.6301Q159.567 81.6847 159.567 80.4276Q159.567 79.1705 160.028 78.209Q160.488 77.2475 161.317 76.7068Q162.145 76.1662 163.253 76.1662Q163.892 76.1662 164.515 76.3793Q165.138 76.5923 165.65 77.0691Q166.161 77.5458 166.465 78.3288Q166.768 79.1119 166.768 80.2571L166.768 80.7898L160.829 80.7898Q160.872 82.1001 161.572 82.7979Q162.273 83.4957 163.381 83.4957Q164.121 83.4957 164.654 83.1761Q165.186 82.8565 165.426 82.2173L166.641 82.5582Q166.353 83.4851 165.49 84.055Q164.627 84.625 163.381 84.625ZM186.712 84.625Q185.529 84.625 184.674 84.1003Q183.819 83.5756 183.358 82.6301Q182.898 81.6847 182.898 80.4276Q182.898 79.1705 183.358 78.209Q183.819 77.2475 184.648 76.7068Q185.476 76.1662 186.584 76.1662Q187.223 76.1662 187.846 76.3793Q188.469 76.5923 188.981 77.0691Q189.492 77.5458 189.796 78.3288Q190.099 79.1119 190.099 80.2571L190.099 80.7898L184.16 80.7898Q184.203 82.1001 184.903 82.7979Q185.604 83.4957 186.712 83.4957Q187.452 83.4957 187.985 83.1761Q188.517 82.8565 188.757 82.2173L189.972 82.5582Q189.684 83.4851 188.821 84.055Q187.958 84.625 186.712 84.625ZM196.683 78.4247L197.813 78.1051Q197.52 77.2315 196.824 76.6989Q196.129 76.1662 194.915 76.1662Q194.052 76.1662 193.373 76.4698Q192.694 76.7734 192.302 77.3061Q191.911 77.8388 191.911 78.5313Q191.911 79.3782 192.435 79.9402Q192.96 80.5021 194.084 80.7685L195.447 81.0881Q196.662 81.3704 196.662 82.2386Q196.662 82.766 196.143 83.1415Q195.623 83.517 194.744 83.517Q193.184 83.517 192.848 82.196L191.655 82.4943Q191.873 83.5384 192.694 84.0817Q193.514 84.625 194.766 84.625Q195.719 84.625 196.438 84.3054Q197.157 83.9858 197.559 83.4318Q197.962 82.8778 197.962 82.1747Q197.962 80.4915 195.788 79.9588L194.574 79.6605Q193.849 79.4794 193.509 79.2077Q193.168 78.9361 193.168 78.4673Q193.168 77.94 193.666 77.5964Q194.164 77.2528 194.915 77.2528Q195.74 77.2528 196.129 77.6257Q196.518 77.9986 196.683 78.4247ZM24.4389 76.2727L21.4134 84.4545L20.1349 84.4545L17.1094 76.2727L18.473 76.2727L20.7315 82.7926L20.8168 82.7926L23.0753 76.2727L24.4389 76.2727ZM59.3395 76.2727L58.0824 76.2727L58.0824 84.4545L59.3395 84.4545L59.3395 76.2727ZM102.315 76.2727L101.058 76.2727L101.058 84.4545L102.315 84.4545L102.315 76.2727ZM180.98 76.2727L179.723 76.2727L179.723 84.4545L180.98 84.4545L180.98 76.2727ZM62.8764 80.3636Q62.8764 81.7539 63.481 82.6248Q64.0856 83.4957 65.2202 83.4957Q66.0085 83.4957 66.5385 83.0776Q67.0685 82.6594 67.3375 81.9483Q67.6065 81.2372 67.6065 80.3636Q67.6065 79.5007 67.3429 78.8056Q67.0792 78.1104 66.5492 77.7029Q66.0192 77.2955 65.2202 77.2955Q64.0696 77.2955 63.473 78.1424Q62.8764 78.9893 62.8764 80.3636ZM118.394 82.4277Q117.789 83.1974 116.655 83.1974Q115.472 83.1974 114.87 82.3878Q114.268 81.5781 114.268 80.2997Q114.268 79.4688 114.532 78.7869Q114.796 78.1051 115.326 77.7003Q115.856 77.2955 116.655 77.2955Q117.805 77.2955 118.402 78.1344Q118.999 78.9734 118.999 80.2997Q118.999 81.658 118.394 82.4277ZM145.185 83.4957Q146.026 83.4957 146.57 83.0643Q147.113 82.6328 147.374 81.9297Q147.635 81.2266 147.635 80.4063Q147.635 79.5859 147.374 78.8775Q147.113 78.169 146.57 77.7322Q146.026 77.2955 145.185 77.2955Q144.343 77.2955 143.8 77.7322Q143.256 78.169 142.995 78.8775Q142.734 79.5859 142.734 80.4063Q142.734 81.2266 142.995 81.9297Q143.256 82.6328 143.8 83.0643Q144.343 83.4957 145.185 83.4957ZM152.65 82.6248Q152.045 81.7539 152.045 80.3636Q152.045 78.9893 152.642 78.1424Q153.239 77.2955 154.389 77.2955Q155.188 77.2955 155.718 77.7029Q156.248 78.1104 156.512 78.8056Q156.776 79.5007 156.776 80.3636Q156.776 81.2372 156.507 81.9483Q156.238 82.6594 155.708 83.0776Q155.178 83.4957 154.389 83.4957Q153.255 83.4957 152.65 82.6248ZM160.829 79.7031L165.49 79.7031Q165.49 78.6644 164.883 77.9799Q164.276 77.2955 163.253 77.2955Q162.534 77.2955 162.006 77.631Q161.479 77.9666 161.175 78.5179Q160.872 79.0692 160.829 79.7031ZM184.16 79.7031L188.821 79.7031Q188.821 78.6644 188.214 77.9799Q187.607 77.2955 186.584 77.2955Q185.865 77.2955 185.337 77.631Q184.81 77.9666 184.506 78.5179Q184.203 79.0692 184.16 79.7031ZM13.149 83.2241Q12.6349 83.517 11.8892 83.517Q11.1381 83.517 10.6507 83.1841Q10.1634 82.8512 10.1634 82.196Q10.1634 81.7166 10.4217 81.437Q10.68 81.1573 11.1035 81.0162Q11.527 80.875 12.017 80.8111Q12.2195 80.7844 12.5471 80.7445Q12.8746 80.7045 13.2235 80.6486Q13.5724 80.5927 13.8414 80.5154Q14.1104 80.4382 14.1903 80.3423L14.1903 81.4929Q14.1903 82.0043 13.9267 82.4677Q13.663 82.9311 13.149 83.2241ZM29.96 83.2241Q29.446 83.517 28.7003 83.517Q27.9492 83.517 27.4618 83.1841Q26.9744 82.8512 26.9744 82.196Q26.9744 81.7166 27.2328 81.437Q27.4911 81.1573 27.9146 81.0162Q28.3381 80.875 28.8281 80.8111Q29.0305 80.7844 29.3581 80.7445Q29.6857 80.7045 30.0346 80.6486Q30.3835 80.5927 30.6525 80.5154Q30.9215 80.4382 31.0014 80.3423L31.0014 81.4929Q31.0014 82.0043 30.7377 82.4677Q30.4741 82.9311 29.96 83.2241Z" />
          </g>
          <g id="The-length-property-returns-the-length-of-a-string">
            <path d="M290.028 95.3381L290.028 94.2727L288.196 94.2727L288.196 93.4418Q288.196 92.8345 288.47 92.5202Q288.745 92.206 289.368 92.206Q289.64 92.206 289.807 92.2539Q289.975 92.3018 290.071 92.3338L290.433 91.2472Q290.289 91.1832 289.996 91.1087Q289.704 91.0341 289.24 91.0341Q288.654 91.0341 288.127 91.2685Q287.599 91.5028 287.269 91.9716Q286.939 92.4403 286.939 93.1435L286.939 94.2727L285.618 94.2727L285.618 95.3381L286.939 95.3381L286.939 102.455L288.196 102.455L288.196 95.3381L290.028 95.3381ZM328.21 92.9091Q327.843 92.9091 327.579 92.6587Q327.315 92.4084 327.315 92.0568Q327.315 91.7053 327.579 91.4549Q327.843 91.2045 328.21 91.2045Q328.578 91.2045 328.841 91.4549Q329.105 91.7053 329.105 92.0568Q329.105 92.4084 328.841 92.6587Q328.578 92.9091 328.21 92.9091ZM0.724432 92.7173L0.724432 91.5455L8.90625 91.5455L8.90625 92.7173L5.47585 92.7173L5.47585 102.455L4.15483 102.455L4.15483 92.7173L0.724432 92.7173ZM12.0384 97.5327L12.0384 102.455L10.7813 102.455L10.7813 91.5455L12.0384 91.5455L12.0384 95.5511L12.1449 95.5511Q12.4325 94.9173 13.0105 94.5417Q13.5884 94.1662 14.5526 94.1662Q15.8097 94.1662 16.5767 94.9226Q17.3438 95.679 17.3438 97.2557L17.3438 102.455L16.0866 102.455L16.0866 97.3409Q16.0866 96.3661 15.5833 95.8308Q15.0799 95.2955 14.1903 95.2955Q13.2582 95.2955 12.6483 95.8787Q12.0384 96.462 12.0384 97.5327ZM33.8565 91.5455L33.8565 102.455L32.5994 102.455L32.5994 91.5455L33.8565 91.5455ZM69.5241 102.455L69.5241 97.5327Q69.5241 96.462 70.1341 95.8787Q70.744 95.2955 71.6761 95.2955Q72.5657 95.2955 73.0691 95.8308Q73.5724 96.3661 73.5724 97.3409L73.5724 102.455L74.8295 102.455L74.8295 97.2557Q74.8295 95.679 74.0625 94.9226Q73.2955 94.1662 72.0384 94.1662Q71.0742 94.1662 70.4963 94.5417Q69.9183 94.9173 69.6307 95.5511L69.5241 95.5511L69.5241 91.5455L68.267 91.5455L68.267 102.455L69.5241 102.455ZM208.125 97.5327L208.125 102.455L206.868 102.455L206.868 91.5455L208.125 91.5455L208.125 95.5511L208.232 95.5511Q208.519 94.9173 209.097 94.5417Q209.675 94.1662 210.639 94.1662Q211.896 94.1662 212.663 94.9226Q213.43 95.679 213.43 97.2557L213.43 102.455L212.173 102.455L212.173 97.3409Q212.173 96.3661 211.67 95.8308Q211.167 95.2955 210.277 95.2955Q209.345 95.2955 208.735 95.8787Q208.125 96.462 208.125 97.5327ZM229.943 91.5455L229.943 102.455L228.686 102.455L228.686 91.5455L229.943 91.5455ZM265.611 102.455L265.611 97.5327Q265.611 96.462 266.221 95.8787Q266.831 95.2955 267.763 95.2955Q268.652 95.2955 269.156 95.8308Q269.659 96.3661 269.659 97.3409L269.659 102.455L270.916 102.455L270.916 97.2557Q270.916 95.679 270.149 94.9226Q269.382 94.1662 268.125 94.1662Q267.161 94.1662 266.583 94.5417Q266.005 94.9173 265.717 95.5511L265.611 95.5511L265.611 91.5455L264.354 91.5455L264.354 102.455L265.611 102.455ZM66.3707 94.2727L66.3707 95.3381L64.6236 95.3381L64.6236 100.111Q64.6236 100.643 64.7807 100.907Q64.9379 101.171 65.1855 101.259Q65.4332 101.347 65.7102 101.347Q65.918 101.347 66.0511 101.323Q66.1843 101.299 66.2642 101.283L66.5199 102.412Q66.392 102.46 66.163 102.51Q65.9339 102.561 65.5824 102.561Q65.0497 102.561 64.541 102.332Q64.0323 102.103 63.6994 101.634Q63.3665 101.165 63.3665 100.452L63.3665 95.3381L62.1307 95.3381L62.1307 94.2727L63.3665 94.2727L63.3665 92.3125L64.6236 92.3125L64.6236 94.2727L66.3707 94.2727ZM132.038 94.2727L132.038 95.3381L130.291 95.3381L130.291 100.111Q130.291 100.643 130.448 100.907Q130.605 101.171 130.853 101.259Q131.101 101.347 131.378 101.347Q131.586 101.347 131.719 101.323Q131.852 101.299 131.932 101.283L132.188 102.412Q132.06 102.46 131.831 102.51Q131.602 102.561 131.25 102.561Q130.717 102.561 130.209 102.332Q129.7 102.103 129.367 101.634Q129.034 101.165 129.034 100.452L129.034 95.3381L127.798 95.3381L127.798 94.2727L129.034 94.2727L129.034 92.3125L130.291 92.3125L130.291 94.2727L132.038 94.2727ZM164.382 94.2727L164.382 95.3381L162.635 95.3381L162.635 100.111Q162.635 100.643 162.792 100.907Q162.949 101.171 163.197 101.259Q163.445 101.347 163.722 101.347Q163.929 101.347 164.063 101.323Q164.196 101.299 164.276 101.283L164.531 102.412Q164.403 102.46 164.174 102.51Q163.945 102.561 163.594 102.561Q163.061 102.561 162.552 102.332Q162.044 102.103 161.711 101.634Q161.378 101.165 161.378 100.452L161.378 95.3381L160.142 95.3381L160.142 94.2727L161.378 94.2727L161.378 92.3125L162.635 92.3125L162.635 94.2727L164.382 94.2727ZM204.972 95.3381L204.972 94.2727L203.224 94.2727L203.224 92.3125L201.967 92.3125L201.967 94.2727L200.732 94.2727L200.732 95.3381L201.967 95.3381L201.967 100.452Q201.967 101.165 202.3 101.634Q202.633 102.103 203.142 102.332Q203.651 102.561 204.183 102.561Q204.535 102.561 204.764 102.51Q204.993 102.46 205.121 102.412L204.865 101.283Q204.785 101.299 204.652 101.323Q204.519 101.347 204.311 101.347Q204.034 101.347 203.786 101.259Q203.539 101.171 203.382 100.907Q203.224 100.643 203.224 100.111L203.224 95.3381L204.972 95.3381ZM262.457 94.2727L262.457 95.3381L260.71 95.3381L260.71 100.111Q260.71 100.643 260.867 100.907Q261.025 101.171 261.272 101.259Q261.52 101.347 261.797 101.347Q262.005 101.347 262.138 101.323Q262.271 101.299 262.351 101.283L262.607 102.412Q262.479 102.46 262.25 102.51Q262.021 102.561 261.669 102.561Q261.136 102.561 260.628 102.332Q260.119 102.103 259.786 101.634Q259.453 101.165 259.453 100.452L259.453 95.3381L258.217 95.3381L258.217 94.2727L259.453 94.2727L259.453 92.3125L260.71 92.3125L260.71 94.2727L262.457 94.2727ZM320.092 94.2727L320.092 95.3381L318.345 95.3381L318.345 100.111Q318.345 100.643 318.502 100.907Q318.659 101.171 318.907 101.259Q319.155 101.347 319.432 101.347Q319.64 101.347 319.773 101.323Q319.906 101.299 319.986 101.283L320.241 102.412Q320.114 102.46 319.885 102.51Q319.656 102.561 319.304 102.561Q318.771 102.561 318.263 102.332Q317.754 102.103 317.421 101.634Q317.088 101.165 317.088 100.452L317.088 95.3381L315.852 95.3381L315.852 94.2727L317.088 94.2727L317.088 92.3125L318.345 92.3125L318.345 94.2727L320.092 94.2727ZM91.7046 94.2727L90.4901 94.2727L90.4901 102.455L91.7472 102.455L91.7472 97.277Q91.7472 96.446 92.3331 95.9027Q92.919 95.3594 93.8139 95.3594Q94.0643 95.3594 94.2907 95.394Q94.5171 95.4286 94.581 95.4446L94.581 94.1662Q94.4744 94.1555 94.2667 94.1502Q94.059 94.1449 93.9205 94.1449Q93.1854 94.1449 92.5994 94.5231Q92.0135 94.9013 91.7898 95.5085L91.7046 95.5085L91.7046 94.2727ZM124.112 94.2727L122.898 94.2727L122.898 102.455L124.155 102.455L124.155 97.277Q124.155 96.446 124.741 95.9027Q125.327 95.3594 126.222 95.3594Q126.472 95.3594 126.698 95.394Q126.925 95.4286 126.989 95.4446L126.989 94.1662Q126.882 94.1555 126.674 94.1502Q126.467 94.1449 126.328 94.1449Q125.593 94.1449 125.007 94.5231Q124.421 94.9013 124.197 95.5085L124.112 95.5085L124.112 94.2727ZM146.506 94.2727L147.72 94.2727L147.72 95.5085L147.805 95.5085Q148.029 94.9013 148.615 94.5231Q149.201 94.1449 149.936 94.1449Q150.075 94.1449 150.282 94.1502Q150.49 94.1555 150.597 94.1662L150.597 95.4446Q150.533 95.4286 150.306 95.394Q150.08 95.3594 149.83 95.3594Q148.935 95.3594 148.349 95.9027Q147.763 96.446 147.763 97.277L147.763 102.455L146.506 102.455L146.506 94.2727ZM174.993 94.2727L176.207 94.2727L176.207 95.5085L176.293 95.5085Q176.516 94.9013 177.102 94.5231Q177.688 94.1449 178.423 94.1449Q178.562 94.1449 178.77 94.1502Q178.977 94.1555 179.084 94.1662L179.084 95.4446Q179.02 95.4286 178.794 95.394Q178.567 95.3594 178.317 95.3594Q177.422 95.3594 176.836 95.9027Q176.25 96.446 176.25 97.277L176.25 102.455L174.993 102.455L174.993 94.2727ZM323.203 94.2727L321.989 94.2727L321.989 102.455L323.246 102.455L323.246 97.277Q323.246 96.446 323.832 95.9027Q324.418 95.3594 325.313 95.3594Q325.563 95.3594 325.789 95.394Q326.016 95.4286 326.08 95.4446L326.08 94.1662Q325.973 94.1555 325.765 94.1502Q325.558 94.1449 325.419 94.1449Q324.684 94.1449 324.098 94.5231Q323.512 94.9013 323.288 95.5085L323.203 95.5085L323.203 94.2727ZM21.0378 102.1Q21.8928 102.625 23.0753 102.625Q24.3217 102.625 25.1847 102.055Q26.0476 101.485 26.3352 100.558L25.1207 100.217Q24.881 100.857 24.3484 101.176Q23.8157 101.496 23.0753 101.496Q21.9673 101.496 21.2669 100.798Q20.5664 100.1 20.5238 98.7898L26.4631 98.7898L26.4631 98.2571Q26.4631 97.1119 26.1594 96.3288Q25.8558 95.5458 25.3445 95.0691Q24.8331 94.5923 24.2099 94.3793Q23.5866 94.1662 22.9474 94.1662Q21.8395 94.1662 21.0112 94.7068Q20.1829 95.2475 19.7221 96.209Q19.2614 97.1705 19.2614 98.4276Q19.2614 99.6847 19.7221 100.63Q20.1829 101.576 21.0378 102.1ZM37.5506 102.1Q38.4055 102.625 39.5881 102.625Q40.8345 102.625 41.6974 102.055Q42.5604 101.485 42.848 100.558L41.6335 100.217Q41.3938 100.857 40.8612 101.176Q40.3285 101.496 39.5881 101.496Q38.4801 101.496 37.7797 100.798Q37.0792 100.1 37.0366 98.7898L42.9759 98.7898L42.9759 98.2571Q42.9759 97.1119 42.6722 96.3288Q42.3686 95.5458 41.8572 95.0691Q41.3459 94.5923 40.7227 94.3793Q40.0994 94.1662 39.4602 94.1662Q38.3523 94.1662 37.524 94.7068Q36.6957 95.2475 36.2349 96.209Q35.7741 97.1705 35.7741 98.4276Q35.7741 99.6847 36.2349 100.63Q36.6957 101.576 37.5506 102.1ZM46.1506 97.5327L46.1506 102.455L44.8935 102.455L44.8935 94.2727L46.108 94.2727L46.108 95.5511L46.2145 95.5511Q46.5021 94.9279 47.0881 94.5471Q47.674 94.1662 48.6009 94.1662Q49.842 94.1662 50.6064 94.9279Q51.3707 95.6896 51.3707 97.2557L51.3707 102.455L50.1136 102.455L50.1136 97.3409Q50.1136 96.3768 49.6129 95.8361Q49.1122 95.2955 48.2386 95.2955Q47.3384 95.2955 46.7445 95.8787Q46.1506 96.462 46.1506 97.5327ZM54.8091 105.195Q55.6055 105.693 56.9744 105.693Q57.9545 105.693 58.7562 105.382Q59.5579 105.07 60.0346 104.407Q60.5114 103.744 60.5114 102.689L60.5114 94.2727L59.2969 94.2727L59.2969 95.5724L59.169 95.5724Q59.0305 95.3594 58.7775 95.0265Q58.5245 94.6935 58.0531 94.4299Q57.5817 94.1662 56.7827 94.1662Q55.7493 94.1662 54.9609 94.6802Q54.1726 95.1942 53.7305 96.1291Q53.2883 97.0639 53.2883 98.321Q53.2883 99.5994 53.7438 100.494Q54.1992 101.389 54.9849 101.858Q55.7706 102.327 56.7614 102.327Q57.5604 102.327 58.0318 102.074Q58.5032 101.821 58.7562 101.493Q59.0092 101.165 59.1477 100.942L59.2543 100.942L59.2543 102.604Q59.2543 103.626 58.6097 104.106Q57.9652 104.585 56.9744 104.585Q56.234 104.585 55.7786 104.369Q55.3232 104.154 55.0621 103.863Q54.8011 103.573 54.6307 103.349L53.6293 104.053Q54.0128 104.697 54.8091 105.195ZM81.3494 105.523L81.3494 94.2727L82.5639 94.2727L82.5639 95.5724L82.7131 95.5724Q82.8516 95.3594 83.0993 95.0265Q83.3469 94.6935 83.813 94.4299Q84.2791 94.1662 85.0781 94.1662Q86.1115 94.1662 86.8999 94.6829Q87.6882 95.1996 88.1303 96.1477Q88.5724 97.0959 88.5724 98.3849Q88.5724 99.6847 88.1303 100.635Q87.6882 101.586 86.9052 102.106Q86.1222 102.625 85.0994 102.625Q84.3111 102.625 83.837 102.361Q83.3629 102.098 83.1072 101.759Q82.8516 101.421 82.7131 101.197L82.6065 101.197L82.6065 105.523L81.3494 105.523ZM99.3963 102.625Q98.2884 102.625 97.4547 102.098Q96.6211 101.57 96.155 100.622Q95.6889 99.674 95.6889 98.4063Q95.6889 97.1278 96.155 96.1744Q96.6211 95.2209 97.4547 94.6935Q98.2884 94.1662 99.3963 94.1662Q100.504 94.1662 101.338 94.6935Q102.172 95.2209 102.638 96.1744Q103.104 97.1278 103.104 98.4063Q103.104 99.674 102.638 100.622Q102.172 101.57 101.338 102.098Q100.504 102.625 99.3963 102.625ZM105.021 94.2727L105.021 105.523L106.278 105.523L106.278 101.197L106.385 101.197Q106.523 101.421 106.779 101.759Q107.035 102.098 107.509 102.361Q107.983 102.625 108.771 102.625Q109.794 102.625 110.577 102.106Q111.36 101.586 111.802 100.635Q112.244 99.6847 112.244 98.3849Q112.244 97.0959 111.802 96.1477Q111.36 95.1996 110.572 94.6829Q109.783 94.1662 108.75 94.1662Q107.951 94.1662 107.485 94.4299Q107.019 94.6935 106.771 95.0265Q106.523 95.3594 106.385 95.5724L106.236 95.5724L106.236 94.2727L105.021 94.2727ZM117.592 102.625Q116.41 102.625 115.555 102.1Q114.7 101.576 114.239 100.63Q113.778 99.6847 113.778 98.4276Q113.778 97.1705 114.239 96.209Q114.7 95.2475 115.528 94.7068Q116.357 94.1662 117.464 94.1662Q118.104 94.1662 118.727 94.3793Q119.35 94.5923 119.862 95.0691Q120.373 95.5458 120.676 96.3288Q120.98 97.1119 120.98 98.2571L120.98 98.7898L115.041 98.7898Q115.083 100.1 115.784 100.798Q116.484 101.496 117.592 101.496Q118.333 101.496 118.865 101.176Q119.398 100.857 119.638 100.217L120.852 100.558Q120.565 101.485 119.702 102.055Q118.839 102.625 117.592 102.625ZM153.481 102.1Q154.336 102.625 155.518 102.625Q156.765 102.625 157.628 102.055Q158.491 101.485 158.778 100.558L157.564 100.217Q157.324 100.857 156.792 101.176Q156.259 101.496 155.518 101.496Q154.411 101.496 153.71 100.798Q153.01 100.1 152.967 98.7898L158.906 98.7898L158.906 98.2571Q158.906 97.1119 158.603 96.3288Q158.299 95.5458 157.788 95.0691Q157.276 94.5923 156.653 94.3793Q156.03 94.1662 155.391 94.1662Q154.283 94.1662 153.454 94.7068Q152.626 95.2475 152.165 96.209Q151.705 97.1705 151.705 98.4276Q151.705 99.6847 152.165 100.63Q152.626 101.576 153.481 102.1ZM181.832 102.455L181.832 97.5327Q181.832 96.462 182.426 95.8787Q183.02 95.2955 183.92 95.2955Q184.794 95.2955 185.295 95.8361Q185.795 96.3768 185.795 97.3409L185.795 102.455L187.053 102.455L187.053 97.2557Q187.053 95.6896 186.288 94.9279Q185.524 94.1662 184.283 94.1662Q183.356 94.1662 182.77 94.5471Q182.184 94.9279 181.896 95.5511L181.79 95.5511L181.79 94.2727L180.575 94.2727L180.575 102.455L181.832 102.455ZM195.149 96.1051L194.02 96.4247Q193.855 95.9986 193.466 95.6257Q193.077 95.2528 192.251 95.2528Q191.5 95.2528 191.002 95.5964Q190.504 95.94 190.504 96.4673Q190.504 96.9361 190.845 97.2077Q191.186 97.4794 191.911 97.6605L193.125 97.9588Q195.298 98.4915 195.298 100.175Q195.298 100.878 194.896 101.432Q194.494 101.986 193.775 102.305Q193.056 102.625 192.102 102.625Q190.851 102.625 190.03 102.082Q189.21 101.538 188.991 100.494L190.185 100.196Q190.52 101.517 192.081 101.517Q192.96 101.517 193.479 101.142Q193.999 100.766 193.999 100.239Q193.999 99.3704 192.784 99.0881L191.42 98.7685Q190.297 98.5021 189.772 97.9402Q189.247 97.3782 189.247 96.5313Q189.247 95.8388 189.639 95.3061Q190.03 94.7734 190.709 94.4698Q191.389 94.1662 192.251 94.1662Q193.466 94.1662 194.161 94.6989Q194.856 95.2315 195.149 96.1051ZM217.124 102.1Q217.979 102.625 219.162 102.625Q220.408 102.625 221.271 102.055Q222.134 101.485 222.422 100.558L221.207 100.217Q220.968 100.857 220.435 101.176Q219.902 101.496 219.162 101.496Q218.054 101.496 217.354 100.798Q216.653 100.1 216.61 98.7898L222.55 98.7898L222.55 98.2571Q222.55 97.1119 222.246 96.3288Q221.942 95.5458 221.431 95.0691Q220.92 94.5923 220.297 94.3793Q219.673 94.1662 219.034 94.1662Q217.926 94.1662 217.098 94.7068Q216.27 95.2475 215.809 96.209Q215.348 97.1705 215.348 98.4276Q215.348 99.6847 215.809 100.63Q216.27 101.576 217.124 102.1ZM233.637 102.1Q234.492 102.625 235.675 102.625Q236.921 102.625 237.784 102.055Q238.647 101.485 238.935 100.558L237.72 100.217Q237.48 100.857 236.948 101.176Q236.415 101.496 235.675 101.496Q234.567 101.496 233.866 100.798Q233.166 100.1 233.123 98.7898L239.063 98.7898L239.063 98.2571Q239.063 97.1119 238.759 96.3288Q238.455 95.5458 237.944 95.0691Q237.433 94.5923 236.809 94.3793Q236.186 94.1662 235.547 94.1662Q234.439 94.1662 233.611 94.7068Q232.782 95.2475 232.322 96.209Q231.861 97.1705 231.861 98.4276Q231.861 99.6847 232.322 100.63Q232.782 101.576 233.637 102.1ZM242.237 97.5327L242.237 102.455L240.98 102.455L240.98 94.2727L242.195 94.2727L242.195 95.5511L242.301 95.5511Q242.589 94.9279 243.175 94.5471Q243.761 94.1662 244.688 94.1662Q245.929 94.1662 246.693 94.9279Q247.457 95.6896 247.457 97.2557L247.457 102.455L246.2 102.455L246.2 97.3409Q246.2 96.3768 245.7 95.8361Q245.199 95.2955 244.325 95.2955Q243.425 95.2955 242.831 95.8787Q242.237 96.462 242.237 97.5327ZM250.896 105.195Q251.692 105.693 253.061 105.693Q254.041 105.693 254.843 105.382Q255.645 105.07 256.121 104.407Q256.598 103.744 256.598 102.689L256.598 94.2727L255.384 94.2727L255.384 95.5724L255.256 95.5724Q255.117 95.3594 254.864 95.0265Q254.611 94.6935 254.14 94.4299Q253.668 94.1662 252.869 94.1662Q251.836 94.1662 251.048 94.6802Q250.259 95.1942 249.817 96.1291Q249.375 97.0639 249.375 98.321Q249.375 99.5994 249.83 100.494Q250.286 101.389 251.072 101.858Q251.857 102.327 252.848 102.327Q253.647 102.327 254.118 102.074Q254.59 101.821 254.843 101.493Q255.096 101.165 255.234 100.942L255.341 100.942L255.341 102.604Q255.341 103.626 254.696 104.106Q254.052 104.585 253.061 104.585Q252.321 104.585 251.865 104.369Q251.41 104.154 251.149 103.863Q250.888 103.573 250.717 103.349L249.716 104.053Q250.099 104.697 250.896 105.195ZM280.76 102.625Q279.652 102.625 278.818 102.098Q277.985 101.57 277.519 100.622Q277.053 99.674 277.053 98.4063Q277.053 97.1278 277.519 96.1744Q277.985 95.2209 278.818 94.6935Q279.652 94.1662 280.76 94.1662Q281.868 94.1662 282.702 94.6935Q283.535 95.2209 284.001 96.1744Q284.467 97.1278 284.467 98.4063Q284.467 99.674 284.001 100.622Q283.535 101.57 282.702 102.098Q281.868 102.625 280.76 102.625ZM298.423 102.646Q297.646 102.646 297.012 102.351Q296.378 102.055 296.005 101.493Q295.632 100.931 295.632 100.132Q295.632 99.429 295.909 98.9895Q296.186 98.5501 296.65 98.2997Q297.113 98.0494 297.675 97.9242Q298.237 97.799 298.807 97.7244Q299.553 97.6285 300.019 97.5779Q300.485 97.5273 300.701 97.4048Q300.916 97.2823 300.916 96.9787L300.916 96.9361Q300.916 96.1477 300.487 95.7109Q300.059 95.2741 299.19 95.2741Q298.29 95.2741 297.779 95.6683Q297.267 96.0625 297.06 96.5099L295.867 96.0838Q296.186 95.3381 296.721 94.9199Q297.257 94.5018 297.893 94.334Q298.53 94.1662 299.148 94.1662Q299.542 94.1662 300.056 94.2594Q300.57 94.3526 301.052 94.6403Q301.534 94.9279 301.854 95.5085Q302.173 96.0891 302.173 97.0639L302.173 102.455L300.916 102.455L300.916 101.347L300.852 101.347Q300.724 101.613 300.426 101.917Q300.128 102.22 299.632 102.433Q299.137 102.646 298.423 102.646ZM313.359 96.4247L314.489 96.1051Q314.196 95.2315 313.501 94.6989Q312.805 94.1662 311.591 94.1662Q310.728 94.1662 310.049 94.4698Q309.37 94.7734 308.978 95.3061Q308.587 95.8388 308.587 96.5313Q308.587 97.3782 309.111 97.9402Q309.636 98.5021 310.76 98.7685L312.124 99.0881Q313.338 99.3704 313.338 100.239Q313.338 100.766 312.819 101.142Q312.299 101.517 311.42 101.517Q309.86 101.517 309.524 100.196L308.331 100.494Q308.549 101.538 309.37 102.082Q310.19 102.625 311.442 102.625Q312.395 102.625 313.114 102.305Q313.833 101.986 314.236 101.432Q314.638 100.878 314.638 100.175Q314.638 98.4915 312.465 97.9588L311.25 97.6605Q310.526 97.4794 310.185 97.2077Q309.844 96.9361 309.844 96.4673Q309.844 95.94 310.342 95.5964Q310.84 95.2528 311.591 95.2528Q312.417 95.2528 312.805 95.6257Q313.194 95.9986 313.359 96.4247ZM332.386 102.455L332.386 97.5327Q332.386 96.462 332.98 95.8787Q333.574 95.2955 334.474 95.2955Q335.348 95.2955 335.849 95.8361Q336.349 96.3768 336.349 97.3409L336.349 102.455L337.607 102.455L337.607 97.2557Q337.607 95.6896 336.842 94.9279Q336.078 94.1662 334.837 94.1662Q333.91 94.1662 333.324 94.5471Q332.738 94.9279 332.45 95.5511L332.344 95.5511L332.344 94.2727L331.129 94.2727L331.129 102.455L332.386 102.455ZM343.21 105.693Q341.841 105.693 341.045 105.195Q340.249 104.697 339.865 104.053L340.867 103.349Q341.037 103.573 341.298 103.863Q341.559 104.154 342.014 104.369Q342.47 104.585 343.21 104.585Q344.201 104.585 344.846 104.106Q345.49 103.626 345.49 102.604L345.49 100.942L345.384 100.942Q345.245 101.165 344.992 101.493Q344.739 101.821 344.268 102.074Q343.796 102.327 342.997 102.327Q342.006 102.327 341.221 101.858Q340.435 101.389 339.98 100.494Q339.524 99.5994 339.524 98.321Q339.524 97.0639 339.966 96.1291Q340.408 95.1942 341.197 94.6802Q341.985 94.1662 343.018 94.1662Q343.818 94.1662 344.289 94.4299Q344.76 94.6935 345.013 95.0265Q345.266 95.3594 345.405 95.5724L345.533 95.5724L345.533 94.2727L346.747 94.2727L346.747 102.689Q346.747 103.744 346.27 104.407Q345.794 105.07 344.992 105.382Q344.19 105.693 343.21 105.693ZM134.174 105.472Q134.425 105.523 134.744 105.523Q136.454 105.523 137.152 103.648L140.625 94.2727L139.261 94.2727L137.003 100.793L136.918 100.793L134.659 94.2727L133.295 94.2727L136.321 102.497L136.087 103.136Q135.858 103.76 135.583 104.039Q135.309 104.319 134.957 104.351Q134.606 104.383 134.148 104.266L133.828 105.374Q133.924 105.422 134.174 105.472ZM171.435 94.2727L171.435 99.1094Q171.435 99.8764 171.102 100.372Q170.769 100.867 170.281 101.107Q169.794 101.347 169.325 101.347Q168.542 101.347 168.039 100.814Q167.536 100.281 167.536 99.3864L167.536 94.2727L166.278 94.2727L166.278 99.4716Q166.278 101.038 167.024 101.799Q167.77 102.561 168.92 102.561Q169.847 102.561 170.455 102.127Q171.062 101.693 171.349 101.07L171.435 101.07L171.435 102.455L172.692 102.455L172.692 94.2727L171.435 94.2727ZM327.571 94.2727L328.828 94.2727L328.828 102.455L327.571 102.455L327.571 94.2727ZM349.288 96.185Q349.57 96.4673 349.965 96.4673Q350.359 96.4673 350.641 96.185Q350.923 95.9027 350.923 95.5085Q350.923 95.1143 350.641 94.832Q350.359 94.5497 349.965 94.5497Q349.57 94.5497 349.288 94.832Q349.006 95.1143 349.006 95.5085Q349.006 95.9027 349.288 96.185ZM25.1847 97.7031L20.5238 97.7031Q20.5664 97.0692 20.87 96.5179Q21.1737 95.9666 21.701 95.631Q22.2283 95.2955 22.9474 95.2955Q23.9702 95.2955 24.5774 95.9799Q25.1847 96.6644 25.1847 97.7031ZM41.6974 97.7031L37.0366 97.7031Q37.0792 97.0692 37.3828 96.5179Q37.6864 95.9666 38.2138 95.631Q38.7411 95.2955 39.4602 95.2955Q40.483 95.2955 41.0902 95.9799Q41.6974 96.6644 41.6974 97.7031ZM58.671 100.428Q58.0664 101.197 56.9318 101.197Q55.7493 101.197 55.1474 100.388Q54.5455 99.5781 54.5455 98.2997Q54.5455 97.4688 54.8091 96.7869Q55.0728 96.1051 55.6028 95.7003Q56.1328 95.2955 56.9318 95.2955Q58.0824 95.2955 58.679 96.1344Q59.2756 96.9734 59.2756 98.2997Q59.2756 99.658 58.671 100.428ZM82.5852 98.3636Q82.5852 99.7539 83.1898 100.625Q83.7944 101.496 84.929 101.496Q85.7173 101.496 86.2473 101.078Q86.7773 100.659 87.0463 99.9483Q87.3153 99.2372 87.3153 98.3636Q87.3153 97.5007 87.0517 96.8056Q86.788 96.1104 86.258 95.7029Q85.728 95.2955 84.929 95.2955Q83.7784 95.2955 83.1818 96.1424Q82.5852 96.9893 82.5852 98.3636ZM99.3963 101.496Q100.238 101.496 100.781 101.064Q101.325 100.633 101.586 99.9297Q101.847 99.2266 101.847 98.4063Q101.847 97.5859 101.586 96.8775Q101.325 96.169 100.781 95.7322Q100.238 95.2955 99.3963 95.2955Q98.5547 95.2955 98.0114 95.7322Q97.468 96.169 97.207 96.8775Q96.946 97.5859 96.946 98.4063Q96.946 99.2266 97.207 99.9297Q97.468 100.633 98.0114 101.064Q98.5547 101.496 99.3963 101.496ZM106.862 100.625Q106.257 99.7539 106.257 98.3636Q106.257 96.9893 106.854 96.1424Q107.45 95.2955 108.601 95.2955Q109.4 95.2955 109.93 95.7029Q110.46 96.1104 110.724 96.8056Q110.987 97.5007 110.987 98.3636Q110.987 99.2372 110.718 99.9483Q110.449 100.659 109.919 101.078Q109.389 101.496 108.601 101.496Q107.466 101.496 106.862 100.625ZM115.041 97.7031L119.702 97.7031Q119.702 96.6644 119.094 95.9799Q118.487 95.2955 117.464 95.2955Q116.745 95.2955 116.218 95.631Q115.691 95.9666 115.387 96.5179Q115.083 97.0692 115.041 97.7031ZM157.628 97.7031L152.967 97.7031Q153.01 97.0692 153.313 96.5179Q153.617 95.9666 154.144 95.631Q154.672 95.2955 155.391 95.2955Q156.413 95.2955 157.021 95.9799Q157.628 96.6644 157.628 97.7031ZM221.271 97.7031L216.61 97.7031Q216.653 97.0692 216.957 96.5179Q217.26 95.9666 217.788 95.631Q218.315 95.2955 219.034 95.2955Q220.057 95.2955 220.664 95.9799Q221.271 96.6644 221.271 97.7031ZM237.784 97.7031L233.123 97.7031Q233.166 97.0692 233.469 96.5179Q233.773 95.9666 234.3 95.631Q234.828 95.2955 235.547 95.2955Q236.57 95.2955 237.177 95.9799Q237.784 96.6644 237.784 97.7031ZM254.758 100.428Q254.153 101.197 253.018 101.197Q251.836 101.197 251.234 100.388Q250.632 99.5781 250.632 98.2997Q250.632 97.4688 250.896 96.7869Q251.159 96.1051 251.689 95.7003Q252.219 95.2955 253.018 95.2955Q254.169 95.2955 254.766 96.1344Q255.362 96.9734 255.362 98.2997Q255.362 99.658 254.758 100.428ZM280.76 101.496Q281.602 101.496 282.145 101.064Q282.688 100.633 282.949 99.9297Q283.21 99.2266 283.21 98.4063Q283.21 97.5859 282.949 96.8775Q282.688 96.169 282.145 95.7322Q281.602 95.2955 280.76 95.2955Q279.918 95.2955 279.375 95.7322Q278.832 96.169 278.571 96.8775Q278.31 97.5859 278.31 98.4063Q278.31 99.2266 278.571 99.9297Q278.832 100.633 279.375 101.064Q279.918 101.496 280.76 101.496ZM343.168 101.197Q344.302 101.197 344.907 100.428Q345.511 99.658 345.511 98.2997Q345.511 96.9734 344.915 96.1344Q344.318 95.2955 343.168 95.2955Q342.369 95.2955 341.839 95.7003Q341.309 96.1051 341.045 96.7869Q340.781 97.4688 340.781 98.2997Q340.781 99.5781 341.383 100.388Q341.985 101.197 343.168 101.197ZM298.615 101.517Q299.361 101.517 299.875 101.224Q300.389 100.931 300.653 100.468Q300.916 100.004 300.916 99.4929L300.916 98.3423Q300.836 98.4382 300.567 98.5154Q300.298 98.5927 299.949 98.6486Q299.601 98.7045 299.273 98.7445Q298.945 98.7844 298.743 98.8111Q298.253 98.875 297.829 99.0162Q297.406 99.1573 297.148 99.437Q296.889 99.7166 296.889 100.196Q296.889 100.851 297.377 101.184Q297.864 101.517 298.615 101.517ZM349.288 102.257Q349.57 102.54 349.965 102.54Q350.359 102.54 350.641 102.257Q350.923 101.975 350.923 101.581Q350.923 101.187 350.641 100.904Q350.359 100.622 349.965 100.622Q349.57 100.622 349.288 100.904Q349.006 101.187 349.006 101.581Q349.006 101.975 349.288 102.257Z" />
          </g>
          <g id="26">
            <path d="M1.12926 137.496L1.12926 138.455L8.01136 138.455L8.01136 137.283L2.94034 137.283L2.94034 137.197L5.39063 134.577Q6.32812 133.57 6.85813 132.869Q7.38814 132.169 7.60387 131.596Q7.8196 131.024 7.8196 130.422Q7.8196 129.58 7.39879 128.893Q6.97798 128.206 6.23757 127.801Q5.49716 127.396 4.53835 127.396Q3.58487 127.396 2.82049 127.801Q2.05611 128.206 1.61399 128.93Q1.17188 129.655 1.17188 130.614L2.42898 130.614Q2.42898 129.681 2.98828 129.114Q3.54759 128.547 4.49574 128.547Q5.3853 128.547 5.98455 129.053Q6.58381 129.559 6.58381 130.422Q6.58381 130.923 6.38406 131.378Q6.1843 131.833 5.77415 132.347Q5.36399 132.862 4.73011 133.554L1.12926 137.496ZM12.4858 138.348Q13.157 138.593 13.8281 138.604Q14.9308 138.614 15.7484 138.122Q16.5661 137.629 17.0188 136.79Q17.4716 135.951 17.4716 134.939Q17.4716 133.884 17.0028 133.067Q16.5341 132.249 15.7564 131.783Q14.9787 131.317 14.0412 131.317Q13.1996 131.317 12.5018 131.703Q11.804 132.089 11.3565 132.766L11.2713 132.766Q11.2766 130.773 12.0037 129.671Q12.7308 128.568 13.9986 128.568Q14.8615 128.568 15.3835 129.053Q15.9055 129.538 16.0866 130.273L17.3864 130.273Q17.2532 129.426 16.8004 128.776Q16.3477 128.126 15.6312 127.761Q14.9148 127.396 13.9986 127.396Q12.1555 127.396 11.0955 128.965Q10.0355 130.534 10.0355 133.426Q10.0355 134.939 10.3711 135.938Q10.7067 136.936 11.2607 137.52Q11.8146 138.103 12.4858 138.348ZM15.0346 137.096Q14.4993 137.432 13.8281 137.432Q13.1463 137.432 12.611 137.086Q12.0756 136.739 11.7694 136.175Q11.4631 135.61 11.4631 134.96Q11.4684 134.305 11.788 133.743Q12.1076 133.181 12.6509 132.835Q13.1942 132.489 13.8707 132.489Q14.5419 132.489 15.0666 132.819Q15.5913 133.149 15.8922 133.706Q16.1932 134.262 16.1932 134.939Q16.1932 135.631 15.8816 136.196Q15.57 136.761 15.0346 137.096Z" />
          </g>
        </g>
      </g>
    </g>
  </g>
</svg>