<?xml version="1.0" encoding="utf-8"?>
<svg width="375px" height="282px" viewBox="0 0 375 282" version="1.1" xmlns:xlink="http://www.w3.org/1999/xlink" xmlns="http://www.w3.org/2000/svg">
  <g id="Group-96">
    <path d="M0 0L307.09 0L375 0L375 282L0 282L0 0Z" id="Rectangle-14" fill="#FFFFFF" fill-rule="evenodd" stroke="none" />
    <g id="Group-94" transform="translate(13 11.000122)">
      <g id="JavaScript-program-to-calculat">
        <g id="JavaScript-program-to-calculate-">
          <path d="M80.9233 67.5064Q81.4063 67.9574 82.0739 67.9574Q82.7486 67.9574 83.2315 67.5064Q83.7145 67.0554 83.7145 66.4233Q83.7145 65.7912 83.2315 65.3438Q82.7486 64.8963 82.0739 64.8963Q81.4063 64.8963 80.9233 65.3438Q80.4403 65.7912 80.4403 66.4233Q80.4403 67.0554 80.9233 67.5064ZM55.483 69.9105Q55.3977 69.0511 54.7479 68.5753Q54.098 68.0994 52.9972 68.0994Q51.8679 68.0994 51.2642 68.5611Q50.6605 69.0227 50.6605 69.7259Q50.6463 70.5071 51.3317 70.9084Q52.017 71.3097 52.9616 71.5298L54.2685 71.8423Q55.5327 72.1264 56.5163 72.6662Q57.5 73.206 58.0646 74.0547Q58.6293 74.9034 58.6293 76.1179Q58.6222 78.1136 57.1342 79.2962Q55.6463 80.4787 52.983 80.4787Q50.3338 80.4787 48.7571 79.2713Q47.1804 78.0639 47.1236 75.706L50.0994 75.706Q50.1776 76.7997 50.9624 77.3501Q51.7472 77.9006 52.9474 77.9006Q54.1193 77.9006 54.8189 77.4034Q55.5185 76.9063 55.5256 76.1108Q55.5185 75.3722 54.8793 74.9744Q54.2401 74.5767 53.054 74.2926L51.4702 73.8949Q49.6307 73.4545 48.5653 72.4957Q47.5 71.5369 47.5071 69.9318Q47.5 68.6108 48.2138 67.62Q48.9276 66.6293 50.1776 66.0788Q51.4276 65.5284 53.0185 65.5284Q54.6378 65.5284 55.8487 66.0824Q57.0597 66.6364 57.7344 67.6236Q58.4091 68.6108 58.4304 69.9105L55.483 69.9105ZM10.1278 65.7273L7.08807 65.7273L7.08807 75.8693Q7.07386 78.0071 5.3196 78.0071Q4.51705 78.0071 4.03054 77.5277Q3.54403 77.0483 3.52983 76.1818L0.46875 76.1818Q0.461648 77.6307 1.08665 78.5824Q1.71165 79.5341 2.78054 80.0028Q3.84943 80.4716 5.16335 80.4716Q6.64063 80.4716 7.75568 79.907Q8.87074 79.3423 9.49929 78.309Q10.1278 77.2756 10.1278 75.8693L10.1278 65.7273ZM250.526 80.2727L250.526 65.7273L247.5 65.7273L247.5 80.2727L250.526 80.2727ZM280.149 65.7273L280.149 80.2727L277.124 80.2727L277.124 65.7273L280.149 65.7273ZM104.446 71.6364L104.446 69.3636L102.393 69.3636L102.393 66.75L99.3679 66.75L99.3679 69.3636L97.8764 69.3636L97.8764 71.6364L99.3679 71.6364L99.3679 77.3182Q99.3608 78.9233 100.359 79.7081Q101.357 80.4929 103.004 80.4219Q103.594 80.4006 104.006 80.3047Q104.418 80.2088 104.645 80.1378L104.169 77.8864Q104.055 77.9077 103.842 77.9467Q103.629 77.9858 103.416 77.9858Q102.962 77.9858 102.678 77.7656Q102.393 77.5455 102.393 76.9205L102.393 71.6364L104.446 71.6364ZM205.27 71.6364L205.27 69.3636L203.217 69.3636L203.217 66.75L200.192 66.75L200.192 69.3636L198.7 69.3636L198.7 71.6364L200.192 71.6364L200.192 77.3182Q200.185 78.9233 201.183 79.7081Q202.18 80.4929 203.828 80.4219Q204.418 80.4006 204.83 80.3047Q205.241 80.2088 205.469 80.1378L204.993 77.8864Q204.879 77.9077 204.666 77.9467Q204.453 77.9858 204.24 77.9858Q203.786 77.9858 203.501 77.7656Q203.217 77.5455 203.217 76.9205L203.217 71.6364L205.27 71.6364ZM299.972 69.3636L299.972 71.6364L297.919 71.6364L297.919 76.9205Q297.919 77.5455 298.203 77.7656Q298.487 77.9858 298.942 77.9858Q299.155 77.9858 299.368 77.9467Q299.581 77.9077 299.695 77.8864L300.17 80.1378Q299.943 80.2088 299.531 80.3047Q299.119 80.4006 298.53 80.4219Q296.882 80.4929 295.884 79.7081Q294.886 78.9233 294.893 77.3182L294.893 71.6364L293.402 71.6364L293.402 69.3636L294.893 69.3636L294.893 66.75L297.919 66.75L297.919 69.3636L299.972 69.3636ZM72.3793 69.3636L75.3125 69.3636L75.3125 71.267L75.4261 71.267Q75.7244 70.2514 76.4276 69.7294Q77.1307 69.2074 78.0469 69.2074Q78.5511 69.2074 78.9986 69.3139L78.9986 71.9986Q78.7855 71.9276 78.4091 71.8814Q78.0327 71.8352 77.7202 71.8352Q76.7188 71.8352 76.0618 72.4638Q75.4048 73.0923 75.4048 74.1009L75.4048 80.2727L72.3793 80.2727L72.3793 69.3636ZM126.634 69.3636L123.7 69.3636L123.7 80.2727L126.726 80.2727L126.726 74.1009Q126.726 73.0923 127.383 72.4638Q128.04 71.8352 129.041 71.8352Q129.354 71.8352 129.73 71.8814Q130.107 71.9276 130.32 71.9986L130.32 69.3139Q129.872 69.2074 129.368 69.2074Q128.452 69.2074 127.749 69.7294Q127.045 70.2514 126.747 71.267L126.634 71.267L126.634 69.3636ZM156.811 69.3636L159.744 69.3636L159.744 71.267L159.858 71.267Q160.156 70.2514 160.859 69.7294Q161.562 69.2074 162.479 69.2074Q162.983 69.2074 163.43 69.3139L163.43 71.9986Q163.217 71.9276 162.841 71.8814Q162.464 71.8352 162.152 71.8352Q161.151 71.8352 160.494 72.4638Q159.837 73.0923 159.837 74.1009L159.837 80.2727L156.811 80.2727L156.811 69.3636ZM13.125 79.6619Q14.1548 80.4787 15.7173 80.4787Q16.9247 80.4787 17.7166 79.9993Q18.5085 79.5199 18.9063 78.7599L18.9915 78.7599L18.9915 80.2727L21.8608 80.2727L21.8608 72.9148Q21.8608 71.6151 21.2109 70.8018Q20.5611 69.9886 19.5028 69.6051Q18.4446 69.2216 17.2301 69.2216Q15.2699 69.2216 14.0305 70.0952Q12.7912 70.9688 12.4787 72.4602L15.277 72.6875Q15.4332 72.1406 15.9162 71.7855Q16.3991 71.4304 17.2159 71.4304Q17.9901 71.4304 18.4126 71.7997Q18.8352 72.169 18.8352 72.8438L18.8352 72.8864Q18.8352 73.4119 18.2244 73.5682Q17.6136 73.7244 16.1932 73.8665Q15.1136 73.9659 14.1797 74.2891Q13.2457 74.6122 12.6705 75.3082Q12.0952 76.0043 12.0952 77.2259Q12.0952 78.8452 13.125 79.6619ZM36.4489 79.6619Q37.4787 80.4787 39.0412 80.4787Q40.2486 80.4787 41.0405 79.9993Q41.8324 79.5199 42.2301 78.7599L42.3153 78.7599L42.3153 80.2727L45.1847 80.2727L45.1847 72.9148Q45.1847 71.6151 44.5348 70.8018Q43.8849 69.9886 42.8267 69.6051Q41.7685 69.2216 40.554 69.2216Q38.5938 69.2216 37.3544 70.0952Q36.1151 70.9688 35.8026 72.4602L38.6009 72.6875Q38.7571 72.1406 39.2401 71.7855Q39.723 71.4304 40.5398 71.4304Q41.3139 71.4304 41.7365 71.7997Q42.1591 72.169 42.1591 72.8438L42.1591 72.8864Q42.1591 73.4119 41.5483 73.5682Q40.9375 73.7244 39.517 73.8665Q38.4375 73.9659 37.5036 74.2891Q36.5696 74.6122 35.9943 75.3082Q35.419 76.0043 35.419 77.2259Q35.419 78.8452 36.4489 79.6619ZM62.6811 79.772Q63.8849 80.4858 65.5611 80.4858Q67.017 80.4858 68.0824 79.9567Q69.1477 79.4276 69.755 78.4759Q70.3622 77.5241 70.4332 76.2741L67.5781 76.2741Q67.4432 77.1477 66.9105 77.62Q66.3778 78.0923 65.5966 78.0923Q64.5384 78.0923 63.9027 77.2365Q63.267 76.3807 63.267 74.8182Q63.267 73.2699 63.9063 72.4247Q64.5455 71.5795 65.5966 71.5795Q66.4276 71.5795 66.9425 72.0803Q67.4574 72.581 67.5781 73.3977L70.4332 73.3977Q70.3693 72.1335 69.7479 71.196Q69.1264 70.2585 68.0504 69.7401Q66.9744 69.2216 65.5469 69.2216Q63.892 69.2216 62.6918 69.9354Q61.4915 70.6491 60.8416 71.9169Q60.1918 73.1847 60.1918 74.8608Q60.1918 76.5156 60.8345 77.7869Q61.4773 79.0582 62.6811 79.772ZM85.9943 84.3636L85.9943 69.3636L88.9773 69.3636L88.9773 71.196L89.1122 71.196Q89.3182 70.7486 89.6946 70.294Q90.071 69.8395 90.6889 69.5305Q91.3068 69.2216 92.2159 69.2216Q93.4162 69.2216 94.4176 69.843Q95.419 70.4645 96.0263 71.7109Q96.6335 72.9574 96.6335 74.8324Q96.6335 76.6577 96.044 77.9112Q95.4545 79.1648 94.4531 79.8075Q93.4517 80.4503 92.2088 80.4503Q91.3281 80.4503 90.7138 80.1591Q90.0994 79.8679 89.7124 79.424Q89.3253 78.9801 89.1122 78.5256L89.0199 78.5256L89.0199 84.3636L85.9943 84.3636ZM111.051 84.3636L111.051 69.3636L114.034 69.3636L114.034 71.196L114.169 71.196Q114.375 70.7486 114.751 70.294Q115.128 69.8395 115.746 69.5305Q116.364 69.2216 117.273 69.2216Q118.473 69.2216 119.474 69.843Q120.476 70.4645 121.083 71.7109Q121.69 72.9574 121.69 74.8324Q121.69 76.6577 121.101 77.9112Q120.511 79.1648 119.51 79.8075Q118.509 80.4503 117.266 80.4503Q116.385 80.4503 115.771 80.1591Q115.156 79.8679 114.769 79.424Q114.382 78.9801 114.169 78.5256L114.077 78.5256L114.077 84.3636L111.051 84.3636ZM136.804 80.4858Q135.149 80.4858 133.945 79.7791Q132.741 79.0724 132.088 77.8047Q131.435 76.5369 131.435 74.8608Q131.435 73.1705 132.088 71.9027Q132.741 70.6349 133.945 69.9283Q135.149 69.2216 136.804 69.2216Q138.459 69.2216 139.663 69.9283Q140.866 70.6349 141.52 71.9027Q142.173 73.1705 142.173 74.8608Q142.173 76.5369 141.52 77.8047Q140.866 79.0724 139.663 79.7791Q138.459 80.4858 136.804 80.4858ZM145.604 83.7138Q146.861 84.5909 149.063 84.5909Q150.625 84.5909 151.825 84.1186Q153.026 83.6463 153.711 82.7088Q154.396 81.7713 154.396 80.3793L154.396 69.3636L151.392 69.3636L151.392 71.196L151.278 71.196Q151.08 70.7486 150.696 70.294Q150.313 69.8395 149.695 69.5305Q149.077 69.2216 148.161 69.2216Q146.967 69.2216 145.962 69.843Q144.957 70.4645 144.35 71.7003Q143.743 72.9361 143.743 74.7969Q143.743 76.608 144.336 77.7869Q144.929 78.9659 145.934 79.5412Q146.939 80.1165 148.168 80.1165Q149.474 80.1165 150.227 79.5661Q150.98 79.0156 151.278 78.3409L151.406 78.3409L151.406 80.3366Q151.406 81.4588 150.763 81.9382Q150.121 82.4176 149.134 82.4176Q148.132 82.4176 147.596 82.0447Q147.06 81.6719 146.875 81.1747L144.077 81.5511Q144.347 82.8366 145.604 83.7138ZM165.504 79.6619Q166.534 80.4787 168.097 80.4787Q169.304 80.4787 170.096 79.9993Q170.888 79.5199 171.285 78.7599L171.371 78.7599L171.371 80.2727L174.24 80.2727L174.24 72.9148Q174.24 71.6151 173.59 70.8018Q172.94 69.9886 171.882 69.6051Q170.824 69.2216 169.609 69.2216Q167.649 69.2216 166.41 70.0952Q165.17 70.9688 164.858 72.4602L167.656 72.6875Q167.812 72.1406 168.295 71.7855Q168.778 71.4304 169.595 71.4304Q170.369 71.4304 170.792 71.7997Q171.214 72.169 171.214 72.8438L171.214 72.8864Q171.214 73.4119 170.604 73.5682Q169.993 73.7244 168.572 73.8665Q167.493 73.9659 166.559 74.2891Q165.625 74.6122 165.05 75.3082Q164.474 76.0043 164.474 77.2259Q164.474 78.8452 165.504 79.6619ZM176.591 69.3636L179.474 69.3636L179.474 71.2884L179.602 71.2884Q179.943 70.3224 180.742 69.772Q181.541 69.2216 182.642 69.2216Q183.764 69.2216 184.553 69.7791Q185.341 70.3366 185.604 71.2884L185.717 71.2884Q186.051 70.3509 186.928 69.7862Q187.805 69.2216 189.006 69.2216Q190.533 69.2216 191.488 70.1911Q192.443 71.1605 192.443 72.9361L192.443 80.2727L189.425 80.2727L189.425 73.5327Q189.425 72.6236 188.942 72.169Q188.459 71.7145 187.734 71.7145Q186.911 71.7145 186.449 72.2401Q185.987 72.7656 185.987 73.6108L185.987 80.2727L183.054 80.2727L183.054 73.4688Q183.054 72.6662 182.596 72.1903Q182.138 71.7145 181.392 71.7145Q180.639 71.7145 180.128 72.2649Q179.616 72.8153 179.616 73.7244L179.616 80.2727L176.591 80.2727L176.591 69.3636ZM212.166 80.4858Q210.511 80.4858 209.308 79.7791Q208.104 79.0724 207.45 77.8047Q206.797 76.5369 206.797 74.8608Q206.797 73.1705 207.45 71.9027Q208.104 70.6349 209.308 69.9283Q210.511 69.2216 212.166 69.2216Q213.821 69.2216 215.025 69.9283Q216.229 70.6349 216.882 71.9027Q217.535 73.1705 217.535 74.8608Q217.535 76.5369 216.882 77.8047Q216.229 79.0724 215.025 79.7791Q213.821 80.4858 212.166 80.4858ZM226.197 79.772Q227.401 80.4858 229.077 80.4858Q230.533 80.4858 231.598 79.9567Q232.663 79.4276 233.271 78.4759Q233.878 77.5241 233.949 76.2741L231.094 76.2741Q230.959 77.1477 230.426 77.62Q229.893 78.0923 229.112 78.0923Q228.054 78.0923 227.418 77.2365Q226.783 76.3807 226.783 74.8182Q226.783 73.2699 227.422 72.4247Q228.061 71.5795 229.112 71.5795Q229.943 71.5795 230.458 72.0803Q230.973 72.581 231.094 73.3977L233.949 73.3977Q233.885 72.1335 233.263 71.196Q232.642 70.2585 231.566 69.7401Q230.49 69.2216 229.062 69.2216Q227.408 69.2216 226.207 69.9354Q225.007 70.6491 224.357 71.9169Q223.707 73.1847 223.707 74.8608Q223.707 76.5156 224.35 77.7869Q224.993 79.0582 226.197 79.772ZM239.006 80.4787Q237.443 80.4787 236.413 79.6619Q235.384 78.8452 235.384 77.2259Q235.384 76.0043 235.959 75.3082Q236.534 74.6122 237.468 74.2891Q238.402 73.9659 239.482 73.8665Q240.902 73.7244 241.513 73.5682Q242.124 73.4119 242.124 72.8864L242.124 72.8438Q242.124 72.169 241.701 71.7997Q241.278 71.4304 240.504 71.4304Q239.687 71.4304 239.205 71.7855Q238.722 72.1406 238.565 72.6875L235.767 72.4602Q236.08 70.9688 237.319 70.0952Q238.558 69.2216 240.518 69.2216Q241.733 69.2216 242.791 69.6051Q243.849 69.9886 244.499 70.8018Q245.149 71.6151 245.149 72.9148L245.149 80.2727L242.28 80.2727L242.28 78.7599L242.195 78.7599Q241.797 79.5199 241.005 79.9993Q240.213 80.4787 239.006 80.4787ZM257.869 80.4858Q256.193 80.4858 254.989 79.772Q253.785 79.0582 253.143 77.7869Q252.5 76.5156 252.5 74.8608Q252.5 73.1847 253.15 71.9169Q253.8 70.6491 255 69.9354Q256.2 69.2216 257.855 69.2216Q259.283 69.2216 260.359 69.7401Q261.435 70.2585 262.056 71.196Q262.678 72.1335 262.741 73.3977L259.886 73.3977Q259.766 72.581 259.251 72.0803Q258.736 71.5795 257.905 71.5795Q256.854 71.5795 256.214 72.4247Q255.575 73.2699 255.575 74.8182Q255.575 76.3807 256.211 77.2365Q256.847 78.0923 257.905 78.0923Q258.686 78.0923 259.219 77.62Q259.751 77.1477 259.886 76.2741L262.741 76.2741Q262.67 77.5241 262.063 78.4759Q261.456 79.4276 260.391 79.9567Q259.325 80.4858 257.869 80.4858ZM283.082 79.6619Q284.112 80.4787 285.675 80.4787Q286.882 80.4787 287.674 79.9993Q288.466 79.5199 288.864 78.7599L288.949 78.7599L288.949 80.2727L291.818 80.2727L291.818 72.9148Q291.818 71.6151 291.168 70.8018Q290.518 69.9886 289.46 69.6051Q288.402 69.2216 287.187 69.2216Q285.227 69.2216 283.988 70.0952Q282.749 70.9688 282.436 72.4602L285.234 72.6875Q285.391 72.1406 285.874 71.7855Q286.357 71.4304 287.173 71.4304Q287.947 71.4304 288.37 71.7997Q288.793 72.169 288.793 72.8438L288.793 72.8864Q288.793 73.4119 288.182 73.5682Q287.571 73.7244 286.151 73.8665Q285.071 73.9659 284.137 74.2891Q283.203 74.6122 282.628 75.3082Q282.053 76.0043 282.053 77.2259Q282.053 78.8452 283.082 79.6619ZM304.02 79.8004Q305.234 80.4858 306.91 80.4858Q308.935 80.4858 310.234 79.5767Q311.534 78.6676 311.854 77.1477L309.055 76.9631Q308.828 77.5881 308.274 77.9077Q307.72 78.2273 306.96 78.2273Q305.824 78.2273 305.156 77.5241Q304.489 76.821 304.489 75.5994L304.489 75.5923L311.918 75.5923L311.918 74.7614Q311.918 72.9077 311.236 71.6754Q310.554 70.4432 309.393 69.8324Q308.232 69.2216 306.79 69.2216Q305.185 69.2216 303.995 69.9318Q302.805 70.642 302.152 71.9134Q301.499 73.1847 301.499 74.8679Q301.499 76.5938 302.152 77.8544Q302.805 79.1151 304.02 79.8004ZM34.3821 69.3636L30.5682 80.2727L27.1591 80.2727L23.3452 69.3636L26.5412 69.3636L28.8068 77.169L28.9205 77.169L31.179 69.3636L34.3821 69.3636ZM83.5795 69.3636L80.554 69.3636L80.554 80.2727L83.5795 80.2727L83.5795 69.3636ZM274.709 69.3636L271.683 69.3636L271.683 75.6278Q271.69 76.7216 271.055 77.2898Q270.419 77.858 269.602 77.858Q268.743 77.858 268.232 77.2969Q267.72 76.7358 267.713 75.7699L267.713 69.3636L264.688 69.3636L264.688 76.3097Q264.695 78.2202 265.714 79.3175Q266.733 80.4148 268.381 80.4148Q269.609 80.4148 270.465 79.8324Q271.321 79.25 271.69 78.2912L271.804 78.2912L271.804 80.2727L274.709 80.2727L274.709 69.3636ZM309.07 73.7173L304.489 73.7173Q304.538 72.7869 305.185 72.1335Q305.831 71.4801 306.839 71.4801Q307.827 71.4801 308.445 72.1122Q309.062 72.7443 309.07 73.7173ZM136.818 78.142Q137.94 78.142 138.519 77.2045Q139.098 76.267 139.098 74.8395Q139.098 73.4119 138.519 72.4709Q137.94 71.5298 136.818 71.5298Q135.675 71.5298 135.092 72.4709Q134.51 73.4119 134.51 74.8395Q134.51 76.267 135.092 77.2045Q135.675 78.142 136.818 78.142ZM212.18 78.142Q213.303 78.142 213.881 77.2045Q214.46 76.267 214.46 74.8395Q214.46 73.4119 213.881 72.4709Q213.303 71.5298 212.18 71.5298Q211.037 71.5298 210.455 72.4709Q209.872 73.4119 209.872 74.8395Q209.872 76.267 210.455 77.2045Q211.037 78.142 212.18 78.142ZM88.956 74.8182Q88.956 76.2741 89.5561 77.1584Q90.1562 78.0426 91.25 78.0426Q92.3651 78.0426 92.9545 77.1442Q93.544 76.2457 93.544 74.8182Q93.544 73.3977 92.9581 72.5135Q92.3722 71.6293 91.25 71.6293Q90.1491 71.6293 89.5526 72.4922Q88.956 73.3551 88.956 74.8182ZM114.013 74.8182Q114.013 76.2741 114.613 77.1584Q115.213 78.0426 116.307 78.0426Q117.422 78.0426 118.011 77.1442Q118.601 76.2457 118.601 74.8182Q118.601 73.3977 118.015 72.5135Q117.429 71.6293 116.307 71.6293Q115.206 71.6293 114.609 72.4922Q114.013 73.3551 114.013 74.8182ZM150.82 77.0341Q150.22 77.8438 149.126 77.8438Q148.011 77.8438 147.422 77.0199Q146.832 76.196 146.832 74.7827Q146.832 73.3906 147.418 72.5099Q148.004 71.6293 149.126 71.6293Q150.227 71.6293 150.824 72.4886Q151.42 73.348 151.42 74.7827Q151.42 76.2244 150.82 77.0341ZM18.2173 77.8118Q17.5781 78.3906 16.5838 78.3906Q15.8878 78.3906 15.4368 78.071Q14.9858 77.7514 14.9858 77.1264Q14.9858 76.4872 15.4723 76.1534Q15.9588 75.8196 16.7543 75.706Q17.0881 75.6563 17.5107 75.5888Q17.9332 75.5213 18.3061 75.429Q18.679 75.3366 18.8565 75.2159L18.8565 76.3736Q18.8565 77.233 18.2173 77.8118ZM41.5412 77.8118Q40.902 78.3906 39.9077 78.3906Q39.2116 78.3906 38.7607 78.071Q38.3097 77.7514 38.3097 77.1264Q38.3097 76.4872 38.7962 76.1534Q39.2827 75.8196 40.0781 75.706Q40.4119 75.6563 40.8345 75.5888Q41.2571 75.5213 41.63 75.429Q42.0028 75.3366 42.1804 75.2159L42.1804 76.3736Q42.1804 77.233 41.5412 77.8118ZM170.597 77.8118Q169.957 78.3906 168.963 78.3906Q168.267 78.3906 167.816 78.071Q167.365 77.7514 167.365 77.1264Q167.365 76.4872 167.852 76.1534Q168.338 75.8196 169.134 75.706Q169.467 75.6563 169.89 75.5888Q170.312 75.5213 170.685 75.429Q171.058 75.3366 171.236 75.2159L171.236 76.3736Q171.236 77.233 170.597 77.8118ZM239.872 78.3906Q240.866 78.3906 241.506 77.8118Q242.145 77.233 242.145 76.3736L242.145 75.2159Q241.967 75.3366 241.594 75.429Q241.222 75.5213 240.799 75.5888Q240.376 75.6563 240.043 75.706Q239.247 75.8196 238.761 76.1534Q238.274 76.4872 238.274 77.1264Q238.274 77.7514 238.725 78.071Q239.176 78.3906 239.872 78.3906ZM288.175 77.8118Q287.535 78.3906 286.541 78.3906Q285.845 78.3906 285.394 78.071Q284.943 77.7514 284.943 77.1264Q284.943 76.4872 285.43 76.1534Q285.916 75.8196 286.712 75.706Q287.045 75.6563 287.468 75.5888Q287.891 75.5213 288.263 75.429Q288.636 75.3366 288.814 75.2159L288.814 76.3736Q288.814 77.233 288.175 77.8118Z" />
        </g>
        <g id="days-left-until-next-Diwali.">
          <path d="M123.636 91.5064Q124.119 91.9574 124.787 91.9574Q125.462 91.9574 125.945 91.5064Q126.428 91.0554 126.428 90.4233Q126.428 89.7912 125.945 89.3438Q125.462 88.8963 124.787 88.8963Q124.119 88.8963 123.636 89.3438Q123.153 89.7912 123.153 90.4233Q123.153 91.0554 123.636 91.5064ZM203.125 91.9574Q202.457 91.9574 201.974 91.5064Q201.492 91.0554 201.492 90.4233Q201.492 89.7912 201.974 89.3438Q202.457 88.8963 203.125 88.8963Q203.8 88.8963 204.283 89.3438Q204.766 89.7912 204.766 90.4233Q204.766 91.0554 204.283 91.5064Q203.8 91.9574 203.125 91.9574ZM242.614 91.9574Q241.946 91.9574 241.463 91.5064Q240.98 91.0554 240.98 90.4233Q240.98 89.7912 241.463 89.3438Q241.946 88.8963 242.614 88.8963Q243.288 88.8963 243.771 89.3438Q244.254 89.7912 244.254 90.4233Q244.254 91.0554 243.771 91.5064Q243.288 91.9574 242.614 91.9574ZM76.3707 93.3636L76.3707 95.6364L74.2045 95.6364L74.2045 104.273L71.179 104.273L71.179 95.6364L69.6378 95.6364L69.6378 93.3636L71.179 93.3636L71.179 92.5753Q71.179 90.7926 72.1982 89.919Q73.2173 89.0455 74.7585 89.0455Q75.4545 89.0455 76.0334 89.152Q76.6122 89.2585 76.8963 89.3438L76.3636 91.6165Q76.1861 91.5597 75.9233 91.5099Q75.6605 91.4602 75.3906 91.4602Q74.723 91.4602 74.4638 91.7692Q74.2045 92.0781 74.2045 92.6321L74.2045 93.3636L76.3707 93.3636ZM2.98295 103.808Q3.98437 104.45 5.22727 104.45Q6.10795 104.45 6.7223 104.159Q7.33665 103.868 7.72727 103.424Q8.1179 102.98 8.32386 102.526L8.4517 102.526L8.4517 104.273L11.4347 104.273L11.4347 89.7273L8.41619 89.7273L8.41619 95.196L8.32386 95.196Q8.125 94.7486 7.74503 94.294Q7.36506 93.8395 6.75071 93.5305Q6.13636 93.2216 5.22017 93.2216Q4.02699 93.2216 3.02202 93.843Q2.01705 94.4645 1.4098 95.7109Q0.802557 96.9574 0.802557 98.8324Q0.802557 100.658 1.39205 101.911Q1.98153 103.165 2.98295 103.808ZM56.1364 89.7273L56.1364 104.273L53.1108 104.273L53.1108 89.7273L56.1364 89.7273ZM131.733 89.7273L131.733 104.273L128.707 104.273L128.707 89.7273L131.733 89.7273ZM187.117 104.273L192.273 104.273Q194.489 104.273 196.083 103.399Q197.678 102.526 198.533 100.892Q199.389 99.2585 199.389 96.9858Q199.389 94.7202 198.537 93.0938Q197.685 91.4673 196.097 90.5973Q194.51 89.7273 192.315 89.7273L187.117 89.7273L187.117 104.273ZM238.679 104.273L238.679 89.7273L235.653 89.7273L235.653 104.273L238.679 104.273ZM84.0199 95.6364L84.0199 93.3636L81.9673 93.3636L81.9673 90.75L78.9418 90.75L78.9418 93.3636L77.4503 93.3636L77.4503 95.6364L78.9418 95.6364L78.9418 101.318Q78.9347 102.923 79.9325 103.708Q80.9304 104.493 82.5781 104.422Q83.1676 104.401 83.5795 104.305Q83.9915 104.209 84.2188 104.138L83.7429 101.886Q83.6293 101.908 83.4162 101.947Q83.2031 101.986 82.9901 101.986Q82.5355 101.986 82.2514 101.766Q81.9673 101.545 81.9673 100.92L81.9673 95.6364L84.0199 95.6364ZM121.3 93.3636L121.3 95.6364L119.247 95.6364L119.247 100.92Q119.247 101.545 119.531 101.766Q119.815 101.986 120.27 101.986Q120.483 101.986 120.696 101.947Q120.909 101.908 121.023 101.886L121.499 104.138Q121.271 104.209 120.859 104.305Q120.447 104.401 119.858 104.422Q118.21 104.493 117.212 103.708Q116.214 102.923 116.222 101.318L116.222 95.6364L114.73 95.6364L114.73 93.3636L116.222 93.3636L116.222 90.75L119.247 90.75L119.247 93.3636L121.3 93.3636ZM180.455 93.3636L180.455 95.6364L178.402 95.6364L178.402 100.92Q178.402 101.545 178.686 101.766Q178.97 101.986 179.425 101.986Q179.638 101.986 179.851 101.947Q180.064 101.908 180.178 101.886L180.653 104.138Q180.426 104.209 180.014 104.305Q179.602 104.401 179.013 104.422Q177.365 104.493 176.367 103.708Q175.369 102.923 175.376 101.318L175.376 95.6364L173.885 95.6364L173.885 93.3636L175.376 93.3636L175.376 90.75L178.402 90.75L178.402 93.3636L180.455 93.3636ZM192.145 101.638L190.192 101.638L190.192 92.3622L192.152 92.3622Q194.197 92.3622 195.259 93.4631Q196.321 94.5639 196.321 96.9858Q196.321 99.4219 195.259 100.53Q194.197 101.638 192.145 101.638ZM14.4318 103.662Q15.4616 104.479 17.0241 104.479Q18.2315 104.479 19.0234 103.999Q19.8153 103.52 20.2131 102.76L20.2983 102.76L20.2983 104.273L23.1676 104.273L23.1676 96.9148Q23.1676 95.6151 22.5178 94.8018Q21.8679 93.9886 20.8097 93.6051Q19.7514 93.2216 18.5369 93.2216Q16.5767 93.2216 15.3374 94.0952Q14.098 94.9688 13.7855 96.4602L16.5838 96.6875Q16.7401 96.1406 17.223 95.7855Q17.706 95.4304 18.5227 95.4304Q19.2969 95.4304 19.7195 95.7997Q20.142 96.169 20.142 96.8438L20.142 96.8864Q20.142 97.4119 19.5313 97.5682Q18.9205 97.7244 17.5 97.8665Q16.4205 97.9659 15.4865 98.2891Q14.5526 98.6122 13.9773 99.3082Q13.402 100.004 13.402 101.226Q13.402 102.845 14.4318 103.662ZM43.544 96.6449L46.3139 96.4744Q46.1151 94.9688 44.9254 94.0952Q43.7358 93.2216 41.669 93.2216Q39.5739 93.2216 38.3061 94.1307Q37.0384 95.0398 37.0455 96.6165Q37.0313 99.1023 40.1989 99.7344L42.0881 100.111Q43.4659 100.388 43.4872 101.197Q43.4801 101.68 42.9936 101.993Q42.5071 102.305 41.7116 102.305Q40.902 102.305 40.3871 101.964Q39.8722 101.624 39.7301 100.956L36.7543 101.112Q36.9673 102.675 38.2528 103.58Q39.5384 104.486 41.7045 104.486Q43.1179 104.486 44.2117 104.035Q45.3054 103.584 45.934 102.774Q46.5625 101.964 46.5625 100.892Q46.5554 98.5838 43.4091 97.9375L41.4347 97.5398Q40.6747 97.3764 40.3587 97.1065Q40.0426 96.8366 40.0497 96.446Q40.0426 95.956 40.5291 95.6612Q41.0156 95.3665 41.7188 95.3665Q42.5071 95.3665 42.9688 95.7429Q43.4304 96.1193 43.544 96.6449ZM60.6321 103.8Q61.8466 104.486 63.5227 104.486Q65.5469 104.486 66.8466 103.577Q68.1463 102.668 68.4659 101.148L65.6676 100.963Q65.4403 101.588 64.8864 101.908Q64.3324 102.227 63.5724 102.227Q62.4361 102.227 61.7685 101.524Q61.1009 100.821 61.1009 99.5994L61.1009 99.5923L68.5298 99.5923L68.5298 98.7614Q68.5298 96.9077 67.848 95.6754Q67.1662 94.4432 66.005 93.8324Q64.8438 93.2216 63.402 93.2216Q61.7969 93.2216 60.6072 93.9318Q59.4176 94.642 58.7642 95.9134Q58.1108 97.1847 58.1108 98.8679Q58.1108 100.594 58.7642 101.854Q59.4176 103.115 60.6321 103.8ZM106.087 104.273L106.087 97.9659Q106.094 96.9077 106.665 96.3217Q107.237 95.7358 108.153 95.7358Q109.063 95.7358 109.581 96.3004Q110.099 96.8651 110.092 97.8665L110.092 104.273L113.118 104.273L113.118 97.3267Q113.118 95.4162 112.088 94.3189Q111.058 93.2216 109.354 93.2216Q108.139 93.2216 107.29 93.7791Q106.442 94.3366 106.072 95.2884L105.945 95.2884L105.945 93.3636L103.061 93.3636L103.061 104.273L106.087 104.273ZM141.811 104.273L141.811 97.9659Q141.818 96.9077 142.39 96.3217Q142.962 95.7358 143.878 95.7358Q144.787 95.7358 145.305 96.3004Q145.824 96.8651 145.817 97.8665L145.817 104.273L148.842 104.273L148.842 97.3267Q148.842 95.4162 147.813 94.3189Q146.783 93.2216 145.078 93.2216Q143.864 93.2216 143.015 93.7791Q142.166 94.3366 141.797 95.2884L141.669 95.2884L141.669 93.3636L138.786 93.3636L138.786 104.273L141.811 104.273ZM156.193 104.486Q154.517 104.486 153.303 103.8Q152.088 103.115 151.435 101.854Q150.781 100.594 150.781 98.8679Q150.781 97.1847 151.435 95.9134Q152.088 94.642 153.278 93.9318Q154.467 93.2216 156.072 93.2216Q157.514 93.2216 158.675 93.8324Q159.837 94.4432 160.518 95.6754Q161.2 96.9077 161.2 98.7614L161.2 99.5923L153.771 99.5923L153.771 99.5994Q153.771 100.821 154.439 101.524Q155.107 102.227 156.243 102.227Q157.003 102.227 157.557 101.908Q158.111 101.588 158.338 100.963L161.136 101.148Q160.817 102.668 159.517 103.577Q158.217 104.486 156.193 104.486ZM227.159 104.479Q225.597 104.479 224.567 103.662Q223.537 102.845 223.537 101.226Q223.537 100.004 224.112 99.3082Q224.688 98.6122 225.621 98.2891Q226.555 97.9659 227.635 97.8665Q229.055 97.7244 229.666 97.5682Q230.277 97.4119 230.277 96.8864L230.277 96.8438Q230.277 96.169 229.854 95.7997Q229.432 95.4304 228.658 95.4304Q227.841 95.4304 227.358 95.7855Q226.875 96.1406 226.719 96.6875L223.92 96.4602Q224.233 94.9688 225.472 94.0952Q226.712 93.2216 228.672 93.2216Q229.886 93.2216 230.945 93.6051Q232.003 93.9886 232.653 94.8018Q233.303 95.6151 233.303 96.9148L233.303 104.273L230.433 104.273L230.433 102.76L230.348 102.76Q229.95 103.52 229.158 103.999Q228.367 104.479 227.159 104.479ZM27.3864 108.364Q26.8111 108.364 26.3104 108.275Q25.8097 108.186 25.483 108.051L26.1648 105.793Q26.9673 106.034 27.5284 105.924Q28.0895 105.814 28.3878 105.047L28.5653 104.585L24.652 93.3636L27.8338 93.3636L30.0923 101.375L30.206 101.375L32.4858 93.3636L35.6889 93.3636L31.4489 105.452Q30.9872 106.773 30.032 107.568Q29.0767 108.364 27.3864 108.364ZM97.6207 99.6278L97.6207 93.3636L100.646 93.3636L100.646 104.273L97.7415 104.273L97.7415 102.291L97.6278 102.291Q97.2585 103.25 96.4027 103.832Q95.5469 104.415 94.3182 104.415Q92.6705 104.415 91.6513 103.317Q90.6321 102.22 90.625 100.31L90.625 93.3636L93.6506 93.3636L93.6506 99.7699Q93.6577 100.736 94.169 101.297Q94.6804 101.858 95.5398 101.858Q96.3565 101.858 96.9922 101.29Q97.6278 100.722 97.6207 99.6278ZM126.293 93.3636L123.267 93.3636L123.267 104.273L126.293 104.273L126.293 93.3636ZM167.706 97.1776L165.703 93.3636L162.578 93.3636L165.703 98.8182L162.465 104.273L165.59 104.273L167.706 100.501L169.858 104.273L172.947 104.273L169.702 98.8182L172.862 93.3636L169.759 93.3636L167.706 97.1776ZM201.605 93.3636L204.631 93.3636L204.631 104.273L201.605 104.273L201.605 93.3636ZM209.29 93.3636L206.229 93.3636L209.197 104.273L212.393 104.273L214.268 97.4119L214.403 97.4119L216.278 104.273L219.482 104.273L222.443 93.3636L219.389 93.3636L217.727 100.651L217.635 100.651L215.845 93.3636L212.841 93.3636L211.08 100.693L210.98 100.693L209.29 93.3636ZM241.094 93.3636L244.119 93.3636L244.119 104.273L241.094 104.273L241.094 93.3636ZM65.6818 97.7173L61.1009 97.7173Q61.1506 96.7869 61.7969 96.1335Q62.4432 95.4801 63.4517 95.4801Q64.4389 95.4801 65.0568 96.1122Q65.6747 96.7443 65.6818 97.7173ZM153.771 97.7173L158.352 97.7173Q158.345 96.7443 157.727 96.1122Q157.109 95.4801 156.122 95.4801Q155.114 95.4801 154.467 96.1335Q153.821 96.7869 153.771 97.7173ZM7.87997 101.158Q7.27983 102.043 6.18608 102.043Q5.07102 102.043 4.48153 101.144Q3.89205 100.246 3.89205 98.8182Q3.89205 97.3977 4.47798 96.5135Q5.06392 95.6293 6.18608 95.6293Q7.28693 95.6293 7.88352 96.4922Q8.48011 97.3551 8.48011 98.8182Q8.48011 100.274 7.87997 101.158ZM19.5241 101.812Q18.8849 102.391 17.8906 102.391Q17.1946 102.391 16.7436 102.071Q16.2926 101.751 16.2926 101.126Q16.2926 100.487 16.7791 100.153Q17.2656 99.8196 18.0611 99.706Q18.3949 99.6563 18.8175 99.5888Q19.2401 99.5213 19.6129 99.429Q19.9858 99.3366 20.1634 99.2159L20.1634 100.374Q20.1634 101.233 19.5241 101.812ZM228.026 102.391Q229.02 102.391 229.659 101.812Q230.298 101.233 230.298 100.374L230.298 99.2159Q230.121 99.3366 229.748 99.429Q229.375 99.5213 228.952 99.5888Q228.53 99.6563 228.196 99.706Q227.401 99.8196 226.914 100.153Q226.428 100.487 226.428 101.126Q226.428 101.751 226.879 102.071Q227.33 102.391 228.026 102.391ZM247.095 103.96Q247.599 104.457 248.303 104.457Q248.984 104.457 249.492 103.96Q250 103.463 250.007 102.753Q250 102.057 249.492 101.56Q248.984 101.063 248.303 101.063Q247.599 101.063 247.095 101.56Q246.591 102.057 246.598 102.753Q246.591 103.463 247.095 103.96Z" />
        </g>
        <g id="There-are-134-days-left-until-Diwali.">
          <path d="M158.395 139.273L158.395 140.338L156.563 140.338L156.563 147.455L155.305 147.455L155.305 140.338L153.984 140.338L153.984 139.273L155.305 139.273L155.305 138.143Q155.305 137.44 155.636 136.972Q155.966 136.503 156.493 136.268Q157.021 136.034 157.607 136.034Q158.07 136.034 158.363 136.109Q158.656 136.183 158.8 136.247L158.438 137.334Q158.342 137.302 158.174 137.254Q158.006 137.206 157.734 137.206Q157.111 137.206 156.837 137.52Q156.563 137.835 156.563 138.442L156.563 139.273L158.395 139.273ZM192.792 137.659Q193.056 137.909 193.423 137.909Q193.791 137.909 194.055 137.659Q194.318 137.408 194.318 137.057Q194.318 136.705 194.055 136.455Q193.791 136.205 193.423 136.205Q193.056 136.205 192.792 136.455Q192.528 136.705 192.528 137.057Q192.528 137.408 192.792 137.659ZM215.54 137.909Q215.172 137.909 214.909 137.659Q214.645 137.408 214.645 137.057Q214.645 136.705 214.909 136.455Q215.172 136.205 215.54 136.205Q215.907 136.205 216.171 136.455Q216.435 136.705 216.435 137.057Q216.435 137.408 216.171 137.659Q215.907 137.909 215.54 137.909ZM243.303 137.909Q242.935 137.909 242.671 137.659Q242.408 137.408 242.408 137.057Q242.408 136.705 242.671 136.455Q242.935 136.205 243.303 136.205Q243.67 136.205 243.934 136.455Q244.197 136.705 244.197 137.057Q244.197 137.408 243.934 137.659Q243.67 137.909 243.303 137.909ZM84.5455 147.604Q83.4908 147.604 82.6678 147.241Q81.8448 146.879 81.3628 146.232Q80.8807 145.585 80.8381 144.727L82.1804 144.727Q82.239 145.516 82.9075 145.974Q83.576 146.432 84.5242 146.432Q85.5735 146.432 86.2527 145.896Q86.9318 145.361 86.9318 144.493Q86.9318 143.587 86.2633 143.017Q85.5948 142.447 84.3537 142.447L83.4801 142.447L83.4801 141.276L84.3537 141.276Q85.3232 141.276 85.9357 140.759Q86.5483 140.242 86.5483 139.379Q86.5483 138.554 86.0103 138.05Q85.4723 137.547 84.5668 137.547Q84.0021 137.547 83.5041 137.752Q83.006 137.957 82.6918 138.343Q82.3775 138.729 82.3509 139.273L81.0724 139.273Q81.1044 138.415 81.5891 137.768Q82.0739 137.121 82.8596 136.759Q83.6452 136.396 84.5881 136.396Q85.6001 136.396 86.3246 136.804Q87.049 137.211 87.4379 137.877Q87.8267 138.543 87.8267 139.315Q87.8267 140.237 87.3446 140.887Q86.8626 141.537 86.0369 141.787L86.0369 141.872Q87.0703 142.043 87.6509 142.748Q88.2315 143.454 88.2315 144.493Q88.2315 145.382 87.7495 146.088Q87.2674 146.794 86.4364 147.199Q85.6055 147.604 84.5455 147.604ZM0.724432 137.717L0.724432 136.545L8.90625 136.545L8.90625 137.717L5.47585 137.717L5.47585 147.455L4.15483 147.455L4.15483 137.717L0.724432 137.717ZM12.0384 142.533L12.0384 147.455L10.7813 147.455L10.7813 136.545L12.0384 136.545L12.0384 140.551L12.1449 140.551Q12.4325 139.917 13.0105 139.542Q13.5884 139.166 14.5526 139.166Q15.8097 139.166 16.5767 139.923Q17.3438 140.679 17.3438 142.256L17.3438 147.455L16.0866 147.455L16.0866 142.341Q16.0866 141.366 15.5833 140.831Q15.0799 140.295 14.1903 140.295Q13.2582 140.295 12.6483 140.879Q12.0384 141.462 12.0384 142.533ZM77.7273 147.455L77.7273 136.545L76.4063 136.545L73.679 138.357L73.679 139.699L76.3423 137.93L76.4063 137.93L76.4063 147.455L77.7273 147.455ZM90.1492 144.131L90.1492 145.217L95.2841 145.217L95.2841 147.455L96.5412 147.455L96.5412 145.217L98.0327 145.217L98.0327 144.045L96.5412 144.045L96.5412 136.545L94.9432 136.545L90.1492 144.131ZM107.365 147.625Q106.342 147.625 105.559 147.106Q104.776 146.586 104.334 145.635Q103.892 144.685 103.892 143.385Q103.892 142.096 104.334 141.148Q104.776 140.2 105.565 139.683Q106.353 139.166 107.386 139.166Q108.185 139.166 108.651 139.43Q109.118 139.694 109.365 140.026Q109.613 140.359 109.751 140.572L109.858 140.572L109.858 136.545L111.115 136.545L111.115 147.455L109.901 147.455L109.901 146.197L109.751 146.197Q109.613 146.421 109.357 146.759Q109.102 147.098 108.627 147.361Q108.153 147.625 107.365 147.625ZM143.715 136.545L143.715 147.455L142.457 147.455L142.457 136.545L143.715 136.545ZM197.599 136.545L197.599 147.455L196.342 147.455L196.342 136.545L197.599 136.545ZM204.29 147.455L207.656 147.455Q209.318 147.455 210.479 146.797Q211.641 146.139 212.248 144.911Q212.855 143.683 212.855 141.979Q212.855 140.285 212.253 139.068Q211.651 137.85 210.522 137.198Q209.393 136.545 207.805 136.545L204.29 136.545L204.29 147.455ZM240.362 147.455L240.362 136.545L239.105 136.545L239.105 147.455L240.362 147.455ZM163.722 140.338L163.722 139.273L161.974 139.273L161.974 137.313L160.717 137.313L160.717 139.273L159.482 139.273L159.482 140.338L160.717 140.338L160.717 145.452Q160.717 146.165 161.05 146.634Q161.383 147.103 161.892 147.332Q162.401 147.561 162.933 147.561Q163.285 147.561 163.514 147.51Q163.743 147.46 163.871 147.412L163.615 146.283Q163.535 146.299 163.402 146.323Q163.269 146.347 163.061 146.347Q162.784 146.347 162.536 146.259Q162.289 146.171 162.132 145.907Q161.974 145.643 161.974 145.111L161.974 140.338L163.722 140.338ZM190.888 139.273L190.888 140.338L189.141 140.338L189.141 145.111Q189.141 145.643 189.298 145.907Q189.455 146.171 189.703 146.259Q189.95 146.347 190.227 146.347Q190.435 146.347 190.568 146.323Q190.701 146.299 190.781 146.283L191.037 147.412Q190.909 147.46 190.68 147.51Q190.451 147.561 190.099 147.561Q189.567 147.561 189.058 147.332Q188.549 147.103 188.216 146.634Q187.884 146.165 187.884 145.452L187.884 140.338L186.648 140.338L186.648 139.273L187.884 139.273L187.884 137.313L189.141 137.313L189.141 139.273L190.888 139.273ZM207.571 146.283L205.611 146.283L205.611 137.717L207.72 137.717Q209.638 137.717 210.607 138.857Q211.577 139.997 211.577 141.979Q211.577 143.976 210.589 145.129Q209.601 146.283 207.571 146.283ZM95.2841 138.229L95.2841 144.045L91.5767 144.045L91.5767 143.96L95.1989 138.229L95.2841 138.229ZM28.3807 147.455L28.3807 139.273L29.5952 139.273L29.5952 140.509L29.6804 140.509Q29.9041 139.901 30.4901 139.523Q31.076 139.145 31.8111 139.145Q31.9496 139.145 32.1573 139.15Q32.3651 139.156 32.4716 139.166L32.4716 140.445Q32.4077 140.429 32.1813 140.394Q31.9549 140.359 31.7045 140.359Q30.8097 140.359 30.2237 140.903Q29.6378 141.446 29.6378 142.277L29.6378 147.455L28.3807 147.455ZM55.3764 139.273L55.3764 147.455L56.6335 147.455L56.6335 142.277Q56.6335 141.446 57.2195 140.903Q57.8054 140.359 58.7003 140.359Q58.9506 140.359 59.177 140.394Q59.4034 140.429 59.4673 140.445L59.4673 139.166Q59.3608 139.156 59.1531 139.15Q58.9453 139.145 58.8068 139.145Q58.0717 139.145 57.4858 139.523Q56.8999 139.901 56.6761 140.509L56.5909 140.509L56.5909 139.273L55.3764 139.273ZM21.0378 147.1Q21.8928 147.625 23.0753 147.625Q24.3217 147.625 25.1847 147.055Q26.0476 146.485 26.3352 145.558L25.1207 145.217Q24.881 145.857 24.3484 146.176Q23.8157 146.496 23.0753 146.496Q21.9673 146.496 21.2669 145.798Q20.5664 145.1 20.5238 143.79L26.4631 143.79L26.4631 143.257Q26.4631 142.112 26.1594 141.329Q25.8558 140.546 25.3445 140.069Q24.8331 139.592 24.2099 139.379Q23.5866 139.166 22.9474 139.166Q21.8395 139.166 21.0112 139.707Q20.1829 140.248 19.7221 141.209Q19.2614 142.17 19.2614 143.428Q19.2614 144.685 19.7221 145.63Q20.1829 146.576 21.0378 147.1ZM35.356 147.1Q36.2109 147.625 37.3935 147.625Q38.6399 147.625 39.5028 147.055Q40.3658 146.485 40.6534 145.558L39.4389 145.217Q39.1992 145.857 38.6665 146.176Q38.1339 146.496 37.3935 146.496Q36.2855 146.496 35.585 145.798Q34.8846 145.1 34.842 143.79L40.7813 143.79L40.7813 143.257Q40.7813 142.112 40.4776 141.329Q40.174 140.546 39.6626 140.069Q39.1513 139.592 38.5281 139.379Q37.9048 139.166 37.2656 139.166Q36.1577 139.166 35.3294 139.707Q34.5011 140.248 34.0403 141.209Q33.5795 142.17 33.5795 143.428Q33.5795 144.685 34.0403 145.63Q34.5011 146.576 35.356 147.1ZM49.3253 147.646Q48.5476 147.646 47.9137 147.351Q47.2798 147.055 46.907 146.493Q46.5341 145.931 46.5341 145.132Q46.5341 144.429 46.8111 143.99Q47.0881 143.55 47.5515 143.3Q48.0149 143.049 48.5769 142.924Q49.1388 142.799 49.7088 142.724Q50.4545 142.629 50.9206 142.578Q51.3867 142.527 51.6024 142.405Q51.8182 142.282 51.8182 141.979L51.8182 141.936Q51.8182 141.148 51.3894 140.711Q50.9606 140.274 50.0923 140.274Q49.1921 140.274 48.6808 140.668Q48.1694 141.063 47.9616 141.51L46.7685 141.084Q47.0881 140.338 47.6234 139.92Q48.1587 139.502 48.7953 139.334Q49.4318 139.166 50.0497 139.166Q50.4439 139.166 50.9579 139.259Q51.4719 139.353 51.954 139.64Q52.4361 139.928 52.7557 140.509Q53.0753 141.089 53.0753 142.064L53.0753 147.455L51.8182 147.455L51.8182 146.347L51.7543 146.347Q51.6264 146.613 51.3281 146.917Q51.0298 147.22 50.5344 147.433Q50.0391 147.646 49.3253 147.646ZM64.3892 147.625Q63.2067 147.625 62.3517 147.1Q61.4968 146.576 61.036 145.63Q60.5753 144.685 60.5753 143.428Q60.5753 142.17 61.036 141.209Q61.4968 140.248 62.3251 139.707Q63.1534 139.166 64.2614 139.166Q64.9006 139.166 65.5238 139.379Q66.147 139.592 66.6584 140.069Q67.1697 140.546 67.4734 141.329Q67.777 142.112 67.777 143.257L67.777 143.79L61.8377 143.79Q61.8803 145.1 62.5808 145.798Q63.2813 146.496 64.3892 146.496Q65.1296 146.496 65.6623 146.176Q66.195 145.857 66.4347 145.217L67.6491 145.558Q67.3615 146.485 66.4986 147.055Q65.6357 147.625 64.3892 147.625ZM114.583 147.351Q115.217 147.646 115.994 147.646Q116.708 147.646 117.203 147.433Q117.699 147.22 117.997 146.917Q118.295 146.613 118.423 146.347L118.487 146.347L118.487 147.455L119.744 147.455L119.744 142.064Q119.744 141.089 119.425 140.509Q119.105 139.928 118.623 139.64Q118.141 139.353 117.627 139.259Q117.113 139.166 116.719 139.166Q116.101 139.166 115.464 139.334Q114.828 139.502 114.292 139.92Q113.757 140.338 113.438 141.084L114.631 141.51Q114.838 141.063 115.35 140.668Q115.861 140.274 116.761 140.274Q117.63 140.274 118.058 140.711Q118.487 141.148 118.487 141.936L118.487 141.979Q118.487 142.282 118.271 142.405Q118.056 142.527 117.59 142.578Q117.124 142.629 116.378 142.724Q115.808 142.799 115.246 142.924Q114.684 143.049 114.221 143.3Q113.757 143.55 113.48 143.99Q113.203 144.429 113.203 145.132Q113.203 145.931 113.576 146.493Q113.949 147.055 114.583 147.351ZM135.064 141.425L136.193 141.105Q135.9 140.232 135.205 139.699Q134.51 139.166 133.295 139.166Q132.433 139.166 131.753 139.47Q131.074 139.773 130.683 140.306Q130.291 140.839 130.291 141.531Q130.291 142.378 130.816 142.94Q131.341 143.502 132.465 143.768L133.828 144.088Q135.043 144.37 135.043 145.239Q135.043 145.766 134.523 146.142Q134.004 146.517 133.125 146.517Q131.564 146.517 131.229 145.196L130.036 145.494Q130.254 146.538 131.074 147.082Q131.895 147.625 133.146 147.625Q134.1 147.625 134.819 147.305Q135.538 146.986 135.94 146.432Q136.342 145.878 136.342 145.175Q136.342 143.491 134.169 142.959L132.955 142.661Q132.23 142.479 131.889 142.208Q131.548 141.936 131.548 141.467Q131.548 140.94 132.046 140.596Q132.544 140.253 133.295 140.253Q134.121 140.253 134.51 140.626Q134.899 140.999 135.064 141.425ZM147.409 147.1Q148.264 147.625 149.446 147.625Q150.692 147.625 151.555 147.055Q152.418 146.485 152.706 145.558L151.492 145.217Q151.252 145.857 150.719 146.176Q150.186 146.496 149.446 146.496Q148.338 146.496 147.638 145.798Q146.937 145.1 146.895 143.79L152.834 143.79L152.834 143.257Q152.834 142.112 152.53 141.329Q152.227 140.546 151.715 140.069Q151.204 139.592 150.581 139.379Q149.957 139.166 149.318 139.166Q148.21 139.166 147.382 139.707Q146.554 140.248 146.093 141.209Q145.632 142.17 145.632 143.428Q145.632 144.685 146.093 145.63Q146.554 146.576 147.409 147.1ZM179.808 147.455L179.808 142.533Q179.808 141.462 180.402 140.879Q180.996 140.295 181.896 140.295Q182.77 140.295 183.271 140.836Q183.771 141.377 183.771 142.341L183.771 147.455L185.028 147.455L185.028 142.256Q185.028 140.69 184.264 139.928Q183.5 139.166 182.259 139.166Q181.332 139.166 180.746 139.547Q180.16 139.928 179.872 140.551L179.766 140.551L179.766 139.273L178.551 139.273L178.551 147.455L179.808 147.455ZM233.054 147.646Q232.276 147.646 231.642 147.351Q231.009 147.055 230.636 146.493Q230.263 145.931 230.263 145.132Q230.263 144.429 230.54 143.99Q230.817 143.55 231.28 143.3Q231.744 143.049 232.306 142.924Q232.868 142.799 233.438 142.724Q234.183 142.629 234.649 142.578Q235.115 142.527 235.331 142.405Q235.547 142.282 235.547 141.979L235.547 141.936Q235.547 141.148 235.118 140.711Q234.689 140.274 233.821 140.274Q232.921 140.274 232.409 140.668Q231.898 141.063 231.69 141.51L230.497 141.084Q230.817 140.338 231.352 139.92Q231.887 139.502 232.524 139.334Q233.161 139.166 233.778 139.166Q234.173 139.166 234.687 139.259Q235.201 139.353 235.683 139.64Q236.165 139.928 236.484 140.509Q236.804 141.089 236.804 142.064L236.804 147.455L235.547 147.455L235.547 146.347L235.483 146.347Q235.355 146.613 235.057 146.917Q234.759 147.22 234.263 147.433Q233.768 147.646 233.054 147.646ZM122.855 150.523Q122.536 150.523 122.285 150.472Q122.035 150.422 121.939 150.374L122.259 149.266Q122.717 149.383 123.068 149.351Q123.42 149.319 123.694 149.039Q123.968 148.76 124.197 148.136L124.432 147.497L121.406 139.273L122.77 139.273L125.028 145.793L125.114 145.793L127.372 139.273L128.736 139.273L125.263 148.648Q124.565 150.523 122.855 150.523ZM174.993 144.109L174.993 139.273L176.25 139.273L176.25 147.455L174.993 147.455L174.993 146.07L174.908 146.07Q174.62 146.693 174.013 147.127Q173.406 147.561 172.479 147.561Q171.328 147.561 170.582 146.799Q169.837 146.038 169.837 144.472L169.837 139.273L171.094 139.273L171.094 144.386Q171.094 145.281 171.597 145.814Q172.101 146.347 172.884 146.347Q173.352 146.347 173.84 146.107Q174.327 145.867 174.66 145.372Q174.993 144.876 174.993 144.109ZM194.041 139.273L192.784 139.273L192.784 147.455L194.041 147.455L194.041 139.273ZM214.901 139.273L216.158 139.273L216.158 147.455L214.901 147.455L214.901 139.273ZM219.141 139.273L217.82 139.273L220.313 147.455L221.548 147.455L223.338 141.169L223.466 141.169L225.256 147.455L226.492 147.455L228.984 139.273L227.663 139.273L225.895 145.516L225.81 145.516L224.084 139.273L222.742 139.273L220.994 145.537L220.909 145.537L219.141 139.273ZM242.663 139.273L243.92 139.273L243.92 147.455L242.663 147.455L242.663 139.273ZM25.1847 142.703L20.5238 142.703Q20.5664 142.069 20.87 141.518Q21.1737 140.967 21.701 140.631Q22.2283 140.295 22.9474 140.295Q23.9702 140.295 24.5774 140.98Q25.1847 141.664 25.1847 142.703ZM39.5028 142.703L34.842 142.703Q34.8846 142.069 35.1882 141.518Q35.4918 140.967 36.0192 140.631Q36.5465 140.295 37.2656 140.295Q38.2884 140.295 38.8956 140.98Q39.5028 141.664 39.5028 142.703ZM61.8377 142.703L66.4986 142.703Q66.4986 141.664 65.8913 140.98Q65.2841 140.295 64.2614 140.295Q63.5423 140.295 63.0149 140.631Q62.4876 140.967 62.1839 141.518Q61.8803 142.069 61.8377 142.703ZM107.536 146.496Q108.67 146.496 109.275 145.625Q109.879 144.754 109.879 143.364Q109.879 141.989 109.283 141.142Q108.686 140.295 107.536 140.295Q106.737 140.295 106.207 140.703Q105.676 141.11 105.413 141.806Q105.149 142.501 105.149 143.364Q105.149 144.237 105.418 144.948Q105.687 145.659 106.217 146.078Q106.747 146.496 107.536 146.496ZM151.555 142.703L146.895 142.703Q146.937 142.069 147.241 141.518Q147.544 140.967 148.072 140.631Q148.599 140.295 149.318 140.295Q150.341 140.295 150.948 140.98Q151.555 141.664 151.555 142.703ZM49.517 146.517Q50.2628 146.517 50.7768 146.224Q51.2908 145.931 51.5545 145.468Q51.8182 145.004 51.8182 144.493L51.8182 143.342Q51.7383 143.438 51.4693 143.515Q51.2003 143.593 50.8514 143.649Q50.5025 143.705 50.1749 143.744Q49.8473 143.784 49.6449 143.811Q49.1548 143.875 48.7314 144.016Q48.3079 144.157 48.0495 144.437Q47.7912 144.717 47.7912 145.196Q47.7912 145.851 48.2786 146.184Q48.766 146.517 49.517 146.517ZM117.446 146.224Q116.932 146.517 116.186 146.517Q115.435 146.517 114.948 146.184Q114.46 145.851 114.46 145.196Q114.46 144.717 114.719 144.437Q114.977 144.157 115.4 144.016Q115.824 143.875 116.314 143.811Q116.516 143.784 116.844 143.744Q117.172 143.705 117.52 143.649Q117.869 143.593 118.138 143.515Q118.407 143.438 118.487 143.342L118.487 144.493Q118.487 145.004 118.224 145.468Q117.96 145.931 117.446 146.224ZM233.246 146.517Q233.992 146.517 234.506 146.224Q235.02 145.931 235.283 145.468Q235.547 145.004 235.547 144.493L235.547 143.342Q235.467 143.438 235.198 143.515Q234.929 143.593 234.58 143.649Q234.231 143.705 233.904 143.744Q233.576 143.784 233.374 143.811Q232.884 143.875 232.46 144.016Q232.037 144.157 231.778 144.437Q231.52 144.717 231.52 145.196Q231.52 145.851 232.007 146.184Q232.495 146.517 233.246 146.517ZM246.461 147.257Q246.744 147.54 247.138 147.54Q247.532 147.54 247.814 147.257Q248.097 146.975 248.097 146.581Q248.097 146.187 247.814 145.904Q247.532 145.622 247.138 145.622Q246.744 145.622 246.461 145.904Q246.179 146.187 246.179 146.581Q246.179 146.975 246.461 147.257Z" />
        </g>
      </g>
    </g>
  </g>
</svg>