<?xml version="1.0" encoding="utf-8"?>
<svg width="375.50024px" height="282.5px" viewBox="0 0 375.50024 282.5" version="1.1" xmlns:xlink="http://www.w3.org/1999/xlink" xmlns="http://www.w3.org/2000/svg">
  <g id="Group-24" transform="translate(0.25 0.25)">
    <g id="Group-22">
      <g id="Group-21">
        <g id="Group-20">
          <g id="Group">
            <path d="M0 0L307.09 0L375 0L375 282L0 282L0 0Z" id="Rectangle" fill="#FFFFFF" fill-rule="evenodd" stroke="none" />
          </g>
        </g>
      </g>
    </g>
    <path d="M0 0L375 0L375 38L0 38L0 0Z" id="Rectangle" fill="#32CD32" fill-rule="evenodd" stroke="none" />
    <g id="--ulikeHome---About--Courses--Contact" fill="#FFFFFF" transform="translate(0.00024414062 9)">
      <path d="M15 3.27273Q14.755 3.27273 14.5792 3.10582Q14.4034 2.93892 14.4034 2.70455Q14.4034 2.47017 14.5792 2.30327Q14.755 2.13636 15 2.13636Q15.245 2.13636 15.4208 2.30327Q15.5966 2.47017 15.5966 2.70455Q15.5966 2.93892 15.4208 3.10582Q15.245 3.27273 15 3.27273ZM217.06 4.63636L216.179 4.63636Q216.072 4.1321 215.771 3.78764Q215.469 3.44318 215.043 3.26563Q214.617 3.08807 214.134 3.08807Q213.473 3.08807 212.939 3.42188Q212.404 3.75568 212.09 4.40554Q211.776 5.0554 211.776 6Q211.776 6.9446 212.09 7.59446Q212.404 8.24432 212.939 8.57813Q213.473 8.91193 214.134 8.91193Q214.617 8.91193 215.043 8.73438Q215.469 8.55682 215.771 8.21236Q216.072 7.8679 216.179 7.36364L217.06 7.36364Q216.925 8.10938 216.509 8.64027Q216.094 9.17117 215.479 9.45348Q214.865 9.7358 214.134 9.7358Q213.203 9.7358 212.479 9.28125Q211.754 8.8267 211.339 7.98864Q210.923 7.15057 210.923 6Q210.923 4.84943 211.339 4.01136Q211.754 3.1733 212.479 2.71875Q213.203 2.2642 214.134 2.2642Q214.865 2.2642 215.479 2.54652Q216.094 2.82884 216.509 3.35973Q216.925 3.89063 217.06 4.63636ZM260.852 4.63636L261.733 4.63636Q261.598 3.89063 261.183 3.35973Q260.767 2.82884 260.153 2.54652Q259.538 2.2642 258.807 2.2642Q257.876 2.2642 257.152 2.71875Q256.428 3.1733 256.012 4.01136Q255.597 4.84943 255.597 6Q255.597 7.15057 256.012 7.98864Q256.428 8.8267 257.152 9.28125Q257.876 9.7358 258.807 9.7358Q259.538 9.7358 260.153 9.45348Q260.767 9.17117 261.183 8.64027Q261.598 8.10938 261.733 7.36364L260.852 7.36364Q260.746 7.8679 260.444 8.21236Q260.142 8.55682 259.716 8.73438Q259.29 8.91193 258.807 8.91193Q258.146 8.91193 257.612 8.57813Q257.077 8.24432 256.763 7.59446Q256.449 6.9446 256.449 6Q256.449 5.0554 256.763 4.40554Q257.077 3.75568 257.612 3.42188Q258.146 3.08807 258.807 3.08807Q259.29 3.08807 259.716 3.26563Q260.142 3.44318 260.444 3.78764Q260.746 4.1321 260.852 4.63636ZM13.0398 9.63636L13.0398 2.36364L12.2017 2.36364L12.2017 9.63636L13.0398 9.63636ZM16.946 2.36364L16.946 9.63636L17.7841 9.63636L17.7841 7.59446L18.37 7.05114L20.4119 9.63636L21.4773 9.63636L19.0021 6.51136L21.3068 4.18182L20.2699 4.18182L17.8835 6.6108L17.7841 6.6108L17.7841 2.36364L16.946 2.36364ZM140.881 2.36364L140.881 9.63636L141.761 9.63636L141.761 6.38352L145.639 6.38352L145.639 9.63636L146.52 9.63636L146.52 2.36364L145.639 2.36364L145.639 5.60227L141.761 5.60227L141.761 2.36364L140.881 2.36364ZM176.577 9.63636L177.5 9.63636L178.232 7.5767L181.172 7.5767L181.903 9.63636L182.827 9.63636L180.156 2.36364L179.247 2.36364L176.577 9.63636ZM183.963 9.63636L183.963 2.36364L184.801 2.36364L184.801 5.0483L184.872 5.0483Q184.964 4.90625 185.13 4.6843Q185.295 4.46236 185.605 4.28658Q185.916 4.1108 186.449 4.1108Q187.138 4.1108 187.663 4.45526Q188.189 4.79972 188.484 5.43182Q188.778 6.06392 188.778 6.9233Q188.778 7.78977 188.484 8.42365Q188.189 9.05753 187.667 9.40376Q187.145 9.75 186.463 9.75Q185.938 9.75 185.621 9.57422Q185.305 9.39844 185.135 9.17294Q184.964 8.94744 184.872 8.7983L184.773 8.7983L184.773 9.63636L183.963 9.63636ZM204.205 4.89205L204.205 4.18182L203.04 4.18182L203.04 2.875L202.202 2.875L202.202 4.18182L201.378 4.18182L201.378 4.89205L202.202 4.89205L202.202 8.30114Q202.202 8.77699 202.424 9.08949Q202.646 9.40199 202.985 9.55469Q203.324 9.70739 203.679 9.70739Q203.913 9.70739 204.066 9.67365Q204.219 9.63992 204.304 9.60795L204.134 8.85511Q204.08 8.86577 203.991 8.88175Q203.903 8.89773 203.764 8.89773Q203.58 8.89773 203.414 8.83913Q203.249 8.78054 203.145 8.60476Q203.04 8.42898 203.04 8.07386L203.04 4.89205L204.205 4.89205ZM277.23 4.18182L277.23 4.89205L276.065 4.89205L276.065 8.07386Q276.065 8.42898 276.17 8.60476Q276.275 8.78054 276.44 8.83913Q276.605 8.89773 276.79 8.89773Q276.928 8.89773 277.017 8.88175Q277.106 8.86577 277.159 8.85511L277.33 9.60795Q277.244 9.63992 277.092 9.67365Q276.939 9.70739 276.705 9.70739Q276.349 9.70739 276.01 9.55469Q275.671 9.40199 275.449 9.08949Q275.227 8.77699 275.227 8.30114L275.227 4.89205L274.403 4.89205L274.403 4.18182L275.227 4.18182L275.227 2.875L276.065 2.875L276.065 4.18182L277.23 4.18182ZM292.088 4.89205L292.088 4.18182L290.923 4.18182L290.923 2.875L290.085 2.875L290.085 4.18182L289.261 4.18182L289.261 4.89205L290.085 4.89205L290.085 8.30114Q290.085 8.77699 290.307 9.08949Q290.529 9.40199 290.868 9.55469Q291.207 9.70739 291.563 9.70739Q291.797 9.70739 291.95 9.67365Q292.102 9.63992 292.188 9.60795L292.017 8.85511Q291.964 8.86577 291.875 8.88175Q291.786 8.89773 291.648 8.89773Q291.463 8.89773 291.298 8.83913Q291.133 8.78054 291.028 8.60476Q290.923 8.42898 290.923 8.07386L290.923 4.89205L292.088 4.89205ZM180.895 6.79545L178.509 6.79545L179.673 3.5142L179.73 3.5142L180.895 6.79545ZM230.952 4.18182L230.142 4.18182L230.142 9.63636L230.98 9.63636L230.98 6.18466Q230.98 5.63068 231.371 5.26847Q231.761 4.90625 232.358 4.90625Q232.525 4.90625 232.676 4.92933Q232.827 4.95242 232.869 4.96307L232.869 4.1108Q232.798 4.10369 232.66 4.10014Q232.521 4.09659 232.429 4.09659Q231.939 4.09659 231.548 4.34872Q231.158 4.60085 231.009 5.00568L230.952 5.00568L230.952 4.18182ZM24.6733 9.75Q23.8849 9.75 23.315 9.40021Q22.745 9.05043 22.4379 8.4201Q22.1307 7.78977 22.1307 6.9517Q22.1307 6.11364 22.4379 5.47266Q22.745 4.83168 23.2972 4.47124Q23.8494 4.1108 24.5881 4.1108Q25.0142 4.1108 25.4297 4.25284Q25.8452 4.39489 26.1861 4.71271Q26.527 5.03054 26.7294 5.55256Q26.9318 6.07457 26.9318 6.83807L26.9318 7.19318L22.9723 7.19318Q23.0007 8.06676 23.4677 8.53196Q23.9347 8.99716 24.6733 8.99716Q25.1669 8.99716 25.522 8.78409Q25.8771 8.57102 26.0369 8.14489L26.8466 8.37216Q26.6548 8.99006 26.0795 9.37003Q25.5043 9.75 24.6733 9.75ZM150.384 9.75Q149.645 9.75 149.089 9.39844Q148.533 9.04688 148.223 8.41477Q147.912 7.78267 147.912 6.9375Q147.912 6.08523 148.223 5.44957Q148.533 4.81392 149.089 4.46236Q149.645 4.1108 150.384 4.1108Q151.122 4.1108 151.678 4.46236Q152.234 4.81392 152.544 5.44957Q152.855 6.08523 152.855 6.9375Q152.855 7.78267 152.544 8.41477Q152.234 9.04688 151.678 9.39844Q151.122 9.75 150.384 9.75ZM154.134 4.18182L154.134 9.63636L154.972 9.63636L154.972 6.22727Q154.972 5.82599 155.144 5.51882Q155.316 5.21165 155.598 5.03764Q155.881 4.86364 156.207 4.86364Q156.683 4.86364 156.985 5.1495Q157.287 5.43537 157.287 5.90057L157.287 9.63636L158.139 9.63636L158.139 6.08523Q158.139 5.55611 158.455 5.20987Q158.771 4.86364 159.347 4.86364Q159.794 4.86364 160.124 5.12287Q160.455 5.3821 160.455 5.9858L160.455 9.63636L161.293 9.63636L161.293 5.9858Q161.293 5.02344 160.827 4.56712Q160.362 4.1108 159.631 4.1108Q159.045 4.1108 158.626 4.36115Q158.207 4.61151 157.997 5.03409L157.94 5.03409Q157.738 4.5973 157.377 4.35405Q157.017 4.1108 156.477 4.1108Q155.945 4.1108 155.565 4.35405Q155.185 4.5973 155.014 5.03409L154.943 5.03409L154.943 4.18182L154.134 4.18182ZM165.114 9.75Q164.325 9.75 163.755 9.40021Q163.185 9.05043 162.878 8.4201Q162.571 7.78977 162.571 6.9517Q162.571 6.11364 162.878 5.47266Q163.185 4.83168 163.738 4.47124Q164.29 4.1108 165.028 4.1108Q165.455 4.1108 165.87 4.25284Q166.286 4.39489 166.626 4.71271Q166.967 5.03054 167.17 5.55256Q167.372 6.07457 167.372 6.83807L167.372 7.19318L163.413 7.19318Q163.441 8.06676 163.908 8.53196Q164.375 8.99716 165.114 8.99716Q165.607 8.99716 165.962 8.78409Q166.317 8.57102 166.477 8.14489L167.287 8.37216Q167.095 8.99006 166.52 9.37003Q165.945 9.75 165.114 9.75ZM190.978 9.39844Q191.534 9.75 192.273 9.75Q193.011 9.75 193.567 9.39844Q194.123 9.04688 194.434 8.41477Q194.744 7.78267 194.744 6.9375Q194.744 6.08523 194.434 5.44957Q194.123 4.81392 193.567 4.46236Q193.011 4.1108 192.273 4.1108Q191.534 4.1108 190.978 4.46236Q190.423 4.81392 190.112 5.44957Q189.801 6.08523 189.801 6.9375Q189.801 7.78267 190.112 8.41477Q190.423 9.04688 190.978 9.39844ZM219.288 9.39844Q219.844 9.75 220.582 9.75Q221.321 9.75 221.877 9.39844Q222.433 9.04688 222.743 8.41477Q223.054 7.78267 223.054 6.9375Q223.054 6.08523 222.743 5.44957Q222.433 4.81392 221.877 4.46236Q221.321 4.1108 220.582 4.1108Q219.844 4.1108 219.288 4.46236Q218.732 4.81392 218.422 5.44957Q218.111 6.08523 218.111 6.9375Q218.111 7.78267 218.422 8.41477Q218.732 9.04688 219.288 9.39844ZM237.727 5.40341L236.974 5.61648Q236.864 5.33239 236.605 5.08381Q236.346 4.83523 235.795 4.83523Q235.295 4.83523 234.963 5.06428Q234.631 5.29332 234.631 5.64489Q234.631 5.95739 234.858 6.13849Q235.085 6.3196 235.568 6.44034L236.378 6.6392Q237.827 6.99432 237.827 8.11648Q237.827 8.58523 237.559 8.95455Q237.29 9.32386 236.811 9.53693Q236.332 9.75 235.696 9.75Q234.862 9.75 234.315 9.38778Q233.768 9.02557 233.622 8.32955L234.418 8.13068Q234.641 9.01136 235.682 9.01136Q236.268 9.01136 236.614 8.76101Q236.96 8.51065 236.96 8.15909Q236.96 7.58026 236.151 7.39205L235.241 7.17898Q234.492 7.00142 234.142 6.62678Q233.793 6.25213 233.793 5.6875Q233.793 5.22585 234.054 4.87074Q234.315 4.51563 234.767 4.31321Q235.22 4.1108 235.795 4.1108Q236.605 4.1108 237.069 4.46591Q237.532 4.82102 237.727 5.40341ZM240.02 9.40021Q240.59 9.75 241.378 9.75Q242.209 9.75 242.784 9.37003Q243.359 8.99006 243.551 8.37216L242.742 8.14489Q242.582 8.57102 242.227 8.78409Q241.871 8.99716 241.378 8.99716Q240.639 8.99716 240.172 8.53196Q239.705 8.06676 239.677 7.19318L243.636 7.19318L243.636 6.83807Q243.636 6.07457 243.434 5.55256Q243.232 5.03054 242.891 4.71271Q242.55 4.39489 242.134 4.25284Q241.719 4.1108 241.293 4.1108Q240.554 4.1108 240.002 4.47124Q239.45 4.83168 239.142 5.47266Q238.835 6.11364 238.835 6.9517Q238.835 7.78977 239.142 8.4201Q239.45 9.05043 240.02 9.40021ZM248.778 5.40341L248.026 5.61648Q247.916 5.33239 247.656 5.08381Q247.397 4.83523 246.847 4.83523Q246.346 4.83523 246.014 5.06428Q245.682 5.29332 245.682 5.64489Q245.682 5.95739 245.909 6.13849Q246.136 6.3196 246.619 6.44034L247.429 6.6392Q248.878 6.99432 248.878 8.11648Q248.878 8.58523 248.61 8.95455Q248.342 9.32386 247.862 9.53693Q247.383 9.75 246.747 9.75Q245.913 9.75 245.366 9.38778Q244.819 9.02557 244.673 8.32955L245.469 8.13068Q245.692 9.01136 246.733 9.01136Q247.319 9.01136 247.665 8.76101Q248.011 8.51065 248.011 8.15909Q248.011 7.58026 247.202 7.39205L246.293 7.17898Q245.543 7.00142 245.194 6.62678Q244.844 6.25213 244.844 5.6875Q244.844 5.22585 245.105 4.87074Q245.366 4.51563 245.819 4.31321Q246.271 4.1108 246.847 4.1108Q247.656 4.1108 248.12 4.46591Q248.583 4.82102 248.778 5.40341ZM265.256 9.75Q264.517 9.75 263.961 9.39844Q263.406 9.04688 263.095 8.41477Q262.784 7.78267 262.784 6.9375Q262.784 6.08523 263.095 5.44957Q263.406 4.81392 263.961 4.46236Q264.517 4.1108 265.256 4.1108Q265.994 4.1108 266.55 4.46236Q267.106 4.81392 267.417 5.44957Q267.727 6.08523 267.727 6.9375Q267.727 7.78267 267.417 8.41477Q267.106 9.04688 266.55 9.39844Q265.994 9.75 265.256 9.75ZM269.844 9.63636L269.844 6.35511Q269.844 5.64134 270.24 5.25249Q270.636 4.86364 271.236 4.86364Q271.818 4.86364 272.152 5.22408Q272.486 5.58452 272.486 6.22727L272.486 9.63636L273.324 9.63636L273.324 6.17045Q273.324 5.12642 272.814 4.61861Q272.305 4.1108 271.477 4.1108Q270.859 4.1108 270.469 4.3647Q270.078 4.61861 269.886 5.03409L269.815 5.03409L269.815 4.18182L269.006 4.18182L269.006 9.63636L269.844 9.63636ZM279.158 9.56712Q279.581 9.7642 280.099 9.7642Q280.575 9.7642 280.906 9.62216Q281.236 9.48011 281.435 9.2777Q281.634 9.07528 281.719 8.89773L281.761 8.89773L281.761 9.63636L282.599 9.63636L282.599 6.04261Q282.599 5.39276 282.386 5.00568Q282.173 4.61861 281.852 4.42685Q281.531 4.23509 281.188 4.17294Q280.845 4.1108 280.582 4.1108Q280.17 4.1108 279.746 4.22266Q279.322 4.33452 278.965 4.61328Q278.608 4.89205 278.395 5.3892L279.19 5.6733Q279.329 5.375 279.67 5.11222Q280.011 4.84943 280.611 4.84943Q281.19 4.84943 281.476 5.14063Q281.761 5.43182 281.761 5.95739L281.761 5.9858Q281.761 6.18821 281.618 6.26989Q281.474 6.35156 281.163 6.3853Q280.852 6.41903 280.355 6.48295Q279.975 6.53267 279.601 6.61612Q279.226 6.69957 278.917 6.86648Q278.608 7.03338 278.423 7.32635Q278.239 7.61932 278.239 8.08807Q278.239 8.62074 278.487 8.99538Q278.736 9.37003 279.158 9.56712ZM286.349 9.75Q285.582 9.75 285.028 9.38778Q284.474 9.02557 284.176 8.38992Q283.878 7.75426 283.878 6.9375Q283.878 6.10653 284.185 5.46911Q284.492 4.83168 285.044 4.47124Q285.597 4.1108 286.335 4.1108Q286.911 4.1108 287.372 4.32386Q287.834 4.53693 288.129 4.92045Q288.423 5.30398 288.494 5.81534L287.656 5.81534Q287.56 5.44247 287.232 5.15305Q286.903 4.86364 286.349 4.86364Q285.614 4.86364 285.165 5.42294Q284.716 5.98225 284.716 6.90909Q284.716 7.85724 285.16 8.4272Q285.604 8.99716 286.349 8.99716Q286.84 8.99716 287.189 8.74503Q287.539 8.4929 287.656 8.04545L288.494 8.04545Q288.423 8.52841 288.145 8.91371Q287.866 9.29901 287.409 9.5245Q286.953 9.75 286.349 9.75ZM9.82955 4.18182L9.82955 7.40625Q9.82955 7.91761 9.6076 8.24787Q9.38565 8.57813 9.06072 8.73793Q8.7358 8.89773 8.4233 8.89773Q7.90128 8.89773 7.5657 8.54261Q7.23011 8.1875 7.23011 7.59091L7.23011 4.18182L6.39205 4.18182L6.39205 7.64773Q6.39205 8.69176 6.8892 9.19957Q7.38636 9.70739 8.15341 9.70739Q8.77131 9.70739 9.17614 9.41797Q9.58097 9.12855 9.77273 8.71307L9.82955 8.71307L9.82955 9.63636L10.6676 9.63636L10.6676 4.18182L9.82955 4.18182ZM14.5739 9.63636L14.5739 4.18182L15.4119 4.18182L15.4119 9.63636L14.5739 9.63636ZM199.46 7.40625L199.46 4.18182L200.298 4.18182L200.298 9.63636L199.46 9.63636L199.46 8.71307L199.403 8.71307Q199.212 9.12855 198.807 9.41797Q198.402 9.70739 197.784 9.70739Q197.017 9.70739 196.52 9.19957Q196.023 8.69176 196.023 7.64773L196.023 4.18182L196.861 4.18182L196.861 7.59091Q196.861 8.1875 197.196 8.54261Q197.532 8.89773 198.054 8.89773Q198.366 8.89773 198.691 8.73793Q199.016 8.57813 199.238 8.24787Q199.46 7.91761 199.46 7.40625ZM227.77 7.40625L227.77 4.18182L228.608 4.18182L228.608 9.63636L227.77 9.63636L227.77 8.71307L227.713 8.71307Q227.521 9.12855 227.116 9.41797Q226.712 9.70739 226.094 9.70739Q225.327 9.70739 224.83 9.19957Q224.332 8.69176 224.332 7.64773L224.332 4.18182L225.17 4.18182L225.17 7.59091Q225.17 8.1875 225.506 8.54261Q225.842 8.89773 226.364 8.89773Q226.676 8.89773 227.001 8.73793Q227.326 8.57813 227.548 8.24787Q227.77 7.91761 227.77 7.40625ZM22.9723 6.46875L26.0795 6.46875Q26.0795 5.77628 25.6747 5.31996Q25.2699 4.86364 24.5881 4.86364Q24.1087 4.86364 23.7571 5.08736Q23.4055 5.31108 23.2031 5.67862Q23.0007 6.04617 22.9723 6.46875ZM150.384 8.99716Q150.945 8.99716 151.307 8.70952Q151.669 8.42188 151.843 7.95313Q152.017 7.48438 152.017 6.9375Q152.017 6.39063 151.843 5.91832Q151.669 5.44602 151.307 5.15483Q150.945 4.86364 150.384 4.86364Q149.822 4.86364 149.46 5.15483Q149.098 5.44602 148.924 5.91832Q148.75 6.39063 148.75 6.9375Q148.75 7.48438 148.924 7.95313Q149.098 8.42188 149.46 8.70952Q149.822 8.99716 150.384 8.99716ZM163.413 6.46875L166.52 6.46875Q166.52 5.77628 166.115 5.31996Q165.71 4.86364 165.028 4.86364Q164.549 4.86364 164.197 5.08736Q163.846 5.31108 163.643 5.67862Q163.441 6.04617 163.413 6.46875ZM184.787 6.90909Q184.787 7.83594 185.19 8.41655Q185.593 8.99716 186.349 8.99716Q186.875 8.99716 187.228 8.7184Q187.582 8.43963 187.761 7.96555Q187.94 7.49148 187.94 6.90909Q187.94 6.33381 187.765 5.87038Q187.589 5.40696 187.235 5.1353Q186.882 4.86364 186.349 4.86364Q185.582 4.86364 185.185 5.42827Q184.787 5.9929 184.787 6.90909ZM193.196 8.70952Q192.834 8.99716 192.273 8.99716Q191.712 8.99716 191.349 8.70952Q190.987 8.42188 190.813 7.95313Q190.639 7.48438 190.639 6.9375Q190.639 6.39063 190.813 5.91832Q190.987 5.44602 191.349 5.15483Q191.712 4.86364 192.273 4.86364Q192.834 4.86364 193.196 5.15483Q193.558 5.44602 193.732 5.91832Q193.906 6.39063 193.906 6.9375Q193.906 7.48438 193.732 7.95313Q193.558 8.42188 193.196 8.70952ZM221.506 8.70952Q221.143 8.99716 220.582 8.99716Q220.021 8.99716 219.659 8.70952Q219.297 8.42188 219.123 7.95313Q218.949 7.48438 218.949 6.9375Q218.949 6.39063 219.123 5.91832Q219.297 5.44602 219.659 5.15483Q220.021 4.86364 220.582 4.86364Q221.143 4.86364 221.506 5.15483Q221.868 5.44602 222.042 5.91832Q222.216 6.39063 222.216 6.9375Q222.216 7.48438 222.042 7.95313Q221.868 8.42188 221.506 8.70952ZM242.784 6.46875L239.677 6.46875Q239.705 6.04617 239.908 5.67862Q240.11 5.31108 240.462 5.08736Q240.813 4.86364 241.293 4.86364Q241.974 4.86364 242.379 5.31996Q242.784 5.77628 242.784 6.46875ZM265.256 8.99716Q265.817 8.99716 266.179 8.70952Q266.541 8.42188 266.715 7.95313Q266.889 7.48438 266.889 6.9375Q266.889 6.39063 266.715 5.91832Q266.541 5.44602 266.179 5.15483Q265.817 4.86364 265.256 4.86364Q264.695 4.86364 264.332 5.15483Q263.97 5.44602 263.796 5.91832Q263.622 6.39063 263.622 6.9375Q263.622 7.48438 263.796 7.95313Q263.97 8.42188 264.332 8.70952Q264.695 8.99716 265.256 8.99716ZM281.067 8.81605Q280.724 9.01136 280.227 9.01136Q279.727 9.01136 279.402 8.78942Q279.077 8.56747 279.077 8.13068Q279.077 7.81108 279.249 7.62465Q279.421 7.43821 279.703 7.34411Q279.986 7.25 280.313 7.20739Q280.447 7.18963 280.666 7.163Q280.884 7.13636 281.117 7.09908Q281.349 7.06179 281.529 7.0103Q281.708 6.95881 281.761 6.89489L281.761 7.66193Q281.761 8.00284 281.586 8.31179Q281.41 8.62074 281.067 8.81605Z" />
    </g>
    <path d="M301.6 9L342.6 9L342.6 27L301.6 27L301.6 9Z" id="Rectangle-2" fill="#EFEFEF" fill-rule="evenodd" stroke="#000000" stroke-width="0.5" />
    <g id="Sign-in" transform="translate(307.60034 11)">
      <path d="M6.43519 2.89524Q6.5934 3.04545 6.81392 3.04545Q7.03445 3.04545 7.19265 2.89524Q7.35085 2.74503 7.35085 2.53409Q7.35085 2.32315 7.19265 2.17294Q7.03445 2.02273 6.81392 2.02273Q6.5934 2.02273 6.43519 2.17294Q6.27699 2.32315 6.27699 2.53409Q6.27699 2.74503 6.43519 2.89524ZM22.2315 3.04545Q22.011 3.04545 21.8528 2.89524Q21.6946 2.74503 21.6946 2.53409Q21.6946 2.32315 21.8528 2.17294Q22.011 2.02273 22.2315 2.02273Q22.4521 2.02273 22.6103 2.17294Q22.7685 2.32315 22.7685 2.53409Q22.7685 2.74503 22.6103 2.89524Q22.4521 3.04545 22.2315 3.04545ZM3.90554 3.10937Q4.31463 3.37784 4.37216 3.86364L5.1392 3.86364Q5.12322 3.36825 4.83398 2.97834Q4.54474 2.58842 4.05256 2.3631Q3.56037 2.13778 2.92756 2.13778Q2.30114 2.13778 1.79457 2.3663Q1.288 2.59482 0.989169 3.0055Q0.690341 3.41619 0.690341 3.96591Q0.690341 4.62749 1.13778 5.03658Q1.58523 5.44567 2.35227 5.66619L3.15767 5.89631Q3.50284 5.99219 3.80007 6.12003Q4.0973 6.24787 4.27947 6.45241Q4.46165 6.65696 4.46165 6.98295Q4.46165 7.34091 4.25071 7.60778Q4.03977 7.87464 3.67862 8.02326Q3.31747 8.17188 2.86364 8.17188Q2.47372 8.17188 2.13654 8.05522Q1.79936 7.93857 1.58043 7.69727Q1.36151 7.45597 1.32955 7.08523L0.511364 7.08523Q0.568892 7.89063 1.18892 8.3892Q1.80895 8.88778 2.86364 8.88778Q3.6179 8.88778 4.14684 8.6353Q4.67578 8.38281 4.95224 7.95455Q5.22869 7.52628 5.22869 6.99574Q5.22869 6.53551 5.04013 6.2191Q4.85156 5.9027 4.56232 5.69975Q4.27308 5.4968 3.95827 5.37855Q3.64347 5.2603 3.38778 5.19318L2.72301 5.0142Q2.48011 4.95028 2.18448 4.83043Q1.88885 4.71058 1.67312 4.49485Q1.45739 4.27912 1.45739 3.92756Q1.45739 3.45774 1.85369 3.14932Q2.25 2.84091 2.90199 2.84091Q3.49645 2.84091 3.90554 3.10937ZM10.5469 10.7159Q9.7255 10.7159 9.24769 10.4171Q8.76989 10.1183 8.53977 9.73153L9.14063 9.30966Q9.2429 9.44389 9.3995 9.61808Q9.55611 9.79226 9.82937 9.9217Q10.1026 10.0511 10.5469 10.0511Q11.1413 10.0511 11.5281 9.76349Q11.9148 9.47585 11.9148 8.86222L11.9148 7.86506L11.8509 7.86506Q11.7678 7.99929 11.6159 8.19584Q11.4641 8.3924 11.1813 8.54421Q10.8984 8.69602 10.419 8.69602Q9.82457 8.69602 9.35316 8.41477Q8.88175 8.13352 8.60849 7.59659Q8.33523 7.05966 8.33523 6.29261Q8.33523 5.53835 8.6005 4.97745Q8.86577 4.41655 9.33878 4.10813Q9.81179 3.79972 10.4318 3.79972Q10.9112 3.79972 11.1941 3.95792Q11.4769 4.11612 11.6287 4.31587Q11.7805 4.51562 11.8636 4.64347L11.9403 4.64347L11.9403 3.86364L12.669 3.86364L12.669 8.91335Q12.669 9.54616 12.383 9.94407Q12.0969 10.342 11.6159 10.5289Q11.1349 10.7159 10.5469 10.7159ZM14.804 8.77273L14.804 5.8196Q14.804 5.1772 15.1603 4.82724Q15.5167 4.47727 16.0568 4.47727Q16.581 4.47727 16.8814 4.80167Q17.1818 5.12607 17.1818 5.70455L17.1818 8.77273L17.9361 8.77273L17.9361 5.65341Q17.9361 4.71378 17.4775 4.25675Q17.0188 3.79972 16.2741 3.79972Q15.718 3.79972 15.3665 4.02823Q15.0149 4.25675 14.8423 4.63068L14.7784 4.63068L14.7784 3.86364L14.0497 3.86364L14.0497 8.77273L14.804 8.77273ZM24.7372 8.77273L24.7372 5.8196Q24.7372 5.1772 25.0936 4.82724Q25.4499 4.47727 25.9901 4.47727Q26.5142 4.47727 26.8146 4.80167Q27.1151 5.12607 27.1151 5.70455L27.1151 8.77273L27.8693 8.77273L27.8693 5.65341Q27.8693 4.71378 27.4107 4.25675Q26.9521 3.79972 26.2074 3.79972Q25.6513 3.79972 25.2997 4.02823Q24.9482 4.25675 24.7756 4.63068L24.7116 4.63068L24.7116 3.86364L23.983 3.86364L23.983 8.77273L24.7372 8.77273ZM6.4304 3.86364L6.4304 8.77273L7.18466 8.77273L7.18466 3.86364L6.4304 3.86364ZM21.848 8.77273L21.848 3.86364L22.6023 3.86364L22.6023 8.77273L21.848 8.77273ZM10.5213 8.01847Q11.2021 8.01847 11.5648 7.55664Q11.9276 7.09482 11.9276 6.27983Q11.9276 5.48402 11.5696 4.98065Q11.2116 4.47727 10.5213 4.47727Q10.0419 4.47727 9.7239 4.72017Q9.4059 4.96307 9.24769 5.37216Q9.08949 5.78125 9.08949 6.27983Q9.08949 7.04687 9.45064 7.53267Q9.81179 8.01847 10.5213 8.01847Z" />
    </g>
  </g>
</svg>