<svg width="332" height="201" viewBox="0 0 332 201" fill="none" xmlns="http://www.w3.org/2000/svg">
<g clip-path="url(#clip0_733_114)">
<rect width="332" height="201" fill="#F8F8F8"/>
<rect x="46" y="86" width="252" height="29" rx="6" fill="#0556F3"/>
<path d="M81.4907 98.36C81.7227 98.056 82.0387 97.8 82.4387 97.592C82.8387 97.384 83.2907 97.28 83.7947 97.28C84.3707 97.28 84.8947 97.424 85.3667 97.712C85.8467 97.992 86.2227 98.388 86.4947 98.9C86.7667 99.412 86.9027 100 86.9027 100.664C86.9027 101.328 86.7667 101.924 86.4947 102.452C86.2227 102.972 85.8467 103.38 85.3667 103.676C84.8947 103.964 84.3707 104.108 83.7947 104.108C83.2907 104.108 82.8427 104.008 82.4507 103.808C82.0587 103.6 81.7387 103.344 81.4907 103.04V107.144H80.1227V97.388H81.4907V98.36ZM85.5107 100.664C85.5107 100.208 85.4147 99.816 85.2227 99.488C85.0387 99.152 84.7907 98.9 84.4787 98.732C84.1747 98.556 83.8467 98.468 83.4947 98.468C83.1507 98.468 82.8227 98.556 82.5107 98.732C82.2067 98.908 81.9587 99.164 81.7667 99.5C81.5827 99.836 81.4907 100.232 81.4907 100.688C81.4907 101.144 81.5827 101.544 81.7667 101.888C81.9587 102.224 82.2067 102.48 82.5107 102.656C82.8227 102.832 83.1507 102.92 83.4947 102.92C83.8467 102.92 84.1747 102.832 84.4787 102.656C84.7907 102.472 85.0387 102.208 85.2227 101.864C85.4147 101.52 85.5107 101.12 85.5107 100.664ZM91.9847 98.996C92.3687 98.956 92.6607 98.84 92.8607 98.648C93.0687 98.456 93.1727 98.204 93.1727 97.892C93.1727 97.604 93.1407 97.076 93.0767 96.308C93.0047 95.588 92.9687 95.012 92.9687 94.58C92.9687 94.012 93.1327 93.568 93.4607 93.248C93.7967 92.928 94.2367 92.768 94.7807 92.768H95.5847V93.956H95.0567C94.8007 93.956 94.6087 94.016 94.4807 94.136C94.3607 94.248 94.3007 94.432 94.3007 94.688C94.3007 94.88 94.3127 95.136 94.3367 95.456C94.3607 95.776 94.3767 96.004 94.3847 96.14C94.4567 96.876 94.4927 97.476 94.4927 97.94C94.4927 98.348 94.3887 98.688 94.1807 98.96C93.9807 99.232 93.6687 99.412 93.2447 99.5V99.524C93.6687 99.612 93.9807 99.792 94.1807 100.064C94.3887 100.336 94.4927 100.676 94.4927 101.084C94.4927 101.548 94.4567 102.148 94.3847 102.884C94.3767 103.02 94.3607 103.248 94.3367 103.568C94.3127 103.888 94.3007 104.144 94.3007 104.336C94.3007 104.592 94.3607 104.776 94.4807 104.888C94.6087 105.008 94.8007 105.068 95.0567 105.068H95.5847V106.256H94.7807C94.2367 106.256 93.7967 106.096 93.4607 105.776C93.1327 105.456 92.9687 105.012 92.9687 104.444C92.9687 104.012 93.0047 103.436 93.0767 102.716C93.1407 101.948 93.1727 101.42 93.1727 101.132C93.1727 100.82 93.0687 100.568 92.8607 100.376C92.6607 100.184 92.3687 100.068 91.9847 100.028V98.996ZM100.221 100.688C100.221 100.008 100.357 99.412 100.629 98.9C100.909 98.38 101.293 97.98 101.781 97.7C102.269 97.42 102.829 97.28 103.461 97.28C104.261 97.28 104.921 97.472 105.441 97.856C105.969 98.232 106.325 98.772 106.509 99.476H105.033C104.913 99.148 104.721 98.892 104.457 98.708C104.193 98.524 103.861 98.432 103.461 98.432C102.901 98.432 102.453 98.632 102.117 99.032C101.789 99.424 101.625 99.976 101.625 100.688C101.625 101.4 101.789 101.956 102.117 102.356C102.453 102.756 102.901 102.956 103.461 102.956C104.253 102.956 104.777 102.608 105.033 101.912H106.509C106.317 102.584 105.957 103.12 105.429 103.52C104.901 103.912 104.245 104.108 103.461 104.108C102.829 104.108 102.269 103.968 101.781 103.688C101.293 103.4 100.909 103 100.629 102.488C100.357 101.968 100.221 101.368 100.221 100.688ZM110.741 104.108C110.117 104.108 109.553 103.968 109.049 103.688C108.545 103.4 108.149 103 107.861 102.488C107.573 101.968 107.429 101.368 107.429 100.688C107.429 100.016 107.577 99.42 107.873 98.9C108.169 98.38 108.573 97.98 109.085 97.7C109.597 97.42 110.169 97.28 110.801 97.28C111.433 97.28 112.005 97.42 112.517 97.7C113.029 97.98 113.433 98.38 113.729 98.9C114.025 99.42 114.173 100.016 114.173 100.688C114.173 101.36 114.021 101.956 113.717 102.476C113.413 102.996 112.997 103.4 112.469 103.688C111.949 103.968 111.373 104.108 110.741 104.108ZM110.741 102.92C111.093 102.92 111.421 102.836 111.725 102.668C112.037 102.5 112.289 102.248 112.481 101.912C112.673 101.576 112.769 101.168 112.769 100.688C112.769 100.208 112.677 99.804 112.493 99.476C112.309 99.14 112.065 98.888 111.761 98.72C111.457 98.552 111.129 98.468 110.777 98.468C110.425 98.468 110.097 98.552 109.793 98.72C109.497 98.888 109.261 99.14 109.085 99.476C108.909 99.804 108.821 100.208 108.821 100.688C108.821 101.4 109.001 101.952 109.361 102.344C109.729 102.728 110.189 102.92 110.741 102.92ZM116.893 95.12V104H115.525V95.12H116.893ZM121.557 104.108C120.933 104.108 120.369 103.968 119.865 103.688C119.361 103.4 118.965 103 118.677 102.488C118.389 101.968 118.245 101.368 118.245 100.688C118.245 100.016 118.393 99.42 118.689 98.9C118.985 98.38 119.389 97.98 119.901 97.7C120.413 97.42 120.985 97.28 121.617 97.28C122.249 97.28 122.821 97.42 123.333 97.7C123.845 97.98 124.249 98.38 124.545 98.9C124.841 99.42 124.989 100.016 124.989 100.688C124.989 101.36 124.837 101.956 124.533 102.476C124.229 102.996 123.813 103.4 123.285 103.688C122.765 103.968 122.189 104.108 121.557 104.108ZM121.557 102.92C121.909 102.92 122.237 102.836 122.541 102.668C122.853 102.5 123.105 102.248 123.297 101.912C123.489 101.576 123.585 101.168 123.585 100.688C123.585 100.208 123.493 99.804 123.309 99.476C123.125 99.14 122.881 98.888 122.577 98.72C122.273 98.552 121.945 98.468 121.593 98.468C121.241 98.468 120.913 98.552 120.609 98.72C120.313 98.888 120.077 99.14 119.901 99.476C119.725 99.804 119.637 100.208 119.637 100.688C119.637 101.4 119.817 101.952 120.177 102.344C120.545 102.728 121.005 102.92 121.557 102.92ZM127.709 98.348C127.909 98.012 128.173 97.752 128.501 97.568C128.837 97.376 129.233 97.28 129.689 97.28V98.696H129.341C128.805 98.696 128.397 98.832 128.117 99.104C127.845 99.376 127.709 99.848 127.709 100.52V104H126.341V97.388H127.709V98.348ZM134.616 104.084C134.368 104.084 134.16 104 133.992 103.832C133.824 103.664 133.74 103.456 133.74 103.208C133.74 102.96 133.824 102.752 133.992 102.584C134.16 102.416 134.368 102.332 134.616 102.332C134.856 102.332 135.06 102.416 135.228 102.584C135.396 102.752 135.48 102.96 135.48 103.208C135.48 103.456 135.396 103.664 135.228 103.832C135.06 104 134.856 104.084 134.616 104.084ZM134.616 99.044C134.368 99.044 134.16 98.96 133.992 98.792C133.824 98.624 133.74 98.416 133.74 98.168C133.74 97.92 133.824 97.712 133.992 97.544C134.16 97.376 134.368 97.292 134.616 97.292C134.856 97.292 135.06 97.376 135.228 97.544C135.396 97.712 135.48 97.92 135.48 98.168C135.48 98.416 135.396 98.624 135.228 98.792C135.06 98.96 134.856 99.044 134.616 99.044ZM141.491 98.348C141.691 98.012 141.955 97.752 142.283 97.568C142.619 97.376 143.015 97.28 143.471 97.28V98.696H143.123C142.587 98.696 142.179 98.832 141.899 99.104C141.627 99.376 141.491 99.848 141.491 100.52V104H140.123V97.388H141.491V98.348ZM150.788 100.532C150.788 100.78 150.772 101.004 150.74 101.204H145.688C145.728 101.732 145.924 102.156 146.276 102.476C146.628 102.796 147.06 102.956 147.572 102.956C148.308 102.956 148.828 102.648 149.132 102.032H150.608C150.408 102.64 150.044 103.14 149.516 103.532C148.996 103.916 148.348 104.108 147.572 104.108C146.94 104.108 146.372 103.968 145.868 103.688C145.372 103.4 144.98 103 144.692 102.488C144.412 101.968 144.272 101.368 144.272 100.688C144.272 100.008 144.408 99.412 144.68 98.9C144.96 98.38 145.348 97.98 145.844 97.7C146.348 97.42 146.924 97.28 147.572 97.28C148.196 97.28 148.752 97.416 149.24 97.688C149.728 97.96 150.108 98.344 150.38 98.84C150.652 99.328 150.788 99.892 150.788 100.532ZM149.36 100.1C149.352 99.596 149.172 99.192 148.82 98.888C148.468 98.584 148.032 98.432 147.512 98.432C147.04 98.432 146.636 98.584 146.3 98.888C145.964 99.184 145.764 99.588 145.7 100.1H149.36ZM151.678 100.664C151.678 100 151.814 99.412 152.086 98.9C152.366 98.388 152.742 97.992 153.214 97.712C153.694 97.424 154.226 97.28 154.81 97.28C155.242 97.28 155.666 97.376 156.082 97.568C156.506 97.752 156.842 98 157.09 98.312V95.12H158.47V104H157.09V103.004C156.866 103.324 156.554 103.588 156.154 103.796C155.762 104.004 155.31 104.108 154.798 104.108C154.222 104.108 153.694 103.964 153.214 103.676C152.742 103.38 152.366 102.972 152.086 102.452C151.814 101.924 151.678 101.328 151.678 100.664ZM157.09 100.688C157.09 100.232 156.994 99.836 156.802 99.5C156.618 99.164 156.374 98.908 156.07 98.732C155.766 98.556 155.438 98.468 155.086 98.468C154.734 98.468 154.406 98.556 154.102 98.732C153.798 98.9 153.55 99.152 153.358 99.488C153.174 99.816 153.082 100.208 153.082 100.664C153.082 101.12 153.174 101.52 153.358 101.864C153.55 102.208 153.798 102.472 154.102 102.656C154.414 102.832 154.742 102.92 155.086 102.92C155.438 102.92 155.766 102.832 156.07 102.656C156.374 102.48 156.618 102.224 156.802 101.888C156.994 101.544 157.09 101.144 157.09 100.688ZM161.083 99.044C160.835 99.044 160.627 98.96 160.459 98.792C160.291 98.624 160.207 98.416 160.207 98.168C160.207 97.92 160.291 97.712 160.459 97.544C160.627 97.376 160.835 97.292 161.083 97.292C161.323 97.292 161.527 97.376 161.695 97.544C161.863 97.712 161.947 97.92 161.947 98.168C161.947 98.416 161.863 98.624 161.695 98.792C161.527 98.96 161.323 99.044 161.083 99.044ZM162.091 102.356L160.639 105.668H159.751L160.603 102.356H162.091ZM169.801 98.504H168.577V104H167.197V98.504H166.417V97.388H167.197V96.92C167.197 96.16 167.397 95.608 167.797 95.264C168.205 94.912 168.841 94.736 169.705 94.736V95.876C169.289 95.876 168.997 95.956 168.829 96.116C168.661 96.268 168.577 96.536 168.577 96.92V97.388H169.801V98.504ZM173.881 104.108C173.257 104.108 172.693 103.968 172.189 103.688C171.685 103.4 171.289 103 171.001 102.488C170.713 101.968 170.569 101.368 170.569 100.688C170.569 100.016 170.717 99.42 171.013 98.9C171.309 98.38 171.713 97.98 172.225 97.7C172.737 97.42 173.309 97.28 173.941 97.28C174.573 97.28 175.145 97.42 175.657 97.7C176.169 97.98 176.573 98.38 176.869 98.9C177.165 99.42 177.313 100.016 177.313 100.688C177.313 101.36 177.161 101.956 176.857 102.476C176.553 102.996 176.137 103.4 175.609 103.688C175.089 103.968 174.513 104.108 173.881 104.108ZM173.881 102.92C174.233 102.92 174.561 102.836 174.865 102.668C175.177 102.5 175.429 102.248 175.621 101.912C175.813 101.576 175.909 101.168 175.909 100.688C175.909 100.208 175.817 99.804 175.633 99.476C175.449 99.14 175.205 98.888 174.901 98.72C174.597 98.552 174.269 98.468 173.917 98.468C173.565 98.468 173.237 98.552 172.933 98.72C172.637 98.888 172.401 99.14 172.225 99.476C172.049 99.804 171.961 100.208 171.961 100.688C171.961 101.4 172.141 101.952 172.501 102.344C172.869 102.728 173.329 102.92 173.881 102.92ZM182.002 97.28C182.522 97.28 182.986 97.388 183.394 97.604C183.81 97.82 184.134 98.14 184.366 98.564C184.598 98.988 184.714 99.5 184.714 100.1V104H183.358V100.304C183.358 99.712 183.21 99.26 182.914 98.948C182.618 98.628 182.214 98.468 181.702 98.468C181.19 98.468 180.782 98.628 180.478 98.948C180.182 99.26 180.034 99.712 180.034 100.304V104H178.666V97.388H180.034V98.144C180.258 97.872 180.542 97.66 180.886 97.508C181.238 97.356 181.61 97.28 182.002 97.28ZM188.055 98.504V102.164C188.055 102.412 188.111 102.592 188.223 102.704C188.343 102.808 188.543 102.86 188.823 102.86H189.663V104H188.583C187.967 104 187.495 103.856 187.167 103.568C186.839 103.28 186.675 102.812 186.675 102.164V98.504H185.895V97.388H186.675V95.744H188.055V97.388H189.663V98.504H188.055ZM195.999 99.08V100.232H191.067V99.08H195.999ZM200.343 104.108C199.823 104.108 199.355 104.016 198.939 103.832C198.531 103.64 198.207 103.384 197.967 103.064C197.727 102.736 197.599 102.372 197.583 101.972H198.999C199.023 102.252 199.155 102.488 199.395 102.68C199.643 102.864 199.951 102.956 200.319 102.956C200.703 102.956 200.999 102.884 201.207 102.74C201.423 102.588 201.531 102.396 201.531 102.164C201.531 101.916 201.411 101.732 201.171 101.612C200.939 101.492 200.567 101.36 200.055 101.216C199.559 101.08 199.155 100.948 198.843 100.82C198.531 100.692 198.259 100.496 198.027 100.232C197.803 99.968 197.691 99.62 197.691 99.188C197.691 98.836 197.795 98.516 198.003 98.228C198.211 97.932 198.507 97.7 198.891 97.532C199.283 97.364 199.731 97.28 200.235 97.28C200.987 97.28 201.591 97.472 202.047 97.856C202.511 98.232 202.759 98.748 202.791 99.404H201.423C201.399 99.108 201.279 98.872 201.063 98.696C200.847 98.52 200.555 98.432 200.187 98.432C199.827 98.432 199.551 98.5 199.359 98.636C199.167 98.772 199.071 98.952 199.071 99.176C199.071 99.352 199.135 99.5 199.263 99.62C199.391 99.74 199.547 99.836 199.731 99.908C199.915 99.972 200.187 100.056 200.547 100.16C201.027 100.288 201.419 100.42 201.723 100.556C202.035 100.684 202.303 100.876 202.527 101.132C202.751 101.388 202.867 101.728 202.875 102.152C202.875 102.528 202.771 102.864 202.563 103.16C202.355 103.456 202.059 103.688 201.675 103.856C201.299 104.024 200.855 104.108 200.343 104.108ZM205.049 96.512C204.801 96.512 204.593 96.428 204.425 96.26C204.257 96.092 204.173 95.884 204.173 95.636C204.173 95.388 204.257 95.18 204.425 95.012C204.593 94.844 204.801 94.76 205.049 94.76C205.289 94.76 205.493 94.844 205.661 95.012C205.829 95.18 205.913 95.388 205.913 95.636C205.913 95.884 205.829 96.092 205.661 96.26C205.493 96.428 205.289 96.512 205.049 96.512ZM205.721 97.388V104H204.353V97.388H205.721ZM208.729 102.884H211.729V104H207.145V102.884L210.157 98.504H207.145V97.388H211.729V98.504L208.729 102.884ZM219.226 100.532C219.226 100.78 219.21 101.004 219.178 101.204H214.126C214.166 101.732 214.362 102.156 214.714 102.476C215.066 102.796 215.498 102.956 216.01 102.956C216.746 102.956 217.266 102.648 217.57 102.032H219.046C218.846 102.64 218.482 103.14 217.954 103.532C217.434 103.916 216.786 104.108 216.01 104.108C215.378 104.108 214.81 103.968 214.306 103.688C213.81 103.4 213.418 103 213.13 102.488C212.85 101.968 212.71 101.368 212.71 100.688C212.71 100.008 212.846 99.412 213.118 98.9C213.398 98.38 213.786 97.98 214.282 97.7C214.786 97.42 215.362 97.28 216.01 97.28C216.634 97.28 217.19 97.416 217.678 97.688C218.166 97.96 218.546 98.344 218.818 98.84C219.09 99.328 219.226 99.892 219.226 100.532ZM217.798 100.1C217.79 99.596 217.61 99.192 217.258 98.888C216.906 98.584 216.47 98.432 215.95 98.432C215.478 98.432 215.074 98.584 214.738 98.888C214.402 99.184 214.202 99.588 214.138 100.1H217.798ZM224.241 104.084C223.993 104.084 223.785 104 223.617 103.832C223.449 103.664 223.365 103.456 223.365 103.208C223.365 102.96 223.449 102.752 223.617 102.584C223.785 102.416 223.993 102.332 224.241 102.332C224.481 102.332 224.685 102.416 224.853 102.584C225.021 102.752 225.105 102.96 225.105 103.208C225.105 103.456 225.021 103.664 224.853 103.832C224.685 104 224.481 104.084 224.241 104.084ZM224.241 99.044C223.993 99.044 223.785 98.96 223.617 98.792C223.449 98.624 223.365 98.416 223.365 98.168C223.365 97.92 223.449 97.712 223.617 97.544C223.785 97.376 223.993 97.292 224.241 97.292C224.481 97.292 224.685 97.376 224.853 97.544C225.021 97.712 225.105 97.92 225.105 98.168C225.105 98.416 225.021 98.624 224.853 98.792C224.685 98.96 224.481 99.044 224.241 99.044ZM229.388 96.5V95.252H231.884V104H230.504V96.5H229.388ZM239.403 96.428H235.383V98.816C235.551 98.592 235.799 98.404 236.127 98.252C236.463 98.1 236.819 98.024 237.195 98.024C237.867 98.024 238.411 98.168 238.827 98.456C239.251 98.744 239.551 99.108 239.727 99.548C239.911 99.988 240.003 100.452 240.003 100.94C240.003 101.532 239.887 102.06 239.655 102.524C239.431 102.98 239.091 103.34 238.635 103.604C238.187 103.868 237.635 104 236.979 104C236.107 104 235.407 103.784 234.879 103.352C234.351 102.92 234.035 102.348 233.931 101.636H235.263C235.351 102.012 235.547 102.312 235.851 102.536C236.155 102.752 236.535 102.86 236.991 102.86C237.559 102.86 237.983 102.688 238.263 102.344C238.551 102 238.695 101.544 238.695 100.976C238.695 100.4 238.551 99.96 238.263 99.656C237.975 99.344 237.551 99.188 236.991 99.188C236.599 99.188 236.267 99.288 235.995 99.488C235.731 99.68 235.539 99.944 235.419 100.28H234.123V95.228H239.403V96.428ZM242.975 98.36C243.207 98.056 243.523 97.8 243.923 97.592C244.323 97.384 244.775 97.28 245.279 97.28C245.855 97.28 246.379 97.424 246.851 97.712C247.331 97.992 247.707 98.388 247.979 98.9C248.251 99.412 248.387 100 248.387 100.664C248.387 101.328 248.251 101.924 247.979 102.452C247.707 102.972 247.331 103.38 246.851 103.676C246.379 103.964 245.855 104.108 245.279 104.108C244.775 104.108 244.327 104.008 243.935 103.808C243.543 103.6 243.223 103.344 242.975 103.04V107.144H241.607V97.388H242.975V98.36ZM246.995 100.664C246.995 100.208 246.899 99.816 246.707 99.488C246.523 99.152 246.275 98.9 245.963 98.732C245.659 98.556 245.331 98.468 244.979 98.468C244.635 98.468 244.307 98.556 243.995 98.732C243.691 98.908 243.443 99.164 243.251 99.5C243.067 99.836 242.975 100.232 242.975 100.688C242.975 101.144 243.067 101.544 243.251 101.888C243.443 102.224 243.691 102.48 243.995 102.656C244.307 102.832 244.635 102.92 244.979 102.92C245.331 102.92 245.659 102.832 245.963 102.656C246.275 102.472 246.523 102.208 246.707 101.864C246.899 101.52 246.995 101.12 246.995 100.664ZM252.572 100.652L254.708 104H253.16L251.732 101.756L250.388 104H248.96L251.096 100.748L248.96 97.388H250.508L251.936 99.632L253.28 97.388H254.708L252.572 100.652ZM256.544 99.044C256.296 99.044 256.088 98.96 255.92 98.792C255.752 98.624 255.668 98.416 255.668 98.168C255.668 97.92 255.752 97.712 255.92 97.544C256.088 97.376 256.296 97.292 256.544 97.292C256.784 97.292 256.988 97.376 257.156 97.544C257.324 97.712 257.408 97.92 257.408 98.168C257.408 98.416 257.324 98.624 257.156 98.792C256.988 98.96 256.784 99.044 256.544 99.044ZM257.552 102.356L256.1 105.668H255.212L256.064 102.356H257.552ZM266.27 100.028C265.886 100.068 265.59 100.184 265.382 100.376C265.182 100.568 265.082 100.82 265.082 101.132C265.082 101.42 265.114 101.948 265.178 102.716C265.25 103.436 265.286 104.012 265.286 104.444C265.286 105.012 265.118 105.456 264.782 105.776C264.454 106.096 264.018 106.256 263.474 106.256H262.67V105.068H263.198C263.454 105.068 263.642 105.008 263.762 104.888C263.89 104.776 263.954 104.592 263.954 104.336C263.954 104.144 263.942 103.888 263.918 103.568C263.894 103.248 263.878 103.02 263.87 102.884C263.798 102.148 263.762 101.548 263.762 101.084C263.762 100.676 263.862 100.336 264.062 100.064C264.27 99.792 264.586 99.612 265.01 99.524V99.5C264.586 99.412 264.27 99.232 264.062 98.96C263.862 98.688 263.762 98.348 263.762 97.94C263.762 97.476 263.798 96.876 263.87 96.14C263.878 96.004 263.894 95.776 263.918 95.456C263.942 95.136 263.954 94.88 263.954 94.688C263.954 94.432 263.89 94.248 263.762 94.136C263.642 94.016 263.454 93.956 263.198 93.956H262.67V92.768H263.474C264.018 92.768 264.454 92.928 264.782 93.248C265.118 93.568 265.286 94.012 265.286 94.58C265.286 95.012 265.25 95.588 265.178 96.308C265.114 97.076 265.082 97.604 265.082 97.892C265.082 98.204 265.182 98.456 265.382 98.648C265.59 98.84 265.886 98.956 266.27 98.996V100.028Z" fill="white"/>
<path d="M173.5 77C173.5 77.2761 173.724 77.5 174 77.5H178.5C178.776 77.5 179 77.2761 179 77C179 76.7239 178.776 76.5 178.5 76.5H174.5V72.5C174.5 72.2239 174.276 72 174 72C173.724 72 173.5 72.2239 173.5 72.5V77ZM200.646 49.6464L173.646 76.6464L174.354 77.3536L201.354 50.3536L200.646 49.6464Z" fill="black"/>
<g filter="url(#filter0_d_733_114)">
<rect x="209" y="12" width="72" height="39" rx="6" fill="white"/>
</g>
<path d="M224.01 23.44C224.602 23.44 225.119 23.5547 225.562 23.784C226.01 24.008 226.354 24.3333 226.594 24.76C226.839 25.1813 226.962 25.6747 226.962 26.24C226.962 26.8053 226.839 27.296 226.594 27.712C226.354 28.128 226.01 28.448 225.562 28.672C225.119 28.8907 224.602 29 224.01 29H222.194V23.44H224.01ZM224.01 28.256C224.66 28.256 225.159 28.08 225.506 27.728C225.852 27.376 226.026 26.88 226.026 26.24C226.026 25.5947 225.852 25.0907 225.506 24.728C225.159 24.3653 224.66 24.184 224.01 24.184H223.106V28.256H224.01ZM231.906 26.688C231.906 26.8533 231.895 27.0027 231.874 27.136H228.506C228.532 27.488 228.663 27.7707 228.898 27.984C229.132 28.1973 229.42 28.304 229.762 28.304C230.252 28.304 230.599 28.0987 230.802 27.688H231.786C231.652 28.0933 231.41 28.4267 231.058 28.688C230.711 28.944 230.279 29.072 229.762 29.072C229.34 29.072 228.962 28.9787 228.626 28.792C228.295 28.6 228.034 28.3333 227.842 27.992C227.655 27.6453 227.562 27.2453 227.562 26.792C227.562 26.3387 227.652 25.9413 227.834 25.6C228.02 25.2533 228.279 24.9867 228.61 24.8C228.946 24.6133 229.33 24.52 229.762 24.52C230.178 24.52 230.548 24.6107 230.874 24.792C231.199 24.9733 231.452 25.2293 231.634 25.56C231.815 25.8853 231.906 26.2613 231.906 26.688ZM230.954 26.4C230.948 26.064 230.828 25.7947 230.594 25.592C230.359 25.3893 230.068 25.288 229.722 25.288C229.407 25.288 229.138 25.3893 228.914 25.592C228.69 25.7893 228.556 26.0587 228.514 26.4H230.954ZM232.499 26.792C232.499 26.3387 232.59 25.9413 232.771 25.6C232.958 25.2533 233.214 24.9867 233.539 24.8C233.864 24.6133 234.238 24.52 234.659 24.52C235.192 24.52 235.632 24.648 235.979 24.904C236.331 25.1547 236.568 25.5147 236.691 25.984H235.707C235.627 25.7653 235.499 25.5947 235.323 25.472C235.147 25.3493 234.926 25.288 234.659 25.288C234.286 25.288 233.987 25.4213 233.763 25.688C233.544 25.9493 233.435 26.3173 233.435 26.792C233.435 27.2667 233.544 27.6373 233.763 27.904C233.987 28.1707 234.286 28.304 234.659 28.304C235.187 28.304 235.536 28.072 235.707 27.608H236.691C236.563 28.056 236.323 28.4133 235.971 28.68C235.619 28.9413 235.182 29.072 234.659 29.072C234.238 29.072 233.864 28.9787 233.539 28.792C233.214 28.6 232.958 28.3333 232.771 27.992C232.59 27.6453 232.499 27.2453 232.499 26.792ZM238.512 23.08V29H237.6V23.08H238.512ZM239.405 26.776C239.405 26.3333 239.496 25.9413 239.677 25.6C239.864 25.2587 240.115 24.9947 240.429 24.808C240.749 24.616 241.101 24.52 241.485 24.52C241.832 24.52 242.133 24.5893 242.389 24.728C242.651 24.8613 242.859 25.0293 243.013 25.232V24.592H243.933V29H243.013V28.344C242.859 28.552 242.648 28.7253 242.381 28.864C242.115 29.0027 241.811 29.072 241.469 29.072C241.091 29.072 240.744 28.976 240.429 28.784C240.115 28.5867 239.864 28.3147 239.677 27.968C239.496 27.616 239.405 27.2187 239.405 26.776ZM243.013 26.792C243.013 26.488 242.949 26.224 242.821 26C242.699 25.776 242.536 25.6053 242.333 25.488C242.131 25.3707 241.912 25.312 241.677 25.312C241.443 25.312 241.224 25.3707 241.021 25.488C240.819 25.6 240.653 25.768 240.525 25.992C240.403 26.2107 240.341 26.472 240.341 26.776C240.341 27.08 240.403 27.3467 240.525 27.576C240.653 27.8053 240.819 27.9813 241.021 28.104C241.229 28.2213 241.448 28.28 241.677 28.28C241.912 28.28 242.131 28.2213 242.333 28.104C242.536 27.9867 242.699 27.816 242.821 27.592C242.949 27.3627 243.013 27.096 243.013 26.792ZM246.043 25.232C246.177 25.008 246.353 24.8347 246.571 24.712C246.795 24.584 247.059 24.52 247.363 24.52V25.464H247.131C246.774 25.464 246.502 25.5547 246.315 25.736C246.134 25.9173 246.043 26.232 246.043 26.68V29H245.131V24.592H246.043V25.232ZM247.898 26.776C247.898 26.3333 247.988 25.9413 248.17 25.6C248.356 25.2587 248.607 24.9947 248.922 24.808C249.242 24.616 249.594 24.52 249.978 24.52C250.324 24.52 250.626 24.5893 250.882 24.728C251.143 24.8613 251.351 25.0293 251.506 25.232V24.592H252.426V29H251.506V28.344C251.351 28.552 251.14 28.7253 250.874 28.864C250.607 29.0027 250.303 29.072 249.962 29.072C249.583 29.072 249.236 28.976 248.922 28.784C248.607 28.5867 248.356 28.3147 248.17 27.968C247.988 27.616 247.898 27.2187 247.898 26.776ZM251.506 26.792C251.506 26.488 251.442 26.224 251.314 26C251.191 25.776 251.028 25.6053 250.826 25.488C250.623 25.3707 250.404 25.312 250.17 25.312C249.935 25.312 249.716 25.3707 249.514 25.488C249.311 25.6 249.146 25.768 249.018 25.992C248.895 26.2107 248.834 26.472 248.834 26.776C248.834 27.08 248.895 27.3467 249.018 27.576C249.146 27.8053 249.311 27.9813 249.514 28.104C249.722 28.2213 249.94 28.28 250.17 28.28C250.404 28.28 250.623 28.2213 250.826 28.104C251.028 27.9867 251.191 27.816 251.314 27.592C251.442 27.3627 251.506 27.096 251.506 26.792ZM254.687 25.336V27.776C254.687 27.9413 254.725 28.0613 254.799 28.136C254.879 28.2053 255.013 28.24 255.199 28.24H255.759V29H255.039C254.629 29 254.314 28.904 254.095 28.712C253.877 28.52 253.767 28.208 253.767 27.776V25.336H253.247V24.592H253.767V23.496H254.687V24.592H255.759V25.336H254.687ZM257.064 24.008C256.899 24.008 256.76 23.952 256.648 23.84C256.536 23.728 256.48 23.5893 256.48 23.424C256.48 23.2587 256.536 23.12 256.648 23.008C256.76 22.896 256.899 22.84 257.064 22.84C257.224 22.84 257.36 22.896 257.472 23.008C257.584 23.12 257.64 23.2587 257.64 23.424C257.64 23.5893 257.584 23.728 257.472 23.84C257.36 23.952 257.224 24.008 257.064 24.008ZM257.512 24.592V29H256.6V24.592H257.512ZM260.621 29.072C260.205 29.072 259.829 28.9787 259.493 28.792C259.157 28.6 258.893 28.3333 258.701 27.992C258.509 27.6453 258.413 27.2453 258.413 26.792C258.413 26.344 258.512 25.9467 258.709 25.6C258.907 25.2533 259.176 24.9867 259.517 24.8C259.859 24.6133 260.24 24.52 260.661 24.52C261.083 24.52 261.464 24.6133 261.805 24.8C262.147 24.9867 262.416 25.2533 262.613 25.6C262.811 25.9467 262.909 26.344 262.909 26.792C262.909 27.24 262.808 27.6373 262.605 27.984C262.403 28.3307 262.125 28.6 261.773 28.792C261.427 28.9787 261.043 29.072 260.621 29.072ZM260.621 28.28C260.856 28.28 261.075 28.224 261.277 28.112C261.485 28 261.653 27.832 261.781 27.608C261.909 27.384 261.973 27.112 261.973 26.792C261.973 26.472 261.912 26.2027 261.789 25.984C261.667 25.76 261.504 25.592 261.301 25.48C261.099 25.368 260.88 25.312 260.645 25.312C260.411 25.312 260.192 25.368 259.989 25.48C259.792 25.592 259.635 25.76 259.517 25.984C259.4 26.2027 259.341 26.472 259.341 26.792C259.341 27.2667 259.461 27.6347 259.701 27.896C259.947 28.152 260.253 28.28 260.621 28.28ZM266.035 24.52C266.382 24.52 266.691 24.592 266.963 24.736C267.24 24.88 267.456 25.0933 267.611 25.376C267.766 25.6587 267.843 26 267.843 26.4V29H266.939V26.536C266.939 26.1413 266.84 25.84 266.643 25.632C266.446 25.4187 266.176 25.312 265.835 25.312C265.494 25.312 265.222 25.4187 265.019 25.632C264.822 25.84 264.723 26.1413 264.723 26.536V29H263.811V24.592H264.723V25.096C264.872 24.9147 265.062 24.7733 265.291 24.672C265.526 24.5707 265.774 24.52 266.035 24.52ZM237.838 38.144C238.136 38.1973 238.39 38.3547 238.598 38.616C238.806 38.8773 238.91 39.1733 238.91 39.504C238.91 39.7867 238.835 40.0427 238.686 40.272C238.542 40.496 238.331 40.6747 238.054 40.808C237.776 40.936 237.454 41 237.086 41H234.862V35.44H236.982C237.36 35.44 237.686 35.504 237.958 35.632C238.23 35.76 238.435 35.9333 238.574 36.152C238.712 36.3653 238.782 36.6053 238.782 36.872C238.782 37.192 238.696 37.4587 238.526 37.672C238.355 37.8853 238.126 38.0427 237.838 38.144ZM235.774 37.776H236.902C237.2 37.776 237.432 37.7093 237.598 37.576C237.768 37.4373 237.854 37.24 237.854 36.984C237.854 36.7333 237.768 36.5387 237.598 36.4C237.432 36.256 237.2 36.184 236.902 36.184H235.774V37.776ZM237.006 40.256C237.315 40.256 237.558 40.1813 237.734 40.032C237.91 39.8827 237.998 39.6747 237.998 39.408C237.998 39.136 237.904 38.92 237.718 38.76C237.531 38.6 237.283 38.52 236.974 38.52H235.774V40.256H237.006ZM240.813 35.08V41H239.901V35.08H240.813ZM243.922 41.072C243.506 41.072 243.13 40.9787 242.794 40.792C242.458 40.6 242.194 40.3333 242.002 39.992C241.81 39.6453 241.714 39.2453 241.714 38.792C241.714 38.344 241.813 37.9467 242.01 37.6C242.207 37.2533 242.477 36.9867 242.818 36.8C243.159 36.6133 243.541 36.52 243.962 36.52C244.383 36.52 244.765 36.6133 245.106 36.8C245.447 36.9867 245.717 37.2533 245.914 37.6C246.111 37.9467 246.21 38.344 246.21 38.792C246.21 39.24 246.109 39.6373 245.906 39.984C245.703 40.3307 245.426 40.6 245.074 40.792C244.727 40.9787 244.343 41.072 243.922 41.072ZM243.922 40.28C244.157 40.28 244.375 40.224 244.578 40.112C244.786 40 244.954 39.832 245.082 39.608C245.21 39.384 245.274 39.112 245.274 38.792C245.274 38.472 245.213 38.2027 245.09 37.984C244.967 37.76 244.805 37.592 244.602 37.48C244.399 37.368 244.181 37.312 243.946 37.312C243.711 37.312 243.493 37.368 243.29 37.48C243.093 37.592 242.935 37.76 242.818 37.984C242.701 38.2027 242.642 38.472 242.642 38.792C242.642 39.2667 242.762 39.6347 243.002 39.896C243.247 40.152 243.554 40.28 243.922 40.28ZM246.808 38.792C246.808 38.3387 246.898 37.9413 247.08 37.6C247.266 37.2533 247.522 36.9867 247.848 36.8C248.173 36.6133 248.546 36.52 248.968 36.52C249.501 36.52 249.941 36.648 250.288 36.904C250.64 37.1547 250.877 37.5147 251 37.984H250.016C249.936 37.7653 249.808 37.5947 249.632 37.472C249.456 37.3493 249.234 37.288 248.968 37.288C248.594 37.288 248.296 37.4213 248.072 37.688C247.853 37.9493 247.744 38.3173 247.744 38.792C247.744 39.2667 247.853 39.6373 248.072 39.904C248.296 40.1707 248.594 40.304 248.968 40.304C249.496 40.304 249.845 40.072 250.016 39.608H251C250.872 40.056 250.632 40.4133 250.28 40.68C249.928 40.9413 249.49 41.072 248.968 41.072C248.546 41.072 248.173 40.9787 247.848 40.792C247.522 40.6 247.266 40.3333 247.08 39.992C246.898 39.6453 246.808 39.2453 246.808 38.792ZM253.653 38.8L255.685 41H254.453L252.821 39.104V41H251.909V35.08H252.821V38.52L254.421 36.592H255.685L253.653 38.8Z" fill="#4F4D4D"/>
<g filter="url(#filter1_d_733_114)">
<rect x="236" y="140" width="72" height="39" rx="6" fill="white"/>
</g>
<path d="M265.783 156.44L263.695 162H262.639L260.543 156.44H261.519L263.167 161.064L264.823 156.44H265.783ZM266.241 159.776C266.241 159.333 266.332 158.941 266.513 158.6C266.7 158.259 266.951 157.995 267.265 157.808C267.585 157.616 267.937 157.52 268.321 157.52C268.668 157.52 268.969 157.589 269.225 157.728C269.487 157.861 269.695 158.029 269.849 158.232V157.592H270.769V162H269.849V161.344C269.695 161.552 269.484 161.725 269.217 161.864C268.951 162.003 268.647 162.072 268.305 162.072C267.927 162.072 267.58 161.976 267.265 161.784C266.951 161.587 266.7 161.315 266.513 160.968C266.332 160.616 266.241 160.219 266.241 159.776ZM269.849 159.792C269.849 159.488 269.785 159.224 269.657 159C269.535 158.776 269.372 158.605 269.169 158.488C268.967 158.371 268.748 158.312 268.513 158.312C268.279 158.312 268.06 158.371 267.857 158.488C267.655 158.6 267.489 158.768 267.361 158.992C267.239 159.211 267.177 159.472 267.177 159.776C267.177 160.08 267.239 160.347 267.361 160.576C267.489 160.805 267.655 160.981 267.857 161.104C268.065 161.221 268.284 161.28 268.513 161.28C268.748 161.28 268.967 161.221 269.169 161.104C269.372 160.987 269.535 160.816 269.657 160.592C269.785 160.363 269.849 160.096 269.849 159.792ZM272.879 156.08V162H271.967V156.08H272.879ZM278.069 157.592V162H277.157V161.48C277.013 161.661 276.823 161.805 276.589 161.912C276.359 162.013 276.114 162.064 275.853 162.064C275.506 162.064 275.194 161.992 274.917 161.848C274.645 161.704 274.429 161.491 274.269 161.208C274.114 160.925 274.037 160.584 274.037 160.184V157.592H274.941V160.048C274.941 160.443 275.039 160.747 275.237 160.96C275.434 161.168 275.703 161.272 276.045 161.272C276.386 161.272 276.655 161.168 276.853 160.96C277.055 160.747 277.157 160.443 277.157 160.048V157.592H278.069ZM283.312 159.688C283.312 159.853 283.301 160.003 283.28 160.136H279.912C279.939 160.488 280.069 160.771 280.304 160.984C280.539 161.197 280.827 161.304 281.168 161.304C281.659 161.304 282.005 161.099 282.208 160.688H283.192C283.059 161.093 282.816 161.427 282.464 161.688C282.117 161.944 281.685 162.072 281.168 162.072C280.747 162.072 280.368 161.979 280.032 161.792C279.701 161.6 279.44 161.333 279.248 160.992C279.061 160.645 278.968 160.245 278.968 159.792C278.968 159.339 279.059 158.941 279.24 158.6C279.427 158.253 279.685 157.987 280.016 157.8C280.352 157.613 280.736 157.52 281.168 157.52C281.584 157.52 281.955 157.611 282.28 157.792C282.605 157.973 282.859 158.229 283.04 158.56C283.221 158.885 283.312 159.261 283.312 159.688ZM282.36 159.4C282.355 159.064 282.235 158.795 282 158.592C281.765 158.389 281.475 158.288 281.128 158.288C280.813 158.288 280.544 158.389 280.32 158.592C280.096 158.789 279.963 159.059 279.92 159.4H282.36Z" fill="#4F4D4D"/>
<path d="M265 135.5C265.276 135.5 265.5 135.276 265.5 135V130.5C265.5 130.224 265.276 130 265 130C264.724 130 264.5 130.224 264.5 130.5V134.5L260.5 134.5C260.224 134.5 260 134.724 260 135C260 135.276 260.224 135.5 260.5 135.5L265 135.5ZM249.646 120.354L264.646 135.354L265.354 134.646L250.354 119.646L249.646 120.354Z" fill="black"/>
<g filter="url(#filter2_d_733_114)">
<rect x="130" y="140" width="72" height="39" rx="6" fill="white"/>
</g>
<path d="M158.5 135.017C158.51 135.293 158.741 135.509 159.017 135.5L163.515 135.345C163.791 135.335 164.007 135.104 163.997 134.828C163.988 134.552 163.756 134.336 163.48 134.345L159.482 134.483L159.345 130.485C159.335 130.209 159.104 129.993 158.828 130.003C158.552 130.012 158.336 130.244 158.345 130.52L158.5 135.017ZM172.634 119.659L158.634 134.659L159.366 135.341L173.366 120.341L172.634 119.659Z" fill="black"/>
<path d="M154.492 158.096C154.492 158.379 154.425 158.645 154.292 158.896C154.159 159.147 153.945 159.352 153.652 159.512C153.359 159.667 152.983 159.744 152.524 159.744H151.516V162H150.604V156.44H152.524C152.951 156.44 153.311 156.515 153.604 156.664C153.903 156.808 154.124 157.005 154.268 157.256C154.417 157.507 154.492 157.787 154.492 158.096ZM152.524 159C152.871 159 153.129 158.923 153.3 158.768C153.471 158.608 153.556 158.384 153.556 158.096C153.556 157.488 153.212 157.184 152.524 157.184H151.516V159H152.524ZM156.274 158.232C156.407 158.008 156.583 157.835 156.802 157.712C157.026 157.584 157.29 157.52 157.594 157.52V158.464H157.362C157.004 158.464 156.732 158.555 156.546 158.736C156.364 158.917 156.274 159.232 156.274 159.68V162H155.362V157.592H156.274V158.232ZM160.344 162.072C159.928 162.072 159.552 161.979 159.216 161.792C158.88 161.6 158.616 161.333 158.424 160.992C158.232 160.645 158.136 160.245 158.136 159.792C158.136 159.344 158.235 158.947 158.432 158.6C158.629 158.253 158.899 157.987 159.24 157.8C159.581 157.613 159.963 157.52 160.384 157.52C160.805 157.52 161.187 157.613 161.528 157.8C161.869 157.987 162.139 158.253 162.336 158.6C162.533 158.947 162.632 159.344 162.632 159.792C162.632 160.24 162.531 160.637 162.328 160.984C162.125 161.331 161.848 161.6 161.496 161.792C161.149 161.979 160.765 162.072 160.344 162.072ZM160.344 161.28C160.579 161.28 160.797 161.224 161 161.112C161.208 161 161.376 160.832 161.504 160.608C161.632 160.384 161.696 160.112 161.696 159.792C161.696 159.472 161.635 159.203 161.512 158.984C161.389 158.76 161.227 158.592 161.024 158.48C160.821 158.368 160.603 158.312 160.368 158.312C160.133 158.312 159.915 158.368 159.712 158.48C159.515 158.592 159.357 158.76 159.24 158.984C159.123 159.203 159.064 159.472 159.064 159.792C159.064 160.267 159.184 160.635 159.424 160.896C159.669 161.152 159.976 161.28 160.344 161.28ZM164.446 158.24C164.6 158.037 164.811 157.867 165.078 157.728C165.344 157.589 165.646 157.52 165.982 157.52C166.366 157.52 166.715 157.616 167.03 157.808C167.35 157.995 167.6 158.259 167.782 158.6C167.963 158.941 168.054 159.333 168.054 159.776C168.054 160.219 167.963 160.616 167.782 160.968C167.6 161.315 167.35 161.587 167.03 161.784C166.715 161.976 166.366 162.072 165.982 162.072C165.646 162.072 165.347 162.005 165.086 161.872C164.824 161.733 164.611 161.563 164.446 161.36V164.096H163.534V157.592H164.446V158.24ZM167.126 159.776C167.126 159.472 167.062 159.211 166.934 158.992C166.811 158.768 166.646 158.6 166.438 158.488C166.235 158.371 166.016 158.312 165.782 158.312C165.552 158.312 165.334 158.371 165.126 158.488C164.923 158.605 164.758 158.776 164.63 159C164.507 159.224 164.446 159.488 164.446 159.792C164.446 160.096 164.507 160.363 164.63 160.592C164.758 160.816 164.923 160.987 165.126 161.104C165.334 161.221 165.552 161.28 165.782 161.28C166.016 161.28 166.235 161.221 166.438 161.104C166.646 160.981 166.811 160.805 166.934 160.576C167.062 160.347 167.126 160.08 167.126 159.776ZM172.995 159.688C172.995 159.853 172.985 160.003 172.963 160.136H169.595C169.622 160.488 169.753 160.771 169.987 160.984C170.222 161.197 170.51 161.304 170.851 161.304C171.342 161.304 171.689 161.099 171.891 160.688H172.875C172.742 161.093 172.499 161.427 172.147 161.688C171.801 161.944 171.369 162.072 170.851 162.072C170.43 162.072 170.051 161.979 169.715 161.792C169.385 161.6 169.123 161.333 168.931 160.992C168.745 160.645 168.651 160.245 168.651 159.792C168.651 159.339 168.742 158.941 168.923 158.6C169.11 158.253 169.369 157.987 169.699 157.8C170.035 157.613 170.419 157.52 170.851 157.52C171.267 157.52 171.638 157.611 171.963 157.792C172.289 157.973 172.542 158.229 172.723 158.56C172.905 158.885 172.995 159.261 172.995 159.688ZM172.043 159.4C172.038 159.064 171.918 158.795 171.683 158.592C171.449 158.389 171.158 158.288 170.811 158.288C170.497 158.288 170.227 158.389 170.003 158.592C169.779 158.789 169.646 159.059 169.603 159.4H172.043ZM174.805 158.232C174.938 158.008 175.114 157.835 175.333 157.712C175.557 157.584 175.821 157.52 176.125 157.52V158.464H175.893C175.536 158.464 175.264 158.555 175.077 158.736C174.896 158.917 174.805 159.232 174.805 159.68V162H173.893V157.592H174.805V158.232ZM178.027 158.336V160.776C178.027 160.941 178.065 161.061 178.139 161.136C178.219 161.205 178.353 161.24 178.539 161.24H179.099V162H178.379C177.969 162 177.654 161.904 177.435 161.712C177.217 161.52 177.107 161.208 177.107 160.776V158.336H176.587V157.592H177.107V156.496H178.027V157.592H179.099V158.336H178.027ZM183.908 157.592L181.204 164.072H180.26L181.156 161.928L179.42 157.592H180.436L181.676 160.952L182.964 157.592H183.908Z" fill="#4F4D4D"/>
<g filter="url(#filter3_d_733_114)">
<rect x="54" y="16" width="72" height="39" rx="6" fill="white"/>
</g>
<path d="M81.6464 81.3536C81.8417 81.5488 82.1583 81.5488 82.3536 81.3536L85.5355 78.1716C85.7308 77.9763 85.7308 77.6597 85.5355 77.4645C85.3403 77.2692 85.0237 77.2692 84.8284 77.4645L82 80.2929L79.1716 77.4645C78.9763 77.2692 78.6597 77.2692 78.4645 77.4645C78.2692 77.6597 78.2692 77.9763 78.4645 78.1716L81.6464 81.3536ZM81.5 61L81.5 81L82.5 81L82.5 61L81.5 61Z" fill="black"/>
<path d="M77.0531 38.056C76.6798 38.056 76.3438 37.992 76.0451 37.864C75.7464 37.7307 75.5118 37.544 75.3411 37.304C75.1704 37.064 75.0851 36.784 75.0851 36.464H76.0611C76.0824 36.704 76.1758 36.9013 76.3411 37.056C76.5118 37.2107 76.7491 37.288 77.0531 37.288C77.3678 37.288 77.6131 37.2133 77.7891 37.064C77.9651 36.9093 78.0531 36.712 78.0531 36.472C78.0531 36.2853 77.9971 36.1333 77.8851 36.016C77.7784 35.8987 77.6424 35.808 77.4771 35.744C77.3171 35.68 77.0931 35.6107 76.8051 35.536C76.4424 35.44 76.1464 35.344 75.9171 35.248C75.6931 35.1467 75.5011 34.992 75.3411 34.784C75.1811 34.576 75.1011 34.2987 75.1011 33.952C75.1011 33.632 75.1811 33.352 75.3411 33.112C75.5011 32.872 75.7251 32.688 76.0131 32.56C76.3011 32.432 76.6344 32.368 77.0131 32.368C77.5518 32.368 77.9918 32.504 78.3331 32.776C78.6798 33.0427 78.8718 33.4107 78.9091 33.88H77.9011C77.8851 33.6773 77.7891 33.504 77.6131 33.36C77.4371 33.216 77.2051 33.144 76.9171 33.144C76.6558 33.144 76.4424 33.2107 76.2771 33.344C76.1118 33.4773 76.0291 33.6693 76.0291 33.92C76.0291 34.0907 76.0798 34.232 76.1811 34.344C76.2878 34.4507 76.4211 34.536 76.5811 34.6C76.7411 34.664 76.9598 34.7333 77.2371 34.808C77.6051 34.9093 77.9038 35.0107 78.1331 35.112C78.3678 35.2133 78.5651 35.3707 78.7251 35.584C78.8904 35.792 78.9731 36.072 78.9731 36.424C78.9731 36.7067 78.8958 36.9733 78.7411 37.224C78.5918 37.4747 78.3704 37.6773 78.0771 37.832C77.7891 37.9813 77.4478 38.056 77.0531 38.056ZM84.0892 35.688C84.0892 35.8533 84.0786 36.0027 84.0572 36.136H80.6892C80.7159 36.488 80.8466 36.7707 81.0812 36.984C81.3159 37.1973 81.6039 37.304 81.9452 37.304C82.4359 37.304 82.7826 37.0987 82.9852 36.688H83.9692C83.8359 37.0933 83.5932 37.4267 83.2412 37.688C82.8946 37.944 82.4626 38.072 81.9452 38.072C81.5239 38.072 81.1452 37.9787 80.8092 37.792C80.4786 37.6 80.2172 37.3333 80.0252 36.992C79.8386 36.6453 79.7452 36.2453 79.7452 35.792C79.7452 35.3387 79.8359 34.9413 80.0172 34.6C80.2039 34.2533 80.4626 33.9867 80.7932 33.8C81.1292 33.6133 81.5132 33.52 81.9452 33.52C82.3612 33.52 82.7319 33.6107 83.0572 33.792C83.3826 33.9733 83.6359 34.2293 83.8172 34.56C83.9986 34.8853 84.0892 35.2613 84.0892 35.688ZM83.1372 35.4C83.1319 35.064 83.0119 34.7947 82.7772 34.592C82.5426 34.3893 82.2519 34.288 81.9052 34.288C81.5906 34.288 81.3212 34.3893 81.0972 34.592C80.8732 34.7893 80.7399 35.0587 80.6972 35.4H83.1372ZM85.8987 32.08V38H84.9867V32.08H85.8987ZM91.1361 35.688C91.1361 35.8533 91.1254 36.0027 91.1041 36.136H87.7361C87.7628 36.488 87.8934 36.7707 88.1281 36.984C88.3628 37.1973 88.6508 37.304 88.9921 37.304C89.4828 37.304 89.8294 37.0987 90.0321 36.688H91.0161C90.8828 37.0933 90.6401 37.4267 90.2881 37.688C89.9414 37.944 89.5094 38.072 88.9921 38.072C88.5708 38.072 88.1921 37.9787 87.8561 37.792C87.5254 37.6 87.2641 37.3333 87.0721 36.992C86.8854 36.6453 86.7921 36.2453 86.7921 35.792C86.7921 35.3387 86.8828 34.9413 87.0641 34.6C87.2508 34.2533 87.5094 33.9867 87.8401 33.8C88.1761 33.6133 88.5601 33.52 88.9921 33.52C89.4081 33.52 89.7788 33.6107 90.1041 33.792C90.4294 33.9733 90.6828 34.2293 90.8641 34.56C91.0454 34.8853 91.1361 35.2613 91.1361 35.688ZM90.1841 35.4C90.1788 35.064 90.0588 34.7947 89.8241 34.592C89.5894 34.3893 89.2988 34.288 88.9521 34.288C88.6374 34.288 88.3681 34.3893 88.1441 34.592C87.9201 34.7893 87.7868 35.0587 87.7441 35.4H90.1841ZM91.7296 35.792C91.7296 35.3387 91.8203 34.9413 92.0016 34.6C92.1883 34.2533 92.4443 33.9867 92.7696 33.8C93.0949 33.6133 93.4683 33.52 93.8896 33.52C94.4229 33.52 94.8629 33.648 95.2096 33.904C95.5616 34.1547 95.7989 34.5147 95.9216 34.984H94.9376C94.8576 34.7653 94.7296 34.5947 94.5536 34.472C94.3776 34.3493 94.1563 34.288 93.8896 34.288C93.5163 34.288 93.2176 34.4213 92.9936 34.688C92.7749 34.9493 92.6656 35.3173 92.6656 35.792C92.6656 36.2667 92.7749 36.6373 92.9936 36.904C93.2176 37.1707 93.5163 37.304 93.8896 37.304C94.4176 37.304 94.7669 37.072 94.9376 36.608H95.9216C95.7936 37.056 95.5536 37.4133 95.2016 37.68C94.8496 37.9413 94.4123 38.072 93.8896 38.072C93.4683 38.072 93.0949 37.9787 92.7696 37.792C92.4443 37.6 92.1883 37.3333 92.0016 36.992C91.8203 36.6453 91.7296 36.2453 91.7296 35.792ZM97.8945 34.336V36.776C97.8945 36.9413 97.9318 37.0613 98.0065 37.136C98.0865 37.2053 98.2198 37.24 98.4065 37.24H98.9665V38H98.2465C97.8358 38 97.5211 37.904 97.3025 37.712C97.0838 37.52 96.9745 37.208 96.9745 36.776V34.336H96.4545V33.592H96.9745V32.496H97.8945V33.592H98.9665V34.336H97.8945ZM101.719 38.072C101.303 38.072 100.927 37.9787 100.591 37.792C100.255 37.6 99.991 37.3333 99.799 36.992C99.607 36.6453 99.511 36.2453 99.511 35.792C99.511 35.344 99.6097 34.9467 99.807 34.6C100.004 34.2533 100.274 33.9867 100.615 33.8C100.956 33.6133 101.338 33.52 101.759 33.52C102.18 33.52 102.562 33.6133 102.903 33.8C103.244 33.9867 103.514 34.2533 103.711 34.6C103.908 34.9467 104.007 35.344 104.007 35.792C104.007 36.24 103.906 36.6373 103.703 36.984C103.5 37.3307 103.223 37.6 102.871 37.792C102.524 37.9787 102.14 38.072 101.719 38.072ZM101.719 37.28C101.954 37.28 102.172 37.224 102.375 37.112C102.583 37 102.751 36.832 102.879 36.608C103.007 36.384 103.071 36.112 103.071 35.792C103.071 35.472 103.01 35.2027 102.887 34.984C102.764 34.76 102.602 34.592 102.399 34.48C102.196 34.368 101.978 34.312 101.743 34.312C101.508 34.312 101.29 34.368 101.087 34.48C100.89 34.592 100.732 34.76 100.615 34.984C100.498 35.2027 100.439 35.472 100.439 35.792C100.439 36.2667 100.559 36.6347 100.799 36.896C101.044 37.152 101.351 37.28 101.719 37.28ZM105.821 34.232C105.954 34.008 106.13 33.8347 106.349 33.712C106.573 33.584 106.837 33.52 107.141 33.52V34.464H106.909C106.551 34.464 106.279 34.5547 106.093 34.736C105.911 34.9173 105.821 35.232 105.821 35.68V38H104.909V33.592H105.821V34.232Z" fill="#4F4D4D"/>
</g>
<defs>
<filter id="filter0_d_733_114" x="191" y="6" width="108" height="75" filterUnits="userSpaceOnUse" color-interpolation-filters="sRGB">
<feFlood flood-opacity="0" result="BackgroundImageFix"/>
<feColorMatrix in="SourceAlpha" type="matrix" values="0 0 0 0 0 0 0 0 0 0 0 0 0 0 0 0 0 0 127 0" result="hardAlpha"/>
<feOffset dy="12"/>
<feGaussianBlur stdDeviation="9"/>
<feComposite in2="hardAlpha" operator="out"/>
<feColorMatrix type="matrix" values="0 0 0 0 0.0196078 0 0 0 0 0.337255 0 0 0 0 0.952941 0 0 0 0.05 0"/>
<feBlend mode="normal" in2="BackgroundImageFix" result="effect1_dropShadow_733_114"/>
<feBlend mode="normal" in="SourceGraphic" in2="effect1_dropShadow_733_114" result="shape"/>
</filter>
<filter id="filter1_d_733_114" x="218" y="134" width="108" height="75" filterUnits="userSpaceOnUse" color-interpolation-filters="sRGB">
<feFlood flood-opacity="0" result="BackgroundImageFix"/>
<feColorMatrix in="SourceAlpha" type="matrix" values="0 0 0 0 0 0 0 0 0 0 0 0 0 0 0 0 0 0 127 0" result="hardAlpha"/>
<feOffset dy="12"/>
<feGaussianBlur stdDeviation="9"/>
<feComposite in2="hardAlpha" operator="out"/>
<feColorMatrix type="matrix" values="0 0 0 0 0.0196078 0 0 0 0 0.337255 0 0 0 0 0.952941 0 0 0 0.05 0"/>
<feBlend mode="normal" in2="BackgroundImageFix" result="effect1_dropShadow_733_114"/>
<feBlend mode="normal" in="SourceGraphic" in2="effect1_dropShadow_733_114" result="shape"/>
</filter>
<filter id="filter2_d_733_114" x="112" y="134" width="108" height="75" filterUnits="userSpaceOnUse" color-interpolation-filters="sRGB">
<feFlood flood-opacity="0" result="BackgroundImageFix"/>
<feColorMatrix in="SourceAlpha" type="matrix" values="0 0 0 0 0 0 0 0 0 0 0 0 0 0 0 0 0 0 127 0" result="hardAlpha"/>
<feOffset dy="12"/>
<feGaussianBlur stdDeviation="9"/>
<feComposite in2="hardAlpha" operator="out"/>
<feColorMatrix type="matrix" values="0 0 0 0 0.0196078 0 0 0 0 0.337255 0 0 0 0 0.952941 0 0 0 0.05 0"/>
<feBlend mode="normal" in2="BackgroundImageFix" result="effect1_dropShadow_733_114"/>
<feBlend mode="normal" in="SourceGraphic" in2="effect1_dropShadow_733_114" result="shape"/>
</filter>
<filter id="filter3_d_733_114" x="36" y="10" width="108" height="75" filterUnits="userSpaceOnUse" color-interpolation-filters="sRGB">
<feFlood flood-opacity="0" result="BackgroundImageFix"/>
<feColorMatrix in="SourceAlpha" type="matrix" values="0 0 0 0 0 0 0 0 0 0 0 0 0 0 0 0 0 0 127 0" result="hardAlpha"/>
<feOffset dy="12"/>
<feGaussianBlur stdDeviation="9"/>
<feComposite in2="hardAlpha" operator="out"/>
<feColorMatrix type="matrix" values="0 0 0 0 0.0196078 0 0 0 0 0.337255 0 0 0 0 0.952941 0 0 0 0.05 0"/>
<feBlend mode="normal" in2="BackgroundImageFix" result="effect1_dropShadow_733_114"/>
<feBlend mode="normal" in="SourceGraphic" in2="effect1_dropShadow_733_114" result="shape"/>
</filter>
<clipPath id="clip0_733_114">
<rect width="332" height="201" fill="white"/>
</clipPath>
</defs>
</svg>
