<svg width="150" height="178" viewBox="0 0 150 178" fill="none" xmlns="http://www.w3.org/2000/svg">
<path fill-rule="evenodd" clip-rule="evenodd" d="M149.482 0.791504H0.253906L13.421 159.347L74.8677 178L136.314 159.347L149.482 0.791504Z" fill="#0277BD"/>
<path fill-rule="evenodd" clip-rule="evenodd" d="M74.8679 14.7816V163.544L124.025 148.62L134.998 14.7816H74.8679Z" fill="#0277BD"/>
<path fill-rule="evenodd" clip-rule="evenodd" d="M114.808 38.0988H74.8679V56.7522H96.3739L95.058 75.4058H74.8679V94.0594H94.1799L92.8628 115.045L74.8679 121.573V141.159L109.542 129.034L112.614 75.4058L114.808 38.0988Z" fill="white"/>
<path fill-rule="evenodd" clip-rule="evenodd" d="M74.8679 38.0988V56.7522H35.8054L34.4886 38.0988H74.8679ZM54.6782 75.4057L55.556 94.0592H74.8678V75.4057H54.6782ZM56.434 103.386H38.8777L40.1945 129.034L74.8679 141.159V121.573L56.8728 115.045L56.434 103.386Z" fill="#EEEEEE"/>
</svg>
