<svg width="332" height="201" viewBox="0 0 332 201" fill="none" xmlns="http://www.w3.org/2000/svg">
<rect width="332" height="201" fill="#F8F8F8"/>
<rect x="40" y="17" width="252" height="29" rx="6" fill="#0556F3"/>
<path d="M115.39 26.66C116.278 26.66 117.054 26.832 117.718 27.176C118.39 27.512 118.906 28 119.266 28.64C119.634 29.272 119.818 30.012 119.818 30.86C119.818 31.708 119.634 32.444 119.266 33.068C118.906 33.692 118.39 34.172 117.718 34.508C117.054 34.836 116.278 35 115.39 35H112.666V26.66H115.39ZM115.39 33.884C116.366 33.884 117.114 33.62 117.634 33.092C118.154 32.564 118.414 31.82 118.414 30.86C118.414 29.892 118.154 29.136 117.634 28.592C117.114 28.048 116.366 27.776 115.39 27.776H114.034V33.884H115.39ZM125.637 30.716C126.085 30.796 126.465 31.032 126.777 31.424C127.089 31.816 127.245 32.26 127.245 32.756C127.245 33.18 127.133 33.564 126.909 33.908C126.693 34.244 126.377 34.512 125.961 34.712C125.545 34.904 125.061 35 124.509 35H121.173V26.66H124.353C124.921 26.66 125.409 26.756 125.817 26.948C126.225 27.14 126.533 27.4 126.741 27.728C126.949 28.048 127.053 28.408 127.053 28.808C127.053 29.288 126.925 29.688 126.669 30.008C126.413 30.328 126.069 30.564 125.637 30.716ZM122.541 30.164H124.233C124.681 30.164 125.029 30.064 125.277 29.864C125.533 29.656 125.661 29.36 125.661 28.976C125.661 28.6 125.533 28.308 125.277 28.1C125.029 27.884 124.681 27.776 124.233 27.776H122.541V30.164ZM124.389 33.884C124.853 33.884 125.217 33.772 125.481 33.548C125.745 33.324 125.877 33.012 125.877 32.612C125.877 32.204 125.737 31.88 125.457 31.64C125.177 31.4 124.805 31.28 124.341 31.28H122.541V33.884H124.389ZM137.516 26.66V35H136.148V29.288L133.604 35H132.656L130.1 29.288V35H128.732V26.66H130.208L133.136 33.2L136.052 26.66H137.516ZM142.062 35.084C141.502 35.084 140.998 34.988 140.55 34.796C140.102 34.596 139.75 34.316 139.494 33.956C139.238 33.596 139.11 33.176 139.11 32.696H140.574C140.606 33.056 140.746 33.352 140.994 33.584C141.25 33.816 141.606 33.932 142.062 33.932C142.534 33.932 142.902 33.82 143.166 33.596C143.43 33.364 143.562 33.068 143.562 32.708C143.562 32.428 143.478 32.2 143.31 32.024C143.15 31.848 142.946 31.712 142.698 31.616C142.458 31.52 142.122 31.416 141.69 31.304C141.146 31.16 140.702 31.016 140.358 30.872C140.022 30.72 139.734 30.488 139.494 30.176C139.254 29.864 139.134 29.448 139.134 28.928C139.134 28.448 139.254 28.028 139.494 27.668C139.734 27.308 140.07 27.032 140.502 26.84C140.934 26.648 141.434 26.552 142.002 26.552C142.81 26.552 143.47 26.756 143.982 27.164C144.502 27.564 144.79 28.116 144.846 28.82H143.334C143.31 28.516 143.166 28.256 142.902 28.04C142.638 27.824 142.29 27.716 141.858 27.716C141.466 27.716 141.146 27.816 140.898 28.016C140.65 28.216 140.526 28.504 140.526 28.88C140.526 29.136 140.602 29.348 140.754 29.516C140.914 29.676 141.114 29.804 141.354 29.9C141.594 29.996 141.922 30.1 142.338 30.212C142.89 30.364 143.338 30.516 143.682 30.668C144.034 30.82 144.33 31.056 144.57 31.376C144.818 31.688 144.942 32.108 144.942 32.636C144.942 33.06 144.826 33.46 144.594 33.836C144.37 34.212 144.038 34.516 143.598 34.748C143.166 34.972 142.654 35.084 142.062 35.084ZM154.701 33.296H151.209L150.609 35H149.181L152.169 26.648H153.753L156.741 35H155.301L154.701 33.296ZM154.317 32.18L152.961 28.304L151.593 32.18H154.317ZM159.409 29.348C159.609 29.012 159.873 28.752 160.201 28.568C160.537 28.376 160.933 28.28 161.389 28.28V29.696H161.041C160.505 29.696 160.097 29.832 159.817 30.104C159.545 30.376 159.409 30.848 159.409 31.52V35H158.041V28.388H159.409V29.348ZM162.19 31.688C162.19 31.008 162.326 30.412 162.598 29.9C162.878 29.38 163.262 28.98 163.75 28.7C164.238 28.42 164.798 28.28 165.43 28.28C166.23 28.28 166.89 28.472 167.41 28.856C167.938 29.232 168.294 29.772 168.478 30.476H167.002C166.882 30.148 166.69 29.892 166.426 29.708C166.162 29.524 165.83 29.432 165.43 29.432C164.87 29.432 164.422 29.632 164.086 30.032C163.758 30.424 163.594 30.976 163.594 31.688C163.594 32.4 163.758 32.956 164.086 33.356C164.422 33.756 164.87 33.956 165.43 33.956C166.222 33.956 166.746 33.608 167.002 32.912H168.478C168.286 33.584 167.926 34.12 167.398 34.52C166.87 34.912 166.214 35.108 165.43 35.108C164.798 35.108 164.238 34.968 163.75 34.688C163.262 34.4 162.878 34 162.598 33.488C162.326 32.968 162.19 32.368 162.19 31.688ZM173.261 28.28C173.765 28.28 174.213 28.388 174.605 28.604C175.005 28.82 175.317 29.14 175.541 29.564C175.773 29.988 175.889 30.5 175.889 31.1V35H174.533V31.304C174.533 30.712 174.385 30.26 174.089 29.948C173.793 29.628 173.389 29.468 172.877 29.468C172.365 29.468 171.957 29.628 171.653 29.948C171.357 30.26 171.209 30.712 171.209 31.304V35H169.841V26.12H171.209V29.156C171.441 28.876 171.733 28.66 172.085 28.508C172.445 28.356 172.837 28.28 173.261 28.28ZM178.33 27.512C178.082 27.512 177.874 27.428 177.706 27.26C177.538 27.092 177.454 26.884 177.454 26.636C177.454 26.388 177.538 26.18 177.706 26.012C177.874 25.844 178.082 25.76 178.33 25.76C178.57 25.76 178.774 25.844 178.942 26.012C179.11 26.18 179.194 26.388 179.194 26.636C179.194 26.884 179.11 27.092 178.942 27.26C178.774 27.428 178.57 27.512 178.33 27.512ZM179.002 28.388V35H177.634V28.388H179.002ZM182.394 29.504V33.164C182.394 33.412 182.45 33.592 182.562 33.704C182.682 33.808 182.882 33.86 183.162 33.86H184.002V35H182.922C182.306 35 181.834 34.856 181.506 34.568C181.178 34.28 181.014 33.812 181.014 33.164V29.504H180.234V28.388H181.014V26.744H182.394V28.388H184.002V29.504H182.394ZM191.323 31.532C191.323 31.78 191.307 32.004 191.275 32.204H186.223C186.263 32.732 186.459 33.156 186.811 33.476C187.163 33.796 187.595 33.956 188.107 33.956C188.843 33.956 189.363 33.648 189.667 33.032H191.143C190.943 33.64 190.579 34.14 190.051 34.532C189.531 34.916 188.883 35.108 188.107 35.108C187.475 35.108 186.907 34.968 186.403 34.688C185.907 34.4 185.515 34 185.227 33.488C184.947 32.968 184.807 32.368 184.807 31.688C184.807 31.008 184.943 30.412 185.215 29.9C185.495 29.38 185.883 28.98 186.379 28.7C186.883 28.42 187.459 28.28 188.107 28.28C188.731 28.28 189.287 28.416 189.775 28.688C190.263 28.96 190.643 29.344 190.915 29.84C191.187 30.328 191.323 30.892 191.323 31.532ZM189.895 31.1C189.887 30.596 189.707 30.192 189.355 29.888C189.003 29.584 188.567 29.432 188.047 29.432C187.575 29.432 187.171 29.584 186.835 29.888C186.499 30.184 186.299 30.588 186.235 31.1H189.895ZM192.214 31.688C192.214 31.008 192.35 30.412 192.622 29.9C192.902 29.38 193.286 28.98 193.774 28.7C194.262 28.42 194.822 28.28 195.454 28.28C196.254 28.28 196.914 28.472 197.434 28.856C197.962 29.232 198.318 29.772 198.502 30.476H197.026C196.906 30.148 196.714 29.892 196.45 29.708C196.186 29.524 195.854 29.432 195.454 29.432C194.894 29.432 194.446 29.632 194.11 30.032C193.782 30.424 193.618 30.976 193.618 31.688C193.618 32.4 193.782 32.956 194.11 33.356C194.446 33.756 194.894 33.956 195.454 33.956C196.246 33.956 196.77 33.608 197.026 32.912H198.502C198.31 33.584 197.95 34.12 197.422 34.52C196.894 34.912 196.238 35.108 195.454 35.108C194.822 35.108 194.262 34.968 193.774 34.688C193.286 34.4 192.902 34 192.622 33.488C192.35 32.968 192.214 32.368 192.214 31.688ZM201.461 29.504V33.164C201.461 33.412 201.517 33.592 201.629 33.704C201.749 33.808 201.949 33.86 202.229 33.86H203.069V35H201.989C201.373 35 200.901 34.856 200.573 34.568C200.245 34.28 200.081 33.812 200.081 33.164V29.504H199.301V28.388H200.081V26.744H201.461V28.388H203.069V29.504H201.461ZM210.318 28.388V35H208.95V34.22C208.734 34.492 208.45 34.708 208.098 34.868C207.754 35.02 207.386 35.096 206.994 35.096C206.474 35.096 206.006 34.988 205.59 34.772C205.182 34.556 204.858 34.236 204.618 33.812C204.386 33.388 204.27 32.876 204.27 32.276V28.388H205.626V32.072C205.626 32.664 205.774 33.12 206.07 33.44C206.366 33.752 206.77 33.908 207.282 33.908C207.794 33.908 208.198 33.752 208.494 33.44C208.798 33.12 208.95 32.664 208.95 32.072V28.388H210.318ZM213.491 29.348C213.691 29.012 213.955 28.752 214.283 28.568C214.619 28.376 215.015 28.28 215.471 28.28V29.696H215.123C214.587 29.696 214.179 29.832 213.899 30.104C213.627 30.376 213.491 30.848 213.491 31.52V35H212.123V28.388H213.491V29.348ZM222.788 31.532C222.788 31.78 222.772 32.004 222.74 32.204H217.688C217.728 32.732 217.924 33.156 218.276 33.476C218.628 33.796 219.06 33.956 219.572 33.956C220.308 33.956 220.828 33.648 221.132 33.032H222.608C222.408 33.64 222.044 34.14 221.516 34.532C220.996 34.916 220.348 35.108 219.572 35.108C218.94 35.108 218.372 34.968 217.868 34.688C217.372 34.4 216.98 34 216.692 33.488C216.412 32.968 216.272 32.368 216.272 31.688C216.272 31.008 216.408 30.412 216.68 29.9C216.96 29.38 217.348 28.98 217.844 28.7C218.348 28.42 218.924 28.28 219.572 28.28C220.196 28.28 220.752 28.416 221.24 28.688C221.728 28.96 222.108 29.344 222.38 29.84C222.652 30.328 222.788 30.892 222.788 31.532ZM221.36 31.1C221.352 30.596 221.172 30.192 220.82 29.888C220.468 29.584 220.032 29.432 219.512 29.432C219.04 29.432 218.636 29.584 218.3 29.888C217.964 30.184 217.764 30.588 217.7 31.1H221.36Z" fill="white"/>
<g filter="url(#filter0_d_630_112)">
<rect x="23" y="126" width="72" height="39" rx="6" fill="white"/>
</g>
<path d="M48.0358 138V137.168H49.6998V143H48.7798V138H48.0358ZM54.4567 139.72V140.488H51.1687V139.72H54.4567ZM58.8945 139.336V141.776C58.8945 141.941 58.9318 142.061 59.0065 142.136C59.0865 142.205 59.2198 142.24 59.4065 142.24H59.9665V143H59.2465C58.8358 143 58.5211 142.904 58.3025 142.712C58.0838 142.52 57.9745 142.208 57.9745 141.776V139.336H57.4545V138.592H57.9745V137.496H58.8945V138.592H59.9665V139.336H58.8945ZM61.271 138.008C61.1057 138.008 60.967 137.952 60.855 137.84C60.743 137.728 60.687 137.589 60.687 137.424C60.687 137.259 60.743 137.12 60.855 137.008C60.967 136.896 61.1057 136.84 61.271 136.84C61.431 136.84 61.567 136.896 61.679 137.008C61.791 137.12 61.847 137.259 61.847 137.424C61.847 137.589 61.791 137.728 61.679 137.84C61.567 137.952 61.431 138.008 61.271 138.008ZM61.719 138.592V143H60.807V138.592H61.719ZM66.9564 140.688C66.9564 140.853 66.9457 141.003 66.9244 141.136H63.5564C63.5831 141.488 63.7137 141.771 63.9484 141.984C64.1831 142.197 64.4711 142.304 64.8124 142.304C65.3031 142.304 65.6497 142.099 65.8524 141.688H66.8364C66.7031 142.093 66.4604 142.427 66.1084 142.688C65.7617 142.944 65.3297 143.072 64.8124 143.072C64.3911 143.072 64.0124 142.979 63.6764 142.792C63.3457 142.6 63.0844 142.333 62.8924 141.992C62.7057 141.645 62.6124 141.245 62.6124 140.792C62.6124 140.339 62.7031 139.941 62.8844 139.6C63.0711 139.253 63.3297 138.987 63.6604 138.8C63.9964 138.613 64.3804 138.52 64.8124 138.52C65.2284 138.52 65.5991 138.611 65.9244 138.792C66.2497 138.973 66.5031 139.229 66.6844 139.56C66.8657 139.885 66.9564 140.261 66.9564 140.688ZM66.0044 140.4C65.9991 140.064 65.8791 139.795 65.6444 139.592C65.4097 139.389 65.1191 139.288 64.7724 139.288C64.4577 139.288 64.1884 139.389 63.9644 139.592C63.7404 139.789 63.6071 140.059 63.5644 140.4H66.0044ZM68.7659 139.232C68.8992 139.008 69.0752 138.835 69.2939 138.712C69.5179 138.584 69.7819 138.52 70.0859 138.52V139.464H69.8539C69.4966 139.464 69.2246 139.555 69.0379 139.736C68.8566 139.917 68.7659 140.232 68.7659 140.68V143H67.8539V138.592H68.7659V139.232ZM38.1317 153.864H35.8037L35.4037 155H34.4517L36.4437 149.432H37.4997L39.4917 155H38.5317L38.1317 153.864ZM37.8757 153.12L36.9717 150.536L36.0597 153.12H37.8757ZM41.2698 151.232C41.4031 151.008 41.5791 150.835 41.7978 150.712C42.0218 150.584 42.2858 150.52 42.5898 150.52V151.464H42.3578C42.0005 151.464 41.7285 151.555 41.5418 151.736C41.3605 151.917 41.2698 152.232 41.2698 152.68V155H40.3578V150.592H41.2698V151.232ZM43.1241 152.792C43.1241 152.339 43.2148 151.941 43.3961 151.6C43.5828 151.253 43.8388 150.987 44.1641 150.8C44.4895 150.613 44.8628 150.52 45.2841 150.52C45.8175 150.52 46.2575 150.648 46.6041 150.904C46.9561 151.155 47.1935 151.515 47.3161 151.984H46.3321C46.2521 151.765 46.1241 151.595 45.9481 151.472C45.7721 151.349 45.5508 151.288 45.2841 151.288C44.9108 151.288 44.6121 151.421 44.3881 151.688C44.1695 151.949 44.0601 152.317 44.0601 152.792C44.0601 153.267 44.1695 153.637 44.3881 153.904C44.6121 154.171 44.9108 154.304 45.2841 154.304C45.8121 154.304 46.1615 154.072 46.3321 153.608H47.3161C47.1881 154.056 46.9481 154.413 46.5961 154.68C46.2441 154.941 45.8068 155.072 45.2841 155.072C44.8628 155.072 44.4895 154.979 44.1641 154.792C43.8388 154.6 43.5828 154.333 43.3961 153.992C43.2148 153.645 43.1241 153.245 43.1241 152.792ZM50.505 150.52C50.841 150.52 51.1397 150.592 51.401 150.736C51.6677 150.88 51.8757 151.093 52.025 151.376C52.1797 151.659 52.257 152 52.257 152.4V155H51.353V152.536C51.353 152.141 51.2543 151.84 51.057 151.632C50.8597 151.419 50.5903 151.312 50.249 151.312C49.9077 151.312 49.6357 151.419 49.433 151.632C49.2357 151.84 49.137 152.141 49.137 152.536V155H48.225V149.08H49.137V151.104C49.2917 150.917 49.4863 150.773 49.721 150.672C49.961 150.571 50.2223 150.52 50.505 150.52ZM53.8843 150.008C53.719 150.008 53.5803 149.952 53.4683 149.84C53.3563 149.728 53.3003 149.589 53.3003 149.424C53.3003 149.259 53.3563 149.12 53.4683 149.008C53.5803 148.896 53.719 148.84 53.8843 148.84C54.0443 148.84 54.1803 148.896 54.2923 149.008C54.4043 149.12 54.4603 149.259 54.4603 149.424C54.4603 149.589 54.4043 149.728 54.2923 149.84C54.1803 149.952 54.0443 150.008 53.8843 150.008ZM54.3323 150.592V155H53.4203V150.592H54.3323ZM56.5937 151.336V153.776C56.5937 153.941 56.631 154.061 56.7057 154.136C56.7857 154.205 56.919 154.24 57.1057 154.24H57.6657V155H56.9457C56.535 155 56.2204 154.904 56.0017 154.712C55.783 154.52 55.6737 154.208 55.6737 153.776V151.336H55.1537V150.592H55.6737V149.496H56.5937V150.592H57.6657V151.336H56.5937ZM62.5463 152.688C62.5463 152.853 62.5356 153.003 62.5143 153.136H59.1463C59.1729 153.488 59.3036 153.771 59.5383 153.984C59.7729 154.197 60.0609 154.304 60.4023 154.304C60.8929 154.304 61.2396 154.099 61.4423 153.688H62.4262C62.2929 154.093 62.0503 154.427 61.6983 154.688C61.3516 154.944 60.9196 155.072 60.4023 155.072C59.9809 155.072 59.6023 154.979 59.2663 154.792C58.9356 154.6 58.6743 154.333 58.4823 153.992C58.2956 153.645 58.2023 153.245 58.2023 152.792C58.2023 152.339 58.2929 151.941 58.4743 151.6C58.6609 151.253 58.9196 150.987 59.2503 150.8C59.5863 150.613 59.9703 150.52 60.4023 150.52C60.8183 150.52 61.1889 150.611 61.5143 150.792C61.8396 150.973 62.0929 151.229 62.2743 151.56C62.4556 151.885 62.5463 152.261 62.5463 152.688ZM61.5943 152.4C61.5889 152.064 61.4689 151.795 61.2343 151.592C60.9996 151.389 60.7089 151.288 60.3623 151.288C60.0476 151.288 59.7783 151.389 59.5543 151.592C59.3303 151.789 59.1969 152.059 59.1543 152.4H61.5943ZM63.1398 152.792C63.1398 152.339 63.2304 151.941 63.4118 151.6C63.5984 151.253 63.8544 150.987 64.1798 150.8C64.5051 150.613 64.8784 150.52 65.2998 150.52C65.8331 150.52 66.2731 150.648 66.6198 150.904C66.9718 151.155 67.2091 151.515 67.3318 151.984H66.3478C66.2678 151.765 66.1398 151.595 65.9638 151.472C65.7878 151.349 65.5664 151.288 65.2998 151.288C64.9264 151.288 64.6278 151.421 64.4038 151.688C64.1851 151.949 64.0758 152.317 64.0758 152.792C64.0758 153.267 64.1851 153.637 64.4038 153.904C64.6278 154.171 64.9264 154.304 65.2998 154.304C65.8278 154.304 66.1771 154.072 66.3478 153.608H67.3318C67.2038 154.056 66.9638 154.413 66.6118 154.68C66.2598 154.941 65.8224 155.072 65.2998 155.072C64.8784 155.072 64.5051 154.979 64.1798 154.792C63.8544 154.6 63.5984 154.333 63.4118 153.992C63.2304 153.645 63.1398 153.245 63.1398 152.792ZM69.3046 151.336V153.776C69.3046 153.941 69.342 154.061 69.4166 154.136C69.4966 154.205 69.63 154.24 69.8166 154.24H70.3766V155H69.6566C69.246 155 68.9313 154.904 68.7126 154.712C68.494 154.52 68.3846 154.208 68.3846 153.776V151.336H67.8646V150.592H68.3846V149.496H69.3046V150.592H70.3766V151.336H69.3046ZM75.2092 150.592V155H74.2972V154.48C74.1532 154.661 73.9639 154.805 73.7292 154.912C73.4999 155.013 73.2545 155.064 72.9932 155.064C72.6465 155.064 72.3345 154.992 72.0572 154.848C71.7852 154.704 71.5692 154.491 71.4092 154.208C71.2545 153.925 71.1772 153.584 71.1772 153.184V150.592H72.0812V153.048C72.0812 153.443 72.1799 153.747 72.3772 153.96C72.5745 154.168 72.8439 154.272 73.1852 154.272C73.5265 154.272 73.7959 154.168 73.9932 153.96C74.1959 153.747 74.2972 153.443 74.2972 153.048V150.592H75.2092ZM77.3245 151.232C77.4578 151.008 77.6338 150.835 77.8525 150.712C78.0765 150.584 78.3405 150.52 78.6445 150.52V151.464H78.4125C78.0552 151.464 77.7832 151.555 77.5965 151.736C77.4152 151.917 77.3245 152.232 77.3245 152.68V155H76.4125V150.592H77.3245V151.232ZM83.5228 152.688C83.5228 152.853 83.5121 153.003 83.4908 153.136H80.1228C80.1495 153.488 80.2801 153.771 80.5148 153.984C80.7495 154.197 81.0375 154.304 81.3788 154.304C81.8695 154.304 82.2161 154.099 82.4188 153.688H83.4028C83.2695 154.093 83.0268 154.427 82.6748 154.688C82.3281 154.944 81.8961 155.072 81.3788 155.072C80.9575 155.072 80.5788 154.979 80.2428 154.792C79.9121 154.6 79.6508 154.333 79.4588 153.992C79.2721 153.645 79.1788 153.245 79.1788 152.792C79.1788 152.339 79.2695 151.941 79.4508 151.6C79.6375 151.253 79.8961 150.987 80.2268 150.8C80.5628 150.613 80.9468 150.52 81.3788 150.52C81.7948 150.52 82.1655 150.611 82.4908 150.792C82.8161 150.973 83.0695 151.229 83.2508 151.56C83.4321 151.885 83.5228 152.261 83.5228 152.688ZM82.5708 152.4C82.5655 152.064 82.4455 151.795 82.2108 151.592C81.9761 151.389 81.6855 151.288 81.3388 151.288C81.0241 151.288 80.7548 151.389 80.5308 151.592C80.3068 151.789 80.1735 152.059 80.1308 152.4H82.5708Z" fill="#4F4D4D"/>
<g filter="url(#filter1_d_630_112)">
<rect x="130" y="126" width="72" height="39" rx="6" fill="white"/>
</g>
<path d="M154.75 141.76C155.262 141.317 155.664 140.955 155.958 140.672C156.256 140.384 156.504 140.085 156.702 139.776C156.899 139.467 156.998 139.157 156.998 138.848C156.998 138.528 156.92 138.277 156.766 138.096C156.616 137.915 156.379 137.824 156.054 137.824C155.739 137.824 155.494 137.925 155.318 138.128C155.147 138.325 155.056 138.592 155.046 138.928H154.166C154.182 138.32 154.363 137.856 154.71 137.536C155.062 137.211 155.507 137.048 156.046 137.048C156.627 137.048 157.08 137.208 157.406 137.528C157.736 137.848 157.902 138.275 157.902 138.808C157.902 139.192 157.803 139.563 157.606 139.92C157.414 140.272 157.182 140.589 156.91 140.872C156.643 141.149 156.302 141.472 155.886 141.84L155.526 142.16H158.062V142.92H154.174V142.256L154.75 141.76ZM162.367 139.72V140.488H159.079V139.72H162.367ZM166.805 139.336V141.776C166.805 141.941 166.842 142.061 166.917 142.136C166.997 142.205 167.13 142.24 167.317 142.24H167.877V143H167.157C166.746 143 166.431 142.904 166.213 142.712C165.994 142.52 165.885 142.208 165.885 141.776V139.336H165.365V138.592H165.885V137.496H166.805V138.592H167.877V139.336H166.805ZM169.181 138.008C169.016 138.008 168.877 137.952 168.765 137.84C168.653 137.728 168.597 137.589 168.597 137.424C168.597 137.259 168.653 137.12 168.765 137.008C168.877 136.896 169.016 136.84 169.181 136.84C169.341 136.84 169.477 136.896 169.589 137.008C169.701 137.12 169.757 137.259 169.757 137.424C169.757 137.589 169.701 137.728 169.589 137.84C169.477 137.952 169.341 138.008 169.181 138.008ZM169.629 138.592V143H168.717V138.592H169.629ZM174.867 140.688C174.867 140.853 174.856 141.003 174.835 141.136H171.467C171.493 141.488 171.624 141.771 171.859 141.984C172.093 142.197 172.381 142.304 172.723 142.304C173.213 142.304 173.56 142.099 173.763 141.688H174.747C174.613 142.093 174.371 142.427 174.019 142.688C173.672 142.944 173.24 143.072 172.723 143.072C172.301 143.072 171.923 142.979 171.587 142.792C171.256 142.6 170.995 142.333 170.803 141.992C170.616 141.645 170.523 141.245 170.523 140.792C170.523 140.339 170.613 139.941 170.795 139.6C170.981 139.253 171.24 138.987 171.571 138.8C171.907 138.613 172.291 138.52 172.723 138.52C173.139 138.52 173.509 138.611 173.835 138.792C174.16 138.973 174.413 139.229 174.595 139.56C174.776 139.885 174.867 140.261 174.867 140.688ZM173.915 140.4C173.909 140.064 173.789 139.795 173.555 139.592C173.32 139.389 173.029 139.288 172.683 139.288C172.368 139.288 172.099 139.389 171.875 139.592C171.651 139.789 171.517 140.059 171.475 140.4H173.915ZM176.676 139.232C176.809 139.008 176.985 138.835 177.204 138.712C177.428 138.584 177.692 138.52 177.996 138.52V139.464H177.764C177.407 139.464 177.135 139.555 176.948 139.736C176.767 139.917 176.676 140.232 176.676 140.68V143H175.764V138.592H176.676V139.232ZM145.132 153.864H142.804L142.404 155H141.452L143.444 149.432H144.5L146.492 155H145.532L145.132 153.864ZM144.876 153.12L143.972 150.536L143.06 153.12H144.876ZM148.27 151.232C148.403 151.008 148.579 150.835 148.798 150.712C149.022 150.584 149.286 150.52 149.59 150.52V151.464H149.358C149 151.464 148.728 151.555 148.542 151.736C148.36 151.917 148.27 152.232 148.27 152.68V155H147.358V150.592H148.27V151.232ZM150.124 152.792C150.124 152.339 150.215 151.941 150.396 151.6C150.583 151.253 150.839 150.987 151.164 150.8C151.489 150.613 151.863 150.52 152.284 150.52C152.817 150.52 153.257 150.648 153.604 150.904C153.956 151.155 154.193 151.515 154.316 151.984H153.332C153.252 151.765 153.124 151.595 152.948 151.472C152.772 151.349 152.551 151.288 152.284 151.288C151.911 151.288 151.612 151.421 151.388 151.688C151.169 151.949 151.06 152.317 151.06 152.792C151.06 153.267 151.169 153.637 151.388 153.904C151.612 154.171 151.911 154.304 152.284 154.304C152.812 154.304 153.161 154.072 153.332 153.608H154.316C154.188 154.056 153.948 154.413 153.596 154.68C153.244 154.941 152.807 155.072 152.284 155.072C151.863 155.072 151.489 154.979 151.164 154.792C150.839 154.6 150.583 154.333 150.396 153.992C150.215 153.645 150.124 153.245 150.124 152.792ZM157.505 150.52C157.841 150.52 158.14 150.592 158.401 150.736C158.668 150.88 158.876 151.093 159.025 151.376C159.18 151.659 159.257 152 159.257 152.4V155H158.353V152.536C158.353 152.141 158.254 151.84 158.057 151.632C157.86 151.419 157.59 151.312 157.249 151.312C156.908 151.312 156.636 151.419 156.433 151.632C156.236 151.84 156.137 152.141 156.137 152.536V155H155.225V149.08H156.137V151.104C156.292 150.917 156.486 150.773 156.721 150.672C156.961 150.571 157.222 150.52 157.505 150.52ZM160.884 150.008C160.719 150.008 160.58 149.952 160.468 149.84C160.356 149.728 160.3 149.589 160.3 149.424C160.3 149.259 160.356 149.12 160.468 149.008C160.58 148.896 160.719 148.84 160.884 148.84C161.044 148.84 161.18 148.896 161.292 149.008C161.404 149.12 161.46 149.259 161.46 149.424C161.46 149.589 161.404 149.728 161.292 149.84C161.18 149.952 161.044 150.008 160.884 150.008ZM161.332 150.592V155H160.42V150.592H161.332ZM163.594 151.336V153.776C163.594 153.941 163.631 154.061 163.706 154.136C163.786 154.205 163.919 154.24 164.106 154.24H164.666V155H163.946C163.535 155 163.22 154.904 163.002 154.712C162.783 154.52 162.674 154.208 162.674 153.776V151.336H162.154V150.592H162.674V149.496H163.594V150.592H164.666V151.336H163.594ZM169.546 152.688C169.546 152.853 169.536 153.003 169.514 153.136H166.146C166.173 153.488 166.304 153.771 166.538 153.984C166.773 154.197 167.061 154.304 167.402 154.304C167.893 154.304 168.24 154.099 168.442 153.688H169.426C169.293 154.093 169.05 154.427 168.698 154.688C168.352 154.944 167.92 155.072 167.402 155.072C166.981 155.072 166.602 154.979 166.266 154.792C165.936 154.6 165.674 154.333 165.482 153.992C165.296 153.645 165.202 153.245 165.202 152.792C165.202 152.339 165.293 151.941 165.474 151.6C165.661 151.253 165.92 150.987 166.25 150.8C166.586 150.613 166.97 150.52 167.402 150.52C167.818 150.52 168.189 150.611 168.514 150.792C168.84 150.973 169.093 151.229 169.274 151.56C169.456 151.885 169.546 152.261 169.546 152.688ZM168.594 152.4C168.589 152.064 168.469 151.795 168.234 151.592C168 151.389 167.709 151.288 167.362 151.288C167.048 151.288 166.778 151.389 166.554 151.592C166.33 151.789 166.197 152.059 166.154 152.4H168.594ZM170.14 152.792C170.14 152.339 170.23 151.941 170.412 151.6C170.598 151.253 170.854 150.987 171.18 150.8C171.505 150.613 171.878 150.52 172.3 150.52C172.833 150.52 173.273 150.648 173.62 150.904C173.972 151.155 174.209 151.515 174.332 151.984H173.348C173.268 151.765 173.14 151.595 172.964 151.472C172.788 151.349 172.566 151.288 172.3 151.288C171.926 151.288 171.628 151.421 171.404 151.688C171.185 151.949 171.076 152.317 171.076 152.792C171.076 153.267 171.185 153.637 171.404 153.904C171.628 154.171 171.926 154.304 172.3 154.304C172.828 154.304 173.177 154.072 173.348 153.608H174.332C174.204 154.056 173.964 154.413 173.612 154.68C173.26 154.941 172.822 155.072 172.3 155.072C171.878 155.072 171.505 154.979 171.18 154.792C170.854 154.6 170.598 154.333 170.412 153.992C170.23 153.645 170.14 153.245 170.14 152.792ZM176.305 151.336V153.776C176.305 153.941 176.342 154.061 176.417 154.136C176.497 154.205 176.63 154.24 176.817 154.24H177.377V155H176.657C176.246 155 175.931 154.904 175.713 154.712C175.494 154.52 175.385 154.208 175.385 153.776V151.336H174.865V150.592H175.385V149.496H176.305V150.592H177.377V151.336H176.305ZM182.209 150.592V155H181.297V154.48C181.153 154.661 180.964 154.805 180.729 154.912C180.5 155.013 180.255 155.064 179.993 155.064C179.647 155.064 179.335 154.992 179.057 154.848C178.785 154.704 178.569 154.491 178.409 154.208C178.255 153.925 178.177 153.584 178.177 153.184V150.592H179.081V153.048C179.081 153.443 179.18 153.747 179.377 153.96C179.575 154.168 179.844 154.272 180.185 154.272C180.527 154.272 180.796 154.168 180.993 153.96C181.196 153.747 181.297 153.443 181.297 153.048V150.592H182.209ZM184.325 151.232C184.458 151.008 184.634 150.835 184.853 150.712C185.077 150.584 185.341 150.52 185.645 150.52V151.464H185.413C185.055 151.464 184.783 151.555 184.597 151.736C184.415 151.917 184.325 152.232 184.325 152.68V155H183.413V150.592H184.325V151.232ZM190.523 152.688C190.523 152.853 190.512 153.003 190.491 153.136H187.123C187.149 153.488 187.28 153.771 187.515 153.984C187.749 154.197 188.037 154.304 188.379 154.304C188.869 154.304 189.216 154.099 189.419 153.688H190.403C190.269 154.093 190.027 154.427 189.675 154.688C189.328 154.944 188.896 155.072 188.379 155.072C187.957 155.072 187.579 154.979 187.243 154.792C186.912 154.6 186.651 154.333 186.459 153.992C186.272 153.645 186.179 153.245 186.179 152.792C186.179 152.339 186.269 151.941 186.451 151.6C186.637 151.253 186.896 150.987 187.227 150.8C187.563 150.613 187.947 150.52 188.379 150.52C188.795 150.52 189.165 150.611 189.491 150.792C189.816 150.973 190.069 151.229 190.251 151.56C190.432 151.885 190.523 152.261 190.523 152.688ZM189.571 152.4C189.565 152.064 189.445 151.795 189.211 151.592C188.976 151.389 188.685 151.288 188.339 151.288C188.024 151.288 187.755 151.389 187.531 151.592C187.307 151.789 187.173 152.059 187.131 152.4H189.571Z" fill="#4F4D4D"/>
<g filter="url(#filter2_d_630_112)">
<rect x="234" y="126" width="72" height="39" rx="6" fill="white"/>
</g>
<path d="M258.163 138.608C258.195 138.112 258.385 137.725 258.731 137.448C259.083 137.171 259.531 137.032 260.075 137.032C260.449 137.032 260.771 137.099 261.043 137.232C261.315 137.365 261.521 137.547 261.659 137.776C261.798 138.005 261.867 138.264 261.867 138.552C261.867 138.883 261.779 139.165 261.603 139.4C261.427 139.635 261.217 139.792 260.971 139.872V139.904C261.286 140 261.531 140.176 261.707 140.432C261.883 140.683 261.971 141.005 261.971 141.4C261.971 141.715 261.899 141.995 261.755 142.24C261.611 142.485 261.398 142.68 261.115 142.824C260.833 142.963 260.494 143.032 260.099 143.032C259.523 143.032 259.049 142.885 258.675 142.592C258.307 142.293 258.11 141.867 258.083 141.312H258.963C258.985 141.595 259.094 141.827 259.291 142.008C259.489 142.184 259.755 142.272 260.091 142.272C260.417 142.272 260.667 142.184 260.843 142.008C261.019 141.827 261.107 141.595 261.107 141.312C261.107 140.939 260.987 140.675 260.747 140.52C260.513 140.36 260.15 140.28 259.659 140.28H259.451V139.528H259.667C260.099 139.523 260.427 139.451 260.651 139.312C260.881 139.173 260.995 138.955 260.995 138.656C260.995 138.4 260.913 138.197 260.747 138.048C260.582 137.893 260.347 137.816 260.043 137.816C259.745 137.816 259.513 137.893 259.347 138.048C259.182 138.197 259.083 138.384 259.051 138.608H258.163ZM266.433 139.72V140.488H263.145V139.72H266.433ZM270.871 139.336V141.776C270.871 141.941 270.908 142.061 270.983 142.136C271.063 142.205 271.196 142.24 271.383 142.24H271.943V143H271.223C270.812 143 270.498 142.904 270.279 142.712C270.06 142.52 269.951 142.208 269.951 141.776V139.336H269.431V138.592H269.951V137.496H270.871V138.592H271.943V139.336H270.871ZM273.248 138.008C273.082 138.008 272.944 137.952 272.832 137.84C272.72 137.728 272.664 137.589 272.664 137.424C272.664 137.259 272.72 137.12 272.832 137.008C272.944 136.896 273.082 136.84 273.248 136.84C273.408 136.84 273.544 136.896 273.656 137.008C273.768 137.12 273.824 137.259 273.824 137.424C273.824 137.589 273.768 137.728 273.656 137.84C273.544 137.952 273.408 138.008 273.248 138.008ZM273.696 138.592V143H272.784V138.592H273.696ZM278.933 140.688C278.933 140.853 278.922 141.003 278.901 141.136H275.533C275.56 141.488 275.69 141.771 275.925 141.984C276.16 142.197 276.448 142.304 276.789 142.304C277.28 142.304 277.626 142.099 277.829 141.688H278.813C278.68 142.093 278.437 142.427 278.085 142.688C277.738 142.944 277.306 143.072 276.789 143.072C276.368 143.072 275.989 142.979 275.653 142.792C275.322 142.6 275.061 142.333 274.869 141.992C274.682 141.645 274.589 141.245 274.589 140.792C274.589 140.339 274.68 139.941 274.861 139.6C275.048 139.253 275.306 138.987 275.637 138.8C275.973 138.613 276.357 138.52 276.789 138.52C277.205 138.52 277.576 138.611 277.901 138.792C278.226 138.973 278.48 139.229 278.661 139.56C278.842 139.885 278.933 140.261 278.933 140.688ZM277.981 140.4C277.976 140.064 277.856 139.795 277.621 139.592C277.386 139.389 277.096 139.288 276.749 139.288C276.434 139.288 276.165 139.389 275.941 139.592C275.717 139.789 275.584 140.059 275.541 140.4H277.981ZM280.742 139.232C280.876 139.008 281.052 138.835 281.27 138.712C281.494 138.584 281.758 138.52 282.062 138.52V139.464H281.83C281.473 139.464 281.201 139.555 281.014 139.736C280.833 139.917 280.742 140.232 280.742 140.68V143H279.83V138.592H280.742V139.232ZM249.132 153.864H246.804L246.404 155H245.452L247.444 149.432H248.5L250.492 155H249.532L249.132 153.864ZM248.876 153.12L247.972 150.536L247.06 153.12H248.876ZM252.27 151.232C252.403 151.008 252.579 150.835 252.798 150.712C253.022 150.584 253.286 150.52 253.59 150.52V151.464H253.358C253 151.464 252.728 151.555 252.542 151.736C252.36 151.917 252.27 152.232 252.27 152.68V155H251.358V150.592H252.27V151.232ZM254.124 152.792C254.124 152.339 254.215 151.941 254.396 151.6C254.583 151.253 254.839 150.987 255.164 150.8C255.489 150.613 255.863 150.52 256.284 150.52C256.817 150.52 257.257 150.648 257.604 150.904C257.956 151.155 258.193 151.515 258.316 151.984H257.332C257.252 151.765 257.124 151.595 256.948 151.472C256.772 151.349 256.551 151.288 256.284 151.288C255.911 151.288 255.612 151.421 255.388 151.688C255.169 151.949 255.06 152.317 255.06 152.792C255.06 153.267 255.169 153.637 255.388 153.904C255.612 154.171 255.911 154.304 256.284 154.304C256.812 154.304 257.161 154.072 257.332 153.608H258.316C258.188 154.056 257.948 154.413 257.596 154.68C257.244 154.941 256.807 155.072 256.284 155.072C255.863 155.072 255.489 154.979 255.164 154.792C254.839 154.6 254.583 154.333 254.396 153.992C254.215 153.645 254.124 153.245 254.124 152.792ZM261.505 150.52C261.841 150.52 262.14 150.592 262.401 150.736C262.668 150.88 262.876 151.093 263.025 151.376C263.18 151.659 263.257 152 263.257 152.4V155H262.353V152.536C262.353 152.141 262.254 151.84 262.057 151.632C261.86 151.419 261.59 151.312 261.249 151.312C260.908 151.312 260.636 151.419 260.433 151.632C260.236 151.84 260.137 152.141 260.137 152.536V155H259.225V149.08H260.137V151.104C260.292 150.917 260.486 150.773 260.721 150.672C260.961 150.571 261.222 150.52 261.505 150.52ZM264.884 150.008C264.719 150.008 264.58 149.952 264.468 149.84C264.356 149.728 264.3 149.589 264.3 149.424C264.3 149.259 264.356 149.12 264.468 149.008C264.58 148.896 264.719 148.84 264.884 148.84C265.044 148.84 265.18 148.896 265.292 149.008C265.404 149.12 265.46 149.259 265.46 149.424C265.46 149.589 265.404 149.728 265.292 149.84C265.18 149.952 265.044 150.008 264.884 150.008ZM265.332 150.592V155H264.42V150.592H265.332ZM267.594 151.336V153.776C267.594 153.941 267.631 154.061 267.706 154.136C267.786 154.205 267.919 154.24 268.106 154.24H268.666V155H267.946C267.535 155 267.22 154.904 267.002 154.712C266.783 154.52 266.674 154.208 266.674 153.776V151.336H266.154V150.592H266.674V149.496H267.594V150.592H268.666V151.336H267.594ZM273.546 152.688C273.546 152.853 273.536 153.003 273.514 153.136H270.146C270.173 153.488 270.304 153.771 270.538 153.984C270.773 154.197 271.061 154.304 271.402 154.304C271.893 154.304 272.24 154.099 272.442 153.688H273.426C273.293 154.093 273.05 154.427 272.698 154.688C272.352 154.944 271.92 155.072 271.402 155.072C270.981 155.072 270.602 154.979 270.266 154.792C269.936 154.6 269.674 154.333 269.482 153.992C269.296 153.645 269.202 153.245 269.202 152.792C269.202 152.339 269.293 151.941 269.474 151.6C269.661 151.253 269.92 150.987 270.25 150.8C270.586 150.613 270.97 150.52 271.402 150.52C271.818 150.52 272.189 150.611 272.514 150.792C272.84 150.973 273.093 151.229 273.274 151.56C273.456 151.885 273.546 152.261 273.546 152.688ZM272.594 152.4C272.589 152.064 272.469 151.795 272.234 151.592C272 151.389 271.709 151.288 271.362 151.288C271.048 151.288 270.778 151.389 270.554 151.592C270.33 151.789 270.197 152.059 270.154 152.4H272.594ZM274.14 152.792C274.14 152.339 274.23 151.941 274.412 151.6C274.598 151.253 274.854 150.987 275.18 150.8C275.505 150.613 275.878 150.52 276.3 150.52C276.833 150.52 277.273 150.648 277.62 150.904C277.972 151.155 278.209 151.515 278.332 151.984H277.348C277.268 151.765 277.14 151.595 276.964 151.472C276.788 151.349 276.566 151.288 276.3 151.288C275.926 151.288 275.628 151.421 275.404 151.688C275.185 151.949 275.076 152.317 275.076 152.792C275.076 153.267 275.185 153.637 275.404 153.904C275.628 154.171 275.926 154.304 276.3 154.304C276.828 154.304 277.177 154.072 277.348 153.608H278.332C278.204 154.056 277.964 154.413 277.612 154.68C277.26 154.941 276.822 155.072 276.3 155.072C275.878 155.072 275.505 154.979 275.18 154.792C274.854 154.6 274.598 154.333 274.412 153.992C274.23 153.645 274.14 153.245 274.14 152.792ZM280.305 151.336V153.776C280.305 153.941 280.342 154.061 280.417 154.136C280.497 154.205 280.63 154.24 280.817 154.24H281.377V155H280.657C280.246 155 279.931 154.904 279.713 154.712C279.494 154.52 279.385 154.208 279.385 153.776V151.336H278.865V150.592H279.385V149.496H280.305V150.592H281.377V151.336H280.305ZM286.209 150.592V155H285.297V154.48C285.153 154.661 284.964 154.805 284.729 154.912C284.5 155.013 284.255 155.064 283.993 155.064C283.647 155.064 283.335 154.992 283.057 154.848C282.785 154.704 282.569 154.491 282.409 154.208C282.255 153.925 282.177 153.584 282.177 153.184V150.592H283.081V153.048C283.081 153.443 283.18 153.747 283.377 153.96C283.575 154.168 283.844 154.272 284.185 154.272C284.527 154.272 284.796 154.168 284.993 153.96C285.196 153.747 285.297 153.443 285.297 153.048V150.592H286.209ZM288.325 151.232C288.458 151.008 288.634 150.835 288.853 150.712C289.077 150.584 289.341 150.52 289.645 150.52V151.464H289.413C289.055 151.464 288.783 151.555 288.597 151.736C288.415 151.917 288.325 152.232 288.325 152.68V155H287.413V150.592H288.325V151.232ZM294.523 152.688C294.523 152.853 294.512 153.003 294.491 153.136H291.123C291.149 153.488 291.28 153.771 291.515 153.984C291.749 154.197 292.037 154.304 292.379 154.304C292.869 154.304 293.216 154.099 293.419 153.688H294.403C294.269 154.093 294.027 154.427 293.675 154.688C293.328 154.944 292.896 155.072 292.379 155.072C291.957 155.072 291.579 154.979 291.243 154.792C290.912 154.6 290.651 154.333 290.459 153.992C290.272 153.645 290.179 153.245 290.179 152.792C290.179 152.339 290.269 151.941 290.451 151.6C290.637 151.253 290.896 150.987 291.227 150.8C291.563 150.613 291.947 150.52 292.379 150.52C292.795 150.52 293.165 150.611 293.491 150.792C293.816 150.973 294.069 151.229 294.251 151.56C294.432 151.885 294.523 152.261 294.523 152.688ZM293.571 152.4C293.565 152.064 293.445 151.795 293.211 151.592C292.976 151.389 292.685 151.288 292.339 151.288C292.024 151.288 291.755 151.389 291.531 151.592C291.307 151.789 291.173 152.059 291.131 152.4H293.571Z" fill="#4F4D4D"/>
<path d="M58.5172 117.13C58.589 117.397 58.8633 117.555 59.13 117.483L63.4753 116.313C63.7419 116.241 63.8999 115.967 63.8281 115.7C63.7563 115.433 63.4819 115.276 63.2153 115.347L59.3528 116.387L58.3129 112.525C58.2411 112.258 57.9668 112.1 57.7001 112.172C57.4335 112.244 57.2755 112.518 57.3473 112.785L58.5172 117.13ZM96.5667 50.7505L58.5667 116.751L59.4333 117.249L97.4333 51.2495L96.5667 50.7505Z" fill="black"/>
<path d="M165.646 117.354C165.842 117.549 166.158 117.549 166.354 117.354L169.536 114.172C169.731 113.976 169.731 113.66 169.536 113.464C169.34 113.269 169.024 113.269 168.828 113.464L166 116.293L163.172 113.464C162.976 113.269 162.66 113.269 162.464 113.464C162.269 113.66 162.269 113.976 162.464 114.172L165.646 117.354ZM165.5 54L165.5 117L166.5 117L166.5 54L165.5 54Z" fill="black"/>
<path d="M260.809 117.462C261.064 117.568 261.357 117.446 261.462 117.191L263.18 113.032C263.285 112.776 263.164 112.484 262.909 112.379C262.654 112.273 262.361 112.395 262.256 112.65L260.729 116.347L257.032 114.82C256.776 114.715 256.484 114.836 256.379 115.091C256.273 115.346 256.395 115.639 256.65 115.744L260.809 117.462ZM233.538 52.1918L260.538 117.192L261.462 116.808L234.462 51.8082L233.538 52.1918Z" fill="black"/>
<defs>
<filter id="filter0_d_630_112" x="5" y="120" width="108" height="75" filterUnits="userSpaceOnUse" color-interpolation-filters="sRGB">
<feFlood flood-opacity="0" result="BackgroundImageFix"/>
<feColorMatrix in="SourceAlpha" type="matrix" values="0 0 0 0 0 0 0 0 0 0 0 0 0 0 0 0 0 0 127 0" result="hardAlpha"/>
<feOffset dy="12"/>
<feGaussianBlur stdDeviation="9"/>
<feComposite in2="hardAlpha" operator="out"/>
<feColorMatrix type="matrix" values="0 0 0 0 0.0196078 0 0 0 0 0.337255 0 0 0 0 0.952941 0 0 0 0.05 0"/>
<feBlend mode="normal" in2="BackgroundImageFix" result="effect1_dropShadow_630_112"/>
<feBlend mode="normal" in="SourceGraphic" in2="effect1_dropShadow_630_112" result="shape"/>
</filter>
<filter id="filter1_d_630_112" x="112" y="120" width="108" height="75" filterUnits="userSpaceOnUse" color-interpolation-filters="sRGB">
<feFlood flood-opacity="0" result="BackgroundImageFix"/>
<feColorMatrix in="SourceAlpha" type="matrix" values="0 0 0 0 0 0 0 0 0 0 0 0 0 0 0 0 0 0 127 0" result="hardAlpha"/>
<feOffset dy="12"/>
<feGaussianBlur stdDeviation="9"/>
<feComposite in2="hardAlpha" operator="out"/>
<feColorMatrix type="matrix" values="0 0 0 0 0.0196078 0 0 0 0 0.337255 0 0 0 0 0.952941 0 0 0 0.05 0"/>
<feBlend mode="normal" in2="BackgroundImageFix" result="effect1_dropShadow_630_112"/>
<feBlend mode="normal" in="SourceGraphic" in2="effect1_dropShadow_630_112" result="shape"/>
</filter>
<filter id="filter2_d_630_112" x="216" y="120" width="108" height="75" filterUnits="userSpaceOnUse" color-interpolation-filters="sRGB">
<feFlood flood-opacity="0" result="BackgroundImageFix"/>
<feColorMatrix in="SourceAlpha" type="matrix" values="0 0 0 0 0 0 0 0 0 0 0 0 0 0 0 0 0 0 127 0" result="hardAlpha"/>
<feOffset dy="12"/>
<feGaussianBlur stdDeviation="9"/>
<feComposite in2="hardAlpha" operator="out"/>
<feColorMatrix type="matrix" values="0 0 0 0 0.0196078 0 0 0 0 0.337255 0 0 0 0 0.952941 0 0 0 0.05 0"/>
<feBlend mode="normal" in2="BackgroundImageFix" result="effect1_dropShadow_630_112"/>
<feBlend mode="normal" in="SourceGraphic" in2="effect1_dropShadow_630_112" result="shape"/>
</filter>
</defs>
</svg>
