<svg width="652" height="112" viewBox="0 0 652 112" fill="none" xmlns="http://www.w3.org/2000/svg">
<rect width="652" height="112" fill="#F9FAFE"/>
<g filter="url(#filter0_d_530_10)">
<rect x="29" y="21" width="597" height="73" fill="#011627"/>
<path d="M52.3926 40.3574H49.2021V38.8213H54.2832V52.4424H57.4951V54H48.8477V52.4424H52.3926V40.3574ZM69.9238 48.0381C69.9238 48.3031 69.9202 48.5251 69.9131 48.7041C69.9059 48.8831 69.8952 49.0514 69.8809 49.209H62.3076C62.3076 50.3118 62.6156 51.1605 63.2314 51.7549C63.8473 52.3421 64.7354 52.6357 65.8955 52.6357C66.2106 52.6357 66.5257 52.625 66.8408 52.6035C67.1559 52.5749 67.4603 52.5391 67.7539 52.4961C68.0475 52.4531 68.3268 52.4066 68.5918 52.3564C68.8639 52.2992 69.1146 52.2383 69.3438 52.1738V53.71C68.8353 53.8532 68.2588 53.9678 67.6143 54.0537C66.9769 54.1468 66.3145 54.1934 65.627 54.1934C64.7031 54.1934 63.9082 54.068 63.2422 53.8174C62.5762 53.5667 62.0283 53.2051 61.5986 52.7324C61.1761 52.2526 60.861 51.6689 60.6533 50.9814C60.4528 50.2868 60.3525 49.5026 60.3525 48.6289C60.3525 47.8698 60.46 47.1536 60.6748 46.4805C60.8968 45.8001 61.2155 45.2057 61.6309 44.6973C62.0534 44.1816 62.569 43.7734 63.1777 43.4727C63.7865 43.1719 64.4775 43.0215 65.251 43.0215C66.0029 43.0215 66.6689 43.1396 67.249 43.376C67.8291 43.6123 68.3161 43.9489 68.71 44.3857C69.111 44.8154 69.4118 45.3418 69.6123 45.9648C69.82 46.5807 69.9238 47.2718 69.9238 48.0381ZM67.9795 47.7695C68.001 47.2897 67.9544 46.8529 67.8398 46.459C67.7253 46.0579 67.5462 45.7142 67.3027 45.4277C67.0664 45.1413 66.7692 44.9193 66.4111 44.7617C66.0531 44.597 65.6377 44.5146 65.165 44.5146C64.7568 44.5146 64.3844 44.5934 64.0479 44.751C63.7113 44.9085 63.4212 45.1305 63.1777 45.417C62.9342 45.7035 62.7373 46.0472 62.5869 46.4482C62.4365 46.8493 62.3434 47.2897 62.3076 47.7695H67.9795ZM81.6006 53.8496C81.1781 53.957 80.7412 54.0322 80.29 54.0752C79.8389 54.1253 79.3805 54.1504 78.915 54.1504C77.5615 54.1504 76.5518 53.846 75.8857 53.2373C75.2197 52.6214 74.8867 51.6797 74.8867 50.4121V44.7832H71.8682V43.2148H74.8867V40.25L76.7559 39.7666V43.2148H81.6006V44.7832H76.7559V50.2617C76.7559 51.0352 76.96 51.6152 77.3682 52.002C77.7835 52.3815 78.3923 52.5713 79.1943 52.5713C79.5381 52.5713 79.9141 52.5462 80.3223 52.4961C80.7305 52.4388 81.1566 52.3529 81.6006 52.2383V53.8496ZM154.433 47.0605H145.194V45.4814H154.433V47.0605ZM154.433 50.7988H145.194V49.2197H154.433V50.7988ZM52.3926 66.3574H49.2021V64.8213H54.2832V78.4424H57.4951V80H48.8477V78.4424H52.3926V66.3574ZM69.9238 74.0381C69.9238 74.3031 69.9202 74.5251 69.9131 74.7041C69.9059 74.8831 69.8952 75.0514 69.8809 75.209H62.3076C62.3076 76.3118 62.6156 77.1605 63.2314 77.7549C63.8473 78.3421 64.7354 78.6357 65.8955 78.6357C66.2106 78.6357 66.5257 78.625 66.8408 78.6035C67.1559 78.5749 67.4603 78.5391 67.7539 78.4961C68.0475 78.4531 68.3268 78.4066 68.5918 78.3564C68.8639 78.2992 69.1146 78.2383 69.3438 78.1738V79.71C68.8353 79.8532 68.2588 79.9678 67.6143 80.0537C66.9769 80.1468 66.3145 80.1934 65.627 80.1934C64.7031 80.1934 63.9082 80.068 63.2422 79.8174C62.5762 79.5667 62.0283 79.2051 61.5986 78.7324C61.1761 78.2526 60.861 77.6689 60.6533 76.9814C60.4528 76.2868 60.3525 75.5026 60.3525 74.6289C60.3525 73.8698 60.46 73.1536 60.6748 72.4805C60.8968 71.8001 61.2155 71.2057 61.6309 70.6973C62.0534 70.1816 62.569 69.7734 63.1777 69.4727C63.7865 69.1719 64.4775 69.0215 65.251 69.0215C66.0029 69.0215 66.6689 69.1396 67.249 69.376C67.8291 69.6123 68.3161 69.9489 68.71 70.3857C69.111 70.8154 69.4118 71.3418 69.6123 71.9648C69.82 72.5807 69.9238 73.2718 69.9238 74.0381ZM67.9795 73.7695C68.001 73.2897 67.9544 72.8529 67.8398 72.459C67.7253 72.0579 67.5462 71.7142 67.3027 71.4277C67.0664 71.1413 66.7692 70.9193 66.4111 70.7617C66.0531 70.597 65.6377 70.5146 65.165 70.5146C64.7568 70.5146 64.3844 70.5934 64.0479 70.751C63.7113 70.9085 63.4212 71.1305 63.1777 71.417C62.9342 71.7035 62.7373 72.0472 62.5869 72.4482C62.4365 72.8493 62.3434 73.2897 62.3076 73.7695H67.9795ZM81.6006 79.8496C81.1781 79.957 80.7412 80.0322 80.29 80.0752C79.8389 80.1253 79.3805 80.1504 78.915 80.1504C77.5615 80.1504 76.5518 79.846 75.8857 79.2373C75.2197 78.6214 74.8867 77.6797 74.8867 76.4121V70.7832H71.8682V69.2148H74.8867V66.25L76.7559 65.7666V69.2148H81.6006V70.7832H76.7559V76.2617C76.7559 77.0352 76.96 77.6152 77.3682 78.002C77.7835 78.3815 78.3923 78.5713 79.1943 78.5713C79.5381 78.5713 79.9141 78.5462 80.3223 78.4961C80.7305 78.4388 81.1566 78.3529 81.6006 78.2383V79.8496ZM154.433 73.0605H145.194V71.4814H154.433V73.0605ZM154.433 76.7988H145.194V75.2197H154.433V76.7988Z" fill="#C792EA"/>
<path d="M105.771 54H104.095L104.03 52.2598C103.708 52.6322 103.4 52.9437 103.106 53.1943C102.82 53.4378 102.534 53.6348 102.247 53.7852C101.961 53.9355 101.671 54.0394 101.377 54.0967C101.09 54.1611 100.786 54.1934 100.464 54.1934C99.3538 54.1934 98.516 53.8675 97.9502 53.2158C97.3844 52.5641 97.1016 51.5794 97.1016 50.2617V43.2148H98.9707V50.1113C98.9707 51.7656 99.5938 52.5928 100.84 52.5928C101.069 52.5928 101.291 52.5605 101.506 52.4961C101.728 52.4245 101.957 52.3063 102.193 52.1416C102.437 51.9697 102.695 51.7406 102.967 51.4541C103.246 51.1676 103.558 50.806 103.901 50.3691V43.2148H105.771V54ZM109.638 43.2148H111.346L111.399 45.2021C112.037 44.4359 112.663 43.8809 113.279 43.5371C113.902 43.1934 114.529 43.0215 115.159 43.0215C116.276 43.0215 117.121 43.3831 117.694 44.1064C118.274 44.8298 118.543 45.904 118.5 47.3291H116.609C116.631 46.3838 116.491 45.6999 116.19 45.2773C115.897 44.8477 115.464 44.6328 114.891 44.6328C114.64 44.6328 114.386 44.6794 114.128 44.7725C113.877 44.8584 113.616 45.0016 113.344 45.2021C113.079 45.3955 112.796 45.6462 112.495 45.9541C112.194 46.262 111.872 46.6344 111.528 47.0713V54H109.638V43.2148ZM124.967 40.3574H121.776V38.8213H126.857V52.4424H130.069V54H121.422V52.4424H124.967V40.3574ZM105.771 80H104.095L104.03 78.2598C103.708 78.6322 103.4 78.9437 103.106 79.1943C102.82 79.4378 102.534 79.6348 102.247 79.7852C101.961 79.9355 101.671 80.0394 101.377 80.0967C101.09 80.1611 100.786 80.1934 100.464 80.1934C99.3538 80.1934 98.516 79.8675 97.9502 79.2158C97.3844 78.5641 97.1016 77.5794 97.1016 76.2617V69.2148H98.9707V76.1113C98.9707 77.7656 99.5938 78.5928 100.84 78.5928C101.069 78.5928 101.291 78.5605 101.506 78.4961C101.728 78.4245 101.957 78.3063 102.193 78.1416C102.437 77.9697 102.695 77.7406 102.967 77.4541C103.246 77.1676 103.558 76.806 103.901 76.3691V69.2148H105.771V80ZM109.638 69.2148H111.346L111.399 71.2021C112.037 70.4359 112.663 69.8809 113.279 69.5371C113.902 69.1934 114.529 69.0215 115.159 69.0215C116.276 69.0215 117.121 69.3831 117.694 70.1064C118.274 70.8298 118.543 71.904 118.5 73.3291H116.609C116.631 72.3838 116.491 71.6999 116.19 71.2773C115.897 70.8477 115.464 70.6328 114.891 70.6328C114.64 70.6328 114.386 70.6794 114.128 70.7725C113.877 70.8584 113.616 71.0016 113.344 71.2021C113.079 71.3955 112.796 71.6462 112.495 71.9541C112.194 72.262 111.872 72.6344 111.528 73.0713V80H109.638V69.2148ZM124.967 66.3574H121.776V64.8213H126.857V78.4424H130.069V80H121.422V78.4424H124.967V66.3574Z" fill="white"/>
<path d="M179.666 43.2148L178.098 54H175.831L174.273 49.4883L173.962 48.3926L173.607 49.5527L172.114 54H169.912L168.354 43.2148H170.181L171.083 50.541L171.276 52.1738L171.738 50.7451L173.307 45.9004H174.649L176.336 50.6807L176.819 52.1094L176.98 50.5947L177.818 43.2148H179.666ZM185.445 44.7617H182.255V43.2148H187.336V52.4424H190.548V54H181.9V52.4424H185.445V44.7617ZM186.101 38.6924C186.308 38.6924 186.502 38.7318 186.681 38.8105C186.86 38.8822 187.014 38.986 187.143 39.1221C187.279 39.2581 187.382 39.4157 187.454 39.5947C187.533 39.7666 187.572 39.9564 187.572 40.1641C187.572 40.3646 187.533 40.5544 187.454 40.7334C187.382 40.9124 187.279 41.07 187.143 41.2061C187.014 41.3421 186.86 41.4495 186.681 41.5283C186.502 41.5999 186.308 41.6357 186.101 41.6357C185.893 41.6357 185.7 41.5999 185.521 41.5283C185.341 41.4495 185.184 41.3421 185.048 41.2061C184.919 41.07 184.815 40.9124 184.736 40.7334C184.665 40.5544 184.629 40.3646 184.629 40.1641C184.629 39.9564 184.665 39.7666 184.736 39.5947C184.815 39.4157 184.919 39.2581 185.048 39.1221C185.184 38.986 185.341 38.8822 185.521 38.8105C185.7 38.7318 185.893 38.6924 186.101 38.6924ZM193.867 43.2148H195.532L195.607 44.9551C195.923 44.5827 196.227 44.2747 196.521 44.0312C196.814 43.7806 197.101 43.5801 197.38 43.4297C197.666 43.2793 197.956 43.1755 198.25 43.1182C198.544 43.0537 198.848 43.0215 199.163 43.0215C200.273 43.0215 201.111 43.3509 201.677 44.0098C202.25 44.6615 202.536 45.6462 202.536 46.9639V54H200.667V47.1143C200.667 46.2692 200.509 45.6462 200.194 45.2451C199.879 44.8369 199.41 44.6328 198.787 44.6328C198.558 44.6328 198.332 44.6686 198.11 44.7402C197.896 44.8047 197.67 44.9229 197.434 45.0947C197.197 45.2594 196.939 45.485 196.66 45.7715C196.388 46.0579 196.08 46.416 195.736 46.8457V54H193.867V43.2148ZM205.415 48.833C205.415 47.9163 205.54 47.1035 205.791 46.3945C206.042 45.6784 206.396 45.0768 206.854 44.5898C207.32 44.0957 207.875 43.7233 208.52 43.4727C209.171 43.2148 209.895 43.0859 210.689 43.0859C211.033 43.0859 211.37 43.1074 211.699 43.1504C212.036 43.1934 212.365 43.2614 212.688 43.3545V38.8213H214.567V54H212.892L212.827 51.959C212.304 52.7181 211.739 53.2803 211.13 53.6455C210.521 54.0107 209.862 54.1934 209.153 54.1934C208.537 54.1934 207.993 54.0645 207.521 53.8066C207.055 53.5488 206.665 53.1872 206.35 52.7217C206.042 52.249 205.809 51.6833 205.651 51.0244C205.494 50.3656 205.415 49.6351 205.415 48.833ZM207.327 48.7148C207.327 50.0182 207.517 50.9922 207.896 51.6367C208.283 52.2741 208.827 52.5928 209.529 52.5928C210.002 52.5928 210.5 52.3815 211.022 51.959C211.552 51.5365 212.107 50.9098 212.688 50.0791V45.0732C212.38 44.93 212.039 44.8226 211.667 44.751C211.295 44.6722 210.926 44.6328 210.561 44.6328C209.544 44.6328 208.749 44.9622 208.176 45.6211C207.61 46.2799 207.327 47.3112 207.327 48.7148ZM227.447 48.5215C227.447 49.3594 227.329 50.1292 227.093 50.8311C226.856 51.5257 226.516 52.1237 226.072 52.625C225.628 53.1191 225.088 53.5059 224.45 53.7852C223.813 54.0573 223.09 54.1934 222.28 54.1934C221.507 54.1934 220.812 54.0752 220.196 53.8389C219.588 53.5954 219.068 53.2409 218.639 52.7754C218.216 52.3099 217.89 51.7334 217.661 51.0459C217.439 50.3584 217.328 49.5671 217.328 48.6719C217.328 47.834 217.446 47.0713 217.683 46.3838C217.919 45.6891 218.259 45.0947 218.703 44.6006C219.147 44.0993 219.688 43.7126 220.325 43.4404C220.963 43.1611 221.686 43.0215 222.495 43.0215C223.269 43.0215 223.96 43.1432 224.568 43.3867C225.184 43.623 225.703 43.974 226.126 44.4395C226.556 44.8978 226.882 45.4707 227.104 46.1582C227.333 46.8457 227.447 47.6335 227.447 48.5215ZM225.535 48.6074C225.535 47.9414 225.46 47.3613 225.31 46.8672C225.166 46.3659 224.959 45.9505 224.687 45.6211C224.414 45.2845 224.081 45.0339 223.688 44.8691C223.301 44.6973 222.868 44.6113 222.388 44.6113C221.829 44.6113 221.349 44.7223 220.948 44.9443C220.554 45.1592 220.229 45.4492 219.971 45.8145C219.72 46.1797 219.534 46.6058 219.412 47.0928C219.298 47.5726 219.24 48.0775 219.24 48.6074C219.24 49.2734 219.312 49.8571 219.455 50.3584C219.605 50.8597 219.817 51.2786 220.089 51.6152C220.361 51.9447 220.69 52.1953 221.077 52.3672C221.464 52.5319 221.901 52.6143 222.388 52.6143C222.946 52.6143 223.423 52.5068 223.816 52.292C224.217 52.07 224.543 51.7764 224.794 51.4111C225.052 51.0459 225.238 50.6234 225.353 50.1436C225.474 49.6566 225.535 49.1445 225.535 48.6074ZM240.145 43.2148L238.576 54H236.31L234.752 49.4883L234.44 48.3926L234.086 49.5527L232.593 54H230.391L228.833 43.2148H230.659L231.562 50.541L231.755 52.1738L232.217 50.7451L233.785 45.9004H235.128L236.814 50.6807L237.298 52.1094L237.459 50.5947L238.297 43.2148H240.145ZM246.493 50.6162C246.737 50.6162 246.966 50.6628 247.181 50.7559C247.403 50.849 247.592 50.9779 247.75 51.1426C247.915 51.3073 248.044 51.5007 248.137 51.7227C248.23 51.9375 248.276 52.1702 248.276 52.4209C248.276 52.6644 248.23 52.8936 248.137 53.1084C248.044 53.3232 247.915 53.513 247.75 53.6777C247.592 53.8353 247.403 53.9606 247.181 54.0537C246.966 54.1468 246.737 54.1934 246.493 54.1934C246.243 54.1934 246.01 54.1468 245.795 54.0537C245.58 53.9606 245.39 53.8353 245.226 53.6777C245.068 53.513 244.943 53.3232 244.85 53.1084C244.757 52.8936 244.71 52.6644 244.71 52.4209C244.71 52.1702 244.757 51.9375 244.85 51.7227C244.943 51.5007 245.068 51.3073 245.226 51.1426C245.39 50.9779 245.58 50.849 245.795 50.7559C246.01 50.6628 246.243 50.6162 246.493 50.6162ZM355.354 50.6162C355.598 50.6162 355.827 50.6628 356.042 50.7559C356.264 50.849 356.454 50.9779 356.611 51.1426C356.776 51.3073 356.905 51.5007 356.998 51.7227C357.091 51.9375 357.138 52.1702 357.138 52.4209C357.138 52.6644 357.091 52.8936 356.998 53.1084C356.905 53.3232 356.776 53.513 356.611 53.6777C356.454 53.8353 356.264 53.9606 356.042 54.0537C355.827 54.1468 355.598 54.1934 355.354 54.1934C355.104 54.1934 354.871 54.1468 354.656 54.0537C354.441 53.9606 354.252 53.8353 354.087 53.6777C353.929 53.513 353.804 53.3232 353.711 53.1084C353.618 52.8936 353.571 52.6644 353.571 52.4209C353.571 52.1702 353.618 51.9375 353.711 51.7227C353.804 51.5007 353.929 51.3073 354.087 51.1426C354.252 50.9779 354.441 50.849 354.656 50.7559C354.871 50.6628 355.104 50.6162 355.354 50.6162ZM412.557 56.2021C412.922 56.2165 413.276 56.1842 413.62 56.1055C413.964 56.0267 414.265 55.9085 414.522 55.751C414.787 55.6006 414.999 55.4108 415.156 55.1816C415.314 54.9525 415.393 54.6911 415.393 54.3975C415.393 54.0967 415.339 53.8532 415.231 53.667C415.131 53.4808 415.017 53.3089 414.888 53.1514C414.759 52.9938 414.641 52.8255 414.533 52.6465C414.433 52.4674 414.383 52.2275 414.383 51.9268C414.383 51.7764 414.411 51.6188 414.469 51.4541C414.526 51.2894 414.612 51.139 414.727 51.0029C414.848 50.8669 414.999 50.7559 415.178 50.6699C415.364 50.584 415.582 50.541 415.833 50.541C416.084 50.541 416.324 50.5947 416.553 50.7021C416.789 50.8024 416.993 50.96 417.165 51.1748C417.344 51.3896 417.484 51.6582 417.584 51.9805C417.691 52.3027 417.745 52.6823 417.745 53.1191C417.745 53.7135 417.634 54.2829 417.412 54.8271C417.197 55.3786 416.871 55.8656 416.435 56.2881C416.005 56.7106 415.464 57.0472 414.812 57.2979C414.168 57.5485 413.416 57.6738 412.557 57.6738V56.2021ZM415.919 43.0215C416.141 43.0215 416.352 43.068 416.553 43.1611C416.753 43.2471 416.929 43.3652 417.079 43.5156C417.229 43.666 417.348 43.8415 417.434 44.042C417.527 44.2425 417.573 44.4538 417.573 44.6758C417.573 44.9049 417.527 45.1198 417.434 45.3203C417.348 45.5137 417.229 45.6855 417.079 45.8359C416.929 45.9863 416.753 46.1045 416.553 46.1904C416.352 46.2764 416.141 46.3193 415.919 46.3193C415.69 46.3193 415.475 46.2764 415.274 46.1904C415.081 46.1045 414.909 45.9863 414.759 45.8359C414.608 45.6855 414.49 45.5137 414.404 45.3203C414.318 45.1198 414.275 44.9049 414.275 44.6758C414.275 44.4538 414.318 44.2425 414.404 44.042C414.49 43.8415 414.608 43.666 414.759 43.5156C414.909 43.3652 415.081 43.2471 415.274 43.1611C415.475 43.068 415.69 43.0215 415.919 43.0215ZM270.685 76.6162C270.928 76.6162 271.157 76.6628 271.372 76.7559C271.594 76.849 271.784 76.9779 271.941 77.1426C272.106 77.3073 272.235 77.5007 272.328 77.7227C272.421 77.9375 272.468 78.1702 272.468 78.4209C272.468 78.6644 272.421 78.8936 272.328 79.1084C272.235 79.3232 272.106 79.513 271.941 79.6777C271.784 79.8353 271.594 79.9606 271.372 80.0537C271.157 80.1468 270.928 80.1934 270.685 80.1934C270.434 80.1934 270.201 80.1468 269.986 80.0537C269.771 79.9606 269.582 79.8353 269.417 79.6777C269.259 79.513 269.134 79.3232 269.041 79.1084C268.948 78.8936 268.901 78.6644 268.901 78.4209C268.901 78.1702 268.948 77.9375 269.041 77.7227C269.134 77.5007 269.259 77.3073 269.417 77.1426C269.582 76.9779 269.771 76.849 269.986 76.7559C270.201 76.6628 270.434 76.6162 270.685 76.6162ZM327.887 82.2021C328.252 82.2165 328.606 82.1842 328.95 82.1055C329.294 82.0267 329.595 81.9085 329.853 81.751C330.118 81.6006 330.329 81.4108 330.486 81.1816C330.644 80.9525 330.723 80.6911 330.723 80.3975C330.723 80.0967 330.669 79.8532 330.562 79.667C330.461 79.4808 330.347 79.3089 330.218 79.1514C330.089 78.9938 329.971 78.8255 329.863 78.6465C329.763 78.4674 329.713 78.2275 329.713 77.9268C329.713 77.7764 329.742 77.6188 329.799 77.4541C329.856 77.2894 329.942 77.139 330.057 77.0029C330.178 76.8669 330.329 76.7559 330.508 76.6699C330.694 76.584 330.912 76.541 331.163 76.541C331.414 76.541 331.654 76.5947 331.883 76.7021C332.119 76.8024 332.323 76.96 332.495 77.1748C332.674 77.3896 332.814 77.6582 332.914 77.9805C333.021 78.3027 333.075 78.6823 333.075 79.1191C333.075 79.7135 332.964 80.2829 332.742 80.8271C332.527 81.3786 332.201 81.8656 331.765 82.2881C331.335 82.7106 330.794 83.0472 330.143 83.2979C329.498 83.5485 328.746 83.6738 327.887 83.6738V82.2021ZM331.249 69.0215C331.471 69.0215 331.682 69.068 331.883 69.1611C332.083 69.2471 332.259 69.3652 332.409 69.5156C332.56 69.666 332.678 69.8415 332.764 70.042C332.857 70.2425 332.903 70.4538 332.903 70.6758C332.903 70.9049 332.857 71.1198 332.764 71.3203C332.678 71.5137 332.56 71.6855 332.409 71.8359C332.259 71.9863 332.083 72.1045 331.883 72.1904C331.682 72.2764 331.471 72.3193 331.249 72.3193C331.02 72.3193 330.805 72.2764 330.604 72.1904C330.411 72.1045 330.239 71.9863 330.089 71.8359C329.938 71.6855 329.82 71.5137 329.734 71.3203C329.648 71.1198 329.605 70.9049 329.605 70.6758C329.605 70.4538 329.648 70.2425 329.734 70.042C329.82 69.8415 329.938 69.666 330.089 69.5156C330.239 69.3652 330.411 69.2471 330.604 69.1611C330.805 69.068 331.02 69.0215 331.249 69.0215Z" fill="#F78C6C"/>
<path d="M253.798 48.833C253.798 47.9163 253.923 47.1035 254.174 46.3945C254.424 45.6784 254.779 45.0768 255.237 44.5898C255.703 44.0957 256.258 43.7233 256.902 43.4727C257.554 43.2148 258.277 43.0859 259.072 43.0859C259.416 43.0859 259.753 43.1074 260.082 43.1504C260.419 43.1934 260.748 43.2614 261.07 43.3545V38.8213H262.95V54H261.274L261.21 51.959C260.687 52.7181 260.121 53.2803 259.513 53.6455C258.904 54.0107 258.245 54.1934 257.536 54.1934C256.92 54.1934 256.376 54.0645 255.903 53.8066C255.438 53.5488 255.048 53.1872 254.732 52.7217C254.424 52.249 254.192 51.6833 254.034 51.0244C253.877 50.3656 253.798 49.6351 253.798 48.833ZM255.71 48.7148C255.71 50.0182 255.9 50.9922 256.279 51.6367C256.666 52.2741 257.21 52.5928 257.912 52.5928C258.385 52.5928 258.882 52.3815 259.405 51.959C259.935 51.5365 260.49 50.9098 261.07 50.0791V45.0732C260.762 44.93 260.422 44.8226 260.05 44.751C259.677 44.6722 259.309 44.6328 258.943 44.6328C257.926 44.6328 257.132 44.9622 256.559 45.6211C255.993 46.2799 255.71 47.3112 255.71 48.7148ZM275.83 48.5215C275.83 49.3594 275.712 50.1292 275.476 50.8311C275.239 51.5257 274.899 52.1237 274.455 52.625C274.011 53.1191 273.47 53.5059 272.833 53.7852C272.196 54.0573 271.472 54.1934 270.663 54.1934C269.89 54.1934 269.195 54.0752 268.579 53.8389C267.97 53.5954 267.451 53.2409 267.021 52.7754C266.599 52.3099 266.273 51.7334 266.044 51.0459C265.822 50.3584 265.711 49.5671 265.711 48.6719C265.711 47.834 265.829 47.0713 266.065 46.3838C266.302 45.6891 266.642 45.0947 267.086 44.6006C267.53 44.0993 268.071 43.7126 268.708 43.4404C269.345 43.1611 270.069 43.0215 270.878 43.0215C271.651 43.0215 272.342 43.1432 272.951 43.3867C273.567 43.623 274.086 43.974 274.509 44.4395C274.938 44.8978 275.264 45.4707 275.486 46.1582C275.715 46.8457 275.83 47.6335 275.83 48.5215ZM273.918 48.6074C273.918 47.9414 273.843 47.3613 273.692 46.8672C273.549 46.3659 273.341 45.9505 273.069 45.6211C272.797 45.2845 272.464 45.0339 272.07 44.8691C271.684 44.6973 271.25 44.6113 270.771 44.6113C270.212 44.6113 269.732 44.7223 269.331 44.9443C268.937 45.1592 268.611 45.4492 268.354 45.8145C268.103 46.1797 267.917 46.6058 267.795 47.0928C267.68 47.5726 267.623 48.0775 267.623 48.6074C267.623 49.2734 267.695 49.8571 267.838 50.3584C267.988 50.8597 268.2 51.2786 268.472 51.6152C268.744 51.9447 269.073 52.1953 269.46 52.3672C269.847 52.5319 270.284 52.6143 270.771 52.6143C271.329 52.6143 271.805 52.5068 272.199 52.292C272.6 52.07 272.926 51.7764 273.177 51.4111C273.435 51.0459 273.621 50.6234 273.735 50.1436C273.857 49.6566 273.918 49.1445 273.918 48.6074ZM286.916 53.6025C286.429 53.7887 285.928 53.9248 285.412 54.0107C284.904 54.1038 284.377 54.1504 283.833 54.1504C282.129 54.1504 280.814 53.6885 279.891 52.7646C278.974 51.8408 278.516 50.4909 278.516 48.7148C278.516 47.8626 278.648 47.0892 278.913 46.3945C279.178 45.6999 279.55 45.1055 280.03 44.6113C280.51 44.1172 281.083 43.7376 281.749 43.4727C282.415 43.2005 283.149 43.0645 283.951 43.0645C284.51 43.0645 285.033 43.1038 285.52 43.1826C286.007 43.2614 286.472 43.3903 286.916 43.5693V45.3525C286.451 45.109 285.974 44.9336 285.487 44.8262C285.007 44.7116 284.51 44.6543 283.994 44.6543C283.514 44.6543 283.06 44.7474 282.63 44.9336C282.207 45.1126 281.835 45.374 281.513 45.7178C281.19 46.0615 280.936 46.4805 280.75 46.9746C280.564 47.4688 280.471 48.0273 280.471 48.6504C280.471 49.9538 280.786 50.9313 281.416 51.583C282.053 52.2275 282.934 52.5498 284.059 52.5498C284.567 52.5498 285.058 52.4925 285.53 52.3779C286.01 52.2633 286.472 52.0915 286.916 51.8623V53.6025ZM299.302 54H297.626L297.562 52.2598C297.239 52.6322 296.931 52.9437 296.638 53.1943C296.351 53.4378 296.065 53.6348 295.778 53.7852C295.492 53.9355 295.202 54.0394 294.908 54.0967C294.622 54.1611 294.317 54.1934 293.995 54.1934C292.885 54.1934 292.047 53.8675 291.481 53.2158C290.916 52.5641 290.633 51.5794 290.633 50.2617V43.2148H292.502V50.1113C292.502 51.7656 293.125 52.5928 294.371 52.5928C294.6 52.5928 294.822 52.5605 295.037 52.4961C295.259 52.4245 295.488 52.3063 295.725 52.1416C295.968 51.9697 296.226 51.7406 296.498 51.4541C296.777 51.1676 297.089 50.806 297.433 50.3691V43.2148H299.302V54ZM310.42 54V46.2549C310.42 45.9183 310.406 45.6426 310.377 45.4277C310.355 45.2129 310.316 45.0446 310.259 44.9229C310.209 44.7939 310.141 44.7044 310.055 44.6543C309.976 44.6042 309.876 44.5791 309.754 44.5791C309.611 44.5791 309.478 44.6221 309.356 44.708C309.235 44.7939 309.102 44.9336 308.959 45.127C308.823 45.3203 308.669 45.5781 308.497 45.9004C308.332 46.2155 308.135 46.6058 307.906 47.0713V54H306.198V46.459C306.198 46.0651 306.184 45.7464 306.155 45.5029C306.134 45.2594 306.094 45.0697 306.037 44.9336C305.987 44.7975 305.919 44.7044 305.833 44.6543C305.747 44.6042 305.643 44.5791 305.521 44.5791C305.393 44.5791 305.271 44.6149 305.156 44.6865C305.042 44.7581 304.913 44.887 304.77 45.0732C304.633 45.2594 304.479 45.5137 304.308 45.8359C304.136 46.1582 303.932 46.57 303.695 47.0713V54H301.977V43.2148H303.405L303.491 45.2666C303.677 44.8584 303.856 44.5111 304.028 44.2246C304.207 43.9382 304.39 43.709 304.576 43.5371C304.762 43.3581 304.959 43.2292 305.167 43.1504C305.382 43.0645 305.618 43.0215 305.876 43.0215C306.456 43.0215 306.896 43.2113 307.197 43.5908C307.498 43.9704 307.648 44.5576 307.648 45.3525C307.82 44.9801 307.989 44.6507 308.153 44.3643C308.318 44.0706 308.493 43.8271 308.68 43.6338C308.873 43.4333 309.084 43.2829 309.313 43.1826C309.543 43.0752 309.808 43.0215 310.108 43.0215C311.462 43.0215 312.139 44.0635 312.139 46.1475V54H310.42ZM323.934 48.0381C323.934 48.3031 323.93 48.5251 323.923 48.7041C323.916 48.8831 323.905 49.0514 323.891 49.209H316.317C316.317 50.3118 316.625 51.1605 317.241 51.7549C317.857 52.3421 318.745 52.6357 319.905 52.6357C320.22 52.6357 320.535 52.625 320.851 52.6035C321.166 52.5749 321.47 52.5391 321.764 52.4961C322.057 52.4531 322.337 52.4066 322.602 52.3564C322.874 52.2992 323.124 52.2383 323.354 52.1738V53.71C322.845 53.8532 322.269 53.9678 321.624 54.0537C320.987 54.1468 320.324 54.1934 319.637 54.1934C318.713 54.1934 317.918 54.068 317.252 53.8174C316.586 53.5667 316.038 53.2051 315.608 52.7324C315.186 52.2526 314.871 51.6689 314.663 50.9814C314.463 50.2868 314.362 49.5026 314.362 48.6289C314.362 47.8698 314.47 47.1536 314.685 46.4805C314.907 45.8001 315.225 45.2057 315.641 44.6973C316.063 44.1816 316.579 43.7734 317.188 43.4727C317.796 43.1719 318.487 43.0215 319.261 43.0215C320.013 43.0215 320.679 43.1396 321.259 43.376C321.839 43.6123 322.326 43.9489 322.72 44.3857C323.121 44.8154 323.422 45.3418 323.622 45.9648C323.83 46.5807 323.934 47.2718 323.934 48.0381ZM321.989 47.7695C322.011 47.2897 321.964 46.8529 321.85 46.459C321.735 46.0579 321.556 45.7142 321.312 45.4277C321.076 45.1413 320.779 44.9193 320.421 44.7617C320.063 44.597 319.647 44.5146 319.175 44.5146C318.767 44.5146 318.394 44.5934 318.058 44.751C317.721 44.9085 317.431 45.1305 317.188 45.417C316.944 45.7035 316.747 46.0472 316.597 46.4482C316.446 46.8493 316.353 47.2897 316.317 47.7695H321.989ZM326.92 43.2148H328.585L328.66 44.9551C328.975 44.5827 329.28 44.2747 329.573 44.0312C329.867 43.7806 330.153 43.5801 330.433 43.4297C330.719 43.2793 331.009 43.1755 331.303 43.1182C331.596 43.0537 331.901 43.0215 332.216 43.0215C333.326 43.0215 334.164 43.3509 334.729 44.0098C335.302 44.6615 335.589 45.6462 335.589 46.9639V54H333.72V47.1143C333.72 46.2692 333.562 45.6462 333.247 45.2451C332.932 44.8369 332.463 44.6328 331.84 44.6328C331.611 44.6328 331.385 44.6686 331.163 44.7402C330.948 44.8047 330.723 44.9229 330.486 45.0947C330.25 45.2594 329.992 45.485 329.713 45.7715C329.441 46.0579 329.133 46.416 328.789 46.8457V54H326.92V43.2148ZM347.706 53.8496C347.284 53.957 346.847 54.0322 346.396 54.0752C345.944 54.1253 345.486 54.1504 345.021 54.1504C343.667 54.1504 342.657 53.846 341.991 53.2373C341.325 52.6214 340.992 51.6797 340.992 50.4121V44.7832H337.974V43.2148H340.992V40.25L342.861 39.7666V43.2148H347.706V44.7832H342.861V50.2617C342.861 51.0352 343.065 51.6152 343.474 52.002C343.889 52.3815 344.498 52.5713 345.3 52.5713C345.644 52.5713 346.02 52.5462 346.428 52.4961C346.836 52.4388 347.262 52.3529 347.706 52.2383V53.8496ZM169.128 74.833C169.128 73.9163 169.253 73.1035 169.504 72.3945C169.755 71.6784 170.109 71.0768 170.567 70.5898C171.033 70.0957 171.588 69.7233 172.232 69.4727C172.884 69.2148 173.607 69.0859 174.402 69.0859C174.746 69.0859 175.083 69.1074 175.412 69.1504C175.749 69.1934 176.078 69.2614 176.4 69.3545V64.8213H178.28V80H176.604L176.54 77.959C176.017 78.7181 175.451 79.2803 174.843 79.6455C174.234 80.0107 173.575 80.1934 172.866 80.1934C172.25 80.1934 171.706 80.0645 171.233 79.8066C170.768 79.5488 170.378 79.1872 170.062 78.7217C169.755 78.249 169.522 77.6833 169.364 77.0244C169.207 76.3656 169.128 75.6351 169.128 74.833ZM171.04 74.7148C171.04 76.0182 171.23 76.9922 171.609 77.6367C171.996 78.2741 172.54 78.5928 173.242 78.5928C173.715 78.5928 174.213 78.3815 174.735 77.959C175.265 77.5365 175.82 76.9098 176.4 76.0791V71.0732C176.092 70.93 175.752 70.8226 175.38 70.751C175.007 70.6722 174.639 70.6328 174.273 70.6328C173.257 70.6328 172.462 70.9622 171.889 71.6211C171.323 72.2799 171.04 73.3112 171.04 74.7148ZM191.16 74.5215C191.16 75.3594 191.042 76.1292 190.806 76.8311C190.569 77.5257 190.229 78.1237 189.785 78.625C189.341 79.1191 188.8 79.5059 188.163 79.7852C187.526 80.0573 186.802 80.1934 185.993 80.1934C185.22 80.1934 184.525 80.0752 183.909 79.8389C183.3 79.5954 182.781 79.2409 182.352 78.7754C181.929 78.3099 181.603 77.7334 181.374 77.0459C181.152 76.3584 181.041 75.5671 181.041 74.6719C181.041 73.834 181.159 73.0713 181.396 72.3838C181.632 71.6891 181.972 71.0947 182.416 70.6006C182.86 70.0993 183.401 69.7126 184.038 69.4404C184.675 69.1611 185.399 69.0215 186.208 69.0215C186.981 69.0215 187.673 69.1432 188.281 69.3867C188.897 69.623 189.416 69.974 189.839 70.4395C190.269 70.8978 190.594 71.4707 190.816 72.1582C191.046 72.8457 191.16 73.6335 191.16 74.5215ZM189.248 74.6074C189.248 73.9414 189.173 73.3613 189.022 72.8672C188.879 72.3659 188.672 71.9505 188.399 71.6211C188.127 71.2845 187.794 71.0339 187.4 70.8691C187.014 70.6973 186.58 70.6113 186.101 70.6113C185.542 70.6113 185.062 70.7223 184.661 70.9443C184.267 71.1592 183.941 71.4492 183.684 71.8145C183.433 72.1797 183.247 72.6058 183.125 73.0928C183.01 73.5726 182.953 74.0775 182.953 74.6074C182.953 75.2734 183.025 75.8571 183.168 76.3584C183.318 76.8597 183.53 77.2786 183.802 77.6152C184.074 77.9447 184.403 78.1953 184.79 78.3672C185.177 78.5319 185.614 78.6143 186.101 78.6143C186.659 78.6143 187.135 78.5068 187.529 78.292C187.93 78.07 188.256 77.7764 188.507 77.4111C188.765 77.0459 188.951 76.6234 189.065 76.1436C189.187 75.6566 189.248 75.1445 189.248 74.6074ZM202.246 79.6025C201.759 79.7887 201.258 79.9248 200.742 80.0107C200.234 80.1038 199.707 80.1504 199.163 80.1504C197.459 80.1504 196.145 79.6885 195.221 78.7646C194.304 77.8408 193.846 76.4909 193.846 74.7148C193.846 73.8626 193.978 73.0892 194.243 72.3945C194.508 71.6999 194.881 71.1055 195.36 70.6113C195.84 70.1172 196.413 69.7376 197.079 69.4727C197.745 69.2005 198.479 69.0645 199.281 69.0645C199.84 69.0645 200.363 69.1038 200.85 69.1826C201.337 69.2614 201.802 69.3903 202.246 69.5693V71.3525C201.781 71.109 201.304 70.9336 200.817 70.8262C200.338 70.7116 199.84 70.6543 199.324 70.6543C198.844 70.6543 198.39 70.7474 197.96 70.9336C197.537 71.1126 197.165 71.374 196.843 71.7178C196.521 72.0615 196.266 72.4805 196.08 72.9746C195.894 73.4688 195.801 74.0273 195.801 74.6504C195.801 75.9538 196.116 76.9313 196.746 77.583C197.383 78.2275 198.264 78.5498 199.389 78.5498C199.897 78.5498 200.388 78.4925 200.86 78.3779C201.34 78.2633 201.802 78.0915 202.246 77.8623V79.6025ZM214.632 80H212.956L212.892 78.2598C212.569 78.6322 212.261 78.9437 211.968 79.1943C211.681 79.4378 211.395 79.6348 211.108 79.7852C210.822 79.9355 210.532 80.0394 210.238 80.0967C209.952 80.1611 209.647 80.1934 209.325 80.1934C208.215 80.1934 207.377 79.8675 206.812 79.2158C206.246 78.5641 205.963 77.5794 205.963 76.2617V69.2148H207.832V76.1113C207.832 77.7656 208.455 78.5928 209.701 78.5928C209.93 78.5928 210.152 78.5605 210.367 78.4961C210.589 78.4245 210.818 78.3063 211.055 78.1416C211.298 77.9697 211.556 77.7406 211.828 77.4541C212.107 77.1676 212.419 76.806 212.763 76.3691V69.2148H214.632V80ZM225.75 80V72.2549C225.75 71.9183 225.736 71.6426 225.707 71.4277C225.686 71.2129 225.646 71.0446 225.589 70.9229C225.539 70.7939 225.471 70.7044 225.385 70.6543C225.306 70.6042 225.206 70.5791 225.084 70.5791C224.941 70.5791 224.808 70.6221 224.687 70.708C224.565 70.7939 224.432 70.9336 224.289 71.127C224.153 71.3203 223.999 71.5781 223.827 71.9004C223.662 72.2155 223.465 72.6058 223.236 73.0713V80H221.528V72.459C221.528 72.0651 221.514 71.7464 221.485 71.5029C221.464 71.2594 221.424 71.0697 221.367 70.9336C221.317 70.7975 221.249 70.7044 221.163 70.6543C221.077 70.6042 220.973 70.5791 220.852 70.5791C220.723 70.5791 220.601 70.6149 220.486 70.6865C220.372 70.7581 220.243 70.887 220.1 71.0732C219.964 71.2594 219.81 71.5137 219.638 71.8359C219.466 72.1582 219.262 72.57 219.025 73.0713V80H217.307V69.2148H218.735L218.821 71.2666C219.007 70.8584 219.187 70.5111 219.358 70.2246C219.537 69.9382 219.72 69.709 219.906 69.5371C220.092 69.3581 220.289 69.2292 220.497 69.1504C220.712 69.0645 220.948 69.0215 221.206 69.0215C221.786 69.0215 222.227 69.2113 222.527 69.5908C222.828 69.9704 222.979 70.5576 222.979 71.3525C223.15 70.9801 223.319 70.6507 223.483 70.3643C223.648 70.0706 223.824 69.8271 224.01 69.6338C224.203 69.4333 224.414 69.2829 224.644 69.1826C224.873 69.0752 225.138 69.0215 225.438 69.0215C226.792 69.0215 227.469 70.0635 227.469 72.1475V80H225.75ZM239.264 74.0381C239.264 74.3031 239.26 74.5251 239.253 74.7041C239.246 74.8831 239.235 75.0514 239.221 75.209H231.647C231.647 76.3118 231.955 77.1605 232.571 77.7549C233.187 78.3421 234.075 78.6357 235.235 78.6357C235.55 78.6357 235.866 78.625 236.181 78.6035C236.496 78.5749 236.8 78.5391 237.094 78.4961C237.387 78.4531 237.667 78.4066 237.932 78.3564C238.204 78.2992 238.454 78.2383 238.684 78.1738V79.71C238.175 79.8532 237.599 79.9678 236.954 80.0537C236.317 80.1468 235.654 80.1934 234.967 80.1934C234.043 80.1934 233.248 80.068 232.582 79.8174C231.916 79.5667 231.368 79.2051 230.938 78.7324C230.516 78.2526 230.201 77.6689 229.993 76.9814C229.793 76.2868 229.692 75.5026 229.692 74.6289C229.692 73.8698 229.8 73.1536 230.015 72.4805C230.237 71.8001 230.555 71.2057 230.971 70.6973C231.393 70.1816 231.909 69.7734 232.518 69.4727C233.126 69.1719 233.817 69.0215 234.591 69.0215C235.343 69.0215 236.009 69.1396 236.589 69.376C237.169 69.6123 237.656 69.9489 238.05 70.3857C238.451 70.8154 238.752 71.3418 238.952 71.9648C239.16 72.5807 239.264 73.2718 239.264 74.0381ZM237.319 73.7695C237.341 73.2897 237.294 72.8529 237.18 72.459C237.065 72.0579 236.886 71.7142 236.643 71.4277C236.406 71.1413 236.109 70.9193 235.751 70.7617C235.393 70.597 234.978 70.5146 234.505 70.5146C234.097 70.5146 233.724 70.5934 233.388 70.751C233.051 70.9085 232.761 71.1305 232.518 71.417C232.274 71.7035 232.077 72.0472 231.927 72.4482C231.776 72.8493 231.683 73.2897 231.647 73.7695H237.319ZM242.25 69.2148H243.915L243.99 70.9551C244.305 70.5827 244.61 70.2747 244.903 70.0312C245.197 69.7806 245.483 69.5801 245.763 69.4297C246.049 69.2793 246.339 69.1755 246.633 69.1182C246.926 69.0537 247.231 69.0215 247.546 69.0215C248.656 69.0215 249.494 69.3509 250.06 70.0098C250.632 70.6615 250.919 71.6462 250.919 72.9639V80H249.05V73.1143C249.05 72.2692 248.892 71.6462 248.577 71.2451C248.262 70.8369 247.793 70.6328 247.17 70.6328C246.941 70.6328 246.715 70.6686 246.493 70.7402C246.278 70.8047 246.053 70.9229 245.816 71.0947C245.58 71.2594 245.322 71.485 245.043 71.7715C244.771 72.0579 244.463 72.416 244.119 72.8457V80H242.25V69.2148ZM263.036 79.8496C262.614 79.957 262.177 80.0322 261.726 80.0752C261.274 80.1253 260.816 80.1504 260.351 80.1504C258.997 80.1504 257.987 79.846 257.321 79.2373C256.655 78.6214 256.322 77.6797 256.322 76.4121V70.7832H253.304V69.2148H256.322V66.25L258.191 65.7666V69.2148H263.036V70.7832H258.191V76.2617C258.191 77.0352 258.396 77.6152 258.804 78.002C259.219 78.3815 259.828 78.5713 260.63 78.5713C260.974 78.5713 261.35 78.5462 261.758 78.4961C262.166 78.4388 262.592 78.3529 263.036 78.2383V79.8496Z" fill="#F7F16C"/>
<path d="M372.424 49.1123C372.424 49.8857 372.313 50.5876 372.091 51.2178C371.876 51.8408 371.557 52.3743 371.135 52.8184C370.712 53.2552 370.193 53.5954 369.577 53.8389C368.968 54.0752 368.267 54.1934 367.472 54.1934C366.598 54.1934 365.857 54.0788 365.248 53.8496C364.639 53.6204 364.142 53.2982 363.755 52.8828C363.375 52.4603 363.096 51.9554 362.917 51.3682C362.745 50.7809 362.659 50.1257 362.659 49.4023V39.96H364.571V49.252C364.571 49.8034 364.621 50.2868 364.722 50.7021C364.829 51.1175 365.001 51.4648 365.237 51.7441C365.474 52.0234 365.778 52.2347 366.15 52.3779C366.53 52.5212 366.992 52.5928 367.536 52.5928C368.553 52.5928 369.301 52.2992 369.781 51.7119C370.268 51.1247 370.512 50.2975 370.512 49.2305V39.96H372.424V49.1123ZM384.874 54H382.715L380.62 49.5098C380.463 49.166 380.301 48.8831 380.137 48.6611C379.972 48.432 379.793 48.2529 379.6 48.124C379.413 47.988 379.206 47.8913 378.977 47.834C378.755 47.7767 378.504 47.748 378.225 47.748H377.322V54H375.41V39.96H379.17C379.986 39.96 380.688 40.0495 381.275 40.2285C381.863 40.4076 382.342 40.6582 382.715 40.9805C383.094 41.3027 383.37 41.693 383.542 42.1514C383.721 42.6025 383.811 43.1038 383.811 43.6553C383.811 44.0921 383.746 44.5075 383.617 44.9014C383.488 45.2881 383.295 45.6426 383.037 45.9648C382.786 46.2799 382.471 46.5557 382.092 46.792C381.719 47.0212 381.29 47.193 380.803 47.3076C381.197 47.4437 381.53 47.6836 381.802 48.0273C382.081 48.3639 382.364 48.8151 382.65 49.3809L384.874 54ZM381.812 43.8164C381.812 43.0645 381.576 42.5023 381.104 42.1299C380.638 41.7575 379.979 41.5713 379.127 41.5713H377.322V46.2119H378.869C379.32 46.2119 379.725 46.1618 380.083 46.0615C380.448 45.9541 380.756 45.8001 381.007 45.5996C381.265 45.3919 381.462 45.1413 381.598 44.8477C381.741 44.5469 381.812 44.2031 381.812 43.8164ZM396.261 54H388.183V39.96H390.127V52.3672H396.261V54ZM287.754 75.1123C287.754 75.8857 287.643 76.5876 287.421 77.2178C287.206 77.8408 286.887 78.3743 286.465 78.8184C286.042 79.2552 285.523 79.5954 284.907 79.8389C284.299 80.0752 283.597 80.1934 282.802 80.1934C281.928 80.1934 281.187 80.0788 280.578 79.8496C279.969 79.6204 279.472 79.2982 279.085 78.8828C278.705 78.4603 278.426 77.9554 278.247 77.3682C278.075 76.7809 277.989 76.1257 277.989 75.4023V65.96H279.901V75.252C279.901 75.8034 279.951 76.2868 280.052 76.7021C280.159 77.1175 280.331 77.4648 280.567 77.7441C280.804 78.0234 281.108 78.2347 281.48 78.3779C281.86 78.5212 282.322 78.5928 282.866 78.5928C283.883 78.5928 284.632 78.2992 285.111 77.7119C285.598 77.1247 285.842 76.2975 285.842 75.2305V65.96H287.754V75.1123ZM300.204 80H298.045L295.95 75.5098C295.793 75.166 295.632 74.8831 295.467 74.6611C295.302 74.432 295.123 74.2529 294.93 74.124C294.743 73.988 294.536 73.8913 294.307 73.834C294.085 73.7767 293.834 73.748 293.555 73.748H292.652V80H290.74V65.96H294.5C295.316 65.96 296.018 66.0495 296.605 66.2285C297.193 66.4076 297.673 66.6582 298.045 66.9805C298.424 67.3027 298.7 67.693 298.872 68.1514C299.051 68.6025 299.141 69.1038 299.141 69.6553C299.141 70.0921 299.076 70.5075 298.947 70.9014C298.818 71.2881 298.625 71.6426 298.367 71.9648C298.117 72.2799 297.801 72.5557 297.422 72.792C297.049 73.0212 296.62 73.193 296.133 73.3076C296.527 73.4437 296.86 73.6836 297.132 74.0273C297.411 74.3639 297.694 74.8151 297.98 75.3809L300.204 80ZM297.143 69.8164C297.143 69.0645 296.906 68.5023 296.434 68.1299C295.968 67.7575 295.309 67.5713 294.457 67.5713H292.652V72.2119H294.199C294.65 72.2119 295.055 72.1618 295.413 72.0615C295.778 71.9541 296.086 71.8001 296.337 71.5996C296.595 71.3919 296.792 71.1413 296.928 70.8477C297.071 70.5469 297.143 70.2031 297.143 69.8164ZM311.591 80H303.513V65.96H305.457V78.3672H311.591V80Z" fill="#7FF76C"/>
</g>
<defs>
<filter id="filter0_d_530_10" x="25" y="21" width="605" height="81" filterUnits="userSpaceOnUse" color-interpolation-filters="sRGB">
<feFlood flood-opacity="0" result="BackgroundImageFix"/>
<feColorMatrix in="SourceAlpha" type="matrix" values="0 0 0 0 0 0 0 0 0 0 0 0 0 0 0 0 0 0 127 0" result="hardAlpha"/>
<feOffset dy="4"/>
<feGaussianBlur stdDeviation="2"/>
<feComposite in2="hardAlpha" operator="out"/>
<feColorMatrix type="matrix" values="0 0 0 0 0.00392157 0 0 0 0 0.0862745 0 0 0 0 0.152941 0 0 0 0.25 0"/>
<feBlend mode="normal" in2="BackgroundImageFix" result="effect1_dropShadow_530_10"/>
<feBlend mode="normal" in="SourceGraphic" in2="effect1_dropShadow_530_10" result="shape"/>
</filter>
</defs>
</svg>
