<svg width="38" height="42" viewBox="0 0 38 42" fill="none" xmlns="http://www.w3.org/2000/svg">
<path d="M33.2509 42H4.74906C2.12359 42 0 39.6487 0 36.751V5.24896C0 2.34713 2.12734 0 4.74906 0H33.2509C35.8727 0 38 2.35127 38 5.24896V36.751C38 39.6487 35.8727 42 33.2509 42Z" fill="#3D5A98"/>
<path d="M26.2203 42V25.7356H31.1604L31.8982 19.398H26.2203V15.3495C26.2203 13.5156 26.681 12.2614 29.063 12.2614H32.1005V6.59015C31.5761 6.5115 29.7746 6.33765 27.6772 6.33765C23.299 6.33765 20.299 9.29329 20.299 14.7161V19.3897H15.3477V25.7274H20.299V41.9917H26.2203V42Z" fill="white"/>
</svg>
