<svg width="149" height="176" viewBox="0 0 149 176" fill="none" xmlns="http://www.w3.org/2000/svg">
<path d="M148.603 0H0L13.112 157.474L74.3012 176L135.49 157.474L148.603 0Z" fill="#E65100"/>
<path d="M74.301 13.8947V161.643L123.252 146.821L134.179 13.8947H74.301Z" fill="#FF6D00"/>
<path fill-rule="evenodd" clip-rule="evenodd" d="M74.301 92.6332V74.1068H111.889L108.83 127.37L74.301 139.412V119.959L92.2202 113.475L93.5323 92.6332H74.301ZM113.199 55.58L114.511 37.0536H74.301V55.58H113.199Z" fill="white"/>
<path fill-rule="evenodd" clip-rule="evenodd" d="M74.3005 119.959V139.412L39.7723 127.37L38.024 101.896H55.5066L56.3808 113.475L74.3005 119.959ZM52.8844 55.58H74.3006V37.0536H34.5276L37.5871 92.6327H74.3006V74.1064H54.1956L52.8844 55.58Z" fill="#EEEEEE"/>
</svg>
