<svg width="102" height="102" viewBox="0 0 102 102" fill="none" xmlns="http://www.w3.org/2000/svg">
<path d="M89.2502 101.7H13.1502C6.14021 101.7 0.470215 96.02 0.470215 89.02V12.92C0.470215 5.90998 6.15021 0.23999 13.1502 0.23999H89.2502C96.2602 0.23999 101.93 5.91998 101.93 12.92V89.02C101.94 96.02 96.2602 101.7 89.2502 101.7Z" fill="url(#paint0_linear_507_32)"/>
<path d="M51.2104 20.23C61.2204 20.23 62.4104 20.27 66.3604 20.45C70.0104 20.62 72.0005 21.23 73.3205 21.74C75.0705 22.42 76.3205 23.23 77.6305 24.55C78.9405 25.86 79.7505 27.11 80.4305 28.86C80.9505 30.18 81.5605 32.17 81.7205 35.82C81.9005 39.77 81.9405 40.96 81.9405 50.97C81.9405 60.98 81.9005 62.17 81.7205 66.12C81.5505 69.78 80.9405 71.76 80.4305 73.08C79.7505 74.83 78.9405 76.08 77.6305 77.39C76.3205 78.7 75.0705 79.52 73.3205 80.19C72.0005 80.7 70.0104 81.31 66.3604 81.48C62.4004 81.66 61.2204 81.7 51.2104 81.7C41.2004 81.7 40.0105 81.66 36.0605 81.48C32.4105 81.31 30.4205 80.7 29.1005 80.19C27.3505 79.51 26.1005 78.7 24.7905 77.39C23.4805 76.08 22.6604 74.83 21.9904 73.08C21.4804 71.76 20.8605 69.77 20.7005 66.12C20.5205 62.17 20.4805 60.98 20.4805 50.97C20.4805 40.96 20.5205 39.77 20.7005 35.82C20.8705 32.17 21.4804 30.18 21.9904 28.86C22.6704 27.11 23.4805 25.86 24.7905 24.55C26.1005 23.24 27.3505 22.43 29.1005 21.74C30.4205 21.23 32.4105 20.62 36.0605 20.45C40.0105 20.27 41.2004 20.23 51.2104 20.23ZM51.2104 13.48C41.0304 13.48 39.7505 13.52 35.7505 13.71C31.7605 13.89 29.0305 14.53 26.6505 15.45C24.1905 16.41 22.0905 17.69 20.0105 19.77C17.9305 21.85 16.6405 23.95 15.6905 26.41C14.7605 28.79 14.1305 31.52 13.9505 35.51C13.7705 39.51 13.7305 40.79 13.7305 50.97C13.7305 61.15 13.7705 62.43 13.9505 66.43C14.1305 70.42 14.7705 73.15 15.6905 75.53C16.6505 78 17.9305 80.09 20.0105 82.17C22.0905 84.25 24.1905 85.54 26.6505 86.49C29.0305 87.42 31.7605 88.05 35.7505 88.23C39.7505 88.41 41.0304 88.46 51.2104 88.46C61.3904 88.46 62.6705 88.42 66.6705 88.23C70.6605 88.05 73.3904 87.42 75.7704 86.49C78.2304 85.53 80.3305 84.25 82.4105 82.17C84.4905 80.09 85.7805 77.99 86.7305 75.53C87.6605 73.15 88.2905 70.42 88.4705 66.43C88.6505 62.43 88.7005 61.15 88.7005 50.97C88.7005 40.79 88.6605 39.51 88.4705 35.51C88.2905 31.52 87.6505 28.79 86.7305 26.41C85.7705 23.94 84.4905 21.85 82.4105 19.77C80.3205 17.69 78.2304 16.4 75.7704 15.45C73.3904 14.52 70.6605 13.89 66.6705 13.71C62.6705 13.52 61.3904 13.48 51.2104 13.48Z" fill="white"/>
<path d="M51.2104 31.72C40.5804 31.72 31.9604 40.34 31.9604 50.97C31.9604 61.6 40.5804 70.22 51.2104 70.22C61.8404 70.22 70.4604 61.6 70.4604 50.97C70.4604 40.34 61.8404 31.72 51.2104 31.72ZM51.2104 63.47C44.3104 63.47 38.7104 57.87 38.7104 50.97C38.7104 44.07 44.3104 38.47 51.2104 38.47C58.1104 38.47 63.7104 44.07 63.7104 50.97C63.7104 57.87 58.1104 63.47 51.2104 63.47Z" fill="white"/>
<path d="M75.7207 30.95C75.7207 33.44 73.7107 35.45 71.2207 35.45C68.7307 35.45 66.7207 33.44 66.7207 30.95C66.7207 28.47 68.7407 26.45 71.2207 26.45C73.7007 26.45 75.7207 28.47 75.7207 30.95Z" fill="white"/>
<defs>
<linearGradient id="paint0_linear_507_32" x1="18.8775" y1="106.966" x2="83.5373" y2="-5.0285" gradientUnits="userSpaceOnUse">
<stop stop-color="#FFD676"/>
<stop offset="0.2463" stop-color="#F2A454"/>
<stop offset="0.3793" stop-color="#F05C3C"/>
<stop offset="0.6995" stop-color="#C22F86"/>
<stop offset="0.9568" stop-color="#6666AD"/>
<stop offset="0.9852" stop-color="#5C6CB2"/>
<stop offset="1" stop-color="#5C6CB2"/>
</linearGradient>
</defs>
</svg>
