<svg width="652" height="197" viewBox="0 0 652 197" fill="none" xmlns="http://www.w3.org/2000/svg">
<rect width="652" height="197" fill="#F9FAFE"/>
<g filter="url(#filter0_d_527_4)">
<rect x="29.3859" y="21" width="596.523" height="157.176" fill="#011627"/>
<path d="M57.0977 72.6025C56.6107 72.7887 56.1094 72.9248 55.5938 73.0107C55.0853 73.1038 54.5589 73.1504 54.0146 73.1504C52.3102 73.1504 50.9961 72.6885 50.0723 71.7646C49.1556 70.8408 48.6973 69.4909 48.6973 67.7148C48.6973 66.8626 48.8298 66.0892 49.0947 65.3945C49.3597 64.6999 49.7321 64.1055 50.2119 63.6113C50.6917 63.1172 51.2646 62.7376 51.9307 62.4727C52.5967 62.2005 53.3307 62.0645 54.1328 62.0645C54.6914 62.0645 55.2142 62.1038 55.7012 62.1826C56.1882 62.2614 56.6536 62.3903 57.0977 62.5693V64.3525C56.6322 64.109 56.1559 63.9336 55.6689 63.8262C55.1891 63.7116 54.6914 63.6543 54.1758 63.6543C53.696 63.6543 53.2412 63.7474 52.8115 63.9336C52.389 64.1126 52.0166 64.374 51.6943 64.7178C51.3721 65.0615 51.1178 65.4805 50.9316 65.9746C50.7454 66.4688 50.6523 67.0273 50.6523 67.6504C50.6523 68.9538 50.9674 69.9313 51.5977 70.583C52.235 71.2275 53.1159 71.5498 54.2402 71.5498C54.7487 71.5498 55.2393 71.4925 55.7119 71.3779C56.1917 71.2633 56.6536 71.0915 57.0977 70.8623V72.6025ZM70.2031 67.5215C70.2031 68.3594 70.085 69.1292 69.8486 69.8311C69.6123 70.5257 69.2721 71.1237 68.8281 71.625C68.3841 72.1191 67.8434 72.5059 67.2061 72.7852C66.5687 73.0573 65.8454 73.1934 65.0361 73.1934C64.2627 73.1934 63.568 73.0752 62.9521 72.8389C62.3434 72.5954 61.8242 72.2409 61.3945 71.7754C60.972 71.3099 60.6462 70.7334 60.417 70.0459C60.195 69.3584 60.084 68.5671 60.084 67.6719C60.084 66.834 60.2021 66.0713 60.4385 65.3838C60.6748 64.6891 61.015 64.0947 61.459 63.6006C61.903 63.0993 62.4437 62.7126 63.0811 62.4404C63.7184 62.1611 64.4417 62.0215 65.251 62.0215C66.0244 62.0215 66.7155 62.1432 67.3242 62.3867C67.9401 62.623 68.4593 62.974 68.8818 63.4395C69.3115 63.8978 69.6374 64.4707 69.8594 65.1582C70.0885 65.8457 70.2031 66.6335 70.2031 67.5215ZM68.291 67.6074C68.291 66.9414 68.2158 66.3613 68.0654 65.8672C67.9222 65.3659 67.7145 64.9505 67.4424 64.6211C67.1702 64.2845 66.8372 64.0339 66.4434 63.8691C66.0566 63.6973 65.6234 63.6113 65.1436 63.6113C64.585 63.6113 64.1051 63.7223 63.7041 63.9443C63.3102 64.1592 62.9844 64.4492 62.7266 64.8145C62.4759 65.1797 62.2897 65.6058 62.168 66.0928C62.0534 66.5726 61.9961 67.0775 61.9961 67.6074C61.9961 68.2734 62.0677 68.8571 62.2109 69.3584C62.3613 69.8597 62.5726 70.2786 62.8447 70.6152C63.1169 70.9447 63.4463 71.1953 63.833 71.3672C64.2197 71.5319 64.6566 71.6143 65.1436 71.6143C65.7021 71.6143 66.1784 71.5068 66.5723 71.292C66.9733 71.07 67.2992 70.7764 67.5498 70.4111C67.8076 70.0459 67.9938 69.6234 68.1084 69.1436C68.2301 68.6566 68.291 68.1445 68.291 67.6074ZM72.9102 62.2148H74.5752L74.6504 63.9551C74.9655 63.5827 75.2699 63.2747 75.5635 63.0312C75.8571 62.7806 76.1436 62.5801 76.4229 62.4297C76.7093 62.2793 76.9993 62.1755 77.293 62.1182C77.5866 62.0537 77.891 62.0215 78.2061 62.0215C79.3161 62.0215 80.154 62.3509 80.7197 63.0098C81.2926 63.6615 81.5791 64.6462 81.5791 65.9639V73H79.71V66.1143C79.71 65.2692 79.5524 64.6462 79.2373 64.2451C78.9222 63.8369 78.4531 63.6328 77.8301 63.6328C77.6009 63.6328 77.3753 63.6686 77.1533 63.7402C76.9385 63.8047 76.7129 63.9229 76.4766 64.0947C76.2402 64.2594 75.9824 64.485 75.7031 64.7715C75.431 65.0579 75.123 65.416 74.7793 65.8457V73H72.9102V62.2148ZM93.5459 70.0566C93.5459 70.4362 93.4814 70.7764 93.3525 71.0771C93.2236 71.3779 93.0482 71.6465 92.8262 71.8828C92.6042 72.112 92.3464 72.3089 92.0527 72.4736C91.7591 72.6383 91.444 72.7744 91.1074 72.8818C90.778 72.9893 90.4378 73.068 90.0869 73.1182C89.736 73.1683 89.3923 73.1934 89.0557 73.1934C88.3252 73.1934 87.652 73.1611 87.0361 73.0967C86.4274 73.0322 85.8294 72.9284 85.2422 72.7852V71.0664C85.8724 71.2454 86.499 71.3815 87.1221 71.4746C87.7451 71.5677 88.3646 71.6143 88.9805 71.6143C89.8757 71.6143 90.5381 71.4925 90.9678 71.249C91.3975 71.0055 91.6123 70.6582 91.6123 70.207C91.6123 70.0137 91.5765 69.8418 91.5049 69.6914C91.4404 69.5339 91.3187 69.387 91.1396 69.251C90.9606 69.1077 90.6813 68.9609 90.3018 68.8105C89.9294 68.6602 89.4173 68.4883 88.7656 68.2949C88.2786 68.1517 87.8275 67.9906 87.4121 67.8115C87.0039 67.6253 86.6494 67.4069 86.3486 67.1562C86.0479 66.9056 85.8115 66.612 85.6396 66.2754C85.4678 65.9388 85.3818 65.5413 85.3818 65.083C85.3818 64.7822 85.4499 64.4528 85.5859 64.0947C85.7292 63.7367 85.9691 63.4036 86.3057 63.0957C86.6423 62.7878 87.097 62.5335 87.6699 62.333C88.2428 62.1253 88.959 62.0215 89.8184 62.0215C90.2409 62.0215 90.71 62.0465 91.2256 62.0967C91.7412 62.1396 92.2783 62.2184 92.8369 62.333V63.998C92.2497 63.8548 91.6911 63.751 91.1611 63.6865C90.6383 63.6149 90.1836 63.5791 89.7969 63.5791C89.3314 63.5791 88.9375 63.6149 88.6152 63.6865C88.3001 63.7581 88.0423 63.8584 87.8418 63.9873C87.6484 64.109 87.5088 64.2559 87.4229 64.4277C87.3369 64.5924 87.2939 64.7715 87.2939 64.9648C87.2939 65.1582 87.3298 65.3337 87.4014 65.4912C87.4801 65.6488 87.6198 65.8027 87.8203 65.9531C88.028 66.0964 88.3145 66.2432 88.6797 66.3936C89.0449 66.5368 89.5212 66.6943 90.1084 66.8662C90.7458 67.0524 91.2829 67.2493 91.7197 67.457C92.1566 67.6576 92.5111 67.8831 92.7832 68.1338C93.0553 68.3844 93.2487 68.6673 93.3633 68.9824C93.485 69.2975 93.5459 69.6556 93.5459 70.0566ZM105.792 72.8496C105.369 72.957 104.933 73.0322 104.481 73.0752C104.03 73.1253 103.572 73.1504 103.106 73.1504C101.753 73.1504 100.743 72.846 100.077 72.2373C99.4111 71.6214 99.0781 70.6797 99.0781 69.4121V63.7832H96.0596V62.2148H99.0781V59.25L100.947 58.7666V62.2148H105.792V63.7832H100.947V69.2617C100.947 70.0352 101.151 70.6152 101.56 71.002C101.975 71.3815 102.584 71.5713 103.386 71.5713C103.729 71.5713 104.105 71.5462 104.514 71.4961C104.922 71.4388 105.348 71.3529 105.792 71.2383V72.8496ZM166.528 66.0605H157.29V64.4814H166.528V66.0605ZM166.528 69.7988H157.29V68.2197H166.528V69.7988ZM93.9541 92.0605H84.7158V90.4814H93.9541V92.0605ZM93.9541 95.7988H84.7158V94.2197H93.9541V95.7988ZM93.9541 118.061H84.7158V116.481H93.9541V118.061ZM93.9541 121.799H84.7158V120.22H93.9541V121.799Z" fill="#C792EA"/>
<path d="M130.488 63.2568C130.488 63.8298 130.381 64.3991 130.166 64.9648C129.951 65.5234 129.618 66.0247 129.167 66.4688C128.716 66.9128 128.139 67.2744 127.438 67.5537C126.736 67.8258 125.898 67.9619 124.924 67.9619H123.184V73H121.271V58.96H125.225C125.919 58.96 126.585 59.0387 127.223 59.1963C127.86 59.3467 128.419 59.5938 128.898 59.9375C129.385 60.2812 129.772 60.7253 130.059 61.2695C130.345 61.8138 130.488 62.4762 130.488 63.2568ZM128.501 63.3428C128.501 62.4404 128.204 61.7493 127.609 61.2695C127.022 60.7897 126.199 60.5498 125.139 60.5498H123.184V66.3291H124.967C126.098 66.3291 126.968 66.082 127.577 65.5879C128.193 65.0938 128.501 64.3454 128.501 63.3428ZM136.751 60.5713H133.518V58.96H141.918V60.5713H138.685V71.3672H141.918V73H133.518V71.3672H136.751V60.5713ZM57.9141 89.2568C57.9141 89.8298 57.8066 90.3991 57.5918 90.9648C57.377 91.5234 57.0439 92.0247 56.5928 92.4688C56.1416 92.9128 55.5651 93.2744 54.8633 93.5537C54.1615 93.8258 53.3236 93.9619 52.3496 93.9619H50.6094V99H48.6973V84.96H52.6504C53.3451 84.96 54.0111 85.0387 54.6484 85.1963C55.2858 85.3467 55.8444 85.5938 56.3242 85.9375C56.8112 86.2812 57.1979 86.7253 57.4844 87.2695C57.7708 87.8138 57.9141 88.4762 57.9141 89.2568ZM55.9268 89.3428C55.9268 88.4404 55.6296 87.7493 55.0352 87.2695C54.4479 86.7897 53.6243 86.5498 52.5645 86.5498H50.6094V92.3291H52.3926C53.5241 92.3291 54.3942 92.082 55.0029 91.5879C55.6188 91.0938 55.9268 90.3454 55.9268 89.3428ZM64.1768 86.5713H60.9434V84.96H69.3438V86.5713H66.1104V97.3672H69.3438V99H60.9434V97.3672H64.1768V86.5713ZM57.9141 115.257C57.9141 115.83 57.8066 116.399 57.5918 116.965C57.377 117.523 57.0439 118.025 56.5928 118.469C56.1416 118.913 55.5651 119.274 54.8633 119.554C54.1615 119.826 53.3236 119.962 52.3496 119.962H50.6094V125H48.6973V110.96H52.6504C53.3451 110.96 54.0111 111.039 54.6484 111.196C55.2858 111.347 55.8444 111.594 56.3242 111.938C56.8112 112.281 57.1979 112.725 57.4844 113.27C57.7708 113.814 57.9141 114.476 57.9141 115.257ZM55.9268 115.343C55.9268 114.44 55.6296 113.749 55.0352 113.27C54.4479 112.79 53.6243 112.55 52.5645 112.55H50.6094V118.329H52.3926C53.5241 118.329 54.3942 118.082 55.0029 117.588C55.6188 117.094 55.9268 116.345 55.9268 115.343ZM64.1768 112.571H60.9434V110.96H69.3438V112.571H66.1104V123.367H69.3438V125H60.9434V123.367H64.1768V112.571Z" fill="white"/>
<path d="M190.612 68.7354C190.612 69.3512 190.487 69.9313 190.236 70.4756C189.986 71.0127 189.61 71.4854 189.108 71.8936C188.607 72.2946 187.977 72.6133 187.218 72.8496C186.459 73.0788 185.574 73.1934 184.564 73.1934C184.006 73.1934 183.505 73.1755 183.061 73.1396C182.617 73.1038 182.201 73.0573 181.814 73V71.3242C182.258 71.403 182.728 71.4639 183.222 71.5068C183.716 71.5498 184.221 71.5713 184.736 71.5713C185.438 71.5713 186.036 71.5104 186.53 71.3887C187.032 71.2598 187.44 71.0771 187.755 70.8408C188.07 70.6045 188.299 70.318 188.442 69.9814C188.586 69.6449 188.657 69.2653 188.657 68.8428C188.657 68.4561 188.571 68.1195 188.399 67.833C188.228 67.5465 187.984 67.3066 187.669 67.1133C187.361 66.9199 186.989 66.7767 186.552 66.6836C186.122 66.5833 185.649 66.5332 185.134 66.5332H183.533V64.9971H185.155C185.578 64.9971 185.961 64.9434 186.305 64.8359C186.656 64.7214 186.953 64.5602 187.196 64.3525C187.447 64.1449 187.637 63.8906 187.766 63.5898C187.902 63.2819 187.97 62.9346 187.97 62.5479C187.97 61.7959 187.741 61.248 187.282 60.9043C186.824 60.5605 186.151 60.3887 185.263 60.3887C184.79 60.3887 184.303 60.4352 183.802 60.5283C183.3 60.6214 182.763 60.7611 182.19 60.9473V59.3145C182.434 59.2285 182.692 59.1533 182.964 59.0889C183.243 59.0173 183.519 58.96 183.791 58.917C184.07 58.8669 184.346 58.8311 184.618 58.8096C184.89 58.7809 185.152 58.7666 185.402 58.7666C186.147 58.7666 186.802 58.849 187.368 59.0137C187.934 59.1712 188.407 59.4004 188.786 59.7012C189.166 60.002 189.452 60.3672 189.646 60.7969C189.839 61.2266 189.936 61.71 189.936 62.2471C189.936 63.0492 189.728 63.7223 189.312 64.2666C188.904 64.8109 188.342 65.2441 187.626 65.5664C187.991 65.6237 188.349 65.7383 188.7 65.9102C189.058 66.082 189.377 66.304 189.656 66.5762C189.943 66.8411 190.172 67.1562 190.344 67.5215C190.523 67.8867 190.612 68.2913 190.612 68.7354ZM198.11 69.6162C198.354 69.6162 198.583 69.6628 198.798 69.7559C199.02 69.849 199.21 69.9779 199.367 70.1426C199.532 70.3073 199.661 70.5007 199.754 70.7227C199.847 70.9375 199.894 71.1702 199.894 71.4209C199.894 71.6644 199.847 71.8936 199.754 72.1084C199.661 72.3232 199.532 72.513 199.367 72.6777C199.21 72.8353 199.02 72.9606 198.798 73.0537C198.583 73.1468 198.354 73.1934 198.11 73.1934C197.86 73.1934 197.627 73.1468 197.412 73.0537C197.197 72.9606 197.007 72.8353 196.843 72.6777C196.685 72.513 196.56 72.3232 196.467 72.1084C196.374 71.8936 196.327 71.6644 196.327 71.4209C196.327 71.1702 196.374 70.9375 196.467 70.7227C196.56 70.5007 196.685 70.3073 196.843 70.1426C197.007 69.9779 197.197 69.849 197.412 69.7559C197.627 69.6628 197.86 69.6162 198.11 69.6162ZM214.954 73H206.135V71.2598H209.744V61.0117L206.382 62.8379L205.694 61.248L210.163 58.8955H211.817V71.2598H214.954V73ZM227.866 69.8955H225.471V73H223.559V69.8955H216.802V68.252L222.785 58.96H225.471V68.252H227.866V69.8955ZM223.559 60.7646L218.671 68.252H223.559V60.7646ZM239.264 73H230.015V71.3242L233.646 67.7148C234.24 67.1276 234.723 66.6191 235.096 66.1895C235.468 65.7598 235.758 65.3695 235.966 65.0186C236.174 64.6605 236.313 64.3239 236.385 64.0088C236.456 63.6937 236.492 63.3535 236.492 62.9883C236.492 62.6445 236.446 62.3187 236.353 62.0107C236.259 61.6956 236.116 61.4199 235.923 61.1836C235.729 60.9473 235.479 60.7611 235.171 60.625C234.863 60.4889 234.494 60.4209 234.064 60.4209C233.47 60.4209 232.929 60.5534 232.442 60.8184C231.955 61.0833 231.508 61.4271 231.1 61.8496L230.068 60.6143C230.598 60.0557 231.207 59.6081 231.895 59.2715C232.589 58.9349 233.395 58.7666 234.312 58.7666C234.935 58.7666 235.5 58.8597 236.009 59.0459C236.524 59.2321 236.968 59.5007 237.341 59.8516C237.713 60.2025 238 60.6322 238.2 61.1406C238.408 61.6491 238.512 62.222 238.512 62.8594C238.512 63.3965 238.44 63.8942 238.297 64.3525C238.154 64.8109 237.935 65.2692 237.642 65.7275C237.355 66.1787 236.99 66.6478 236.546 67.1348C236.109 67.6217 235.59 68.1553 234.988 68.7354L232.442 71.2168H239.264V73ZM251.241 73H242.422V71.2598H246.031V61.0117L242.669 62.8379L241.981 61.248L246.45 58.8955H248.104V71.2598H251.241V73ZM263.101 68.5098C263.101 69.2044 262.95 69.8382 262.649 70.4111C262.349 70.984 261.933 71.4782 261.403 71.8936C260.881 72.3018 260.261 72.6204 259.545 72.8496C258.829 73.0788 258.055 73.1934 257.225 73.1934C257.017 73.1934 256.791 73.1862 256.548 73.1719C256.312 73.1647 256.075 73.1504 255.839 73.1289C255.603 73.1146 255.37 73.0967 255.141 73.0752C254.919 73.0537 254.718 73.0286 254.539 73V71.3027C254.926 71.3958 255.366 71.4639 255.86 71.5068C256.362 71.5498 256.867 71.5713 257.375 71.5713C257.948 71.5713 258.464 71.5033 258.922 71.3672C259.38 71.2311 259.771 71.0378 260.093 70.7871C260.415 70.5293 260.662 70.2214 260.834 69.8633C261.006 69.498 261.092 69.0898 261.092 68.6387C261.092 67.765 260.777 67.1312 260.146 66.7373C259.523 66.3363 258.625 66.1357 257.45 66.1357H254.786V58.96H262.349V60.5928H256.548V64.5352H257.772C258.446 64.5352 259.101 64.596 259.738 64.7178C260.376 64.8395 260.941 65.0544 261.436 65.3623C261.937 65.6631 262.338 66.0713 262.639 66.5869C262.947 67.0954 263.101 67.7363 263.101 68.5098ZM275.476 65.1904C275.476 66.5583 275.311 67.7363 274.981 68.7246C274.652 69.7057 274.165 70.515 273.521 71.1523C272.876 71.7826 272.077 72.248 271.125 72.5488C270.173 72.8496 269.073 73 267.827 73H266.656V71.3672H267.956C268.88 71.3672 269.678 71.2741 270.352 71.0879C271.025 70.9017 271.583 70.6296 272.027 70.2715C272.479 69.9062 272.822 69.4658 273.059 68.9502C273.295 68.4274 273.442 67.833 273.499 67.167L273.542 66.7266C273.091 66.9915 272.572 67.2064 271.984 67.3711C271.397 67.5286 270.76 67.6074 270.072 67.6074C269.363 67.6074 268.74 67.5036 268.203 67.2959C267.666 67.0882 267.218 66.7982 266.86 66.4258C266.509 66.0534 266.244 65.613 266.065 65.1045C265.886 64.5889 265.797 64.0303 265.797 63.4287C265.797 62.777 265.915 62.1683 266.151 61.6025C266.388 61.0368 266.717 60.5462 267.14 60.1309C267.569 59.7083 268.081 59.3753 268.676 59.1318C269.27 58.8883 269.925 58.7666 270.642 58.7666C271.336 58.7666 271.977 58.8812 272.564 59.1104C273.159 59.3395 273.671 59.7119 274.101 60.2275C274.53 60.736 274.867 61.3984 275.11 62.2148C275.354 63.0312 275.476 64.0231 275.476 65.1904ZM270.556 60.3027C270.155 60.3027 269.782 60.3708 269.438 60.5068C269.102 60.6357 268.808 60.8291 268.558 61.0869C268.314 61.3376 268.121 61.6491 267.978 62.0215C267.834 62.3939 267.763 62.82 267.763 63.2998C267.763 63.7367 267.813 64.127 267.913 64.4707C268.021 64.8145 268.182 65.1081 268.396 65.3516C268.618 65.5879 268.901 65.7705 269.245 65.8994C269.589 66.0283 269.997 66.0928 270.47 66.0928C270.735 66.0928 271.007 66.0677 271.286 66.0176C271.573 65.9674 271.848 65.8994 272.113 65.8135C272.385 65.7275 272.643 65.6273 272.887 65.5127C273.13 65.3981 273.349 65.2764 273.542 65.1475C273.542 64.2236 273.474 63.4538 273.338 62.8379C273.202 62.2148 273.005 61.7171 272.747 61.3447C272.489 60.9652 272.174 60.6966 271.802 60.5391C271.437 60.3815 271.021 60.3027 270.556 60.3027ZM287.646 73H278.397V71.3242L282.028 67.7148C282.623 67.1276 283.106 66.6191 283.479 66.1895C283.851 65.7598 284.141 65.3695 284.349 65.0186C284.556 64.6605 284.696 64.3239 284.768 64.0088C284.839 63.6937 284.875 63.3535 284.875 62.9883C284.875 62.6445 284.828 62.3187 284.735 62.0107C284.642 61.6956 284.499 61.4199 284.306 61.1836C284.112 60.9473 283.862 60.7611 283.554 60.625C283.246 60.4889 282.877 60.4209 282.447 60.4209C281.853 60.4209 281.312 60.5534 280.825 60.8184C280.338 61.0833 279.891 61.4271 279.482 61.8496L278.451 60.6143C278.981 60.0557 279.59 59.6081 280.277 59.2715C280.972 58.9349 281.778 58.7666 282.694 58.7666C283.317 58.7666 283.883 58.8597 284.392 59.0459C284.907 59.2321 285.351 59.5007 285.724 59.8516C286.096 60.2025 286.382 60.6322 286.583 61.1406C286.791 61.6491 286.895 62.222 286.895 62.8594C286.895 63.3965 286.823 63.8942 286.68 64.3525C286.536 64.8109 286.318 65.2692 286.024 65.7275C285.738 66.1787 285.373 66.6478 284.929 67.1348C284.492 67.6217 283.973 68.1553 283.371 68.7354L280.825 71.2168H287.646V73ZM299.388 68.5098C299.388 69.2044 299.237 69.8382 298.937 70.4111C298.636 70.984 298.22 71.4782 297.69 71.8936C297.168 72.3018 296.548 72.6204 295.832 72.8496C295.116 73.0788 294.342 73.1934 293.512 73.1934C293.304 73.1934 293.078 73.1862 292.835 73.1719C292.599 73.1647 292.362 73.1504 292.126 73.1289C291.89 73.1146 291.657 73.0967 291.428 73.0752C291.206 73.0537 291.005 73.0286 290.826 73V71.3027C291.213 71.3958 291.653 71.4639 292.147 71.5068C292.649 71.5498 293.154 71.5713 293.662 71.5713C294.235 71.5713 294.751 71.5033 295.209 71.3672C295.667 71.2311 296.058 71.0378 296.38 70.7871C296.702 70.5293 296.949 70.2214 297.121 69.8633C297.293 69.498 297.379 69.0898 297.379 68.6387C297.379 67.765 297.064 67.1312 296.434 66.7373C295.811 66.3363 294.912 66.1357 293.737 66.1357H291.073V58.96H298.636V60.5928H292.835V64.5352H294.06C294.733 64.5352 295.388 64.596 296.025 64.7178C296.663 64.8395 297.229 65.0544 297.723 65.3623C298.224 65.6631 298.625 66.0713 298.926 66.5869C299.234 67.0954 299.388 67.7363 299.388 68.5098ZM312.01 68.5527C312.01 69.1973 311.892 69.8024 311.655 70.3682C311.426 70.9339 311.097 71.4281 310.667 71.8506C310.237 72.266 309.718 72.5954 309.109 72.8389C308.508 73.0752 307.838 73.1934 307.101 73.1934C306.327 73.1934 305.643 73.0716 305.049 72.8281C304.454 72.5775 303.957 72.1979 303.556 71.6895C303.155 71.1738 302.85 70.5257 302.643 69.7451C302.435 68.9645 302.331 68.0407 302.331 66.9736C302.331 66.2575 302.378 65.5628 302.471 64.8896C302.564 64.2165 302.718 63.5827 302.933 62.9883C303.147 62.3939 303.434 61.8496 303.792 61.3555C304.15 60.8613 304.594 60.4388 305.124 60.0879C305.661 59.7298 306.291 59.4541 307.015 59.2607C307.738 59.0602 308.576 58.96 309.528 58.96H310.914V60.5928H309.41C308.572 60.5928 307.845 60.693 307.229 60.8936C306.614 61.0941 306.098 61.377 305.683 61.7422C305.267 62.1074 304.949 62.5479 304.727 63.0635C304.505 63.5791 304.365 64.1556 304.308 64.793L304.265 65.2334C304.716 64.9684 305.235 64.7572 305.822 64.5996C306.417 64.4349 307.058 64.3525 307.745 64.3525C308.454 64.3525 309.074 64.4564 309.604 64.6641C310.141 64.8717 310.585 65.1618 310.936 65.5342C311.294 65.8994 311.562 66.3398 311.741 66.8555C311.92 67.3711 312.01 67.9368 312.01 68.5527ZM310.055 68.6709C310.055 68.2412 310.001 67.8545 309.894 67.5107C309.793 67.1598 309.632 66.8662 309.41 66.6299C309.188 66.3864 308.905 66.2002 308.562 66.0713C308.225 65.9352 307.82 65.8672 307.348 65.8672C307.076 65.8672 306.8 65.8923 306.521 65.9424C306.241 65.9925 305.965 66.0641 305.693 66.1572C305.428 66.2432 305.174 66.3434 304.931 66.458C304.687 66.5726 304.465 66.6943 304.265 66.8232C304.265 67.7471 304.329 68.5205 304.458 69.1436C304.587 69.7594 304.777 70.2536 305.027 70.626C305.285 70.9984 305.6 71.2633 305.973 71.4209C306.345 71.5785 306.775 71.6572 307.262 71.6572C307.67 71.6572 308.042 71.5928 308.379 71.4639C308.723 71.3278 309.016 71.1309 309.26 70.873C309.51 70.6152 309.704 70.3037 309.84 69.9385C309.983 69.5661 310.055 69.1436 310.055 68.6709ZM323.579 68.5098C323.579 69.2044 323.429 69.8382 323.128 70.4111C322.827 70.984 322.412 71.4782 321.882 71.8936C321.359 72.3018 320.74 72.6204 320.023 72.8496C319.307 73.0788 318.534 73.1934 317.703 73.1934C317.495 73.1934 317.27 73.1862 317.026 73.1719C316.79 73.1647 316.554 73.1504 316.317 73.1289C316.081 73.1146 315.848 73.0967 315.619 73.0752C315.397 73.0537 315.197 73.0286 315.018 73V71.3027C315.404 71.3958 315.845 71.4639 316.339 71.5068C316.84 71.5498 317.345 71.5713 317.854 71.5713C318.426 71.5713 318.942 71.5033 319.4 71.3672C319.859 71.2311 320.249 71.0378 320.571 70.7871C320.894 70.5293 321.141 70.2214 321.312 69.8633C321.484 69.498 321.57 69.0898 321.57 68.6387C321.57 67.765 321.255 67.1312 320.625 66.7373C320.002 66.3363 319.103 66.1357 317.929 66.1357H315.265V58.96H322.827V60.5928H317.026V64.5352H318.251C318.924 64.5352 319.579 64.596 320.217 64.7178C320.854 64.8395 321.42 65.0544 321.914 65.3623C322.415 65.6631 322.816 66.0713 323.117 66.5869C323.425 67.0954 323.579 67.7363 323.579 68.5098ZM335.675 68.5098C335.675 69.2044 335.524 69.8382 335.224 70.4111C334.923 70.984 334.507 71.4782 333.978 71.8936C333.455 72.3018 332.835 72.6204 332.119 72.8496C331.403 73.0788 330.63 73.1934 329.799 73.1934C329.591 73.1934 329.366 73.1862 329.122 73.1719C328.886 73.1647 328.649 73.1504 328.413 73.1289C328.177 73.1146 327.944 73.0967 327.715 73.0752C327.493 73.0537 327.292 73.0286 327.113 73V71.3027C327.5 71.3958 327.94 71.4639 328.435 71.5068C328.936 71.5498 329.441 71.5713 329.949 71.5713C330.522 71.5713 331.038 71.5033 331.496 71.3672C331.954 71.2311 332.345 71.0378 332.667 70.7871C332.989 70.5293 333.236 70.2214 333.408 69.8633C333.58 69.498 333.666 69.0898 333.666 68.6387C333.666 67.765 333.351 67.1312 332.721 66.7373C332.098 66.3363 331.199 66.1357 330.024 66.1357H327.36V58.96H334.923V60.5928H329.122V64.5352H330.347C331.02 64.5352 331.675 64.596 332.312 64.7178C332.95 64.8395 333.516 65.0544 334.01 65.3623C334.511 65.6631 334.912 66.0713 335.213 66.5869C335.521 67.0954 335.675 67.7363 335.675 68.5098ZM352.078 75.2021C352.443 75.2165 352.798 75.1842 353.142 75.1055C353.485 75.0267 353.786 74.9085 354.044 74.751C354.309 74.6006 354.52 74.4108 354.678 74.1816C354.835 73.9525 354.914 73.6911 354.914 73.3975C354.914 73.0967 354.86 72.8532 354.753 72.667C354.653 72.4808 354.538 72.3089 354.409 72.1514C354.28 71.9938 354.162 71.8255 354.055 71.6465C353.954 71.4674 353.904 71.2275 353.904 70.9268C353.904 70.7764 353.933 70.6188 353.99 70.4541C354.048 70.2894 354.133 70.139 354.248 70.0029C354.37 69.8669 354.52 69.7559 354.699 69.6699C354.885 69.584 355.104 69.541 355.354 69.541C355.605 69.541 355.845 69.5947 356.074 69.7021C356.311 69.8024 356.515 69.96 356.687 70.1748C356.866 70.3896 357.005 70.6582 357.105 70.9805C357.213 71.3027 357.267 71.6823 357.267 72.1191C357.267 72.7135 357.156 73.2829 356.934 73.8271C356.719 74.3786 356.393 74.8656 355.956 75.2881C355.526 75.7106 354.986 76.0472 354.334 76.2979C353.689 76.5485 352.938 76.6738 352.078 76.6738V75.2021ZM355.44 62.0215C355.662 62.0215 355.874 62.068 356.074 62.1611C356.275 62.2471 356.45 62.3652 356.601 62.5156C356.751 62.666 356.869 62.8415 356.955 63.042C357.048 63.2425 357.095 63.4538 357.095 63.6758C357.095 63.9049 357.048 64.1198 356.955 64.3203C356.869 64.5137 356.751 64.6855 356.601 64.8359C356.45 64.9863 356.275 65.1045 356.074 65.1904C355.874 65.2764 355.662 65.3193 355.44 65.3193C355.211 65.3193 354.996 65.2764 354.796 65.1904C354.603 65.1045 354.431 64.9863 354.28 64.8359C354.13 64.6855 354.012 64.5137 353.926 64.3203C353.84 64.1198 353.797 63.9049 353.797 63.6758C353.797 63.4538 353.84 63.2425 353.926 63.042C354.012 62.8415 354.13 62.666 354.28 62.5156C354.431 62.3652 354.603 62.2471 354.796 62.1611C354.996 62.068 355.211 62.0215 355.44 62.0215ZM118.038 94.7354C118.038 95.3512 117.913 95.9313 117.662 96.4756C117.411 97.0127 117.035 97.4854 116.534 97.8936C116.033 98.2946 115.403 98.6133 114.644 98.8496C113.884 99.0788 113 99.1934 111.99 99.1934C111.432 99.1934 110.93 99.1755 110.486 99.1396C110.042 99.1038 109.627 99.0573 109.24 99V97.3242C109.684 97.403 110.153 97.4639 110.647 97.5068C111.142 97.5498 111.646 97.5713 112.162 97.5713C112.864 97.5713 113.462 97.5104 113.956 97.3887C114.457 97.2598 114.866 97.0771 115.181 96.8408C115.496 96.6045 115.725 96.318 115.868 95.9814C116.011 95.6449 116.083 95.2653 116.083 94.8428C116.083 94.4561 115.997 94.1195 115.825 93.833C115.653 93.5465 115.41 93.3066 115.095 93.1133C114.787 92.9199 114.414 92.7767 113.978 92.6836C113.548 92.5833 113.075 92.5332 112.56 92.5332H110.959V90.9971H112.581C113.004 90.9971 113.387 90.9434 113.73 90.8359C114.081 90.7214 114.379 90.5602 114.622 90.3525C114.873 90.1449 115.062 89.8906 115.191 89.5898C115.327 89.2819 115.396 88.9346 115.396 88.5479C115.396 87.7959 115.166 87.248 114.708 86.9043C114.25 86.5605 113.576 86.3887 112.688 86.3887C112.216 86.3887 111.729 86.4352 111.228 86.5283C110.726 86.6214 110.189 86.7611 109.616 86.9473V85.3145C109.86 85.2285 110.118 85.1533 110.39 85.0889C110.669 85.0173 110.945 84.96 111.217 84.917C111.496 84.8669 111.772 84.8311 112.044 84.8096C112.316 84.7809 112.577 84.7666 112.828 84.7666C113.573 84.7666 114.228 84.849 114.794 85.0137C115.36 85.1712 115.832 85.4004 116.212 85.7012C116.591 86.002 116.878 86.3672 117.071 86.7969C117.265 87.2266 117.361 87.71 117.361 88.2471C117.361 89.0492 117.154 89.7223 116.738 90.2666C116.33 90.8109 115.768 91.2441 115.052 91.5664C115.417 91.6237 115.775 91.7383 116.126 91.9102C116.484 92.082 116.803 92.304 117.082 92.5762C117.368 92.8411 117.598 93.1562 117.77 93.5215C117.949 93.8867 118.038 94.2913 118.038 94.7354ZM125.536 95.6162C125.78 95.6162 126.009 95.6628 126.224 95.7559C126.446 95.849 126.635 95.9779 126.793 96.1426C126.958 96.3073 127.087 96.5007 127.18 96.7227C127.273 96.9375 127.319 97.1702 127.319 97.4209C127.319 97.6644 127.273 97.8936 127.18 98.1084C127.087 98.3232 126.958 98.513 126.793 98.6777C126.635 98.8353 126.446 98.9606 126.224 99.0537C126.009 99.1468 125.78 99.1934 125.536 99.1934C125.285 99.1934 125.053 99.1468 124.838 99.0537C124.623 98.9606 124.433 98.8353 124.269 98.6777C124.111 98.513 123.986 98.3232 123.893 98.1084C123.799 97.8936 123.753 97.6644 123.753 97.4209C123.753 97.1702 123.799 96.9375 123.893 96.7227C123.986 96.5007 124.111 96.3073 124.269 96.1426C124.433 95.9779 124.623 95.849 124.838 95.7559C125.053 95.6628 125.285 95.6162 125.536 95.6162ZM142.38 99H133.561V97.2598H137.17V87.0117L133.808 88.8379L133.12 87.248L137.589 84.8955H139.243V97.2598H142.38V99ZM155.292 95.8955H152.896V99H150.984V95.8955H144.228V94.252L150.211 84.96H152.896V94.252H155.292V95.8955ZM150.984 86.7646L146.097 94.252H150.984V86.7646ZM170.643 101.202C171.008 101.216 171.362 101.184 171.706 101.105C172.05 101.027 172.351 100.909 172.608 100.751C172.873 100.601 173.085 100.411 173.242 100.182C173.4 99.9525 173.479 99.6911 173.479 99.3975C173.479 99.0967 173.425 98.8532 173.317 98.667C173.217 98.4808 173.103 98.3089 172.974 98.1514C172.845 97.9938 172.727 97.8255 172.619 97.6465C172.519 97.4674 172.469 97.2275 172.469 96.9268C172.469 96.7764 172.497 96.6188 172.555 96.4541C172.612 96.2894 172.698 96.139 172.812 96.0029C172.934 95.8669 173.085 95.7559 173.264 95.6699C173.45 95.584 173.668 95.541 173.919 95.541C174.17 95.541 174.41 95.5947 174.639 95.7021C174.875 95.8024 175.079 95.96 175.251 96.1748C175.43 96.3896 175.57 96.6582 175.67 96.9805C175.777 97.3027 175.831 97.6823 175.831 98.1191C175.831 98.7135 175.72 99.2829 175.498 99.8271C175.283 100.379 174.957 100.866 174.521 101.288C174.091 101.711 173.55 102.047 172.898 102.298C172.254 102.549 171.502 102.674 170.643 102.674V101.202ZM174.005 88.0215C174.227 88.0215 174.438 88.068 174.639 88.1611C174.839 88.2471 175.015 88.3652 175.165 88.5156C175.315 88.666 175.434 88.8415 175.52 89.042C175.613 89.2425 175.659 89.4538 175.659 89.6758C175.659 89.9049 175.613 90.1198 175.52 90.3203C175.434 90.5137 175.315 90.6855 175.165 90.8359C175.015 90.9863 174.839 91.1045 174.639 91.1904C174.438 91.2764 174.227 91.3193 174.005 91.3193C173.776 91.3193 173.561 91.2764 173.36 91.1904C173.167 91.1045 172.995 90.9863 172.845 90.8359C172.694 90.6855 172.576 90.5137 172.49 90.3203C172.404 90.1198 172.361 89.9049 172.361 89.6758C172.361 89.4538 172.404 89.2425 172.49 89.042C172.576 88.8415 172.694 88.666 172.845 88.5156C172.995 88.3652 173.167 88.2471 173.36 88.1611C173.561 88.068 173.776 88.0215 174.005 88.0215ZM118.038 120.735C118.038 121.351 117.913 121.931 117.662 122.476C117.411 123.013 117.035 123.485 116.534 123.894C116.033 124.295 115.403 124.613 114.644 124.85C113.884 125.079 113 125.193 111.99 125.193C111.432 125.193 110.93 125.175 110.486 125.14C110.042 125.104 109.627 125.057 109.24 125V123.324C109.684 123.403 110.153 123.464 110.647 123.507C111.142 123.55 111.646 123.571 112.162 123.571C112.864 123.571 113.462 123.51 113.956 123.389C114.457 123.26 114.866 123.077 115.181 122.841C115.496 122.604 115.725 122.318 115.868 121.981C116.011 121.645 116.083 121.265 116.083 120.843C116.083 120.456 115.997 120.119 115.825 119.833C115.653 119.547 115.41 119.307 115.095 119.113C114.787 118.92 114.414 118.777 113.978 118.684C113.548 118.583 113.075 118.533 112.56 118.533H110.959V116.997H112.581C113.004 116.997 113.387 116.943 113.73 116.836C114.081 116.721 114.379 116.56 114.622 116.353C114.873 116.145 115.062 115.891 115.191 115.59C115.327 115.282 115.396 114.935 115.396 114.548C115.396 113.796 115.166 113.248 114.708 112.904C114.25 112.561 113.576 112.389 112.688 112.389C112.216 112.389 111.729 112.435 111.228 112.528C110.726 112.621 110.189 112.761 109.616 112.947V111.314C109.86 111.229 110.118 111.153 110.39 111.089C110.669 111.017 110.945 110.96 111.217 110.917C111.496 110.867 111.772 110.831 112.044 110.81C112.316 110.781 112.577 110.767 112.828 110.767C113.573 110.767 114.228 110.849 114.794 111.014C115.36 111.171 115.832 111.4 116.212 111.701C116.591 112.002 116.878 112.367 117.071 112.797C117.265 113.227 117.361 113.71 117.361 114.247C117.361 115.049 117.154 115.722 116.738 116.267C116.33 116.811 115.768 117.244 115.052 117.566C115.417 117.624 115.775 117.738 116.126 117.91C116.484 118.082 116.803 118.304 117.082 118.576C117.368 118.841 117.598 119.156 117.77 119.521C117.949 119.887 118.038 120.291 118.038 120.735ZM125.536 121.616C125.78 121.616 126.009 121.663 126.224 121.756C126.446 121.849 126.635 121.978 126.793 122.143C126.958 122.307 127.087 122.501 127.18 122.723C127.273 122.938 127.319 123.17 127.319 123.421C127.319 123.664 127.273 123.894 127.18 124.108C127.087 124.323 126.958 124.513 126.793 124.678C126.635 124.835 126.446 124.961 126.224 125.054C126.009 125.147 125.78 125.193 125.536 125.193C125.285 125.193 125.053 125.147 124.838 125.054C124.623 124.961 124.433 124.835 124.269 124.678C124.111 124.513 123.986 124.323 123.893 124.108C123.799 123.894 123.753 123.664 123.753 123.421C123.753 123.17 123.799 122.938 123.893 122.723C123.986 122.501 124.111 122.307 124.269 122.143C124.433 121.978 124.623 121.849 124.838 121.756C125.053 121.663 125.285 121.616 125.536 121.616ZM142.38 125H133.561V123.26H137.17V113.012L133.808 114.838L133.12 113.248L137.589 110.896H139.243V123.26H142.38V125ZM155.292 121.896H152.896V125H150.984V121.896H144.228V120.252L150.211 110.96H152.896V120.252H155.292V121.896ZM150.984 112.765L146.097 120.252H150.984V112.765ZM179.15 119.962H174.929V124.345H173.081V119.962H168.859V118.329H173.081V113.979H174.929V118.329H179.15V119.962ZM202.858 125H194.039V123.26H197.648V113.012L194.286 114.838L193.599 113.248L198.067 110.896H199.722V123.26H202.858V125ZM215.395 117.985C215.395 119.06 215.287 120.041 215.072 120.929C214.857 121.81 214.532 122.569 214.095 123.206C213.658 123.836 213.114 124.327 212.462 124.678C211.817 125.021 211.058 125.193 210.185 125.193C209.433 125.193 208.749 125.054 208.133 124.774C207.517 124.488 206.991 124.051 206.554 123.464C206.117 122.877 205.78 122.128 205.544 121.219C205.308 120.309 205.189 119.231 205.189 117.985C205.189 116.911 205.297 115.93 205.512 115.042C205.734 114.154 206.06 113.395 206.489 112.765C206.926 112.127 207.47 111.637 208.122 111.293C208.774 110.942 209.533 110.767 210.399 110.767C211.151 110.767 211.835 110.91 212.451 111.196C213.067 111.476 213.593 111.912 214.03 112.507C214.467 113.094 214.804 113.842 215.04 114.752C215.276 115.661 215.395 116.739 215.395 117.985ZM213.504 118.05C213.504 117.806 213.493 117.566 213.472 117.33C213.457 117.087 213.439 116.85 213.418 116.621L207.478 121.036C207.585 121.409 207.721 121.752 207.886 122.067C208.05 122.382 208.247 122.655 208.477 122.884C208.713 123.106 208.978 123.281 209.271 123.41C209.572 123.532 209.912 123.593 210.292 123.593C210.779 123.593 211.219 123.475 211.613 123.238C212.014 123.002 212.354 122.651 212.634 122.186C212.913 121.72 213.128 121.144 213.278 120.456C213.429 119.761 213.504 118.959 213.504 118.05ZM207.08 117.921C207.08 118.143 207.08 118.365 207.08 118.587C207.087 118.809 207.102 119.024 207.123 119.231L213.063 114.838C212.956 114.473 212.82 114.14 212.655 113.839C212.491 113.538 212.294 113.28 212.064 113.065C211.835 112.843 211.574 112.672 211.28 112.55C210.987 112.428 210.657 112.367 210.292 112.367C209.805 112.367 209.361 112.485 208.96 112.722C208.566 112.958 208.229 113.312 207.95 113.785C207.671 114.251 207.456 114.831 207.306 115.525C207.155 116.213 207.08 117.011 207.08 117.921ZM231.121 127.202C231.486 127.216 231.841 127.184 232.185 127.105C232.528 127.027 232.829 126.909 233.087 126.751C233.352 126.601 233.563 126.411 233.721 126.182C233.878 125.952 233.957 125.691 233.957 125.397C233.957 125.097 233.903 124.853 233.796 124.667C233.696 124.481 233.581 124.309 233.452 124.151C233.323 123.994 233.205 123.826 233.098 123.646C232.997 123.467 232.947 123.228 232.947 122.927C232.947 122.776 232.976 122.619 233.033 122.454C233.09 122.289 233.176 122.139 233.291 122.003C233.413 121.867 233.563 121.756 233.742 121.67C233.928 121.584 234.147 121.541 234.397 121.541C234.648 121.541 234.888 121.595 235.117 121.702C235.354 121.802 235.558 121.96 235.729 122.175C235.909 122.39 236.048 122.658 236.148 122.98C236.256 123.303 236.31 123.682 236.31 124.119C236.31 124.714 236.199 125.283 235.977 125.827C235.762 126.379 235.436 126.866 234.999 127.288C234.569 127.711 234.029 128.047 233.377 128.298C232.732 128.549 231.98 128.674 231.121 128.674V127.202ZM234.483 114.021C234.705 114.021 234.917 114.068 235.117 114.161C235.318 114.247 235.493 114.365 235.644 114.516C235.794 114.666 235.912 114.841 235.998 115.042C236.091 115.243 236.138 115.454 236.138 115.676C236.138 115.905 236.091 116.12 235.998 116.32C235.912 116.514 235.794 116.686 235.644 116.836C235.493 116.986 235.318 117.104 235.117 117.19C234.917 117.276 234.705 117.319 234.483 117.319C234.254 117.319 234.039 117.276 233.839 117.19C233.646 117.104 233.474 116.986 233.323 116.836C233.173 116.686 233.055 116.514 232.969 116.32C232.883 116.12 232.84 115.905 232.84 115.676C232.84 115.454 232.883 115.243 232.969 115.042C233.055 114.841 233.173 114.666 233.323 114.516C233.474 114.365 233.646 114.247 233.839 114.161C234.039 114.068 234.254 114.021 234.483 114.021Z" fill="#F78C6C"/>
<path d="M214.632 83.8213L207.263 101.31H205.479L212.849 83.8213H214.632ZM226.728 83.8213L219.358 101.31H217.575L224.944 83.8213H226.728ZM251.703 86.5928H247.546V99H245.612V86.5928H241.455V84.96H251.703V86.5928ZM263.015 99H261.146V92.1143C261.146 91.2835 260.988 90.6641 260.673 90.2559C260.365 89.8405 259.921 89.6328 259.341 89.6328C259.09 89.6328 258.854 89.6686 258.632 89.7402C258.417 89.8047 258.191 89.9229 257.955 90.0947C257.719 90.2594 257.461 90.485 257.182 90.7715C256.902 91.0579 256.58 91.416 256.215 91.8457V99H254.346V83.8213H256.215V88.2148L256.15 89.9121C256.444 89.5612 256.73 89.2676 257.01 89.0312C257.296 88.7878 257.579 88.5908 257.858 88.4404C258.145 88.29 258.435 88.1826 258.729 88.1182C259.022 88.0537 259.326 88.0215 259.642 88.0215C260.716 88.0215 261.547 88.3509 262.134 89.0098C262.721 89.6615 263.015 90.6462 263.015 91.9639V99ZM270.115 89.7617H266.925V88.2148H272.006V97.4424H275.218V99H266.57V97.4424H270.115V89.7617ZM270.771 83.6924C270.978 83.6924 271.172 83.7318 271.351 83.8105C271.53 83.8822 271.684 83.986 271.812 84.1221C271.949 84.2581 272.052 84.4157 272.124 84.5947C272.203 84.7666 272.242 84.9564 272.242 85.1641C272.242 85.3646 272.203 85.5544 272.124 85.7334C272.052 85.9124 271.949 86.07 271.812 86.2061C271.684 86.3421 271.53 86.4495 271.351 86.5283C271.172 86.5999 270.978 86.6357 270.771 86.6357C270.563 86.6357 270.369 86.5999 270.19 86.5283C270.011 86.4495 269.854 86.3421 269.718 86.2061C269.589 86.07 269.485 85.9124 269.406 85.7334C269.335 85.5544 269.299 85.3646 269.299 85.1641C269.299 84.9564 269.335 84.7666 269.406 84.5947C269.485 84.4157 269.589 84.2581 269.718 84.1221C269.854 83.986 270.011 83.8822 270.19 83.8105C270.369 83.7318 270.563 83.6924 270.771 83.6924ZM287.077 96.0566C287.077 96.4362 287.013 96.7764 286.884 97.0771C286.755 97.3779 286.579 97.6465 286.357 97.8828C286.135 98.112 285.878 98.3089 285.584 98.4736C285.29 98.6383 284.975 98.7744 284.639 98.8818C284.309 98.9893 283.969 99.068 283.618 99.1182C283.267 99.1683 282.924 99.1934 282.587 99.1934C281.856 99.1934 281.183 99.1611 280.567 99.0967C279.959 99.0322 279.361 98.9284 278.773 98.7852V97.0664C279.404 97.2454 280.03 97.3815 280.653 97.4746C281.276 97.5677 281.896 97.6143 282.512 97.6143C283.407 97.6143 284.069 97.4925 284.499 97.249C284.929 97.0055 285.144 96.6582 285.144 96.207C285.144 96.0137 285.108 95.8418 285.036 95.6914C284.972 95.5339 284.85 95.387 284.671 95.251C284.492 95.1077 284.213 94.9609 283.833 94.8105C283.461 94.6602 282.949 94.4883 282.297 94.2949C281.81 94.1517 281.359 93.9906 280.943 93.8115C280.535 93.6253 280.181 93.4069 279.88 93.1562C279.579 92.9056 279.343 92.612 279.171 92.2754C278.999 91.9388 278.913 91.5413 278.913 91.083C278.913 90.7822 278.981 90.4528 279.117 90.0947C279.26 89.7367 279.5 89.4036 279.837 89.0957C280.174 88.7878 280.628 88.5335 281.201 88.333C281.774 88.1253 282.49 88.0215 283.35 88.0215C283.772 88.0215 284.241 88.0465 284.757 88.0967C285.272 88.1396 285.81 88.2184 286.368 88.333V89.998C285.781 89.8548 285.222 89.751 284.692 89.6865C284.17 89.6149 283.715 89.5791 283.328 89.5791C282.863 89.5791 282.469 89.6149 282.146 89.6865C281.831 89.7581 281.574 89.8584 281.373 89.9873C281.18 90.109 281.04 90.2559 280.954 90.4277C280.868 90.5924 280.825 90.7715 280.825 90.9648C280.825 91.1582 280.861 91.3337 280.933 91.4912C281.011 91.6488 281.151 91.8027 281.352 91.9531C281.559 92.0964 281.846 92.2432 282.211 92.3936C282.576 92.5368 283.052 92.6943 283.64 92.8662C284.277 93.0524 284.814 93.2493 285.251 93.457C285.688 93.6576 286.042 93.8831 286.314 94.1338C286.587 94.3844 286.78 94.6673 286.895 94.9824C287.016 95.2975 287.077 95.6556 287.077 96.0566ZM312.719 88.2148L311.15 99H308.884L307.326 94.4883L307.015 93.3926L306.66 94.5527L305.167 99H302.965L301.407 88.2148H303.233L304.136 95.541L304.329 97.1738L304.791 95.7451L306.359 90.9004H307.702L309.389 95.6807L309.872 97.1094L310.033 95.5947L310.871 88.2148H312.719ZM318.498 89.7617H315.308V88.2148H320.389V97.4424H323.601V99H314.953V97.4424H318.498V89.7617ZM319.153 83.6924C319.361 83.6924 319.554 83.7318 319.733 83.8105C319.912 83.8822 320.066 83.986 320.195 84.1221C320.331 84.2581 320.435 84.4157 320.507 84.5947C320.586 84.7666 320.625 84.9564 320.625 85.1641C320.625 85.3646 320.586 85.5544 320.507 85.7334C320.435 85.9124 320.331 86.07 320.195 86.2061C320.066 86.3421 319.912 86.4495 319.733 86.5283C319.554 86.5999 319.361 86.6357 319.153 86.6357C318.946 86.6357 318.752 86.5999 318.573 86.5283C318.394 86.4495 318.237 86.3421 318.101 86.2061C317.972 86.07 317.868 85.9124 317.789 85.7334C317.717 85.5544 317.682 85.3646 317.682 85.1641C317.682 84.9564 317.717 84.7666 317.789 84.5947C317.868 84.4157 317.972 84.2581 318.101 84.1221C318.237 83.986 318.394 83.8822 318.573 83.8105C318.752 83.7318 318.946 83.6924 319.153 83.6924ZM330.594 85.3574H327.403V83.8213H332.484V97.4424H335.696V99H327.049V97.4424H330.594V85.3574ZM342.689 85.3574H339.499V83.8213H344.58V97.4424H347.792V99H339.145V97.4424H342.689V85.3574ZM370.974 89.7402C371.174 89.9909 371.328 90.2845 371.436 90.6211C371.55 90.9505 371.607 91.3086 371.607 91.6953C371.607 92.2539 371.504 92.766 371.296 93.2314C371.095 93.6898 370.809 94.0837 370.437 94.4131C370.064 94.7425 369.617 95.0003 369.094 95.1865C368.578 95.3656 368.009 95.4551 367.386 95.4551C366.935 95.4551 366.512 95.4085 366.118 95.3154C365.724 95.2152 365.413 95.0934 365.184 94.9502C365.048 95.1507 364.933 95.3405 364.84 95.5195C364.747 95.6986 364.7 95.8991 364.7 96.1211C364.7 96.3932 364.829 96.6188 365.087 96.7979C365.352 96.9769 365.699 97.0736 366.129 97.0879L368.965 97.1953C369.502 97.2096 369.996 97.2777 370.447 97.3994C370.906 97.5212 371.296 97.6966 371.618 97.9258C371.948 98.1549 372.202 98.4378 372.381 98.7744C372.567 99.111 372.66 99.5013 372.66 99.9453C372.66 100.425 372.556 100.88 372.349 101.31C372.141 101.739 371.819 102.115 371.382 102.438C370.952 102.767 370.404 103.028 369.738 103.222C369.072 103.415 368.281 103.512 367.364 103.512C366.491 103.512 365.746 103.44 365.13 103.297C364.521 103.161 364.02 102.967 363.626 102.717C363.232 102.473 362.946 102.18 362.767 101.836C362.588 101.499 362.498 101.127 362.498 100.719C362.498 100.196 362.62 99.7376 362.863 99.3438C363.107 98.9499 363.483 98.5703 363.991 98.2051C363.805 98.1191 363.644 98.0117 363.508 97.8828C363.372 97.7539 363.261 97.6143 363.175 97.4639C363.089 97.3063 363.024 97.1416 362.981 96.9697C362.938 96.7979 362.917 96.6296 362.917 96.4648C362.917 95.9993 363.024 95.5732 363.239 95.1865C363.461 94.7998 363.723 94.4346 364.023 94.0908C363.887 93.9261 363.766 93.765 363.658 93.6074C363.558 93.4499 363.468 93.2816 363.39 93.1025C363.318 92.9163 363.261 92.7194 363.218 92.5117C363.182 92.2969 363.164 92.0534 363.164 91.7812C363.164 91.2227 363.264 90.7142 363.465 90.2559C363.673 89.7904 363.959 89.3929 364.324 89.0635C364.697 88.734 365.141 88.4798 365.656 88.3008C366.179 88.1146 366.756 88.0215 367.386 88.0215C367.651 88.0215 367.905 88.0394 368.148 88.0752C368.392 88.111 368.607 88.1576 368.793 88.2148H372.703V89.7402H370.974ZM364.485 100.558C364.485 101.066 364.75 101.435 365.28 101.664C365.81 101.9 366.548 102.019 367.493 102.019C368.088 102.019 368.585 101.965 368.986 101.857C369.395 101.75 369.72 101.607 369.964 101.428C370.215 101.256 370.394 101.055 370.501 100.826C370.608 100.604 370.662 100.375 370.662 100.139C370.662 99.7018 370.483 99.3796 370.125 99.1719C369.767 98.9642 369.219 98.8424 368.481 98.8066L365.667 98.71C365.431 98.8675 365.234 99.0215 365.076 99.1719C364.926 99.3223 364.808 99.4727 364.722 99.623C364.636 99.7806 364.575 99.9346 364.539 100.085C364.503 100.243 364.485 100.4 364.485 100.558ZM365.055 91.7383C365.055 92.082 365.112 92.3971 365.227 92.6836C365.341 92.9701 365.502 93.2135 365.71 93.4141C365.918 93.6146 366.161 93.7721 366.44 93.8867C366.727 93.9941 367.042 94.0479 367.386 94.0479C367.758 94.0479 368.088 93.987 368.374 93.8652C368.668 93.7363 368.911 93.5645 369.104 93.3496C369.305 93.1348 369.455 92.8877 369.556 92.6084C369.663 92.3291 369.717 92.0391 369.717 91.7383C369.717 91.3945 369.66 91.0794 369.545 90.793C369.43 90.5065 369.269 90.263 369.062 90.0625C368.854 89.862 368.607 89.708 368.32 89.6006C368.041 89.486 367.729 89.4287 367.386 89.4287C367.013 89.4287 366.68 89.4932 366.387 89.6221C366.1 89.751 365.857 89.9229 365.656 90.1377C365.463 90.3454 365.312 90.5889 365.205 90.8682C365.105 91.1475 365.055 91.4375 365.055 91.7383ZM378.977 89.7617H375.786V88.2148H380.867V97.4424H384.079V99H375.432V97.4424H378.977V89.7617ZM379.632 83.6924C379.84 83.6924 380.033 83.7318 380.212 83.8105C380.391 83.8822 380.545 83.986 380.674 84.1221C380.81 84.2581 380.914 84.4157 380.985 84.5947C381.064 84.7666 381.104 84.9564 381.104 85.1641C381.104 85.3646 381.064 85.5544 380.985 85.7334C380.914 85.9124 380.81 86.07 380.674 86.2061C380.545 86.3421 380.391 86.4495 380.212 86.5283C380.033 86.5999 379.84 86.6357 379.632 86.6357C379.424 86.6357 379.231 86.5999 379.052 86.5283C378.873 86.4495 378.715 86.3421 378.579 86.2061C378.45 86.07 378.346 85.9124 378.268 85.7334C378.196 85.5544 378.16 85.3646 378.16 85.1641C378.16 84.9564 378.196 84.7666 378.268 84.5947C378.346 84.4157 378.45 84.2581 378.579 84.1221C378.715 83.986 378.873 83.8822 379.052 83.8105C379.231 83.7318 379.424 83.6924 379.632 83.6924ZM386.389 88.2148H388.516L391.158 95.3477L391.728 97.0879L392.318 95.3047L394.939 88.2148H396.991L392.759 99H390.61L386.389 88.2148ZM408.604 93.0381C408.604 93.3031 408.6 93.5251 408.593 93.7041C408.586 93.8831 408.575 94.0514 408.561 94.209H400.987C400.987 95.3118 401.295 96.1605 401.911 96.7549C402.527 97.3421 403.415 97.6357 404.575 97.6357C404.89 97.6357 405.205 97.625 405.521 97.6035C405.836 97.5749 406.14 97.5391 406.434 97.4961C406.727 97.4531 407.007 97.4066 407.271 97.3564C407.544 97.2992 407.794 97.2383 408.023 97.1738V98.71C407.515 98.8532 406.938 98.9678 406.294 99.0537C405.657 99.1468 404.994 99.1934 404.307 99.1934C403.383 99.1934 402.588 99.068 401.922 98.8174C401.256 98.5667 400.708 98.2051 400.278 97.7324C399.856 97.2526 399.541 96.6689 399.333 95.9814C399.132 95.2868 399.032 94.5026 399.032 93.6289C399.032 92.8698 399.14 92.1536 399.354 91.4805C399.576 90.8001 399.895 90.2057 400.311 89.6973C400.733 89.1816 401.249 88.7734 401.857 88.4727C402.466 88.1719 403.157 88.0215 403.931 88.0215C404.683 88.0215 405.349 88.1396 405.929 88.376C406.509 88.6123 406.996 88.9489 407.39 89.3857C407.791 89.8154 408.091 90.3418 408.292 90.9648C408.5 91.5807 408.604 92.2718 408.604 93.0381ZM406.659 92.7695C406.681 92.2897 406.634 91.8529 406.52 91.459C406.405 91.0579 406.226 90.7142 405.982 90.4277C405.746 90.1413 405.449 89.9193 405.091 89.7617C404.733 89.597 404.317 89.5146 403.845 89.5146C403.437 89.5146 403.064 89.5934 402.728 89.751C402.391 89.9085 402.101 90.1305 401.857 90.417C401.614 90.7035 401.417 91.0472 401.267 91.4482C401.116 91.8493 401.023 92.2897 400.987 92.7695H406.659ZM432.795 93.0381C432.795 93.3031 432.791 93.5251 432.784 93.7041C432.777 93.8831 432.766 94.0514 432.752 94.209H425.179C425.179 95.3118 425.487 96.1605 426.103 96.7549C426.718 97.3421 427.606 97.6357 428.767 97.6357C429.082 97.6357 429.397 97.625 429.712 97.6035C430.027 97.5749 430.331 97.5391 430.625 97.4961C430.919 97.4531 431.198 97.4066 431.463 97.3564C431.735 97.2992 431.986 97.2383 432.215 97.1738V98.71C431.706 98.8532 431.13 98.9678 430.485 99.0537C429.848 99.1468 429.186 99.1934 428.498 99.1934C427.574 99.1934 426.779 99.068 426.113 98.8174C425.447 98.5667 424.899 98.2051 424.47 97.7324C424.047 97.2526 423.732 96.6689 423.524 95.9814C423.324 95.2868 423.224 94.5026 423.224 93.6289C423.224 92.8698 423.331 92.1536 423.546 91.4805C423.768 90.8001 424.087 90.2057 424.502 89.6973C424.924 89.1816 425.44 88.7734 426.049 88.4727C426.658 88.1719 427.349 88.0215 428.122 88.0215C428.874 88.0215 429.54 88.1396 430.12 88.376C430.7 88.6123 431.187 88.9489 431.581 89.3857C431.982 89.8154 432.283 90.3418 432.483 90.9648C432.691 91.5807 432.795 92.2718 432.795 93.0381ZM430.851 92.7695C430.872 92.2897 430.826 91.8529 430.711 91.459C430.596 91.0579 430.417 90.7142 430.174 90.4277C429.938 90.1413 429.64 89.9193 429.282 89.7617C428.924 89.597 428.509 89.5146 428.036 89.5146C427.628 89.5146 427.256 89.5934 426.919 89.751C426.582 89.9085 426.292 90.1305 426.049 90.417C425.805 90.7035 425.608 91.0472 425.458 91.4482C425.308 91.8493 425.215 92.2897 425.179 92.7695H430.851ZM436.222 88.2148H437.93L437.983 90.2021C438.621 89.4359 439.247 88.8809 439.863 88.5371C440.486 88.1934 441.113 88.0215 441.743 88.0215C442.86 88.0215 443.705 88.3831 444.278 89.1064C444.858 89.8298 445.127 90.904 445.084 92.3291H443.193C443.215 91.3838 443.075 90.6999 442.774 90.2773C442.481 89.8477 442.048 89.6328 441.475 89.6328C441.224 89.6328 440.97 89.6794 440.712 89.7725C440.461 89.8584 440.2 90.0016 439.928 90.2021C439.663 90.3955 439.38 90.6462 439.079 90.9541C438.778 91.262 438.456 91.6344 438.112 92.0713V99H436.222V88.2148ZM448.317 88.2148H450.025L450.079 90.2021C450.716 89.4359 451.343 88.8809 451.959 88.5371C452.582 88.1934 453.209 88.0215 453.839 88.0215C454.956 88.0215 455.801 88.3831 456.374 89.1064C456.954 89.8298 457.223 90.904 457.18 92.3291H455.289C455.311 91.3838 455.171 90.6999 454.87 90.2773C454.576 89.8477 454.143 89.6328 453.57 89.6328C453.32 89.6328 453.065 89.6794 452.808 89.7725C452.557 89.8584 452.296 90.0016 452.023 90.2021C451.758 90.3955 451.476 90.6462 451.175 90.9541C450.874 91.262 450.552 91.6344 450.208 92.0713V99H448.317V88.2148ZM469.361 93.5215C469.361 94.3594 469.243 95.1292 469.007 95.8311C468.771 96.5257 468.43 97.1237 467.986 97.625C467.542 98.1191 467.002 98.5059 466.364 98.7852C465.727 99.0573 465.004 99.1934 464.194 99.1934C463.421 99.1934 462.726 99.0752 462.11 98.8389C461.502 98.5954 460.982 98.2409 460.553 97.7754C460.13 97.3099 459.804 96.7334 459.575 96.0459C459.353 95.3584 459.242 94.5671 459.242 93.6719C459.242 92.834 459.36 92.0713 459.597 91.3838C459.833 90.6891 460.173 90.0947 460.617 89.6006C461.061 89.0993 461.602 88.7126 462.239 88.4404C462.877 88.1611 463.6 88.0215 464.409 88.0215C465.183 88.0215 465.874 88.1432 466.482 88.3867C467.098 88.623 467.618 88.974 468.04 89.4395C468.47 89.8978 468.796 90.4707 469.018 91.1582C469.247 91.8457 469.361 92.6335 469.361 93.5215ZM467.449 93.6074C467.449 92.9414 467.374 92.3613 467.224 91.8672C467.08 91.3659 466.873 90.9505 466.601 90.6211C466.328 90.2845 465.995 90.0339 465.602 89.8691C465.215 89.6973 464.782 89.6113 464.302 89.6113C463.743 89.6113 463.263 89.7223 462.862 89.9443C462.468 90.1592 462.143 90.4492 461.885 90.8145C461.634 91.1797 461.448 91.6058 461.326 92.0928C461.212 92.5726 461.154 93.0775 461.154 93.6074C461.154 94.2734 461.226 94.8571 461.369 95.3584C461.52 95.8597 461.731 96.2786 462.003 96.6152C462.275 96.9447 462.604 97.1953 462.991 97.3672C463.378 97.5319 463.815 97.6143 464.302 97.6143C464.86 97.6143 465.337 97.5068 465.73 97.292C466.132 97.07 466.457 96.7764 466.708 96.4111C466.966 96.0459 467.152 95.6234 467.267 95.1436C467.388 94.6566 467.449 94.1445 467.449 93.6074ZM472.509 88.2148H474.217L474.271 90.2021C474.908 89.4359 475.535 88.8809 476.15 88.5371C476.773 88.1934 477.4 88.0215 478.03 88.0215C479.147 88.0215 479.993 88.3831 480.565 89.1064C481.146 89.8298 481.414 90.904 481.371 92.3291H479.48C479.502 91.3838 479.362 90.6999 479.062 90.2773C478.768 89.8477 478.335 89.6328 477.762 89.6328C477.511 89.6328 477.257 89.6794 476.999 89.7725C476.748 89.8584 476.487 90.0016 476.215 90.2021C475.95 90.3955 475.667 90.6462 475.366 90.9541C475.065 91.262 474.743 91.6344 474.399 92.0713V99H472.509V88.2148ZM263.015 109.821L255.646 127.31H253.862L261.231 109.821H263.015ZM275.11 109.821L267.741 127.31H265.958L273.327 109.821H275.11ZM300.086 112.593H295.929V125H293.995V112.593H289.838V110.96H300.086V112.593ZM311.397 125H309.528V118.114C309.528 117.284 309.371 116.664 309.056 116.256C308.748 115.84 308.304 115.633 307.724 115.633C307.473 115.633 307.237 115.669 307.015 115.74C306.8 115.805 306.574 115.923 306.338 116.095C306.102 116.259 305.844 116.485 305.564 116.771C305.285 117.058 304.963 117.416 304.598 117.846V125H302.729V109.821H304.598V114.215L304.533 115.912C304.827 115.561 305.113 115.268 305.393 115.031C305.679 114.788 305.962 114.591 306.241 114.44C306.528 114.29 306.818 114.183 307.111 114.118C307.405 114.054 307.709 114.021 308.024 114.021C309.099 114.021 309.929 114.351 310.517 115.01C311.104 115.661 311.397 116.646 311.397 117.964V125ZM318.498 115.762H315.308V114.215H320.389V123.442H323.601V125H314.953V123.442H318.498V115.762ZM319.153 109.692C319.361 109.692 319.554 109.732 319.733 109.811C319.912 109.882 320.066 109.986 320.195 110.122C320.331 110.258 320.435 110.416 320.507 110.595C320.586 110.767 320.625 110.956 320.625 111.164C320.625 111.365 320.586 111.554 320.507 111.733C320.435 111.912 320.331 112.07 320.195 112.206C320.066 112.342 319.912 112.45 319.733 112.528C319.554 112.6 319.361 112.636 319.153 112.636C318.946 112.636 318.752 112.6 318.573 112.528C318.394 112.45 318.237 112.342 318.101 112.206C317.972 112.07 317.868 111.912 317.789 111.733C317.717 111.554 317.682 111.365 317.682 111.164C317.682 110.956 317.717 110.767 317.789 110.595C317.868 110.416 317.972 110.258 318.101 110.122C318.237 109.986 318.394 109.882 318.573 109.811C318.752 109.732 318.946 109.692 319.153 109.692ZM335.46 122.057C335.46 122.436 335.396 122.776 335.267 123.077C335.138 123.378 334.962 123.646 334.74 123.883C334.518 124.112 334.26 124.309 333.967 124.474C333.673 124.638 333.358 124.774 333.021 124.882C332.692 124.989 332.352 125.068 332.001 125.118C331.65 125.168 331.306 125.193 330.97 125.193C330.239 125.193 329.566 125.161 328.95 125.097C328.341 125.032 327.743 124.928 327.156 124.785V123.066C327.786 123.245 328.413 123.382 329.036 123.475C329.659 123.568 330.279 123.614 330.895 123.614C331.79 123.614 332.452 123.493 332.882 123.249C333.312 123.006 333.526 122.658 333.526 122.207C333.526 122.014 333.491 121.842 333.419 121.691C333.354 121.534 333.233 121.387 333.054 121.251C332.875 121.108 332.595 120.961 332.216 120.811C331.843 120.66 331.331 120.488 330.68 120.295C330.193 120.152 329.742 119.991 329.326 119.812C328.918 119.625 328.563 119.407 328.263 119.156C327.962 118.906 327.726 118.612 327.554 118.275C327.382 117.939 327.296 117.541 327.296 117.083C327.296 116.782 327.364 116.453 327.5 116.095C327.643 115.737 327.883 115.404 328.22 115.096C328.556 114.788 329.011 114.534 329.584 114.333C330.157 114.125 330.873 114.021 331.732 114.021C332.155 114.021 332.624 114.047 333.14 114.097C333.655 114.14 334.192 114.218 334.751 114.333V115.998C334.164 115.855 333.605 115.751 333.075 115.687C332.552 115.615 332.098 115.579 331.711 115.579C331.245 115.579 330.852 115.615 330.529 115.687C330.214 115.758 329.956 115.858 329.756 115.987C329.562 116.109 329.423 116.256 329.337 116.428C329.251 116.592 329.208 116.771 329.208 116.965C329.208 117.158 329.244 117.334 329.315 117.491C329.394 117.649 329.534 117.803 329.734 117.953C329.942 118.096 330.229 118.243 330.594 118.394C330.959 118.537 331.435 118.694 332.022 118.866C332.66 119.052 333.197 119.249 333.634 119.457C334.071 119.658 334.425 119.883 334.697 120.134C334.969 120.384 335.163 120.667 335.277 120.982C335.399 121.298 335.46 121.656 335.46 122.057ZM361.102 114.215L359.533 125H357.267L355.709 120.488L355.397 119.393L355.043 120.553L353.55 125H351.348L349.79 114.215H351.616L352.519 121.541L352.712 123.174L353.174 121.745L354.742 116.9H356.085L357.771 121.681L358.255 123.109L358.416 121.595L359.254 114.215H361.102ZM366.881 115.762H363.69V114.215H368.771V123.442H371.983V125H363.336V123.442H366.881V115.762ZM367.536 109.692C367.744 109.692 367.937 109.732 368.116 109.811C368.295 109.882 368.449 109.986 368.578 110.122C368.714 110.258 368.818 110.416 368.89 110.595C368.968 110.767 369.008 110.956 369.008 111.164C369.008 111.365 368.968 111.554 368.89 111.733C368.818 111.912 368.714 112.07 368.578 112.206C368.449 112.342 368.295 112.45 368.116 112.528C367.937 112.6 367.744 112.636 367.536 112.636C367.328 112.636 367.135 112.6 366.956 112.528C366.777 112.45 366.619 112.342 366.483 112.206C366.354 112.07 366.251 111.912 366.172 111.733C366.1 111.554 366.064 111.365 366.064 111.164C366.064 110.956 366.1 110.767 366.172 110.595C366.251 110.416 366.354 110.258 366.483 110.122C366.619 109.986 366.777 109.882 366.956 109.811C367.135 109.732 367.328 109.692 367.536 109.692ZM378.977 111.357H375.786V109.821H380.867V123.442H384.079V125H375.432V123.442H378.977V111.357ZM391.072 111.357H387.882V109.821H392.963V123.442H396.175V125H387.527V123.442H391.072V111.357ZM419.356 115.74C419.557 115.991 419.711 116.285 419.818 116.621C419.933 116.951 419.99 117.309 419.99 117.695C419.99 118.254 419.886 118.766 419.679 119.231C419.478 119.69 419.192 120.084 418.819 120.413C418.447 120.743 417.999 121 417.477 121.187C416.961 121.366 416.392 121.455 415.769 121.455C415.317 121.455 414.895 121.409 414.501 121.315C414.107 121.215 413.796 121.093 413.566 120.95C413.43 121.151 413.316 121.34 413.223 121.52C413.13 121.699 413.083 121.899 413.083 122.121C413.083 122.393 413.212 122.619 413.47 122.798C413.735 122.977 414.082 123.074 414.512 123.088L417.348 123.195C417.885 123.21 418.379 123.278 418.83 123.399C419.288 123.521 419.679 123.697 420.001 123.926C420.33 124.155 420.585 124.438 420.764 124.774C420.95 125.111 421.043 125.501 421.043 125.945C421.043 126.425 420.939 126.88 420.731 127.31C420.524 127.739 420.201 128.115 419.765 128.438C419.335 128.767 418.787 129.028 418.121 129.222C417.455 129.415 416.664 129.512 415.747 129.512C414.873 129.512 414.129 129.44 413.513 129.297C412.904 129.161 412.403 128.967 412.009 128.717C411.615 128.473 411.328 128.18 411.149 127.836C410.97 127.499 410.881 127.127 410.881 126.719C410.881 126.196 411.003 125.738 411.246 125.344C411.49 124.95 411.866 124.57 412.374 124.205C412.188 124.119 412.027 124.012 411.891 123.883C411.755 123.754 411.644 123.614 411.558 123.464C411.472 123.306 411.407 123.142 411.364 122.97C411.321 122.798 411.3 122.63 411.3 122.465C411.3 121.999 411.407 121.573 411.622 121.187C411.844 120.8 412.105 120.435 412.406 120.091C412.27 119.926 412.148 119.765 412.041 119.607C411.941 119.45 411.851 119.282 411.772 119.103C411.701 118.916 411.644 118.719 411.601 118.512C411.565 118.297 411.547 118.053 411.547 117.781C411.547 117.223 411.647 116.714 411.848 116.256C412.055 115.79 412.342 115.393 412.707 115.063C413.079 114.734 413.523 114.48 414.039 114.301C414.562 114.115 415.138 114.021 415.769 114.021C416.034 114.021 416.288 114.039 416.531 114.075C416.775 114.111 416.99 114.158 417.176 114.215H421.086V115.74H419.356ZM412.868 126.558C412.868 127.066 413.133 127.435 413.663 127.664C414.193 127.9 414.931 128.019 415.876 128.019C416.47 128.019 416.968 127.965 417.369 127.857C417.777 127.75 418.103 127.607 418.347 127.428C418.597 127.256 418.776 127.055 418.884 126.826C418.991 126.604 419.045 126.375 419.045 126.139C419.045 125.702 418.866 125.38 418.508 125.172C418.15 124.964 417.602 124.842 416.864 124.807L414.05 124.71C413.813 124.868 413.617 125.021 413.459 125.172C413.309 125.322 413.19 125.473 413.104 125.623C413.019 125.781 412.958 125.935 412.922 126.085C412.886 126.243 412.868 126.4 412.868 126.558ZM413.438 117.738C413.438 118.082 413.495 118.397 413.609 118.684C413.724 118.97 413.885 119.214 414.093 119.414C414.3 119.615 414.544 119.772 414.823 119.887C415.11 119.994 415.425 120.048 415.769 120.048C416.141 120.048 416.47 119.987 416.757 119.865C417.05 119.736 417.294 119.564 417.487 119.35C417.688 119.135 417.838 118.888 417.938 118.608C418.046 118.329 418.1 118.039 418.1 117.738C418.1 117.395 418.042 117.079 417.928 116.793C417.813 116.507 417.652 116.263 417.444 116.062C417.237 115.862 416.99 115.708 416.703 115.601C416.424 115.486 416.112 115.429 415.769 115.429C415.396 115.429 415.063 115.493 414.77 115.622C414.483 115.751 414.24 115.923 414.039 116.138C413.846 116.345 413.695 116.589 413.588 116.868C413.488 117.147 413.438 117.438 413.438 117.738ZM427.359 115.762H424.169V114.215H429.25V123.442H432.462V125H423.814V123.442H427.359V115.762ZM428.015 109.692C428.222 109.692 428.416 109.732 428.595 109.811C428.774 109.882 428.928 109.986 429.057 110.122C429.193 110.258 429.297 110.416 429.368 110.595C429.447 110.767 429.486 110.956 429.486 111.164C429.486 111.365 429.447 111.554 429.368 111.733C429.297 111.912 429.193 112.07 429.057 112.206C428.928 112.342 428.774 112.45 428.595 112.528C428.416 112.6 428.222 112.636 428.015 112.636C427.807 112.636 427.614 112.6 427.435 112.528C427.256 112.45 427.098 112.342 426.962 112.206C426.833 112.07 426.729 111.912 426.65 111.733C426.579 111.554 426.543 111.365 426.543 111.164C426.543 110.956 426.579 110.767 426.65 110.595C426.729 110.416 426.833 110.258 426.962 110.122C427.098 109.986 427.256 109.882 427.435 109.811C427.614 109.732 427.807 109.692 428.015 109.692ZM434.771 114.215H436.898L439.541 121.348L440.11 123.088L440.701 121.305L443.322 114.215H445.374L441.142 125H438.993L434.771 114.215ZM456.986 119.038C456.986 119.303 456.983 119.525 456.976 119.704C456.968 119.883 456.958 120.051 456.943 120.209H449.37C449.37 121.312 449.678 122.16 450.294 122.755C450.91 123.342 451.798 123.636 452.958 123.636C453.273 123.636 453.588 123.625 453.903 123.604C454.218 123.575 454.523 123.539 454.816 123.496C455.11 123.453 455.389 123.407 455.654 123.356C455.926 123.299 456.177 123.238 456.406 123.174V124.71C455.898 124.853 455.321 124.968 454.677 125.054C454.039 125.147 453.377 125.193 452.689 125.193C451.766 125.193 450.971 125.068 450.305 124.817C449.639 124.567 449.091 124.205 448.661 123.732C448.239 123.253 447.924 122.669 447.716 121.981C447.515 121.287 447.415 120.503 447.415 119.629C447.415 118.87 447.522 118.154 447.737 117.48C447.959 116.8 448.278 116.206 448.693 115.697C449.116 115.182 449.632 114.773 450.24 114.473C450.849 114.172 451.54 114.021 452.313 114.021C453.065 114.021 453.731 114.14 454.312 114.376C454.892 114.612 455.379 114.949 455.772 115.386C456.174 115.815 456.474 116.342 456.675 116.965C456.882 117.581 456.986 118.272 456.986 119.038ZM455.042 118.77C455.063 118.29 455.017 117.853 454.902 117.459C454.788 117.058 454.609 116.714 454.365 116.428C454.129 116.141 453.832 115.919 453.474 115.762C453.116 115.597 452.7 115.515 452.228 115.515C451.819 115.515 451.447 115.593 451.11 115.751C450.774 115.909 450.484 116.131 450.24 116.417C449.997 116.703 449.8 117.047 449.649 117.448C449.499 117.849 449.406 118.29 449.37 118.77H455.042ZM481.178 119.038C481.178 119.303 481.174 119.525 481.167 119.704C481.16 119.883 481.149 120.051 481.135 120.209H473.562C473.562 121.312 473.869 122.16 474.485 122.755C475.101 123.342 475.989 123.636 477.149 123.636C477.465 123.636 477.78 123.625 478.095 123.604C478.41 123.575 478.714 123.539 479.008 123.496C479.301 123.453 479.581 123.407 479.846 123.356C480.118 123.299 480.368 123.238 480.598 123.174V124.71C480.089 124.853 479.513 124.968 478.868 125.054C478.231 125.147 477.568 125.193 476.881 125.193C475.957 125.193 475.162 125.068 474.496 124.817C473.83 124.567 473.282 124.205 472.853 123.732C472.43 123.253 472.115 122.669 471.907 121.981C471.707 121.287 471.606 120.503 471.606 119.629C471.606 118.87 471.714 118.154 471.929 117.48C472.151 116.8 472.469 116.206 472.885 115.697C473.307 115.182 473.823 114.773 474.432 114.473C475.04 114.172 475.731 114.021 476.505 114.021C477.257 114.021 477.923 114.14 478.503 114.376C479.083 114.612 479.57 114.949 479.964 115.386C480.365 115.815 480.666 116.342 480.866 116.965C481.074 117.581 481.178 118.272 481.178 119.038ZM479.233 118.77C479.255 118.29 479.208 117.853 479.094 117.459C478.979 117.058 478.8 116.714 478.557 116.428C478.32 116.141 478.023 115.919 477.665 115.762C477.307 115.597 476.892 115.515 476.419 115.515C476.011 115.515 475.638 115.593 475.302 115.751C474.965 115.909 474.675 116.131 474.432 116.417C474.188 116.703 473.991 117.047 473.841 117.448C473.69 117.849 473.597 118.29 473.562 118.77H479.233ZM484.604 114.215H486.312L486.366 116.202C487.004 115.436 487.63 114.881 488.246 114.537C488.869 114.193 489.496 114.021 490.126 114.021C491.243 114.021 492.088 114.383 492.661 115.106C493.241 115.83 493.51 116.904 493.467 118.329H491.576C491.598 117.384 491.458 116.7 491.157 116.277C490.864 115.848 490.43 115.633 489.857 115.633C489.607 115.633 489.353 115.679 489.095 115.772C488.844 115.858 488.583 116.002 488.311 116.202C488.046 116.396 487.763 116.646 487.462 116.954C487.161 117.262 486.839 117.634 486.495 118.071V125H484.604V114.215ZM496.7 114.215H498.408L498.462 116.202C499.099 115.436 499.726 114.881 500.342 114.537C500.965 114.193 501.591 114.021 502.222 114.021C503.339 114.021 504.184 114.383 504.757 115.106C505.337 115.83 505.605 116.904 505.562 118.329H503.672C503.693 117.384 503.554 116.7 503.253 116.277C502.959 115.848 502.526 115.633 501.953 115.633C501.702 115.633 501.448 115.679 501.19 115.772C500.94 115.858 500.678 116.002 500.406 116.202C500.141 116.396 499.858 116.646 499.558 116.954C499.257 117.262 498.935 117.634 498.591 118.071V125H496.7V114.215ZM517.744 119.521C517.744 120.359 517.626 121.129 517.39 121.831C517.153 122.526 516.813 123.124 516.369 123.625C515.925 124.119 515.384 124.506 514.747 124.785C514.11 125.057 513.386 125.193 512.577 125.193C511.804 125.193 511.109 125.075 510.493 124.839C509.884 124.595 509.365 124.241 508.936 123.775C508.513 123.31 508.187 122.733 507.958 122.046C507.736 121.358 507.625 120.567 507.625 119.672C507.625 118.834 507.743 118.071 507.979 117.384C508.216 116.689 508.556 116.095 509 115.601C509.444 115.099 509.985 114.713 510.622 114.44C511.259 114.161 511.983 114.021 512.792 114.021C513.565 114.021 514.257 114.143 514.865 114.387C515.481 114.623 516 114.974 516.423 115.439C516.853 115.898 517.178 116.471 517.4 117.158C517.63 117.846 517.744 118.633 517.744 119.521ZM515.832 119.607C515.832 118.941 515.757 118.361 515.606 117.867C515.463 117.366 515.256 116.951 514.983 116.621C514.711 116.285 514.378 116.034 513.984 115.869C513.598 115.697 513.164 115.611 512.685 115.611C512.126 115.611 511.646 115.722 511.245 115.944C510.851 116.159 510.525 116.449 510.268 116.814C510.017 117.18 509.831 117.606 509.709 118.093C509.594 118.573 509.537 119.077 509.537 119.607C509.537 120.273 509.609 120.857 509.752 121.358C509.902 121.86 510.114 122.279 510.386 122.615C510.658 122.945 510.987 123.195 511.374 123.367C511.761 123.532 512.198 123.614 512.685 123.614C513.243 123.614 513.719 123.507 514.113 123.292C514.514 123.07 514.84 122.776 515.091 122.411C515.349 122.046 515.535 121.623 515.649 121.144C515.771 120.657 515.832 120.145 515.832 119.607ZM520.892 114.215H522.6L522.653 116.202C523.291 115.436 523.917 114.881 524.533 114.537C525.156 114.193 525.783 114.021 526.413 114.021C527.53 114.021 528.375 114.383 528.948 115.106C529.528 115.83 529.797 116.904 529.754 118.329H527.863C527.885 117.384 527.745 116.7 527.444 116.277C527.151 115.848 526.717 115.633 526.145 115.633C525.894 115.633 525.64 115.679 525.382 115.772C525.131 115.858 524.87 116.002 524.598 116.202C524.333 116.396 524.05 116.646 523.749 116.954C523.448 117.262 523.126 117.634 522.782 118.071V125H520.892V114.215Z" fill="#A5A5A5"/>
</g>
<defs>
<filter id="filter0_d_527_4" x="25.3859" y="21" width="604.523" height="165.177" filterUnits="userSpaceOnUse" color-interpolation-filters="sRGB">
<feFlood flood-opacity="0" result="BackgroundImageFix"/>
<feColorMatrix in="SourceAlpha" type="matrix" values="0 0 0 0 0 0 0 0 0 0 0 0 0 0 0 0 0 0 127 0" result="hardAlpha"/>
<feOffset dy="4"/>
<feGaussianBlur stdDeviation="2"/>
<feComposite in2="hardAlpha" operator="out"/>
<feColorMatrix type="matrix" values="0 0 0 0 0.00392157 0 0 0 0 0.0862745 0 0 0 0 0.152941 0 0 0 0.25 0"/>
<feBlend mode="normal" in2="BackgroundImageFix" result="effect1_dropShadow_527_4"/>
<feBlend mode="normal" in="SourceGraphic" in2="effect1_dropShadow_527_4" result="shape"/>
</filter>
</defs>
</svg>
