<svg width="541" height="140" viewBox="0 0 541 140" fill="none" xmlns="http://www.w3.org/2000/svg">
<rect width="541" height="140" fill="#F9FAFE"/>
<g filter="url(#filter0_d_602_112)">
<rect x="20.6587" y="22" width="504.847" height="89" fill="#011627"/>
</g>
<path d="M48.4822 49.2148H50.6092L53.2518 56.3477L53.8211 58.0879L54.4119 56.3047L57.033 49.2148H59.0848L54.8524 60H52.7039L48.4822 49.2148ZM68.5164 60L68.4734 58.5498C67.8862 59.1299 67.2882 59.5488 66.6795 59.8066C66.0779 60.0645 65.4442 60.1934 64.7781 60.1934C64.1623 60.1934 63.6359 60.1146 63.199 59.957C62.7622 59.7995 62.4005 59.5846 62.1141 59.3125C61.8348 59.0332 61.6271 58.7074 61.491 58.335C61.3621 57.9626 61.2977 57.5579 61.2977 57.1211C61.2977 56.0397 61.6987 55.1947 62.5008 54.5859C63.31 53.9701 64.5024 53.6621 66.0779 53.6621H68.3123V52.7168C68.3123 52.0794 68.1082 51.571 67.7 51.1914C67.2918 50.8047 66.6688 50.6113 65.8309 50.6113C65.2221 50.6113 64.6206 50.6794 64.0262 50.8154C63.4389 50.9515 62.8302 51.1449 62.2 51.3955V49.709C62.4363 49.623 62.6977 49.5407 62.9842 49.4619C63.2778 49.376 63.5858 49.3008 63.908 49.2363C64.2303 49.1719 64.5669 49.1217 64.9178 49.0859C65.2687 49.043 65.6232 49.0215 65.9813 49.0215C66.633 49.0215 67.2202 49.0931 67.743 49.2363C68.2658 49.3796 68.7062 49.598 69.0643 49.8916C69.4295 50.1852 69.7088 50.554 69.9022 50.998C70.0955 51.4421 70.1922 51.9648 70.1922 52.5664V60H68.5164ZM68.3123 55.0908H65.9383C65.4728 55.0908 65.0718 55.1374 64.7352 55.2305C64.3986 55.3236 64.1229 55.4561 63.908 55.6279C63.6932 55.7998 63.532 56.0075 63.4246 56.251C63.3244 56.4873 63.2742 56.7559 63.2742 57.0566C63.2742 57.2643 63.3065 57.4648 63.3709 57.6582C63.4354 57.8444 63.5392 58.0127 63.6824 58.1631C63.8257 58.3063 64.0119 58.4209 64.241 58.5068C64.4702 58.5928 64.7495 58.6357 65.0789 58.6357C65.5086 58.6357 65.9992 58.5068 66.5506 58.249C67.1092 57.984 67.6964 57.5687 68.3123 57.0029V55.0908ZM74.1238 49.2148H75.8318L75.8856 51.2021C76.5229 50.4359 77.1496 49.8809 77.7654 49.5371C78.3885 49.1934 79.0151 49.0215 79.6453 49.0215C80.7625 49.0215 81.6076 49.3831 82.1805 50.1064C82.7606 50.8298 83.0291 51.904 82.9861 53.3291H81.0955C81.117 52.3838 80.9774 51.6999 80.6766 51.2773C80.383 50.8477 79.9497 50.6328 79.3768 50.6328C79.1261 50.6328 78.8719 50.6794 78.6141 50.7725C78.3634 50.8584 78.102 51.0016 77.8299 51.2021C77.5649 51.3955 77.282 51.6462 76.9813 51.9541C76.6805 52.262 76.3582 52.6344 76.0145 53.0713V60H74.1238V49.2148ZM48.4822 80.2148H50.6092L53.2518 87.3477L53.8211 89.0879L54.4119 87.3047L57.033 80.2148H59.0848L54.8524 91H52.7039L48.4822 80.2148ZM68.5164 91L68.4734 89.5498C67.8862 90.1299 67.2882 90.5488 66.6795 90.8066C66.0779 91.0645 65.4442 91.1934 64.7781 91.1934C64.1623 91.1934 63.6359 91.1146 63.199 90.957C62.7622 90.7995 62.4005 90.5846 62.1141 90.3125C61.8348 90.0332 61.6271 89.7074 61.491 89.335C61.3621 88.9626 61.2977 88.5579 61.2977 88.1211C61.2977 87.0397 61.6987 86.1947 62.5008 85.5859C63.31 84.9701 64.5024 84.6621 66.0779 84.6621H68.3123V83.7168C68.3123 83.0794 68.1082 82.571 67.7 82.1914C67.2918 81.8047 66.6688 81.6113 65.8309 81.6113C65.2221 81.6113 64.6206 81.6794 64.0262 81.8154C63.4389 81.9515 62.8302 82.1449 62.2 82.3955V80.709C62.4363 80.623 62.6977 80.5407 62.9842 80.4619C63.2778 80.376 63.5858 80.3008 63.908 80.2363C64.2303 80.1719 64.5669 80.1217 64.9178 80.0859C65.2687 80.043 65.6232 80.0215 65.9813 80.0215C66.633 80.0215 67.2202 80.0931 67.743 80.2363C68.2658 80.3796 68.7062 80.598 69.0643 80.8916C69.4295 81.1852 69.7088 81.554 69.9022 81.998C70.0955 82.4421 70.1922 82.9648 70.1922 83.5664V91H68.5164ZM68.3123 86.0908H65.9383C65.4728 86.0908 65.0718 86.1374 64.7352 86.2305C64.3986 86.3236 64.1229 86.4561 63.908 86.6279C63.6932 86.7998 63.532 87.0075 63.4246 87.251C63.3244 87.4873 63.2742 87.7559 63.2742 88.0566C63.2742 88.2643 63.3065 88.4648 63.3709 88.6582C63.4354 88.8444 63.5392 89.0127 63.6824 89.1631C63.8257 89.3063 64.0119 89.4209 64.241 89.5068C64.4702 89.5928 64.7495 89.6357 65.0789 89.6357C65.5086 89.6357 65.9992 89.5068 66.5506 89.249C67.1092 88.984 67.6964 88.5687 68.3123 88.0029V86.0908ZM74.1238 80.2148H75.8318L75.8856 82.2021C76.5229 81.4359 77.1496 80.8809 77.7654 80.5371C78.3885 80.1934 79.0151 80.0215 79.6453 80.0215C80.7625 80.0215 81.6076 80.3831 82.1805 81.1064C82.7606 81.8298 83.0291 82.904 82.9861 84.3291H81.0955C81.117 83.3838 80.9774 82.6999 80.6766 82.2773C80.383 81.8477 79.9497 81.6328 79.3768 81.6328C79.1261 81.6328 78.8719 81.6794 78.6141 81.7725C78.3634 81.8584 78.102 82.0016 77.8299 82.2021C77.5649 82.3955 77.282 82.6462 76.9813 82.9541C76.6805 83.262 76.3582 83.6344 76.0145 84.0713V91H74.1238V80.2148Z" fill="#C792EA"/>
<path d="M106.415 57.0566C106.415 57.4362 106.35 57.7764 106.221 58.0771C106.093 58.3779 105.917 58.6465 105.695 58.8828C105.473 59.112 105.215 59.3089 104.922 59.4736C104.628 59.6383 104.313 59.7744 103.976 59.8818C103.647 59.9893 103.307 60.068 102.956 60.1182C102.605 60.1683 102.261 60.1934 101.925 60.1934C101.194 60.1934 100.521 60.1611 99.9051 60.0967C99.2964 60.0322 98.6984 59.9284 98.1111 59.7852V58.0664C98.7414 58.2454 99.368 58.3815 99.991 58.4746C100.614 58.5677 101.234 58.6143 101.849 58.6143C102.745 58.6143 103.407 58.4925 103.837 58.249C104.266 58.0055 104.481 57.6582 104.481 57.207C104.481 57.0137 104.445 56.8418 104.374 56.6914C104.309 56.5339 104.188 56.387 104.009 56.251C103.83 56.1077 103.55 55.9609 103.171 55.8105C102.798 55.6602 102.286 55.4883 101.635 55.2949C101.148 55.1517 100.696 54.9906 100.281 54.8115C99.8729 54.6253 99.5184 54.4069 99.2176 54.1562C98.9168 53.9056 98.6805 53.612 98.5086 53.2754C98.3367 52.9388 98.2508 52.5413 98.2508 52.083C98.2508 51.7822 98.3188 51.4528 98.4549 51.0947C98.5981 50.7367 98.838 50.4036 99.1746 50.0957C99.5112 49.7878 99.966 49.5335 100.539 49.333C101.112 49.1253 101.828 49.0215 102.687 49.0215C103.11 49.0215 103.579 49.0465 104.095 49.0967C104.61 49.1396 105.147 49.2184 105.706 49.333V50.998C105.119 50.8548 104.56 50.751 104.03 50.6865C103.507 50.6149 103.053 50.5791 102.666 50.5791C102.2 50.5791 101.806 50.6149 101.484 50.6865C101.169 50.7581 100.911 50.8584 100.711 50.9873C100.517 51.109 100.378 51.2559 100.292 51.4277C100.206 51.5924 100.163 51.7715 100.163 51.9648C100.163 52.1582 100.199 52.3337 100.27 52.4912C100.349 52.6488 100.489 52.8027 100.689 52.9531C100.897 53.0964 101.183 53.2432 101.549 53.3936C101.914 53.5368 102.39 53.6943 102.977 53.8662C103.615 54.0524 104.152 54.2493 104.589 54.457C105.026 54.6576 105.38 54.8831 105.652 55.1338C105.924 55.3844 106.118 55.6673 106.232 55.9824C106.354 56.2975 106.415 56.6556 106.415 57.0566ZM118.661 59.8496C118.238 59.957 117.802 60.0322 117.35 60.0752C116.899 60.1253 116.441 60.1504 115.975 60.1504C114.622 60.1504 113.612 59.846 112.946 59.2373C112.28 58.6214 111.947 57.6797 111.947 56.4121V50.7832H108.929V49.2148H111.947V46.25L113.816 45.7666V49.2148H118.661V50.7832H113.816V56.2617C113.816 57.0352 114.02 57.6152 114.429 58.002C114.844 58.3815 115.453 58.5713 116.255 58.5713C116.598 58.5713 116.974 58.5462 117.383 58.4961C117.791 58.4388 118.217 58.3529 118.661 58.2383V59.8496ZM122.507 49.2148H124.215L124.268 51.2021C124.906 50.4359 125.532 49.8809 126.148 49.5371C126.771 49.1934 127.398 49.0215 128.028 49.0215C129.145 49.0215 129.99 49.3831 130.563 50.1064C131.143 50.8298 131.412 51.904 131.369 53.3291H129.478C129.5 52.3838 129.36 51.6999 129.059 51.2773C128.766 50.8477 128.332 50.6328 127.76 50.6328C127.509 50.6328 127.255 50.6794 126.997 50.7725C126.746 50.8584 126.485 51.0016 126.213 51.2021C125.948 51.3955 125.665 51.6462 125.364 51.9541C125.063 52.262 124.741 52.6344 124.397 53.0713V60H122.507V49.2148ZM155.206 53.0605H145.968V51.4814H155.206V53.0605ZM155.206 56.7988H145.968V55.2197H155.206V56.7988ZM171.695 46.8945V49.1396H169.622V47.3672C169.622 46.4076 169.736 45.7129 169.966 45.2832C170.266 44.7103 170.743 44.277 171.394 43.9834L171.867 44.7354C171.473 44.9001 171.183 45.1471 170.997 45.4766C170.811 45.7988 170.707 46.2715 170.685 46.8945H171.695ZM175.025 46.8945V49.1396H172.952V47.3672C172.952 46.4076 173.067 45.7129 173.296 45.2832C173.596 44.7103 174.073 44.277 174.724 43.9834L175.197 44.7354C174.803 44.9001 174.513 45.1471 174.327 45.4766C174.141 45.7988 174.037 46.2715 174.015 46.8945H175.025ZM255.688 46.3359V44.0908H257.762V45.8633C257.762 46.8229 257.651 47.514 257.429 47.9365C257.121 48.5166 256.641 48.9535 255.989 49.2471L255.516 48.4844C255.903 48.3268 256.19 48.0798 256.376 47.7432C256.569 47.3994 256.677 46.9303 256.698 46.3359H255.688ZM259.018 46.3359V44.0908H261.092V45.8633C261.092 46.8229 260.981 47.514 260.759 47.9365C260.451 48.5166 259.971 48.9535 259.319 49.2471L258.846 48.4844C259.233 48.3268 259.52 48.0798 259.706 47.7432C259.899 47.3994 260.007 46.9303 260.028 46.3359H259.018ZM270.888 62.2021C271.254 62.2165 271.608 62.1842 271.952 62.1055C272.296 62.0267 272.596 61.9085 272.854 61.751C273.119 61.6006 273.331 61.4108 273.488 61.1816C273.646 60.9525 273.724 60.6911 273.724 60.3975C273.724 60.0967 273.671 59.8532 273.563 59.667C273.463 59.4808 273.348 59.3089 273.22 59.1514C273.091 58.9938 272.972 58.8255 272.865 58.6465C272.765 58.4674 272.715 58.2275 272.715 57.9268C272.715 57.7764 272.743 57.6188 272.801 57.4541C272.858 57.2894 272.944 57.139 273.058 57.0029C273.18 56.8669 273.331 56.7559 273.51 56.6699C273.696 56.584 273.914 56.541 274.165 56.541C274.416 56.541 274.655 56.5947 274.885 56.7021C275.121 56.8024 275.325 56.96 275.497 57.1748C275.676 57.3896 275.816 57.6582 275.916 57.9805C276.023 58.3027 276.077 58.6823 276.077 59.1191C276.077 59.7135 275.966 60.2829 275.744 60.8271C275.529 61.3786 275.203 61.8656 274.766 62.2881C274.337 62.7106 273.796 63.0472 273.144 63.2979C272.5 63.5485 271.748 63.6738 270.888 63.6738V62.2021ZM274.251 49.0215C274.473 49.0215 274.684 49.068 274.885 49.1611C275.085 49.2471 275.261 49.3652 275.411 49.5156C275.561 49.666 275.68 49.8415 275.765 50.042C275.859 50.2425 275.905 50.4538 275.905 50.6758C275.905 50.9049 275.859 51.1198 275.765 51.3203C275.68 51.5137 275.561 51.6855 275.411 51.8359C275.261 51.9863 275.085 52.1045 274.885 52.1904C274.684 52.2764 274.473 52.3193 274.251 52.3193C274.022 52.3193 273.807 52.2764 273.606 52.1904C273.413 52.1045 273.241 51.9863 273.091 51.8359C272.94 51.6855 272.822 51.5137 272.736 51.3203C272.65 51.1198 272.607 50.9049 272.607 50.6758C272.607 50.4538 272.65 50.2425 272.736 50.042C272.822 49.8415 272.94 49.666 273.091 49.5156C273.241 49.3652 273.413 49.2471 273.606 49.1611C273.807 49.068 274.022 49.0215 274.251 49.0215ZM97.8748 80.2148H99.5399L99.6151 81.9551C99.9302 81.5827 100.235 81.2747 100.528 81.0312C100.822 80.7806 101.108 80.5801 101.388 80.4297C101.674 80.2793 101.964 80.1755 102.258 80.1182C102.551 80.0537 102.856 80.0215 103.171 80.0215C104.281 80.0215 105.119 80.3509 105.684 81.0098C106.257 81.6615 106.544 82.6462 106.544 83.9639V91H104.675V84.1143C104.675 83.2692 104.517 82.6462 104.202 82.2451C103.887 81.8369 103.418 81.6328 102.795 81.6328C102.566 81.6328 102.34 81.6686 102.118 81.7402C101.903 81.8047 101.678 81.9229 101.441 82.0947C101.205 82.2594 100.947 82.485 100.668 82.7715C100.396 83.0579 100.088 83.416 99.744 83.8457V91H97.8748V80.2148ZM118.639 91H116.964L116.899 89.2598C116.577 89.6322 116.269 89.9437 115.975 90.1943C115.689 90.4378 115.402 90.6348 115.116 90.7852C114.83 90.9355 114.54 91.0394 114.246 91.0967C113.959 91.1611 113.655 91.1934 113.333 91.1934C112.223 91.1934 111.385 90.8675 110.819 90.2158C110.253 89.5641 109.971 88.5794 109.971 87.2617V80.2148H111.84V87.1113C111.84 88.7656 112.463 89.5928 113.709 89.5928C113.938 89.5928 114.16 89.5605 114.375 89.4961C114.597 89.4245 114.826 89.3063 115.062 89.1416C115.306 88.9697 115.564 88.7406 115.836 88.4541C116.115 88.1676 116.427 87.806 116.77 87.3691V80.2148H118.639V91ZM129.758 91V83.2549C129.758 82.9183 129.743 82.6426 129.715 82.4277C129.693 82.2129 129.654 82.0446 129.596 81.9229C129.546 81.7939 129.478 81.7044 129.392 81.6543C129.314 81.6042 129.213 81.5791 129.092 81.5791C128.948 81.5791 128.816 81.6221 128.694 81.708C128.572 81.7939 128.44 81.9336 128.297 82.127C128.161 82.3203 128.007 82.5781 127.835 82.9004C127.67 83.2155 127.473 83.6058 127.244 84.0713V91H125.536V83.459C125.536 83.0651 125.522 82.7464 125.493 82.5029C125.471 82.2594 125.432 82.0697 125.375 81.9336C125.325 81.7975 125.257 81.7044 125.171 81.6543C125.085 81.6042 124.981 81.5791 124.859 81.5791C124.73 81.5791 124.609 81.6149 124.494 81.6865C124.379 81.7581 124.25 81.887 124.107 82.0732C123.971 82.2594 123.817 82.5137 123.645 82.8359C123.473 83.1582 123.269 83.57 123.033 84.0713V91H121.314V80.2148H122.743L122.829 82.2666C123.015 81.8584 123.194 81.5111 123.366 81.2246C123.545 80.9382 123.728 80.709 123.914 80.5371C124.1 80.3581 124.297 80.2292 124.505 80.1504C124.72 80.0645 124.956 80.0215 125.214 80.0215C125.794 80.0215 126.234 80.2113 126.535 80.5908C126.836 80.9704 126.986 81.5576 126.986 82.3525C127.158 81.9801 127.326 81.6507 127.491 81.3643C127.656 81.0706 127.831 80.8271 128.017 80.6338C128.211 80.4333 128.422 80.2829 128.651 80.1826C128.88 80.0752 129.145 80.0215 129.446 80.0215C130.8 80.0215 131.476 81.0635 131.476 83.1475V91H129.758ZM155.206 84.0605H145.968V82.4814H155.206V84.0605ZM155.206 87.7988H145.968V86.2197H155.206V87.7988ZM207.703 93.2021C208.068 93.2165 208.423 93.1842 208.766 93.1055C209.11 93.0267 209.411 92.9085 209.669 92.751C209.934 92.6006 210.145 92.4108 210.303 92.1816C210.46 91.9525 210.539 91.6911 210.539 91.3975C210.539 91.0967 210.485 90.8532 210.378 90.667C210.277 90.4808 210.163 90.3089 210.034 90.1514C209.905 89.9938 209.787 89.8255 209.68 89.6465C209.579 89.4674 209.529 89.2275 209.529 88.9268C209.529 88.7764 209.558 88.6188 209.615 88.4541C209.672 88.2894 209.758 88.139 209.873 88.0029C209.995 87.8669 210.145 87.7559 210.324 87.6699C210.51 87.584 210.729 87.541 210.979 87.541C211.23 87.541 211.47 87.5947 211.699 87.7021C211.935 87.8024 212.139 87.96 212.311 88.1748C212.49 88.3896 212.63 88.6582 212.73 88.9805C212.838 89.3027 212.891 89.6823 212.891 90.1191C212.891 90.7135 212.78 91.2829 212.558 91.8271C212.344 92.3786 212.018 92.8656 211.581 93.2881C211.151 93.7106 210.61 94.0472 209.959 94.2979C209.314 94.5485 208.562 94.6738 207.703 94.6738V93.2021ZM211.065 80.0215C211.287 80.0215 211.499 80.068 211.699 80.1611C211.9 80.2471 212.075 80.3652 212.225 80.5156C212.376 80.666 212.494 80.8415 212.58 81.042C212.673 81.2425 212.72 81.4538 212.72 81.6758C212.72 81.9049 212.673 82.1198 212.58 82.3203C212.494 82.5137 212.376 82.6855 212.225 82.8359C212.075 82.9863 211.9 83.1045 211.699 83.1904C211.499 83.2764 211.287 83.3193 211.065 83.3193C210.836 83.3193 210.621 83.2764 210.421 83.1904C210.227 83.1045 210.055 82.9863 209.905 82.8359C209.755 82.6855 209.637 82.5137 209.551 82.3203C209.465 82.1198 209.422 81.9049 209.422 81.6758C209.422 81.4538 209.465 81.2425 209.551 81.042C209.637 80.8415 209.755 80.666 209.905 80.5156C210.055 80.3652 210.227 80.2471 210.421 80.1611C210.621 80.068 210.836 80.0215 211.065 80.0215Z" fill="white"/>
<path d="M193.094 60H191.181V53.5547H185.284V60H183.372V45.96H185.284V51.9004H191.181V45.96H193.094V60ZM205.103 54.0381C205.103 54.3031 205.1 54.5251 205.093 54.7041C205.085 54.8831 205.075 55.0514 205.06 55.209H197.487C197.487 56.3118 197.795 57.1605 198.411 57.7549C199.027 58.3421 199.915 58.6357 201.075 58.6357C201.39 58.6357 201.705 58.625 202.02 58.6035C202.335 58.5749 202.64 58.5391 202.933 58.4961C203.227 58.4531 203.506 58.4066 203.771 58.3564C204.043 58.2992 204.294 58.2383 204.523 58.1738V59.71C204.015 59.8532 203.438 59.9678 202.794 60.0537C202.156 60.1468 201.494 60.1934 200.806 60.1934C199.883 60.1934 199.088 60.068 198.422 59.8174C197.756 59.5667 197.208 59.2051 196.778 58.7324C196.356 58.2526 196.041 57.6689 195.833 56.9814C195.632 56.2868 195.532 55.5026 195.532 54.6289C195.532 53.8698 195.639 53.1536 195.854 52.4805C196.076 51.8001 196.395 51.2057 196.81 50.6973C197.233 50.1816 197.749 49.7734 198.357 49.4727C198.966 49.1719 199.657 49.0215 200.43 49.0215C201.182 49.0215 201.848 49.1396 202.429 49.376C203.009 49.6123 203.496 49.9489 203.889 50.3857C204.291 50.8154 204.591 51.3418 204.792 51.9648C204.999 52.5807 205.103 53.2718 205.103 54.0381ZM203.159 53.7695C203.18 53.2897 203.134 52.8529 203.019 52.459C202.905 52.0579 202.726 51.7142 202.482 51.4277C202.246 51.1413 201.949 50.9193 201.591 50.7617C201.233 50.597 200.817 50.5146 200.345 50.5146C199.936 50.5146 199.564 50.5934 199.227 50.751C198.891 50.9085 198.601 51.1305 198.357 51.417C198.114 51.7035 197.917 52.0472 197.766 52.4482C197.616 52.8493 197.523 53.2897 197.487 53.7695H203.159ZM211.763 46.3574H208.573V44.8213H213.654V58.4424H216.866V60H208.219V58.4424H211.763V46.3574ZM223.859 46.3574H220.669V44.8213H225.75V58.4424H228.962V60H220.314V58.4424H223.859V46.3574ZM241.67 54.5215C241.67 55.3594 241.552 56.1292 241.315 56.8311C241.079 57.5257 240.739 58.1237 240.295 58.625C239.851 59.1191 239.31 59.5059 238.673 59.7852C238.035 60.0573 237.312 60.1934 236.503 60.1934C235.729 60.1934 235.035 60.0752 234.419 59.8389C233.81 59.5954 233.291 59.2409 232.861 58.7754C232.439 58.3099 232.113 57.7334 231.884 57.0459C231.662 56.3584 231.551 55.5671 231.551 54.6719C231.551 53.834 231.669 53.0713 231.905 52.3838C232.141 51.6891 232.482 51.0947 232.926 50.6006C233.37 50.0993 233.91 49.7126 234.548 49.4404C235.185 49.1611 235.908 49.0215 236.718 49.0215C237.491 49.0215 238.182 49.1432 238.791 49.3867C239.407 49.623 239.926 49.974 240.348 50.4395C240.778 50.8978 241.104 51.4707 241.326 52.1582C241.555 52.8457 241.67 53.6335 241.67 54.5215ZM239.758 54.6074C239.758 53.9414 239.682 53.3613 239.532 52.8672C239.389 52.3659 239.181 51.9505 238.909 51.6211C238.637 51.2845 238.304 51.0339 237.91 50.8691C237.523 50.6973 237.09 50.6113 236.61 50.6113C236.052 50.6113 235.572 50.7223 235.171 50.9443C234.777 51.1592 234.451 51.4492 234.193 51.8145C233.943 52.1797 233.756 52.6058 233.635 53.0928C233.52 53.5726 233.463 54.0775 233.463 54.6074C233.463 55.2734 233.534 55.8571 233.678 56.3584C233.828 56.8597 234.039 57.2786 234.311 57.6152C234.583 57.9447 234.913 58.1953 235.3 58.3672C235.686 58.5319 236.123 58.6143 236.61 58.6143C237.169 58.6143 237.645 58.5068 238.039 58.292C238.44 58.07 238.766 57.7764 239.016 57.4111C239.274 57.0459 239.46 56.6234 239.575 56.1436C239.697 55.6566 239.758 55.1445 239.758 54.6074Z" fill="#FFCB70"/>
<path d="M179.204 86.5098C179.204 87.2044 179.054 87.8382 178.753 88.4111C178.452 88.984 178.037 89.4782 177.507 89.8936C176.984 90.3018 176.364 90.6204 175.648 90.8496C174.932 91.0788 174.159 91.1934 173.328 91.1934C173.12 91.1934 172.895 91.1862 172.651 91.1719C172.415 91.1647 172.179 91.1504 171.942 91.1289C171.706 91.1146 171.473 91.0967 171.244 91.0752C171.022 91.0537 170.821 91.0286 170.642 91V89.3027C171.029 89.3958 171.47 89.4639 171.964 89.5068C172.465 89.5498 172.97 89.5713 173.478 89.5713C174.051 89.5713 174.567 89.5033 175.025 89.3672C175.484 89.2311 175.874 89.0378 176.196 88.7871C176.518 88.5293 176.765 88.2214 176.937 87.8633C177.109 87.498 177.195 87.0898 177.195 86.6387C177.195 85.765 176.88 85.1312 176.25 84.7373C175.627 84.3363 174.728 84.1357 173.554 84.1357H170.889V76.96H178.452V78.5928H172.651V82.5352H173.876C174.549 82.5352 175.204 82.596 175.842 82.7178C176.479 82.8395 177.045 83.0544 177.539 83.3623C178.04 83.6631 178.441 84.0713 178.742 84.5869C179.05 85.0954 179.204 85.7363 179.204 86.5098ZM191.654 91H182.405V89.3242L186.036 85.7148C186.63 85.1276 187.114 84.6191 187.486 84.1895C187.859 83.7598 188.149 83.3695 188.356 83.0186C188.564 82.6605 188.704 82.3239 188.775 82.0088C188.847 81.6937 188.883 81.3535 188.883 80.9883C188.883 80.6445 188.836 80.3187 188.743 80.0107C188.65 79.6956 188.507 79.4199 188.313 79.1836C188.12 78.9473 187.869 78.7611 187.561 78.625C187.253 78.4889 186.885 78.4209 186.455 78.4209C185.86 78.4209 185.32 78.5534 184.833 78.8184C184.346 79.0833 183.898 79.4271 183.49 79.8496L182.459 78.6143C182.989 78.0557 183.597 77.6081 184.285 77.2715C184.98 76.9349 185.785 76.7666 186.702 76.7666C187.325 76.7666 187.891 76.8597 188.399 77.0459C188.915 77.2321 189.359 77.5007 189.731 77.8516C190.104 78.2025 190.39 78.6322 190.591 79.1406C190.798 79.6491 190.902 80.222 190.902 80.8594C190.902 81.3965 190.831 81.8942 190.687 82.3525C190.544 82.8109 190.326 83.2692 190.032 83.7275C189.746 84.1787 189.38 84.6478 188.936 85.1348C188.499 85.6217 187.98 86.1553 187.379 86.7354L184.833 89.2168H191.654V91Z" fill="#F78C6C"/>
<path d="M302.782 44.8213L295.413 62.3096H293.63L300.999 44.8213H302.782ZM314.878 44.8213L307.509 62.3096H305.725L313.095 44.8213H314.878ZM339.069 60H337.2V53.1143C337.2 52.2835 337.042 51.6641 336.727 51.2559C336.419 50.8405 335.975 50.6328 335.395 50.6328C335.145 50.6328 334.908 50.6686 334.686 50.7402C334.471 50.8047 334.246 50.9229 334.01 51.0947C333.773 51.2594 333.515 51.485 333.236 51.7715C332.957 52.0579 332.635 52.416 332.269 52.8457V60H330.4V44.8213H332.269V49.2148L332.205 50.9121C332.499 50.5612 332.785 50.2676 333.064 50.0312C333.351 49.7878 333.634 49.5908 333.913 49.4404C334.199 49.29 334.489 49.1826 334.783 49.1182C335.077 49.0537 335.381 49.0215 335.696 49.0215C336.77 49.0215 337.601 49.3509 338.188 50.0098C338.776 50.6615 339.069 51.6462 339.069 52.9639V60ZM351.885 54.5215C351.885 55.3594 351.766 56.1292 351.53 56.8311C351.294 57.5257 350.954 58.1237 350.51 58.625C350.066 59.1191 349.525 59.5059 348.888 59.7852C348.25 60.0573 347.527 60.1934 346.718 60.1934C345.944 60.1934 345.249 60.0752 344.634 59.8389C344.025 59.5954 343.506 59.2409 343.076 58.7754C342.653 58.3099 342.328 57.7334 342.098 57.0459C341.876 56.3584 341.765 55.5671 341.765 54.6719C341.765 53.834 341.884 53.0713 342.12 52.3838C342.356 51.6891 342.696 51.0947 343.14 50.6006C343.584 50.0993 344.125 49.7126 344.763 49.4404C345.4 49.1611 346.123 49.0215 346.932 49.0215C347.706 49.0215 348.397 49.1432 349.006 49.3867C349.622 49.623 350.141 49.974 350.563 50.4395C350.993 50.8978 351.319 51.4707 351.541 52.1582C351.77 52.8457 351.885 53.6335 351.885 54.5215ZM349.972 54.6074C349.972 53.9414 349.897 53.3613 349.747 52.8672C349.604 52.3659 349.396 51.9505 349.124 51.6211C348.852 51.2845 348.519 51.0339 348.125 50.8691C347.738 50.6973 347.305 50.6113 346.825 50.6113C346.266 50.6113 345.787 50.7223 345.386 50.9443C344.992 51.1592 344.666 51.4492 344.408 51.8145C344.157 52.1797 343.971 52.6058 343.849 53.0928C343.735 53.5726 343.678 54.0775 343.678 54.6074C343.678 55.2734 343.749 55.8571 343.892 56.3584C344.043 56.8597 344.254 57.2786 344.526 57.6152C344.798 57.9447 345.128 58.1953 345.514 58.3672C345.901 58.5319 346.338 58.6143 346.825 58.6143C347.384 58.6143 347.86 58.5068 348.254 58.292C348.655 58.07 348.981 57.7764 349.231 57.4111C349.489 57.0459 349.675 56.6234 349.79 56.1436C349.912 55.6566 349.972 55.1445 349.972 54.6074ZM358.265 46.3574H355.075V44.8213H360.156V58.4424H363.368V60H354.721V58.4424H358.265V46.3574ZM366.139 54.833C366.139 53.9163 366.265 53.1035 366.515 52.3945C366.766 51.6784 367.121 51.0768 367.579 50.5898C368.044 50.0957 368.599 49.7233 369.244 49.4727C369.896 49.2148 370.619 49.0859 371.414 49.0859C371.758 49.0859 372.094 49.1074 372.424 49.1504C372.76 49.1934 373.09 49.2614 373.412 49.3545V44.8213H375.292V60H373.616L373.552 57.959C373.029 58.7181 372.463 59.2803 371.854 59.6455C371.246 60.0107 370.587 60.1934 369.878 60.1934C369.262 60.1934 368.718 60.0645 368.245 59.8066C367.779 59.5488 367.389 59.1872 367.074 58.7217C366.766 58.249 366.533 57.6833 366.376 57.0244C366.218 56.3656 366.139 55.6351 366.139 54.833ZM368.052 54.7148C368.052 56.0182 368.241 56.9922 368.621 57.6367C369.008 58.2741 369.552 58.5928 370.254 58.5928C370.726 58.5928 371.224 58.3815 371.747 57.959C372.277 57.5365 372.832 56.9098 373.412 56.0791V51.0732C373.104 50.93 372.764 50.8226 372.391 50.751C372.019 50.6722 371.65 50.6328 371.285 50.6328C370.268 50.6328 369.473 50.9622 368.9 51.6211C368.334 52.2799 368.052 53.3112 368.052 54.7148ZM382.457 50.7617H379.266V49.2148H384.347V58.4424H387.559V60H378.912V58.4424H382.457V50.7617ZM383.112 44.6924C383.32 44.6924 383.513 44.7318 383.692 44.8105C383.871 44.8822 384.025 44.986 384.154 45.1221C384.29 45.2581 384.394 45.4157 384.466 45.5947C384.544 45.7666 384.584 45.9564 384.584 46.1641C384.584 46.3646 384.544 46.5544 384.466 46.7334C384.394 46.9124 384.29 47.07 384.154 47.2061C384.025 47.3421 383.871 47.4495 383.692 47.5283C383.513 47.5999 383.32 47.6357 383.112 47.6357C382.904 47.6357 382.711 47.5999 382.532 47.5283C382.353 47.4495 382.195 47.3421 382.059 47.2061C381.93 47.07 381.827 46.9124 381.748 46.7334C381.676 46.5544 381.64 46.3646 381.64 46.1641C381.64 45.9564 381.676 45.7666 381.748 45.5947C381.827 45.4157 381.93 45.2581 382.059 45.1221C382.195 44.986 382.353 44.8822 382.532 44.8105C382.711 44.7318 382.904 44.6924 383.112 44.6924ZM390.879 49.2148H392.544L392.619 50.9551C392.934 50.5827 393.238 50.2747 393.532 50.0312C393.826 49.7806 394.112 49.5801 394.391 49.4297C394.678 49.2793 394.968 49.1755 395.262 49.1182C395.555 49.0537 395.86 49.0215 396.175 49.0215C397.285 49.0215 398.123 49.3509 398.688 50.0098C399.261 50.6615 399.548 51.6462 399.548 52.9639V60H397.679V53.1143C397.679 52.2692 397.521 51.6462 397.206 51.2451C396.891 50.8369 396.422 50.6328 395.799 50.6328C395.569 50.6328 395.344 50.6686 395.122 50.7402C394.907 50.8047 394.681 50.9229 394.445 51.0947C394.209 51.2594 393.951 51.485 393.672 51.7715C393.4 52.0579 393.092 52.416 392.748 52.8457V60H390.879V49.2148ZM410.741 50.7402C410.942 50.9909 411.096 51.2845 411.203 51.6211C411.318 51.9505 411.375 52.3086 411.375 52.6953C411.375 53.2539 411.271 53.766 411.063 54.2314C410.863 54.6898 410.576 55.0837 410.204 55.4131C409.832 55.7425 409.384 56.0003 408.861 56.1865C408.346 56.3656 407.776 56.4551 407.153 56.4551C406.702 56.4551 406.279 56.4085 405.886 56.3154C405.492 56.2152 405.18 56.0934 404.951 55.9502C404.815 56.1507 404.7 56.3405 404.607 56.5195C404.514 56.6986 404.468 56.8991 404.468 57.1211C404.468 57.3932 404.596 57.6188 404.854 57.7979C405.119 57.9769 405.467 58.0736 405.896 58.0879L408.732 58.1953C409.269 58.2096 409.763 58.2777 410.215 58.3994C410.673 58.5212 411.063 58.6966 411.386 58.9258C411.715 59.1549 411.969 59.4378 412.148 59.7744C412.334 60.111 412.428 60.5013 412.428 60.9453C412.428 61.4251 412.324 61.8799 412.116 62.3096C411.908 62.7393 411.586 63.1152 411.149 63.4375C410.72 63.7669 410.172 64.0283 409.506 64.2217C408.84 64.415 408.048 64.5117 407.132 64.5117C406.258 64.5117 405.513 64.4401 404.897 64.2969C404.289 64.1608 403.787 63.9674 403.393 63.7168C402.999 63.4733 402.713 63.1797 402.534 62.8359C402.355 62.4993 402.265 62.127 402.265 61.7188C402.265 61.196 402.387 60.7376 402.631 60.3438C402.874 59.9499 403.25 59.5703 403.759 59.2051C403.572 59.1191 403.411 59.0117 403.275 58.8828C403.139 58.7539 403.028 58.6143 402.942 58.4639C402.856 58.3063 402.792 58.1416 402.749 57.9697C402.706 57.7979 402.684 57.6296 402.684 57.4648C402.684 56.9993 402.792 56.5732 403.007 56.1865C403.229 55.7998 403.49 55.4346 403.791 55.0908C403.655 54.9261 403.533 54.765 403.426 54.6074C403.325 54.4499 403.236 54.2816 403.157 54.1025C403.085 53.9163 403.028 53.7194 402.985 53.5117C402.949 53.2969 402.931 53.0534 402.931 52.7812C402.931 52.2227 403.032 51.7142 403.232 51.2559C403.44 50.7904 403.726 50.3929 404.092 50.0635C404.464 49.734 404.908 49.4798 405.424 49.3008C405.946 49.1146 406.523 49.0215 407.153 49.0215C407.418 49.0215 407.672 49.0394 407.916 49.0752C408.159 49.111 408.374 49.1576 408.56 49.2148H412.471V50.7402H410.741ZM404.253 61.5576C404.253 62.0661 404.518 62.4349 405.048 62.6641C405.578 62.9004 406.315 63.0186 407.261 63.0186C407.855 63.0186 408.353 62.9648 408.754 62.8574C409.162 62.75 409.488 62.6068 409.731 62.4277C409.982 62.2559 410.161 62.0553 410.268 61.8262C410.376 61.6042 410.43 61.375 410.43 61.1387C410.43 60.7018 410.25 60.3796 409.892 60.1719C409.534 59.9642 408.986 59.8424 408.249 59.8066L405.434 59.71C405.198 59.8675 405.001 60.0215 404.844 60.1719C404.693 60.3223 404.575 60.4727 404.489 60.623C404.403 60.7806 404.342 60.9346 404.306 61.085C404.271 61.2425 404.253 61.4001 404.253 61.5576ZM404.822 52.7383C404.822 53.082 404.879 53.3971 404.994 53.6836C405.109 53.9701 405.27 54.2135 405.477 54.4141C405.685 54.6146 405.929 54.7721 406.208 54.8867C406.494 54.9941 406.809 55.0479 407.153 55.0479C407.526 55.0479 407.855 54.987 408.141 54.8652C408.435 54.7363 408.679 54.5645 408.872 54.3496C409.072 54.1348 409.223 53.8877 409.323 53.6084C409.43 53.3291 409.484 53.0391 409.484 52.7383C409.484 52.3945 409.427 52.0794 409.312 51.793C409.198 51.5065 409.037 51.263 408.829 51.0625C408.621 50.862 408.374 50.708 408.088 50.6006C407.808 50.486 407.497 50.4287 407.153 50.4287C406.781 50.4287 406.448 50.4932 406.154 50.6221C405.868 50.751 405.624 50.9229 405.424 51.1377C405.23 51.3454 405.08 51.5889 404.972 51.8682C404.872 52.1475 404.822 52.4375 404.822 52.7383ZM435.706 57.0566C435.706 57.4362 435.641 57.7764 435.513 58.0771C435.384 58.3779 435.208 58.6465 434.986 58.8828C434.764 59.112 434.506 59.3089 434.213 59.4736C433.919 59.6383 433.604 59.7744 433.267 59.8818C432.938 59.9893 432.598 60.068 432.247 60.1182C431.896 60.1683 431.552 60.1934 431.216 60.1934C430.485 60.1934 429.812 60.1611 429.196 60.0967C428.587 60.0322 427.989 59.9284 427.402 59.7852V58.0664C428.032 58.2454 428.659 58.3815 429.282 58.4746C429.905 58.5677 430.525 58.6143 431.14 58.6143C432.036 58.6143 432.698 58.4925 433.128 58.249C433.557 58.0055 433.772 57.6582 433.772 57.207C433.772 57.0137 433.736 56.8418 433.665 56.6914C433.6 56.5339 433.479 56.387 433.3 56.251C433.121 56.1077 432.841 55.9609 432.462 55.8105C432.089 55.6602 431.577 55.4883 430.926 55.2949C430.439 55.1517 429.987 54.9906 429.572 54.8115C429.164 54.6253 428.809 54.4069 428.509 54.1562C428.208 53.9056 427.971 53.612 427.8 53.2754C427.628 52.9388 427.542 52.5413 427.542 52.083C427.542 51.7822 427.61 51.4528 427.746 51.0947C427.889 50.7367 428.129 50.4036 428.466 50.0957C428.802 49.7878 429.257 49.5335 429.83 49.333C430.403 49.1253 431.119 49.0215 431.978 49.0215C432.401 49.0215 432.87 49.0465 433.386 49.0967C433.901 49.1396 434.438 49.2184 434.997 49.333V50.998C434.41 50.8548 433.851 50.751 433.321 50.6865C432.798 50.6149 432.344 50.5791 431.957 50.5791C431.491 50.5791 431.097 50.6149 430.775 50.6865C430.46 50.7581 430.202 50.8584 430.002 50.9873C429.808 51.109 429.669 51.2559 429.583 51.4277C429.497 51.5924 429.454 51.7715 429.454 51.9648C429.454 52.1582 429.49 52.3337 429.561 52.4912C429.64 52.6488 429.78 52.8027 429.98 52.9531C430.188 53.0964 430.474 53.2432 430.84 53.3936C431.205 53.5368 431.681 53.6943 432.268 53.8662C432.906 54.0524 433.443 54.2493 433.88 54.457C434.317 54.6576 434.671 54.8831 434.943 55.1338C435.215 55.3844 435.409 55.6673 435.523 55.9824C435.645 56.2975 435.706 56.6556 435.706 57.0566ZM447.952 59.8496C447.529 59.957 447.093 60.0322 446.641 60.0752C446.19 60.1253 445.732 60.1504 445.266 60.1504C443.913 60.1504 442.903 59.846 442.237 59.2373C441.571 58.6214 441.238 57.6797 441.238 56.4121V50.7832H438.22V49.2148H441.238V46.25L443.107 45.7666V49.2148H447.952V50.7832H443.107V56.2617C443.107 57.0352 443.311 57.6152 443.72 58.002C444.135 58.3815 444.744 58.5713 445.546 58.5713C445.889 58.5713 446.265 58.5462 446.674 58.4961C447.082 58.4388 447.508 58.3529 447.952 58.2383V59.8496ZM451.798 49.2148H453.506L453.559 51.2021C454.197 50.4359 454.823 49.8809 455.439 49.5371C456.062 49.1934 456.689 49.0215 457.319 49.0215C458.436 49.0215 459.281 49.3831 459.854 50.1064C460.434 50.8298 460.703 51.904 460.66 53.3291H458.769C458.791 52.3838 458.651 51.6999 458.35 51.2773C458.057 50.8477 457.624 50.6328 457.051 50.6328C456.8 50.6328 456.546 50.6794 456.288 50.7725C456.037 50.8584 455.776 51.0016 455.504 51.2021C455.239 51.3955 454.956 51.6462 454.655 51.9541C454.354 52.262 454.032 52.6344 453.688 53.0713V60H451.798V49.2148ZM467.127 50.7617H463.936V49.2148H469.017V58.4424H472.229V60H463.582V58.4424H467.127V50.7617ZM467.782 44.6924C467.99 44.6924 468.183 44.7318 468.362 44.8105C468.541 44.8822 468.695 44.986 468.824 45.1221C468.96 45.2581 469.064 45.4157 469.136 45.5947C469.214 45.7666 469.254 45.9564 469.254 46.1641C469.254 46.3646 469.214 46.5544 469.136 46.7334C469.064 46.9124 468.96 47.07 468.824 47.2061C468.695 47.3421 468.541 47.4495 468.362 47.5283C468.183 47.5999 467.99 47.6357 467.782 47.6357C467.574 47.6357 467.381 47.5999 467.202 47.5283C467.023 47.4495 466.865 47.3421 466.729 47.2061C466.6 47.07 466.497 46.9124 466.418 46.7334C466.346 46.5544 466.31 46.3646 466.31 46.1641C466.31 45.9564 466.346 45.7666 466.418 45.5947C466.497 45.4157 466.6 45.2581 466.729 45.1221C466.865 44.986 467.023 44.8822 467.202 44.8105C467.381 44.7318 467.574 44.6924 467.782 44.6924ZM475.549 49.2148H477.214L477.289 50.9551C477.604 50.5827 477.908 50.2747 478.202 50.0312C478.496 49.7806 478.782 49.5801 479.061 49.4297C479.348 49.2793 479.638 49.1755 479.931 49.1182C480.225 49.0537 480.529 49.0215 480.845 49.0215C481.955 49.0215 482.792 49.3509 483.358 50.0098C483.931 50.6615 484.218 51.6462 484.218 52.9639V60H482.348V53.1143C482.348 52.2692 482.191 51.6462 481.876 51.2451C481.561 50.8369 481.092 50.6328 480.469 50.6328C480.239 50.6328 480.014 50.6686 479.792 50.7402C479.577 50.8047 479.351 50.9229 479.115 51.0947C478.879 51.2594 478.621 51.485 478.342 51.7715C478.069 52.0579 477.762 52.416 477.418 52.8457V60H475.549V49.2148ZM495.411 50.7402C495.611 50.9909 495.765 51.2845 495.873 51.6211C495.987 51.9505 496.045 52.3086 496.045 52.6953C496.045 53.2539 495.941 53.766 495.733 54.2314C495.533 54.6898 495.246 55.0837 494.874 55.4131C494.501 55.7425 494.054 56.0003 493.531 56.1865C493.015 56.3656 492.446 56.4551 491.823 56.4551C491.372 56.4551 490.949 56.4085 490.555 56.3154C490.162 56.2152 489.85 56.0934 489.621 55.9502C489.485 56.1507 489.37 56.3405 489.277 56.5195C489.184 56.6986 489.138 56.8991 489.138 57.1211C489.138 57.3932 489.266 57.6188 489.524 57.7979C489.789 57.9769 490.137 58.0736 490.566 58.0879L493.402 58.1953C493.939 58.2096 494.433 58.2777 494.885 58.3994C495.343 58.5212 495.733 58.6966 496.055 58.9258C496.385 59.1549 496.639 59.4378 496.818 59.7744C497.004 60.111 497.097 60.5013 497.097 60.9453C497.097 61.4251 496.994 61.8799 496.786 62.3096C496.578 62.7393 496.256 63.1152 495.819 63.4375C495.389 63.7669 494.842 64.0283 494.176 64.2217C493.51 64.415 492.718 64.5117 491.802 64.5117C490.928 64.5117 490.183 64.4401 489.567 64.2969C488.958 64.1608 488.457 63.9674 488.063 63.7168C487.669 63.4733 487.383 63.1797 487.204 62.8359C487.025 62.4993 486.935 62.127 486.935 61.7188C486.935 61.196 487.057 60.7376 487.301 60.3438C487.544 59.9499 487.92 59.5703 488.429 59.2051C488.242 59.1191 488.081 59.0117 487.945 58.8828C487.809 58.7539 487.698 58.6143 487.612 58.4639C487.526 58.3063 487.462 58.1416 487.419 57.9697C487.376 57.7979 487.354 57.6296 487.354 57.4648C487.354 56.9993 487.462 56.5732 487.677 56.1865C487.899 55.7998 488.16 55.4346 488.461 55.0908C488.325 54.9261 488.203 54.765 488.096 54.6074C487.995 54.4499 487.906 54.2816 487.827 54.1025C487.755 53.9163 487.698 53.7194 487.655 53.5117C487.619 53.2969 487.601 53.0534 487.601 52.7812C487.601 52.2227 487.702 51.7142 487.902 51.2559C488.11 50.7904 488.396 50.3929 488.762 50.0635C489.134 49.734 489.578 49.4798 490.094 49.3008C490.616 49.1146 491.193 49.0215 491.823 49.0215C492.088 49.0215 492.342 49.0394 492.586 49.0752C492.829 49.111 493.044 49.1576 493.23 49.2148H497.14V50.7402H495.411ZM488.923 61.5576C488.923 62.0661 489.188 62.4349 489.718 62.6641C490.248 62.9004 490.985 63.0186 491.93 63.0186C492.525 63.0186 493.023 62.9648 493.424 62.8574C493.832 62.75 494.158 62.6068 494.401 62.4277C494.652 62.2559 494.831 62.0553 494.938 61.8262C495.046 61.6042 495.099 61.375 495.099 61.1387C495.099 60.7018 494.92 60.3796 494.562 60.1719C494.204 59.9642 493.656 59.8424 492.919 59.8066L490.104 59.71C489.868 59.8675 489.671 60.0215 489.513 60.1719C489.363 60.3223 489.245 60.4727 489.159 60.623C489.073 60.7806 489.012 60.9346 488.976 61.085C488.941 61.2425 488.923 61.4001 488.923 61.5576ZM489.492 52.7383C489.492 53.082 489.549 53.3971 489.664 53.6836C489.778 53.9701 489.94 54.2135 490.147 54.4141C490.355 54.6146 490.598 54.7721 490.878 54.8867C491.164 54.9941 491.479 55.0479 491.823 55.0479C492.195 55.0479 492.525 54.987 492.811 54.8652C493.105 54.7363 493.348 54.5645 493.542 54.3496C493.742 54.1348 493.893 53.8877 493.993 53.6084C494.1 53.3291 494.154 53.0391 494.154 52.7383C494.154 52.3945 494.097 52.0794 493.982 51.793C493.868 51.5065 493.707 51.263 493.499 51.0625C493.291 50.862 493.044 50.708 492.758 50.6006C492.478 50.486 492.167 50.4287 491.823 50.4287C491.451 50.4287 491.118 50.4932 490.824 50.6221C490.538 50.751 490.294 50.9229 490.094 51.1377C489.9 51.3454 489.75 51.5889 489.642 51.8682C489.542 52.1475 489.492 52.4375 489.492 52.7383ZM300.075 75.8213L292.706 93.3096H290.923L298.292 75.8213H300.075ZM312.171 75.8213L304.802 93.3096H303.018L310.388 75.8213H312.171ZM336.362 91H334.493V84.1143C334.493 83.2835 334.335 82.6641 334.02 82.2559C333.712 81.8405 333.268 81.6328 332.688 81.6328C332.438 81.6328 332.201 81.6686 331.979 81.7402C331.764 81.8047 331.539 81.9229 331.303 82.0947C331.066 82.2594 330.808 82.485 330.529 82.7715C330.25 83.0579 329.928 83.416 329.562 83.8457V91H327.693V75.8213H329.562V80.2148L329.498 81.9121C329.791 81.5612 330.078 81.2676 330.357 81.0312C330.644 80.7878 330.927 80.5908 331.206 80.4404C331.492 80.29 331.782 80.1826 332.076 80.1182C332.37 80.0537 332.674 80.0215 332.989 80.0215C334.063 80.0215 334.894 80.3509 335.481 81.0098C336.069 81.6615 336.362 82.6462 336.362 83.9639V91ZM349.178 85.5215C349.178 86.3594 349.059 87.1292 348.823 87.8311C348.587 88.5257 348.247 89.1237 347.803 89.625C347.359 90.1191 346.818 90.5059 346.18 90.7852C345.543 91.0573 344.82 91.1934 344.011 91.1934C343.237 91.1934 342.542 91.0752 341.927 90.8389C341.318 90.5954 340.799 90.2409 340.369 89.7754C339.946 89.3099 339.621 88.7334 339.391 88.0459C339.169 87.3584 339.058 86.5671 339.058 85.6719C339.058 84.834 339.177 84.0713 339.413 83.3838C339.649 82.6891 339.989 82.0947 340.433 81.6006C340.877 81.0993 341.418 80.7126 342.055 80.4404C342.693 80.1611 343.416 80.0215 344.225 80.0215C344.999 80.0215 345.69 80.1432 346.299 80.3867C346.915 80.623 347.434 80.974 347.856 81.4395C348.286 81.8978 348.612 82.4707 348.834 83.1582C349.063 83.8457 349.178 84.6335 349.178 85.5215ZM347.265 85.6074C347.265 84.9414 347.19 84.3613 347.04 83.8672C346.897 83.3659 346.689 82.9505 346.417 82.6211C346.145 82.2845 345.812 82.0339 345.418 81.8691C345.031 81.6973 344.598 81.6113 344.118 81.6113C343.559 81.6113 343.08 81.7223 342.679 81.9443C342.285 82.1592 341.959 82.4492 341.701 82.8145C341.45 83.1797 341.264 83.6058 341.142 84.0928C341.028 84.5726 340.971 85.0775 340.971 85.6074C340.971 86.2734 341.042 86.8571 341.185 87.3584C341.336 87.8597 341.547 88.2786 341.819 88.6152C342.091 88.9447 342.421 89.1953 342.807 89.3672C343.194 89.5319 343.631 89.6143 344.118 89.6143C344.677 89.6143 345.153 89.5068 345.547 89.292C345.948 89.07 346.274 88.7764 346.524 88.4111C346.782 88.0459 346.968 87.6234 347.083 87.1436C347.205 86.6566 347.265 86.1445 347.265 85.6074ZM355.558 77.3574H352.368V75.8213H357.449V89.4424H360.661V91H352.013V89.4424H355.558V77.3574ZM363.432 85.833C363.432 84.9163 363.558 84.1035 363.808 83.3945C364.059 82.6784 364.414 82.0768 364.872 81.5898C365.337 81.0957 365.892 80.7233 366.537 80.4727C367.189 80.2148 367.912 80.0859 368.707 80.0859C369.051 80.0859 369.387 80.1074 369.717 80.1504C370.053 80.1934 370.383 80.2614 370.705 80.3545V75.8213H372.585V91H370.909L370.845 88.959C370.322 89.7181 369.756 90.2803 369.147 90.6455C368.539 91.0107 367.88 91.1934 367.171 91.1934C366.555 91.1934 366.011 91.0645 365.538 90.8066C365.072 90.5488 364.682 90.1872 364.367 89.7217C364.059 89.249 363.826 88.6833 363.669 88.0244C363.511 87.3656 363.432 86.6351 363.432 85.833ZM365.345 85.7148C365.345 87.0182 365.534 87.9922 365.914 88.6367C366.301 89.2741 366.845 89.5928 367.547 89.5928C368.019 89.5928 368.517 89.3815 369.04 88.959C369.57 88.5365 370.125 87.9098 370.705 87.0791V82.0732C370.397 81.93 370.057 81.8226 369.684 81.751C369.312 81.6722 368.943 81.6328 368.578 81.6328C367.561 81.6328 366.766 81.9622 366.193 82.6211C365.627 83.2799 365.345 84.3112 365.345 85.7148ZM379.75 81.7617H376.559V80.2148H381.64V89.4424H384.852V91H376.205V89.4424H379.75V81.7617ZM380.405 75.6924C380.613 75.6924 380.806 75.7318 380.985 75.8105C381.164 75.8822 381.318 75.986 381.447 76.1221C381.583 76.2581 381.687 76.4157 381.759 76.5947C381.837 76.7666 381.877 76.9564 381.877 77.1641C381.877 77.3646 381.837 77.5544 381.759 77.7334C381.687 77.9124 381.583 78.07 381.447 78.2061C381.318 78.3421 381.164 78.4495 380.985 78.5283C380.806 78.5999 380.613 78.6357 380.405 78.6357C380.197 78.6357 380.004 78.5999 379.825 78.5283C379.646 78.4495 379.488 78.3421 379.352 78.2061C379.223 78.07 379.12 77.9124 379.041 77.7334C378.969 77.5544 378.933 77.3646 378.933 77.1641C378.933 76.9564 378.969 76.7666 379.041 76.5947C379.12 76.4157 379.223 76.2581 379.352 76.1221C379.488 75.986 379.646 75.8822 379.825 75.8105C380.004 75.7318 380.197 75.6924 380.405 75.6924ZM388.172 80.2148H389.837L389.912 81.9551C390.227 81.5827 390.531 81.2747 390.825 81.0312C391.119 80.7806 391.405 80.5801 391.684 80.4297C391.971 80.2793 392.261 80.1755 392.555 80.1182C392.848 80.0537 393.152 80.0215 393.468 80.0215C394.578 80.0215 395.416 80.3509 395.981 81.0098C396.554 81.6615 396.841 82.6462 396.841 83.9639V91H394.971V84.1143C394.971 83.2692 394.814 82.6462 394.499 82.2451C394.184 81.8369 393.715 81.6328 393.092 81.6328C392.862 81.6328 392.637 81.6686 392.415 81.7402C392.2 81.8047 391.974 81.9229 391.738 82.0947C391.502 82.2594 391.244 82.485 390.965 82.7715C390.693 83.0579 390.385 83.416 390.041 83.8457V91H388.172V80.2148ZM408.034 81.7402C408.235 81.9909 408.388 82.2845 408.496 82.6211C408.61 82.9505 408.668 83.3086 408.668 83.6953C408.668 84.2539 408.564 84.766 408.356 85.2314C408.156 85.6898 407.869 86.0837 407.497 86.4131C407.124 86.7425 406.677 87.0003 406.154 87.1865C405.638 87.3656 405.069 87.4551 404.446 87.4551C403.995 87.4551 403.572 87.4085 403.179 87.3154C402.785 87.2152 402.473 87.0934 402.244 86.9502C402.108 87.1507 401.993 87.3405 401.9 87.5195C401.807 87.6986 401.761 87.8991 401.761 88.1211C401.761 88.3932 401.889 88.6188 402.147 88.7979C402.412 88.9769 402.76 89.0736 403.189 89.0879L406.025 89.1953C406.562 89.2096 407.056 89.2777 407.508 89.3994C407.966 89.5212 408.356 89.6966 408.679 89.9258C409.008 90.1549 409.262 90.4378 409.441 90.7744C409.627 91.111 409.721 91.5013 409.721 91.9453C409.721 92.4251 409.617 92.8799 409.409 93.3096C409.201 93.7393 408.879 94.1152 408.442 94.4375C408.013 94.7669 407.465 95.0283 406.799 95.2217C406.133 95.415 405.341 95.5117 404.425 95.5117C403.551 95.5117 402.806 95.4401 402.19 95.2969C401.582 95.1608 401.08 94.9674 400.686 94.7168C400.292 94.4733 400.006 94.1797 399.827 93.8359C399.648 93.4993 399.558 93.127 399.558 92.7188C399.558 92.196 399.68 91.7376 399.924 91.3438C400.167 90.9499 400.543 90.5703 401.052 90.2051C400.865 90.1191 400.704 90.0117 400.568 89.8828C400.432 89.7539 400.321 89.6143 400.235 89.4639C400.149 89.3063 400.085 89.1416 400.042 88.9697C399.999 88.7979 399.977 88.6296 399.977 88.4648C399.977 87.9993 400.085 87.5732 400.3 87.1865C400.522 86.7998 400.783 86.4346 401.084 86.0908C400.948 85.9261 400.826 85.765 400.719 85.6074C400.618 85.4499 400.529 85.2816 400.45 85.1025C400.378 84.9163 400.321 84.7194 400.278 84.5117C400.242 84.2969 400.224 84.0534 400.224 83.7812C400.224 83.2227 400.325 82.7142 400.525 82.2559C400.733 81.7904 401.019 81.3929 401.385 81.0635C401.757 80.734 402.201 80.4798 402.717 80.3008C403.239 80.1146 403.816 80.0215 404.446 80.0215C404.711 80.0215 404.965 80.0394 405.209 80.0752C405.452 80.111 405.667 80.1576 405.853 80.2148H409.763V81.7402H408.034ZM401.546 92.5576C401.546 93.0661 401.811 93.4349 402.341 93.6641C402.871 93.9004 403.608 94.0186 404.554 94.0186C405.148 94.0186 405.646 93.9648 406.047 93.8574C406.455 93.75 406.781 93.6068 407.024 93.4277C407.275 93.2559 407.454 93.0553 407.561 92.8262C407.669 92.6042 407.722 92.375 407.722 92.1387C407.722 91.7018 407.543 91.3796 407.185 91.1719C406.827 90.9642 406.279 90.8424 405.542 90.8066L402.727 90.71C402.491 90.8675 402.294 91.0215 402.137 91.1719C401.986 91.3223 401.868 91.4727 401.782 91.623C401.696 91.7806 401.635 91.9346 401.599 92.085C401.564 92.2425 401.546 92.4001 401.546 92.5576ZM402.115 83.7383C402.115 84.082 402.172 84.3971 402.287 84.6836C402.402 84.9701 402.563 85.2135 402.77 85.4141C402.978 85.6146 403.221 85.7721 403.501 85.8867C403.787 85.9941 404.102 86.0479 404.446 86.0479C404.819 86.0479 405.148 85.987 405.434 85.8652C405.728 85.7363 405.971 85.5645 406.165 85.3496C406.365 85.1348 406.516 84.8877 406.616 84.6084C406.723 84.3291 406.777 84.0391 406.777 83.7383C406.777 83.3945 406.72 83.0794 406.605 82.793C406.491 82.5065 406.33 82.263 406.122 82.0625C405.914 81.862 405.667 81.708 405.381 81.6006C405.101 81.486 404.79 81.4287 404.446 81.4287C404.074 81.4287 403.741 81.4932 403.447 81.6221C403.161 81.751 402.917 81.9229 402.717 82.1377C402.523 82.3454 402.373 82.5889 402.265 82.8682C402.165 83.1475 402.115 83.4375 402.115 83.7383ZM424.459 80.2148H426.124L426.199 81.9551C426.514 81.5827 426.819 81.2747 427.112 81.0312C427.406 80.7806 427.692 80.5801 427.971 80.4297C428.258 80.2793 428.548 80.1755 428.842 80.1182C429.135 80.0537 429.44 80.0215 429.755 80.0215C430.865 80.0215 431.703 80.3509 432.268 81.0098C432.841 81.6615 433.128 82.6462 433.128 83.9639V91H431.259V84.1143C431.259 83.2692 431.101 82.6462 430.786 82.2451C430.471 81.8369 430.002 81.6328 429.379 81.6328C429.15 81.6328 428.924 81.6686 428.702 81.7402C428.487 81.8047 428.262 81.9229 428.025 82.0947C427.789 82.2594 427.531 82.485 427.252 82.7715C426.98 83.0579 426.672 83.416 426.328 83.8457V91H424.459V80.2148ZM445.223 91H443.548L443.483 89.2598C443.161 89.6322 442.853 89.9437 442.559 90.1943C442.273 90.4378 441.986 90.6348 441.7 90.7852C441.414 90.9355 441.124 91.0394 440.83 91.0967C440.543 91.1611 440.239 91.1934 439.917 91.1934C438.807 91.1934 437.969 90.8675 437.403 90.2158C436.837 89.5641 436.555 88.5794 436.555 87.2617V80.2148H438.424V87.1113C438.424 88.7656 439.047 89.5928 440.293 89.5928C440.522 89.5928 440.744 89.5605 440.959 89.4961C441.181 89.4245 441.41 89.3063 441.646 89.1416C441.89 88.9697 442.148 88.7406 442.42 88.4541C442.699 88.1676 443.011 87.806 443.354 87.3691V80.2148H445.223V91ZM456.342 91V83.2549C456.342 82.9183 456.327 82.6426 456.299 82.4277C456.277 82.2129 456.238 82.0446 456.18 81.9229C456.13 81.7939 456.062 81.7044 455.976 81.6543C455.898 81.6042 455.797 81.5791 455.676 81.5791C455.532 81.5791 455.4 81.6221 455.278 81.708C455.156 81.7939 455.024 81.9336 454.881 82.127C454.745 82.3203 454.591 82.5781 454.419 82.9004C454.254 83.2155 454.057 83.6058 453.828 84.0713V91H452.12V83.459C452.12 83.0651 452.106 82.7464 452.077 82.5029C452.055 82.2594 452.016 82.0697 451.959 81.9336C451.909 81.7975 451.841 81.7044 451.755 81.6543C451.669 81.6042 451.565 81.5791 451.443 81.5791C451.314 81.5791 451.193 81.6149 451.078 81.6865C450.963 81.7581 450.834 81.887 450.691 82.0732C450.555 82.2594 450.401 82.5137 450.229 82.8359C450.057 83.1582 449.853 83.57 449.617 84.0713V91H447.898V80.2148H449.327L449.413 82.2666C449.599 81.8584 449.778 81.5111 449.95 81.2246C450.129 80.9382 450.312 80.709 450.498 80.5371C450.684 80.3581 450.881 80.2292 451.089 80.1504C451.304 80.0645 451.54 80.0215 451.798 80.0215C452.378 80.0215 452.818 80.2113 453.119 80.5908C453.42 80.9704 453.57 81.5576 453.57 82.3525C453.742 81.9801 453.91 81.6507 454.075 81.3643C454.24 81.0706 454.415 80.8271 454.601 80.6338C454.795 80.4333 455.006 80.2829 455.235 80.1826C455.464 80.0752 455.729 80.0215 456.03 80.0215C457.384 80.0215 458.06 81.0635 458.06 83.1475V91H456.342ZM469.963 85.4141C469.963 86.3092 469.837 87.1113 469.587 87.8203C469.343 88.5221 468.992 89.1201 468.534 89.6143C468.083 90.1012 467.531 90.4772 466.88 90.7422C466.228 91 465.494 91.1289 464.678 91.1289C464.04 91.1289 463.388 91.068 462.722 90.9463C462.056 90.8245 461.398 90.6312 460.746 90.3662V75.8213H462.615V80L462.529 81.998C463.066 81.2747 463.639 80.7663 464.248 80.4727C464.864 80.1719 465.523 80.0215 466.224 80.0215C466.84 80.0215 467.381 80.1504 467.846 80.4082C468.312 80.666 468.702 81.0312 469.017 81.5039C469.332 81.9694 469.569 82.5352 469.726 83.2012C469.884 83.86 469.963 84.5977 469.963 85.4141ZM468.051 85.5C468.051 84.9342 468.008 84.415 467.922 83.9424C467.843 83.4697 467.714 83.0651 467.535 82.7285C467.356 82.3919 467.127 82.1305 466.847 81.9443C466.568 81.751 466.235 81.6543 465.848 81.6543C465.612 81.6543 465.372 81.6937 465.129 81.7725C464.885 81.8441 464.631 81.9694 464.366 82.1484C464.108 82.3203 463.832 82.5531 463.539 82.8467C463.252 83.1331 462.944 83.4912 462.615 83.9209V89.1523C462.98 89.2956 463.353 89.4102 463.732 89.4961C464.112 89.5749 464.473 89.6143 464.817 89.6143C465.247 89.6143 465.655 89.5462 466.042 89.4102C466.436 89.2741 466.779 89.0485 467.073 88.7334C467.374 88.4111 467.61 87.9886 467.782 87.4658C467.961 86.9359 468.051 86.2806 468.051 85.5ZM481.951 85.0381C481.951 85.3031 481.947 85.5251 481.94 85.7041C481.933 85.8831 481.922 86.0514 481.908 86.209H474.335C474.335 87.3118 474.643 88.1605 475.259 88.7549C475.874 89.3421 476.763 89.6357 477.923 89.6357C478.238 89.6357 478.553 89.625 478.868 89.6035C479.183 89.5749 479.487 89.5391 479.781 89.4961C480.075 89.4531 480.354 89.4066 480.619 89.3564C480.891 89.2992 481.142 89.2383 481.371 89.1738V90.71C480.862 90.8532 480.286 90.9678 479.641 91.0537C479.004 91.1468 478.342 91.1934 477.654 91.1934C476.73 91.1934 475.935 91.068 475.269 90.8174C474.603 90.5667 474.055 90.2051 473.626 89.7324C473.203 89.2526 472.888 88.6689 472.68 87.9814C472.48 87.2868 472.38 86.5026 472.38 85.6289C472.38 84.8698 472.487 84.1536 472.702 83.4805C472.924 82.8001 473.243 82.2057 473.658 81.6973C474.081 81.1816 474.596 80.7734 475.205 80.4727C475.814 80.1719 476.505 80.0215 477.278 80.0215C478.03 80.0215 478.696 80.1396 479.276 80.376C479.856 80.6123 480.343 80.9489 480.737 81.3857C481.138 81.8154 481.439 82.3418 481.639 82.9648C481.847 83.5807 481.951 84.2718 481.951 85.0381ZM480.007 84.7695C480.028 84.2897 479.982 83.8529 479.867 83.459C479.752 83.0579 479.573 82.7142 479.33 82.4277C479.094 82.1413 478.796 81.9193 478.438 81.7617C478.08 81.597 477.665 81.5146 477.192 81.5146C476.784 81.5146 476.412 81.5934 476.075 81.751C475.738 81.9085 475.448 82.1305 475.205 82.417C474.961 82.7035 474.764 83.0472 474.614 83.4482C474.464 83.8493 474.371 84.2897 474.335 84.7695H480.007ZM485.378 80.2148H487.086L487.139 82.2021C487.777 81.4359 488.403 80.8809 489.019 80.5371C489.642 80.1934 490.269 80.0215 490.899 80.0215C492.016 80.0215 492.861 80.3831 493.434 81.1064C494.014 81.8298 494.283 82.904 494.24 84.3291H492.349C492.371 83.3838 492.231 82.6999 491.93 82.2773C491.637 81.8477 491.204 81.6328 490.631 81.6328C490.38 81.6328 490.126 81.6794 489.868 81.7725C489.617 81.8584 489.356 82.0016 489.084 82.2021C488.819 82.3955 488.536 82.6462 488.235 82.9541C487.934 83.262 487.612 83.6344 487.268 84.0713V91H485.378V80.2148Z" fill="#BABABA"/>
<defs>
<filter id="filter0_d_602_112" x="16.6587" y="22" width="512.847" height="97" filterUnits="userSpaceOnUse" color-interpolation-filters="sRGB">
<feFlood flood-opacity="0" result="BackgroundImageFix"/>
<feColorMatrix in="SourceAlpha" type="matrix" values="0 0 0 0 0 0 0 0 0 0 0 0 0 0 0 0 0 0 127 0" result="hardAlpha"/>
<feOffset dy="4"/>
<feGaussianBlur stdDeviation="2"/>
<feComposite in2="hardAlpha" operator="out"/>
<feColorMatrix type="matrix" values="0 0 0 0 0.00392157 0 0 0 0 0.0862745 0 0 0 0 0.152941 0 0 0 0.25 0"/>
<feBlend mode="normal" in2="BackgroundImageFix" result="effect1_dropShadow_602_112"/>
<feBlend mode="normal" in="SourceGraphic" in2="effect1_dropShadow_602_112" result="shape"/>
</filter>
</defs>
</svg>
