<svg width="761" height="476" viewBox="0 0 761 476" fill="none" xmlns="http://www.w3.org/2000/svg">
<g clip-path="url(#clip0_500_2546)">
<g opacity="0.8">
<g opacity="0.5">
<path d="M387.342 139.036C360.267 135.041 334.603 124.025 312.461 107.31C279.391 82.3562 210.178 39.8971 144.15 61.0476C53.0892 90.234 52.6827 174.622 76.4047 220.467C100.127 266.312 268.337 400.551 486.408 379.197C681.546 360.078 719.585 141.282 615.507 101.69C525.237 67.3454 494.435 154.848 387.342 139.036Z" fill="#CED3E6"/>
</g>
<g opacity="0.5">
<path d="M668.28 115.764C672.951 115.764 676.737 111.686 676.737 106.656C676.737 101.625 672.951 97.5475 668.28 97.5475C663.609 97.5475 659.823 101.625 659.823 106.656C659.823 111.686 663.609 115.764 668.28 115.764Z" fill="#CED3E6"/>
</g>
<path d="M115.843 46.6802C118.44 46.2062 121.071 47.6395 121.986 50.1112C123.544 54.3323 119.457 59.0613 113.969 56.9507C109.216 53.4407 111.282 47.5267 115.843 46.6802Z" fill="#CED3E6"/>
<path d="M656.072 27.0584C657.05 21.0538 652.973 15.3936 646.966 14.4159C640.959 13.4383 635.297 17.5134 634.319 23.518C633.341 29.5226 637.417 35.1828 643.424 36.1604C649.431 37.1381 655.094 33.0629 656.072 27.0584Z" fill="#CED3E6"/>
<g opacity="0.8">
<path d="M149.253 38.0009C150.913 43.915 147.458 50.066 141.541 51.7251C135.625 53.3842 129.471 49.9306 127.812 44.0165C126.152 38.1025 129.607 31.9515 135.523 30.2924C141.451 28.622 147.593 32.0756 149.253 38.0009Z" fill="#CED3E6"/>
</g>
<path d="M589.82 369.604C592.281 368.656 595.126 369.57 596.492 371.839C598.807 375.699 595.68 381.105 589.887 380.044C584.569 377.471 585.495 371.274 589.82 369.604Z" fill="#CED3E6"/>
<path d="M621.028 354.853C623.76 360.36 621.513 367.042 616.003 369.773C610.493 372.504 603.809 370.259 601.077 364.751C598.344 359.243 600.591 352.562 606.101 349.83C611.611 347.099 618.295 349.345 621.028 354.853Z" fill="#CED3E6"/>
<path d="M624.415 15.2026C628.162 15.2026 631.2 12.1657 631.2 8.41955C631.2 4.67336 628.162 1.63647 624.415 1.63647C620.667 1.63647 617.629 4.67336 617.629 8.41955C617.629 12.1657 620.667 15.2026 624.415 15.2026Z" fill="#CED3E6"/>
</g>
<g opacity="0.8">
<path d="M649.255 131.215C649.243 70.6635 598.807 4.31134 536.03 0.304699C534.924 0.236981 533.817 0.169264 532.688 0.124118C442.701 -4.07439 435.836 105.651 354.418 118.021C273 130.391 210.821 67.921 113.393 108.687C25.8893 145.289 2.18992 350.982 259.281 359.232C464.989 365.823 649.277 311.875 649.255 131.215Z" fill="#CED3E6"/>
</g>
<path d="M487.954 432.593C597.522 432.593 686.345 428.015 686.345 422.367C686.345 416.72 597.522 412.142 487.954 412.142C378.386 412.142 289.563 416.72 289.563 422.367C289.563 428.015 378.386 432.593 487.954 432.593Z" fill="#CED3E6"/>
<path d="M622.338 393.734H594.845V422.311H626.99V398.384C626.99 395.811 624.901 393.734 622.338 393.734Z" fill="#CED3E6"/>
<path d="M543.2 332.495H447.771V393.734H543.2V332.495Z" fill="#CED3E6"/>
<path d="M616.173 422.311H352.905V411.702C352.905 401.781 360.956 393.734 370.88 393.734H598.187C608.111 393.734 616.162 401.781 616.162 411.702V422.311H616.173Z" fill="white"/>
<path d="M531.515 332.495H436.085V393.734H531.515V332.495Z" fill="white"/>
<path d="M436.085 351.298L531.503 343.657L531.526 332.495H436.209L436.085 351.298Z" fill="#CED3E6"/>
<path d="M665 79.6023V319.764C665 326.806 659.76 332.506 653.309 332.506H279.621C273.16 332.506 267.931 326.795 267.931 319.764V79.6023C267.931 72.5597 273.17 66.8601 279.621 66.8601H653.309C659.76 66.8601 665 72.571 665 79.6023Z" fill="#CED3E6"/>
<path d="M665 79.6023V301.999H628.851V66.8601H653.309C659.76 66.8601 665 72.571 665 79.6023Z" fill="#585859"/>
<path d="M650.13 79.6023V319.764C650.13 326.806 644.891 332.506 638.44 332.506H279.621C273.16 332.506 267.931 326.795 267.931 319.764V79.6023C267.931 72.5597 273.17 66.8601 279.621 66.8601H638.44C638.616 66.8601 638.792 66.8601 638.957 66.8714C639.082 66.8827 639.206 66.8827 639.34 66.894H639.351C639.444 66.9053 639.527 66.9052 639.62 66.9278C639.775 66.9391 639.92 66.9617 640.076 66.9843C640.179 66.9955 640.272 67.0181 640.366 67.0294C640.417 67.0407 640.459 67.0407 640.511 67.052C640.604 67.0633 640.697 67.0858 640.801 67.1084C646.123 68.3048 650.13 73.4513 650.13 79.6023Z" fill="white"/>
<path d="M640.79 67.1195C640.697 67.0969 640.604 67.0744 640.5 67.0631C640.459 67.0518 640.407 67.0405 640.355 67.0405C640.252 67.0179 640.159 67.0067 640.065 66.9954C639.91 66.9728 639.765 66.9502 639.61 66.9389C639.517 66.9276 639.434 66.9164 639.34 66.9051H639.33C639.206 66.8938 639.082 66.8825 638.947 66.8825C638.771 66.8712 638.605 66.8712 638.429 66.8712H279.621C273.16 66.8712 267.931 72.5821 267.931 79.6135V302.01H650.13V79.6022C650.13 73.4511 646.123 68.3046 640.79 67.1195ZM634.971 279.787C634.971 281.706 633.552 283.252 631.792 283.252H286.269C284.509 283.252 283.09 281.706 283.09 279.787V86.848C283.09 84.9293 284.509 83.3831 286.269 83.3831H631.792C633.552 83.3831 634.971 84.9293 634.971 86.848V279.787Z" fill="#39393B"/>
<path d="M634.97 86.8482V279.788C634.97 281.706 633.552 283.252 631.791 283.252H286.269C284.508 283.252 283.09 281.706 283.09 279.788V86.8482C283.09 84.9295 284.508 83.3833 286.269 83.3833H631.791C633.541 83.3833 634.97 84.9295 634.97 86.8482Z" fill="#CED3E6"/>
<path d="M634.971 86.8482V105.053H283.08V86.8482C283.08 84.9295 284.499 83.3833 286.259 83.3833H631.782C633.542 83.3833 634.971 84.9295 634.971 86.8482Z" fill="white"/>
<path d="M607.717 93.9247C607.717 95.55 606.505 96.8705 605.014 96.8705C603.523 96.8705 602.312 95.55 602.312 93.9247C602.312 92.2995 603.523 90.979 605.014 90.979C606.505 90.979 607.717 92.2995 607.717 93.9247Z" fill="#DF615C"/>
<path d="M613.764 96.8705C615.257 96.8705 616.467 95.5516 616.467 93.9247C616.467 92.2979 615.257 90.979 613.764 90.979C612.272 90.979 611.062 92.2979 611.062 93.9247C611.062 95.5516 612.272 96.8705 613.764 96.8705Z" fill="#5392F3"/>
<path d="M591.231 97.051H316.329C314.941 97.051 313.812 95.8095 313.812 94.3084V93.5635C313.812 92.0511 314.952 90.8209 316.329 90.8209H591.221C592.608 90.8209 593.737 92.0624 593.737 93.5635V94.2971C593.747 95.8095 592.608 97.051 591.231 97.051Z" fill="#D2DCEC"/>
<path d="M295.786 93.9247V96.814C295.786 97.2203 295.382 97.4799 295.061 97.2768L292.772 95.8321L290.484 94.3875C290.163 94.1843 290.163 93.6764 290.484 93.4733L292.772 92.0286L295.061 90.584C295.382 90.3808 295.786 90.6404 295.786 91.0467V93.9247Z" fill="black"/>
<path d="M299.813 93.9247V96.814C299.813 97.2203 300.217 97.4799 300.538 97.2768L302.827 95.8321L305.115 94.3875C305.436 94.1843 305.436 93.6764 305.115 93.4733L302.827 92.0286L300.538 90.584C300.217 90.3808 299.813 90.6404 299.813 91.0467V93.9247Z" fill="black"/>
<path d="M620.11 96.3851L619.986 96.2497C619.717 95.9563 619.717 95.4935 619.986 95.2001L623.61 91.2499C623.88 90.9564 624.304 90.9564 624.573 91.2499L624.698 91.3853C624.967 91.6788 624.967 92.1415 624.698 92.4349L621.073 96.3851C620.804 96.6786 620.38 96.6786 620.11 96.3851Z" fill="#39393B"/>
<path d="M624.573 96.3851L624.698 96.2497C624.967 95.9563 624.967 95.4935 624.698 95.2001L621.073 91.2499C620.804 90.9564 620.38 90.9564 620.11 91.2499L619.986 91.3853C619.717 91.6788 619.717 92.1415 619.986 92.4349L623.61 96.3851C623.88 96.6786 624.314 96.6786 624.573 96.3851Z" fill="#39393B"/>
<path d="M163.536 476C253.854 476 327.072 471.548 327.072 466.057C327.072 460.565 253.854 456.114 163.536 456.114C73.2176 456.114 0 460.565 0 466.057C0 471.548 73.2176 476 163.536 476Z" fill="#CED3E6"/>
<path d="M153.33 189.158L169.848 249.54L163.954 242.757C166.133 243.92 168.663 244.811 171.451 245.432C174.24 246.064 177.289 246.425 180.473 246.583C183.657 246.752 186.976 246.719 190.375 246.583C193.773 246.436 197.24 246.188 200.762 245.883H200.785C205.979 245.443 210.551 249.292 210.992 254.484C211.41 259.438 207.898 263.817 203.077 264.607C199.441 265.183 195.749 265.736 191.967 266.176C188.173 266.616 184.289 266.944 180.27 267.034C176.25 267.124 172.084 266.966 167.771 266.345C163.469 265.725 159.009 264.596 154.651 262.723C151.862 261.515 149.875 259.235 148.971 256.56L148.757 255.928L128.942 196.551C126.717 189.881 130.319 182.658 137.003 180.434C143.676 178.211 150.902 181.811 153.126 188.493C153.206 188.696 153.273 188.944 153.33 189.158Z" fill="#EA9B7A"/>
<path d="M159.698 408.045C159.449 408.045 159.201 408 158.952 407.91L72.4197 376.726C71.2906 376.319 70.6922 375.067 71.1099 373.938C71.5164 372.809 72.7697 372.211 73.8988 372.629L160.431 403.813C161.561 404.219 162.159 405.472 161.741 406.6C161.425 407.492 160.59 408.045 159.698 408.045Z" fill="#C77E2E"/>
<path d="M69.5627 408.045C68.6707 408.045 67.8352 407.492 67.5078 406.6C67.1013 405.472 67.6884 404.219 68.8175 403.801L156.378 372.098C157.507 371.692 158.76 372.279 159.178 373.407C159.584 374.536 158.997 375.789 157.868 376.206L70.3079 407.91C70.0595 408 69.8111 408.045 69.5627 408.045Z" fill="#C77E2E"/>
<path d="M167.386 463.777C165.546 463.777 163.942 462.411 163.683 460.538L148.056 343.871H82.6598L67.2705 460.538C66.9995 462.58 65.1252 464.025 63.0816 463.754C61.038 463.483 59.5927 461.61 59.8637 459.567L75.6821 339.673C75.9305 337.81 77.5112 336.422 79.3855 336.422H151.342C153.216 336.422 154.797 337.81 155.045 339.661L171.112 459.556C171.383 461.599 169.949 463.483 167.905 463.754C167.725 463.766 167.555 463.777 167.386 463.777Z" fill="#FAAF3A"/>
<path d="M130.488 340.147H83.7666C68.9644 340.147 53.1121 332.043 50.8314 317.427C47.7941 297.868 47.0376 278.941 47.8845 261.56C48.8442 241.911 58.2381 223.627 73.6839 211.438C73.6839 211.438 83.0214 252.102 71.279 308.229C75.7727 329.538 130.488 340.147 130.488 340.147Z" fill="#FAAF3A"/>
<path d="M120.755 101.656C120.755 101.656 115.2 88.2701 100.488 90.7983C90.2135 92.5589 85.8327 105.358 86.4311 125.131C87.3118 153.9 77.5791 171.236 77.5791 171.236L90.4958 174.17C90.5071 174.159 123.397 124.838 120.755 101.656Z" fill="#39393B"/>
<path d="M238.608 413.79H217.731C217.731 413.79 212.899 390.63 211.284 377.651C209.658 364.66 208.823 333.883 208.823 333.883C208.823 333.883 192.191 339.289 157.371 337.246C80.2205 332.743 109.475 276.086 109.475 276.086C112.083 279.686 128.048 277.192 138.967 278.907C172.466 282.124 201.506 295.261 218.939 302.778C223.139 304.583 226.865 306.502 230.14 308.522C234.34 311.107 236.971 318.974 238.563 329.3C243.316 360.349 238.608 413.79 238.608 413.79Z" fill="#39393B"/>
<path d="M220.316 402.628C219.966 402.628 219.662 402.379 219.583 402.029C216.568 387.132 215.563 368.588 214.75 353.69C214.073 341.332 213.44 329.662 211.848 328.262C210.561 327.122 205.221 328.014 198.469 329.131C185.021 331.366 164.698 334.729 142.297 329.526C130.092 326.682 121.115 320.757 115.628 311.908C106.155 296.649 110.48 277.722 110.525 277.53C110.615 277.124 111.021 276.876 111.428 276.977C111.834 277.068 112.083 277.474 111.981 277.88C111.936 278.061 107.77 296.401 116.915 311.13C122.188 319.628 130.848 325.328 142.647 328.07C164.766 333.217 184.909 329.876 198.243 327.664C206.226 326.344 211.047 325.542 212.865 327.145C214.829 328.883 215.382 337.415 216.263 353.611C217.076 368.464 218.081 386.94 221.073 401.736C221.152 402.142 220.892 402.537 220.486 402.616C220.418 402.628 220.373 402.628 220.316 402.628Z" fill="#585859"/>
<path d="M239.003 403.023H238.992L215.778 402.526C215.36 402.515 215.033 402.176 215.044 401.759C215.056 401.341 215.394 401.014 215.812 401.025L239.026 401.522C239.444 401.533 239.771 401.872 239.76 402.289C239.737 402.695 239.41 403.023 239.003 403.023Z" fill="#585859"/>
<path d="M238.033 440.516H223.298L220.464 423.248L218.906 413.79H237.209L237.502 423.248L238.033 440.516Z" fill="#EA9B7A"/>
<path d="M238.032 440.516H223.298L221.186 427.661L220.464 423.248H237.502L237.637 427.819L238.032 440.516Z" fill="#FAAF3A"/>
<path d="M237.637 427.819L221.186 427.661L220.464 423.248H237.502L237.637 427.819Z" fill="#C77E2E"/>
<path d="M274.389 463.777H218.669C218.251 463.021 218.025 461.96 217.935 460.684C217.585 455.967 219.087 448.45 219.82 443.71C219.911 443.157 219.99 442.638 220.046 442.175C220.148 441.385 220.216 440.719 220.216 440.234C220.216 436.362 223.637 437.028 223.637 437.028C229.271 442.559 235.661 434.274 239.387 436.983C239.387 436.983 239.534 437.096 239.884 437.356C240.2 437.604 240.675 437.988 241.329 438.541C242.278 439.331 243.61 440.482 245.417 442.107C249.843 446.091 257.362 448.71 263.764 451.384C264.577 451.723 265.334 452.062 266.045 452.411C266.576 452.671 267.084 452.931 267.558 453.179C272.797 456.001 274.457 458.709 274.841 460.673C275.202 462.569 274.389 463.777 274.389 463.777Z" fill="#0875F7"/>
<path d="M267.558 453.19C266.124 454.33 262.929 456.621 260.366 456.621C260.253 456.621 260.14 456.621 260.027 456.61C258.22 456.463 251.581 453.202 246.173 450.233C243.079 448.529 240.245 446.859 238.213 445.516C234.882 443.315 234.295 442.48 234.171 441.893C233.685 439.692 237.321 438.168 239.873 437.367C240.189 437.615 240.663 437.999 241.318 438.552C238.157 439.41 235.548 440.764 235.673 441.543C235.989 442.197 239.286 444.703 247.167 449.026C253.185 452.321 258.887 454.973 260.151 455.086C261.867 455.222 264.385 453.664 266.034 452.434C266.587 452.682 267.084 452.942 267.558 453.19Z" fill="#084FC7"/>
<path d="M274.389 463.777H218.668C218.251 463.021 218.025 461.96 217.935 460.684H274.851C275.202 462.569 274.389 463.777 274.389 463.777Z" fill="#084FC7"/>
<path d="M224.348 463.777H222.689C224.337 461.892 225.884 458.991 225.681 454.861C225.41 449.353 222.113 445.651 219.81 443.71C219.9 443.157 219.979 442.638 220.035 442.175C222.508 444.06 226.674 448.202 227.002 454.793C227.205 458.743 225.907 461.689 224.348 463.777Z" fill="#084FC7"/>
<path d="M244.469 445.403C244.062 445.403 243.678 445.121 243.577 444.703C243.452 444.206 243.757 443.71 244.243 443.586L247.72 442.717C248.217 442.592 248.714 442.897 248.838 443.382C248.962 443.879 248.657 444.376 248.172 444.5L244.694 445.369C244.627 445.391 244.548 445.403 244.469 445.403Z" fill="white"/>
<path d="M241.014 442.513C240.607 442.513 240.223 442.231 240.122 441.814C239.997 441.317 240.302 440.821 240.788 440.696L244.265 439.827C244.762 439.703 245.259 440.008 245.383 440.493C245.507 440.99 245.202 441.486 244.717 441.611L241.239 442.48C241.16 442.502 241.093 442.513 241.014 442.513Z" fill="white"/>
<path d="M247.957 447.423C247.55 447.423 247.166 447.141 247.065 446.723C246.941 446.227 247.246 445.73 247.731 445.606L251.209 444.737C251.705 444.613 252.202 444.917 252.326 445.403C252.451 445.899 252.146 446.396 251.66 446.52L248.183 447.389C248.104 447.423 248.025 447.423 247.957 447.423Z" fill="white"/>
<path d="M251.434 449.376C251.028 449.376 250.644 449.093 250.542 448.676C250.418 448.179 250.723 447.683 251.209 447.558L254.686 446.689C255.183 446.565 255.68 446.87 255.804 447.355C255.928 447.852 255.623 448.348 255.138 448.473L251.66 449.342C251.581 449.364 251.513 449.376 251.434 449.376Z" fill="white"/>
<path d="M255.228 451.17C254.822 451.17 254.438 450.888 254.336 450.47C254.212 449.974 254.517 449.477 255.003 449.364L258.48 448.495C258.977 448.371 259.474 448.676 259.598 449.161C259.722 449.658 259.417 450.154 258.932 450.278L255.454 451.147C255.375 451.159 255.307 451.17 255.228 451.17Z" fill="white"/>
<path d="M259.349 452.705C258.943 452.705 258.559 452.423 258.457 452.005C258.333 451.509 258.638 451.012 259.124 450.888L262.601 450.019C263.098 449.895 263.595 450.199 263.719 450.685C263.843 451.181 263.538 451.678 263.053 451.791L259.575 452.66C259.496 452.694 259.417 452.705 259.349 452.705Z" fill="white"/>
<path d="M70.8382 258.118C70.8382 258.118 70.1834 262.621 76.2127 263.885L139.08 265.984C139.08 265.984 143.325 263.851 142.557 258.592C142.546 258.581 116.001 243.671 70.8382 258.118Z" fill="#084FC7"/>
<path d="M139.926 278.896C107.296 296.841 71.6621 282.394 71.6621 282.394C73.4009 277.643 74.6993 272.282 75.6365 267.406C76.7204 261.729 77.3301 256.718 77.6124 254.088C91.4888 253.332 125.519 251.876 138.854 255.036L138.955 260.375L139.926 278.896Z" fill="#EA9B7A"/>
<path d="M115.82 270.296C115.583 271.977 114.815 273.264 114.126 273.162C113.426 273.061 113.065 271.616 113.302 269.934C113.539 268.253 114.307 266.966 114.996 267.068C115.696 267.169 116.068 268.614 115.82 270.296Z" fill="#D96C63"/>
<path d="M138.956 260.375C125.057 259.529 97.7215 259.235 75.6367 267.395C76.7206 261.718 77.3303 256.707 77.6126 254.077C91.489 253.321 125.519 251.865 138.854 255.025L138.956 260.375Z" fill="#D96C63"/>
<path d="M154.457 234.563C154.322 234.97 154.163 235.342 153.994 235.692C153.926 235.827 153.859 235.963 153.791 236.087C152.041 239.326 149.342 242.136 147.073 244.134C146.599 244.552 146.147 244.924 145.729 245.263C144.894 245.94 144.182 246.47 143.697 246.82C143.245 247.136 142.986 247.305 142.986 247.305C142.986 247.339 142.986 247.362 142.974 247.407C142.952 247.644 142.929 247.904 142.907 248.175C142.827 249.202 142.76 250.421 142.715 251.82C142.669 252.937 142.636 254.168 142.613 255.499C142.602 256.481 142.579 257.508 142.568 258.569C124.13 250.33 86.1477 255.533 70.8486 258.106C71.1309 256.786 71.3793 255.488 71.6164 254.224C72.7003 248.389 73.31 243.141 73.5471 238.434C73.9084 231.437 73.2987 220.918 71.8083 210.049C71.718 209.338 71.6164 208.639 71.5148 207.939C71.447 207.476 71.3793 207.025 71.3003 206.562C70.7809 203.153 70.1712 199.734 69.4824 196.416C66.4678 181.946 68.5792 166.766 83.2572 164.972C84.3186 164.836 85.3686 164.724 86.3961 164.611C93.306 163.877 98.9966 163.618 100.577 163.561C100.871 163.55 101.018 163.55 101.018 163.55L129.38 171.789L132.079 172.568C133.625 173.064 135.059 173.549 136.392 174.023C136.956 174.227 137.51 174.43 138.029 174.622C139.406 175.141 140.648 175.637 141.789 176.145C144.058 177.15 145.865 178.132 147.276 179.136C153.497 183.549 152.538 188.538 152.38 198.391C152.38 198.436 152.38 198.481 152.38 198.526C152.38 198.65 152.38 198.774 152.38 198.91C152.38 198.966 152.38 199.023 152.38 199.079C152.38 199.485 152.38 199.88 152.38 200.287C152.391 201.562 152.436 202.826 152.515 204.09C152.617 205.952 152.786 207.803 152.989 209.609C153.068 210.332 153.147 211.054 153.238 211.776C153.317 212.453 153.407 213.119 153.497 213.785C154.593 222.408 156.004 229.97 154.457 234.563Z" fill="#0875F7"/>
<path d="M152.346 198.526C152.346 198.65 152.346 198.774 152.346 198.91C152.346 198.966 152.346 199.023 152.346 199.079C152.346 199.485 152.346 199.88 152.346 200.287L146.385 204.023C146.204 204.135 146.001 204.169 145.798 204.135C145.572 204.102 145.369 203.966 145.233 203.763C144.985 203.368 145.109 202.86 145.493 202.612L151.816 198.65C151.985 198.549 152.166 198.515 152.346 198.526Z" fill="#084FC7"/>
<path d="M113.054 230.444C112.828 230.444 112.602 230.353 112.433 230.173C112.128 229.834 112.151 229.304 112.489 228.999L118.033 224.011C118.372 223.706 118.902 223.728 119.207 224.067C119.512 224.406 119.49 224.936 119.151 225.241L113.607 230.229C113.449 230.365 113.257 230.444 113.054 230.444Z" fill="#084FC7"/>
<path d="M153.452 213.785L149.659 217.205C149.501 217.352 149.297 217.419 149.106 217.419C148.88 217.419 148.654 217.329 148.485 217.148C148.18 216.81 148.202 216.279 148.541 215.975L153.193 211.787C153.283 212.453 153.373 213.119 153.452 213.785Z" fill="#084FC7"/>
<path d="M101.808 210.377C101.684 210.185 101.628 209.948 101.684 209.711C101.786 209.259 102.237 208.988 102.689 209.09L109.949 210.806C110.401 210.907 110.672 211.359 110.57 211.81C110.468 212.261 110.017 212.532 109.565 212.431L102.305 210.715C102.091 210.67 101.921 210.546 101.808 210.377Z" fill="#084FC7"/>
<path d="M75.9073 224.62C75.6815 224.62 75.4556 224.53 75.2863 224.349C74.9814 224.011 75.004 223.48 75.3427 223.175L80.8865 218.187C81.2252 217.882 81.7559 217.905 82.0608 218.243C82.3656 218.582 82.343 219.112 82.0043 219.417L76.4605 224.406C76.3025 224.552 76.0992 224.62 75.9073 224.62Z" fill="#084FC7"/>
<path d="M140.446 223.435C140.514 223.221 140.683 223.029 140.897 222.938C141.315 222.758 141.812 222.95 141.993 223.367L144.973 230.207C145.154 230.624 144.962 231.121 144.544 231.302C144.127 231.482 143.63 231.29 143.449 230.873L140.468 224.033C140.389 223.83 140.378 223.616 140.446 223.435Z" fill="#084FC7"/>
<path d="M154.458 234.563C154.322 234.97 154.164 235.342 153.995 235.692C153.927 235.827 153.859 235.963 153.791 236.087L149.738 234.812C149.535 234.744 149.377 234.608 149.275 234.439C149.162 234.247 149.117 233.999 149.196 233.773C149.332 233.333 149.806 233.096 150.235 233.232L154.458 234.563Z" fill="#084FC7"/>
<path d="M131.56 235.161C131.785 235.139 132.022 235.207 132.203 235.376C132.542 235.681 132.564 236.211 132.26 236.55L127.246 242.069C126.942 242.407 126.411 242.43 126.072 242.125C125.734 241.82 125.711 241.29 126.016 240.951L131.029 235.432C131.176 235.274 131.368 235.184 131.56 235.161Z" fill="#084FC7"/>
<path d="M128.613 222.43C128.387 222.397 128.184 222.261 128.049 222.058C127.8 221.674 127.924 221.155 128.308 220.907L134.631 216.945C135.015 216.697 135.534 216.821 135.783 217.205C136.031 217.589 135.907 218.108 135.523 218.356L129.2 222.318C129.008 222.43 128.805 222.464 128.613 222.43Z" fill="#084FC7"/>
<path d="M132.632 198.413C132.779 198.583 132.869 198.808 132.835 199.057C132.79 199.508 132.372 199.847 131.921 199.79L124.503 198.978C124.051 198.932 123.712 198.515 123.769 198.063C123.814 197.612 124.232 197.273 124.683 197.33L132.101 198.142C132.316 198.165 132.497 198.267 132.632 198.413Z" fill="#084FC7"/>
<path d="M121.849 182.33C121.906 182.104 122.053 181.913 122.267 181.8C122.674 181.585 123.182 181.732 123.396 182.138L126.93 188.707C127.145 189.113 126.998 189.621 126.591 189.836C126.185 190.05 125.677 189.903 125.462 189.497L121.928 182.928C121.827 182.737 121.804 182.522 121.849 182.33Z" fill="#084FC7"/>
<path d="M147.062 244.145C146.588 244.563 146.137 244.935 145.719 245.274L144.748 242.791C144.669 242.588 144.669 242.385 144.748 242.193C144.827 241.978 144.996 241.798 145.222 241.708C145.651 241.538 146.137 241.753 146.306 242.17L147.062 244.145Z" fill="#084FC7"/>
<path d="M78.8655 231.505C78.7526 231.302 78.7301 231.065 78.8204 230.827C78.9785 230.399 79.4527 230.173 79.8817 230.331L86.9046 232.859C87.3337 233.017 87.5595 233.491 87.4014 233.92C87.2433 234.349 86.7691 234.575 86.3401 234.417L79.3172 231.888C79.1139 231.832 78.9672 231.685 78.8655 231.505Z" fill="#084FC7"/>
<path d="M82.3095 240.996C82.5354 240.996 82.7612 241.098 82.9305 241.279C83.2354 241.617 83.2015 242.148 82.8628 242.452L77.2738 247.396C76.9351 247.701 76.4044 247.667 76.0996 247.328C75.7947 246.989 75.8286 246.459 76.1673 246.154L81.7563 241.211C81.9144 241.064 82.1063 240.996 82.3095 240.996Z" fill="#084FC7"/>
<path d="M92.437 248.84C92.5838 249.021 92.6516 249.258 92.6064 249.495C92.5274 249.947 92.0983 250.251 91.6467 250.172L84.2964 248.919C83.8447 248.84 83.5399 248.412 83.6189 247.96C83.698 247.509 84.127 247.204 84.5786 247.283L91.929 248.536C92.1322 248.57 92.3128 248.682 92.437 248.84Z" fill="#084FC7"/>
<path d="M98.5796 179.023C98.5232 178.809 98.5458 178.561 98.6813 178.357C98.9297 177.974 99.449 177.861 99.8329 178.109L106.099 182.15C106.483 182.398 106.596 182.917 106.348 183.301C106.099 183.685 105.58 183.797 105.196 183.549L98.9297 179.509C98.7603 179.384 98.6361 179.215 98.5796 179.023Z" fill="#084FC7"/>
<path d="M141.36 183.786C141.564 183.673 141.801 183.651 142.038 183.73C142.467 183.888 142.693 184.362 142.546 184.791L140.051 191.822C139.893 192.251 139.418 192.477 138.989 192.33C138.56 192.172 138.335 191.698 138.481 191.269L140.977 184.238C141.044 184.034 141.18 183.888 141.36 183.786Z" fill="#084FC7"/>
<path d="M138.006 174.633L134.156 179.576C133.874 179.938 133.355 180.005 132.993 179.723C132.632 179.441 132.564 178.922 132.846 178.561L136.369 174.046C136.934 174.227 137.476 174.43 138.006 174.633Z" fill="#084FC7"/>
<path d="M100.329 242.836C100.408 243.073 100.612 243.242 100.837 243.288C100.95 243.31 101.074 243.31 101.187 243.265C101.312 243.22 113.381 239.315 126.072 244.574C132.519 247.249 138.255 248.265 142.896 248.175C142.918 247.904 142.941 247.655 142.963 247.407C142.963 247.373 142.975 247.339 142.975 247.317C142.975 247.317 143.234 247.147 143.686 246.831C139.124 247.057 133.287 246.087 126.592 243.321C113.415 237.859 101.266 241.809 100.758 241.978C100.408 242.102 100.216 242.486 100.329 242.836Z" fill="#084FC7"/>
<path d="M129.358 171.789C127.766 174.249 124.492 177.037 117.853 176.563C108.696 175.897 102.666 167.161 100.566 163.572C100.849 163.561 101.007 163.561 101.007 163.561L129.358 171.789Z" fill="#084FC7"/>
<path d="M119.614 187.996C119.885 188.052 120.156 188.086 120.427 188.109C122.956 188.312 125.011 187.578 126.524 185.931C130.928 181.123 129.121 170.152 129.042 169.69C128.974 169.317 128.624 169.069 128.263 169.137C127.89 169.204 127.642 169.554 127.71 169.915C127.732 170.028 129.482 180.694 125.531 185.016C124.3 186.359 122.663 186.935 120.551 186.766C111.677 186.055 101.73 163.516 101.628 163.29C101.481 162.952 101.075 162.794 100.736 162.94C100.397 163.087 100.239 163.493 100.386 163.832C100.781 164.769 110.209 186.089 119.614 187.996Z" fill="white"/>
<path d="M147.254 179.136C146.667 185.637 148.27 196.37 152.47 204.09C152.369 202.431 152.323 200.75 152.346 199.079C152.346 199.023 152.346 198.966 152.346 198.91C152.346 198.741 152.357 198.571 152.357 198.402C152.515 188.549 153.475 183.549 147.254 179.136Z" fill="#EA9B7A"/>
<path d="M95.0908 190.581C91.839 203.131 79.9385 213.198 71.8091 210.061C71.7075 209.361 71.6172 208.65 71.5156 207.95C71.4478 207.487 71.3801 207.036 71.3124 206.573C70.793 203.165 70.1833 199.745 69.4945 196.427C66.4799 181.958 68.6026 166.778 83.2693 164.983C84.3307 164.848 85.3807 164.735 86.4082 164.622C93.7246 167.748 98.828 176.134 95.0908 190.581Z" fill="#EA9B7A"/>
<path d="M96.7614 181.01L115.82 250.691L109.023 242.859C111.541 244.19 114.454 245.229 117.683 245.951C120.901 246.673 124.424 247.091 128.093 247.283C131.774 247.475 135.602 247.441 139.52 247.283C143.438 247.125 147.446 246.831 151.511 246.482H151.533C157.529 245.974 162.801 250.409 163.309 256.402C163.795 262.113 159.742 267.181 154.164 268.084C149.975 268.749 145.707 269.382 141.338 269.889C136.968 270.397 132.486 270.77 127.834 270.883C123.193 270.984 118.383 270.815 113.415 270.093C108.459 269.37 103.31 268.084 98.2744 265.905C95.0565 264.517 92.7645 261.876 91.7145 258.795L91.4773 258.073L68.6022 189.542C66.0279 181.845 70.1942 173.516 77.8945 170.942C85.5948 168.369 93.9275 172.534 96.5018 180.231C96.6034 180.479 96.6937 180.773 96.7614 181.01Z" fill="#EA9B7A"/>
<path d="M105.298 248.468C105.106 248.468 104.914 248.366 104.812 248.186C104.654 247.915 104.756 247.576 105.027 247.418C105.207 247.317 109.374 244.958 113.732 244.631C114.048 244.608 114.319 244.834 114.342 245.15C114.364 245.466 114.138 245.737 113.822 245.759C109.724 246.075 105.625 248.378 105.591 248.4C105.49 248.445 105.388 248.468 105.298 248.468Z" fill="#D96C63"/>
<path d="M112.219 245.951C112.117 245.951 112.016 245.929 111.925 245.872C109.294 244.281 106.11 244.032 106.077 244.032C105.76 244.01 105.535 243.739 105.557 243.434C105.58 243.118 105.839 242.893 106.156 242.915C106.291 242.926 109.644 243.175 112.501 244.913C112.772 245.071 112.851 245.421 112.693 245.692C112.603 245.85 112.411 245.951 112.219 245.951Z" fill="#D96C63"/>
<path d="M129.222 209.225C137.656 210.93 141.349 202.217 141.382 202.126C141.529 201.777 141.36 201.382 141.01 201.246C140.66 201.099 140.265 201.269 140.129 201.619C139.994 201.946 136.81 209.384 129.493 207.905C121.804 206.347 107.465 191.235 107.329 191.077C107.07 190.806 106.641 190.795 106.37 191.055C106.099 191.314 106.087 191.743 106.347 192.014C106.934 192.635 121.115 207.578 129.222 209.225Z" fill="#084FC7"/>
<path d="M115.955 154.34C115.955 154.34 102.417 151.79 98.601 138.133C94.9653 125.131 97.7654 118.382 101.548 111.362C104.393 106.069 113.426 98.9245 126.083 101.486C138.864 104.071 148.427 110.64 149.839 121.147C152.481 140.808 136.606 164.791 115.955 154.34Z" fill="#39393B"/>
<path d="M99.245 140.244C98.9966 140.244 98.7595 140.119 98.6353 139.882C98.3869 139.454 92.6963 129.217 97.4272 115.741C100.385 107.321 106.2 103.563 110.57 101.881C115.289 100.064 119.252 100.245 119.422 100.245C119.806 100.268 120.11 100.595 120.088 100.99C120.065 101.374 119.749 101.678 119.354 101.656C119.32 101.656 115.47 101.498 111.021 103.213C105.105 105.504 100.984 109.872 98.7595 116.204C94.2545 129.048 99.8095 139.081 99.866 139.183C100.058 139.521 99.945 139.95 99.6063 140.142C99.4821 140.21 99.3579 140.244 99.245 140.244Z" fill="#FAAF3A"/>
<path d="M142.218 140.458C142.218 140.458 146.621 136.982 147.784 141.587C148.947 146.191 145.673 154.374 140.547 151.891L142.218 140.458Z" fill="#D96C63"/>
<path d="M137.916 148.923C135.725 149.645 133.794 151.586 133.298 153.99C132.575 157.579 134.901 161.078 138.48 161.812C142.071 162.534 145.571 160.209 146.305 156.631C146.847 153.945 145.684 151.304 143.55 149.848C142.838 149.352 142.014 149.002 141.111 148.821C141.088 148.821 141.066 148.81 141.043 148.81C140.919 149.261 140.964 149.623 141.224 149.905C141.946 150.097 142.601 150.424 143.177 150.853C144.837 152.117 145.729 154.25 145.288 156.428C144.679 159.453 141.709 161.417 138.683 160.807C135.657 160.198 133.693 157.23 134.303 154.205C134.754 152.004 136.38 150.446 138.424 149.95L137.916 148.923Z" fill="#FAAF3A"/>
<path d="M128.872 160.198L127.032 171.732C127.032 171.732 118.394 180.547 102.621 164.735C106.855 161.586 108.47 154.272 107.973 149.555C107.973 149.555 109.215 150.3 111.134 152.038C111.507 152.376 111.992 152.636 112.455 152.963C116.622 155.785 123.012 159.475 128.872 160.198Z" fill="#EA9B7A"/>
<path d="M128.873 160.198L128.003 165.66C123.272 163.55 114.906 159.047 111.135 152.026C111.541 152.32 111.993 152.625 112.456 152.952C116.622 155.785 123.013 159.475 128.873 160.198Z" fill="#39393B"/>
<path d="M146.485 137.682C146.237 138.901 146.011 140.063 145.774 141.169C145.526 142.365 145.288 143.494 145.051 144.555C143.301 152.534 141.867 156.812 139.541 158.415C127.765 166.507 108.605 150.119 107.984 149.589C107.972 149.577 107.972 149.577 107.972 149.577C107.961 148.641 107.961 147.704 107.972 146.79C108.119 139.025 109.44 132.05 111.54 125.605C112.59 118.563 118.055 112.919 125.089 111.859C132.383 110.764 137.87 114.985 141.303 116.847C146.485 119.669 148.506 127.513 146.485 137.682Z" fill="#EA9B7A"/>
<path d="M111.935 118.359C111.935 118.359 120.178 102.513 136.617 106.938C153.056 111.362 153.926 118.991 154.219 122.806C154.513 126.621 145.706 119.861 145.706 119.861C145.706 119.861 145.401 127.49 142.466 125.143C138.864 122.253 134.844 116.034 134.844 116.034C134.844 116.034 125.055 125.65 115.752 123.055C110.467 121.587 111.935 118.359 111.935 118.359Z" fill="#39393B"/>
<path d="M132.134 153.223C130 153.223 128.533 151.744 128.465 151.665C128.239 151.428 128.239 151.056 128.476 150.83C128.713 150.604 129.075 150.604 129.3 150.841C129.379 150.92 131.073 152.602 133.309 151.835C133.613 151.733 133.952 151.891 134.054 152.196C134.155 152.501 133.997 152.839 133.692 152.941C133.139 153.144 132.62 153.223 132.134 153.223Z" fill="#D96C63"/>
<path d="M127.212 143.63C127.212 143.63 135.138 145.977 139.248 145.977C139.248 145.977 137.193 151.846 131.322 149.792C126.749 148.189 127.212 143.63 127.212 143.63Z" fill="white"/>
<path d="M141.936 127.129C141.936 127.129 139.881 126.914 140.208 128.912C140.547 130.91 145.007 129.691 147.22 133.686C147.208 133.686 149.342 129.499 141.936 127.129Z" fill="#39393B"/>
<path d="M132.779 125.278C132.779 125.278 134.755 125.887 133.671 127.592C132.587 129.296 128.951 126.44 125.361 129.262C125.361 129.262 125.022 124.578 132.779 125.278Z" fill="#39393B"/>
<path d="M129.199 139.578C129.007 140.514 126.907 140.887 124.513 140.402C122.12 139.916 120.336 138.765 120.528 137.817C120.72 136.88 122.809 136.508 125.214 136.993C127.607 137.478 129.391 138.641 129.199 139.578Z" fill="#D96C63"/>
<path d="M152.605 140.198L146.203 139.104C146.169 139.375 146.102 139.645 146.045 139.905C146.034 139.95 146.023 139.995 146 140.029L152.447 141.124C152.707 141.169 152.955 140.988 153 140.729C153.034 140.492 152.876 140.244 152.605 140.198Z" fill="white"/>
<path d="M135.511 134.736C135.511 134.409 135.5 134.081 135.454 133.765C135.24 132.027 134.472 130.424 133.298 129.183C132.214 128.043 130.803 127.208 129.165 126.847C129.143 126.835 129.109 126.835 129.086 126.824C125.338 126.057 121.646 128.02 120.121 131.361C119.986 131.655 119.873 131.948 119.771 132.253C119.681 132.524 119.613 132.806 119.546 133.088C119.117 135.187 119.534 137.264 120.584 138.957C120.934 139.533 121.375 140.063 121.86 140.526C122.922 141.553 124.265 142.298 125.812 142.614C128.42 143.155 130.983 142.365 132.824 140.718C134.066 139.612 134.98 138.099 135.341 136.35C135.341 136.339 135.341 136.339 135.341 136.327C135.454 135.797 135.511 135.266 135.511 134.736ZM126.004 141.677C125.959 141.666 125.925 141.666 125.891 141.654C123.87 141.203 122.233 139.916 121.273 138.235C120.449 136.779 120.121 135.041 120.483 133.28C120.562 132.919 120.663 132.569 120.788 132.23C120.799 132.208 120.81 132.185 120.81 132.163C121.815 129.555 124.265 127.783 127.02 127.625C127.63 127.592 128.251 127.625 128.883 127.761C130.238 128.043 131.412 128.686 132.349 129.578C134.066 131.215 134.924 133.675 134.416 136.158C133.614 139.995 129.843 142.478 126.004 141.677Z" fill="white"/>
<path d="M149.85 131.44C149.636 131.327 149.41 131.226 149.173 131.124C148.902 131.011 148.62 130.921 148.337 130.831C148.134 130.774 147.942 130.718 147.728 130.684C147.344 130.605 146.971 130.56 146.598 130.537C146.147 130.503 145.695 130.515 145.255 130.571C144.024 130.707 142.861 131.113 141.834 131.756C140.705 132.456 139.745 133.438 139.09 134.623C138.909 134.928 138.763 135.244 138.627 135.56C138.616 135.582 138.616 135.594 138.605 135.616C138.435 136.045 138.3 136.497 138.198 136.959C137.555 140.074 138.808 143.144 141.168 144.973C141.935 145.571 142.816 146.033 143.787 146.316C143.934 146.361 144.081 146.406 144.239 146.428C144.318 146.451 144.385 146.462 144.465 146.485C145.244 146.643 146.023 146.688 146.779 146.62C146.903 146.609 147.028 146.598 147.14 146.586C147.468 146.541 147.795 146.485 148.123 146.395C148.721 146.237 149.308 146.011 149.85 145.729C151.916 144.645 153.497 142.681 154.005 140.221C154.739 136.609 152.955 133.065 149.85 131.44ZM153.068 140.018C153.034 140.176 153 140.323 152.955 140.469C152.899 140.684 152.831 140.887 152.752 141.101C152.187 142.602 151.149 143.821 149.839 144.623C149.365 144.916 148.845 145.153 148.303 145.334C147.965 145.447 147.626 145.526 147.265 145.582C147.163 145.605 147.061 145.616 146.96 145.627C146.215 145.717 145.436 145.695 144.656 145.537C144.589 145.526 144.51 145.503 144.442 145.492C144.397 145.48 144.352 145.469 144.318 145.458C143.177 145.164 142.161 144.6 141.337 143.844C141.213 143.731 141.1 143.618 140.987 143.505C139.418 141.88 138.65 139.521 139.135 137.14C139.248 136.609 139.418 136.09 139.632 135.616C140.343 134.059 141.585 132.851 143.087 132.14C144.013 131.7 145.04 131.463 146.102 131.463C146.271 131.463 146.44 131.474 146.621 131.485C146.926 131.508 147.231 131.553 147.536 131.61C147.761 131.655 147.976 131.711 148.19 131.779C148.484 131.869 148.766 131.982 149.049 132.106C149.263 132.208 149.478 132.321 149.692 132.433C152.244 133.935 153.7 136.948 153.068 140.018Z" fill="white"/>
<path d="M109.915 132.817C109.858 132.806 109.802 132.783 109.757 132.749C109.531 132.603 109.474 132.309 109.61 132.095C112.816 127.084 120.528 131.587 120.596 131.632C120.822 131.768 120.901 132.061 120.765 132.287C120.63 132.512 120.336 132.591 120.11 132.456C120.043 132.411 113.121 128.382 110.412 132.614C110.299 132.772 110.095 132.851 109.915 132.817Z" fill="white"/>
<path d="M138.977 135.831C138.853 135.808 138.751 135.729 138.672 135.627C137.644 134.047 135.454 134.758 135.431 134.758C135.183 134.837 134.912 134.702 134.833 134.454C134.754 134.205 134.89 133.935 135.138 133.856C136.143 133.517 138.345 133.348 139.485 135.108C139.632 135.334 139.564 135.627 139.338 135.763C139.225 135.831 139.09 135.853 138.977 135.831Z" fill="white"/>
<g opacity="0.8">
<path d="M145.774 141.169C145.526 142.365 145.289 143.494 145.052 144.555C142.873 144.025 141.303 142.952 141.484 142.061C141.665 141.18 143.55 140.797 145.774 141.169Z" fill="#D96C63"/>
</g>
<path d="M130.882 134.849C130.622 136.147 129.82 137.072 129.098 136.925C128.375 136.779 128.003 135.616 128.262 134.318C128.522 133.02 129.324 132.095 130.046 132.242C130.769 132.388 131.153 133.551 130.882 134.849Z" fill="#39393B"/>
<path d="M143.685 137.445C143.426 138.742 142.624 139.668 141.902 139.521C141.179 139.375 140.806 138.212 141.066 136.914C141.326 135.616 142.127 134.691 142.85 134.837C143.573 134.984 143.956 136.147 143.685 137.445Z" fill="#39393B"/>
<path d="M137.081 140.921C137.702 141.045 138.142 141.022 138.176 141.022C138.323 141.011 138.47 140.943 138.571 140.831C138.673 140.718 138.707 140.56 138.695 140.413L137.871 134.375C137.826 134.081 137.555 133.867 137.261 133.912C136.968 133.957 136.753 134.228 136.799 134.521L137.532 139.905C136.99 139.826 136.178 139.6 135.444 138.991C135.218 138.799 134.868 138.833 134.676 139.059C134.484 139.284 134.518 139.634 134.744 139.826C135.545 140.481 136.415 140.785 137.081 140.921Z" fill="#39393B"/>
<path d="M113.256 145.187C113.166 145.322 110.659 148.923 107.983 149.577C107.972 149.566 107.972 149.566 107.972 149.566C107.949 148.629 107.961 147.693 107.972 146.778C108.062 146.79 110.625 146.857 113.256 145.187Z" fill="#39393B"/>
<path d="M112.715 135.729C112.715 135.729 108.944 127.738 104.055 132.422C100.024 136.293 103.547 149.205 110.547 146.44L112.715 135.729Z" fill="#EA9B7A"/>
<path d="M103.445 142.625C101.254 143.347 99.3237 145.289 98.8269 147.693C98.1043 151.282 100.43 154.78 104.009 155.514C107.6 156.236 111.1 153.911 111.834 150.334C112.376 147.647 111.213 145.006 109.079 143.551C108.368 143.054 107.543 142.704 106.64 142.523C106.618 142.523 106.595 142.512 106.572 142.512C106.448 142.964 106.505 143.325 106.753 143.607C107.476 143.799 108.131 144.126 108.706 144.555C110.366 145.819 111.258 147.952 110.818 150.13C110.208 153.155 107.239 155.119 104.213 154.51C101.187 153.9 99.2221 150.932 99.8318 147.907C100.272 145.706 101.909 144.149 103.953 143.652L103.445 142.625Z" fill="#FAAF3A"/>
<path d="M110.254 144.216C110.276 144.216 110.288 144.228 110.31 144.228C110.604 144.25 110.875 144.036 110.897 143.731C111.451 137.693 106.889 134.634 106.697 134.51C106.449 134.341 106.11 134.42 105.941 134.668C105.771 134.916 105.85 135.255 106.099 135.424C106.268 135.537 110.31 138.268 109.813 143.641C109.791 143.912 109.983 144.16 110.254 144.216Z" fill="#39393B"/>
<path d="M105.94 139.984C106.053 140.007 106.189 139.995 106.302 139.928C106.844 139.645 108.436 139.013 109.305 139.431C109.576 139.566 109.903 139.454 110.028 139.183C110.163 138.912 110.05 138.584 109.779 138.46C108.266 137.727 106.053 138.844 105.805 138.979C105.534 139.115 105.432 139.442 105.579 139.713C105.647 139.849 105.782 139.95 105.94 139.984Z" fill="#39393B"/>
<path d="M117.57 122.174C117.57 122.174 112.501 135.932 112.23 138.709C111.857 142.49 106.855 129.533 111.88 118.472L117.57 122.174Z" fill="#39393B"/>
<path d="M202.263 413.858H181.386C181.386 413.858 176.554 390.698 174.939 377.719C173.314 364.728 172.478 333.951 172.478 333.951C172.478 333.951 155.847 339.357 121.026 337.314C43.8758 332.811 73.1302 276.153 73.1302 276.153C75.7384 279.754 95.2941 284.708 106.201 286.435C139.701 289.652 165.162 295.34 182.595 302.857C186.795 304.663 190.521 306.581 193.795 308.601C197.995 311.186 200.626 319.053 202.218 329.38C206.971 360.428 202.263 413.858 202.263 413.858Z" fill="#39393B"/>
<path d="M183.983 402.707C183.633 402.707 183.329 402.458 183.25 402.108C180.235 387.211 179.23 368.667 178.417 353.769C177.74 341.411 177.107 329.741 175.515 328.341C174.228 327.201 168.888 328.093 162.136 329.21C148.688 331.445 128.365 334.808 105.964 329.605C93.7587 326.761 84.7825 320.836 79.2951 311.987C69.8222 296.728 74.1465 277.801 74.1917 277.609C74.282 277.203 74.6885 276.955 75.095 277.056C75.5014 277.146 75.7498 277.553 75.6482 277.959C75.603 278.14 71.4367 296.48 80.5823 311.209C85.8551 319.707 94.5151 325.407 106.314 328.149C128.433 333.296 148.575 329.955 161.91 327.743C169.893 326.423 174.714 325.621 176.532 327.224C178.496 328.962 179.049 337.494 179.93 353.69C180.743 368.543 181.748 387.019 184.74 401.815C184.819 402.221 184.559 402.616 184.153 402.695C184.085 402.695 184.029 402.707 183.983 402.707Z" fill="#585859"/>
<path d="M202.669 403.09H202.658L179.444 402.594C179.026 402.583 178.699 402.244 178.71 401.826C178.722 401.409 179.06 401.082 179.478 401.093L202.692 401.589C203.11 401.601 203.437 401.939 203.426 402.357C203.403 402.774 203.065 403.09 202.669 403.09Z" fill="#585859"/>
<path d="M201.687 440.595H186.963L184.118 423.315L182.571 413.858H200.874L201.156 423.315L201.687 440.595Z" fill="#EA9B7A"/>
<path d="M201.687 440.595H186.963L184.841 427.728L184.118 423.315H201.156L201.303 427.886L201.687 440.595Z" fill="#FAAF3A"/>
<path d="M201.303 427.886L184.841 427.728L184.118 423.315H201.156L201.303 427.886Z" fill="#C77E2E"/>
<path d="M238.043 463.856H182.323C181.905 463.1 181.68 462.039 181.589 460.763C181.239 456.046 182.741 448.529 183.475 443.789C183.565 443.236 183.644 442.717 183.701 442.254C183.802 441.464 183.87 440.798 183.87 440.313C183.87 436.441 187.291 437.107 187.291 437.107C192.925 442.638 199.316 434.353 203.042 437.062C203.042 437.062 203.189 437.175 203.539 437.435C203.855 437.683 204.329 438.067 204.984 438.62C205.932 439.41 207.264 440.561 209.071 442.186C213.497 446.17 221.017 448.789 227.419 451.464C228.231 451.802 228.988 452.141 229.699 452.491C230.23 452.75 230.738 453.01 231.212 453.258C236.451 456.08 238.111 458.788 238.495 460.752C238.867 462.637 238.043 463.856 238.043 463.856Z" fill="#0875F7"/>
<path d="M231.224 453.269C229.79 454.409 226.595 456.7 224.032 456.7C223.919 456.7 223.806 456.7 223.693 456.689C221.886 456.542 215.247 453.281 209.839 450.312C206.745 448.608 203.911 446.938 201.879 445.595C198.548 443.394 197.961 442.559 197.837 441.972C197.351 439.771 200.987 438.247 203.539 437.446C203.855 437.694 204.329 438.078 204.984 438.631C201.823 439.489 199.214 440.843 199.339 441.622C199.655 442.276 202.952 444.782 210.833 449.105C216.851 452.4 222.553 455.053 223.817 455.165C225.533 455.301 228.051 453.743 229.7 452.513C230.242 452.75 230.75 453.01 231.224 453.269Z" fill="#084FC7"/>
<path d="M238.043 463.856H182.323C181.905 463.1 181.679 462.039 181.589 460.763H238.506C238.867 462.637 238.043 463.856 238.043 463.856Z" fill="#084FC7"/>
<path d="M188.014 463.856H186.354C188.002 461.971 189.549 459.07 189.346 454.94C189.075 449.432 185.778 445.73 183.475 443.789C183.565 443.236 183.644 442.717 183.7 442.254C186.173 444.139 190.339 448.281 190.667 454.872C190.87 458.822 189.572 461.768 188.014 463.856Z" fill="#084FC7"/>
<path d="M208.134 445.482C207.727 445.482 207.343 445.2 207.242 444.782C207.117 444.285 207.422 443.789 207.908 443.665L211.385 442.796C211.882 442.671 212.379 442.976 212.503 443.462C212.627 443.958 212.322 444.455 211.837 444.579L208.359 445.448C208.28 445.47 208.213 445.482 208.134 445.482Z" fill="white"/>
<path d="M204.679 442.581C204.261 442.581 203.888 442.299 203.787 441.881C203.662 441.385 203.967 440.888 204.453 440.764L207.93 439.895C208.427 439.771 208.924 440.076 209.048 440.561C209.172 441.058 208.867 441.554 208.382 441.678L204.904 442.547C204.825 442.57 204.746 442.581 204.679 442.581Z" fill="white"/>
<path d="M211.611 447.502C211.205 447.502 210.821 447.22 210.719 446.802C210.595 446.306 210.9 445.809 211.385 445.685L214.863 444.816C215.36 444.692 215.856 444.996 215.981 445.482C216.105 445.978 215.8 446.475 215.315 446.599L211.837 447.468C211.769 447.491 211.69 447.502 211.611 447.502Z" fill="white"/>
<path d="M215.1 449.443C214.694 449.443 214.31 449.161 214.208 448.744C214.084 448.247 214.389 447.75 214.875 447.626L218.352 446.757C218.849 446.633 219.346 446.938 219.47 447.423C219.594 447.92 219.289 448.416 218.804 448.54L215.326 449.409C215.247 449.432 215.168 449.443 215.1 449.443Z" fill="white"/>
<path d="M218.894 451.238C218.488 451.238 218.104 450.956 218.002 450.538C217.878 450.041 218.183 449.545 218.669 449.432L222.146 448.563C222.643 448.439 223.14 448.743 223.264 449.229C223.388 449.725 223.083 450.222 222.598 450.346L219.12 451.215C219.041 451.238 218.962 451.238 218.894 451.238Z" fill="white"/>
<path d="M223.004 452.773C222.586 452.773 222.213 452.491 222.112 452.073C221.988 451.576 222.292 451.08 222.778 450.967L226.255 450.098C226.752 449.974 227.249 450.278 227.373 450.764C227.497 451.26 227.193 451.757 226.707 451.87L223.23 452.739C223.151 452.761 223.083 452.773 223.004 452.773Z" fill="white"/>
<path d="M279.154 275.318V279.946C279.154 282.609 277.551 284.765 275.564 284.765H25.5065C23.5193 284.765 21.916 282.609 21.916 279.946V275.318C21.916 272.655 23.5193 270.499 25.5065 270.499H275.553C277.551 270.499 279.154 272.655 279.154 275.318Z" fill="#21B573"/>
<path d="M279.154 276.785H21.916V278.907H279.154V276.785Z" fill="#217C58"/>
<path d="M271.646 296.649H36.5937C35.5436 296.649 34.6855 295.791 34.6855 294.742V284.697H273.542V294.742C273.542 295.791 272.696 296.649 271.646 296.649Z" fill="#217C58"/>
<path d="M261.089 355.609H50.8877V363.803H261.089V355.609Z" fill="#217C58"/>
<path d="M35.7356 465.312L76.4276 296.649H62.1335L21.4414 465.312H35.7356Z" fill="#21B573"/>
<path d="M275.959 465.312L235.267 296.649H249.561L290.253 465.312H275.959Z" fill="#21B573"/>
<path d="M44.7484 231.732L40.3398 232.407L45.4356 265.665L49.8442 264.99L44.7484 231.732Z" fill="#FAAF3A"/>
<path d="M44.7565 231.719L40.3418 232.396L41.3128 229.033L41.8209 227.284L42.8258 228.796L44.7565 231.719Z" fill="#EA9B7A"/>
<path d="M49.4701 262.568L45.0615 263.243L45.4325 265.664L49.841 264.989L49.4701 262.568Z" fill="#39393B"/>
<path d="M49.8493 266.944L46.0217 267.531C45.8636 267.553 45.7055 267.44 45.683 267.282L45.4346 265.646L49.8493 264.969L50.0977 266.605C50.1315 266.774 50.0186 266.921 49.8493 266.944Z" fill="#DF615C"/>
<path d="M42.8264 228.796L41.3135 229.033L41.8216 227.284L42.8264 228.796Z" fill="#39393B"/>
<path d="M49.2181 260.833L44.8096 261.508L45.0745 263.238L49.4831 262.563L49.2181 260.833Z" fill="#C77E2E"/>
<path d="M41.697 233.864L45.4681 258.49C45.502 258.671 45.6713 258.806 45.852 258.772C46.0326 258.739 46.1681 258.569 46.1343 258.389L42.3631 233.762C42.3293 233.581 42.1599 233.446 41.9792 233.48C41.7873 233.502 41.6631 233.683 41.697 233.864Z" fill="#C77E2E"/>
<path d="M43.4128 233.604L47.1839 258.231C47.2178 258.411 47.3872 258.547 47.5678 258.513C47.7598 258.479 47.884 258.31 47.8501 258.129L44.079 233.502C44.0451 233.322 43.8757 233.186 43.6951 233.22C43.5144 233.243 43.3902 233.412 43.4128 233.604Z" fill="#C77E2E"/>
<path d="M52.7294 231.871L48.2695 231.886L48.3801 265.53L52.84 265.516L52.7294 231.871Z" fill="#21B573"/>
<path d="M52.7397 231.877L48.2686 231.888L49.7364 228.706L50.4928 227.047L51.2493 228.694L52.7397 231.877Z" fill="#EA9B7A"/>
<path d="M52.8378 263.078L48.3779 263.092L48.386 265.542L52.8458 265.527L52.8378 263.078Z" fill="#39393B"/>
<path d="M52.5589 267.463L48.6861 267.474C48.5168 267.474 48.3926 267.339 48.3926 267.181V265.533L52.8524 265.522V267.169C52.8524 267.327 52.717 267.463 52.5589 267.463Z" fill="#DF615C"/>
<path d="M51.2493 228.694L49.7363 228.706L50.4928 227.047L51.2493 228.694Z" fill="#39393B"/>
<path d="M52.8271 261.317L48.3672 261.332L48.3729 263.081L52.8328 263.067L52.8271 261.317Z" fill="#217C58"/>
<path d="M49.3867 233.548L49.4658 258.456C49.4658 258.648 49.6238 258.795 49.8045 258.795C49.9964 258.795 50.1432 258.637 50.1432 258.456L50.0642 233.548C50.0642 233.356 49.9061 233.209 49.7254 233.209C49.5335 233.198 49.3867 233.356 49.3867 233.548Z" fill="#217C58"/>
<path d="M51.1367 233.536L51.2158 258.445C51.2158 258.637 51.3738 258.784 51.5545 258.784C51.7464 258.784 51.8932 258.626 51.8932 258.445L51.8142 233.536C51.8142 233.344 51.6561 233.198 51.4754 233.198C51.2835 233.198 51.1367 233.344 51.1367 233.536Z" fill="#217C58"/>
<path d="M56.0272 231.704L51.2949 265.016L55.7106 265.642L60.4429 232.331L56.0272 231.704Z" fill="#0875F7"/>
<path d="M60.4406 232.351L56.0146 231.719L57.9228 228.773L58.9051 227.25L59.4358 228.988L60.4406 232.351Z" fill="#EA9B7A"/>
<path d="M56.0544 263.247L51.6387 262.62L51.2942 265.045L55.7099 265.672L56.0544 263.247Z" fill="#39393B"/>
<path d="M55.1335 267.542L51.306 267C51.1479 266.978 51.035 266.831 51.0576 266.662L51.2947 265.025L55.7094 265.657L55.4723 267.294C55.4497 267.452 55.3029 267.564 55.1335 267.542Z" fill="#DF615C"/>
<path d="M59.4358 228.988L57.9229 228.773L58.9052 227.25L59.4358 228.988Z" fill="#39393B"/>
<path d="M51.8869 260.868L51.6406 262.6L56.0563 263.227L56.3026 261.495L51.8869 260.868Z" fill="#084FC7"/>
<path d="M56.8837 233.514L53.3835 258.174C53.3609 258.366 53.4851 258.535 53.6771 258.558C53.869 258.581 54.0384 258.456 54.061 258.265L57.5611 233.604C57.5837 233.412 57.4595 233.243 57.2675 233.22C57.0869 233.198 56.9062 233.333 56.8837 233.514Z" fill="#084FC7"/>
<path d="M58.6112 233.762L55.111 258.422C55.0885 258.614 55.2127 258.784 55.4046 258.806C55.5965 258.829 55.7659 258.705 55.7885 258.513L59.2886 233.852C59.3112 233.66 59.187 233.491 58.9951 233.468C58.8144 233.446 58.6338 233.57 58.6112 233.762Z" fill="#084FC7"/>
<path d="M61.885 245.184L61.6592 246.99L61.4447 248.626L61.1173 251.109L60.914 252.734L60.5866 255.24L60.3834 256.842L60.0559 259.371L59.8527 260.951L59.5253 263.501L59.322 265.059L58.9833 267.632L58.7914 269.167L58.622 270.499H41.0761L40.9067 269.167L40.7035 267.632L40.3761 265.059L40.1728 263.501L39.8454 260.951L39.6422 259.371L39.3147 256.842L39.1002 255.24L38.7841 252.734L38.5695 251.109L38.2534 248.626L38.0389 246.99L37.8018 245.184H61.885Z" fill="#DF615C"/>
<path d="M61.6594 246.99L61.4449 248.626H38.2536L38.0391 246.99H61.6594Z" fill="#B11722"/>
<path d="M61.1171 251.109L60.9138 252.734H38.7839L38.5693 251.109H61.1171Z" fill="#B11722"/>
<path d="M60.587 255.24L60.3837 256.842H39.3151L39.1006 255.24H60.587Z" fill="#B11722"/>
<path d="M60.0563 259.371L59.8531 260.951H39.8458L39.6426 259.371H60.0563Z" fill="#B11722"/>
<path d="M59.5253 263.501L59.322 265.059H40.3761L40.1729 263.501H59.5253Z" fill="#B11722"/>
<path d="M58.9839 267.632L58.792 269.167H40.9073L40.7041 267.632H58.9839Z" fill="#B11722"/>
<path d="M277.697 181.055L262.736 244.303L262.341 245.962L261.336 250.217C260.896 252.068 259.259 253.366 257.362 253.366H156.58C153.938 253.366 151.996 250.906 152.606 248.344L168.966 179.181C169.407 177.342 171.044 176.044 172.941 176.044H273.722C276.353 176.032 278.306 178.493 277.697 181.055Z" fill="#39393B"/>
<path d="M262.737 244.292L262.341 245.962H157.698V244.292H262.737Z" fill="#585859"/>
<path d="M197.194 191.675C196.358 196.156 192.045 199.79 187.563 199.79C183.08 199.79 180.122 196.156 180.958 191.675C181.793 187.195 186.106 183.56 190.589 183.56C195.071 183.56 198.029 187.195 197.194 191.675Z" fill="#FAAF3A"/>
<path d="M188.026 190.129C187.856 191.021 187.405 191.754 187.021 191.754C186.626 191.754 186.445 191.032 186.614 190.129C186.784 189.237 187.235 188.504 187.619 188.504C188.003 188.504 188.184 189.226 188.026 190.129Z" fill="#39393B"/>
<path d="M192.26 190.129C192.091 191.021 191.639 191.754 191.255 191.754C190.86 191.754 190.679 191.032 190.849 190.129C191.018 189.237 191.47 188.504 191.854 188.504C192.249 188.504 192.429 189.226 192.26 190.129Z" fill="#39393B"/>
<path d="M188.41 195.637C184.921 195.637 184.774 192.149 184.774 192.115C184.763 191.924 184.921 191.732 185.124 191.698C185.327 191.653 185.485 191.777 185.497 191.969C185.497 192.093 185.632 194.937 188.556 194.937C191.469 194.937 192.666 192.093 192.723 191.969C192.802 191.777 193.016 191.664 193.197 191.698C193.378 191.743 193.468 191.924 193.389 192.115C193.344 192.138 191.899 195.637 188.41 195.637Z" fill="#39393B"/>
<path d="M243.779 229.575C243.87 233.773 250.983 239.033 250.983 239.033C250.983 239.033 259.248 233.773 260.253 229.575C261.337 225.026 256.143 223.627 252.293 227.058C249.188 223.627 243.689 225.026 243.779 229.575Z" fill="#DF615C"/>
<path d="M228.729 217.397C228.244 221.753 224.326 225.275 219.979 225.275C215.632 225.275 212.482 221.742 212.967 217.397C213.453 213.04 217.371 209.519 221.718 209.519C226.065 209.519 229.204 213.052 228.729 217.397Z" fill="#585859"/>
<path d="M176.927 176.032L159.505 253.366H156.569C153.927 253.366 151.985 250.906 152.595 248.344L168.955 179.181C169.396 177.342 171.033 176.032 172.93 176.032H176.927Z" fill="#585859"/>
<path d="M206.125 253.366L203.065 270.555H213.159L216.219 253.366H206.125Z" fill="white"/>
<path d="M187.947 267.598L190.013 264.698C190.747 263.659 191.944 263.05 193.22 263.05H220.905C222.373 263.05 223.716 263.863 224.394 265.16L225.782 267.824C226.437 269.066 225.534 270.567 224.123 270.567H189.471C187.958 270.555 187.066 268.829 187.947 267.598Z" fill="white"/>
<path d="M130.262 270.544H213.43L214.333 267.406C214.898 265.431 213.418 263.468 211.364 263.468H134.62C133.242 263.468 132.034 264.382 131.65 265.702L130.262 270.544Z" fill="white"/>
<path d="M239.32 155.379L202.535 155.356C201.112 155.356 199.949 154.193 199.949 152.771L199.961 130.176C199.961 128.754 201.123 127.592 202.546 127.592L239.332 127.614C240.754 127.614 241.917 128.777 241.917 130.199L241.906 152.794C241.906 154.227 240.743 155.379 239.32 155.379Z" fill="#DF615C"/>
<path d="M237.13 151.214L233.765 163.877L227.905 151.97L237.13 151.214Z" fill="#DF615C"/>
<path d="M230.22 139.442C229.475 144.183 220.612 150.119 220.612 150.119C220.612 150.119 212.087 144.171 211.602 139.42C211.071 134.273 217.168 132.704 220.996 136.587C225.038 132.716 231.045 134.296 230.22 139.442Z" fill="white"/>
<path d="M693.111 464.996C716.161 464.996 734.847 463.151 734.847 460.875C734.847 458.599 716.161 456.754 693.111 456.754C670.062 456.754 651.376 458.599 651.376 460.875C651.376 463.151 670.062 464.996 693.111 464.996Z" fill="#CED3E6"/>
<path d="M718.658 431.075H665.969C664.969 431.075 664.156 430.263 664.156 429.262V428.428C664.156 427.428 664.969 426.616 665.969 426.616H718.658C719.658 426.616 720.471 427.428 720.471 428.428V429.262C720.471 430.263 719.658 431.075 718.658 431.075Z" fill="#39393B"/>
<path d="M666.639 377.219H718.116C718.973 377.219 719.665 377.911 719.665 378.768V385.092C719.665 385.95 718.973 386.641 718.116 386.641H666.639C665.781 386.641 665.089 385.95 665.089 385.092V378.768C665.089 377.911 665.781 377.219 666.639 377.219Z" fill="#585859"/>
<path d="M678.788 337.14C678.788 337.14 657.085 332.854 651.029 317.717C644.974 302.58 667.12 291.225 678.788 299.354C691.275 308.046 678.788 337.14 678.788 337.14Z" fill="#21B573"/>
<path d="M691.697 376.911C691.509 376.911 691.336 376.768 691.306 376.573C689.23 362.511 680.842 342.283 674.185 327.793C666.956 312.077 660.14 299.534 660.072 299.406C659.967 299.218 660.042 298.978 660.23 298.872C660.418 298.767 660.659 298.842 660.764 299.03C660.832 299.158 667.663 311.723 674.907 327.462C681.595 342.005 690.005 362.308 692.096 376.46C692.126 376.678 691.983 376.873 691.765 376.903C691.735 376.903 691.72 376.911 691.697 376.911Z" fill="#39393B"/>
<path d="M677.975 335.673C677.832 335.673 677.696 335.598 677.629 335.47C668.188 317.897 652.857 305.144 652.706 305.016C652.541 304.881 652.518 304.632 652.654 304.467C652.789 304.301 653.037 304.279 653.203 304.414C653.361 304.542 668.805 317.386 678.321 335.102C678.426 335.29 678.351 335.53 678.163 335.636C678.103 335.658 678.035 335.673 677.975 335.673Z" fill="#39393B"/>
<path d="M678.404 336.937C678.291 336.937 678.186 336.892 678.103 336.801C671.22 328.703 664.164 323.665 659.462 320.867C654.362 317.837 650.849 316.701 650.819 316.694C650.616 316.626 650.495 316.408 650.563 316.198C650.631 315.995 650.849 315.874 651.059 315.942C651.202 315.987 654.678 317.1 659.846 320.175C664.608 323.003 671.747 328.101 678.705 336.29C678.848 336.455 678.825 336.704 678.66 336.846C678.585 336.907 678.494 336.937 678.404 336.937Z" fill="#39393B"/>
<path d="M676.494 332.327C676.328 332.327 676.178 332.222 676.125 332.064C670.829 316.536 672.777 297.669 672.8 297.481C672.823 297.263 673.018 297.113 673.229 297.135C673.447 297.158 673.597 297.353 673.575 297.564C673.552 297.752 671.626 316.453 676.862 331.808C676.93 332.011 676.825 332.237 676.614 332.305C676.576 332.32 676.539 332.327 676.494 332.327Z" fill="#39393B"/>
<path d="M677.825 335.403C677.637 335.403 677.471 335.267 677.441 335.072C675.824 325.244 677.065 317.228 678.396 312.235C679.841 306.813 681.646 303.753 681.721 303.632C681.834 303.444 682.075 303.384 682.263 303.497C682.451 303.61 682.511 303.85 682.398 304.038C682.383 304.068 680.563 307.144 679.149 312.475C677.847 317.386 676.629 325.281 678.216 334.951C678.253 335.162 678.103 335.365 677.892 335.403C677.87 335.395 677.847 335.403 677.825 335.403Z" fill="#39393B"/>
<path d="M701.686 341.095C701.686 341.095 723.607 338.095 730.55 323.349C737.494 308.595 716.054 295.955 703.928 303.376C690.944 311.317 701.686 341.095 701.686 341.095Z" fill="#21B573"/>
<path d="M693.376 375.625C693.158 375.625 692.977 375.444 692.985 375.226C693.067 367.985 694.647 359.736 697.679 350.712C700.101 343.501 703.441 335.778 707.624 327.763C714.732 314.115 721.894 304.196 721.969 304.098C722.097 303.925 722.345 303.88 722.518 304.008C722.691 304.136 722.737 304.384 722.609 304.557C722.541 304.655 715.41 314.536 708.323 328.131C701.794 340.666 693.97 359.007 693.782 375.234C693.767 375.452 693.586 375.625 693.376 375.625Z" fill="#39393B"/>
<path d="M702.613 339.681C702.545 339.681 702.47 339.666 702.41 339.621C702.221 339.508 702.169 339.268 702.282 339.08C712.828 321.958 729.009 310.046 729.175 309.926C729.348 309.798 729.596 309.836 729.724 310.009C729.852 310.182 729.814 310.43 729.641 310.558C729.483 310.678 713.423 322.499 702.959 339.486C702.868 339.614 702.74 339.681 702.613 339.681Z" fill="#39393B"/>
<path d="M702.108 340.915C702.01 340.915 701.912 340.877 701.837 340.809C701.679 340.659 701.672 340.411 701.822 340.253C709.262 332.485 716.687 327.823 721.607 325.281C726.948 322.522 730.476 321.612 730.626 321.574C730.837 321.521 731.048 321.649 731.1 321.86C731.153 322.07 731.025 322.281 730.814 322.334C730.777 322.341 727.203 323.266 721.938 325.988C717.078 328.5 709.743 333.117 702.386 340.794C702.311 340.869 702.213 340.915 702.108 340.915Z" fill="#39393B"/>
<path d="M704.29 336.425C704.238 336.425 704.193 336.418 704.14 336.395C703.937 336.313 703.847 336.087 703.922 335.884C710.06 320.86 709.24 302.083 709.233 301.895C709.225 301.677 709.391 301.497 709.609 301.482C709.82 301.467 710.008 301.64 710.023 301.858C710.03 302.046 710.858 320.995 704.659 336.185C704.591 336.335 704.441 336.425 704.29 336.425Z" fill="#39393B"/>
<path d="M702.778 339.418C702.748 339.418 702.718 339.418 702.688 339.41C702.477 339.365 702.342 339.155 702.394 338.944C704.561 329.379 703.809 321.431 702.801 316.453C701.702 311.054 700.078 307.873 700.062 307.836C699.965 307.64 700.04 307.407 700.228 307.309C700.424 307.212 700.657 307.287 700.755 307.475C700.822 307.61 702.44 310.761 703.56 316.265C704.591 321.333 705.358 329.409 703.162 339.117C703.117 339.29 702.959 339.418 702.778 339.418Z" fill="#39393B"/>
<path d="M693.246 312.551C693.246 312.551 674.673 300.534 674.65 284.232C674.628 267.929 699.407 265.583 707.238 277.449C715.626 290.15 693.246 312.551 693.246 312.551Z" fill="#21B573"/>
<path d="M690.652 354.292C690.622 354.292 690.591 354.292 690.561 354.284C690.351 354.232 690.223 354.021 690.268 353.811C693.548 339.982 693.254 318.085 692.434 302.158C691.547 284.886 689.854 270.704 689.839 270.569C689.817 270.35 689.967 270.155 690.185 270.132C690.396 270.11 690.599 270.26 690.621 270.478C690.637 270.621 692.329 284.826 693.224 302.121C694.052 318.1 694.338 340.072 691.043 353.991C690.99 354.172 690.832 354.292 690.652 354.292Z" fill="#39393B"/>
<path d="M693.178 310.919C692.983 310.919 692.81 310.769 692.787 310.573C690.53 290.751 681.014 273.231 680.917 273.058C680.811 272.87 680.879 272.629 681.075 272.524C681.263 272.419 681.503 272.486 681.609 272.682C681.706 272.855 691.298 290.511 693.57 310.49C693.592 310.708 693.442 310.904 693.224 310.926C693.209 310.911 693.193 310.919 693.178 310.919Z" fill="#39393B"/>
<path d="M693.11 312.242C692.945 312.242 692.794 312.137 692.741 311.971C689.349 301.895 684.662 294.609 681.33 290.27C677.719 285.563 674.875 283.216 674.845 283.194C674.68 283.059 674.65 282.81 674.793 282.645C674.928 282.48 675.176 282.449 675.342 282.592C675.462 282.69 678.268 285.006 681.932 289.774C685.309 294.165 690.048 301.534 693.479 311.723C693.546 311.926 693.441 312.152 693.23 312.22C693.193 312.235 693.148 312.242 693.11 312.242Z" fill="#39393B"/>
<path d="M693.043 307.257C693.035 307.257 693.027 307.257 693.02 307.257C692.802 307.249 692.636 307.061 692.651 306.843C693.486 290.466 702.288 273.659 702.371 273.486C702.476 273.291 702.709 273.223 702.905 273.321C703.1 273.419 703.168 273.659 703.07 273.855C702.98 274.02 694.261 290.676 693.441 306.881C693.426 307.091 693.253 307.257 693.043 307.257Z" fill="#39393B"/>
<path d="M693.14 310.603C693.11 310.603 693.088 310.603 693.058 310.595C692.847 310.55 692.712 310.34 692.757 310.129C694.893 300.399 699.031 293.361 702.13 289.165C705.493 284.608 708.306 282.389 708.426 282.299C708.599 282.164 708.848 282.194 708.975 282.367C709.111 282.54 709.081 282.788 708.908 282.916C708.878 282.938 706.042 285.179 702.739 289.653C699.693 293.782 695.623 300.715 693.524 310.295C693.486 310.483 693.321 310.603 693.14 310.603Z" fill="#39393B"/>
<path d="M715.941 352.186L715.294 353.901L714.888 354.991L713.714 358.104L713.3 359.195L712.097 362.398L711.691 363.481L706.515 377.212H678.245L673.07 363.481L672.663 362.398L671.46 359.195L671.046 358.104L669.872 354.991L669.466 353.901L668.819 352.186C668.375 351.006 669.248 349.75 670.504 349.75H714.263C715.512 349.75 716.377 351.006 715.941 352.186Z" fill="#0875F7"/>
<path d="M715.289 353.901L714.882 354.991H669.867L669.461 353.901H715.289Z" fill="#084FC7"/>
<path d="M713.708 358.104L713.294 359.195H671.454L671.04 358.104H713.708Z" fill="#084FC7"/>
<path d="M712.092 362.398L711.685 363.481H673.072L672.658 362.398H712.092Z" fill="#084FC7"/>
<path d="M684.806 386.634L683.234 391.687L661.411 461.995H657.146L670.987 393.123L672.289 386.634H684.806Z" fill="#39393B"/>
<path d="M727.729 461.995H723.464L700.994 389.604L700.076 386.634H712.579L712.895 388.213H712.902L727.729 461.995Z" fill="#39393B"/>
<path d="M718.658 421.382H665.969C664.969 421.382 664.156 420.57 664.156 419.57V418.735C664.156 417.735 664.969 416.923 665.969 416.923H718.65C719.651 416.923 720.463 417.735 720.463 418.735V419.57C720.47 420.57 719.658 421.382 718.658 421.382Z" fill="#585859"/>
<path d="M221.074 83.9023C237.985 83.9023 251.694 70.3703 251.694 53.6776C251.694 36.985 237.985 23.4529 221.074 23.4529C204.162 23.4529 190.453 36.985 190.453 53.6776C190.453 70.3703 204.162 83.9023 221.074 83.9023Z" fill="#CED3E6"/>
<path d="M221.074 79.9747C237.985 79.9747 251.694 66.4427 251.694 49.75C251.694 33.0573 237.985 19.5253 221.074 19.5253C204.162 19.5253 190.453 33.0573 190.453 49.75C190.453 66.4427 204.162 79.9747 221.074 79.9747Z" fill="#0875F7"/>
<path d="M221.073 74.3203C234.817 74.3203 245.958 63.3198 245.958 49.75C245.958 36.1802 234.817 25.1797 221.073 25.1797C207.33 25.1797 196.188 36.1802 196.188 49.75C196.188 63.3198 207.33 74.3203 221.073 74.3203Z" fill="white"/>
<path d="M245.97 49.75C245.97 50.4046 245.948 51.0479 245.891 51.6912C244.886 39.0506 234.137 29.0622 221.074 29.0622C208.01 29.0622 197.273 39.0506 196.257 51.6912C196.212 51.0479 196.178 50.4046 196.178 49.75C196.178 36.1951 207.344 25.1797 221.063 25.1797C234.804 25.1797 245.97 36.1951 245.97 49.75Z" fill="#CED3E6"/>
<path d="M221.073 52.3008C220.881 52.3008 220.689 52.2105 220.577 52.0525L208.371 35.8228C208.168 35.5519 208.224 35.1681 208.495 34.965C208.766 34.7618 209.162 34.8183 209.365 35.0891L221.277 50.9238L234.814 45.0549C235.13 44.9195 235.492 45.055 235.638 45.371C235.774 45.687 235.638 46.0481 235.322 46.1836L221.333 52.2443C221.243 52.2895 221.164 52.3008 221.073 52.3008Z" fill="#39393B"/>
<rect x="297" y="111" width="323" height="156" rx="8" fill="white"/>
<path d="M338 126.644V129.13H331.598V133.068H336.504V135.51H331.598V142H328.518V126.644H338ZM351.514 135.642C351.514 136.082 351.485 136.478 351.426 136.83H342.516C342.589 137.71 342.897 138.399 343.44 138.898C343.983 139.397 344.65 139.646 345.442 139.646C346.586 139.646 347.4 139.155 347.884 138.172H351.206C350.854 139.345 350.179 140.313 349.182 141.076C348.185 141.824 346.96 142.198 345.508 142.198C344.335 142.198 343.279 141.941 342.34 141.428C341.416 140.9 340.69 140.159 340.162 139.206C339.649 138.253 339.392 137.153 339.392 135.906C339.392 134.645 339.649 133.537 340.162 132.584C340.675 131.631 341.394 130.897 342.318 130.384C343.242 129.871 344.305 129.614 345.508 129.614C346.667 129.614 347.701 129.863 348.61 130.362C349.534 130.861 350.245 131.572 350.744 132.496C351.257 133.405 351.514 134.454 351.514 135.642ZM348.324 134.762C348.309 133.97 348.023 133.339 347.466 132.87C346.909 132.386 346.227 132.144 345.42 132.144C344.657 132.144 344.012 132.379 343.484 132.848C342.971 133.303 342.655 133.941 342.538 134.762H348.324ZM352.97 135.862C352.97 134.63 353.212 133.537 353.696 132.584C354.195 131.631 354.862 130.897 355.698 130.384C356.549 129.871 357.495 129.614 358.536 129.614C359.445 129.614 360.237 129.797 360.912 130.164C361.601 130.531 362.151 130.993 362.562 131.55V129.812H365.664V142H362.562V140.218C362.166 140.79 361.616 141.267 360.912 141.648C360.223 142.015 359.423 142.198 358.514 142.198C357.487 142.198 356.549 141.934 355.698 141.406C354.862 140.878 354.195 140.137 353.696 139.184C353.212 138.216 352.97 137.109 352.97 135.862ZM362.562 135.906C362.562 135.158 362.415 134.52 362.122 133.992C361.829 133.449 361.433 133.039 360.934 132.76C360.435 132.467 359.9 132.32 359.328 132.32C358.756 132.32 358.228 132.459 357.744 132.738C357.26 133.017 356.864 133.427 356.556 133.97C356.263 134.498 356.116 135.129 356.116 135.862C356.116 136.595 356.263 137.241 356.556 137.798C356.864 138.341 357.26 138.759 357.744 139.052C358.243 139.345 358.771 139.492 359.328 139.492C359.9 139.492 360.435 139.353 360.934 139.074C361.433 138.781 361.829 138.37 362.122 137.842C362.415 137.299 362.562 136.654 362.562 135.906ZM372.258 132.342V138.238C372.258 138.649 372.354 138.949 372.544 139.14C372.75 139.316 373.087 139.404 373.556 139.404H374.986V142H373.05C370.454 142 369.156 140.739 369.156 138.216V132.342H367.704V129.812H369.156V126.798H372.258V129.812H374.986V132.342H372.258ZM388.708 129.812V142H385.606V140.46C385.21 140.988 384.689 141.406 384.044 141.714C383.413 142.007 382.724 142.154 381.976 142.154C381.022 142.154 380.179 141.956 379.446 141.56C378.712 141.149 378.133 140.555 377.708 139.778C377.297 138.986 377.092 138.047 377.092 136.962V129.812H380.172V136.522C380.172 137.49 380.414 138.238 380.898 138.766C381.382 139.279 382.042 139.536 382.878 139.536C383.728 139.536 384.396 139.279 384.88 138.766C385.364 138.238 385.606 137.49 385.606 136.522V129.812H388.708ZM394.827 131.704C395.223 131.059 395.736 130.553 396.367 130.186C397.012 129.819 397.745 129.636 398.567 129.636V132.87H397.753C396.785 132.87 396.051 133.097 395.553 133.552C395.069 134.007 394.827 134.799 394.827 135.928V142H391.747V129.812H394.827V131.704ZM411.971 135.642C411.971 136.082 411.942 136.478 411.883 136.83H402.973C403.046 137.71 403.354 138.399 403.897 138.898C404.44 139.397 405.107 139.646 405.899 139.646C407.043 139.646 407.857 139.155 408.341 138.172H411.663C411.311 139.345 410.636 140.313 409.639 141.076C408.642 141.824 407.417 142.198 405.965 142.198C404.792 142.198 403.736 141.941 402.797 141.428C401.873 140.9 401.147 140.159 400.619 139.206C400.106 138.253 399.849 137.153 399.849 135.906C399.849 134.645 400.106 133.537 400.619 132.584C401.132 131.631 401.851 130.897 402.775 130.384C403.699 129.871 404.762 129.614 405.965 129.614C407.124 129.614 408.158 129.863 409.067 130.362C409.991 130.861 410.702 131.572 411.201 132.496C411.714 133.405 411.971 134.454 411.971 135.642ZM408.781 134.762C408.766 133.97 408.48 133.339 407.923 132.87C407.366 132.386 406.684 132.144 405.877 132.144C405.114 132.144 404.469 132.379 403.941 132.848C403.428 133.303 403.112 133.941 402.995 134.762H408.781ZM418.883 142.198C417.886 142.198 416.991 142.022 416.199 141.67C415.407 141.303 414.777 140.812 414.307 140.196C413.853 139.58 413.603 138.898 413.559 138.15H416.661C416.72 138.619 416.947 139.008 417.343 139.316C417.754 139.624 418.26 139.778 418.861 139.778C419.448 139.778 419.903 139.661 420.225 139.426C420.563 139.191 420.731 138.891 420.731 138.524C420.731 138.128 420.526 137.835 420.115 137.644C419.719 137.439 419.081 137.219 418.201 136.984C417.292 136.764 416.544 136.537 415.957 136.302C415.385 136.067 414.887 135.708 414.461 135.224C414.051 134.74 413.845 134.087 413.845 133.266C413.845 132.591 414.036 131.975 414.417 131.418C414.813 130.861 415.371 130.421 416.089 130.098C416.823 129.775 417.681 129.614 418.663 129.614C420.115 129.614 421.274 129.981 422.139 130.714C423.005 131.433 423.481 132.408 423.569 133.64H420.621C420.577 133.156 420.372 132.775 420.005 132.496C419.653 132.203 419.177 132.056 418.575 132.056C418.018 132.056 417.585 132.159 417.277 132.364C416.984 132.569 416.837 132.855 416.837 133.222C416.837 133.633 417.043 133.948 417.453 134.168C417.864 134.373 418.502 134.586 419.367 134.806C420.247 135.026 420.973 135.253 421.545 135.488C422.117 135.723 422.609 136.089 423.019 136.588C423.445 137.072 423.665 137.717 423.679 138.524C423.679 139.228 423.481 139.859 423.085 140.416C422.704 140.973 422.147 141.413 421.413 141.736C420.695 142.044 419.851 142.198 418.883 142.198ZM436.862 142.198C435.688 142.198 434.632 141.941 433.694 141.428C432.755 140.9 432.014 140.159 431.472 139.206C430.944 138.253 430.68 137.153 430.68 135.906C430.68 134.659 430.951 133.559 431.494 132.606C432.051 131.653 432.806 130.919 433.76 130.406C434.713 129.878 435.776 129.614 436.95 129.614C438.123 129.614 439.186 129.878 440.14 130.406C441.093 130.919 441.841 131.653 442.384 132.606C442.941 133.559 443.22 134.659 443.22 135.906C443.22 137.153 442.934 138.253 442.362 139.206C441.804 140.159 441.042 140.9 440.074 141.428C439.12 141.941 438.05 142.198 436.862 142.198ZM436.862 139.514C437.419 139.514 437.94 139.382 438.424 139.118C438.922 138.839 439.318 138.429 439.612 137.886C439.905 137.343 440.052 136.683 440.052 135.906C440.052 134.747 439.744 133.86 439.128 133.244C438.526 132.613 437.786 132.298 436.906 132.298C436.026 132.298 435.285 132.613 434.684 133.244C434.097 133.86 433.804 134.747 433.804 135.906C433.804 137.065 434.09 137.959 434.662 138.59C435.248 139.206 435.982 139.514 436.862 139.514ZM451.067 132.342H448.933V142H445.809V132.342H444.423V129.812H445.809V129.196C445.809 127.7 446.234 126.6 447.085 125.896C447.936 125.192 449.219 124.862 450.935 124.906V127.502C450.187 127.487 449.666 127.612 449.373 127.876C449.08 128.14 448.933 128.617 448.933 129.306V129.812H451.067V132.342ZM467.259 126.644V137.424C467.259 138.92 466.826 140.086 465.961 140.922C465.096 141.743 463.937 142.154 462.485 142.154C461.018 142.154 459.83 141.729 458.921 140.878C458.026 140.027 457.579 138.839 457.579 137.314H460.659C460.674 137.974 460.828 138.487 461.121 138.854C461.429 139.221 461.869 139.404 462.441 139.404C462.998 139.404 463.424 139.228 463.717 138.876C464.01 138.524 464.157 138.04 464.157 137.424V126.644H467.259ZM470.06 135.862C470.06 134.63 470.302 133.537 470.786 132.584C471.285 131.631 471.952 130.897 472.788 130.384C473.639 129.871 474.585 129.614 475.626 129.614C476.535 129.614 477.327 129.797 478.002 130.164C478.691 130.531 479.241 130.993 479.652 131.55V129.812H482.754V142H479.652V140.218C479.256 140.79 478.706 141.267 478.002 141.648C477.313 142.015 476.513 142.198 475.604 142.198C474.577 142.198 473.639 141.934 472.788 141.406C471.952 140.878 471.285 140.137 470.786 139.184C470.302 138.216 470.06 137.109 470.06 135.862ZM479.652 135.906C479.652 135.158 479.505 134.52 479.212 133.992C478.919 133.449 478.523 133.039 478.024 132.76C477.525 132.467 476.99 132.32 476.418 132.32C475.846 132.32 475.318 132.459 474.834 132.738C474.35 133.017 473.954 133.427 473.646 133.97C473.353 134.498 473.206 135.129 473.206 135.862C473.206 136.595 473.353 137.241 473.646 137.798C473.954 138.341 474.35 138.759 474.834 139.052C475.333 139.345 475.861 139.492 476.418 139.492C476.99 139.492 477.525 139.353 478.024 139.074C478.523 138.781 478.919 138.37 479.212 137.842C479.505 137.299 479.652 136.654 479.652 135.906ZM490.844 139.162L493.924 129.812H497.202L492.692 142H488.952L484.464 129.812H487.764L490.844 139.162ZM498.14 135.862C498.14 134.63 498.382 133.537 498.866 132.584C499.365 131.631 500.032 130.897 500.868 130.384C501.719 129.871 502.665 129.614 503.706 129.614C504.615 129.614 505.407 129.797 506.082 130.164C506.771 130.531 507.321 130.993 507.732 131.55V129.812H510.834V142H507.732V140.218C507.336 140.79 506.786 141.267 506.082 141.648C505.393 142.015 504.593 142.198 503.684 142.198C502.657 142.198 501.719 141.934 500.868 141.406C500.032 140.878 499.365 140.137 498.866 139.184C498.382 138.216 498.14 137.109 498.14 135.862ZM507.732 135.906C507.732 135.158 507.585 134.52 507.292 133.992C506.999 133.449 506.603 133.039 506.104 132.76C505.605 132.467 505.07 132.32 504.498 132.32C503.926 132.32 503.398 132.459 502.914 132.738C502.43 133.017 502.034 133.427 501.726 133.97C501.433 134.498 501.286 135.129 501.286 135.862C501.286 136.595 501.433 137.241 501.726 137.798C502.034 138.341 502.43 138.759 502.914 139.052C503.413 139.345 503.941 139.492 504.498 139.492C505.07 139.492 505.605 139.353 506.104 139.074C506.603 138.781 506.999 138.37 507.292 137.842C507.585 137.299 507.732 136.654 507.732 135.906ZM519.144 142.154C518.074 142.154 517.106 141.971 516.24 141.604C515.39 141.237 514.715 140.709 514.216 140.02C513.718 139.331 513.461 138.517 513.446 137.578H516.746C516.79 138.209 517.01 138.707 517.406 139.074C517.817 139.441 518.374 139.624 519.078 139.624C519.797 139.624 520.362 139.455 520.772 139.118C521.183 138.766 521.388 138.311 521.388 137.754C521.388 137.299 521.249 136.925 520.97 136.632C520.692 136.339 520.34 136.111 519.914 135.95C519.504 135.774 518.932 135.583 518.198 135.378C517.201 135.085 516.387 134.799 515.756 134.52C515.14 134.227 514.605 133.794 514.15 133.222C513.71 132.635 513.49 131.858 513.49 130.89C513.49 129.981 513.718 129.189 514.172 128.514C514.627 127.839 515.265 127.326 516.086 126.974C516.908 126.607 517.846 126.424 518.902 126.424C520.486 126.424 521.77 126.813 522.752 127.59C523.75 128.353 524.3 129.423 524.402 130.802H521.014C520.985 130.274 520.758 129.841 520.332 129.504C519.922 129.152 519.372 128.976 518.682 128.976C518.081 128.976 517.597 129.13 517.23 129.438C516.878 129.746 516.702 130.193 516.702 130.78C516.702 131.191 516.834 131.535 517.098 131.814C517.377 132.078 517.714 132.298 518.11 132.474C518.521 132.635 519.093 132.826 519.826 133.046C520.824 133.339 521.638 133.633 522.268 133.926C522.899 134.219 523.442 134.659 523.896 135.246C524.351 135.833 524.578 136.603 524.578 137.556C524.578 138.377 524.366 139.14 523.94 139.844C523.515 140.548 522.892 141.113 522.07 141.538C521.249 141.949 520.274 142.154 519.144 142.154ZM526.456 135.906C526.456 134.645 526.713 133.545 527.226 132.606C527.74 131.653 528.451 130.919 529.36 130.406C530.27 129.878 531.311 129.614 532.484 129.614C533.995 129.614 535.242 129.995 536.224 130.758C537.222 131.506 537.889 132.562 538.226 133.926H534.904C534.728 133.398 534.428 132.987 534.002 132.694C533.592 132.386 533.078 132.232 532.462 132.232C531.582 132.232 530.886 132.555 530.372 133.2C529.859 133.831 529.602 134.733 529.602 135.906C529.602 137.065 529.859 137.967 530.372 138.612C530.886 139.243 531.582 139.558 532.462 139.558C533.709 139.558 534.523 139.001 534.904 137.886H538.226C537.889 139.206 537.222 140.255 536.224 141.032C535.227 141.809 533.98 142.198 532.484 142.198C531.311 142.198 530.27 141.941 529.36 141.428C528.451 140.9 527.74 140.167 527.226 139.228C526.713 138.275 526.456 137.167 526.456 135.906ZM543.563 131.704C543.959 131.059 544.472 130.553 545.103 130.186C545.748 129.819 546.482 129.636 547.303 129.636V132.87H546.489C545.521 132.87 544.788 133.097 544.289 133.552C543.805 134.007 543.563 134.799 543.563 135.928V142H540.483V129.812H543.563V131.704ZM550.939 128.36C550.397 128.36 549.942 128.191 549.575 127.854C549.223 127.502 549.047 127.069 549.047 126.556C549.047 126.043 549.223 125.617 549.575 125.28C549.942 124.928 550.397 124.752 550.939 124.752C551.482 124.752 551.929 124.928 552.281 125.28C552.648 125.617 552.831 126.043 552.831 126.556C552.831 127.069 552.648 127.502 552.281 127.854C551.929 128.191 551.482 128.36 550.939 128.36ZM552.457 129.812V142H549.377V129.812H552.457ZM558.58 131.572C558.976 131.015 559.519 130.553 560.208 130.186C560.912 129.805 561.712 129.614 562.606 129.614C563.648 129.614 564.586 129.871 565.422 130.384C566.273 130.897 566.94 131.631 567.424 132.584C567.923 133.523 568.172 134.615 568.172 135.862C568.172 137.109 567.923 138.216 567.424 139.184C566.94 140.137 566.273 140.878 565.422 141.406C564.586 141.934 563.648 142.198 562.606 142.198C561.712 142.198 560.92 142.015 560.23 141.648C559.556 141.281 559.006 140.819 558.58 140.262V147.808H555.5V129.812H558.58V131.572ZM565.026 135.862C565.026 135.129 564.872 134.498 564.564 133.97C564.271 133.427 563.875 133.017 563.376 132.738C562.892 132.459 562.364 132.32 561.792 132.32C561.235 132.32 560.707 132.467 560.208 132.76C559.724 133.039 559.328 133.449 559.02 133.992C558.727 134.535 558.58 135.173 558.58 135.906C558.58 136.639 558.727 137.277 559.02 137.82C559.328 138.363 559.724 138.781 560.208 139.074C560.707 139.353 561.235 139.492 561.792 139.492C562.364 139.492 562.892 139.345 563.376 139.052C563.875 138.759 564.271 138.341 564.564 137.798C564.872 137.255 565.026 136.61 565.026 135.862ZM573.997 132.342V138.238C573.997 138.649 574.092 138.949 574.283 139.14C574.488 139.316 574.825 139.404 575.295 139.404H576.725V142H574.789C572.193 142 570.895 140.739 570.895 138.216V132.342H569.443V129.812H570.895V126.798H573.997V129.812H576.725V132.342H573.997Z" fill="#011627"/>
<path d="M524 246V162H597V246H524Z" fill="#FFD600"/>
<path fill-rule="evenodd" clip-rule="evenodd" d="M570.321 222.947C571.603 225.406 572.996 227.761 575.948 227.761C578.427 227.761 579.728 226.306 579.728 224.294C579.728 221.885 578.383 221.03 575.655 219.628L574.16 218.876C569.844 216.715 566.974 214.006 566.974 208.286C566.974 203.014 570.393 199.002 575.735 199.002C579.539 199.002 582.272 200.558 584.243 204.631L579.585 208.146C578.56 205.984 577.453 205.134 575.735 205.134C573.982 205.134 572.872 206.439 572.872 208.146C572.872 210.254 573.984 211.108 576.55 212.414L578.045 213.167C583.132 215.724 586 218.335 586 224.206C586 230.533 581.768 234 576.087 234C570.53 234 567.375 230.708 565.618 226.632L570.321 222.947ZM548.853 223.126C549.79 225.108 551.215 226.632 553.265 226.632C555.225 226.632 556.353 225.718 556.353 222.163V199H562.529V223.284C562.529 230.649 558.91 234 553.626 234C548.851 234 545.405 230.18 544 226.632L548.853 223.126Z" fill="#000001"/>
<rect x="311" y="166" width="191" height="4" rx="2" fill="#CED3E6"/>
<rect x="311" y="185" width="191" height="4" rx="2" fill="#CED3E6"/>
<rect x="311" y="209" width="191" height="4" rx="2" fill="#CED3E6"/>
<rect x="311" y="228" width="191" height="4" rx="2" fill="#CED3E6"/>
</g>
<defs>
<clipPath id="clip0_500_2546">
<rect width="761" height="476" fill="white"/>
</clipPath>
</defs>
</svg>
