<svg width="652" height="197" viewBox="0 0 652 197" fill="none" xmlns="http://www.w3.org/2000/svg">
<rect width="652" height="197" fill="#F9FAFE"/>
<g filter="url(#filter0_d_524_13)">
<rect x="29.3859" y="21" width="596.523" height="157.176" fill="#011627"/>
<path d="M56.6357 58.4043H55.8408C54.4587 58.4043 53.431 58.0785 52.7578 57.4268C52.0846 56.7822 51.748 55.8011 51.748 54.4834V50.7881C51.748 50.4372 51.7087 50.1257 51.6299 49.8535C51.5511 49.5742 51.4115 49.3415 51.2109 49.1553C51.0176 48.9619 50.7562 48.8151 50.4268 48.7148C50.1045 48.6146 49.6963 48.5645 49.2021 48.5645H48.7402V47.0713H49.2021C49.7249 47.0713 50.151 47.0283 50.4805 46.9424C50.8099 46.8564 51.0677 46.7275 51.2539 46.5557C51.4401 46.3766 51.569 46.151 51.6406 45.8789C51.7122 45.6068 51.748 45.2845 51.748 44.9121V42.3662C51.748 41.7646 51.8197 41.224 51.9629 40.7441C52.1061 40.2572 52.3389 39.8454 52.6611 39.5088C52.9906 39.165 53.4131 38.9036 53.9287 38.7246C54.4515 38.5384 55.0889 38.4453 55.8408 38.4453H56.6357V39.9492H56.002C54.3405 39.9492 53.5098 40.7549 53.5098 42.3662V44.8691C53.5098 46.6165 52.7542 47.6012 51.2432 47.8232C52.7686 47.9736 53.5312 48.9548 53.5312 50.7666V54.4404C53.5312 56.0804 54.3548 56.9004 56.002 56.9004H56.6357V58.4043ZM49.46 90.4453H50.2549C51.637 90.4453 52.6647 90.7712 53.3379 91.4229C54.0111 92.0674 54.3477 93.0485 54.3477 94.3662V96.8477C54.3477 97.1986 54.387 97.5137 54.4658 97.793C54.5446 98.0651 54.6807 98.2979 54.874 98.4912C55.0745 98.6774 55.3395 98.8206 55.6689 98.9209C55.9984 99.0212 56.4102 99.0713 56.9043 99.0713H57.3662V100.564H56.9043C56.3815 100.564 55.9518 100.607 55.6152 100.693C55.2858 100.779 55.028 100.912 54.8418 101.091C54.6556 101.263 54.5267 101.485 54.4551 101.757C54.3835 102.029 54.3477 102.351 54.3477 102.724V106.483C54.3477 107.085 54.276 107.626 54.1328 108.105C53.9896 108.592 53.7568 109.004 53.4346 109.341C53.1123 109.685 52.6898 109.946 52.167 110.125C51.6442 110.311 51.0068 110.404 50.2549 110.404H49.46V108.9H50.1045C51.7588 108.9 52.5859 108.095 52.5859 106.483V102.767C52.5859 101.019 53.3415 100.038 54.8525 99.8232C53.3271 99.6585 52.5645 98.6738 52.5645 96.8691V94.4092C52.5645 92.7692 51.7445 91.9492 50.1045 91.9492H49.46V90.4453Z" fill="#FFFA81"/>
<path d="M52.3926 66.3574H49.2021V64.8213H54.2832V78.4424H57.4951V80H48.8477V78.4424H52.3926V66.3574ZM69.9238 74.0381C69.9238 74.3031 69.9202 74.5251 69.9131 74.7041C69.9059 74.8831 69.8952 75.0514 69.8809 75.209H62.3076C62.3076 76.3118 62.6156 77.1605 63.2314 77.7549C63.8473 78.3421 64.7354 78.6357 65.8955 78.6357C66.2106 78.6357 66.5257 78.625 66.8408 78.6035C67.1559 78.5749 67.4603 78.5391 67.7539 78.4961C68.0475 78.4531 68.3268 78.4066 68.5918 78.3564C68.8639 78.2992 69.1146 78.2383 69.3438 78.1738V79.71C68.8353 79.8532 68.2588 79.9678 67.6143 80.0537C66.9769 80.1468 66.3145 80.1934 65.627 80.1934C64.7031 80.1934 63.9082 80.068 63.2422 79.8174C62.5762 79.5667 62.0283 79.2051 61.5986 78.7324C61.1761 78.2526 60.861 77.6689 60.6533 76.9814C60.4528 76.2868 60.3525 75.5026 60.3525 74.6289C60.3525 73.8698 60.46 73.1536 60.6748 72.4805C60.8968 71.8001 61.2155 71.2057 61.6309 70.6973C62.0534 70.1816 62.569 69.7734 63.1777 69.4727C63.7865 69.1719 64.4775 69.0215 65.251 69.0215C66.0029 69.0215 66.6689 69.1396 67.249 69.376C67.8291 69.6123 68.3161 69.9489 68.71 70.3857C69.111 70.8154 69.4118 71.3418 69.6123 71.9648C69.82 72.5807 69.9238 73.2718 69.9238 74.0381ZM67.9795 73.7695C68.001 73.2897 67.9544 72.8529 67.8398 72.459C67.7253 72.0579 67.5462 71.7142 67.3027 71.4277C67.0664 71.1413 66.7692 70.9193 66.4111 70.7617C66.0531 70.597 65.6377 70.5146 65.165 70.5146C64.7568 70.5146 64.3844 70.5934 64.0479 70.751C63.7113 70.9085 63.4212 71.1305 63.1777 71.417C62.9342 71.7035 62.7373 72.0472 62.5869 72.4482C62.4365 72.8493 62.3434 73.2897 62.3076 73.7695H67.9795ZM81.6006 79.8496C81.1781 79.957 80.7412 80.0322 80.29 80.0752C79.8389 80.1253 79.3805 80.1504 78.915 80.1504C77.5615 80.1504 76.5518 79.846 75.8857 79.2373C75.2197 78.6214 74.8867 77.6797 74.8867 76.4121V70.7832H71.8682V69.2148H74.8867V66.25L76.7559 65.7666V69.2148H81.6006V70.7832H76.7559V76.2617C76.7559 77.0352 76.96 77.6152 77.3682 78.002C77.7835 78.3815 78.3923 78.5713 79.1943 78.5713C79.5381 78.5713 79.9141 78.5462 80.3223 78.4961C80.7305 78.4388 81.1566 78.3529 81.6006 78.2383V79.8496ZM154.433 73.0605H145.194V71.4814H154.433V73.0605ZM154.433 76.7988H145.194V75.2197H154.433V76.7988Z" fill="#C792EA"/>
<path d="M97.1016 69.2148H98.7666L98.8418 70.9551C99.1569 70.5827 99.4613 70.2747 99.7549 70.0312C100.049 69.7806 100.335 69.5801 100.614 69.4297C100.901 69.2793 101.191 69.1755 101.484 69.1182C101.778 69.0537 102.082 69.0215 102.397 69.0215C103.507 69.0215 104.345 69.3509 104.911 70.0098C105.484 70.6615 105.771 71.6462 105.771 72.9639V80H103.901V73.1143C103.901 72.2692 103.744 71.6462 103.429 71.2451C103.114 70.8369 102.645 70.6328 102.021 70.6328C101.792 70.6328 101.567 70.6686 101.345 70.7402C101.13 70.8047 100.904 70.9229 100.668 71.0947C100.432 71.2594 100.174 71.485 99.8945 71.7715C99.6224 72.0579 99.3145 72.416 98.9707 72.8457V80H97.1016V69.2148ZM117.866 80H116.19L116.126 78.2598C115.804 78.6322 115.496 78.9437 115.202 79.1943C114.916 79.4378 114.629 79.6348 114.343 79.7852C114.056 79.9355 113.766 80.0394 113.473 80.0967C113.186 80.1611 112.882 80.1934 112.56 80.1934C111.45 80.1934 110.612 79.8675 110.046 79.2158C109.48 78.5641 109.197 77.5794 109.197 76.2617V69.2148H111.066V76.1113C111.066 77.7656 111.689 78.5928 112.936 78.5928C113.165 78.5928 113.387 78.5605 113.602 78.4961C113.824 78.4245 114.053 78.3063 114.289 78.1416C114.533 77.9697 114.79 77.7406 115.062 77.4541C115.342 77.1676 115.653 76.806 115.997 76.3691V69.2148H117.866V80ZM128.984 80V72.2549C128.984 71.9183 128.97 71.6426 128.941 71.4277C128.92 71.2129 128.881 71.0446 128.823 70.9229C128.773 70.7939 128.705 70.7044 128.619 70.6543C128.54 70.6042 128.44 70.5791 128.318 70.5791C128.175 70.5791 128.043 70.6221 127.921 70.708C127.799 70.7939 127.667 70.9336 127.523 71.127C127.387 71.3203 127.233 71.5781 127.062 71.9004C126.897 72.2155 126.7 72.6058 126.471 73.0713V80H124.763V72.459C124.763 72.0651 124.748 71.7464 124.72 71.5029C124.698 71.2594 124.659 71.0697 124.602 70.9336C124.551 70.7975 124.483 70.7044 124.397 70.6543C124.312 70.6042 124.208 70.5791 124.086 70.5791C123.957 70.5791 123.835 70.6149 123.721 70.6865C123.606 70.7581 123.477 70.887 123.334 71.0732C123.198 71.2594 123.044 71.5137 122.872 71.8359C122.7 72.1582 122.496 72.57 122.26 73.0713V80H120.541V69.2148H121.97L122.056 71.2666C122.242 70.8584 122.421 70.5111 122.593 70.2246C122.772 69.9382 122.954 69.709 123.141 69.5371C123.327 69.3581 123.524 69.2292 123.731 69.1504C123.946 69.0645 124.183 69.0215 124.44 69.0215C125.021 69.0215 125.461 69.2113 125.762 69.5908C126.062 69.9704 126.213 70.5576 126.213 71.3525C126.385 70.9801 126.553 70.6507 126.718 70.3643C126.882 70.0706 127.058 69.8271 127.244 69.6338C127.438 69.4333 127.649 69.2829 127.878 69.1826C128.107 69.0752 128.372 69.0215 128.673 69.0215C130.026 69.0215 130.703 70.0635 130.703 72.1475V80H128.984Z" fill="white"/>
<path d="M178.667 80H169.848V78.2598H173.457V68.0117L170.095 69.8379L169.407 68.248L173.876 65.8955H175.53V78.2598H178.667V80ZM191.203 72.9854C191.203 74.0596 191.096 75.0407 190.881 75.9287C190.666 76.8096 190.34 77.5687 189.903 78.2061C189.466 78.8363 188.922 79.3268 188.271 79.6777C187.626 80.0215 186.867 80.1934 185.993 80.1934C185.241 80.1934 184.557 80.0537 183.941 79.7744C183.326 79.488 182.799 79.0511 182.362 78.4639C181.925 77.8766 181.589 77.1283 181.353 76.2188C181.116 75.3092 180.998 74.2314 180.998 72.9854C180.998 71.9111 181.105 70.93 181.32 70.042C181.542 69.154 181.868 68.3949 182.298 67.7646C182.735 67.1273 183.279 66.6367 183.931 66.293C184.582 65.9421 185.341 65.7666 186.208 65.7666C186.96 65.7666 187.644 65.9098 188.26 66.1963C188.876 66.4756 189.402 66.9124 189.839 67.5068C190.276 68.0941 190.612 68.8424 190.849 69.752C191.085 70.6615 191.203 71.7393 191.203 72.9854ZM189.312 73.0498C189.312 72.8063 189.302 72.5664 189.28 72.3301C189.266 72.0866 189.248 71.8503 189.227 71.6211L183.286 76.0361C183.394 76.4085 183.53 76.7523 183.694 77.0674C183.859 77.3825 184.056 77.6546 184.285 77.8838C184.521 78.1058 184.786 78.2812 185.08 78.4102C185.381 78.5319 185.721 78.5928 186.101 78.5928C186.588 78.5928 187.028 78.4746 187.422 78.2383C187.823 78.002 188.163 77.651 188.442 77.1855C188.722 76.7201 188.937 76.1436 189.087 75.4561C189.237 74.7614 189.312 73.9593 189.312 73.0498ZM182.889 72.9209C182.889 73.1429 182.889 73.3649 182.889 73.5869C182.896 73.8089 182.91 74.0238 182.932 74.2314L188.872 69.8379C188.765 69.4727 188.629 69.1396 188.464 68.8389C188.299 68.5381 188.102 68.2803 187.873 68.0654C187.644 67.8434 187.382 67.6715 187.089 67.5498C186.795 67.4281 186.466 67.3672 186.101 67.3672C185.614 67.3672 185.17 67.4854 184.769 67.7217C184.375 67.958 184.038 68.3125 183.759 68.7852C183.479 69.2507 183.265 69.8307 183.114 70.5254C182.964 71.2129 182.889 72.0114 182.889 72.9209Z" fill="#F78C6C"/>
<path d="M57.3877 116.821L50.0186 134.31H48.2354L55.6045 116.821H57.3877ZM69.4834 116.821L62.1143 134.31H60.3311L67.7002 116.821H69.4834ZM85.0059 121.215H86.6709L86.7461 122.955C87.0612 122.583 87.3656 122.275 87.6592 122.031C87.9528 121.781 88.2393 121.58 88.5186 121.43C88.805 121.279 89.0951 121.175 89.3887 121.118C89.6823 121.054 89.9867 121.021 90.3018 121.021C91.4118 121.021 92.2497 121.351 92.8154 122.01C93.3883 122.661 93.6748 123.646 93.6748 124.964V132H91.8057V125.114C91.8057 124.269 91.6481 123.646 91.333 123.245C91.0179 122.837 90.5488 122.633 89.9258 122.633C89.6966 122.633 89.471 122.669 89.249 122.74C89.0342 122.805 88.8086 122.923 88.5723 123.095C88.3359 123.259 88.0781 123.485 87.7988 123.771C87.5267 124.058 87.2188 124.416 86.875 124.846V132H85.0059V121.215ZM105.771 132H104.095L104.03 130.26C103.708 130.632 103.4 130.944 103.106 131.194C102.82 131.438 102.534 131.635 102.247 131.785C101.961 131.936 101.671 132.039 101.377 132.097C101.09 132.161 100.786 132.193 100.464 132.193C99.3538 132.193 98.516 131.868 97.9502 131.216C97.3844 130.564 97.1016 129.579 97.1016 128.262V121.215H98.9707V128.111C98.9707 129.766 99.5938 130.593 100.84 130.593C101.069 130.593 101.291 130.561 101.506 130.496C101.728 130.424 101.957 130.306 102.193 130.142C102.437 129.97 102.695 129.741 102.967 129.454C103.246 129.168 103.558 128.806 103.901 128.369V121.215H105.771V132ZM116.889 132V124.255C116.889 123.918 116.874 123.643 116.846 123.428C116.824 123.213 116.785 123.045 116.728 122.923C116.677 122.794 116.609 122.704 116.523 122.654C116.445 122.604 116.344 122.579 116.223 122.579C116.079 122.579 115.947 122.622 115.825 122.708C115.703 122.794 115.571 122.934 115.428 123.127C115.292 123.32 115.138 123.578 114.966 123.9C114.801 124.215 114.604 124.606 114.375 125.071V132H112.667V124.459C112.667 124.065 112.653 123.746 112.624 123.503C112.603 123.259 112.563 123.07 112.506 122.934C112.456 122.798 112.388 122.704 112.302 122.654C112.216 122.604 112.112 122.579 111.99 122.579C111.861 122.579 111.74 122.615 111.625 122.687C111.51 122.758 111.382 122.887 111.238 123.073C111.102 123.259 110.948 123.514 110.776 123.836C110.604 124.158 110.4 124.57 110.164 125.071V132H108.445V121.215H109.874L109.96 123.267C110.146 122.858 110.325 122.511 110.497 122.225C110.676 121.938 110.859 121.709 111.045 121.537C111.231 121.358 111.428 121.229 111.636 121.15C111.851 121.064 112.087 121.021 112.345 121.021C112.925 121.021 113.365 121.211 113.666 121.591C113.967 121.97 114.117 122.558 114.117 123.353C114.289 122.98 114.457 122.651 114.622 122.364C114.787 122.071 114.962 121.827 115.148 121.634C115.342 121.433 115.553 121.283 115.782 121.183C116.011 121.075 116.276 121.021 116.577 121.021C117.931 121.021 118.607 122.063 118.607 124.147V132H116.889ZM141.768 131.603C141.281 131.789 140.779 131.925 140.264 132.011C139.755 132.104 139.229 132.15 138.685 132.15C136.98 132.15 135.666 131.688 134.742 130.765C133.826 129.841 133.367 128.491 133.367 126.715C133.367 125.863 133.5 125.089 133.765 124.395C134.03 123.7 134.402 123.105 134.882 122.611C135.362 122.117 135.935 121.738 136.601 121.473C137.267 121.201 138.001 121.064 138.803 121.064C139.361 121.064 139.884 121.104 140.371 121.183C140.858 121.261 141.324 121.39 141.768 121.569V123.353C141.302 123.109 140.826 122.934 140.339 122.826C139.859 122.712 139.361 122.654 138.846 122.654C138.366 122.654 137.911 122.747 137.481 122.934C137.059 123.113 136.687 123.374 136.364 123.718C136.042 124.062 135.788 124.48 135.602 124.975C135.415 125.469 135.322 126.027 135.322 126.65C135.322 127.954 135.637 128.931 136.268 129.583C136.905 130.228 137.786 130.55 138.91 130.55C139.419 130.55 139.909 130.493 140.382 130.378C140.862 130.263 141.324 130.091 141.768 129.862V131.603ZM152.413 132L152.37 130.55C151.783 131.13 151.185 131.549 150.576 131.807C149.975 132.064 149.341 132.193 148.675 132.193C148.059 132.193 147.533 132.115 147.096 131.957C146.659 131.799 146.297 131.585 146.011 131.312C145.731 131.033 145.524 130.707 145.388 130.335C145.259 129.963 145.194 129.558 145.194 129.121C145.194 128.04 145.595 127.195 146.397 126.586C147.207 125.97 148.399 125.662 149.975 125.662H152.209V124.717C152.209 124.079 152.005 123.571 151.597 123.191C151.188 122.805 150.565 122.611 149.728 122.611C149.119 122.611 148.517 122.679 147.923 122.815C147.336 122.951 146.727 123.145 146.097 123.396V121.709C146.333 121.623 146.594 121.541 146.881 121.462C147.174 121.376 147.482 121.301 147.805 121.236C148.127 121.172 148.464 121.122 148.814 121.086C149.165 121.043 149.52 121.021 149.878 121.021C150.53 121.021 151.117 121.093 151.64 121.236C152.162 121.38 152.603 121.598 152.961 121.892C153.326 122.185 153.605 122.554 153.799 122.998C153.992 123.442 154.089 123.965 154.089 124.566V132H152.413ZM152.209 127.091H149.835C149.369 127.091 148.968 127.137 148.632 127.23C148.295 127.324 148.02 127.456 147.805 127.628C147.59 127.8 147.429 128.007 147.321 128.251C147.221 128.487 147.171 128.756 147.171 129.057C147.171 129.264 147.203 129.465 147.268 129.658C147.332 129.844 147.436 130.013 147.579 130.163C147.722 130.306 147.909 130.421 148.138 130.507C148.367 130.593 148.646 130.636 148.976 130.636C149.405 130.636 149.896 130.507 150.447 130.249C151.006 129.984 151.593 129.569 152.209 129.003V127.091ZM157.58 121.215H159.245L159.32 122.955C159.635 122.583 159.94 122.275 160.233 122.031C160.527 121.781 160.813 121.58 161.093 121.43C161.379 121.279 161.669 121.175 161.963 121.118C162.257 121.054 162.561 121.021 162.876 121.021C163.986 121.021 164.824 121.351 165.39 122.01C165.963 122.661 166.249 123.646 166.249 124.964V132H164.38V125.114C164.38 124.269 164.222 123.646 163.907 123.245C163.592 122.837 163.123 122.633 162.5 122.633C162.271 122.633 162.045 122.669 161.823 122.74C161.608 122.805 161.383 122.923 161.146 123.095C160.91 123.259 160.652 123.485 160.373 123.771C160.101 124.058 159.793 124.416 159.449 124.846V132H157.58V121.215ZM169.676 121.215H171.341L171.416 122.955C171.731 122.583 172.035 122.275 172.329 122.031C172.623 121.781 172.909 121.58 173.188 121.43C173.475 121.279 173.765 121.175 174.059 121.118C174.352 121.054 174.657 121.021 174.972 121.021C176.082 121.021 176.92 121.351 177.485 122.01C178.058 122.661 178.345 123.646 178.345 124.964V132H176.476V125.114C176.476 124.269 176.318 123.646 176.003 123.245C175.688 122.837 175.219 122.633 174.596 122.633C174.367 122.633 174.141 122.669 173.919 122.74C173.704 122.805 173.479 122.923 173.242 123.095C173.006 123.259 172.748 123.485 172.469 123.771C172.197 124.058 171.889 124.416 171.545 124.846V132H169.676V121.215ZM191.16 126.521C191.16 127.359 191.042 128.129 190.806 128.831C190.569 129.526 190.229 130.124 189.785 130.625C189.341 131.119 188.8 131.506 188.163 131.785C187.526 132.057 186.802 132.193 185.993 132.193C185.22 132.193 184.525 132.075 183.909 131.839C183.3 131.595 182.781 131.241 182.352 130.775C181.929 130.31 181.603 129.733 181.374 129.046C181.152 128.358 181.041 127.567 181.041 126.672C181.041 125.834 181.159 125.071 181.396 124.384C181.632 123.689 181.972 123.095 182.416 122.601C182.86 122.099 183.401 121.713 184.038 121.44C184.675 121.161 185.399 121.021 186.208 121.021C186.981 121.021 187.673 121.143 188.281 121.387C188.897 121.623 189.416 121.974 189.839 122.439C190.269 122.898 190.594 123.471 190.816 124.158C191.046 124.846 191.16 125.633 191.16 126.521ZM189.248 126.607C189.248 125.941 189.173 125.361 189.022 124.867C188.879 124.366 188.672 123.951 188.399 123.621C188.127 123.285 187.794 123.034 187.4 122.869C187.014 122.697 186.58 122.611 186.101 122.611C185.542 122.611 185.062 122.722 184.661 122.944C184.267 123.159 183.941 123.449 183.684 123.814C183.433 124.18 183.247 124.606 183.125 125.093C183.01 125.573 182.953 126.077 182.953 126.607C182.953 127.273 183.025 127.857 183.168 128.358C183.318 128.86 183.53 129.279 183.802 129.615C184.074 129.945 184.403 130.195 184.79 130.367C185.177 130.532 185.614 130.614 186.101 130.614C186.659 130.614 187.135 130.507 187.529 130.292C187.93 130.07 188.256 129.776 188.507 129.411C188.765 129.046 188.951 128.623 189.065 128.144C189.187 127.657 189.248 127.145 189.248 126.607ZM202.558 131.85C202.135 131.957 201.698 132.032 201.247 132.075C200.796 132.125 200.338 132.15 199.872 132.15C198.519 132.15 197.509 131.846 196.843 131.237C196.177 130.621 195.844 129.68 195.844 128.412V122.783H192.825V121.215H195.844V118.25L197.713 117.767V121.215H202.558V122.783H197.713V128.262C197.713 129.035 197.917 129.615 198.325 130.002C198.741 130.382 199.349 130.571 200.151 130.571C200.495 130.571 200.871 130.546 201.279 130.496C201.688 130.439 202.114 130.353 202.558 130.238V131.85ZM227.275 126.414C227.275 127.309 227.15 128.111 226.899 128.82C226.656 129.522 226.305 130.12 225.847 130.614C225.396 131.101 224.844 131.477 224.192 131.742C223.541 132 222.807 132.129 221.99 132.129C221.353 132.129 220.701 132.068 220.035 131.946C219.369 131.825 218.71 131.631 218.059 131.366V116.821H219.928V121L219.842 122.998C220.379 122.275 220.952 121.766 221.561 121.473C222.176 121.172 222.835 121.021 223.537 121.021C224.153 121.021 224.694 121.15 225.159 121.408C225.625 121.666 226.015 122.031 226.33 122.504C226.645 122.969 226.882 123.535 227.039 124.201C227.197 124.86 227.275 125.598 227.275 126.414ZM225.363 126.5C225.363 125.934 225.32 125.415 225.234 124.942C225.156 124.47 225.027 124.065 224.848 123.729C224.669 123.392 224.439 123.131 224.16 122.944C223.881 122.751 223.548 122.654 223.161 122.654C222.925 122.654 222.685 122.694 222.441 122.772C222.198 122.844 221.944 122.969 221.679 123.148C221.421 123.32 221.145 123.553 220.852 123.847C220.565 124.133 220.257 124.491 219.928 124.921V130.152C220.293 130.296 220.665 130.41 221.045 130.496C221.424 130.575 221.786 130.614 222.13 130.614C222.56 130.614 222.968 130.546 223.354 130.41C223.748 130.274 224.092 130.049 224.386 129.733C224.687 129.411 224.923 128.989 225.095 128.466C225.274 127.936 225.363 127.281 225.363 126.5ZM239.264 126.038C239.264 126.303 239.26 126.525 239.253 126.704C239.246 126.883 239.235 127.051 239.221 127.209H231.647C231.647 128.312 231.955 129.16 232.571 129.755C233.187 130.342 234.075 130.636 235.235 130.636C235.55 130.636 235.866 130.625 236.181 130.604C236.496 130.575 236.8 130.539 237.094 130.496C237.387 130.453 237.667 130.407 237.932 130.356C238.204 130.299 238.454 130.238 238.684 130.174V131.71C238.175 131.853 237.599 131.968 236.954 132.054C236.317 132.147 235.654 132.193 234.967 132.193C234.043 132.193 233.248 132.068 232.582 131.817C231.916 131.567 231.368 131.205 230.938 130.732C230.516 130.253 230.201 129.669 229.993 128.981C229.793 128.287 229.692 127.503 229.692 126.629C229.692 125.87 229.8 125.154 230.015 124.48C230.237 123.8 230.555 123.206 230.971 122.697C231.393 122.182 231.909 121.773 232.518 121.473C233.126 121.172 233.817 121.021 234.591 121.021C235.343 121.021 236.009 121.14 236.589 121.376C237.169 121.612 237.656 121.949 238.05 122.386C238.451 122.815 238.752 123.342 238.952 123.965C239.16 124.581 239.264 125.272 239.264 126.038ZM237.319 125.77C237.341 125.29 237.294 124.853 237.18 124.459C237.065 124.058 236.886 123.714 236.643 123.428C236.406 123.141 236.109 122.919 235.751 122.762C235.393 122.597 234.978 122.515 234.505 122.515C234.097 122.515 233.724 122.593 233.388 122.751C233.051 122.909 232.761 123.131 232.518 123.417C232.274 123.703 232.077 124.047 231.927 124.448C231.776 124.849 231.683 125.29 231.647 125.77H237.319ZM263.015 132H261.339L261.274 130.26C260.952 130.632 260.644 130.944 260.351 131.194C260.064 131.438 259.778 131.635 259.491 131.785C259.205 131.936 258.915 132.039 258.621 132.097C258.335 132.161 258.03 132.193 257.708 132.193C256.598 132.193 255.76 131.868 255.194 131.216C254.629 130.564 254.346 129.579 254.346 128.262V121.215H256.215V128.111C256.215 129.766 256.838 130.593 258.084 130.593C258.313 130.593 258.535 130.561 258.75 130.496C258.972 130.424 259.201 130.306 259.438 130.142C259.681 129.97 259.939 129.741 260.211 129.454C260.49 129.168 260.802 128.806 261.146 128.369V121.215H263.015V132ZM274.981 129.057C274.981 129.436 274.917 129.776 274.788 130.077C274.659 130.378 274.484 130.646 274.262 130.883C274.04 131.112 273.782 131.309 273.488 131.474C273.195 131.638 272.88 131.774 272.543 131.882C272.214 131.989 271.873 132.068 271.522 132.118C271.172 132.168 270.828 132.193 270.491 132.193C269.761 132.193 269.088 132.161 268.472 132.097C267.863 132.032 267.265 131.928 266.678 131.785V130.066C267.308 130.245 267.935 130.382 268.558 130.475C269.181 130.568 269.8 130.614 270.416 130.614C271.311 130.614 271.974 130.493 272.403 130.249C272.833 130.006 273.048 129.658 273.048 129.207C273.048 129.014 273.012 128.842 272.94 128.691C272.876 128.534 272.754 128.387 272.575 128.251C272.396 128.108 272.117 127.961 271.737 127.811C271.365 127.66 270.853 127.488 270.201 127.295C269.714 127.152 269.263 126.991 268.848 126.812C268.439 126.625 268.085 126.407 267.784 126.156C267.483 125.906 267.247 125.612 267.075 125.275C266.903 124.939 266.817 124.541 266.817 124.083C266.817 123.782 266.885 123.453 267.021 123.095C267.165 122.737 267.405 122.404 267.741 122.096C268.078 121.788 268.533 121.534 269.105 121.333C269.678 121.125 270.395 121.021 271.254 121.021C271.676 121.021 272.146 121.047 272.661 121.097C273.177 121.14 273.714 121.218 274.272 121.333V122.998C273.685 122.855 273.127 122.751 272.597 122.687C272.074 122.615 271.619 122.579 271.232 122.579C270.767 122.579 270.373 122.615 270.051 122.687C269.736 122.758 269.478 122.858 269.277 122.987C269.084 123.109 268.944 123.256 268.858 123.428C268.772 123.592 268.729 123.771 268.729 123.965C268.729 124.158 268.765 124.334 268.837 124.491C268.916 124.649 269.055 124.803 269.256 124.953C269.464 125.096 269.75 125.243 270.115 125.394C270.48 125.537 270.957 125.694 271.544 125.866C272.181 126.052 272.718 126.249 273.155 126.457C273.592 126.658 273.947 126.883 274.219 127.134C274.491 127.384 274.684 127.667 274.799 127.982C274.921 128.298 274.981 128.656 274.981 129.057ZM287.646 126.038C287.646 126.303 287.643 126.525 287.636 126.704C287.629 126.883 287.618 127.051 287.604 127.209H280.03C280.03 128.312 280.338 129.16 280.954 129.755C281.57 130.342 282.458 130.636 283.618 130.636C283.933 130.636 284.248 130.625 284.563 130.604C284.879 130.575 285.183 130.539 285.477 130.496C285.77 130.453 286.049 130.407 286.314 130.356C286.587 130.299 286.837 130.238 287.066 130.174V131.71C286.558 131.853 285.981 131.968 285.337 132.054C284.7 132.147 284.037 132.193 283.35 132.193C282.426 132.193 281.631 132.068 280.965 131.817C280.299 131.567 279.751 131.205 279.321 130.732C278.899 130.253 278.584 129.669 278.376 128.981C278.175 128.287 278.075 127.503 278.075 126.629C278.075 125.87 278.183 125.154 278.397 124.48C278.619 123.8 278.938 123.206 279.354 122.697C279.776 122.182 280.292 121.773 280.9 121.473C281.509 121.172 282.2 121.021 282.974 121.021C283.726 121.021 284.392 121.14 284.972 121.376C285.552 121.612 286.039 121.949 286.433 122.386C286.834 122.815 287.134 123.342 287.335 123.965C287.543 124.581 287.646 125.272 287.646 126.038ZM285.702 125.77C285.724 125.29 285.677 124.853 285.562 124.459C285.448 124.058 285.269 123.714 285.025 123.428C284.789 123.141 284.492 122.919 284.134 122.762C283.776 122.597 283.36 122.515 282.888 122.515C282.479 122.515 282.107 122.593 281.771 122.751C281.434 122.909 281.144 123.131 280.9 123.417C280.657 123.703 280.46 124.047 280.31 124.448C280.159 124.849 280.066 125.29 280.03 125.77H285.702ZM290.085 126.833C290.085 125.916 290.21 125.104 290.461 124.395C290.712 123.678 291.066 123.077 291.524 122.59C291.99 122.096 292.545 121.723 293.189 121.473C293.841 121.215 294.564 121.086 295.359 121.086C295.703 121.086 296.04 121.107 296.369 121.15C296.706 121.193 297.035 121.261 297.357 121.354V116.821H299.237V132H297.562L297.497 129.959C296.974 130.718 296.409 131.28 295.8 131.646C295.191 132.011 294.532 132.193 293.823 132.193C293.207 132.193 292.663 132.064 292.19 131.807C291.725 131.549 291.335 131.187 291.02 130.722C290.712 130.249 290.479 129.683 290.321 129.024C290.164 128.366 290.085 127.635 290.085 126.833ZM291.997 126.715C291.997 128.018 292.187 128.992 292.566 129.637C292.953 130.274 293.497 130.593 294.199 130.593C294.672 130.593 295.17 130.382 295.692 129.959C296.222 129.536 296.777 128.91 297.357 128.079V123.073C297.049 122.93 296.709 122.823 296.337 122.751C295.965 122.672 295.596 122.633 295.23 122.633C294.214 122.633 293.419 122.962 292.846 123.621C292.28 124.28 291.997 125.311 291.997 126.715ZM324.213 126.521C324.213 127.359 324.095 128.129 323.858 128.831C323.622 129.526 323.282 130.124 322.838 130.625C322.394 131.119 321.853 131.506 321.216 131.785C320.578 132.057 319.855 132.193 319.046 132.193C318.272 132.193 317.578 132.075 316.962 131.839C316.353 131.595 315.834 131.241 315.404 130.775C314.982 130.31 314.656 129.733 314.427 129.046C314.205 128.358 314.094 127.567 314.094 126.672C314.094 125.834 314.212 125.071 314.448 124.384C314.685 123.689 315.025 123.095 315.469 122.601C315.913 122.099 316.453 121.713 317.091 121.44C317.728 121.161 318.451 121.021 319.261 121.021C320.034 121.021 320.725 121.143 321.334 121.387C321.95 121.623 322.469 121.974 322.892 122.439C323.321 122.898 323.647 123.471 323.869 124.158C324.098 124.846 324.213 125.633 324.213 126.521ZM322.301 126.607C322.301 125.941 322.226 125.361 322.075 124.867C321.932 124.366 321.724 123.951 321.452 123.621C321.18 123.285 320.847 123.034 320.453 122.869C320.066 122.697 319.633 122.611 319.153 122.611C318.595 122.611 318.115 122.722 317.714 122.944C317.32 123.159 316.994 123.449 316.736 123.814C316.486 124.18 316.299 124.606 316.178 125.093C316.063 125.573 316.006 126.077 316.006 126.607C316.006 127.273 316.077 127.857 316.221 128.358C316.371 128.86 316.582 129.279 316.854 129.615C317.127 129.945 317.456 130.195 317.843 130.367C318.229 130.532 318.666 130.614 319.153 130.614C319.712 130.614 320.188 130.507 320.582 130.292C320.983 130.07 321.309 129.776 321.56 129.411C321.817 129.046 322.004 128.623 322.118 128.144C322.24 127.657 322.301 127.145 322.301 126.607ZM335.589 132H333.913L333.849 130.26C333.526 130.632 333.218 130.944 332.925 131.194C332.638 131.438 332.352 131.635 332.065 131.785C331.779 131.936 331.489 132.039 331.195 132.097C330.909 132.161 330.604 132.193 330.282 132.193C329.172 132.193 328.334 131.868 327.769 131.216C327.203 130.564 326.92 129.579 326.92 128.262V121.215H328.789V128.111C328.789 129.766 329.412 130.593 330.658 130.593C330.887 130.593 331.109 130.561 331.324 130.496C331.546 130.424 331.775 130.306 332.012 130.142C332.255 129.97 332.513 129.741 332.785 129.454C333.064 129.168 333.376 128.806 333.72 128.369V121.215H335.589V132ZM347.706 131.85C347.284 131.957 346.847 132.032 346.396 132.075C345.944 132.125 345.486 132.15 345.021 132.15C343.667 132.15 342.657 131.846 341.991 131.237C341.325 130.621 340.992 129.68 340.992 128.412V122.783H337.974V121.215H340.992V118.25L342.861 117.767V121.215H347.706V122.783H342.861V128.262C342.861 129.035 343.065 129.615 343.474 130.002C343.889 130.382 344.498 130.571 345.3 130.571C345.644 130.571 346.02 130.546 346.428 130.496C346.836 130.439 347.262 130.353 347.706 130.238V131.85ZM359.651 129.057C359.651 129.436 359.587 129.776 359.458 130.077C359.329 130.378 359.154 130.646 358.932 130.883C358.71 131.112 358.452 131.309 358.158 131.474C357.865 131.638 357.549 131.774 357.213 131.882C356.883 131.989 356.543 132.068 356.192 132.118C355.841 132.168 355.498 132.193 355.161 132.193C354.431 132.193 353.757 132.161 353.142 132.097C352.533 132.032 351.935 131.928 351.348 131.785V130.066C351.978 130.245 352.604 130.382 353.228 130.475C353.851 130.568 354.47 130.614 355.086 130.614C355.981 130.614 356.644 130.493 357.073 130.249C357.503 130.006 357.718 129.658 357.718 129.207C357.718 129.014 357.682 128.842 357.61 128.691C357.546 128.534 357.424 128.387 357.245 128.251C357.066 128.108 356.787 127.961 356.407 127.811C356.035 127.66 355.523 127.488 354.871 127.295C354.384 127.152 353.933 126.991 353.518 126.812C353.109 126.625 352.755 126.407 352.454 126.156C352.153 125.906 351.917 125.612 351.745 125.275C351.573 124.939 351.487 124.541 351.487 124.083C351.487 123.782 351.555 123.453 351.691 123.095C351.835 122.737 352.075 122.404 352.411 122.096C352.748 121.788 353.202 121.534 353.775 121.333C354.348 121.125 355.064 121.021 355.924 121.021C356.346 121.021 356.815 121.047 357.331 121.097C357.847 121.14 358.384 121.218 358.942 121.333V122.998C358.355 122.855 357.797 122.751 357.267 122.687C356.744 122.615 356.289 122.579 355.902 122.579C355.437 122.579 355.043 122.615 354.721 122.687C354.406 122.758 354.148 122.858 353.947 122.987C353.754 123.109 353.614 123.256 353.528 123.428C353.442 123.592 353.399 123.771 353.399 123.965C353.399 124.158 353.435 124.334 353.507 124.491C353.586 124.649 353.725 124.803 353.926 124.953C354.133 125.096 354.42 125.243 354.785 125.394C355.15 125.537 355.627 125.694 356.214 125.866C356.851 126.052 357.388 126.249 357.825 126.457C358.262 126.658 358.617 126.883 358.889 127.134C359.161 127.384 359.354 127.667 359.469 127.982C359.59 128.298 359.651 128.656 359.651 129.057ZM366.881 122.762H363.69V121.215H368.771V130.442H371.983V132H363.336V130.442H366.881V122.762ZM367.536 116.692C367.744 116.692 367.937 116.732 368.116 116.811C368.295 116.882 368.449 116.986 368.578 117.122C368.714 117.258 368.818 117.416 368.89 117.595C368.968 117.767 369.008 117.956 369.008 118.164C369.008 118.365 368.968 118.554 368.89 118.733C368.818 118.912 368.714 119.07 368.578 119.206C368.449 119.342 368.295 119.45 368.116 119.528C367.937 119.6 367.744 119.636 367.536 119.636C367.328 119.636 367.135 119.6 366.956 119.528C366.777 119.45 366.619 119.342 366.483 119.206C366.354 119.07 366.251 118.912 366.172 118.733C366.1 118.554 366.064 118.365 366.064 118.164C366.064 117.956 366.1 117.767 366.172 117.595C366.251 117.416 366.354 117.258 366.483 117.122C366.619 116.986 366.777 116.882 366.956 116.811C367.135 116.732 367.328 116.692 367.536 116.692ZM374.755 126.833C374.755 125.916 374.88 125.104 375.131 124.395C375.382 123.678 375.736 123.077 376.194 122.59C376.66 122.096 377.215 121.723 377.859 121.473C378.511 121.215 379.234 121.086 380.029 121.086C380.373 121.086 380.71 121.107 381.039 121.15C381.376 121.193 381.705 121.261 382.027 121.354V116.821H383.907V132H382.231L382.167 129.959C381.644 130.718 381.078 131.28 380.47 131.646C379.861 132.011 379.202 132.193 378.493 132.193C377.877 132.193 377.333 132.064 376.86 131.807C376.395 131.549 376.005 131.187 375.689 130.722C375.382 130.249 375.149 129.683 374.991 129.024C374.834 128.366 374.755 127.635 374.755 126.833ZM376.667 126.715C376.667 128.018 376.857 128.992 377.236 129.637C377.623 130.274 378.167 130.593 378.869 130.593C379.342 130.593 379.84 130.382 380.362 129.959C380.892 129.536 381.447 128.91 382.027 128.079V123.073C381.719 122.93 381.379 122.823 381.007 122.751C380.634 122.672 380.266 122.633 379.9 122.633C378.883 122.633 378.089 122.962 377.516 123.621C376.95 124.28 376.667 125.311 376.667 126.715ZM396.508 126.038C396.508 126.303 396.504 126.525 396.497 126.704C396.49 126.883 396.479 127.051 396.465 127.209H388.892C388.892 128.312 389.2 129.16 389.815 129.755C390.431 130.342 391.319 130.636 392.479 130.636C392.795 130.636 393.11 130.625 393.425 130.604C393.74 130.575 394.044 130.539 394.338 130.496C394.632 130.453 394.911 130.407 395.176 130.356C395.448 130.299 395.699 130.238 395.928 130.174V131.71C395.419 131.853 394.843 131.968 394.198 132.054C393.561 132.147 392.898 132.193 392.211 132.193C391.287 132.193 390.492 132.068 389.826 131.817C389.16 131.567 388.612 131.205 388.183 130.732C387.76 130.253 387.445 129.669 387.237 128.981C387.037 128.287 386.937 127.503 386.937 126.629C386.937 125.87 387.044 125.154 387.259 124.48C387.481 123.8 387.799 123.206 388.215 122.697C388.637 122.182 389.153 121.773 389.762 121.473C390.37 121.172 391.062 121.021 391.835 121.021C392.587 121.021 393.253 121.14 393.833 121.376C394.413 121.612 394.9 121.949 395.294 122.386C395.695 122.815 395.996 123.342 396.196 123.965C396.404 124.581 396.508 125.272 396.508 126.038ZM394.563 125.77C394.585 125.29 394.538 124.853 394.424 124.459C394.309 124.058 394.13 123.714 393.887 123.428C393.65 123.141 393.353 122.919 392.995 122.762C392.637 122.597 392.222 122.515 391.749 122.515C391.341 122.515 390.968 122.593 390.632 122.751C390.295 122.909 390.005 123.131 389.762 123.417C389.518 123.703 389.321 124.047 389.171 124.448C389.021 124.849 388.927 125.29 388.892 125.77H394.563ZM420.259 132H418.39V125.114C418.39 124.284 418.232 123.664 417.917 123.256C417.609 122.84 417.165 122.633 416.585 122.633C416.334 122.633 416.098 122.669 415.876 122.74C415.661 122.805 415.436 122.923 415.199 123.095C414.963 123.259 414.705 123.485 414.426 123.771C414.146 124.058 413.824 124.416 413.459 124.846V132H411.59V116.821H413.459V121.215L413.395 122.912C413.688 122.561 413.975 122.268 414.254 122.031C414.54 121.788 414.823 121.591 415.103 121.44C415.389 121.29 415.679 121.183 415.973 121.118C416.266 121.054 416.571 121.021 416.886 121.021C417.96 121.021 418.791 121.351 419.378 122.01C419.965 122.661 420.259 123.646 420.259 124.964V132ZM432.795 126.038C432.795 126.303 432.791 126.525 432.784 126.704C432.777 126.883 432.766 127.051 432.752 127.209H425.179C425.179 128.312 425.487 129.16 426.103 129.755C426.718 130.342 427.606 130.636 428.767 130.636C429.082 130.636 429.397 130.625 429.712 130.604C430.027 130.575 430.331 130.539 430.625 130.496C430.919 130.453 431.198 130.407 431.463 130.356C431.735 130.299 431.986 130.238 432.215 130.174V131.71C431.706 131.853 431.13 131.968 430.485 132.054C429.848 132.147 429.186 132.193 428.498 132.193C427.574 132.193 426.779 132.068 426.113 131.817C425.447 131.567 424.899 131.205 424.47 130.732C424.047 130.253 423.732 129.669 423.524 128.981C423.324 128.287 423.224 127.503 423.224 126.629C423.224 125.87 423.331 125.154 423.546 124.48C423.768 123.8 424.087 123.206 424.502 122.697C424.924 122.182 425.44 121.773 426.049 121.473C426.658 121.172 427.349 121.021 428.122 121.021C428.874 121.021 429.54 121.14 430.12 121.376C430.7 121.612 431.187 121.949 431.581 122.386C431.982 122.815 432.283 123.342 432.483 123.965C432.691 124.581 432.795 125.272 432.795 126.038ZM430.851 125.77C430.872 125.29 430.826 124.853 430.711 124.459C430.596 124.058 430.417 123.714 430.174 123.428C429.938 123.141 429.64 122.919 429.282 122.762C428.924 122.597 428.509 122.515 428.036 122.515C427.628 122.515 427.256 122.593 426.919 122.751C426.582 122.909 426.292 123.131 426.049 123.417C425.805 123.703 425.608 124.047 425.458 124.448C425.308 124.849 425.215 125.29 425.179 125.77H430.851ZM436.222 121.215H437.93L437.983 123.202C438.621 122.436 439.247 121.881 439.863 121.537C440.486 121.193 441.113 121.021 441.743 121.021C442.86 121.021 443.705 121.383 444.278 122.106C444.858 122.83 445.127 123.904 445.084 125.329H443.193C443.215 124.384 443.075 123.7 442.774 123.277C442.481 122.848 442.048 122.633 441.475 122.633C441.224 122.633 440.97 122.679 440.712 122.772C440.461 122.858 440.2 123.002 439.928 123.202C439.663 123.396 439.38 123.646 439.079 123.954C438.778 124.262 438.456 124.634 438.112 125.071V132H436.222V121.215ZM456.986 126.038C456.986 126.303 456.983 126.525 456.976 126.704C456.968 126.883 456.958 127.051 456.943 127.209H449.37C449.37 128.312 449.678 129.16 450.294 129.755C450.91 130.342 451.798 130.636 452.958 130.636C453.273 130.636 453.588 130.625 453.903 130.604C454.218 130.575 454.523 130.539 454.816 130.496C455.11 130.453 455.389 130.407 455.654 130.356C455.926 130.299 456.177 130.238 456.406 130.174V131.71C455.898 131.853 455.321 131.968 454.677 132.054C454.039 132.147 453.377 132.193 452.689 132.193C451.766 132.193 450.971 132.068 450.305 131.817C449.639 131.567 449.091 131.205 448.661 130.732C448.239 130.253 447.924 129.669 447.716 128.981C447.515 128.287 447.415 127.503 447.415 126.629C447.415 125.87 447.522 125.154 447.737 124.48C447.959 123.8 448.278 123.206 448.693 122.697C449.116 122.182 449.632 121.773 450.24 121.473C450.849 121.172 451.54 121.021 452.313 121.021C453.065 121.021 453.731 121.14 454.312 121.376C454.892 121.612 455.379 121.949 455.772 122.386C456.174 122.815 456.474 123.342 456.675 123.965C456.882 124.581 456.986 125.272 456.986 126.038ZM455.042 125.77C455.063 125.29 455.017 124.853 454.902 124.459C454.788 124.058 454.609 123.714 454.365 123.428C454.129 123.141 453.832 122.919 453.474 122.762C453.116 122.597 452.7 122.515 452.228 122.515C451.819 122.515 451.447 122.593 451.11 122.751C450.774 122.909 450.484 123.131 450.24 123.417C449.997 123.703 449.8 124.047 449.649 124.448C449.499 124.849 449.406 125.29 449.37 125.77H455.042Z" fill="#A5A5A5"/>
</g>
<defs>
<filter id="filter0_d_524_13" x="25.3859" y="21" width="604.523" height="165.177" filterUnits="userSpaceOnUse" color-interpolation-filters="sRGB">
<feFlood flood-opacity="0" result="BackgroundImageFix"/>
<feColorMatrix in="SourceAlpha" type="matrix" values="0 0 0 0 0 0 0 0 0 0 0 0 0 0 0 0 0 0 127 0" result="hardAlpha"/>
<feOffset dy="4"/>
<feGaussianBlur stdDeviation="2"/>
<feComposite in2="hardAlpha" operator="out"/>
<feColorMatrix type="matrix" values="0 0 0 0 0.00392157 0 0 0 0 0.0862745 0 0 0 0 0.152941 0 0 0 0.25 0"/>
<feBlend mode="normal" in2="BackgroundImageFix" result="effect1_dropShadow_524_13"/>
<feBlend mode="normal" in="SourceGraphic" in2="effect1_dropShadow_524_13" result="shape"/>
</filter>
</defs>
</svg>
