<svg width="652" height="197" viewBox="0 0 652 197" fill="none" xmlns="http://www.w3.org/2000/svg">
<rect width="652" height="197" fill="#F9FAFE"/>
<g filter="url(#filter0_d_524_8)">
<rect x="29.3859" y="21" width="596.523" height="157.176" fill="#011627"/>
<path d="M52.3926 59.3574H49.2021V57.8213H54.2832V71.4424H57.4951V73H48.8477V71.4424H52.3926V59.3574ZM69.9238 67.0381C69.9238 67.3031 69.9202 67.5251 69.9131 67.7041C69.9059 67.8831 69.8952 68.0514 69.8809 68.209H62.3076C62.3076 69.3118 62.6156 70.1605 63.2314 70.7549C63.8473 71.3421 64.7354 71.6357 65.8955 71.6357C66.2106 71.6357 66.5257 71.625 66.8408 71.6035C67.1559 71.5749 67.4603 71.5391 67.7539 71.4961C68.0475 71.4531 68.3268 71.4066 68.5918 71.3564C68.8639 71.2992 69.1146 71.2383 69.3438 71.1738V72.71C68.8353 72.8532 68.2588 72.9678 67.6143 73.0537C66.9769 73.1468 66.3145 73.1934 65.627 73.1934C64.7031 73.1934 63.9082 73.068 63.2422 72.8174C62.5762 72.5667 62.0283 72.2051 61.5986 71.7324C61.1761 71.2526 60.861 70.6689 60.6533 69.9814C60.4528 69.2868 60.3525 68.5026 60.3525 67.6289C60.3525 66.8698 60.46 66.1536 60.6748 65.4805C60.8968 64.8001 61.2155 64.2057 61.6309 63.6973C62.0534 63.1816 62.569 62.7734 63.1777 62.4727C63.7865 62.1719 64.4775 62.0215 65.251 62.0215C66.0029 62.0215 66.6689 62.1396 67.249 62.376C67.8291 62.6123 68.3161 62.9489 68.71 63.3857C69.111 63.8154 69.4118 64.3418 69.6123 64.9648C69.82 65.5807 69.9238 66.2718 69.9238 67.0381ZM67.9795 66.7695C68.001 66.2897 67.9544 65.8529 67.8398 65.459C67.7253 65.0579 67.5462 64.7142 67.3027 64.4277C67.0664 64.1413 66.7692 63.9193 66.4111 63.7617C66.0531 63.597 65.6377 63.5146 65.165 63.5146C64.7568 63.5146 64.3844 63.5934 64.0479 63.751C63.7113 63.9085 63.4212 64.1305 63.1777 64.417C62.9342 64.7035 62.7373 65.0472 62.5869 65.4482C62.4365 65.8493 62.3434 66.2897 62.3076 66.7695H67.9795ZM81.6006 72.8496C81.1781 72.957 80.7412 73.0322 80.29 73.0752C79.8389 73.1253 79.3805 73.1504 78.915 73.1504C77.5615 73.1504 76.5518 72.846 75.8857 72.2373C75.2197 71.6214 74.8867 70.6797 74.8867 69.4121V63.7832H71.8682V62.2148H74.8867V59.25L76.7559 58.7666V62.2148H81.6006V63.7832H76.7559V69.2617C76.7559 70.0352 76.96 70.6152 77.3682 71.002C77.7835 71.3815 78.3923 71.5713 79.1943 71.5713C79.5381 71.5713 79.9141 71.5462 80.3223 71.4961C80.7305 71.4388 81.1566 71.3529 81.6006 71.2383V72.8496ZM154.433 66.0605H145.194V64.4814H154.433V66.0605ZM154.433 69.7988H145.194V68.2197H154.433V69.7988ZM52.3926 85.3574H49.2021V83.8213H54.2832V97.4424H57.4951V99H48.8477V97.4424H52.3926V85.3574ZM69.9238 93.0381C69.9238 93.3031 69.9202 93.5251 69.9131 93.7041C69.9059 93.8831 69.8952 94.0514 69.8809 94.209H62.3076C62.3076 95.3118 62.6156 96.1605 63.2314 96.7549C63.8473 97.3421 64.7354 97.6357 65.8955 97.6357C66.2106 97.6357 66.5257 97.625 66.8408 97.6035C67.1559 97.5749 67.4603 97.5391 67.7539 97.4961C68.0475 97.4531 68.3268 97.4066 68.5918 97.3564C68.8639 97.2992 69.1146 97.2383 69.3438 97.1738V98.71C68.8353 98.8532 68.2588 98.9678 67.6143 99.0537C66.9769 99.1468 66.3145 99.1934 65.627 99.1934C64.7031 99.1934 63.9082 99.068 63.2422 98.8174C62.5762 98.5667 62.0283 98.2051 61.5986 97.7324C61.1761 97.2526 60.861 96.6689 60.6533 95.9814C60.4528 95.2868 60.3525 94.5026 60.3525 93.6289C60.3525 92.8698 60.46 92.1536 60.6748 91.4805C60.8968 90.8001 61.2155 90.2057 61.6309 89.6973C62.0534 89.1816 62.569 88.7734 63.1777 88.4727C63.7865 88.1719 64.4775 88.0215 65.251 88.0215C66.0029 88.0215 66.6689 88.1396 67.249 88.376C67.8291 88.6123 68.3161 88.9489 68.71 89.3857C69.111 89.8154 69.4118 90.3418 69.6123 90.9648C69.82 91.5807 69.9238 92.2718 69.9238 93.0381ZM67.9795 92.7695C68.001 92.2897 67.9544 91.8529 67.8398 91.459C67.7253 91.0579 67.5462 90.7142 67.3027 90.4277C67.0664 90.1413 66.7692 89.9193 66.4111 89.7617C66.0531 89.597 65.6377 89.5146 65.165 89.5146C64.7568 89.5146 64.3844 89.5934 64.0479 89.751C63.7113 89.9085 63.4212 90.1305 63.1777 90.417C62.9342 90.7035 62.7373 91.0472 62.5869 91.4482C62.4365 91.8493 62.3434 92.2897 62.3076 92.7695H67.9795ZM81.6006 98.8496C81.1781 98.957 80.7412 99.0322 80.29 99.0752C79.8389 99.1253 79.3805 99.1504 78.915 99.1504C77.5615 99.1504 76.5518 98.846 75.8857 98.2373C75.2197 97.6214 74.8867 96.6797 74.8867 95.4121V89.7832H71.8682V88.2148H74.8867V85.25L76.7559 84.7666V88.2148H81.6006V89.7832H76.7559V95.2617C76.7559 96.0352 76.96 96.6152 77.3682 97.002C77.7835 97.3815 78.3923 97.5713 79.1943 97.5713C79.5381 97.5713 79.9141 97.5462 80.3223 97.4961C80.7305 97.4388 81.1566 97.3529 81.6006 97.2383V98.8496ZM154.433 92.0605H145.194V90.4814H154.433V92.0605ZM154.433 95.7988H145.194V94.2197H154.433V95.7988Z" fill="#C792EA"/>
<path d="M97.1016 62.2148H98.7666L98.8418 63.9551C99.1569 63.5827 99.4613 63.2747 99.7549 63.0312C100.049 62.7806 100.335 62.5801 100.614 62.4297C100.901 62.2793 101.191 62.1755 101.484 62.1182C101.778 62.0537 102.082 62.0215 102.397 62.0215C103.507 62.0215 104.345 62.3509 104.911 63.0098C105.484 63.6615 105.771 64.6462 105.771 65.9639V73H103.901V66.1143C103.901 65.2692 103.744 64.6462 103.429 64.2451C103.114 63.8369 102.645 63.6328 102.021 63.6328C101.792 63.6328 101.567 63.6686 101.345 63.7402C101.13 63.8047 100.904 63.9229 100.668 64.0947C100.432 64.2594 100.174 64.485 99.8945 64.7715C99.6224 65.0579 99.3145 65.416 98.9707 65.8457V73H97.1016V62.2148ZM117.866 73H116.19L116.126 71.2598C115.804 71.6322 115.496 71.9437 115.202 72.1943C114.916 72.4378 114.629 72.6348 114.343 72.7852C114.056 72.9355 113.766 73.0394 113.473 73.0967C113.186 73.1611 112.882 73.1934 112.56 73.1934C111.45 73.1934 110.612 72.8675 110.046 72.2158C109.48 71.5641 109.197 70.5794 109.197 69.2617V62.2148H111.066V69.1113C111.066 70.7656 111.689 71.5928 112.936 71.5928C113.165 71.5928 113.387 71.5605 113.602 71.4961C113.824 71.4245 114.053 71.3063 114.289 71.1416C114.533 70.9697 114.79 70.7406 115.062 70.4541C115.342 70.1676 115.653 69.806 115.997 69.3691V62.2148H117.866V73ZM128.984 73V65.2549C128.984 64.9183 128.97 64.6426 128.941 64.4277C128.92 64.2129 128.881 64.0446 128.823 63.9229C128.773 63.7939 128.705 63.7044 128.619 63.6543C128.54 63.6042 128.44 63.5791 128.318 63.5791C128.175 63.5791 128.043 63.6221 127.921 63.708C127.799 63.7939 127.667 63.9336 127.523 64.127C127.387 64.3203 127.233 64.5781 127.062 64.9004C126.897 65.2155 126.7 65.6058 126.471 66.0713V73H124.763V65.459C124.763 65.0651 124.748 64.7464 124.72 64.5029C124.698 64.2594 124.659 64.0697 124.602 63.9336C124.551 63.7975 124.483 63.7044 124.397 63.6543C124.312 63.6042 124.208 63.5791 124.086 63.5791C123.957 63.5791 123.835 63.6149 123.721 63.6865C123.606 63.7581 123.477 63.887 123.334 64.0732C123.198 64.2594 123.044 64.5137 122.872 64.8359C122.7 65.1582 122.496 65.57 122.26 66.0713V73H120.541V62.2148H121.97L122.056 64.2666C122.242 63.8584 122.421 63.5111 122.593 63.2246C122.772 62.9382 122.954 62.709 123.141 62.5371C123.327 62.3581 123.524 62.2292 123.731 62.1504C123.946 62.0645 124.183 62.0215 124.44 62.0215C125.021 62.0215 125.461 62.2113 125.762 62.5908C126.062 62.9704 126.213 63.5576 126.213 64.3525C126.385 63.9801 126.553 63.6507 126.718 63.3643C126.882 63.0706 127.058 62.8271 127.244 62.6338C127.438 62.4333 127.649 62.2829 127.878 62.1826C128.107 62.0752 128.372 62.0215 128.673 62.0215C130.026 62.0215 130.703 63.0635 130.703 65.1475V73H128.984ZM97.1016 88.2148H98.7666L98.8418 89.9551C99.1569 89.5827 99.4613 89.2747 99.7549 89.0312C100.049 88.7806 100.335 88.5801 100.614 88.4297C100.901 88.2793 101.191 88.1755 101.484 88.1182C101.778 88.0537 102.082 88.0215 102.397 88.0215C103.507 88.0215 104.345 88.3509 104.911 89.0098C105.484 89.6615 105.771 90.6462 105.771 91.9639V99H103.901V92.1143C103.901 91.2692 103.744 90.6462 103.429 90.2451C103.114 89.8369 102.645 89.6328 102.021 89.6328C101.792 89.6328 101.567 89.6686 101.345 89.7402C101.13 89.8047 100.904 89.9229 100.668 90.0947C100.432 90.2594 100.174 90.485 99.8945 90.7715C99.6224 91.0579 99.3145 91.416 98.9707 91.8457V99H97.1016V88.2148ZM117.866 99H116.19L116.126 97.2598C115.804 97.6322 115.496 97.9437 115.202 98.1943C114.916 98.4378 114.629 98.6348 114.343 98.7852C114.056 98.9355 113.766 99.0394 113.473 99.0967C113.186 99.1611 112.882 99.1934 112.56 99.1934C111.45 99.1934 110.612 98.8675 110.046 98.2158C109.48 97.5641 109.197 96.5794 109.197 95.2617V88.2148H111.066V95.1113C111.066 96.7656 111.689 97.5928 112.936 97.5928C113.165 97.5928 113.387 97.5605 113.602 97.4961C113.824 97.4245 114.053 97.3063 114.289 97.1416C114.533 96.9697 114.79 96.7406 115.062 96.4541C115.342 96.1676 115.653 95.806 115.997 95.3691V88.2148H117.866V99ZM128.984 99V91.2549C128.984 90.9183 128.97 90.6426 128.941 90.4277C128.92 90.2129 128.881 90.0446 128.823 89.9229C128.773 89.7939 128.705 89.7044 128.619 89.6543C128.54 89.6042 128.44 89.5791 128.318 89.5791C128.175 89.5791 128.043 89.6221 127.921 89.708C127.799 89.7939 127.667 89.9336 127.523 90.127C127.387 90.3203 127.233 90.5781 127.062 90.9004C126.897 91.2155 126.7 91.6058 126.471 92.0713V99H124.763V91.459C124.763 91.0651 124.748 90.7464 124.72 90.5029C124.698 90.2594 124.659 90.0697 124.602 89.9336C124.551 89.7975 124.483 89.7044 124.397 89.6543C124.312 89.6042 124.208 89.5791 124.086 89.5791C123.957 89.5791 123.835 89.6149 123.721 89.6865C123.606 89.7581 123.477 89.887 123.334 90.0732C123.198 90.2594 123.044 90.5137 122.872 90.8359C122.7 91.1582 122.496 91.57 122.26 92.0713V99H120.541V88.2148H121.97L122.056 90.2666C122.242 89.8584 122.421 89.5111 122.593 89.2246C122.772 88.9382 122.954 88.709 123.141 88.5371C123.327 88.3581 123.524 88.2292 123.731 88.1504C123.946 88.0645 124.183 88.0215 124.44 88.0215C125.021 88.0215 125.461 88.2113 125.762 88.5908C126.062 88.9704 126.213 89.5576 126.213 90.3525C126.385 89.9801 126.553 89.6507 126.718 89.3643C126.882 89.0706 127.058 88.8271 127.244 88.6338C127.438 88.4333 127.649 88.2829 127.878 88.1826C128.107 88.0752 128.372 88.0215 128.673 88.0215C130.026 88.0215 130.703 89.0635 130.703 91.1475V99H128.984Z" fill="white"/>
<path d="M178.667 73H169.848V71.2598H173.457V61.0117L170.095 62.8379L169.407 61.248L173.876 58.8955H175.53V71.2598H178.667V73ZM191.203 65.9854C191.203 67.0596 191.096 68.0407 190.881 68.9287C190.666 69.8096 190.34 70.5687 189.903 71.2061C189.466 71.8363 188.922 72.3268 188.271 72.6777C187.626 73.0215 186.867 73.1934 185.993 73.1934C185.241 73.1934 184.557 73.0537 183.941 72.7744C183.326 72.488 182.799 72.0511 182.362 71.4639C181.925 70.8766 181.589 70.1283 181.353 69.2188C181.116 68.3092 180.998 67.2314 180.998 65.9854C180.998 64.9111 181.105 63.93 181.32 63.042C181.542 62.154 181.868 61.3949 182.298 60.7646C182.735 60.1273 183.279 59.6367 183.931 59.293C184.582 58.9421 185.341 58.7666 186.208 58.7666C186.96 58.7666 187.644 58.9098 188.26 59.1963C188.876 59.4756 189.402 59.9124 189.839 60.5068C190.276 61.0941 190.612 61.8424 190.849 62.752C191.085 63.6615 191.203 64.7393 191.203 65.9854ZM189.312 66.0498C189.312 65.8063 189.302 65.5664 189.28 65.3301C189.266 65.0866 189.248 64.8503 189.227 64.6211L183.286 69.0361C183.394 69.4085 183.53 69.7523 183.694 70.0674C183.859 70.3825 184.056 70.6546 184.285 70.8838C184.521 71.1058 184.786 71.2812 185.08 71.4102C185.381 71.5319 185.721 71.5928 186.101 71.5928C186.588 71.5928 187.028 71.4746 187.422 71.2383C187.823 71.002 188.163 70.651 188.442 70.1855C188.722 69.7201 188.937 69.1436 189.087 68.4561C189.237 67.7614 189.312 66.9593 189.312 66.0498ZM182.889 65.9209C182.889 66.1429 182.889 66.3649 182.889 66.5869C182.896 66.8089 182.91 67.0238 182.932 67.2314L188.872 62.8379C188.765 62.4727 188.629 62.1396 188.464 61.8389C188.299 61.5381 188.102 61.2803 187.873 61.0654C187.644 60.8434 187.382 60.6715 187.089 60.5498C186.795 60.4281 186.466 60.3672 186.101 60.3672C185.614 60.3672 185.17 60.4854 184.769 60.7217C184.375 60.958 184.038 61.3125 183.759 61.7852C183.479 62.2507 183.265 62.8307 183.114 63.5254C182.964 64.2129 182.889 65.0114 182.889 65.9209ZM173.812 85.0781C173.496 85.071 173.188 85.1032 172.888 85.1748C172.594 85.2393 172.329 85.3431 172.093 85.4863C171.864 85.6296 171.677 85.8086 171.534 86.0234C171.391 86.2383 171.319 86.4854 171.319 86.7646C171.319 87.0439 171.366 87.2695 171.459 87.4414C171.552 87.6133 171.656 87.7744 171.771 87.9248C171.885 88.0752 171.989 88.2363 172.082 88.4082C172.175 88.5729 172.222 88.7949 172.222 89.0742C172.222 89.2174 172.193 89.3678 172.136 89.5254C172.086 89.6758 172.003 89.8154 171.889 89.9443C171.781 90.0661 171.642 90.1699 171.47 90.2559C171.298 90.3346 171.094 90.374 170.857 90.374C170.621 90.374 170.396 90.3239 170.181 90.2236C169.966 90.1234 169.776 89.973 169.611 89.7725C169.447 89.5719 169.314 89.3213 169.214 89.0205C169.121 88.7197 169.074 88.3652 169.074 87.957C169.074 87.3984 169.174 86.8649 169.375 86.3564C169.583 85.8408 169.883 85.3861 170.277 84.9922C170.678 84.5983 171.173 84.2832 171.76 84.0469C172.354 83.8105 173.038 83.6924 173.812 83.6924V85.0781ZM179.44 85.0781C179.125 85.071 178.817 85.1032 178.517 85.1748C178.223 85.2393 177.958 85.3431 177.722 85.4863C177.493 85.6296 177.306 85.8086 177.163 86.0234C177.027 86.2383 176.959 86.4854 176.959 86.7646C176.959 87.0439 177.006 87.2695 177.099 87.4414C177.192 87.6133 177.296 87.7744 177.41 87.9248C177.525 88.0752 177.629 88.2363 177.722 88.4082C177.815 88.5729 177.861 88.7949 177.861 89.0742C177.861 89.2174 177.833 89.3678 177.775 89.5254C177.725 89.6758 177.643 89.8154 177.528 89.9443C177.421 90.0661 177.281 90.1699 177.109 90.2559C176.938 90.3346 176.733 90.374 176.497 90.374C176.261 90.374 176.035 90.3239 175.82 90.2236C175.605 90.1234 175.416 89.973 175.251 89.7725C175.086 89.5719 174.954 89.3213 174.854 89.0205C174.76 88.7197 174.714 88.3652 174.714 87.957C174.714 87.3984 174.814 86.8649 175.015 86.3564C175.215 85.8408 175.512 85.3861 175.906 84.9922C176.307 84.5983 176.801 84.2832 177.389 84.0469C177.983 83.8105 178.667 83.6924 179.44 83.6924V85.0781ZM203.062 99H201.15V92.5547H195.253V99H193.341V84.96H195.253V90.9004H201.15V84.96H203.062V99ZM215.072 93.0381C215.072 93.3031 215.069 93.5251 215.062 93.7041C215.054 93.8831 215.044 94.0514 215.029 94.209H207.456C207.456 95.3118 207.764 96.1605 208.38 96.7549C208.996 97.3421 209.884 97.6357 211.044 97.6357C211.359 97.6357 211.674 97.625 211.989 97.6035C212.304 97.5749 212.609 97.5391 212.902 97.4961C213.196 97.4531 213.475 97.4066 213.74 97.3564C214.012 97.2992 214.263 97.2383 214.492 97.1738V98.71C213.984 98.8532 213.407 98.9678 212.763 99.0537C212.125 99.1468 211.463 99.1934 210.775 99.1934C209.852 99.1934 209.057 99.068 208.391 98.8174C207.725 98.5667 207.177 98.2051 206.747 97.7324C206.325 97.2526 206.009 96.6689 205.802 95.9814C205.601 95.2868 205.501 94.5026 205.501 93.6289C205.501 92.8698 205.608 92.1536 205.823 91.4805C206.045 90.8001 206.364 90.2057 206.779 89.6973C207.202 89.1816 207.717 88.7734 208.326 88.4727C208.935 88.1719 209.626 88.0215 210.399 88.0215C211.151 88.0215 211.817 88.1396 212.397 88.376C212.978 88.6123 213.465 88.9489 213.858 89.3857C214.259 89.8154 214.56 90.3418 214.761 90.9648C214.968 91.5807 215.072 92.2718 215.072 93.0381ZM213.128 92.7695C213.149 92.2897 213.103 91.8529 212.988 91.459C212.874 91.0579 212.695 90.7142 212.451 90.4277C212.215 90.1413 211.918 89.9193 211.56 89.7617C211.201 89.597 210.786 89.5146 210.313 89.5146C209.905 89.5146 209.533 89.5934 209.196 89.751C208.86 89.9085 208.57 90.1305 208.326 90.417C208.083 90.7035 207.886 91.0472 207.735 91.4482C207.585 91.8493 207.492 92.2897 207.456 92.7695H213.128ZM221.732 85.3574H218.542V83.8213H223.623V97.4424H226.835V99H218.188V97.4424H221.732V85.3574ZM233.828 85.3574H230.638V83.8213H235.719V97.4424H238.931V99H230.283V97.4424H233.828V85.3574ZM251.639 93.5215C251.639 94.3594 251.521 95.1292 251.284 95.8311C251.048 96.5257 250.708 97.1237 250.264 97.625C249.82 98.1191 249.279 98.5059 248.642 98.7852C248.004 99.0573 247.281 99.1934 246.472 99.1934C245.698 99.1934 245.004 99.0752 244.388 98.8389C243.779 98.5954 243.26 98.2409 242.83 97.7754C242.408 97.3099 242.082 96.7334 241.853 96.0459C241.631 95.3584 241.52 94.5671 241.52 93.6719C241.52 92.834 241.638 92.0713 241.874 91.3838C242.11 90.6891 242.451 90.0947 242.895 89.6006C243.339 89.0993 243.879 88.7126 244.517 88.4404C245.154 88.1611 245.877 88.0215 246.687 88.0215C247.46 88.0215 248.151 88.1432 248.76 88.3867C249.376 88.623 249.895 88.974 250.317 89.4395C250.747 89.8978 251.073 90.4707 251.295 91.1582C251.524 91.8457 251.639 92.6335 251.639 93.5215ZM249.727 93.6074C249.727 92.9414 249.651 92.3613 249.501 91.8672C249.358 91.3659 249.15 90.9505 248.878 90.6211C248.606 90.2845 248.273 90.0339 247.879 89.8691C247.492 89.6973 247.059 89.6113 246.579 89.6113C246.021 89.6113 245.541 89.7223 245.14 89.9443C244.746 90.1592 244.42 90.4492 244.162 90.8145C243.911 91.1797 243.725 91.6058 243.604 92.0928C243.489 92.5726 243.432 93.0775 243.432 93.6074C243.432 94.2734 243.503 94.8571 243.646 95.3584C243.797 95.8597 244.008 96.2786 244.28 96.6152C244.552 96.9447 244.882 97.1953 245.269 97.3672C245.655 97.5319 246.092 97.6143 246.579 97.6143C247.138 97.6143 247.614 97.5068 248.008 97.292C248.409 97.07 248.735 96.7764 248.985 96.4111C249.243 96.0459 249.429 95.6234 249.544 95.1436C249.666 94.6566 249.727 94.1445 249.727 93.6074ZM270.975 88.9883C271.283 89.0026 271.587 88.974 271.888 88.9023C272.188 88.8307 272.453 88.7233 272.683 88.5801C272.912 88.4368 273.098 88.2578 273.241 88.043C273.384 87.821 273.456 87.5703 273.456 87.291C273.456 87.0117 273.41 86.7897 273.316 86.625C273.223 86.4531 273.119 86.292 273.005 86.1416C272.89 85.9912 272.786 85.8301 272.693 85.6582C272.6 85.4863 272.554 85.2607 272.554 84.9814C272.554 84.8382 272.579 84.6914 272.629 84.541C272.686 84.3906 272.769 84.2546 272.876 84.1328C272.991 84.0039 273.134 83.9001 273.306 83.8213C273.478 83.7354 273.682 83.6924 273.918 83.6924C274.154 83.6924 274.38 83.7425 274.595 83.8428C274.81 83.943 274.999 84.0934 275.164 84.2939C275.329 84.4873 275.458 84.738 275.551 85.0459C275.651 85.3467 275.701 85.7012 275.701 86.1094C275.701 86.668 275.597 87.2051 275.39 87.7207C275.189 88.2292 274.888 88.6803 274.487 89.0742C274.093 89.4681 273.603 89.7832 273.016 90.0195C272.428 90.2559 271.748 90.374 270.975 90.374V88.9883ZM265.335 88.9883C265.65 89.0026 265.954 88.974 266.248 88.9023C266.549 88.8307 266.814 88.7233 267.043 88.5801C267.279 88.4368 267.469 88.2578 267.612 88.043C267.756 87.821 267.827 87.5703 267.827 87.291C267.827 87.0117 267.781 86.7897 267.688 86.625C267.594 86.4531 267.491 86.292 267.376 86.1416C267.261 85.9912 267.158 85.8301 267.064 85.6582C266.971 85.4863 266.925 85.2607 266.925 84.9814C266.925 84.8382 266.95 84.6914 267 84.541C267.057 84.3906 267.14 84.2546 267.247 84.1328C267.362 84.0039 267.505 83.9001 267.677 83.8213C267.849 83.7354 268.053 83.6924 268.289 83.6924C268.525 83.6924 268.751 83.7425 268.966 83.8428C269.181 83.943 269.37 84.0934 269.535 84.2939C269.7 84.4873 269.829 84.738 269.922 85.0459C270.022 85.3467 270.072 85.7012 270.072 86.1094C270.072 86.668 269.968 87.2051 269.761 87.7207C269.56 88.2292 269.259 88.6803 268.858 89.0742C268.465 89.4681 267.97 89.7832 267.376 90.0195C266.789 90.2559 266.108 90.374 265.335 90.374V88.9883Z" fill="#F78C6C"/>
<path d="M57.3877 109.821L50.0186 127.31H48.2354L55.6045 109.821H57.3877ZM69.4834 109.821L62.1143 127.31H60.3311L67.7002 109.821H69.4834ZM93.9971 121.197C93.9971 121.863 93.861 122.447 93.5889 122.948C93.3167 123.45 92.9372 123.868 92.4502 124.205C91.9632 124.535 91.376 124.782 90.6885 124.946C90.0081 125.111 89.2562 125.193 88.4326 125.193C88.0602 125.193 87.6878 125.179 87.3154 125.15C86.9502 125.122 86.5957 125.086 86.252 125.043C85.9154 125 85.5967 124.95 85.2959 124.893C84.9951 124.835 84.723 124.774 84.4795 124.71V122.862C85.0166 123.063 85.6182 123.22 86.2842 123.335C86.9574 123.45 87.7201 123.507 88.5723 123.507C89.1882 123.507 89.7109 123.46 90.1406 123.367C90.5775 123.267 90.932 123.124 91.2041 122.938C91.4834 122.744 91.6839 122.511 91.8057 122.239C91.9346 121.967 91.999 121.656 91.999 121.305C91.999 120.925 91.8916 120.603 91.6768 120.338C91.4691 120.066 91.1934 119.826 90.8496 119.618C90.5059 119.403 90.112 119.21 89.668 119.038C89.2311 118.859 88.7835 118.676 88.3252 118.49C87.8669 118.304 87.4157 118.104 86.9717 117.889C86.5348 117.667 86.1445 117.409 85.8008 117.115C85.457 116.814 85.1777 116.464 84.9629 116.062C84.7552 115.661 84.6514 115.185 84.6514 114.634C84.6514 114.154 84.7516 113.681 84.9521 113.216C85.1527 112.75 85.4642 112.339 85.8867 111.98C86.3092 111.615 86.8499 111.322 87.5088 111.1C88.1748 110.878 88.9661 110.767 89.8828 110.767C90.1191 110.767 90.3734 110.777 90.6455 110.799C90.9248 110.82 91.2041 110.853 91.4834 110.896C91.7699 110.931 92.0492 110.974 92.3213 111.024C92.6006 111.075 92.8584 111.128 93.0947 111.186V112.904C92.5433 112.747 91.9919 112.629 91.4404 112.55C90.889 112.464 90.3555 112.421 89.8398 112.421C88.7441 112.421 87.9385 112.604 87.4229 112.969C86.9072 113.334 86.6494 113.825 86.6494 114.44C86.6494 114.82 86.7533 115.146 86.9609 115.418C87.1758 115.69 87.4551 115.934 87.7988 116.148C88.1426 116.363 88.5329 116.56 88.9697 116.739C89.4137 116.911 89.8649 117.09 90.3232 117.276C90.7816 117.463 91.2292 117.667 91.666 117.889C92.11 118.111 92.5039 118.376 92.8477 118.684C93.1914 118.984 93.4671 119.339 93.6748 119.747C93.8896 120.155 93.9971 120.639 93.9971 121.197ZM106.694 114.215L103.021 123.861C102.641 124.842 102.247 125.688 101.839 126.396C101.438 127.105 100.997 127.686 100.518 128.137C100.038 128.595 99.5114 128.932 98.9385 129.146C98.3656 129.361 97.7246 129.469 97.0156 129.469C96.8294 129.469 96.6611 129.465 96.5107 129.458C96.3604 129.451 96.1956 129.44 96.0166 129.426V127.729C96.1742 127.75 96.346 127.768 96.5322 127.782C96.7184 127.804 96.9154 127.814 97.123 127.814C97.4668 127.814 97.7855 127.764 98.0791 127.664C98.3799 127.564 98.6628 127.399 98.9277 127.17C99.1927 126.948 99.4469 126.658 99.6904 126.3C99.9339 125.942 100.17 125.508 100.399 125L96.0918 114.215H98.2188L100.947 121.348L101.495 123.023L102.118 121.305L104.643 114.215H106.694ZM109.197 114.215H110.862L110.938 115.955C111.253 115.583 111.557 115.275 111.851 115.031C112.144 114.781 112.431 114.58 112.71 114.43C112.996 114.279 113.286 114.175 113.58 114.118C113.874 114.054 114.178 114.021 114.493 114.021C115.603 114.021 116.441 114.351 117.007 115.01C117.58 115.661 117.866 116.646 117.866 117.964V125H115.997V118.114C115.997 117.269 115.84 116.646 115.524 116.245C115.209 115.837 114.74 115.633 114.117 115.633C113.888 115.633 113.662 115.669 113.44 115.74C113.226 115.805 113 115.923 112.764 116.095C112.527 116.259 112.27 116.485 111.99 116.771C111.718 117.058 111.41 117.416 111.066 117.846V125H109.197V114.215ZM129.983 124.85C129.561 124.957 129.124 125.032 128.673 125.075C128.222 125.125 127.763 125.15 127.298 125.15C125.944 125.15 124.935 124.846 124.269 124.237C123.603 123.621 123.27 122.68 123.27 121.412V115.783H120.251V114.215H123.27V111.25L125.139 110.767V114.215H129.983V115.783H125.139V121.262C125.139 122.035 125.343 122.615 125.751 123.002C126.166 123.382 126.775 123.571 127.577 123.571C127.921 123.571 128.297 123.546 128.705 123.496C129.113 123.439 129.539 123.353 129.983 123.238V124.85ZM140.317 125L140.274 123.55C139.687 124.13 139.089 124.549 138.48 124.807C137.879 125.064 137.245 125.193 136.579 125.193C135.963 125.193 135.437 125.115 135 124.957C134.563 124.799 134.201 124.585 133.915 124.312C133.636 124.033 133.428 123.707 133.292 123.335C133.163 122.963 133.099 122.558 133.099 122.121C133.099 121.04 133.5 120.195 134.302 119.586C135.111 118.97 136.303 118.662 137.879 118.662H140.113V117.717C140.113 117.079 139.909 116.571 139.501 116.191C139.093 115.805 138.47 115.611 137.632 115.611C137.023 115.611 136.422 115.679 135.827 115.815C135.24 115.951 134.631 116.145 134.001 116.396V114.709C134.237 114.623 134.499 114.541 134.785 114.462C135.079 114.376 135.387 114.301 135.709 114.236C136.031 114.172 136.368 114.122 136.719 114.086C137.07 114.043 137.424 114.021 137.782 114.021C138.434 114.021 139.021 114.093 139.544 114.236C140.067 114.38 140.507 114.598 140.865 114.892C141.23 115.185 141.51 115.554 141.703 115.998C141.896 116.442 141.993 116.965 141.993 117.566V125H140.317ZM140.113 120.091H137.739C137.274 120.091 136.873 120.137 136.536 120.23C136.2 120.324 135.924 120.456 135.709 120.628C135.494 120.8 135.333 121.007 135.226 121.251C135.125 121.487 135.075 121.756 135.075 122.057C135.075 122.264 135.107 122.465 135.172 122.658C135.236 122.844 135.34 123.013 135.483 123.163C135.627 123.306 135.813 123.421 136.042 123.507C136.271 123.593 136.55 123.636 136.88 123.636C137.31 123.636 137.8 123.507 138.352 123.249C138.91 122.984 139.497 122.569 140.113 122.003V120.091ZM155.206 125H152.725L149.813 120.886L146.935 125H144.518L148.696 119.586L144.711 114.215H147.106L149.942 118.361L152.725 114.215H155.034L150.984 119.629L155.206 125ZM178.098 125H170.116V110.96H178.098V112.571H172.028V116.922H177.861V118.533H172.028V123.367H178.098V125ZM182.212 114.215H183.92L183.974 116.202C184.611 115.436 185.238 114.881 185.854 114.537C186.477 114.193 187.103 114.021 187.733 114.021C188.851 114.021 189.696 114.383 190.269 115.106C190.849 115.83 191.117 116.904 191.074 118.329H189.184C189.205 117.384 189.065 116.7 188.765 116.277C188.471 115.848 188.038 115.633 187.465 115.633C187.214 115.633 186.96 115.679 186.702 115.772C186.451 115.858 186.19 116.002 185.918 116.202C185.653 116.396 185.37 116.646 185.069 116.954C184.769 117.262 184.446 117.634 184.103 118.071V125H182.212V114.215ZM194.308 114.215H196.016L196.069 116.202C196.707 115.436 197.333 114.881 197.949 114.537C198.572 114.193 199.199 114.021 199.829 114.021C200.946 114.021 201.791 114.383 202.364 115.106C202.944 115.83 203.213 116.904 203.17 118.329H201.279C201.301 117.384 201.161 116.7 200.86 116.277C200.567 115.848 200.133 115.633 199.561 115.633C199.31 115.633 199.056 115.679 198.798 115.772C198.547 115.858 198.286 116.002 198.014 116.202C197.749 116.396 197.466 116.646 197.165 116.954C196.864 117.262 196.542 117.634 196.198 118.071V125H194.308V114.215ZM215.352 119.521C215.352 120.359 215.233 121.129 214.997 121.831C214.761 122.526 214.421 123.124 213.977 123.625C213.533 124.119 212.992 124.506 212.354 124.785C211.717 125.057 210.994 125.193 210.185 125.193C209.411 125.193 208.716 125.075 208.101 124.839C207.492 124.595 206.973 124.241 206.543 123.775C206.12 123.31 205.795 122.733 205.565 122.046C205.343 121.358 205.232 120.567 205.232 119.672C205.232 118.834 205.351 118.071 205.587 117.384C205.823 116.689 206.163 116.095 206.607 115.601C207.051 115.099 207.592 114.713 208.229 114.44C208.867 114.161 209.59 114.021 210.399 114.021C211.173 114.021 211.864 114.143 212.473 114.387C213.089 114.623 213.608 114.974 214.03 115.439C214.46 115.898 214.786 116.471 215.008 117.158C215.237 117.846 215.352 118.633 215.352 119.521ZM213.439 119.607C213.439 118.941 213.364 118.361 213.214 117.867C213.071 117.366 212.863 116.951 212.591 116.621C212.319 116.285 211.986 116.034 211.592 115.869C211.205 115.697 210.772 115.611 210.292 115.611C209.733 115.611 209.254 115.722 208.853 115.944C208.459 116.159 208.133 116.449 207.875 116.814C207.624 117.18 207.438 117.606 207.316 118.093C207.202 118.573 207.145 119.077 207.145 119.607C207.145 120.273 207.216 120.857 207.359 121.358C207.51 121.86 207.721 122.279 207.993 122.615C208.265 122.945 208.595 123.195 208.981 123.367C209.368 123.532 209.805 123.614 210.292 123.614C210.851 123.614 211.327 123.507 211.721 123.292C212.122 123.07 212.448 122.776 212.698 122.411C212.956 122.046 213.142 121.623 213.257 121.144C213.379 120.657 213.439 120.145 213.439 119.607ZM218.499 114.215H220.207L220.261 116.202C220.898 115.436 221.525 114.881 222.141 114.537C222.764 114.193 223.39 114.021 224.021 114.021C225.138 114.021 225.983 114.383 226.556 115.106C227.136 115.83 227.404 116.904 227.361 118.329H225.471C225.492 117.384 225.353 116.7 225.052 116.277C224.758 115.848 224.325 115.633 223.752 115.633C223.501 115.633 223.247 115.679 222.989 115.772C222.739 115.858 222.477 116.002 222.205 116.202C221.94 116.396 221.657 116.646 221.356 116.954C221.056 117.262 220.733 117.634 220.39 118.071V125H218.499V114.215ZM246.579 114.021C246.801 114.021 247.012 114.068 247.213 114.161C247.413 114.247 247.589 114.365 247.739 114.516C247.89 114.666 248.008 114.841 248.094 115.042C248.187 115.243 248.233 115.454 248.233 115.676C248.233 115.905 248.187 116.12 248.094 116.32C248.008 116.514 247.89 116.686 247.739 116.836C247.589 116.986 247.413 117.104 247.213 117.19C247.012 117.276 246.801 117.319 246.579 117.319C246.35 117.319 246.135 117.276 245.935 117.19C245.741 117.104 245.569 116.986 245.419 116.836C245.269 116.686 245.15 116.514 245.064 116.32C244.979 116.12 244.936 115.905 244.936 115.676C244.936 115.454 244.979 115.243 245.064 115.042C245.15 114.841 245.269 114.666 245.419 114.516C245.569 114.365 245.741 114.247 245.935 114.161C246.135 114.068 246.35 114.021 246.579 114.021ZM246.579 121.896C246.801 121.896 247.012 121.942 247.213 122.035C247.413 122.121 247.589 122.239 247.739 122.39C247.89 122.54 248.008 122.715 248.094 122.916C248.187 123.117 248.233 123.328 248.233 123.55C248.233 123.779 248.187 123.994 248.094 124.194C248.008 124.388 247.89 124.56 247.739 124.71C247.589 124.86 247.413 124.979 247.213 125.064C247.012 125.15 246.801 125.193 246.579 125.193C246.35 125.193 246.135 125.15 245.935 125.064C245.741 124.979 245.569 124.86 245.419 124.71C245.269 124.56 245.15 124.388 245.064 124.194C244.979 123.994 244.936 123.779 244.936 123.55C244.936 123.328 244.979 123.117 245.064 122.916C245.15 122.715 245.269 122.54 245.419 122.39C245.569 122.239 245.741 122.121 245.935 122.035C246.135 121.942 246.35 121.896 246.579 121.896ZM266.441 114.215H268.106L268.182 115.955C268.497 115.583 268.801 115.275 269.095 115.031C269.388 114.781 269.675 114.58 269.954 114.43C270.241 114.279 270.531 114.175 270.824 114.118C271.118 114.054 271.422 114.021 271.737 114.021C272.847 114.021 273.685 114.351 274.251 115.01C274.824 115.661 275.11 116.646 275.11 117.964V125H273.241V118.114C273.241 117.269 273.084 116.646 272.769 116.245C272.453 115.837 271.984 115.633 271.361 115.633C271.132 115.633 270.907 115.669 270.685 115.74C270.47 115.805 270.244 115.923 270.008 116.095C269.771 116.259 269.514 116.485 269.234 116.771C268.962 117.058 268.654 117.416 268.311 117.846V125H266.441V114.215ZM287.206 125H285.53L285.466 123.26C285.144 123.632 284.836 123.944 284.542 124.194C284.256 124.438 283.969 124.635 283.683 124.785C283.396 124.936 283.106 125.039 282.812 125.097C282.526 125.161 282.222 125.193 281.899 125.193C280.789 125.193 279.951 124.868 279.386 124.216C278.82 123.564 278.537 122.579 278.537 121.262V114.215H280.406V121.111C280.406 122.766 281.029 123.593 282.275 123.593C282.505 123.593 282.727 123.561 282.941 123.496C283.163 123.424 283.393 123.306 283.629 123.142C283.872 122.97 284.13 122.741 284.402 122.454C284.682 122.168 284.993 121.806 285.337 121.369V114.215H287.206V125ZM298.324 125V117.255C298.324 116.918 298.31 116.643 298.281 116.428C298.26 116.213 298.22 116.045 298.163 115.923C298.113 115.794 298.045 115.704 297.959 115.654C297.88 115.604 297.78 115.579 297.658 115.579C297.515 115.579 297.382 115.622 297.261 115.708C297.139 115.794 297.007 115.934 296.863 116.127C296.727 116.32 296.573 116.578 296.401 116.9C296.237 117.215 296.04 117.606 295.811 118.071V125H294.103V117.459C294.103 117.065 294.088 116.746 294.06 116.503C294.038 116.259 293.999 116.07 293.941 115.934C293.891 115.798 293.823 115.704 293.737 115.654C293.651 115.604 293.548 115.579 293.426 115.579C293.297 115.579 293.175 115.615 293.061 115.687C292.946 115.758 292.817 115.887 292.674 116.073C292.538 116.259 292.384 116.514 292.212 116.836C292.04 117.158 291.836 117.57 291.6 118.071V125H289.881V114.215H291.31L291.396 116.267C291.582 115.858 291.761 115.511 291.933 115.225C292.112 114.938 292.294 114.709 292.48 114.537C292.667 114.358 292.864 114.229 293.071 114.15C293.286 114.064 293.522 114.021 293.78 114.021C294.36 114.021 294.801 114.211 295.102 114.591C295.402 114.97 295.553 115.558 295.553 116.353C295.725 115.98 295.893 115.651 296.058 115.364C296.222 115.071 296.398 114.827 296.584 114.634C296.777 114.433 296.989 114.283 297.218 114.183C297.447 114.075 297.712 114.021 298.013 114.021C299.366 114.021 300.043 115.063 300.043 117.147V125H298.324ZM323.493 125H321.624V118.114C321.624 117.284 321.466 116.664 321.151 116.256C320.843 115.84 320.399 115.633 319.819 115.633C319.569 115.633 319.332 115.669 319.11 115.74C318.896 115.805 318.67 115.923 318.434 116.095C318.197 116.259 317.939 116.485 317.66 116.771C317.381 117.058 317.059 117.416 316.693 117.846V125H314.824V109.821H316.693V114.215L316.629 115.912C316.923 115.561 317.209 115.268 317.488 115.031C317.775 114.788 318.058 114.591 318.337 114.44C318.623 114.29 318.913 114.183 319.207 114.118C319.501 114.054 319.805 114.021 320.12 114.021C321.194 114.021 322.025 114.351 322.612 115.01C323.2 115.661 323.493 116.646 323.493 117.964V125ZM333.849 125L333.806 123.55C333.218 124.13 332.62 124.549 332.012 124.807C331.41 125.064 330.776 125.193 330.11 125.193C329.494 125.193 328.968 125.115 328.531 124.957C328.094 124.799 327.733 124.585 327.446 124.312C327.167 124.033 326.959 123.707 326.823 123.335C326.694 122.963 326.63 122.558 326.63 122.121C326.63 121.04 327.031 120.195 327.833 119.586C328.642 118.97 329.835 118.662 331.41 118.662H333.645V117.717C333.645 117.079 333.44 116.571 333.032 116.191C332.624 115.805 332.001 115.611 331.163 115.611C330.554 115.611 329.953 115.679 329.358 115.815C328.771 115.951 328.162 116.145 327.532 116.396V114.709C327.769 114.623 328.03 114.541 328.316 114.462C328.61 114.376 328.918 114.301 329.24 114.236C329.562 114.172 329.899 114.122 330.25 114.086C330.601 114.043 330.955 114.021 331.313 114.021C331.965 114.021 332.552 114.093 333.075 114.236C333.598 114.38 334.038 114.598 334.396 114.892C334.762 115.185 335.041 115.554 335.234 115.998C335.428 116.442 335.524 116.965 335.524 117.566V125H333.849ZM333.645 120.091H331.271C330.805 120.091 330.404 120.137 330.067 120.23C329.731 120.324 329.455 120.456 329.24 120.628C329.025 120.8 328.864 121.007 328.757 121.251C328.657 121.487 328.606 121.756 328.606 122.057C328.606 122.264 328.639 122.465 328.703 122.658C328.768 122.844 328.871 123.013 329.015 123.163C329.158 123.306 329.344 123.421 329.573 123.507C329.802 123.593 330.082 123.636 330.411 123.636C330.841 123.636 331.331 123.507 331.883 123.249C332.441 122.984 333.029 122.569 333.645 122.003V120.091ZM347.556 122.057C347.556 122.436 347.491 122.776 347.362 123.077C347.233 123.378 347.058 123.646 346.836 123.883C346.614 124.112 346.356 124.309 346.062 124.474C345.769 124.638 345.454 124.774 345.117 124.882C344.788 124.989 344.448 125.068 344.097 125.118C343.746 125.168 343.402 125.193 343.065 125.193C342.335 125.193 341.662 125.161 341.046 125.097C340.437 125.032 339.839 124.928 339.252 124.785V123.066C339.882 123.245 340.509 123.382 341.132 123.475C341.755 123.568 342.374 123.614 342.99 123.614C343.885 123.614 344.548 123.493 344.978 123.249C345.407 123.006 345.622 122.658 345.622 122.207C345.622 122.014 345.586 121.842 345.515 121.691C345.45 121.534 345.328 121.387 345.149 121.251C344.97 121.108 344.691 120.961 344.312 120.811C343.939 120.66 343.427 120.488 342.775 120.295C342.288 120.152 341.837 119.991 341.422 119.812C341.014 119.625 340.659 119.407 340.358 119.156C340.058 118.906 339.821 118.612 339.649 118.275C339.478 117.939 339.392 117.541 339.392 117.083C339.392 116.782 339.46 116.453 339.596 116.095C339.739 115.737 339.979 115.404 340.315 115.096C340.652 114.788 341.107 114.534 341.68 114.333C342.253 114.125 342.969 114.021 343.828 114.021C344.251 114.021 344.72 114.047 345.235 114.097C345.751 114.14 346.288 114.218 346.847 114.333V115.998C346.259 115.855 345.701 115.751 345.171 115.687C344.648 115.615 344.193 115.579 343.807 115.579C343.341 115.579 342.947 115.615 342.625 115.687C342.31 115.758 342.052 115.858 341.852 115.987C341.658 116.109 341.519 116.256 341.433 116.428C341.347 116.592 341.304 116.771 341.304 116.965C341.304 117.158 341.34 117.334 341.411 117.491C341.49 117.649 341.63 117.803 341.83 117.953C342.038 118.096 342.324 118.243 342.689 118.394C343.055 118.537 343.531 118.694 344.118 118.866C344.756 119.052 345.293 119.249 345.729 119.457C346.166 119.658 346.521 119.883 346.793 120.134C347.065 120.384 347.258 120.667 347.373 120.982C347.495 121.298 347.556 121.656 347.556 122.057ZM370.136 125L370.093 123.55C369.506 124.13 368.908 124.549 368.299 124.807C367.697 125.064 367.063 125.193 366.397 125.193C365.782 125.193 365.255 125.115 364.818 124.957C364.382 124.799 364.02 124.585 363.733 124.312C363.454 124.033 363.246 123.707 363.11 123.335C362.981 122.963 362.917 122.558 362.917 122.121C362.917 121.04 363.318 120.195 364.12 119.586C364.929 118.97 366.122 118.662 367.697 118.662H369.932V117.717C369.932 117.079 369.728 116.571 369.319 116.191C368.911 115.805 368.288 115.611 367.45 115.611C366.841 115.611 366.24 115.679 365.646 115.815C365.058 115.951 364.45 116.145 363.819 116.396V114.709C364.056 114.623 364.317 114.541 364.604 114.462C364.897 114.376 365.205 114.301 365.527 114.236C365.85 114.172 366.186 114.122 366.537 114.086C366.888 114.043 367.243 114.021 367.601 114.021C368.252 114.021 368.84 114.093 369.362 114.236C369.885 114.38 370.326 114.598 370.684 114.892C371.049 115.185 371.328 115.554 371.521 115.998C371.715 116.442 371.812 116.965 371.812 117.566V125H370.136ZM369.932 120.091H367.558C367.092 120.091 366.691 120.137 366.354 120.23C366.018 120.324 365.742 120.456 365.527 120.628C365.312 120.8 365.151 121.007 365.044 121.251C364.944 121.487 364.894 121.756 364.894 122.057C364.894 122.264 364.926 122.465 364.99 122.658C365.055 122.844 365.159 123.013 365.302 123.163C365.445 123.306 365.631 123.421 365.86 123.507C366.09 123.593 366.369 123.636 366.698 123.636C367.128 123.636 367.618 123.507 368.17 123.249C368.729 122.984 369.316 122.569 369.932 122.003V120.091ZM378.977 111.357H375.786V109.821H380.867V123.442H384.079V125H375.432V123.442H378.977V111.357ZM387.839 114.215H389.547L389.601 116.202C390.238 115.436 390.865 114.881 391.48 114.537C392.104 114.193 392.73 114.021 393.36 114.021C394.478 114.021 395.323 114.383 395.896 115.106C396.476 115.83 396.744 116.904 396.701 118.329H394.811C394.832 117.384 394.692 116.7 394.392 116.277C394.098 115.848 393.665 115.633 393.092 115.633C392.841 115.633 392.587 115.679 392.329 115.772C392.078 115.858 391.817 116.002 391.545 116.202C391.28 116.396 390.997 116.646 390.696 116.954C390.396 117.262 390.073 117.634 389.729 118.071V125H387.839V114.215ZM408.604 119.038C408.604 119.303 408.6 119.525 408.593 119.704C408.586 119.883 408.575 120.051 408.561 120.209H400.987C400.987 121.312 401.295 122.16 401.911 122.755C402.527 123.342 403.415 123.636 404.575 123.636C404.89 123.636 405.205 123.625 405.521 123.604C405.836 123.575 406.14 123.539 406.434 123.496C406.727 123.453 407.007 123.407 407.271 123.356C407.544 123.299 407.794 123.238 408.023 123.174V124.71C407.515 124.853 406.938 124.968 406.294 125.054C405.657 125.147 404.994 125.193 404.307 125.193C403.383 125.193 402.588 125.068 401.922 124.817C401.256 124.567 400.708 124.205 400.278 123.732C399.856 123.253 399.541 122.669 399.333 121.981C399.132 121.287 399.032 120.503 399.032 119.629C399.032 118.87 399.14 118.154 399.354 117.48C399.576 116.8 399.895 116.206 400.311 115.697C400.733 115.182 401.249 114.773 401.857 114.473C402.466 114.172 403.157 114.021 403.931 114.021C404.683 114.021 405.349 114.14 405.929 114.376C406.509 114.612 406.996 114.949 407.39 115.386C407.791 115.815 408.091 116.342 408.292 116.965C408.5 117.581 408.604 118.272 408.604 119.038ZM406.659 118.77C406.681 118.29 406.634 117.853 406.52 117.459C406.405 117.058 406.226 116.714 405.982 116.428C405.746 116.141 405.449 115.919 405.091 115.762C404.733 115.597 404.317 115.515 403.845 115.515C403.437 115.515 403.064 115.593 402.728 115.751C402.391 115.909 402.101 116.131 401.857 116.417C401.614 116.703 401.417 117.047 401.267 117.448C401.116 117.849 401.023 118.29 400.987 118.77H406.659ZM418.519 125L418.476 123.55C417.888 124.13 417.29 124.549 416.682 124.807C416.08 125.064 415.446 125.193 414.78 125.193C414.164 125.193 413.638 125.115 413.201 124.957C412.764 124.799 412.403 124.585 412.116 124.312C411.837 124.033 411.629 123.707 411.493 123.335C411.364 122.963 411.3 122.558 411.3 122.121C411.3 121.04 411.701 120.195 412.503 119.586C413.312 118.97 414.505 118.662 416.08 118.662H418.314V117.717C418.314 117.079 418.11 116.571 417.702 116.191C417.294 115.805 416.671 115.611 415.833 115.611C415.224 115.611 414.623 115.679 414.028 115.815C413.441 115.951 412.832 116.145 412.202 116.396V114.709C412.438 114.623 412.7 114.541 412.986 114.462C413.28 114.376 413.588 114.301 413.91 114.236C414.232 114.172 414.569 114.122 414.92 114.086C415.271 114.043 415.625 114.021 415.983 114.021C416.635 114.021 417.222 114.093 417.745 114.236C418.268 114.38 418.708 114.598 419.066 114.892C419.432 115.185 419.711 115.554 419.904 115.998C420.098 116.442 420.194 116.965 420.194 117.566V125H418.519ZM418.314 120.091H415.94C415.475 120.091 415.074 120.137 414.737 120.23C414.401 120.324 414.125 120.456 413.91 120.628C413.695 120.8 413.534 121.007 413.427 121.251C413.326 121.487 413.276 121.756 413.276 122.057C413.276 122.264 413.309 122.465 413.373 122.658C413.438 122.844 413.541 123.013 413.685 123.163C413.828 123.306 414.014 123.421 414.243 123.507C414.472 123.593 414.752 123.636 415.081 123.636C415.511 123.636 416.001 123.507 416.553 123.249C417.111 122.984 417.699 122.569 418.314 122.003V120.091ZM423.138 119.833C423.138 118.916 423.263 118.104 423.514 117.395C423.764 116.678 424.119 116.077 424.577 115.59C425.043 115.096 425.598 114.723 426.242 114.473C426.894 114.215 427.617 114.086 428.412 114.086C428.756 114.086 429.092 114.107 429.422 114.15C429.758 114.193 430.088 114.261 430.41 114.354V109.821H432.29V125H430.614L430.55 122.959C430.027 123.718 429.461 124.28 428.853 124.646C428.244 125.011 427.585 125.193 426.876 125.193C426.26 125.193 425.716 125.064 425.243 124.807C424.778 124.549 424.387 124.187 424.072 123.722C423.764 123.249 423.532 122.683 423.374 122.024C423.216 121.366 423.138 120.635 423.138 119.833ZM425.05 119.715C425.05 121.018 425.24 121.992 425.619 122.637C426.006 123.274 426.55 123.593 427.252 123.593C427.725 123.593 428.222 123.382 428.745 122.959C429.275 122.536 429.83 121.91 430.41 121.079V116.073C430.102 115.93 429.762 115.823 429.39 115.751C429.017 115.672 428.648 115.633 428.283 115.633C427.266 115.633 426.471 115.962 425.898 116.621C425.333 117.28 425.05 118.311 425.05 119.715ZM445.374 114.215L441.7 123.861C441.321 124.842 440.927 125.688 440.519 126.396C440.118 127.105 439.677 127.686 439.197 128.137C438.717 128.595 438.191 128.932 437.618 129.146C437.045 129.361 436.404 129.469 435.695 129.469C435.509 129.469 435.341 129.465 435.19 129.458C435.04 129.451 434.875 129.44 434.696 129.426V127.729C434.854 127.75 435.026 127.768 435.212 127.782C435.398 127.804 435.595 127.814 435.803 127.814C436.146 127.814 436.465 127.764 436.759 127.664C437.06 127.564 437.342 127.399 437.607 127.17C437.872 126.948 438.127 126.658 438.37 126.3C438.614 125.942 438.85 125.508 439.079 125L434.771 114.215H436.898L439.627 121.348L440.175 123.023L440.798 121.305L443.322 114.215H445.374ZM469.189 119.414C469.189 120.309 469.064 121.111 468.813 121.82C468.57 122.522 468.219 123.12 467.761 123.614C467.31 124.101 466.758 124.477 466.106 124.742C465.455 125 464.721 125.129 463.904 125.129C463.267 125.129 462.615 125.068 461.949 124.946C461.283 124.825 460.624 124.631 459.973 124.366V109.821H461.842V114L461.756 115.998C462.293 115.275 462.866 114.766 463.475 114.473C464.09 114.172 464.749 114.021 465.451 114.021C466.067 114.021 466.608 114.15 467.073 114.408C467.539 114.666 467.929 115.031 468.244 115.504C468.559 115.969 468.796 116.535 468.953 117.201C469.111 117.86 469.189 118.598 469.189 119.414ZM467.277 119.5C467.277 118.934 467.234 118.415 467.148 117.942C467.07 117.47 466.941 117.065 466.762 116.729C466.583 116.392 466.354 116.131 466.074 115.944C465.795 115.751 465.462 115.654 465.075 115.654C464.839 115.654 464.599 115.694 464.355 115.772C464.112 115.844 463.858 115.969 463.593 116.148C463.335 116.32 463.059 116.553 462.766 116.847C462.479 117.133 462.171 117.491 461.842 117.921V123.152C462.207 123.296 462.579 123.41 462.959 123.496C463.339 123.575 463.7 123.614 464.044 123.614C464.474 123.614 464.882 123.546 465.269 123.41C465.662 123.274 466.006 123.049 466.3 122.733C466.601 122.411 466.837 121.989 467.009 121.466C467.188 120.936 467.277 120.281 467.277 119.5ZM481.178 119.038C481.178 119.303 481.174 119.525 481.167 119.704C481.16 119.883 481.149 120.051 481.135 120.209H473.562C473.562 121.312 473.869 122.16 474.485 122.755C475.101 123.342 475.989 123.636 477.149 123.636C477.465 123.636 477.78 123.625 478.095 123.604C478.41 123.575 478.714 123.539 479.008 123.496C479.301 123.453 479.581 123.407 479.846 123.356C480.118 123.299 480.368 123.238 480.598 123.174V124.71C480.089 124.853 479.513 124.968 478.868 125.054C478.231 125.147 477.568 125.193 476.881 125.193C475.957 125.193 475.162 125.068 474.496 124.817C473.83 124.567 473.282 124.205 472.853 123.732C472.43 123.253 472.115 122.669 471.907 121.981C471.707 121.287 471.606 120.503 471.606 119.629C471.606 118.87 471.714 118.154 471.929 117.48C472.151 116.8 472.469 116.206 472.885 115.697C473.307 115.182 473.823 114.773 474.432 114.473C475.04 114.172 475.731 114.021 476.505 114.021C477.257 114.021 477.923 114.14 478.503 114.376C479.083 114.612 479.57 114.949 479.964 115.386C480.365 115.815 480.666 116.342 480.866 116.965C481.074 117.581 481.178 118.272 481.178 119.038ZM479.233 118.77C479.255 118.29 479.208 117.853 479.094 117.459C478.979 117.058 478.8 116.714 478.557 116.428C478.32 116.141 478.023 115.919 477.665 115.762C477.307 115.597 476.892 115.515 476.419 115.515C476.011 115.515 475.638 115.593 475.302 115.751C474.965 115.909 474.675 116.131 474.432 116.417C474.188 116.703 473.991 117.047 473.841 117.448C473.69 117.849 473.597 118.29 473.562 118.77H479.233ZM493.273 119.038C493.273 119.303 493.27 119.525 493.263 119.704C493.256 119.883 493.245 120.051 493.23 120.209H485.657C485.657 121.312 485.965 122.16 486.581 122.755C487.197 123.342 488.085 123.636 489.245 123.636C489.56 123.636 489.875 123.625 490.19 123.604C490.506 123.575 490.81 123.539 491.104 123.496C491.397 123.453 491.676 123.407 491.941 123.356C492.214 123.299 492.464 123.238 492.693 123.174V124.71C492.185 124.853 491.608 124.968 490.964 125.054C490.326 125.147 489.664 125.193 488.977 125.193C488.053 125.193 487.258 125.068 486.592 124.817C485.926 124.567 485.378 124.205 484.948 123.732C484.526 123.253 484.211 122.669 484.003 121.981C483.802 121.287 483.702 120.503 483.702 119.629C483.702 118.87 483.81 118.154 484.024 117.48C484.246 116.8 484.565 116.206 484.98 115.697C485.403 115.182 485.919 114.773 486.527 114.473C487.136 114.172 487.827 114.021 488.601 114.021C489.353 114.021 490.019 114.14 490.599 114.376C491.179 114.612 491.666 114.949 492.06 115.386C492.461 115.815 492.761 116.342 492.962 116.965C493.17 117.581 493.273 118.272 493.273 119.038ZM491.329 118.77C491.351 118.29 491.304 117.853 491.189 117.459C491.075 117.058 490.896 116.714 490.652 116.428C490.416 116.141 490.119 115.919 489.761 115.762C489.403 115.597 488.987 115.515 488.515 115.515C488.106 115.515 487.734 115.593 487.397 115.751C487.061 115.909 486.771 116.131 486.527 116.417C486.284 116.703 486.087 117.047 485.937 117.448C485.786 117.849 485.693 118.29 485.657 118.77H491.329ZM496.26 114.215H497.925L498 115.955C498.315 115.583 498.619 115.275 498.913 115.031C499.207 114.781 499.493 114.58 499.772 114.43C500.059 114.279 500.349 114.175 500.643 114.118C500.936 114.054 501.241 114.021 501.556 114.021C502.666 114.021 503.504 114.351 504.069 115.01C504.642 115.661 504.929 116.646 504.929 117.964V125H503.06V118.114C503.06 117.269 502.902 116.646 502.587 116.245C502.272 115.837 501.803 115.633 501.18 115.633C500.951 115.633 500.725 115.669 500.503 115.74C500.288 115.805 500.062 115.923 499.826 116.095C499.59 116.259 499.332 116.485 499.053 116.771C498.781 117.058 498.473 117.416 498.129 117.846V125H496.26V114.215ZM519.903 119.833C519.903 118.916 520.029 118.104 520.279 117.395C520.53 116.678 520.884 116.077 521.343 115.59C521.808 115.096 522.363 114.723 523.008 114.473C523.66 114.215 524.383 114.086 525.178 114.086C525.521 114.086 525.858 114.107 526.188 114.15C526.524 114.193 526.854 114.261 527.176 114.354V109.821H529.056V125H527.38L527.315 122.959C526.793 123.718 526.227 124.28 525.618 124.646C525.009 125.011 524.351 125.193 523.642 125.193C523.026 125.193 522.481 125.064 522.009 124.807C521.543 124.549 521.153 124.187 520.838 123.722C520.53 123.249 520.297 122.683 520.14 122.024C519.982 121.366 519.903 120.635 519.903 119.833ZM521.815 119.715C521.815 121.018 522.005 121.992 522.385 122.637C522.771 123.274 523.316 123.593 524.018 123.593C524.49 123.593 524.988 123.382 525.511 122.959C526.041 122.536 526.596 121.91 527.176 121.079V116.073C526.868 115.93 526.528 115.823 526.155 115.751C525.783 115.672 525.414 115.633 525.049 115.633C524.032 115.633 523.237 115.962 522.664 116.621C522.098 117.28 521.815 118.311 521.815 119.715ZM541.656 119.038C541.656 119.303 541.653 119.525 541.646 119.704C541.638 119.883 541.628 120.051 541.613 120.209H534.04C534.04 121.312 534.348 122.16 534.964 122.755C535.58 123.342 536.468 123.636 537.628 123.636C537.943 123.636 538.258 123.625 538.573 123.604C538.888 123.575 539.193 123.539 539.486 123.496C539.78 123.453 540.059 123.407 540.324 123.356C540.596 123.299 540.847 123.238 541.076 123.174V124.71C540.568 124.853 539.991 124.968 539.347 125.054C538.709 125.147 538.047 125.193 537.359 125.193C536.436 125.193 535.641 125.068 534.975 124.817C534.309 124.567 533.761 124.205 533.331 123.732C532.909 123.253 532.593 122.669 532.386 121.981C532.185 121.287 532.085 120.503 532.085 119.629C532.085 118.87 532.192 118.154 532.407 117.48C532.629 116.8 532.948 116.206 533.363 115.697C533.786 115.182 534.301 114.773 534.91 114.473C535.519 114.172 536.21 114.021 536.983 114.021C537.735 114.021 538.401 114.14 538.981 114.376C539.562 114.612 540.049 114.949 540.442 115.386C540.843 115.815 541.144 116.342 541.345 116.965C541.552 117.581 541.656 118.272 541.656 119.038ZM539.712 118.77C539.733 118.29 539.687 117.853 539.572 117.459C539.458 117.058 539.279 116.714 539.035 116.428C538.799 116.141 538.502 115.919 538.144 115.762C537.785 115.597 537.37 115.515 536.897 115.515C536.489 115.515 536.117 115.593 535.78 115.751C535.444 115.909 535.154 116.131 534.91 116.417C534.667 116.703 534.47 117.047 534.319 117.448C534.169 117.849 534.076 118.29 534.04 118.77H539.712ZM553.021 124.603C552.535 124.789 552.033 124.925 551.518 125.011C551.009 125.104 550.483 125.15 549.938 125.15C548.234 125.15 546.92 124.688 545.996 123.765C545.079 122.841 544.621 121.491 544.621 119.715C544.621 118.863 544.754 118.089 545.019 117.395C545.284 116.7 545.656 116.105 546.136 115.611C546.616 115.117 547.188 114.738 547.854 114.473C548.521 114.201 549.255 114.064 550.057 114.064C550.615 114.064 551.138 114.104 551.625 114.183C552.112 114.261 552.577 114.39 553.021 114.569V116.353C552.556 116.109 552.08 115.934 551.593 115.826C551.113 115.712 550.615 115.654 550.1 115.654C549.62 115.654 549.165 115.747 548.735 115.934C548.313 116.113 547.94 116.374 547.618 116.718C547.296 117.062 547.042 117.48 546.855 117.975C546.669 118.469 546.576 119.027 546.576 119.65C546.576 120.954 546.891 121.931 547.521 122.583C548.159 123.228 549.04 123.55 550.164 123.55C550.673 123.55 551.163 123.493 551.636 123.378C552.116 123.263 552.577 123.091 553.021 122.862V124.603ZM560.412 111.357H557.222V109.821H562.303V123.442H565.515V125H556.867V123.442H560.412V111.357ZM575.763 125L575.72 123.55C575.132 124.13 574.535 124.549 573.926 124.807C573.324 125.064 572.69 125.193 572.024 125.193C571.409 125.193 570.882 125.115 570.445 124.957C570.008 124.799 569.647 124.585 569.36 124.312C569.081 124.033 568.873 123.707 568.737 123.335C568.608 122.963 568.544 122.558 568.544 122.121C568.544 121.04 568.945 120.195 569.747 119.586C570.556 118.97 571.749 118.662 573.324 118.662H575.559V117.717C575.559 117.079 575.354 116.571 574.946 116.191C574.538 115.805 573.915 115.611 573.077 115.611C572.468 115.611 571.867 115.679 571.272 115.815C570.685 115.951 570.076 116.145 569.446 116.396V114.709C569.683 114.623 569.944 114.541 570.23 114.462C570.524 114.376 570.832 114.301 571.154 114.236C571.477 114.172 571.813 114.122 572.164 114.086C572.515 114.043 572.869 114.021 573.228 114.021C573.879 114.021 574.466 114.093 574.989 114.236C575.512 114.38 575.952 114.598 576.311 114.892C576.676 115.185 576.955 115.554 577.148 115.998C577.342 116.442 577.438 116.965 577.438 117.566V125H575.763ZM575.559 120.091H573.185C572.719 120.091 572.318 120.137 571.981 120.23C571.645 120.324 571.369 120.456 571.154 120.628C570.939 120.8 570.778 121.007 570.671 121.251C570.571 121.487 570.521 121.756 570.521 122.057C570.521 122.264 570.553 122.465 570.617 122.658C570.682 122.844 570.785 123.013 570.929 123.163C571.072 123.306 571.258 123.421 571.487 123.507C571.716 123.593 571.996 123.636 572.325 123.636C572.755 123.636 573.245 123.507 573.797 123.249C574.355 122.984 574.943 122.569 575.559 122.003V120.091ZM581.37 114.215H583.078L583.132 116.202C583.769 115.436 584.396 114.881 585.012 114.537C585.635 114.193 586.261 114.021 586.892 114.021C588.009 114.021 588.854 114.383 589.427 115.106C590.007 115.83 590.275 116.904 590.232 118.329H588.342C588.363 117.384 588.224 116.7 587.923 116.277C587.629 115.848 587.196 115.633 586.623 115.633C586.372 115.633 586.118 115.679 585.86 115.772C585.61 115.858 585.348 116.002 585.076 116.202C584.811 116.396 584.528 116.646 584.228 116.954C583.927 117.262 583.604 117.634 583.261 118.071V125H581.37V114.215ZM602.135 119.038C602.135 119.303 602.131 119.525 602.124 119.704C602.117 119.883 602.106 120.051 602.092 120.209H594.519C594.519 121.312 594.826 122.16 595.442 122.755C596.058 123.342 596.946 123.636 598.106 123.636C598.422 123.636 598.737 123.625 599.052 123.604C599.367 123.575 599.671 123.539 599.965 123.496C600.258 123.453 600.538 123.407 600.803 123.356C601.075 123.299 601.326 123.238 601.555 123.174V124.71C601.046 124.853 600.47 124.968 599.825 125.054C599.188 125.147 598.525 125.193 597.838 125.193C596.914 125.193 596.119 125.068 595.453 124.817C594.787 124.567 594.239 124.205 593.81 123.732C593.387 123.253 593.072 122.669 592.864 121.981C592.664 121.287 592.563 120.503 592.563 119.629C592.563 118.87 592.671 118.154 592.886 117.48C593.108 116.8 593.426 116.206 593.842 115.697C594.264 115.182 594.78 114.773 595.389 114.473C595.997 114.172 596.688 114.021 597.462 114.021C598.214 114.021 598.88 114.14 599.46 114.376C600.04 114.612 600.527 114.949 600.921 115.386C601.322 115.815 601.623 116.342 601.823 116.965C602.031 117.581 602.135 118.272 602.135 119.038ZM600.19 118.77C600.212 118.29 600.165 117.853 600.051 117.459C599.936 117.058 599.757 116.714 599.514 116.428C599.277 116.141 598.98 115.919 598.622 115.762C598.264 115.597 597.849 115.515 597.376 115.515C596.968 115.515 596.595 115.593 596.259 115.751C595.922 115.909 595.632 116.131 595.389 116.417C595.145 116.703 594.948 117.047 594.798 117.448C594.647 117.849 594.554 118.29 594.519 118.77H600.19ZM604.573 119.833C604.573 118.916 604.699 118.104 604.949 117.395C605.2 116.678 605.554 116.077 606.013 115.59C606.478 115.096 607.033 114.723 607.678 114.473C608.329 114.215 609.053 114.086 609.848 114.086C610.191 114.086 610.528 114.107 610.857 114.15C611.194 114.193 611.523 114.261 611.846 114.354V109.821H613.726V125H612.05L611.985 122.959C611.463 123.718 610.897 124.28 610.288 124.646C609.679 125.011 609.021 125.193 608.312 125.193C607.696 125.193 607.151 125.064 606.679 124.807C606.213 124.549 605.823 124.187 605.508 123.722C605.2 123.249 604.967 122.683 604.81 122.024C604.652 121.366 604.573 120.635 604.573 119.833ZM606.485 119.715C606.485 121.018 606.675 121.992 607.055 122.637C607.441 123.274 607.986 123.593 608.688 123.593C609.16 123.593 609.658 123.382 610.181 122.959C610.711 122.536 611.266 121.91 611.846 121.079V116.073C611.538 115.93 611.198 115.823 610.825 115.751C610.453 115.672 610.084 115.633 609.719 115.633C608.702 115.633 607.907 115.962 607.334 116.621C606.768 117.28 606.485 118.311 606.485 119.715Z" fill="#A5A5A5"/>
</g>
<defs>
<filter id="filter0_d_524_8" x="25.3859" y="21" width="604.523" height="165.177" filterUnits="userSpaceOnUse" color-interpolation-filters="sRGB">
<feFlood flood-opacity="0" result="BackgroundImageFix"/>
<feColorMatrix in="SourceAlpha" type="matrix" values="0 0 0 0 0 0 0 0 0 0 0 0 0 0 0 0 0 0 127 0" result="hardAlpha"/>
<feOffset dy="4"/>
<feGaussianBlur stdDeviation="2"/>
<feComposite in2="hardAlpha" operator="out"/>
<feColorMatrix type="matrix" values="0 0 0 0 0.00392157 0 0 0 0 0.0862745 0 0 0 0 0.152941 0 0 0 0.25 0"/>
<feBlend mode="normal" in2="BackgroundImageFix" result="effect1_dropShadow_524_8"/>
<feBlend mode="normal" in="SourceGraphic" in2="effect1_dropShadow_524_8" result="shape"/>
</filter>
</defs>
</svg>
