<svg width="126" height="138" viewBox="0 0 126 138" fill="none" xmlns="http://www.w3.org/2000/svg">
<path d="M0.432129 137.361V0.837646H125.749V137.361H0.432129Z" fill="#FFD600"/>
<path fill-rule="evenodd" clip-rule="evenodd" d="M82.368 103.029C84.777 107.292 87.394 111.377 92.94 111.377C97.598 111.377 100.041 108.854 100.041 105.365C100.041 101.19 97.514 99.708 92.39 97.276L89.581 95.972C81.473 92.225 76.082 87.53 76.082 77.613C76.082 68.474 82.504 61.519 92.54 61.519C99.687 61.519 104.821 64.215 108.524 71.276L99.774 77.371C97.848 73.623 95.767 72.149 92.54 72.149C89.246 72.149 87.161 74.412 87.161 77.371C87.161 81.026 89.25 82.506 94.071 84.77L96.881 86.074C106.437 90.507 111.825 95.035 111.825 105.214C111.825 116.181 103.874 122.192 93.201 122.192C82.761 122.192 76.834 116.485 73.534 109.419L82.368 103.029ZM42.037 103.34C43.799 106.776 46.476 109.419 50.325 109.419C54.008 109.419 56.128 107.834 56.128 101.672V61.515H67.731V103.613C67.731 116.382 60.932 122.192 51.004 122.192C42.034 122.192 35.559 115.57 32.9204 109.419L42.037 103.34Z" fill="#000001"/>
</svg>
