<svg width="356" height="103" viewBox="0 0 356 103" fill="none" xmlns="http://www.w3.org/2000/svg">
<rect width="355.119" height="103" fill="#F9FAFE"/>
<g filter="url(#filter0_d_109_4)">
<rect x="16" y="25" width="324.794" height="51.7085" fill="#011627"/>
<path d="M44.1791 45.142H46.3061L48.9487 52.2748L49.518 54.015L50.1088 52.2318L52.7299 45.142H54.7817L50.5492 55.9271H48.4008L44.1791 45.142ZM64.2133 55.9271L64.1703 54.4769C63.5831 55.057 62.9851 55.476 62.3764 55.7338C61.7748 55.9916 61.141 56.1205 60.475 56.1205C59.8591 56.1205 59.3328 56.0417 58.8959 55.8842C58.4591 55.7266 58.0974 55.5118 57.811 55.2396C57.5317 54.9603 57.324 54.6345 57.1879 54.2621C57.059 53.8897 56.9946 53.4851 56.9946 53.0482C56.9946 51.9668 57.3956 51.1218 58.1977 50.5131C59.0069 49.8972 60.1993 49.5892 61.7748 49.5892H64.0092V48.6439C64.0092 48.0066 63.8051 47.4981 63.3969 47.1185C62.9887 46.7318 62.3657 46.5385 61.5278 46.5385C60.919 46.5385 60.3175 46.6065 59.7231 46.7426C59.1358 46.8786 58.5271 47.072 57.8969 47.3226V45.6361C58.1332 45.5502 58.3946 45.4678 58.6811 45.389C58.9747 45.3031 59.2826 45.2279 59.6049 45.1635C59.9272 45.099 60.2638 45.0489 60.6147 45.0131C60.9656 44.9701 61.3201 44.9486 61.6782 44.9486C62.3298 44.9486 62.9171 45.0202 63.4399 45.1635C63.9627 45.3067 64.4031 45.5251 64.7612 45.8187C65.1264 46.1124 65.4057 46.4812 65.5991 46.9252C65.7924 47.3692 65.8891 47.892 65.8891 48.4935V55.9271H64.2133ZM64.0092 51.018H61.6352C61.1697 51.018 60.7686 51.0645 60.4321 51.1576C60.0955 51.2507 59.8198 51.3832 59.6049 51.5551C59.3901 51.7269 59.2289 51.9346 59.1215 52.1781C59.0213 52.4144 58.9711 52.683 58.9711 52.9838C58.9711 53.1915 59.0033 53.392 59.0678 53.5853C59.1323 53.7715 59.2361 53.9398 59.3793 54.0902C59.5226 54.2334 59.7088 54.348 59.9379 54.434C60.1671 54.5199 60.4464 54.5629 60.7758 54.5629C61.2055 54.5629 61.6961 54.434 62.2475 54.1762C62.8061 53.9112 63.3933 53.4958 64.0092 52.9301V51.018ZM69.8207 45.142H71.5287L71.5825 47.1293C72.2198 46.363 72.8464 45.808 73.4623 45.4642C74.0854 45.1205 74.712 44.9486 75.3422 44.9486C76.4594 44.9486 77.3045 45.3103 77.8774 46.0336C78.4575 46.7569 78.726 47.8311 78.683 49.2562H76.7924C76.8139 48.3109 76.6742 47.627 76.3735 47.2045C76.0798 46.7748 75.6466 46.5599 75.0737 46.5599C74.823 46.5599 74.5688 46.6065 74.311 46.6996C74.0603 46.7855 73.7989 46.9288 73.5268 47.1293C73.2618 47.3226 72.9789 47.5733 72.6782 47.8812C72.3774 48.1892 72.0551 48.5616 71.7114 48.9984V55.9271H69.8207V45.142ZM150.903 48.9877H141.664V47.4086H150.903V48.9877ZM150.903 52.726H141.664V51.1469H150.903V52.726Z" fill="#C792EA"/>
<path d="M93.5717 45.142H95.2367L95.3119 46.8822C95.627 46.5098 95.9314 46.2019 96.225 45.9584C96.5186 45.7077 96.8051 45.5072 97.0844 45.3568C97.3709 45.2064 97.6609 45.1026 97.9545 45.0453C98.2481 44.9808 98.5525 44.9486 98.8676 44.9486C99.9776 44.9486 100.816 45.278 101.381 45.9369C101.954 46.5886 102.241 47.5733 102.241 48.891V55.9271H100.372V49.0414C100.372 48.1963 100.214 47.5733 99.8989 47.1722C99.5838 46.764 99.1147 46.5599 98.4916 46.5599C98.2625 46.5599 98.0369 46.5958 97.8149 46.6674C97.6 46.7318 97.3744 46.85 97.1381 47.0219C96.9018 47.1866 96.644 47.4122 96.3647 47.6986C96.0925 47.9851 95.7846 48.3431 95.4408 48.7728V55.9271H93.5717V45.142ZM114.336 55.9271H112.661L112.596 54.1869C112.274 54.5593 111.966 54.8708 111.672 55.1215C111.386 55.365 111.099 55.5619 110.813 55.7123C110.526 55.8627 110.236 55.9665 109.943 56.0238C109.656 56.0883 109.352 56.1205 109.03 56.1205C107.92 56.1205 107.082 55.7946 106.516 55.143C105.95 54.4913 105.667 53.5066 105.667 52.1889V45.142H107.537V52.0385C107.537 53.6928 108.16 54.5199 109.406 54.5199C109.635 54.5199 109.857 54.4877 110.072 54.4232C110.294 54.3516 110.523 54.2334 110.759 54.0687C111.003 53.8969 111.261 53.6677 111.533 53.3812C111.812 53.0948 112.123 52.7331 112.467 52.2963V45.142H114.336V55.9271ZM125.455 55.9271V48.182C125.455 47.8454 125.44 47.5697 125.412 47.3549C125.39 47.14 125.351 46.9717 125.293 46.85C125.243 46.7211 125.175 46.6316 125.089 46.5814C125.011 46.5313 124.91 46.5062 124.789 46.5062C124.645 46.5062 124.513 46.5492 124.391 46.6351C124.269 46.7211 124.137 46.8607 123.994 47.0541C123.858 47.2474 123.704 47.5053 123.532 47.8275C123.367 48.1426 123.17 48.5329 122.941 48.9984V55.9271H121.233V48.3861C121.233 47.9922 121.219 47.6736 121.19 47.4301C121.168 47.1866 121.129 46.9968 121.072 46.8607C121.022 46.7247 120.954 46.6316 120.868 46.5814C120.782 46.5313 120.678 46.5062 120.556 46.5062C120.427 46.5062 120.305 46.542 120.191 46.6137C120.076 46.6853 119.947 46.8142 119.804 47.0004C119.668 47.1866 119.514 47.4408 119.342 47.7631C119.17 48.0853 118.966 48.4971 118.73 48.9984V55.9271H117.011V45.142H118.44L118.526 47.1937C118.712 46.7855 118.891 46.4382 119.063 46.1517C119.242 45.8653 119.425 45.6361 119.611 45.4642C119.797 45.2852 119.994 45.1563 120.202 45.0775C120.416 44.9916 120.653 44.9486 120.911 44.9486C121.491 44.9486 121.931 45.1384 122.232 45.518C122.533 45.8975 122.683 46.4847 122.683 47.2797C122.855 46.9073 123.023 46.5778 123.188 46.2914C123.353 45.9978 123.528 45.7543 123.714 45.5609C123.908 45.3604 124.119 45.21 124.348 45.1097C124.577 45.0023 124.842 44.9486 125.143 44.9486C126.497 44.9486 127.173 45.9906 127.173 48.0746V55.9271H125.455Z" fill="white"/>
<path d="M175.137 55.9271H166.318V54.1869H169.927V43.9389L166.565 45.765L165.877 44.1752L170.346 41.8226H172V54.1869H175.137V55.9271ZM187.673 48.9125C187.673 49.9867 187.566 50.9678 187.351 51.8558C187.136 52.7367 186.81 53.4958 186.373 54.1332C185.937 54.7634 185.392 55.254 184.741 55.6049C184.096 55.9486 183.337 56.1205 182.463 56.1205C181.711 56.1205 181.027 55.9808 180.412 55.7015C179.796 55.4151 179.269 54.9782 178.832 54.391C178.396 53.8038 178.059 53.0554 177.823 52.1459C177.586 51.2364 177.468 50.1586 177.468 48.9125C177.468 47.8383 177.576 46.8571 177.79 45.9691C178.012 45.0811 178.338 44.322 178.768 43.6918C179.205 43.0544 179.749 42.5639 180.401 42.2201C181.053 41.8692 181.812 41.6937 182.678 41.6937C183.43 41.6937 184.114 41.837 184.73 42.1234C185.346 42.4027 185.872 42.8396 186.309 43.434C186.746 44.0212 187.082 44.7696 187.319 45.6791C187.555 46.5886 187.673 47.6664 187.673 48.9125ZM185.783 48.9769C185.783 48.7334 185.772 48.4935 185.75 48.2572C185.736 48.0137 185.718 47.7774 185.697 47.5482L179.756 51.9633C179.864 52.3357 180 52.6794 180.164 52.9945C180.329 53.3096 180.526 53.5818 180.755 53.8109C180.992 54.0329 181.257 54.2084 181.55 54.3373C181.851 54.459 182.191 54.5199 182.571 54.5199C183.058 54.5199 183.498 54.4017 183.892 54.1654C184.293 53.9291 184.633 53.5782 184.913 53.1127C185.192 52.6472 185.407 52.0707 185.557 51.3832C185.707 50.6885 185.783 49.8864 185.783 48.9769ZM179.359 48.848C179.359 49.07 179.359 49.292 179.359 49.514C179.366 49.7361 179.38 49.9509 179.402 50.1586L185.342 45.765C185.235 45.3998 185.099 45.0668 184.934 44.766C184.769 44.4652 184.572 44.2074 184.343 43.9926C184.114 43.7706 183.853 43.5987 183.559 43.4769C183.265 43.3552 182.936 43.2943 182.571 43.2943C182.084 43.2943 181.64 43.4125 181.239 43.6488C180.845 43.8851 180.508 44.2396 180.229 44.7123C179.95 45.1778 179.735 45.7579 179.584 46.4525C179.434 47.14 179.359 47.9385 179.359 48.848ZM235.734 55.9271H226.485V54.2514L230.116 50.642C230.71 50.0547 231.193 49.5463 231.566 49.1166C231.938 48.6869 232.228 48.2966 232.436 47.9457C232.644 47.5876 232.783 47.251 232.855 46.9359C232.927 46.6208 232.962 46.2806 232.962 45.9154C232.962 45.5717 232.916 45.2458 232.823 44.9379C232.73 44.6228 232.586 44.3471 232.393 44.1107C232.2 43.8744 231.949 43.6882 231.641 43.5521C231.333 43.4161 230.964 43.348 230.535 43.348C229.94 43.348 229.4 43.4805 228.913 43.7455C228.426 44.0105 227.978 44.3542 227.57 44.7767L226.539 43.5414C227.068 42.9828 227.677 42.5352 228.365 42.1986C229.059 41.862 229.865 41.6937 230.782 41.6937C231.405 41.6937 231.97 41.7868 232.479 41.973C232.995 42.1592 233.439 42.4278 233.811 42.7787C234.183 43.1296 234.47 43.5593 234.67 44.0678C234.878 44.5762 234.982 45.1491 234.982 45.7865C234.982 46.3236 234.91 46.8213 234.767 47.2797C234.624 47.738 234.405 48.1963 234.112 48.6547C233.825 49.1058 233.46 49.5749 233.016 50.0619C232.579 50.5489 232.06 51.0824 231.458 51.6625L228.913 54.1439H235.734V55.9271ZM248.152 48.9125C248.152 49.9867 248.044 50.9678 247.83 51.8558C247.615 52.7367 247.289 53.4958 246.852 54.1332C246.415 54.7634 245.871 55.254 245.219 55.6049C244.575 55.9486 243.816 56.1205 242.942 56.1205C242.19 56.1205 241.506 55.9808 240.89 55.7015C240.274 55.4151 239.748 54.9782 239.311 54.391C238.874 53.8038 238.538 53.0554 238.301 52.1459C238.065 51.2364 237.947 50.1586 237.947 48.9125C237.947 47.8383 238.054 46.8571 238.269 45.9691C238.491 45.0811 238.817 44.322 239.247 43.6918C239.683 43.0544 240.228 42.5639 240.879 42.2201C241.531 41.8692 242.29 41.6937 243.157 41.6937C243.909 41.6937 244.593 41.837 245.208 42.1234C245.824 42.4027 246.351 42.8396 246.788 43.434C247.224 44.0212 247.561 44.7696 247.797 45.6791C248.034 46.5886 248.152 47.6664 248.152 48.9125ZM246.261 48.9769C246.261 48.7334 246.25 48.4935 246.229 48.2572C246.215 48.0137 246.197 47.7774 246.175 47.5482L240.235 51.9633C240.342 52.3357 240.478 52.6794 240.643 52.9945C240.808 53.3096 241.005 53.5818 241.234 53.8109C241.47 54.0329 241.735 54.2084 242.029 54.3373C242.33 54.459 242.67 54.5199 243.049 54.5199C243.536 54.5199 243.977 54.4017 244.371 54.1654C244.772 53.9291 245.112 53.5782 245.391 53.1127C245.67 52.6472 245.885 52.0707 246.036 51.3832C246.186 50.6885 246.261 49.8864 246.261 48.9769ZM239.837 48.848C239.837 49.07 239.837 49.292 239.837 49.514C239.844 49.7361 239.859 49.9509 239.88 50.1586L245.821 45.765C245.713 45.3998 245.577 45.0668 245.413 44.766C245.248 44.4652 245.051 44.2074 244.822 43.9926C244.593 43.7706 244.331 43.5987 244.038 43.4769C243.744 43.3552 243.414 43.2943 243.049 43.2943C242.562 43.2943 242.118 43.4125 241.717 43.6488C241.323 43.8851 240.987 44.2396 240.707 44.7123C240.428 45.1778 240.213 45.7579 240.063 46.4525C239.913 47.14 239.837 47.9385 239.837 48.848Z" fill="#F78C6C"/>
<path d="M211.908 50.889H207.686V55.2719H205.838V50.889H201.617V49.2562H205.838V44.9056H207.686V49.2562H211.908V50.889Z" fill="#FFE1E8"/>
</g>
<defs>
<filter id="filter0_d_109_4" x="12" y="25" width="332.794" height="59.7085" filterUnits="userSpaceOnUse" color-interpolation-filters="sRGB">
<feFlood flood-opacity="0" result="BackgroundImageFix"/>
<feColorMatrix in="SourceAlpha" type="matrix" values="0 0 0 0 0 0 0 0 0 0 0 0 0 0 0 0 0 0 127 0" result="hardAlpha"/>
<feOffset dy="4"/>
<feGaussianBlur stdDeviation="2"/>
<feComposite in2="hardAlpha" operator="out"/>
<feColorMatrix type="matrix" values="0 0 0 0 0.00392157 0 0 0 0 0.0862745 0 0 0 0 0.152941 0 0 0 0.25 0"/>
<feBlend mode="normal" in2="BackgroundImageFix" result="effect1_dropShadow_109_4"/>
<feBlend mode="normal" in="SourceGraphic" in2="effect1_dropShadow_109_4" result="shape"/>
</filter>
</defs>
</svg>
