<svg width="356" height="103" viewBox="0 0 356 103" fill="none" xmlns="http://www.w3.org/2000/svg">
<rect width="355.119" height="103" fill="#F9FAFE"/>
<g filter="url(#filter0_d_115_2)">
<rect x="16" y="25" width="324.794" height="51.7085" fill="#011627"/>
<path d="M44.1791 45.142H46.3061L48.9487 52.2748L49.518 54.015L50.1088 52.2318L52.7299 45.142H54.7817L50.5492 55.9271H48.4008L44.1791 45.142ZM64.2133 55.9271L64.1703 54.4769C63.5831 55.057 62.9851 55.476 62.3764 55.7338C61.7748 55.9916 61.141 56.1205 60.475 56.1205C59.8591 56.1205 59.3328 56.0417 58.8959 55.8842C58.4591 55.7266 58.0974 55.5118 57.811 55.2396C57.5317 54.9603 57.324 54.6345 57.1879 54.2621C57.059 53.8897 56.9946 53.4851 56.9946 53.0482C56.9946 51.9668 57.3956 51.1218 58.1977 50.5131C59.0069 49.8972 60.1993 49.5892 61.7748 49.5892H64.0092V48.6439C64.0092 48.0066 63.8051 47.4981 63.3969 47.1185C62.9887 46.7318 62.3657 46.5385 61.5278 46.5385C60.919 46.5385 60.3175 46.6065 59.7231 46.7426C59.1358 46.8786 58.5271 47.072 57.8969 47.3226V45.6361C58.1332 45.5502 58.3946 45.4678 58.6811 45.389C58.9747 45.3031 59.2826 45.2279 59.6049 45.1635C59.9272 45.099 60.2638 45.0489 60.6147 45.0131C60.9656 44.9701 61.3201 44.9486 61.6782 44.9486C62.3298 44.9486 62.9171 45.0202 63.4399 45.1635C63.9627 45.3067 64.4031 45.5251 64.7612 45.8187C65.1264 46.1123 65.4057 46.4812 65.5991 46.9252C65.7924 47.3692 65.8891 47.892 65.8891 48.4935V55.9271H64.2133ZM64.0092 51.0179H61.6352C61.1697 51.0179 60.7686 51.0645 60.4321 51.1576C60.0955 51.2507 59.8198 51.3832 59.6049 51.5551C59.3901 51.7269 59.2289 51.9346 59.1215 52.1781C59.0213 52.4144 58.9711 52.683 58.9711 52.9838C58.9711 53.1914 59.0033 53.392 59.0678 53.5853C59.1323 53.7715 59.2361 53.9398 59.3793 54.0902C59.5226 54.2334 59.7088 54.348 59.9379 54.434C60.1671 54.5199 60.4464 54.5629 60.7758 54.5629C61.2055 54.5629 61.6961 54.434 62.2475 54.1761C62.8061 53.9112 63.3933 53.4958 64.0092 52.9301V51.0179ZM69.8207 45.142H71.5287L71.5825 47.1293C72.2198 46.363 72.8464 45.808 73.4623 45.4642C74.0854 45.1205 74.712 44.9486 75.3422 44.9486C76.4594 44.9486 77.3045 45.3103 77.8774 46.0336C78.4575 46.7569 78.726 47.8311 78.683 49.2562H76.7924C76.8139 48.3109 76.6742 47.627 76.3735 47.2045C76.0798 46.7748 75.6466 46.5599 75.0737 46.5599C74.823 46.5599 74.5688 46.6065 74.311 46.6996C74.0603 46.7855 73.7989 46.9288 73.5268 47.1293C73.2618 47.3226 72.9789 47.5733 72.6782 47.8812C72.3774 48.1892 72.0551 48.5616 71.7114 48.9984V55.9271H69.8207V45.142Z" fill="#C792EA"/>
<path d="M93.5717 45.142H95.2367L95.3119 46.8822C95.627 46.5098 95.9314 46.2019 96.225 45.9584C96.5186 45.7077 96.8051 45.5072 97.0844 45.3568C97.3709 45.2064 97.6609 45.1026 97.9545 45.0453C98.2481 44.9808 98.5525 44.9486 98.8676 44.9486C99.9776 44.9486 100.816 45.278 101.381 45.9369C101.954 46.5886 102.241 47.5733 102.241 48.891V55.9271H100.372V49.0414C100.372 48.1963 100.214 47.5733 99.8989 47.1722C99.5838 46.764 99.1147 46.5599 98.4916 46.5599C98.2625 46.5599 98.0369 46.5957 97.8149 46.6674C97.6 46.7318 97.3744 46.85 97.1381 47.0219C96.9018 47.1866 96.644 47.4122 96.3647 47.6986C96.0925 47.9851 95.7846 48.3431 95.4408 48.7728V55.9271H93.5717V45.142ZM114.336 55.9271H112.661L112.596 54.1869C112.274 54.5593 111.966 54.8708 111.672 55.1215C111.386 55.3649 111.099 55.5619 110.813 55.7123C110.526 55.8627 110.236 55.9665 109.943 56.0238C109.656 56.0883 109.352 56.1205 109.03 56.1205C107.92 56.1205 107.082 55.7946 106.516 55.1429C105.95 54.4913 105.667 53.5066 105.667 52.1888V45.142H107.537V52.0385C107.537 53.6927 108.16 54.5199 109.406 54.5199C109.635 54.5199 109.857 54.4877 110.072 54.4232C110.294 54.3516 110.523 54.2334 110.759 54.0687C111.003 53.8969 111.261 53.6677 111.533 53.3812C111.812 53.0948 112.123 52.7331 112.467 52.2963V45.142H114.336V55.9271ZM125.455 55.9271V48.182C125.455 47.8454 125.44 47.5697 125.412 47.3549C125.39 47.14 125.351 46.9717 125.293 46.85C125.243 46.7211 125.175 46.6316 125.089 46.5814C125.011 46.5313 124.91 46.5062 124.789 46.5062C124.645 46.5062 124.513 46.5492 124.391 46.6351C124.269 46.7211 124.137 46.8607 123.994 47.0541C123.858 47.2474 123.704 47.5052 123.532 47.8275C123.367 48.1426 123.17 48.5329 122.941 48.9984V55.9271H121.233V48.3861C121.233 47.9922 121.219 47.6735 121.19 47.4301C121.168 47.1866 121.129 46.9968 121.072 46.8607C121.022 46.7247 120.954 46.6316 120.868 46.5814C120.782 46.5313 120.678 46.5062 120.556 46.5062C120.427 46.5062 120.305 46.542 120.191 46.6136C120.076 46.6853 119.947 46.8142 119.804 47.0004C119.668 47.1866 119.514 47.4408 119.342 47.7631C119.17 48.0853 118.966 48.4971 118.73 48.9984V55.9271H117.011V45.142H118.44L118.526 47.1937C118.712 46.7855 118.891 46.4382 119.063 46.1517C119.242 45.8653 119.425 45.6361 119.611 45.4642C119.797 45.2852 119.994 45.1563 120.202 45.0775C120.416 44.9916 120.653 44.9486 120.911 44.9486C121.491 44.9486 121.931 45.1384 122.232 45.5179C122.533 45.8975 122.683 46.4847 122.683 47.2797C122.855 46.9073 123.023 46.5778 123.188 46.2914C123.353 45.9978 123.528 45.7543 123.714 45.5609C123.908 45.3604 124.119 45.21 124.348 45.1097C124.577 45.0023 124.842 44.9486 125.143 44.9486C126.497 44.9486 127.173 45.9906 127.173 48.0746V55.9271H125.455ZM142.921 58.1293C143.287 58.1436 143.641 58.1114 143.985 58.0326C144.329 57.9538 144.629 57.8357 144.887 57.6781C145.152 57.5277 145.363 57.3379 145.521 57.1088C145.678 56.8796 145.757 56.6182 145.757 56.3246C145.757 56.0238 145.704 55.7803 145.596 55.5941C145.496 55.4079 145.381 55.236 145.252 55.0785C145.123 54.9209 145.005 54.7526 144.898 54.5736C144.798 54.3946 144.747 54.1547 144.747 53.8539C144.747 53.7035 144.776 53.5459 144.833 53.3812C144.891 53.2165 144.977 53.0661 145.091 52.9301C145.213 52.794 145.363 52.683 145.542 52.597C145.729 52.5111 145.947 52.4681 146.198 52.4681C146.448 52.4681 146.688 52.5219 146.917 52.6293C147.154 52.7295 147.358 52.8871 147.53 53.1019C147.709 53.3168 147.848 53.5853 147.949 53.9076C148.056 54.2299 148.11 54.6094 148.11 55.0463C148.11 55.6407 147.999 56.21 147.777 56.7543C147.562 57.3057 147.236 57.7927 146.799 58.2152C146.37 58.6377 145.829 58.9743 145.177 59.225C144.533 59.4756 143.781 59.601 142.921 59.601V58.1293ZM146.284 44.9486C146.506 44.9486 146.717 44.9952 146.917 45.0883C147.118 45.1742 147.293 45.2924 147.444 45.4427C147.594 45.5931 147.712 45.7686 147.798 45.9691C147.891 46.1696 147.938 46.3809 147.938 46.6029C147.938 46.8321 147.891 47.0469 147.798 47.2474C147.712 47.4408 147.594 47.6127 147.444 47.7631C147.293 47.9135 147.118 48.0316 146.917 48.1176C146.717 48.2035 146.506 48.2465 146.284 48.2465C146.054 48.2465 145.84 48.2035 145.639 48.1176C145.446 48.0316 145.274 47.9135 145.123 47.7631C144.973 47.6127 144.855 47.4408 144.769 47.2474C144.683 47.0469 144.64 46.8321 144.64 46.6029C144.64 46.3809 144.683 46.1696 144.769 45.9691C144.855 45.7686 144.973 45.5931 145.123 45.4427C145.274 45.2924 145.446 45.1742 145.639 45.0883C145.84 44.9952 146.054 44.9486 146.284 44.9486Z" fill="white"/>
</g>
<defs>
<filter id="filter0_d_115_2" x="12" y="25" width="332.794" height="59.7085" filterUnits="userSpaceOnUse" color-interpolation-filters="sRGB">
<feFlood flood-opacity="0" result="BackgroundImageFix"/>
<feColorMatrix in="SourceAlpha" type="matrix" values="0 0 0 0 0 0 0 0 0 0 0 0 0 0 0 0 0 0 127 0" result="hardAlpha"/>
<feOffset dy="4"/>
<feGaussianBlur stdDeviation="2"/>
<feComposite in2="hardAlpha" operator="out"/>
<feColorMatrix type="matrix" values="0 0 0 0 0.00392157 0 0 0 0 0.0862745 0 0 0 0 0.152941 0 0 0 0.25 0"/>
<feBlend mode="normal" in2="BackgroundImageFix" result="effect1_dropShadow_115_2"/>
<feBlend mode="normal" in="SourceGraphic" in2="effect1_dropShadow_115_2" result="shape"/>
</filter>
</defs>
</svg>
