<svg width="356" height="140" viewBox="0 0 356 140" fill="none" xmlns="http://www.w3.org/2000/svg">
<rect width="355.119" height="140" fill="#F9FAFE"/>
<g filter="url(#filter0_d_115_4)">
<rect x="16" y="22" width="324.794" height="89.43" fill="#011627"/>
</g>
<path d="M44.1791 51.5723H46.3061L48.9487 58.7051L49.518 60.4454L50.1088 58.6622L52.7299 51.5723H54.7817L50.5492 62.3575H48.4008L44.1791 51.5723ZM64.2133 62.3575L64.1703 60.9073C63.5831 61.4874 62.9851 61.9063 62.3764 62.1641C61.7748 62.4219 61.141 62.5508 60.475 62.5508C59.8591 62.5508 59.3328 62.4721 58.8959 62.3145C58.4591 62.157 58.0974 61.9421 57.811 61.67C57.5317 61.3907 57.324 61.0648 57.1879 60.6924C57.059 60.32 56.9946 59.9154 56.9946 59.4786C56.9946 58.3972 57.3956 57.5521 58.1977 56.9434C59.0069 56.3275 60.1993 56.0196 61.7748 56.0196H64.0092V55.0743C64.0092 54.4369 63.8051 53.9284 63.3969 53.5489C62.9887 53.1622 62.3657 52.9688 61.5278 52.9688C60.919 52.9688 60.3175 53.0368 59.7231 53.1729C59.1358 53.309 58.5271 53.5023 57.8969 53.753V52.0665C58.1332 51.9805 58.3946 51.8982 58.6811 51.8194C58.9747 51.7335 59.2826 51.6583 59.6049 51.5938C59.9272 51.5294 60.2638 51.4792 60.6147 51.4434C60.9656 51.4005 61.3201 51.379 61.6782 51.379C62.3298 51.379 62.9171 51.4506 63.4399 51.5938C63.9627 51.737 64.4031 51.9555 64.7612 52.2491C65.1264 52.5427 65.4057 52.9115 65.5991 53.3555C65.7924 53.7995 65.8891 54.3223 65.8891 54.9239V62.3575H64.2133ZM64.0092 57.4483H61.6352C61.1697 57.4483 60.7686 57.4949 60.4321 57.588C60.0955 57.6811 59.8198 57.8135 59.6049 57.9854C59.3901 58.1573 59.2289 58.365 59.1215 58.6085C59.0213 58.8448 58.9711 59.1133 58.9711 59.4141C58.9711 59.6218 59.0033 59.8223 59.0678 60.0157C59.1323 60.2019 59.2361 60.3702 59.3793 60.5206C59.5226 60.6638 59.7088 60.7784 59.9379 60.8643C60.1671 60.9503 60.4464 60.9932 60.7758 60.9932C61.2055 60.9932 61.6961 60.8643 62.2475 60.6065C62.8061 60.3415 63.3933 59.9262 64.0092 59.3604V57.4483ZM69.8207 51.5723H71.5287L71.5825 53.5596C72.2198 52.7934 72.8464 52.2383 73.4623 51.8946C74.0854 51.5508 74.712 51.379 75.3422 51.379C76.4594 51.379 77.3045 51.7406 77.8774 52.4639C78.4575 53.1872 78.726 54.2615 78.683 55.6866H76.7924C76.8139 54.7413 76.6742 54.0574 76.3735 53.6348C76.0798 53.2051 75.6466 52.9903 75.0737 52.9903C74.823 52.9903 74.5688 53.0368 74.311 53.1299C74.0603 53.2159 73.7989 53.3591 73.5268 53.5596C73.2618 53.753 72.9789 54.0036 72.6782 54.3116C72.3774 54.6195 72.0551 54.9919 71.7114 55.4288V62.3575H69.8207V51.5723Z" fill="#C792EA"/>
<path d="M93.5717 51.5723H95.2367L95.3119 53.3126C95.627 52.9402 95.9314 52.6322 96.225 52.3887C96.5186 52.1381 96.8051 51.9376 97.0844 51.7872C97.3709 51.6368 97.6609 51.5329 97.9545 51.4756C98.2481 51.4112 98.5525 51.379 98.8676 51.379C99.9776 51.379 100.816 51.7084 101.381 52.3672C101.954 53.0189 102.241 54.0036 102.241 55.3214V62.3575H100.372V55.4717C100.372 54.6267 100.214 54.0036 99.8989 53.6026C99.5838 53.1944 99.1147 52.9903 98.4916 52.9903C98.2625 52.9903 98.0369 53.0261 97.8149 53.0977C97.6 53.1622 97.3744 53.2803 97.1381 53.4522C96.9018 53.6169 96.644 53.8425 96.3647 54.129C96.0925 54.4154 95.7846 54.7735 95.4408 55.2032V62.3575H93.5717V51.5723ZM114.336 62.3575H112.661L112.596 60.6172C112.274 60.9896 111.966 61.3012 111.672 61.5518C111.386 61.7953 111.099 61.9922 110.813 62.1426C110.526 62.293 110.236 62.3969 109.943 62.4542C109.656 62.5186 109.352 62.5508 109.03 62.5508C107.92 62.5508 107.082 62.225 106.516 61.5733C105.95 60.9216 105.667 59.9369 105.667 58.6192V51.5723H107.537V58.4688C107.537 60.1231 108.16 60.9503 109.406 60.9503C109.635 60.9503 109.857 60.918 110.072 60.8536C110.294 60.782 110.523 60.6638 110.759 60.4991C111.003 60.3272 111.261 60.098 111.533 59.8116C111.812 59.5251 112.123 59.1635 112.467 58.7266V51.5723H114.336V62.3575ZM125.455 62.3575V54.6124C125.455 54.2758 125.44 54.0001 125.412 53.7852C125.39 53.5704 125.351 53.4021 125.293 53.2803C125.243 53.1514 125.175 53.0619 125.089 53.0118C125.011 52.9616 124.91 52.9366 124.789 52.9366C124.645 52.9366 124.513 52.9796 124.391 53.0655C124.269 53.1514 124.137 53.2911 123.994 53.4844C123.858 53.6778 123.704 53.9356 123.532 54.2579C123.367 54.573 123.17 54.9633 122.941 55.4288V62.3575H121.233V54.8165C121.233 54.4226 121.219 54.1039 121.19 53.8604C121.168 53.6169 121.129 53.4271 121.072 53.2911C121.022 53.155 120.954 53.0619 120.868 53.0118C120.782 52.9616 120.678 52.9366 120.556 52.9366C120.427 52.9366 120.305 52.9724 120.191 53.044C120.076 53.1156 119.947 53.2445 119.804 53.4307C119.668 53.6169 119.514 53.8712 119.342 54.1934C119.17 54.5157 118.966 54.9275 118.73 55.4288V62.3575H117.011V51.5723H118.44L118.526 53.6241C118.712 53.2159 118.891 52.8686 119.063 52.5821C119.242 52.2956 119.425 52.0665 119.611 51.8946C119.797 51.7156 119.994 51.5866 120.202 51.5079C120.416 51.4219 120.653 51.379 120.911 51.379C121.491 51.379 121.931 51.5687 122.232 51.9483C122.533 52.3279 122.683 52.9151 122.683 53.71C122.855 53.3376 123.023 53.0082 123.188 52.7217C123.353 52.4281 123.528 52.1846 123.714 51.9913C123.908 51.7908 124.119 51.6404 124.348 51.5401C124.577 51.4327 124.842 51.379 125.143 51.379C126.497 51.379 127.173 52.421 127.173 54.5049V62.3575H125.455ZM142.921 64.5596C143.287 64.574 143.641 64.5417 143.985 64.463C144.329 64.3842 144.629 64.266 144.887 64.1085C145.152 63.9581 145.363 63.7683 145.521 63.5391C145.678 63.31 145.757 63.0486 145.757 62.7549C145.757 62.4542 145.704 62.2107 145.596 62.0245C145.496 61.8383 145.381 61.6664 145.252 61.5089C145.123 61.3513 145.005 61.183 144.898 61.004C144.798 60.8249 144.747 60.585 144.747 60.2842C144.747 60.1339 144.776 59.9763 144.833 59.8116C144.891 59.6469 144.977 59.4965 145.091 59.3604C145.213 59.2243 145.363 59.1133 145.542 59.0274C145.729 58.9415 145.947 58.8985 146.198 58.8985C146.448 58.8985 146.688 58.9522 146.917 59.0596C147.154 59.1599 147.358 59.3174 147.53 59.5323C147.709 59.7471 147.848 60.0157 147.949 60.338C148.056 60.6602 148.11 61.0398 148.11 61.4766C148.11 62.071 147.999 62.6404 147.777 63.1846C147.562 63.7361 147.236 64.223 146.799 64.6456C146.37 65.0681 145.829 65.4047 145.177 65.6553C144.533 65.906 143.781 66.0313 142.921 66.0313V64.5596ZM146.284 51.379C146.506 51.379 146.717 51.4255 146.917 51.5186C147.118 51.6046 147.293 51.7227 147.444 51.8731C147.594 52.0235 147.712 52.199 147.798 52.3995C147.891 52.6 147.938 52.8113 147.938 53.0333C147.938 53.2624 147.891 53.4773 147.798 53.6778C147.712 53.8712 147.594 54.043 147.444 54.1934C147.293 54.3438 147.118 54.462 146.917 54.5479C146.717 54.6339 146.506 54.6768 146.284 54.6768C146.054 54.6768 145.84 54.6339 145.639 54.5479C145.446 54.462 145.274 54.3438 145.123 54.1934C144.973 54.043 144.855 53.8712 144.769 53.6778C144.683 53.4773 144.64 53.2624 144.64 53.0333C144.64 52.8113 144.683 52.6 144.769 52.3995C144.855 52.199 144.973 52.0235 145.123 51.8731C145.274 51.7227 145.446 51.6046 145.639 51.5186C145.84 51.4255 146.054 51.379 146.284 51.379ZM45.1889 82.5723H46.8539L46.9291 84.3126C47.2442 83.9402 47.5486 83.6322 47.8422 83.3887C48.1358 83.1381 48.4223 82.9376 48.7016 82.7872C48.988 82.6368 49.2781 82.5329 49.5717 82.4756C49.8653 82.4112 50.1697 82.379 50.4848 82.379C51.5948 82.379 52.4327 82.7084 52.9985 83.3672C53.5714 84.0189 53.8578 85.0036 53.8578 86.3214V93.3575H51.9887V86.4717C51.9887 85.6267 51.8311 85.0036 51.516 84.6026C51.2009 84.1944 50.7319 83.9903 50.1088 83.9903C49.8797 83.9903 49.6541 84.0261 49.4321 84.0977C49.2172 84.1622 48.9916 84.2803 48.7553 84.4522C48.519 84.6169 48.2612 84.8425 47.9819 85.129C47.7097 85.4154 47.4018 85.7735 47.058 86.2032V93.3575H45.1889V82.5723ZM65.9535 93.3575H64.2778L64.2133 91.6172C63.891 91.9896 63.5831 92.3012 63.2895 92.5518C63.003 92.7953 62.7166 92.9922 62.4301 93.1426C62.1436 93.293 61.8536 93.3969 61.56 93.4542C61.2735 93.5186 60.9692 93.5508 60.6469 93.5508C59.5369 93.5508 58.699 93.225 58.1332 92.5733C57.5675 91.9216 57.2846 90.9369 57.2846 89.6192V82.5723H59.1537V89.4688C59.1537 91.1231 59.7768 91.9503 61.0229 91.9503C61.252 91.9503 61.4741 91.918 61.6889 91.8536C61.9109 91.782 62.1401 91.6638 62.3764 91.4991C62.6199 91.3272 62.8777 91.098 63.1498 90.8116C63.4291 90.5251 63.7407 90.1635 64.0844 89.7266V82.5723H65.9535V93.3575ZM77.0717 93.3575V85.6124C77.0717 85.2758 77.0574 85.0001 77.0287 84.7852C77.0073 84.5704 76.9679 84.4021 76.9106 84.2803C76.8604 84.1514 76.7924 84.0619 76.7065 84.0118C76.6277 83.9616 76.5274 83.9366 76.4057 83.9366C76.2625 83.9366 76.13 83.9796 76.0082 84.0655C75.8865 84.1514 75.754 84.2911 75.6108 84.4844C75.4747 84.6778 75.3207 84.9356 75.1489 85.2579C74.9841 85.573 74.7872 85.9633 74.558 86.4288V93.3575H72.85V85.8165C72.85 85.4226 72.8357 85.1039 72.8071 84.8604C72.7856 84.6169 72.7462 84.4271 72.6889 84.2911C72.6388 84.155 72.5707 84.0619 72.4848 84.0118C72.3989 83.9616 72.295 83.9366 72.1733 83.9366C72.0444 83.9366 71.9226 83.9724 71.808 84.044C71.6935 84.1156 71.5645 84.2445 71.4213 84.4307C71.2853 84.6169 71.1313 84.8712 70.9594 85.1934C70.7875 85.5157 70.5834 85.9275 70.3471 86.4288V93.3575H68.6283V82.5723H70.0571L70.143 84.6241C70.3292 84.2159 70.5082 83.8686 70.6801 83.5821C70.8591 83.2956 71.0418 83.0665 71.228 82.8946C71.4142 82.7156 71.6111 82.5866 71.8188 82.5079C72.0336 82.4219 72.27 82.379 72.5278 82.379C73.1078 82.379 73.5483 82.5687 73.8491 82.9483C74.1498 83.3279 74.3002 83.9151 74.3002 84.71C74.4721 84.3376 74.6404 84.0082 74.8051 83.7217C74.9698 83.4281 75.1453 83.1846 75.3315 82.9913C75.5248 82.7908 75.7361 82.6404 75.9653 82.5401C76.1944 82.4327 76.4594 82.379 76.7602 82.379C78.1137 82.379 78.7905 83.421 78.7905 85.5049V93.3575H77.0717ZM102.52 86.418H93.2817V84.8389H102.52V86.418ZM102.52 90.1563H93.2817V88.5772H102.52V90.1563ZM155.017 95.5596C155.382 95.574 155.737 95.5417 156.08 95.463C156.424 95.3842 156.725 95.266 156.983 95.1085C157.248 94.9581 157.459 94.7683 157.617 94.5391C157.774 94.31 157.853 94.0486 157.853 93.7549C157.853 93.4542 157.799 93.2107 157.692 93.0245C157.592 92.8383 157.477 92.6664 157.348 92.5089C157.219 92.3513 157.101 92.183 156.994 92.004C156.893 91.8249 156.843 91.585 156.843 91.2842C156.843 91.1339 156.872 90.9763 156.929 90.8116C156.986 90.6469 157.072 90.4965 157.187 90.3604C157.309 90.2243 157.459 90.1133 157.638 90.0274C157.824 89.9415 158.043 89.8985 158.293 89.8985C158.544 89.8985 158.784 89.9522 159.013 90.0596C159.249 90.1599 159.454 90.3174 159.625 90.5323C159.804 90.7471 159.944 91.0157 160.044 91.338C160.152 91.6602 160.205 92.0398 160.205 92.4766C160.205 93.071 160.094 93.6404 159.872 94.1846C159.658 94.7361 159.332 95.223 158.895 95.6456C158.465 96.0681 157.925 96.4047 157.273 96.6553C156.628 96.906 155.876 97.0313 155.017 97.0313V95.5596ZM158.379 82.379C158.601 82.379 158.813 82.4255 159.013 82.5186C159.214 82.6046 159.389 82.7227 159.539 82.8731C159.69 83.0235 159.808 83.199 159.894 83.3995C159.987 83.6 160.034 83.8113 160.034 84.0333C160.034 84.2624 159.987 84.4773 159.894 84.6778C159.808 84.8712 159.69 85.043 159.539 85.1934C159.389 85.3438 159.214 85.462 159.013 85.5479C158.813 85.6339 158.601 85.6768 158.379 85.6768C158.15 85.6768 157.935 85.6339 157.735 85.5479C157.541 85.462 157.37 85.3438 157.219 85.1934C157.069 85.043 156.951 84.8712 156.865 84.6778C156.779 84.4773 156.736 84.2624 156.736 84.0333C156.736 83.8113 156.779 83.6 156.865 83.3995C156.951 83.199 157.069 83.0235 157.219 82.8731C157.37 82.7227 157.541 82.6046 157.735 82.5186C157.935 82.4255 158.15 82.379 158.379 82.379Z" fill="white"/>
<path d="M126.754 93.3575H117.935V91.6172H121.544V81.3692L118.182 83.1954L117.495 81.6055L121.963 79.253H123.618V91.6172H126.754V93.3575ZM138.614 88.8672C138.614 89.5619 138.463 90.1957 138.163 90.7686C137.862 91.3415 137.446 91.8357 136.916 92.251C136.394 92.6592 135.774 92.9779 135.058 93.2071C134.342 93.4363 133.568 93.5508 132.738 93.5508C132.53 93.5508 132.304 93.5437 132.061 93.5294C131.825 93.5222 131.588 93.5079 131.352 93.4864C131.116 93.4721 130.883 93.4542 130.654 93.4327C130.432 93.4112 130.231 93.3861 130.052 93.3575V91.6602C130.439 91.7533 130.879 91.8214 131.373 91.8643C131.875 91.9073 132.38 91.9288 132.888 91.9288C133.461 91.9288 133.977 91.8607 134.435 91.7247C134.893 91.5886 135.284 91.3952 135.606 91.1446C135.928 90.8868 136.175 90.5788 136.347 90.2208C136.519 89.8555 136.605 89.4473 136.605 88.9962C136.605 88.1225 136.29 87.4887 135.66 87.0948C135.037 86.6937 134.138 86.4932 132.963 86.4932H130.299V79.3174H137.862V80.9503H132.061V84.8926H133.286C133.959 84.8926 134.614 84.9535 135.251 85.0753C135.889 85.197 136.455 85.4118 136.949 85.7198C137.45 86.0206 137.851 86.4288 138.152 86.9444C138.46 87.4529 138.614 88.0938 138.614 88.8672Z" fill="#F78C6C"/>
<defs>
<filter id="filter0_d_115_4" x="12" y="22" width="332.794" height="97.4301" filterUnits="userSpaceOnUse" color-interpolation-filters="sRGB">
<feFlood flood-opacity="0" result="BackgroundImageFix"/>
<feColorMatrix in="SourceAlpha" type="matrix" values="0 0 0 0 0 0 0 0 0 0 0 0 0 0 0 0 0 0 127 0" result="hardAlpha"/>
<feOffset dy="4"/>
<feGaussianBlur stdDeviation="2"/>
<feComposite in2="hardAlpha" operator="out"/>
<feColorMatrix type="matrix" values="0 0 0 0 0.00392157 0 0 0 0 0.0862745 0 0 0 0 0.152941 0 0 0 0.25 0"/>
<feBlend mode="normal" in2="BackgroundImageFix" result="effect1_dropShadow_115_4"/>
<feBlend mode="normal" in="SourceGraphic" in2="effect1_dropShadow_115_4" result="shape"/>
</filter>
</defs>
</svg>
