<svg width="304" height="207" viewBox="0 0 304 207" fill="none" xmlns="http://www.w3.org/2000/svg">
<rect x="6.5" y="6.5" width="291" height="194" rx="12.5" fill="white"/>
<g clip-path="url(#clip0_615_112)">
<path d="M37 139.914H44.709V109.625L56.6432 136.039C58.0509 139.224 59.9795 140.368 63.7592 140.368C67.5388 140.368 69.3921 139.236 70.802 136.039L82.7374 109.625V139.925H90.4475V109.675C90.4475 106.724 89.2592 105.297 86.8141 104.56C80.9584 102.74 77.0291 104.314 75.2512 108.249L63.5398 134.318L52.1963 108.238C50.4916 104.303 46.4891 102.729 40.6334 104.549C38.186 105.287 37 106.714 37 109.664V139.914ZM96.8551 115.252H104.562V131.946C104.49 132.854 104.854 134.983 109.077 135.048C111.232 135.082 125.706 135.048 125.841 135.048V115.169H133.565C133.599 115.169 133.557 142.274 133.558 142.39C133.6 149.074 125.224 150.526 121.365 150.639H97.0231V145.476L121.408 145.475C126.369 144.952 125.784 142.499 125.784 141.672V139.659H109.399C101.776 139.591 96.9225 136.278 96.862 132.468C96.8562 132.127 97.0265 115.416 96.8574 115.251L96.8551 115.252Z" fill="#00618A"/>
<path d="M139.508 139.914H161.671C164.265 139.914 166.787 139.374 168.79 138.438C172.126 136.914 173.756 134.847 173.756 132.142V126.536C173.756 124.321 171.903 122.256 168.272 120.879C166.344 120.14 163.972 119.747 161.675 119.747H152.334C149.222 119.747 147.739 118.813 147.368 116.747C147.294 116.502 147.294 116.293 147.294 116.058V112.567C147.294 112.37 147.294 112.172 147.368 111.927C147.739 110.353 148.554 109.909 151.297 109.652C151.519 109.652 151.815 109.602 152.039 109.602H174.055V104.488H152.41C149.296 104.488 147.666 104.685 146.182 105.127C141.582 106.555 139.581 108.829 139.581 112.764V117.24C139.581 120.683 143.511 123.634 150.106 124.323C150.849 124.371 151.589 124.42 152.33 124.42H160.336C160.633 124.42 160.93 124.42 161.151 124.47C163.597 124.667 164.636 125.109 165.377 125.994C165.834 126.449 165.971 126.881 165.971 127.359V131.835C165.971 132.376 165.601 133.065 164.859 133.655C164.192 134.246 163.08 134.638 161.597 134.737C161.3 134.737 161.078 134.786 160.782 134.786H139.508V139.901V139.914ZM221.846 131.012C221.846 136.275 225.774 139.226 233.706 139.816C234.446 139.873 235.188 139.906 235.93 139.914H256.019V134.799H235.781C231.26 134.799 229.554 133.667 229.554 130.962V104.499H221.845V131.009L221.846 131.012ZM178.674 131.278V113.042C178.674 108.409 181.942 105.599 188.404 104.712C189.093 104.614 189.789 104.565 190.485 104.564H205.118C205.839 104.565 206.559 104.614 207.273 104.712C213.735 105.599 217.003 108.408 217.003 113.042V131.278C217.003 135.036 215.615 137.048 212.415 138.359L220.009 145.182H211.058L204.914 139.662L198.73 140.053H190.485C189.074 140.053 187.588 139.855 185.953 139.411C181.04 138.081 178.674 135.517 178.674 131.278ZM186.995 130.823C186.995 131.07 187.07 131.315 187.144 131.612C187.601 133.732 189.595 134.915 192.628 134.915H199.632L193.2 129.134H202.151L207.749 134.175C208.783 133.627 209.463 132.788 209.692 131.711C209.766 131.465 209.766 131.219 209.766 130.972V113.487C209.766 113.29 209.766 113.032 209.692 112.797C209.235 110.826 207.24 109.692 204.269 109.692H192.642C189.214 109.692 186.998 111.171 186.998 113.487V130.836L186.995 130.823Z" fill="#E48E00"/>
<path d="M262.801 96.0125C258.063 95.8852 254.442 96.323 251.348 97.6217C250.468 97.9913 249.066 98.0004 248.922 99.0978C249.405 99.6016 249.482 100.354 249.865 100.974C250.604 102.165 251.853 103.76 252.964 104.595C254.18 105.508 255.432 106.486 256.738 107.279C259.058 108.687 261.647 109.491 263.879 110.9C265.196 111.73 266.503 112.776 267.787 113.716C268.421 114.18 268.85 114.901 269.672 115.191V115.056C269.238 114.507 269.127 113.752 268.73 113.18L266.978 111.437C265.264 109.162 263.091 107.187 260.78 105.534C258.937 104.218 254.811 102.439 254.042 100.303L253.907 100.169C255.214 100.021 256.744 99.5516 257.952 99.2309C259.978 98.6907 261.789 98.8294 263.882 98.2927L266.712 97.4875V96.9507C265.654 95.8704 264.9 94.4409 263.747 93.464C260.731 90.9053 257.436 88.3522 254.046 86.22C252.166 85.0373 249.842 84.2708 247.848 83.2689C247.177 82.9323 245.999 82.7571 245.557 82.1953C244.51 80.8671 243.94 79.1817 243.133 77.6465C241.442 74.4054 239.78 70.8641 238.281 67.4536C237.259 65.128 236.59 62.8342 235.317 60.7474C229.199 50.7353 222.612 44.6922 212.411 38.7536C210.24 37.4913 207.627 36.9909 204.864 36.3393L200.417 36.0709C199.512 35.6956 198.571 34.5925 197.721 34.058C194.341 31.9314 185.672 27.3109 183.169 33.3757C181.589 37.2115 185.531 40.9541 186.942 42.8988C187.931 44.2634 189.199 45.7907 189.906 47.3248C190.371 48.3324 190.452 49.3434 190.849 50.4101C191.828 53.0257 192.681 55.8949 193.948 58.3229C194.588 59.5511 195.294 60.8452 196.104 61.9438C196.601 62.6181 197.452 62.915 197.586 63.9566C196.754 65.1166 196.706 66.9134 196.238 68.3827C194.132 74.9922 194.926 83.2063 197.989 88.0986C198.93 89.5998 201.143 92.8204 204.188 91.5854C206.85 90.505 206.244 87.1616 207.018 84.2094C207.189 83.5384 207.084 83.0494 207.422 82.6002V82.7344L209.848 87.5619C211.642 90.439 214.83 93.447 217.529 95.4769C218.928 96.5288 220.042 98.3484 221.841 98.9636V98.8294H221.706C221.355 98.2836 220.807 98.0595 220.358 97.624C219.303 96.5948 218.13 95.3154 217.258 94.1373C214.801 90.8189 212.633 87.1889 210.656 83.4076C209.712 81.6029 208.891 79.6116 208.097 77.775C207.79 77.0665 207.794 75.9964 207.154 75.629C206.282 76.9755 204.998 78.0627 204.324 79.6525C203.245 82.1931 203.106 85.2909 202.707 88.5046C202.47 88.5888 202.576 88.5308 202.437 88.6388C200.561 88.1885 199.901 86.2654 199.204 84.6153C197.44 80.4418 197.113 73.7253 198.665 68.924C199.064 67.6822 200.881 63.7679 200.146 62.6204C199.796 61.4752 198.638 60.8009 197.99 59.9366C197.191 58.8562 196.389 57.4301 195.834 56.1815C194.39 52.929 193.716 49.2786 192.196 45.9886C191.47 44.417 190.243 42.8271 189.233 41.4397C188.115 39.8931 186.864 38.7513 185.999 36.8909C185.691 36.2256 185.272 35.1623 185.729 34.4765C185.773 34.2795 185.872 34.099 186.016 33.9564C186.159 33.8137 186.34 33.7148 186.538 33.6714C187.32 33.0721 189.498 33.8704 190.311 34.2082C192.471 35.102 194.276 35.9526 196.106 37.1592C196.986 37.7278 197.874 38.8605 198.935 39.1721H200.146C202.043 39.6065 204.168 39.3086 205.939 39.8431C209.072 40.7904 211.878 42.2653 214.429 43.8665C222.196 48.7475 228.545 55.6959 232.889 63.9953C233.589 65.3293 233.89 66.6041 234.506 68.0188C235.748 70.8618 237.312 73.8106 238.549 76.6014C239.782 79.3876 240.982 82.1965 242.726 84.5141C243.642 85.731 247.182 86.386 248.789 87.0615C249.917 87.5357 251.764 88.0304 252.832 88.6707C254.871 89.8954 256.848 91.3545 258.762 92.6964C259.718 93.3674 262.658 94.8378 262.804 96.0489L262.801 96.0125Z" fill="#00618A"/>
<path fill-rule="evenodd" clip-rule="evenodd" d="M202.571 44.9151C201.583 44.8969 200.885 45.022 200.145 45.1835V45.3177H200.28C200.751 46.2821 201.583 46.9018 202.165 47.732L203.514 50.5478L203.648 50.4136C204.483 49.8279 204.865 48.892 204.86 47.4625C204.525 47.1122 204.476 46.6733 204.185 46.2548C203.8 45.6975 203.043 45.3814 202.569 44.9128L202.571 44.9151Z" fill="#00618A"/>
<path fill-rule="evenodd" clip-rule="evenodd" d="M259.637 134.653C259.637 138.031 262.319 140.307 265.318 140.307C268.317 140.307 270.999 138.031 270.999 134.653C270.999 131.275 268.317 128.999 265.318 128.999C262.319 128.999 259.637 131.275 259.637 134.653ZM269.726 134.653C269.726 137.216 267.757 139.131 265.316 139.131C262.848 139.131 260.905 137.216 260.905 134.653C260.905 132.09 262.845 130.175 265.316 130.175C267.755 130.175 269.726 132.09 269.726 134.653ZM266.847 137.88H268.118L266.256 135.047C267.256 134.941 268.012 134.457 268.012 133.282C268.012 131.969 267.178 131.428 265.574 131.428H263.043V137.882H264.134V135.092H265.149L266.846 137.882L266.847 137.88ZM264.134 134.184V132.331H265.391C266.042 132.331 266.831 132.451 266.831 133.206C266.831 134.111 266.119 134.187 265.3 134.187H264.134V134.184Z" fill="#E48E00"/>
</g>
<rect x="6.5" y="6.5" width="291" height="194" rx="12.5" stroke="#00618A" stroke-width="13"/>
<defs>
<clipPath id="clip0_615_112">
<rect width="234" height="121" fill="white" transform="translate(37 30)"/>
</clipPath>
</defs>
</svg>
