<svg width="691" height="623" viewBox="0 0 691 623" fill="none" xmlns="http://www.w3.org/2000/svg">
<rect width="691" height="623" fill="#F8F8F8"/>
<g filter="url(#filter0_d_728_120)">
<rect x="20" y="19" width="642" height="569" fill="white"/>
</g>
<path d="M47.35 46.575C49.25 46.575 50.8917 46.9333 52.275 47.65C53.675 48.35 54.7417 49.3583 55.475 50.675C56.225 51.9917 56.6 53.5417 56.6 55.325C56.6 57.1083 56.225 58.6583 55.475 59.975C54.7417 61.275 53.675 62.275 52.275 62.975C50.8917 63.6583 49.25 64 47.35 64H41.925V46.575H47.35ZM47.35 62.125C49.6 62.125 51.3167 61.5333 52.5 60.35C53.6833 59.15 54.275 57.475 54.275 55.325C54.275 53.1583 53.675 51.4667 52.475 50.25C51.2917 49.0333 49.5833 48.425 47.35 48.425H44.2V62.125H47.35ZM61.8758 48.425V54.25H68.2258V56.125H61.8758V62.125H68.9758V64H59.6008V46.55H68.9758V48.425H61.8758ZM71.5682 55.275C71.5682 53.575 71.9515 52.05 72.7182 50.7C73.4848 49.3333 74.5265 48.2667 75.8432 47.5C77.1765 46.7333 78.6515 46.35 80.2682 46.35C82.1682 46.35 83.8265 46.8083 85.2432 47.725C86.6598 48.6417 87.6932 49.9417 88.3432 51.625H85.6182C85.1348 50.575 84.4348 49.7667 83.5182 49.2C82.6182 48.6333 81.5348 48.35 80.2682 48.35C79.0515 48.35 77.9598 48.6333 76.9932 49.2C76.0265 49.7667 75.2682 50.575 74.7182 51.625C74.1682 52.6583 73.8932 53.875 73.8932 55.275C73.8932 56.6583 74.1682 57.875 74.7182 58.925C75.2682 59.9583 76.0265 60.7583 76.9932 61.325C77.9598 61.8917 79.0515 62.175 80.2682 62.175C81.5348 62.175 82.6182 61.9 83.5182 61.35C84.4348 60.7833 85.1348 59.975 85.6182 58.925H88.3432C87.6932 60.5917 86.6598 61.8833 85.2432 62.8C83.8265 63.7 82.1682 64.15 80.2682 64.15C78.6515 64.15 77.1765 63.775 75.8432 63.025C74.5265 62.2583 73.4848 61.2 72.7182 59.85C71.9515 58.5 71.5682 56.975 71.5682 55.275ZM94.0047 62.15H100.105V64H91.7297V46.575H94.0047V62.15ZM112.821 60.125H105.221L103.821 64H101.421L107.721 46.675H110.346L116.621 64H114.221L112.821 60.125ZM112.171 58.275L109.021 49.475L105.871 58.275H112.171ZM128.541 64L124.391 56.875H121.641V64H119.366V46.575H124.991C126.308 46.575 127.416 46.8 128.316 47.25C129.233 47.7 129.916 48.3083 130.366 49.075C130.816 49.8417 131.041 50.7167 131.041 51.7C131.041 52.9 130.691 53.9583 129.991 54.875C129.308 55.7917 128.275 56.4 126.891 56.7L131.266 64H128.541ZM121.641 55.05H124.991C126.225 55.05 127.15 54.75 127.766 54.15C128.383 53.5333 128.691 52.7167 128.691 51.7C128.691 50.6667 128.383 49.8667 127.766 49.3C127.166 48.7333 126.241 48.45 124.991 48.45H121.641V55.05ZM136.851 48.425V54.25H143.201V56.125H136.851V62.125H143.951V64H134.576V46.55H143.951V48.425H136.851ZM41.075 95.1C41.075 93.7 41.3583 92.475 41.925 91.425C42.4917 90.3583 43.2667 89.5333 44.25 88.95C45.25 88.3667 46.3583 88.075 47.575 88.075C48.775 88.075 49.8167 88.3333 50.7 88.85C51.5833 89.3667 52.2417 90.0167 52.675 90.8V88.3H54.975V102H52.675V99.45C52.225 100.25 51.55 100.917 50.65 101.45C49.7667 101.967 48.7333 102.225 47.55 102.225C46.3333 102.225 45.2333 101.925 44.25 101.325C43.2667 100.725 42.4917 99.8833 41.925 98.8C41.3583 97.7167 41.075 96.4833 41.075 95.1ZM52.675 95.125C52.675 94.0917 52.4667 93.1917 52.05 92.425C51.6333 91.6583 51.0667 91.075 50.35 90.675C49.65 90.2583 48.875 90.05 48.025 90.05C47.175 90.05 46.4 90.25 45.7 90.65C45 91.05 44.4417 91.6333 44.025 92.4C43.6083 93.1667 43.4 94.0667 43.4 95.1C43.4 96.15 43.6083 97.0667 44.025 97.85C44.4417 98.6167 45 99.2083 45.7 99.625C46.4 100.025 47.175 100.225 48.025 100.225C48.875 100.225 49.65 100.025 50.35 99.625C51.0667 99.2083 51.6333 98.6167 52.05 97.85C52.4667 97.0667 52.675 96.1583 52.675 95.125ZM72.1596 88.05C73.8262 88.05 75.1762 88.5583 76.2096 89.575C77.2429 90.575 77.7596 92.025 77.7596 93.925V102H75.5096V94.25C75.5096 92.8833 75.1679 91.8417 74.4846 91.125C73.8012 90.3917 72.8679 90.025 71.6846 90.025C70.4846 90.025 69.5262 90.4 68.8096 91.15C68.1096 91.9 67.7596 92.9917 67.7596 94.425V102H65.4846V88.3H67.7596V90.25C68.2096 89.55 68.8179 89.0083 69.5846 88.625C70.3679 88.2417 71.2262 88.05 72.1596 88.05ZM93.6258 88.3V102H91.3508V99.975C90.9174 100.675 90.3091 101.225 89.5258 101.625C88.7591 102.008 87.9091 102.2 86.9758 102.2C85.9091 102.2 84.9508 101.983 84.1008 101.55C83.2508 101.1 82.5758 100.433 82.0758 99.55C81.5924 98.6667 81.3508 97.5917 81.3508 96.325V88.3H83.6008V96.025C83.6008 97.375 83.9424 98.4167 84.6258 99.15C85.3091 99.8667 86.2424 100.225 87.4258 100.225C88.6424 100.225 89.6008 99.85 90.3008 99.1C91.0008 98.35 91.3508 97.2583 91.3508 95.825V88.3H93.6258ZM113.942 88.05C115.009 88.05 115.959 88.275 116.792 88.725C117.625 89.1583 118.284 89.8167 118.767 90.7C119.25 91.5833 119.492 92.6583 119.492 93.925V102H117.242V94.25C117.242 92.8833 116.9 91.8417 116.217 91.125C115.55 90.3917 114.642 90.025 113.492 90.025C112.309 90.025 111.367 90.4083 110.667 91.175C109.967 91.925 109.617 93.0167 109.617 94.45V102H107.367V94.25C107.367 92.8833 107.025 91.8417 106.342 91.125C105.675 90.3917 104.767 90.025 103.617 90.025C102.434 90.025 101.492 90.4083 100.792 91.175C100.092 91.925 99.742 93.0167 99.742 94.45V102H97.467V88.3H99.742V90.275C100.192 89.5583 100.792 89.0083 101.542 88.625C102.309 88.2417 103.15 88.05 104.067 88.05C105.217 88.05 106.234 88.3083 107.117 88.825C108 89.3417 108.659 90.1 109.092 91.1C109.475 90.1333 110.109 89.3833 110.992 88.85C111.875 88.3167 112.859 88.05 113.942 88.05ZM125.499 90.85C125.965 90.0333 126.649 89.3667 127.549 88.85C128.449 88.3333 129.474 88.075 130.624 88.075C131.857 88.075 132.965 88.3667 133.949 88.95C134.932 89.5333 135.707 90.3583 136.274 91.425C136.84 92.475 137.124 93.7 137.124 95.1C137.124 96.4833 136.84 97.7167 136.274 98.8C135.707 99.8833 134.924 100.725 133.924 101.325C132.94 101.925 131.84 102.225 130.624 102.225C129.44 102.225 128.399 101.967 127.499 101.45C126.615 100.933 125.949 100.275 125.499 99.475V102H123.224V83.5H125.499V90.85ZM134.799 95.1C134.799 94.0667 134.59 93.1667 134.174 92.4C133.757 91.6333 133.19 91.05 132.474 90.65C131.774 90.25 130.999 90.05 130.149 90.05C129.315 90.05 128.54 90.2583 127.824 90.675C127.124 91.075 126.557 91.6667 126.124 92.45C125.707 93.2167 125.499 94.1083 125.499 95.125C125.499 96.1583 125.707 97.0667 126.124 97.85C126.557 98.6167 127.124 99.2083 127.824 99.625C128.54 100.025 129.315 100.225 130.149 100.225C130.999 100.225 131.774 100.025 132.474 99.625C133.19 99.2083 133.757 98.6167 134.174 97.85C134.59 97.0667 134.799 96.15 134.799 95.1ZM152.618 94.625C152.618 95.0583 152.593 95.5167 152.543 96H141.593C141.677 97.35 142.135 98.4083 142.968 99.175C143.818 99.925 144.843 100.3 146.043 100.3C147.027 100.3 147.843 100.075 148.493 99.625C149.16 99.1583 149.627 98.5417 149.893 97.775H152.343C151.977 99.0917 151.243 100.167 150.143 101C149.043 101.817 147.677 102.225 146.043 102.225C144.743 102.225 143.577 101.933 142.543 101.35C141.527 100.767 140.727 99.9417 140.143 98.875C139.56 97.7917 139.268 96.5417 139.268 95.125C139.268 93.7083 139.552 92.4667 140.118 91.4C140.685 90.3333 141.477 89.5167 142.493 88.95C143.527 88.3667 144.71 88.075 146.043 88.075C147.343 88.075 148.493 88.3583 149.493 88.925C150.493 89.4917 151.26 90.275 151.793 91.275C152.343 92.2583 152.618 93.375 152.618 94.625ZM150.268 94.15C150.268 93.2833 150.077 92.5417 149.693 91.925C149.31 91.2917 148.785 90.8167 148.118 90.5C147.468 90.1667 146.743 90 145.943 90C144.793 90 143.81 90.3667 142.993 91.1C142.193 91.8333 141.735 92.85 141.618 94.15H150.268ZM157.896 90.525C158.296 89.7417 158.863 89.1333 159.596 88.7C160.346 88.2667 161.255 88.05 162.321 88.05V90.4H161.721C159.171 90.4 157.896 91.7833 157.896 94.55V102H155.621V88.3H157.896V90.525ZM170.797 106.65C169.197 105.083 167.947 103.092 167.047 100.675C166.164 98.2583 165.722 95.65 165.722 92.85C165.722 89.9833 166.189 87.3083 167.122 84.825C168.072 82.325 169.422 80.2667 171.172 78.65H173.547V78.875C171.681 80.625 170.272 82.7333 169.322 85.2C168.389 87.65 167.922 90.2 167.922 92.85C167.922 95.4333 168.364 97.9 169.247 100.25C170.147 102.6 171.456 104.658 173.172 106.425V106.65H170.797ZM175.65 100.175C177.767 98.475 179.425 97.0833 180.625 96C181.825 94.9 182.833 93.7583 183.65 92.575C184.483 91.375 184.9 90.2 184.9 89.05C184.9 87.9667 184.633 87.1167 184.1 86.5C183.583 85.8667 182.742 85.55 181.575 85.55C180.442 85.55 179.558 85.9083 178.925 86.625C178.308 87.325 177.975 88.2667 177.925 89.45H175.725C175.792 87.5833 176.358 86.1417 177.425 85.125C178.492 84.1083 179.867 83.6 181.55 83.6C183.267 83.6 184.625 84.075 185.625 85.025C186.642 85.975 187.15 87.2833 187.15 88.95C187.15 90.3333 186.733 91.6833 185.9 93C185.083 94.3 184.15 95.45 183.1 96.45C182.05 97.4333 180.708 98.5833 179.075 99.9H187.675V101.8H175.65V100.175ZM189.955 106.65V106.425C191.672 104.658 192.972 102.6 193.855 100.25C194.755 97.9 195.205 95.4333 195.205 92.85C195.205 90.2 194.73 87.65 193.78 85.2C192.847 82.7333 191.447 80.625 189.58 78.875V78.65H191.955C193.705 80.2667 195.047 82.325 195.98 84.825C196.93 87.3083 197.405 89.9833 197.405 92.85C197.405 95.65 196.955 98.2583 196.055 100.675C195.172 103.092 193.93 105.083 192.33 106.65H189.955ZM209.422 102.15C208.989 102.15 208.622 102 208.322 101.7C208.022 101.4 207.872 101.033 207.872 100.6C207.872 100.167 208.022 99.8 208.322 99.5C208.622 99.2 208.989 99.05 209.422 99.05C209.839 99.05 210.189 99.2 210.472 99.5C210.772 99.8 210.922 100.167 210.922 100.6C210.922 101.033 210.772 101.4 210.472 101.7C210.189 102 209.839 102.15 209.422 102.15ZM209.422 91.45C208.989 91.45 208.622 91.3 208.322 91C208.022 90.7 207.872 90.3333 207.872 89.9C207.872 89.4667 208.022 89.1 208.322 88.8C208.622 88.5 208.989 88.35 209.422 88.35C209.839 88.35 210.189 88.5 210.472 88.8C210.772 89.1 210.922 89.4667 210.922 89.9C210.922 90.3333 210.772 90.7 210.472 91C210.189 91.3 209.839 91.45 209.422 91.45ZM227.62 89.2V91.125H214.62V89.2H227.62ZM227.62 94.575V96.5H214.62V94.575H227.62ZM238.326 88.475C238.443 86.9417 239.035 85.7417 240.101 84.875C241.168 84.0083 242.551 83.575 244.251 83.575C245.385 83.575 246.36 83.7833 247.176 84.2C248.01 84.6 248.635 85.15 249.051 85.85C249.485 86.55 249.701 87.3417 249.701 88.225C249.701 89.2583 249.401 90.15 248.801 90.9C248.218 91.65 247.451 92.1333 246.501 92.35V92.475C247.585 92.7417 248.443 93.2667 249.076 94.05C249.71 94.8333 250.026 95.8583 250.026 97.125C250.026 98.075 249.81 98.9333 249.376 99.7C248.943 100.45 248.293 101.042 247.426 101.475C246.56 101.908 245.518 102.125 244.301 102.125C242.535 102.125 241.085 101.667 239.951 100.75C238.818 99.8167 238.185 98.5 238.051 96.8H240.251C240.368 97.8 240.776 98.6167 241.476 99.25C242.176 99.8833 243.11 100.2 244.276 100.2C245.443 100.2 246.326 99.9 246.926 99.3C247.543 98.6833 247.851 97.8917 247.851 96.925C247.851 95.675 247.435 94.775 246.601 94.225C245.768 93.675 244.51 93.4 242.826 93.4H242.251V91.5H242.851C244.385 91.4833 245.543 91.2333 246.326 90.75C247.11 90.25 247.501 89.4833 247.501 88.45C247.501 87.5667 247.21 86.8583 246.626 86.325C246.06 85.7917 245.243 85.525 244.176 85.525C243.143 85.525 242.31 85.7917 241.676 86.325C241.043 86.8583 240.668 87.575 240.551 88.475H238.326ZM253.098 92.775C253.098 89.9083 253.565 87.675 254.498 86.075C255.431 84.4583 257.065 83.65 259.398 83.65C261.715 83.65 263.34 84.4583 264.273 86.075C265.206 87.675 265.673 89.9083 265.673 92.775C265.673 95.6917 265.206 97.9583 264.273 99.575C263.34 101.192 261.715 102 259.398 102C257.065 102 255.431 101.192 254.498 99.575C253.565 97.9583 253.098 95.6917 253.098 92.775ZM263.423 92.775C263.423 91.325 263.323 90.1 263.123 89.1C262.94 88.0833 262.548 87.2667 261.948 86.65C261.365 86.0333 260.515 85.725 259.398 85.725C258.265 85.725 257.398 86.0333 256.798 86.65C256.215 87.2667 255.823 88.0833 255.623 89.1C255.44 90.1 255.348 91.325 255.348 92.775C255.348 94.275 255.44 95.5333 255.623 96.55C255.823 97.5667 256.215 98.3833 256.798 99C257.398 99.6167 258.265 99.925 259.398 99.925C260.515 99.925 261.365 99.6167 261.948 99C262.548 98.3833 262.94 97.5667 263.123 96.55C263.323 95.5333 263.423 94.275 263.423 92.775ZM270.496 91.425C270.063 91.425 269.696 91.275 269.396 90.975C269.096 90.675 268.946 90.3083 268.946 89.875C268.946 89.4417 269.096 89.075 269.396 88.775C269.696 88.475 270.063 88.325 270.496 88.325C270.913 88.325 271.263 88.475 271.546 88.775C271.846 89.075 271.996 89.4417 271.996 89.875C271.996 90.3083 271.846 90.675 271.546 90.975C271.263 91.275 270.913 91.425 270.496 91.425ZM272.146 98.85L269.346 105.575H267.821L269.646 98.85H272.146ZM50.65 131.025C51.2833 131.125 51.8583 131.383 52.375 131.8C52.9083 132.217 53.325 132.733 53.625 133.35C53.9417 133.967 54.1 134.625 54.1 135.325C54.1 136.208 53.875 137.008 53.425 137.725C52.975 138.425 52.3167 138.983 51.45 139.4C50.6 139.8 49.5917 140 48.425 140H41.925V122.575H48.175C49.3583 122.575 50.3667 122.775 51.2 123.175C52.0333 123.558 52.6583 124.083 53.075 124.75C53.4917 125.417 53.7 126.167 53.7 127C53.7 128.033 53.4167 128.892 52.85 129.575C52.3 130.242 51.5667 130.725 50.65 131.025ZM44.2 130.1H48.025C49.0917 130.1 49.9167 129.85 50.5 129.35C51.0833 128.85 51.375 128.158 51.375 127.275C51.375 126.392 51.0833 125.7 50.5 125.2C49.9167 124.7 49.075 124.45 47.975 124.45H44.2V130.1ZM48.225 138.125C49.3583 138.125 50.2417 137.858 50.875 137.325C51.5083 136.792 51.825 136.05 51.825 135.1C51.825 134.133 51.4917 133.375 50.825 132.825C50.1583 132.258 49.2667 131.975 48.15 131.975H44.2V138.125H48.225ZM59.532 124.425V130.25H65.882V132.125H59.532V138.125H66.632V140H57.257V122.55H66.632V124.425H59.532ZM83.2744 127.625C82.7911 126.608 82.0911 125.825 81.1744 125.275C80.2577 124.708 79.1911 124.425 77.9744 124.425C76.7577 124.425 75.6577 124.708 74.6744 125.275C73.7077 125.825 72.9411 126.625 72.3744 127.675C71.8244 128.708 71.5494 129.908 71.5494 131.275C71.5494 132.642 71.8244 133.842 72.3744 134.875C72.9411 135.908 73.7077 136.708 74.6744 137.275C75.6577 137.825 76.7577 138.1 77.9744 138.1C79.6744 138.1 81.0744 137.592 82.1744 136.575C83.2744 135.558 83.9161 134.183 84.0994 132.45H77.1494V130.6H86.5244V132.35C86.3911 133.783 85.9411 135.1 85.1744 136.3C84.4077 137.483 83.3994 138.425 82.1494 139.125C80.8994 139.808 79.5077 140.15 77.9744 140.15C76.3577 140.15 74.8827 139.775 73.5494 139.025C72.2161 138.258 71.1577 137.2 70.3744 135.85C69.6077 134.5 69.2244 132.975 69.2244 131.275C69.2244 129.575 69.6077 128.05 70.3744 126.7C71.1577 125.333 72.2161 124.275 73.5494 123.525C74.8827 122.758 76.3577 122.375 77.9744 122.375C79.8244 122.375 81.4577 122.833 82.8744 123.75C84.3077 124.667 85.3494 125.958 85.9994 127.625H83.2744ZM91.8074 122.575V140H89.5324V122.575H91.8074ZM109.385 140H107.11L97.9598 126.125V140H95.6848V122.55H97.9598L107.11 136.4V122.55H109.385V140ZM48.125 174.6L42.1 168.85L48.125 163.125H51L44.95 168.85L51 174.6H48.125ZM61.9922 174.6L55.9672 168.85L61.9922 163.125H64.8672L58.8172 168.85L64.8672 174.6H61.9922ZM71.9344 159.5V178H69.6594V159.5H71.9344ZM81.7867 178.225C80.5034 178.225 79.3367 177.933 78.2867 177.35C77.2534 176.767 76.4367 175.942 75.8367 174.875C75.2534 173.792 74.9617 172.542 74.9617 171.125C74.9617 169.725 75.2617 168.492 75.8617 167.425C76.4784 166.342 77.3117 165.517 78.3617 164.95C79.4117 164.367 80.5867 164.075 81.8867 164.075C83.1867 164.075 84.3617 164.367 85.4117 164.95C86.4617 165.517 87.2867 166.333 87.8867 167.4C88.5034 168.467 88.8117 169.708 88.8117 171.125C88.8117 172.542 88.4951 173.792 87.8617 174.875C87.2451 175.942 86.4034 176.767 85.3367 177.35C84.2701 177.933 83.0867 178.225 81.7867 178.225ZM81.7867 176.225C82.6034 176.225 83.3701 176.033 84.0867 175.65C84.8034 175.267 85.3784 174.692 85.8117 173.925C86.2617 173.158 86.4867 172.225 86.4867 171.125C86.4867 170.025 86.2701 169.092 85.8367 168.325C85.4034 167.558 84.8367 166.992 84.1367 166.625C83.4367 166.242 82.6784 166.05 81.8617 166.05C81.0284 166.05 80.2617 166.242 79.5617 166.625C78.8784 166.992 78.3284 167.558 77.9117 168.325C77.4951 169.092 77.2867 170.025 77.2867 171.125C77.2867 172.242 77.4867 173.183 77.8867 173.95C78.3034 174.717 78.8534 175.292 79.5367 175.675C80.2201 176.042 80.9701 176.225 81.7867 176.225ZM97.7779 178.225C96.4946 178.225 95.3279 177.933 94.2779 177.35C93.2446 176.767 92.4279 175.942 91.8279 174.875C91.2446 173.792 90.9529 172.542 90.9529 171.125C90.9529 169.725 91.2529 168.492 91.8529 167.425C92.4696 166.342 93.3029 165.517 94.3529 164.95C95.4029 164.367 96.5779 164.075 97.8779 164.075C99.1779 164.075 100.353 164.367 101.403 164.95C102.453 165.517 103.278 166.333 103.878 167.4C104.495 168.467 104.803 169.708 104.803 171.125C104.803 172.542 104.486 173.792 103.853 174.875C103.236 175.942 102.395 176.767 101.328 177.35C100.261 177.933 99.0779 178.225 97.7779 178.225ZM97.7779 176.225C98.5946 176.225 99.3613 176.033 100.078 175.65C100.795 175.267 101.37 174.692 101.803 173.925C102.253 173.158 102.478 172.225 102.478 171.125C102.478 170.025 102.261 169.092 101.828 168.325C101.395 167.558 100.828 166.992 100.128 166.625C99.4279 166.242 98.6696 166.05 97.8529 166.05C97.0196 166.05 96.2529 166.242 95.5529 166.625C94.8696 166.992 94.3196 167.558 93.9029 168.325C93.4863 169.092 93.2779 170.025 93.2779 171.125C93.2779 172.242 93.4779 173.183 93.8779 173.95C94.2946 174.717 94.8446 175.292 95.5279 175.675C96.2113 176.042 96.9613 176.225 97.7779 176.225ZM110.069 166.825C110.519 166.042 111.186 165.392 112.069 164.875C112.969 164.342 114.011 164.075 115.194 164.075C116.411 164.075 117.511 164.367 118.494 164.95C119.494 165.533 120.277 166.358 120.844 167.425C121.411 168.475 121.694 169.7 121.694 171.1C121.694 172.483 121.411 173.717 120.844 174.8C120.277 175.883 119.494 176.725 118.494 177.325C117.511 177.925 116.411 178.225 115.194 178.225C114.027 178.225 112.994 177.967 112.094 177.45C111.211 176.917 110.536 176.258 110.069 175.475V184.5H107.794V164.3H110.069V166.825ZM119.369 171.1C119.369 170.067 119.161 169.167 118.744 168.4C118.327 167.633 117.761 167.05 117.044 166.65C116.344 166.25 115.569 166.05 114.719 166.05C113.886 166.05 113.111 166.258 112.394 166.675C111.694 167.075 111.127 167.667 110.694 168.45C110.277 169.217 110.069 170.108 110.069 171.125C110.069 172.158 110.277 173.067 110.694 173.85C111.127 174.617 111.694 175.208 112.394 175.625C113.111 176.025 113.886 176.225 114.719 176.225C115.569 176.225 116.344 176.025 117.044 175.625C117.761 175.208 118.327 174.617 118.744 173.85C119.161 173.067 119.369 172.15 119.369 171.1ZM129.539 178.225C128.489 178.225 127.547 178.05 126.714 177.7C125.88 177.333 125.222 176.833 124.739 176.2C124.255 175.55 123.989 174.808 123.939 173.975H126.289C126.355 174.658 126.672 175.217 127.239 175.65C127.822 176.083 128.58 176.3 129.514 176.3C130.38 176.3 131.064 176.108 131.564 175.725C132.064 175.342 132.314 174.858 132.314 174.275C132.314 173.675 132.047 173.233 131.514 172.95C130.98 172.65 130.155 172.358 129.039 172.075C128.022 171.808 127.189 171.542 126.539 171.275C125.905 170.992 125.355 170.583 124.889 170.05C124.439 169.5 124.214 168.783 124.214 167.9C124.214 167.2 124.422 166.558 124.839 165.975C125.255 165.392 125.847 164.933 126.614 164.6C127.38 164.25 128.255 164.075 129.239 164.075C130.755 164.075 131.98 164.458 132.914 165.225C133.847 165.992 134.347 167.042 134.414 168.375H132.139C132.089 167.658 131.797 167.083 131.264 166.65C130.747 166.217 130.047 166 129.164 166C128.347 166 127.697 166.175 127.214 166.525C126.73 166.875 126.489 167.333 126.489 167.9C126.489 168.35 126.63 168.725 126.914 169.025C127.214 169.308 127.58 169.542 128.014 169.725C128.464 169.892 129.08 170.083 129.864 170.3C130.847 170.567 131.647 170.833 132.264 171.1C132.88 171.35 133.405 171.733 133.839 172.25C134.289 172.767 134.522 173.442 134.539 174.275C134.539 175.025 134.33 175.7 133.914 176.3C133.497 176.9 132.905 177.375 132.139 177.725C131.389 178.058 130.522 178.225 129.539 178.225ZM140.525 166.175V174.25C140.525 174.917 140.667 175.392 140.95 175.675C141.234 175.942 141.725 176.075 142.425 176.075H144.1V178H142.05C140.784 178 139.834 177.708 139.2 177.125C138.567 176.542 138.25 175.583 138.25 174.25V166.175H136.475V164.3H138.25V160.85H140.525V164.3H144.1V166.175H140.525ZM146.007 171.1C146.007 169.7 146.29 168.475 146.857 167.425C147.423 166.358 148.198 165.533 149.182 164.95C150.182 164.367 151.29 164.075 152.507 164.075C153.707 164.075 154.748 164.333 155.632 164.85C156.515 165.367 157.173 166.017 157.607 166.8V164.3H159.907V178H157.607V175.45C157.157 176.25 156.482 176.917 155.582 177.45C154.698 177.967 153.665 178.225 152.482 178.225C151.265 178.225 150.165 177.925 149.182 177.325C148.198 176.725 147.423 175.883 146.857 174.8C146.29 173.717 146.007 172.483 146.007 171.1ZM157.607 171.125C157.607 170.092 157.398 169.192 156.982 168.425C156.565 167.658 155.998 167.075 155.282 166.675C154.582 166.258 153.807 166.05 152.957 166.05C152.107 166.05 151.332 166.25 150.632 166.65C149.932 167.05 149.373 167.633 148.957 168.4C148.54 169.167 148.332 170.067 148.332 171.1C148.332 172.15 148.54 173.067 148.957 173.85C149.373 174.617 149.932 175.208 150.632 175.625C151.332 176.025 152.107 176.225 152.957 176.225C153.807 176.225 154.582 176.025 155.282 175.625C155.998 175.208 156.565 174.617 156.982 173.85C157.398 173.067 157.607 172.158 157.607 171.125ZM166.026 166.525C166.426 165.742 166.993 165.133 167.726 164.7C168.476 164.267 169.385 164.05 170.451 164.05V166.4H169.851C167.301 166.4 166.026 167.783 166.026 170.55V178H163.751V164.3H166.026V166.525ZM175.852 166.175V174.25C175.852 174.917 175.994 175.392 176.277 175.675C176.561 175.942 177.052 176.075 177.752 176.075H179.427V178H177.377C176.111 178 175.161 177.708 174.527 177.125C173.894 176.542 173.577 175.583 173.577 174.25V166.175H171.802V164.3H173.577V160.85H175.852V164.3H179.427V166.175H175.852ZM182.609 163.125H185.484L191.534 168.85L185.484 174.6H182.609L188.659 168.85L182.609 163.125ZM196.085 163.125H198.96L205.01 168.85L198.96 174.6H196.085L202.135 168.85L196.085 163.125ZM63.825 236.575L58.775 254H56.225L52.175 239.975L47.975 254L45.45 254.025L40.575 236.575H43L46.8 251.35L51 236.575H53.55L57.55 251.3L61.375 236.575H63.825ZM79.7396 236.575V254H77.4646V246.1H68.5896V254H66.3146V236.575H68.5896V244.225H77.4646V236.575H79.7396ZM85.8992 236.575V254H83.6242V236.575H85.8992ZM92.0516 252.15H98.1516V254H89.7766V236.575H92.0516V252.15ZM102.843 238.425V244.25H109.193V246.125H102.843V252.125H109.943V254H100.568V236.55H109.943V238.425H102.843ZM119.2 247.1C119.2 245.7 119.483 244.475 120.05 243.425C120.617 242.358 121.392 241.533 122.375 240.95C123.375 240.367 124.483 240.075 125.7 240.075C126.9 240.075 127.942 240.333 128.825 240.85C129.708 241.367 130.367 242.017 130.8 242.8V240.3H133.1V254H130.8V251.45C130.35 252.25 129.675 252.917 128.775 253.45C127.892 253.967 126.858 254.225 125.675 254.225C124.458 254.225 123.358 253.925 122.375 253.325C121.392 252.725 120.617 251.883 120.05 250.8C119.483 249.717 119.2 248.483 119.2 247.1ZM130.8 247.125C130.8 246.092 130.592 245.192 130.175 244.425C129.758 243.658 129.192 243.075 128.475 242.675C127.775 242.258 127 242.05 126.15 242.05C125.3 242.05 124.525 242.25 123.825 242.65C123.125 243.05 122.567 243.633 122.15 244.4C121.733 245.167 121.525 246.067 121.525 247.1C121.525 248.15 121.733 249.067 122.15 249.85C122.567 250.617 123.125 251.208 123.825 251.625C124.525 252.025 125.3 252.225 126.15 252.225C127 252.225 127.775 252.025 128.475 251.625C129.192 251.208 129.758 250.617 130.175 249.85C130.592 249.067 130.8 248.158 130.8 247.125ZM149.81 250.6L143.785 244.85L149.81 239.125H152.685L146.635 244.85L152.685 250.6H149.81ZM175.292 237.9H166.517V243.6C166.9 243.067 167.467 242.633 168.217 242.3C168.967 241.95 169.775 241.775 170.642 241.775C172.025 241.775 173.15 242.067 174.017 242.65C174.883 243.217 175.5 243.958 175.867 244.875C176.25 245.775 176.442 246.733 176.442 247.75C176.442 248.95 176.217 250.025 175.767 250.975C175.317 251.925 174.625 252.675 173.692 253.225C172.775 253.775 171.633 254.05 170.267 254.05C168.517 254.05 167.1 253.6 166.017 252.7C164.933 251.8 164.275 250.6 164.042 249.1H166.267C166.483 250.05 166.942 250.792 167.642 251.325C168.342 251.858 169.225 252.125 170.292 252.125C171.608 252.125 172.6 251.733 173.267 250.95C173.933 250.15 174.267 249.1 174.267 247.8C174.267 246.5 173.933 245.5 173.267 244.8C172.6 244.083 171.617 243.725 170.317 243.725C169.433 243.725 168.658 243.942 167.992 244.375C167.342 244.792 166.867 245.367 166.567 246.1H164.417V235.9H175.292V237.9ZM179.465 244.775C179.465 241.908 179.932 239.675 180.865 238.075C181.798 236.458 183.432 235.65 185.765 235.65C188.082 235.65 189.707 236.458 190.64 238.075C191.573 239.675 192.04 241.908 192.04 244.775C192.04 247.692 191.573 249.958 190.64 251.575C189.707 253.192 188.082 254 185.765 254C183.432 254 181.798 253.192 180.865 251.575C179.932 249.958 179.465 247.692 179.465 244.775ZM189.79 244.775C189.79 243.325 189.69 242.1 189.49 241.1C189.307 240.083 188.915 239.267 188.315 238.65C187.732 238.033 186.882 237.725 185.765 237.725C184.632 237.725 183.765 238.033 183.165 238.65C182.582 239.267 182.19 240.083 181.99 241.1C181.807 242.1 181.715 243.325 181.715 244.775C181.715 246.275 181.807 247.533 181.99 248.55C182.19 249.567 182.582 250.383 183.165 251C183.765 251.617 184.632 251.925 185.765 251.925C186.882 251.925 187.732 251.617 188.315 251C188.915 250.383 189.307 249.567 189.49 248.55C189.69 247.533 189.79 246.275 189.79 244.775ZM204.478 252.15H210.578V254H202.203V236.575H204.478V252.15ZM220.894 254.175C219.278 254.175 217.803 253.8 216.469 253.05C215.136 252.283 214.078 251.225 213.294 249.875C212.528 248.508 212.144 246.975 212.144 245.275C212.144 243.575 212.528 242.05 213.294 240.7C214.078 239.333 215.136 238.275 216.469 237.525C217.803 236.758 219.278 236.375 220.894 236.375C222.528 236.375 224.011 236.758 225.344 237.525C226.678 238.275 227.728 239.325 228.494 240.675C229.261 242.025 229.644 243.558 229.644 245.275C229.644 246.992 229.261 248.525 228.494 249.875C227.728 251.225 226.678 252.283 225.344 253.05C224.011 253.8 222.528 254.175 220.894 254.175ZM220.894 252.2C222.111 252.2 223.203 251.917 224.169 251.35C225.153 250.783 225.919 249.975 226.469 248.925C227.036 247.875 227.319 246.658 227.319 245.275C227.319 243.875 227.036 242.658 226.469 241.625C225.919 240.575 225.161 239.767 224.194 239.2C223.228 238.633 222.128 238.35 220.894 238.35C219.661 238.35 218.561 238.633 217.594 239.2C216.628 239.767 215.861 240.575 215.294 241.625C214.744 242.658 214.469 243.875 214.469 245.275C214.469 246.658 214.744 247.875 215.294 248.925C215.861 249.975 216.628 250.783 217.594 251.35C218.578 251.917 219.678 252.2 220.894 252.2ZM240.548 254.175C238.931 254.175 237.456 253.8 236.123 253.05C234.789 252.283 233.731 251.225 232.948 249.875C232.181 248.508 231.798 246.975 231.798 245.275C231.798 243.575 232.181 242.05 232.948 240.7C233.731 239.333 234.789 238.275 236.123 237.525C237.456 236.758 238.931 236.375 240.548 236.375C242.181 236.375 243.664 236.758 244.998 237.525C246.331 238.275 247.381 239.325 248.148 240.675C248.914 242.025 249.298 243.558 249.298 245.275C249.298 246.992 248.914 248.525 248.148 249.875C247.381 251.225 246.331 252.283 244.998 253.05C243.664 253.8 242.181 254.175 240.548 254.175ZM240.548 252.2C241.764 252.2 242.856 251.917 243.823 251.35C244.806 250.783 245.573 249.975 246.123 248.925C246.689 247.875 246.973 246.658 246.973 245.275C246.973 243.875 246.689 242.658 246.123 241.625C245.573 240.575 244.814 239.767 243.848 239.2C242.881 238.633 241.781 238.35 240.548 238.35C239.314 238.35 238.214 238.633 237.248 239.2C236.281 239.767 235.514 240.575 234.948 241.625C234.398 242.658 234.123 243.875 234.123 245.275C234.123 246.658 234.398 247.875 234.948 248.925C235.514 249.975 236.281 250.783 237.248 251.35C238.231 251.917 239.331 252.2 240.548 252.2ZM263.951 241.675C263.951 243.125 263.451 244.333 262.451 245.3C261.468 246.25 259.959 246.725 257.926 246.725H254.576V254H252.301V236.575H257.926C259.893 236.575 261.384 237.05 262.401 238C263.434 238.95 263.951 240.175 263.951 241.675ZM257.926 244.85C259.193 244.85 260.126 244.575 260.726 244.025C261.326 243.475 261.626 242.692 261.626 241.675C261.626 239.525 260.393 238.45 257.926 238.45H254.576V244.85H257.926ZM41.075 285.1C41.075 283.7 41.3583 282.475 41.925 281.425C42.4917 280.358 43.2667 279.533 44.25 278.95C45.25 278.367 46.3667 278.075 47.6 278.075C48.6667 278.075 49.6583 278.325 50.575 278.825C51.4917 279.308 52.1917 279.95 52.675 280.75V273.5H54.975V292H52.675V289.425C52.225 290.242 51.5583 290.917 50.675 291.45C49.7917 291.967 48.7583 292.225 47.575 292.225C46.3583 292.225 45.25 291.925 44.25 291.325C43.2667 290.725 42.4917 289.883 41.925 288.8C41.3583 287.717 41.075 286.483 41.075 285.1ZM52.675 285.125C52.675 284.092 52.4667 283.192 52.05 282.425C51.6333 281.658 51.0667 281.075 50.35 280.675C49.65 280.258 48.875 280.05 48.025 280.05C47.175 280.05 46.4 280.25 45.7 280.65C45 281.05 44.4417 281.633 44.025 282.4C43.6083 283.167 43.4 284.067 43.4 285.1C43.4 286.15 43.6083 287.067 44.025 287.85C44.4417 288.617 45 289.208 45.7 289.625C46.4 290.025 47.175 290.225 48.025 290.225C48.875 290.225 49.65 290.025 50.35 289.625C51.0667 289.208 51.6333 288.617 52.05 287.85C52.4667 287.067 52.675 286.158 52.675 285.125ZM61.0945 280.85C61.5612 280.033 62.2445 279.367 63.1445 278.85C64.0445 278.333 65.0695 278.075 66.2195 278.075C67.4529 278.075 68.5612 278.367 69.5445 278.95C70.5279 279.533 71.3029 280.358 71.8695 281.425C72.4362 282.475 72.7195 283.7 72.7195 285.1C72.7195 286.483 72.4362 287.717 71.8695 288.8C71.3029 289.883 70.5195 290.725 69.5195 291.325C68.5362 291.925 67.4362 292.225 66.2195 292.225C65.0362 292.225 63.9945 291.967 63.0945 291.45C62.2112 290.933 61.5445 290.275 61.0945 289.475V292H58.8195V273.5H61.0945V280.85ZM70.3945 285.1C70.3945 284.067 70.1862 283.167 69.7695 282.4C69.3529 281.633 68.7862 281.05 68.0695 280.65C67.3695 280.25 66.5945 280.05 65.7445 280.05C64.9112 280.05 64.1362 280.258 63.4195 280.675C62.7195 281.075 62.1529 281.667 61.7195 282.45C61.3029 283.217 61.0945 284.108 61.0945 285.125C61.0945 286.158 61.3029 287.067 61.7195 287.85C62.1529 288.617 62.7195 289.208 63.4195 289.625C64.1362 290.025 64.9112 290.225 65.7445 290.225C66.5945 290.225 67.3695 290.025 68.0695 289.625C68.7862 289.208 69.3529 288.617 69.7695 287.85C70.1862 287.067 70.3945 286.15 70.3945 285.1ZM92.1891 278.05C93.2557 278.05 94.2057 278.275 95.0391 278.725C95.8724 279.158 96.5307 279.817 97.0141 280.7C97.4974 281.583 97.7391 282.658 97.7391 283.925V292H95.4891V284.25C95.4891 282.883 95.1474 281.842 94.4641 281.125C93.7974 280.392 92.8891 280.025 91.7391 280.025C90.5557 280.025 89.6141 280.408 88.9141 281.175C88.2141 281.925 87.8641 283.017 87.8641 284.45V292H85.6141V284.25C85.6141 282.883 85.2724 281.842 84.5891 281.125C83.9224 280.392 83.0141 280.025 81.8641 280.025C80.6807 280.025 79.7391 280.408 79.0391 281.175C78.3391 281.925 77.9891 283.017 77.9891 284.45V292H75.7141V278.3H77.9891V280.275C78.4391 279.558 79.0391 279.008 79.7891 278.625C80.5557 278.242 81.3974 278.05 82.3141 278.05C83.4641 278.05 84.4807 278.308 85.3641 278.825C86.2474 279.342 86.9057 280.1 87.3391 281.1C87.7224 280.133 88.3557 279.383 89.2391 278.85C90.1224 278.317 91.1057 278.05 92.1891 278.05ZM106.321 292.225C105.271 292.225 104.329 292.05 103.496 291.7C102.663 291.333 102.004 290.833 101.521 290.2C101.038 289.55 100.771 288.808 100.721 287.975H103.071C103.138 288.658 103.454 289.217 104.021 289.65C104.604 290.083 105.363 290.3 106.296 290.3C107.163 290.3 107.846 290.108 108.346 289.725C108.846 289.342 109.096 288.858 109.096 288.275C109.096 287.675 108.829 287.233 108.296 286.95C107.763 286.65 106.938 286.358 105.821 286.075C104.804 285.808 103.971 285.542 103.321 285.275C102.688 284.992 102.138 284.583 101.671 284.05C101.221 283.5 100.996 282.783 100.996 281.9C100.996 281.2 101.204 280.558 101.621 279.975C102.038 279.392 102.629 278.933 103.396 278.6C104.163 278.25 105.038 278.075 106.021 278.075C107.538 278.075 108.763 278.458 109.696 279.225C110.629 279.992 111.129 281.042 111.196 282.375H108.921C108.871 281.658 108.579 281.083 108.046 280.65C107.529 280.217 106.829 280 105.946 280C105.129 280 104.479 280.175 103.996 280.525C103.513 280.875 103.271 281.333 103.271 281.9C103.271 282.35 103.413 282.725 103.696 283.025C103.996 283.308 104.363 283.542 104.796 283.725C105.246 283.892 105.863 284.083 106.646 284.3C107.629 284.567 108.429 284.833 109.046 285.1C109.663 285.35 110.188 285.733 110.621 286.25C111.071 286.767 111.304 287.442 111.321 288.275C111.321 289.025 111.113 289.7 110.696 290.3C110.279 290.9 109.688 291.375 108.921 291.725C108.171 292.058 107.304 292.225 106.321 292.225ZM128.532 292.95V295.05H115.232V292.95H128.532ZM138.842 292.225C137.559 292.225 136.392 291.933 135.342 291.35C134.309 290.767 133.492 289.942 132.892 288.875C132.309 287.792 132.017 286.542 132.017 285.125C132.017 283.725 132.317 282.492 132.917 281.425C133.534 280.342 134.367 279.517 135.417 278.95C136.467 278.367 137.642 278.075 138.942 278.075C140.242 278.075 141.417 278.367 142.467 278.95C143.517 279.517 144.342 280.333 144.942 281.4C145.559 282.467 145.867 283.708 145.867 285.125C145.867 286.542 145.551 287.792 144.917 288.875C144.301 289.942 143.459 290.767 142.392 291.35C141.326 291.933 140.142 292.225 138.842 292.225ZM138.842 290.225C139.659 290.225 140.426 290.033 141.142 289.65C141.859 289.267 142.434 288.692 142.867 287.925C143.317 287.158 143.542 286.225 143.542 285.125C143.542 284.025 143.326 283.092 142.892 282.325C142.459 281.558 141.892 280.992 141.192 280.625C140.492 280.242 139.734 280.05 138.917 280.05C138.084 280.05 137.317 280.242 136.617 280.625C135.934 280.992 135.384 281.558 134.967 282.325C134.551 283.092 134.342 284.025 134.342 285.125C134.342 286.242 134.542 287.183 134.942 287.95C135.359 288.717 135.909 289.292 136.592 289.675C137.276 290.042 138.026 290.225 138.842 290.225ZM161.009 278.3V292H158.734V289.975C158.3 290.675 157.692 291.225 156.909 291.625C156.142 292.008 155.292 292.2 154.359 292.2C153.292 292.2 152.334 291.983 151.484 291.55C150.634 291.1 149.959 290.433 149.459 289.55C148.975 288.667 148.734 287.592 148.734 286.325V278.3H150.984V286.025C150.984 287.375 151.325 288.417 152.009 289.15C152.692 289.867 153.625 290.225 154.809 290.225C156.025 290.225 156.984 289.85 157.684 289.1C158.384 288.35 158.734 287.258 158.734 285.825V278.3H161.009ZM167.625 280.175V288.25C167.625 288.917 167.766 289.392 168.05 289.675C168.333 289.942 168.825 290.075 169.525 290.075H171.2V292H169.15C167.883 292 166.933 291.708 166.3 291.125C165.666 290.542 165.35 289.583 165.35 288.25V280.175H163.575V278.3H165.35V274.85H167.625V278.3H171.2V280.175H167.625ZM176.231 280.825C176.681 280.042 177.348 279.392 178.231 278.875C179.131 278.342 180.173 278.075 181.356 278.075C182.573 278.075 183.673 278.367 184.656 278.95C185.656 279.533 186.44 280.358 187.006 281.425C187.573 282.475 187.856 283.7 187.856 285.1C187.856 286.483 187.573 287.717 187.006 288.8C186.44 289.883 185.656 290.725 184.656 291.325C183.673 291.925 182.573 292.225 181.356 292.225C180.19 292.225 179.156 291.967 178.256 291.45C177.373 290.917 176.698 290.258 176.231 289.475V298.5H173.956V278.3H176.231V280.825ZM185.531 285.1C185.531 284.067 185.323 283.167 184.906 282.4C184.49 281.633 183.923 281.05 183.206 280.65C182.506 280.25 181.731 280.05 180.881 280.05C180.048 280.05 179.273 280.258 178.556 280.675C177.856 281.075 177.29 281.667 176.856 282.45C176.44 283.217 176.231 284.108 176.231 285.125C176.231 286.158 176.44 287.067 176.856 287.85C177.29 288.617 177.856 289.208 178.556 289.625C179.273 290.025 180.048 290.225 180.881 290.225C181.731 290.225 182.506 290.025 183.206 289.625C183.923 289.208 184.49 288.617 184.906 287.85C185.323 287.067 185.531 286.15 185.531 285.1ZM203.001 278.3V292H200.726V289.975C200.292 290.675 199.684 291.225 198.901 291.625C198.134 292.008 197.284 292.2 196.351 292.2C195.284 292.2 194.326 291.983 193.476 291.55C192.626 291.1 191.951 290.433 191.451 289.55C190.967 288.667 190.726 287.592 190.726 286.325V278.3H192.976V286.025C192.976 287.375 193.317 288.417 194.001 289.15C194.684 289.867 195.617 290.225 196.801 290.225C198.017 290.225 198.976 289.85 199.676 289.1C200.376 288.35 200.726 287.258 200.726 285.825V278.3H203.001ZM209.617 280.175V288.25C209.617 288.917 209.759 289.392 210.042 289.675C210.325 289.942 210.817 290.075 211.517 290.075H213.192V292H211.142C209.875 292 208.925 291.708 208.292 291.125C207.659 290.542 207.342 289.583 207.342 288.25V280.175H205.567V278.3H207.342V274.85H209.617V278.3H213.192V280.175H209.617ZM216.673 292.15C216.24 292.15 215.873 292 215.573 291.7C215.273 291.4 215.123 291.033 215.123 290.6C215.123 290.167 215.273 289.8 215.573 289.5C215.873 289.2 216.24 289.05 216.673 289.05C217.09 289.05 217.44 289.2 217.723 289.5C218.023 289.8 218.173 290.167 218.173 290.6C218.173 291.033 218.023 291.4 217.723 291.7C217.44 292 217.09 292.15 216.673 292.15ZM223.472 280.825C223.922 280.042 224.589 279.392 225.472 278.875C226.372 278.342 227.414 278.075 228.597 278.075C229.814 278.075 230.914 278.367 231.897 278.95C232.897 279.533 233.681 280.358 234.247 281.425C234.814 282.475 235.097 283.7 235.097 285.1C235.097 286.483 234.814 287.717 234.247 288.8C233.681 289.883 232.897 290.725 231.897 291.325C230.914 291.925 229.814 292.225 228.597 292.225C227.431 292.225 226.397 291.967 225.497 291.45C224.614 290.917 223.939 290.258 223.472 289.475V298.5H221.197V278.3H223.472V280.825ZM232.772 285.1C232.772 284.067 232.564 283.167 232.147 282.4C231.731 281.633 231.164 281.05 230.447 280.65C229.747 280.25 228.972 280.05 228.122 280.05C227.289 280.05 226.514 280.258 225.797 280.675C225.097 281.075 224.531 281.667 224.097 282.45C223.681 283.217 223.472 284.108 223.472 285.125C223.472 286.158 223.681 287.067 224.097 287.85C224.531 288.617 225.097 289.208 225.797 289.625C226.514 290.025 227.289 290.225 228.122 290.225C228.972 290.225 229.747 290.025 230.447 289.625C231.164 289.208 231.731 288.617 232.147 287.85C232.564 287.067 232.772 286.15 232.772 285.1ZM250.242 278.3V292H247.967V289.975C247.534 290.675 246.925 291.225 246.142 291.625C245.375 292.008 244.525 292.2 243.592 292.2C242.525 292.2 241.567 291.983 240.717 291.55C239.867 291.1 239.192 290.433 238.692 289.55C238.209 288.667 237.967 287.592 237.967 286.325V278.3H240.217V286.025C240.217 287.375 240.559 288.417 241.242 289.15C241.925 289.867 242.859 290.225 244.042 290.225C245.259 290.225 246.217 289.85 246.917 289.1C247.617 288.35 247.967 287.258 247.967 285.825V278.3H250.242ZM256.858 280.175V288.25C256.858 288.917 257 289.392 257.283 289.675C257.567 289.942 258.058 290.075 258.758 290.075H260.433V292H258.383C257.117 292 256.167 291.708 255.533 291.125C254.9 290.542 254.583 289.583 254.583 288.25V280.175H252.808V278.3H254.583V274.85H256.858V278.3H260.433V280.175H256.858ZM277.19 292.95V295.05H263.89V292.95H277.19ZM283.8 273.5V292H281.525V273.5H283.8ZM288.852 276.075C288.419 276.075 288.052 275.925 287.752 275.625C287.452 275.325 287.302 274.958 287.302 274.525C287.302 274.092 287.452 273.725 287.752 273.425C288.052 273.125 288.419 272.975 288.852 272.975C289.269 272.975 289.619 273.125 289.902 273.425C290.202 273.725 290.352 274.092 290.352 274.525C290.352 274.958 290.202 275.325 289.902 275.625C289.619 275.925 289.269 276.075 288.852 276.075ZM289.952 278.3V292H287.677V278.3H289.952ZM300.504 278.05C302.171 278.05 303.521 278.558 304.554 279.575C305.588 280.575 306.104 282.025 306.104 283.925V292H303.854V284.25C303.854 282.883 303.513 281.842 302.829 281.125C302.146 280.392 301.213 280.025 300.029 280.025C298.829 280.025 297.871 280.4 297.154 281.15C296.454 281.9 296.104 282.992 296.104 284.425V292H293.829V278.3H296.104V280.25C296.554 279.55 297.163 279.008 297.929 278.625C298.713 278.242 299.571 278.05 300.504 278.05ZM322.321 284.625C322.321 285.058 322.296 285.517 322.246 286H311.296C311.379 287.35 311.837 288.408 312.671 289.175C313.521 289.925 314.546 290.3 315.746 290.3C316.729 290.3 317.546 290.075 318.196 289.625C318.862 289.158 319.329 288.542 319.596 287.775H322.046C321.679 289.092 320.946 290.167 319.846 291C318.746 291.817 317.379 292.225 315.746 292.225C314.446 292.225 313.279 291.933 312.246 291.35C311.229 290.767 310.429 289.942 309.846 288.875C309.262 287.792 308.971 286.542 308.971 285.125C308.971 283.708 309.254 282.467 309.821 281.4C310.387 280.333 311.179 279.517 312.196 278.95C313.229 278.367 314.412 278.075 315.746 278.075C317.046 278.075 318.196 278.358 319.196 278.925C320.196 279.492 320.962 280.275 321.496 281.275C322.046 282.258 322.321 283.375 322.321 284.625ZM319.971 284.15C319.971 283.283 319.779 282.542 319.396 281.925C319.012 281.292 318.487 280.817 317.821 280.5C317.171 280.167 316.446 280 315.646 280C314.496 280 313.512 280.367 312.696 281.1C311.896 281.833 311.437 282.85 311.321 284.15H319.971ZM337.838 296.65C336.238 295.083 334.988 293.092 334.088 290.675C333.205 288.258 332.763 285.65 332.763 282.85C332.763 279.983 333.23 277.308 334.163 274.825C335.113 272.325 336.463 270.267 338.213 268.65H340.588V268.875C338.722 270.625 337.313 272.733 336.363 275.2C335.43 277.65 334.963 280.2 334.963 282.85C334.963 285.433 335.405 287.9 336.288 290.25C337.188 292.6 338.497 294.658 340.213 296.425V296.65H337.838ZM344.491 272.1L344.191 277.075H342.616L342.291 272.1H344.491ZM352.421 289.9L356.671 278.3H359.096L353.721 292H351.071L345.696 278.3H348.146L352.421 289.9ZM360.484 285.1C360.484 283.7 360.768 282.475 361.334 281.425C361.901 280.358 362.676 279.533 363.659 278.95C364.659 278.367 365.768 278.075 366.984 278.075C368.184 278.075 369.226 278.333 370.109 278.85C370.993 279.367 371.651 280.017 372.084 280.8V278.3H374.384V292H372.084V289.45C371.634 290.25 370.959 290.917 370.059 291.45C369.176 291.967 368.143 292.225 366.959 292.225C365.743 292.225 364.643 291.925 363.659 291.325C362.676 290.725 361.901 289.883 361.334 288.8C360.768 287.717 360.484 286.483 360.484 285.1ZM372.084 285.125C372.084 284.092 371.876 283.192 371.459 282.425C371.043 281.658 370.476 281.075 369.759 280.675C369.059 280.258 368.284 280.05 367.434 280.05C366.584 280.05 365.809 280.25 365.109 280.65C364.409 281.05 363.851 281.633 363.434 282.4C363.018 283.167 362.809 284.067 362.809 285.1C362.809 286.15 363.018 287.067 363.434 287.85C363.851 288.617 364.409 289.208 365.109 289.625C365.809 290.025 366.584 290.225 367.434 290.225C368.284 290.225 369.059 290.025 369.759 289.625C370.476 289.208 371.043 288.617 371.459 287.85C371.876 287.067 372.084 286.158 372.084 285.125ZM380.504 273.5V292H378.229V273.5H380.504ZM396.531 278.3V292H394.256V289.975C393.823 290.675 393.214 291.225 392.431 291.625C391.664 292.008 390.814 292.2 389.881 292.2C388.814 292.2 387.856 291.983 387.006 291.55C386.156 291.1 385.481 290.433 384.981 289.55C384.498 288.667 384.256 287.592 384.256 286.325V278.3H386.506V286.025C386.506 287.375 386.848 288.417 387.531 289.15C388.214 289.867 389.148 290.225 390.331 290.225C391.548 290.225 392.506 289.85 393.206 289.1C393.906 288.35 394.256 287.258 394.256 285.825V278.3H396.531ZM412.872 284.625C412.872 285.058 412.847 285.517 412.797 286H401.847C401.931 287.35 402.389 288.408 403.222 289.175C404.072 289.925 405.097 290.3 406.297 290.3C407.281 290.3 408.097 290.075 408.747 289.625C409.414 289.158 409.881 288.542 410.147 287.775H412.597C412.231 289.092 411.497 290.167 410.397 291C409.297 291.817 407.931 292.225 406.297 292.225C404.997 292.225 403.831 291.933 402.797 291.35C401.781 290.767 400.981 289.942 400.397 288.875C399.814 287.792 399.522 286.542 399.522 285.125C399.522 283.708 399.806 282.467 400.372 281.4C400.939 280.333 401.731 279.517 402.747 278.95C403.781 278.367 404.964 278.075 406.297 278.075C407.597 278.075 408.747 278.358 409.747 278.925C410.747 279.492 411.514 280.275 412.047 281.275C412.597 282.258 412.872 283.375 412.872 284.625ZM410.522 284.15C410.522 283.283 410.331 282.542 409.947 281.925C409.564 281.292 409.039 280.817 408.372 280.5C407.722 280.167 406.997 280 406.197 280C405.047 280 404.064 280.367 403.247 281.1C402.447 281.833 401.989 282.85 401.872 284.15H410.522ZM428.515 292.225C427.232 292.225 426.065 291.933 425.015 291.35C423.982 290.767 423.165 289.942 422.565 288.875C421.982 287.792 421.69 286.542 421.69 285.125C421.69 283.725 421.99 282.492 422.59 281.425C423.207 280.342 424.04 279.517 425.09 278.95C426.14 278.367 427.315 278.075 428.615 278.075C429.915 278.075 431.09 278.367 432.14 278.95C433.19 279.517 434.015 280.333 434.615 281.4C435.232 282.467 435.54 283.708 435.54 285.125C435.54 286.542 435.224 287.792 434.59 288.875C433.974 289.942 433.132 290.767 432.065 291.35C430.999 291.933 429.815 292.225 428.515 292.225ZM428.515 290.225C429.332 290.225 430.099 290.033 430.815 289.65C431.532 289.267 432.107 288.692 432.54 287.925C432.99 287.158 433.215 286.225 433.215 285.125C433.215 284.025 432.999 283.092 432.565 282.325C432.132 281.558 431.565 280.992 430.865 280.625C430.165 280.242 429.407 280.05 428.59 280.05C427.757 280.05 426.99 280.242 426.29 280.625C425.607 280.992 425.057 281.558 424.64 282.325C424.224 283.092 424.015 284.025 424.015 285.125C424.015 286.242 424.215 287.183 424.615 287.95C425.032 288.717 425.582 289.292 426.265 289.675C426.949 290.042 427.699 290.225 428.515 290.225ZM444.106 280.175H441.231V292H438.956V280.175H437.181V278.3H438.956V277.325C438.956 275.792 439.348 274.675 440.131 273.975C440.931 273.258 442.206 272.9 443.956 272.9V274.8C442.956 274.8 442.248 275 441.831 275.4C441.431 275.783 441.231 276.425 441.231 277.325V278.3H444.106V280.175ZM452.574 285.1C452.574 283.7 452.857 282.475 453.424 281.425C453.991 280.358 454.766 279.533 455.749 278.95C456.749 278.367 457.857 278.075 459.074 278.075C460.274 278.075 461.316 278.333 462.199 278.85C463.082 279.367 463.741 280.017 464.174 280.8V278.3H466.474V292H464.174V289.45C463.724 290.25 463.049 290.917 462.149 291.45C461.266 291.967 460.232 292.225 459.049 292.225C457.832 292.225 456.732 291.925 455.749 291.325C454.766 290.725 453.991 289.883 453.424 288.8C452.857 287.717 452.574 286.483 452.574 285.1ZM464.174 285.125C464.174 284.092 463.966 283.192 463.549 282.425C463.132 281.658 462.566 281.075 461.849 280.675C461.149 280.258 460.374 280.05 459.524 280.05C458.674 280.05 457.899 280.25 457.199 280.65C456.499 281.05 455.941 281.633 455.524 282.4C455.107 283.167 454.899 284.067 454.899 285.1C454.899 286.15 455.107 287.067 455.524 287.85C455.941 288.617 456.499 289.208 457.199 289.625C457.899 290.025 458.674 290.225 459.524 290.225C460.374 290.225 461.149 290.025 461.849 289.625C462.566 289.208 463.132 288.617 463.549 287.85C463.966 287.067 464.174 286.158 464.174 285.125ZM471.044 292.15C470.61 292.15 470.244 292 469.944 291.7C469.644 291.4 469.494 291.033 469.494 290.6C469.494 290.167 469.644 289.8 469.944 289.5C470.244 289.2 470.61 289.05 471.044 289.05C471.46 289.05 471.81 289.2 472.094 289.5C472.394 289.8 472.544 290.167 472.544 290.6C472.544 291.033 472.394 291.4 472.094 291.7C471.81 292 471.46 292.15 471.044 292.15ZM471.044 281.45C470.61 281.45 470.244 281.3 469.944 281C469.644 280.7 469.494 280.333 469.494 279.9C469.494 279.467 469.644 279.1 469.944 278.8C470.244 278.5 470.61 278.35 471.044 278.35C471.46 278.35 471.81 278.5 472.094 278.8C472.394 279.1 472.544 279.467 472.544 279.9C472.544 280.333 472.394 280.7 472.094 281C471.81 281.3 471.46 281.45 471.044 281.45ZM483.456 272.1L483.156 277.075H481.581L481.256 272.1H483.456ZM495.8 294.65H493.525V272.125H495.8V294.65ZM503.076 294.65H500.801V272.125H503.076V294.65ZM513.316 285.1C513.316 283.7 513.6 282.475 514.166 281.425C514.733 280.358 515.508 279.533 516.491 278.95C517.491 278.367 518.6 278.075 519.816 278.075C521.016 278.075 522.058 278.333 522.941 278.85C523.825 279.367 524.483 280.017 524.916 280.8V278.3H527.216V292H524.916V289.45C524.466 290.25 523.791 290.917 522.891 291.45C522.008 291.967 520.975 292.225 519.791 292.225C518.575 292.225 517.475 291.925 516.491 291.325C515.508 290.725 514.733 289.883 514.166 288.8C513.6 287.717 513.316 286.483 513.316 285.1ZM524.916 285.125C524.916 284.092 524.708 283.192 524.291 282.425C523.875 281.658 523.308 281.075 522.591 280.675C521.891 280.258 521.116 280.05 520.266 280.05C519.416 280.05 518.641 280.25 517.941 280.65C517.241 281.05 516.683 281.633 516.266 282.4C515.85 283.167 515.641 284.067 515.641 285.1C515.641 286.15 515.85 287.067 516.266 287.85C516.683 288.617 517.241 289.208 517.941 289.625C518.641 290.025 519.416 290.225 520.266 290.225C521.116 290.225 521.891 290.025 522.591 289.625C523.308 289.208 523.875 288.617 524.291 287.85C524.708 287.067 524.916 286.158 524.916 285.125ZM530.336 296.65V296.425C532.052 294.658 533.352 292.6 534.236 290.25C535.136 287.9 535.586 285.433 535.586 282.85C535.586 280.2 535.111 277.65 534.161 275.2C533.227 272.733 531.827 270.625 529.961 268.875V268.65H532.336C534.086 270.267 535.427 272.325 536.361 274.825C537.311 277.308 537.786 279.983 537.786 282.85C537.786 285.65 537.336 288.258 536.436 290.675C535.552 293.092 534.311 295.083 532.711 296.65H530.336ZM543.738 281.425C543.305 281.425 542.938 281.275 542.638 280.975C542.338 280.675 542.188 280.308 542.188 279.875C542.188 279.442 542.338 279.075 542.638 278.775C542.938 278.475 543.305 278.325 543.738 278.325C544.155 278.325 544.505 278.475 544.788 278.775C545.088 279.075 545.238 279.442 545.238 279.875C545.238 280.308 545.088 280.675 544.788 280.975C544.505 281.275 544.155 281.425 543.738 281.425ZM545.388 288.85L542.588 295.575H541.063L542.888 288.85H545.388ZM41.075 323.1C41.075 321.7 41.3583 320.475 41.925 319.425C42.4917 318.358 43.2667 317.533 44.25 316.95C45.25 316.367 46.3583 316.075 47.575 316.075C48.775 316.075 49.8167 316.333 50.7 316.85C51.5833 317.367 52.2417 318.017 52.675 318.8V316.3H54.975V330H52.675V327.45C52.225 328.25 51.55 328.917 50.65 329.45C49.7667 329.967 48.7333 330.225 47.55 330.225C46.3333 330.225 45.2333 329.925 44.25 329.325C43.2667 328.725 42.4917 327.883 41.925 326.8C41.3583 325.717 41.075 324.483 41.075 323.1ZM52.675 323.125C52.675 322.092 52.4667 321.192 52.05 320.425C51.6333 319.658 51.0667 319.075 50.35 318.675C49.65 318.258 48.875 318.05 48.025 318.05C47.175 318.05 46.4 318.25 45.7 318.65C45 319.05 44.4417 319.633 44.025 320.4C43.6083 321.167 43.4 322.067 43.4 323.1C43.4 324.15 43.6083 325.067 44.025 325.85C44.4417 326.617 45 327.208 45.7 327.625C46.4 328.025 47.175 328.225 48.025 328.225C48.875 328.225 49.65 328.025 50.35 327.625C51.0667 327.208 51.6333 326.617 52.05 325.85C52.4667 325.067 52.675 324.158 52.675 323.125ZM66.2096 330.15C65.7762 330.15 65.4096 330 65.1096 329.7C64.8096 329.4 64.6596 329.033 64.6596 328.6C64.6596 328.167 64.8096 327.8 65.1096 327.5C65.4096 327.2 65.7762 327.05 66.2096 327.05C66.6262 327.05 66.9762 327.2 67.2596 327.5C67.5596 327.8 67.7096 328.167 67.7096 328.6C67.7096 329.033 67.5596 329.4 67.2596 329.7C66.9762 330 66.6262 330.15 66.2096 330.15ZM66.2096 319.45C65.7762 319.45 65.4096 319.3 65.1096 319C64.8096 318.7 64.6596 318.333 64.6596 317.9C64.6596 317.467 64.8096 317.1 65.1096 316.8C65.4096 316.5 65.7762 316.35 66.2096 316.35C66.6262 316.35 66.9762 316.5 67.2596 316.8C67.5596 317.1 67.7096 317.467 67.7096 317.9C67.7096 318.333 67.5596 318.7 67.2596 319C66.9762 319.3 66.6262 319.45 66.2096 319.45ZM84.4068 317.2V319.125H71.4068V317.2H84.4068ZM84.4068 322.575V324.5H71.4068V322.575H84.4068ZM94.6883 323.1C94.6883 321.7 94.9716 320.475 95.5383 319.425C96.1049 318.358 96.8799 317.533 97.8633 316.95C98.8633 316.367 99.9716 316.075 101.188 316.075C102.388 316.075 103.43 316.333 104.313 316.85C105.197 317.367 105.855 318.017 106.288 318.8V316.3H108.588V330H106.288V327.45C105.838 328.25 105.163 328.917 104.263 329.45C103.38 329.967 102.347 330.225 101.163 330.225C99.9466 330.225 98.8466 329.925 97.8633 329.325C96.8799 328.725 96.1049 327.883 95.5383 326.8C94.9716 325.717 94.6883 324.483 94.6883 323.1ZM106.288 323.125C106.288 322.092 106.08 321.192 105.663 320.425C105.247 319.658 104.68 319.075 103.963 318.675C103.263 318.258 102.488 318.05 101.638 318.05C100.788 318.05 100.013 318.25 99.3133 318.65C98.6133 319.05 98.0549 319.633 97.6383 320.4C97.2216 321.167 97.0133 322.067 97.0133 323.1C97.0133 324.15 97.2216 325.067 97.6383 325.85C98.0549 326.617 98.6133 327.208 99.3133 327.625C100.013 328.025 100.788 328.225 101.638 328.225C102.488 328.225 103.263 328.025 103.963 327.625C104.68 327.208 105.247 326.617 105.663 325.85C106.08 325.067 106.288 324.158 106.288 323.125ZM132.098 321.825H126.773V327.225H124.648V321.825H119.348V319.9H124.648V314.475H126.773V319.9H132.098V321.825ZM141.853 314V311.925H146.553V330H144.253V314H141.853ZM152.161 319.425C151.728 319.425 151.361 319.275 151.061 318.975C150.761 318.675 150.611 318.308 150.611 317.875C150.611 317.442 150.761 317.075 151.061 316.775C151.361 316.475 151.728 316.325 152.161 316.325C152.578 316.325 152.928 316.475 153.211 316.775C153.511 317.075 153.661 317.442 153.661 317.875C153.661 318.308 153.511 318.675 153.211 318.975C152.928 319.275 152.578 319.425 152.161 319.425ZM153.811 326.85L151.011 333.575H149.486L151.311 326.85H153.811ZM44.2 350.575V368H41.925V350.575H44.2ZM57.9273 350.575V352.425H50.3523V358.3H56.5023V360.15H50.3523V368H48.0773V350.575H57.9273ZM66.49 361.1C66.49 359.7 66.7734 358.475 67.34 357.425C67.9067 356.358 68.6817 355.533 69.665 354.95C70.665 354.367 71.7734 354.075 72.99 354.075C74.19 354.075 75.2317 354.333 76.115 354.85C76.9984 355.367 77.6567 356.017 78.09 356.8V354.3H80.39V368H78.09V365.45C77.64 366.25 76.965 366.917 76.065 367.45C75.1817 367.967 74.1484 368.225 72.965 368.225C71.7484 368.225 70.6484 367.925 69.665 367.325C68.6817 366.725 67.9067 365.883 67.34 364.8C66.7734 363.717 66.49 362.483 66.49 361.1ZM78.09 361.125C78.09 360.092 77.8817 359.192 77.465 358.425C77.0484 357.658 76.4817 357.075 75.765 356.675C75.065 356.258 74.29 356.05 73.44 356.05C72.59 356.05 71.815 356.25 71.115 356.65C70.415 357.05 69.8567 357.633 69.44 358.4C69.0234 359.167 68.815 360.067 68.815 361.1C68.815 362.15 69.0234 363.067 69.44 363.85C69.8567 364.617 70.415 365.208 71.115 365.625C71.815 366.025 72.59 366.225 73.44 366.225C74.29 366.225 75.065 366.025 75.765 365.625C76.4817 365.208 77.0484 364.617 77.465 363.85C77.8817 363.067 78.09 362.158 78.09 361.125ZM104.5 355.2V357.125H91.4996V355.2H104.5ZM104.5 360.575V362.5H91.4996V360.575H104.5ZM115.206 354.475C115.323 352.942 115.914 351.742 116.981 350.875C118.048 350.008 119.431 349.575 121.131 349.575C122.264 349.575 123.239 349.783 124.056 350.2C124.889 350.6 125.514 351.15 125.931 351.85C126.364 352.55 126.581 353.342 126.581 354.225C126.581 355.258 126.281 356.15 125.681 356.9C125.098 357.65 124.331 358.133 123.381 358.35V358.475C124.464 358.742 125.323 359.267 125.956 360.05C126.589 360.833 126.906 361.858 126.906 363.125C126.906 364.075 126.689 364.933 126.256 365.7C125.823 366.45 125.173 367.042 124.306 367.475C123.439 367.908 122.398 368.125 121.181 368.125C119.414 368.125 117.964 367.667 116.831 366.75C115.698 365.817 115.064 364.5 114.931 362.8H117.131C117.248 363.8 117.656 364.617 118.356 365.25C119.056 365.883 119.989 366.2 121.156 366.2C122.323 366.2 123.206 365.9 123.806 365.3C124.423 364.683 124.731 363.892 124.731 362.925C124.731 361.675 124.314 360.775 123.481 360.225C122.648 359.675 121.389 359.4 119.706 359.4H119.131V357.5H119.731C121.264 357.483 122.423 357.233 123.206 356.75C123.989 356.25 124.381 355.483 124.381 354.45C124.381 353.567 124.089 352.858 123.506 352.325C122.939 351.792 122.123 351.525 121.056 351.525C120.023 351.525 119.189 351.792 118.556 352.325C117.923 352.858 117.548 353.575 117.431 354.475H115.206ZM141.503 351.9H132.728V357.6C133.111 357.067 133.678 356.633 134.428 356.3C135.178 355.95 135.986 355.775 136.853 355.775C138.236 355.775 139.361 356.067 140.228 356.65C141.094 357.217 141.711 357.958 142.078 358.875C142.461 359.775 142.653 360.733 142.653 361.75C142.653 362.95 142.428 364.025 141.978 364.975C141.528 365.925 140.836 366.675 139.903 367.225C138.986 367.775 137.844 368.05 136.478 368.05C134.728 368.05 133.311 367.6 132.228 366.7C131.144 365.8 130.486 364.6 130.253 363.1H132.478C132.694 364.05 133.153 364.792 133.853 365.325C134.553 365.858 135.436 366.125 136.503 366.125C137.819 366.125 138.811 365.733 139.478 364.95C140.144 364.15 140.478 363.1 140.478 361.8C140.478 360.5 140.144 359.5 139.478 358.8C138.811 358.083 137.828 357.725 136.528 357.725C135.644 357.725 134.869 357.942 134.203 358.375C133.553 358.792 133.078 359.367 132.778 360.1H130.628V349.9H141.503V351.9ZM163.441 350.575V352.425H158.691V368H156.416V352.425H151.641V350.575H163.441ZM179.666 350.575V368H177.391V360.1H168.516V368H166.241V350.575H168.516V358.225H177.391V350.575H179.666ZM185.826 352.425V358.25H192.176V360.125H185.826V366.125H192.926V368H183.551V350.55H192.926V352.425H185.826ZM210.068 368H207.793L198.643 354.125V368H196.368V350.55H198.643L207.793 364.4V350.55H210.068V368ZM41.075 399.1C41.075 397.7 41.3583 396.475 41.925 395.425C42.4917 394.358 43.2667 393.533 44.25 392.95C45.25 392.367 46.3583 392.075 47.575 392.075C48.775 392.075 49.8167 392.333 50.7 392.85C51.5833 393.367 52.2417 394.017 52.675 394.8V392.3H54.975V406H52.675V403.45C52.225 404.25 51.55 404.917 50.65 405.45C49.7667 405.967 48.7333 406.225 47.55 406.225C46.3333 406.225 45.2333 405.925 44.25 405.325C43.2667 404.725 42.4917 403.883 41.925 402.8C41.3583 401.717 41.075 400.483 41.075 399.1ZM52.675 399.125C52.675 398.092 52.4667 397.192 52.05 396.425C51.6333 395.658 51.0667 395.075 50.35 394.675C49.65 394.258 48.875 394.05 48.025 394.05C47.175 394.05 46.4 394.25 45.7 394.65C45 395.05 44.4417 395.633 44.025 396.4C43.6083 397.167 43.4 398.067 43.4 399.1C43.4 400.15 43.6083 401.067 44.025 401.85C44.4417 402.617 45 403.208 45.7 403.625C46.4 404.025 47.175 404.225 48.025 404.225C48.875 404.225 49.65 404.025 50.35 403.625C51.0667 403.208 51.6333 402.617 52.05 401.85C52.4667 401.067 52.675 400.158 52.675 399.125ZM66.2096 406.15C65.7762 406.15 65.4096 406 65.1096 405.7C64.8096 405.4 64.6596 405.033 64.6596 404.6C64.6596 404.167 64.8096 403.8 65.1096 403.5C65.4096 403.2 65.7762 403.05 66.2096 403.05C66.6262 403.05 66.9762 403.2 67.2596 403.5C67.5596 403.8 67.7096 404.167 67.7096 404.6C67.7096 405.033 67.5596 405.4 67.2596 405.7C66.9762 406 66.6262 406.15 66.2096 406.15ZM66.2096 395.45C65.7762 395.45 65.4096 395.3 65.1096 395C64.8096 394.7 64.6596 394.333 64.6596 393.9C64.6596 393.467 64.8096 393.1 65.1096 392.8C65.4096 392.5 65.7762 392.35 66.2096 392.35C66.6262 392.35 66.9762 392.5 67.2596 392.8C67.5596 393.1 67.7096 393.467 67.7096 393.9C67.7096 394.333 67.5596 394.7 67.2596 395C66.9762 395.3 66.6262 395.45 66.2096 395.45ZM84.4068 393.2V395.125H71.4068V393.2H84.4068ZM84.4068 398.575V400.5H71.4068V398.575H84.4068ZM94.6883 399.1C94.6883 397.7 94.9716 396.475 95.5383 395.425C96.1049 394.358 96.8799 393.533 97.8633 392.95C98.8633 392.367 99.9716 392.075 101.188 392.075C102.388 392.075 103.43 392.333 104.313 392.85C105.197 393.367 105.855 394.017 106.288 394.8V392.3H108.588V406H106.288V403.45C105.838 404.25 105.163 404.917 104.263 405.45C103.38 405.967 102.347 406.225 101.163 406.225C99.9466 406.225 98.8466 405.925 97.8633 405.325C96.8799 404.725 96.1049 403.883 95.5383 402.8C94.9716 401.717 94.6883 400.483 94.6883 399.1ZM106.288 399.125C106.288 398.092 106.08 397.192 105.663 396.425C105.247 395.658 104.68 395.075 103.963 394.675C103.263 394.258 102.488 394.05 101.638 394.05C100.788 394.05 100.013 394.25 99.3133 394.65C98.6133 395.05 98.0549 395.633 97.6383 396.4C97.2216 397.167 97.0133 398.067 97.0133 399.1C97.0133 400.15 97.2216 401.067 97.6383 401.85C98.0549 402.617 98.6133 403.208 99.3133 403.625C100.013 404.025 100.788 404.225 101.638 404.225C102.488 404.225 103.263 404.025 103.963 403.625C104.68 403.208 105.247 402.617 105.663 401.85C106.08 401.067 106.288 400.158 106.288 399.125ZM132.098 397.825H126.773V403.225H124.648V397.825H119.348V395.9H124.648V390.475H126.773V395.9H132.098V397.825ZM141.853 390V387.925H146.553V406H144.253V390H141.853ZM152.161 395.425C151.728 395.425 151.361 395.275 151.061 394.975C150.761 394.675 150.611 394.308 150.611 393.875C150.611 393.442 150.761 393.075 151.061 392.775C151.361 392.475 151.728 392.325 152.161 392.325C152.578 392.325 152.928 392.475 153.211 392.775C153.511 393.075 153.661 393.442 153.661 393.875C153.661 394.308 153.511 394.675 153.211 394.975C152.928 395.275 152.578 395.425 152.161 395.425ZM153.811 402.85L151.011 409.575H149.486L151.311 402.85H153.811ZM55.125 431.625C54.6417 430.608 53.9417 429.825 53.025 429.275C52.1083 428.708 51.0417 428.425 49.825 428.425C48.6083 428.425 47.5083 428.708 46.525 429.275C45.5583 429.825 44.7917 430.625 44.225 431.675C43.675 432.708 43.4 433.908 43.4 435.275C43.4 436.642 43.675 437.842 44.225 438.875C44.7917 439.908 45.5583 440.708 46.525 441.275C47.5083 441.825 48.6083 442.1 49.825 442.1C51.525 442.1 52.925 441.592 54.025 440.575C55.125 439.558 55.7667 438.183 55.95 436.45H49V434.6H58.375V436.35C58.2417 437.783 57.7917 439.1 57.025 440.3C56.2583 441.483 55.25 442.425 54 443.125C52.75 443.808 51.3583 444.15 49.825 444.15C48.2083 444.15 46.7333 443.775 45.4 443.025C44.0667 442.258 43.0083 441.2 42.225 439.85C41.4583 438.5 41.075 436.975 41.075 435.275C41.075 433.575 41.4583 432.05 42.225 430.7C43.0083 429.333 44.0667 428.275 45.4 427.525C46.7333 426.758 48.2083 426.375 49.825 426.375C51.675 426.375 53.3083 426.833 54.725 427.75C56.1583 428.667 57.2 429.958 57.85 431.625H55.125ZM69.283 444.175C67.6663 444.175 66.1913 443.8 64.858 443.05C63.5247 442.283 62.4663 441.225 61.683 439.875C60.9163 438.508 60.533 436.975 60.533 435.275C60.533 433.575 60.9163 432.05 61.683 430.7C62.4663 429.333 63.5247 428.275 64.858 427.525C66.1913 426.758 67.6663 426.375 69.283 426.375C70.9163 426.375 72.3997 426.758 73.733 427.525C75.0663 428.275 76.1163 429.325 76.883 430.675C77.6497 432.025 78.033 433.558 78.033 435.275C78.033 436.992 77.6497 438.525 76.883 439.875C76.1163 441.225 75.0663 442.283 73.733 443.05C72.3997 443.8 70.9163 444.175 69.283 444.175ZM69.283 442.2C70.4997 442.2 71.5913 441.917 72.558 441.35C73.5413 440.783 74.308 439.975 74.858 438.925C75.4247 437.875 75.708 436.658 75.708 435.275C75.708 433.875 75.4247 432.658 74.858 431.625C74.308 430.575 73.5497 429.767 72.583 429.2C71.6163 428.633 70.5163 428.35 69.283 428.35C68.0497 428.35 66.9497 428.633 65.983 429.2C65.0163 429.767 64.2497 430.575 63.683 431.625C63.133 432.658 62.858 433.875 62.858 435.275C62.858 436.658 63.133 437.875 63.683 438.925C64.2497 439.975 65.0163 440.783 65.983 441.35C66.9663 441.917 68.0663 442.2 69.283 442.2ZM91.7613 426.575V428.425H87.0113V444H84.7363V428.425H79.9613V426.575H91.7613ZM102.462 444.175C100.845 444.175 99.3701 443.8 98.0367 443.05C96.7034 442.283 95.6451 441.225 94.8617 439.875C94.0951 438.508 93.7117 436.975 93.7117 435.275C93.7117 433.575 94.0951 432.05 94.8617 430.7C95.6451 429.333 96.7034 428.275 98.0367 427.525C99.3701 426.758 100.845 426.375 102.462 426.375C104.095 426.375 105.578 426.758 106.912 427.525C108.245 428.275 109.295 429.325 110.062 430.675C110.828 432.025 111.212 433.558 111.212 435.275C111.212 436.992 110.828 438.525 110.062 439.875C109.295 441.225 108.245 442.283 106.912 443.05C105.578 443.8 104.095 444.175 102.462 444.175ZM102.462 442.2C103.678 442.2 104.77 441.917 105.737 441.35C106.72 440.783 107.487 439.975 108.037 438.925C108.603 437.875 108.887 436.658 108.887 435.275C108.887 433.875 108.603 432.658 108.037 431.625C107.487 430.575 106.728 429.767 105.762 429.2C104.795 428.633 103.695 428.35 102.462 428.35C101.228 428.35 100.128 428.633 99.1617 429.2C98.1951 429.767 97.4284 430.575 96.8617 431.625C96.3117 432.658 96.0367 433.875 96.0367 435.275C96.0367 436.658 96.3117 437.875 96.8617 438.925C97.4284 439.975 98.1951 440.783 99.1617 441.35C100.145 441.917 101.245 442.2 102.462 442.2ZM123.155 425.5V444H120.88V425.5H123.155ZM133.007 444.225C131.724 444.225 130.557 443.933 129.507 443.35C128.474 442.767 127.657 441.942 127.057 440.875C126.474 439.792 126.182 438.542 126.182 437.125C126.182 435.725 126.482 434.492 127.082 433.425C127.699 432.342 128.532 431.517 129.582 430.95C130.632 430.367 131.807 430.075 133.107 430.075C134.407 430.075 135.582 430.367 136.632 430.95C137.682 431.517 138.507 432.333 139.107 433.4C139.724 434.467 140.032 435.708 140.032 437.125C140.032 438.542 139.716 439.792 139.082 440.875C138.466 441.942 137.624 442.767 136.557 443.35C135.491 443.933 134.307 444.225 133.007 444.225ZM133.007 442.225C133.824 442.225 134.591 442.033 135.307 441.65C136.024 441.267 136.599 440.692 137.032 439.925C137.482 439.158 137.707 438.225 137.707 437.125C137.707 436.025 137.491 435.092 137.057 434.325C136.624 433.558 136.057 432.992 135.357 432.625C134.657 432.242 133.899 432.05 133.082 432.05C132.249 432.05 131.482 432.242 130.782 432.625C130.099 432.992 129.549 433.558 129.132 434.325C128.716 435.092 128.507 436.025 128.507 437.125C128.507 438.242 128.707 439.183 129.107 439.95C129.524 440.717 130.074 441.292 130.757 441.675C131.441 442.042 132.191 442.225 133.007 442.225ZM148.999 444.225C147.715 444.225 146.549 443.933 145.499 443.35C144.465 442.767 143.649 441.942 143.049 440.875C142.465 439.792 142.174 438.542 142.174 437.125C142.174 435.725 142.474 434.492 143.074 433.425C143.69 432.342 144.524 431.517 145.574 430.95C146.624 430.367 147.799 430.075 149.099 430.075C150.399 430.075 151.574 430.367 152.624 430.95C153.674 431.517 154.499 432.333 155.099 433.4C155.715 434.467 156.024 435.708 156.024 437.125C156.024 438.542 155.707 439.792 155.074 440.875C154.457 441.942 153.615 442.767 152.549 443.35C151.482 443.933 150.299 444.225 148.999 444.225ZM148.999 442.225C149.815 442.225 150.582 442.033 151.299 441.65C152.015 441.267 152.59 440.692 153.024 439.925C153.474 439.158 153.699 438.225 153.699 437.125C153.699 436.025 153.482 435.092 153.049 434.325C152.615 433.558 152.049 432.992 151.349 432.625C150.649 432.242 149.89 432.05 149.074 432.05C148.24 432.05 147.474 432.242 146.774 432.625C146.09 432.992 145.54 433.558 145.124 434.325C144.707 435.092 144.499 436.025 144.499 437.125C144.499 438.242 144.699 439.183 145.099 439.95C145.515 440.717 146.065 441.292 146.749 441.675C147.432 442.042 148.182 442.225 148.999 442.225ZM161.29 432.825C161.74 432.042 162.407 431.392 163.29 430.875C164.19 430.342 165.232 430.075 166.415 430.075C167.632 430.075 168.732 430.367 169.715 430.95C170.715 431.533 171.498 432.358 172.065 433.425C172.632 434.475 172.915 435.7 172.915 437.1C172.915 438.483 172.632 439.717 172.065 440.8C171.498 441.883 170.715 442.725 169.715 443.325C168.732 443.925 167.632 444.225 166.415 444.225C165.248 444.225 164.215 443.967 163.315 443.45C162.432 442.917 161.757 442.258 161.29 441.475V450.5H159.015V430.3H161.29V432.825ZM170.59 437.1C170.59 436.067 170.382 435.167 169.965 434.4C169.548 433.633 168.982 433.05 168.265 432.65C167.565 432.25 166.79 432.05 165.94 432.05C165.107 432.05 164.332 432.258 163.615 432.675C162.915 433.075 162.348 433.667 161.915 434.45C161.498 435.217 161.29 436.108 161.29 437.125C161.29 438.158 161.498 439.067 161.915 439.85C162.348 440.617 162.915 441.208 163.615 441.625C164.332 442.025 165.107 442.225 165.94 442.225C166.79 442.225 167.565 442.025 168.265 441.625C168.982 441.208 169.548 440.617 169.965 439.85C170.382 439.067 170.59 438.15 170.59 437.1ZM180.759 444.225C179.709 444.225 178.768 444.05 177.934 443.7C177.101 443.333 176.443 442.833 175.959 442.2C175.476 441.55 175.209 440.808 175.159 439.975H177.509C177.576 440.658 177.893 441.217 178.459 441.65C179.043 442.083 179.801 442.3 180.734 442.3C181.601 442.3 182.284 442.108 182.784 441.725C183.284 441.342 183.534 440.858 183.534 440.275C183.534 439.675 183.268 439.233 182.734 438.95C182.201 438.65 181.376 438.358 180.259 438.075C179.243 437.808 178.409 437.542 177.759 437.275C177.126 436.992 176.576 436.583 176.109 436.05C175.659 435.5 175.434 434.783 175.434 433.9C175.434 433.2 175.643 432.558 176.059 431.975C176.476 431.392 177.068 430.933 177.834 430.6C178.601 430.25 179.476 430.075 180.459 430.075C181.976 430.075 183.201 430.458 184.134 431.225C185.068 431.992 185.568 433.042 185.634 434.375H183.359C183.309 433.658 183.018 433.083 182.484 432.65C181.968 432.217 181.268 432 180.384 432C179.568 432 178.918 432.175 178.434 432.525C177.951 432.875 177.709 433.333 177.709 433.9C177.709 434.35 177.851 434.725 178.134 435.025C178.434 435.308 178.801 435.542 179.234 435.725C179.684 435.892 180.301 436.083 181.084 436.3C182.068 436.567 182.868 436.833 183.484 437.1C184.101 437.35 184.626 437.733 185.059 438.25C185.509 438.767 185.743 439.442 185.759 440.275C185.759 441.025 185.551 441.7 185.134 442.3C184.718 442.9 184.126 443.375 183.359 443.725C182.609 444.058 181.743 444.225 180.759 444.225ZM191.746 432.175V440.25C191.746 440.917 191.888 441.392 192.171 441.675C192.454 441.942 192.946 442.075 193.646 442.075H195.321V444H193.271C192.004 444 191.054 443.708 190.421 443.125C189.788 442.542 189.471 441.583 189.471 440.25V432.175H187.696V430.3H189.471V426.85H191.746V430.3H195.321V432.175H191.746ZM197.227 437.1C197.227 435.7 197.511 434.475 198.077 433.425C198.644 432.358 199.419 431.533 200.402 430.95C201.402 430.367 202.511 430.075 203.727 430.075C204.927 430.075 205.969 430.333 206.852 430.85C207.736 431.367 208.394 432.017 208.827 432.8V430.3H211.127V444H208.827V441.45C208.377 442.25 207.702 442.917 206.802 443.45C205.919 443.967 204.886 444.225 203.702 444.225C202.486 444.225 201.386 443.925 200.402 443.325C199.419 442.725 198.644 441.883 198.077 440.8C197.511 439.717 197.227 438.483 197.227 437.1ZM208.827 437.125C208.827 436.092 208.619 435.192 208.202 434.425C207.786 433.658 207.219 433.075 206.502 432.675C205.802 432.258 205.027 432.05 204.177 432.05C203.327 432.05 202.552 432.25 201.852 432.65C201.152 433.05 200.594 433.633 200.177 434.4C199.761 435.167 199.552 436.067 199.552 437.1C199.552 438.15 199.761 439.067 200.177 439.85C200.594 440.617 201.152 441.208 201.852 441.625C202.552 442.025 203.327 442.225 204.177 442.225C205.027 442.225 205.802 442.025 206.502 441.625C207.219 441.208 207.786 440.617 208.202 439.85C208.619 439.067 208.827 438.158 208.827 437.125ZM217.247 432.525C217.647 431.742 218.214 431.133 218.947 430.7C219.697 430.267 220.605 430.05 221.672 430.05V432.4H221.072C218.522 432.4 217.247 433.783 217.247 436.55V444H214.972V430.3H217.247V432.525ZM227.073 432.175V440.25C227.073 440.917 227.215 441.392 227.498 441.675C227.781 441.942 228.273 442.075 228.973 442.075H230.648V444H228.598C227.331 444 226.381 443.708 225.748 443.125C225.115 442.542 224.798 441.583 224.798 440.25V432.175H223.023V430.3H224.798V426.85H227.073V430.3H230.648V432.175H227.073ZM234.729 433.425C234.296 433.425 233.929 433.275 233.629 432.975C233.329 432.675 233.179 432.308 233.179 431.875C233.179 431.442 233.329 431.075 233.629 430.775C233.929 430.475 234.296 430.325 234.729 430.325C235.146 430.325 235.496 430.475 235.779 430.775C236.079 431.075 236.229 431.442 236.229 431.875C236.229 432.308 236.079 432.675 235.779 432.975C235.496 433.275 235.146 433.425 234.729 433.425ZM236.379 440.85L233.579 447.575H232.054L233.879 440.85H236.379ZM44.2 466.425V472.25H50.55V474.125H44.2V480.125H51.3V482H41.925V464.55H51.3V466.425H44.2ZM68.4424 482H66.1674L57.0174 468.125V482H54.7424V464.55H57.0174L66.1674 478.4V464.55H68.4424V482ZM77.7455 464.575C79.6455 464.575 81.2872 464.933 82.6705 465.65C84.0705 466.35 85.1372 467.358 85.8705 468.675C86.6205 469.992 86.9955 471.542 86.9955 473.325C86.9955 475.108 86.6205 476.658 85.8705 477.975C85.1372 479.275 84.0705 480.275 82.6705 480.975C81.2872 481.658 79.6455 482 77.7455 482H72.3205V464.575H77.7455ZM77.7455 480.125C79.9955 480.125 81.7122 479.533 82.8955 478.35C84.0788 477.15 84.6705 475.475 84.6705 473.325C84.6705 471.158 84.0705 469.467 82.8705 468.25C81.6872 467.033 79.9788 466.425 77.7455 466.425H74.5955V480.125H77.7455ZM98.9363 464.575V482H96.6613V464.575H98.9363ZM112.664 464.575V466.425H105.089V472.3H111.239V474.15H105.089V482H102.814V464.575H112.664ZM116.736 471.425C116.303 471.425 115.936 471.275 115.636 470.975C115.336 470.675 115.186 470.308 115.186 469.875C115.186 469.442 115.336 469.075 115.636 468.775C115.936 468.475 116.303 468.325 116.736 468.325C117.153 468.325 117.503 468.475 117.786 468.775C118.086 469.075 118.236 469.442 118.236 469.875C118.236 470.308 118.086 470.675 117.786 470.975C117.503 471.275 117.153 471.425 116.736 471.425ZM118.386 478.85L115.586 485.575H114.061L115.886 478.85H118.386ZM44.2 504.425V510.25H50.55V512.125H44.2V518.125H51.3V520H41.925V502.55H51.3V504.425H44.2ZM68.4424 520H66.1674L57.0174 506.125V520H54.7424V502.55H57.0174L66.1674 516.4V502.55H68.4424V520ZM77.7455 502.575C79.6455 502.575 81.2872 502.933 82.6705 503.65C84.0705 504.35 85.1372 505.358 85.8705 506.675C86.6205 507.992 86.9955 509.542 86.9955 511.325C86.9955 513.108 86.6205 514.658 85.8705 515.975C85.1372 517.275 84.0705 518.275 82.6705 518.975C81.2872 519.658 79.6455 520 77.7455 520H72.3205V502.575H77.7455ZM77.7455 518.125C79.9955 518.125 81.7122 517.533 82.8955 516.35C84.0788 515.15 84.6705 513.475 84.6705 511.325C84.6705 509.158 84.0705 507.467 82.8705 506.25C81.6872 505.033 79.9788 504.425 77.7455 504.425H74.5955V518.125H77.7455ZM98.9363 518.15H105.036V520H96.6613V502.575H98.9363V518.15ZM115.352 520.175C113.736 520.175 112.261 519.8 110.927 519.05C109.594 518.283 108.536 517.225 107.752 515.875C106.986 514.508 106.602 512.975 106.602 511.275C106.602 509.575 106.986 508.05 107.752 506.7C108.536 505.333 109.594 504.275 110.927 503.525C112.261 502.758 113.736 502.375 115.352 502.375C116.986 502.375 118.469 502.758 119.802 503.525C121.136 504.275 122.186 505.325 122.952 506.675C123.719 508.025 124.102 509.558 124.102 511.275C124.102 512.992 123.719 514.525 122.952 515.875C122.186 517.225 121.136 518.283 119.802 519.05C118.469 519.8 116.986 520.175 115.352 520.175ZM115.352 518.2C116.569 518.2 117.661 517.917 118.627 517.35C119.611 516.783 120.377 515.975 120.927 514.925C121.494 513.875 121.777 512.658 121.777 511.275C121.777 509.875 121.494 508.658 120.927 507.625C120.377 506.575 119.619 505.767 118.652 505.2C117.686 504.633 116.586 504.35 115.352 504.35C114.119 504.35 113.019 504.633 112.052 505.2C111.086 505.767 110.319 506.575 109.752 507.625C109.202 508.658 108.927 509.875 108.927 511.275C108.927 512.658 109.202 513.875 109.752 514.925C110.319 515.975 111.086 516.783 112.052 517.35C113.036 517.917 114.136 518.2 115.352 518.2ZM135.006 520.175C133.389 520.175 131.914 519.8 130.581 519.05C129.247 518.283 128.189 517.225 127.406 515.875C126.639 514.508 126.256 512.975 126.256 511.275C126.256 509.575 126.639 508.05 127.406 506.7C128.189 505.333 129.247 504.275 130.581 503.525C131.914 502.758 133.389 502.375 135.006 502.375C136.639 502.375 138.122 502.758 139.456 503.525C140.789 504.275 141.839 505.325 142.606 506.675C143.372 508.025 143.756 509.558 143.756 511.275C143.756 512.992 143.372 514.525 142.606 515.875C141.839 517.225 140.789 518.283 139.456 519.05C138.122 519.8 136.639 520.175 135.006 520.175ZM135.006 518.2C136.222 518.2 137.314 517.917 138.281 517.35C139.264 516.783 140.031 515.975 140.581 514.925C141.147 513.875 141.431 512.658 141.431 511.275C141.431 509.875 141.147 508.658 140.581 507.625C140.031 506.575 139.272 505.767 138.306 505.2C137.339 504.633 136.239 504.35 135.006 504.35C133.772 504.35 132.672 504.633 131.706 505.2C130.739 505.767 129.972 506.575 129.406 507.625C128.856 508.658 128.581 509.875 128.581 511.275C128.581 512.658 128.856 513.875 129.406 514.925C129.972 515.975 130.739 516.783 131.706 517.35C132.689 517.917 133.789 518.2 135.006 518.2ZM158.409 507.675C158.409 509.125 157.909 510.333 156.909 511.3C155.926 512.25 154.417 512.725 152.384 512.725H149.034V520H146.759V502.575H152.384C154.351 502.575 155.842 503.05 156.859 504C157.892 504.95 158.409 506.175 158.409 507.675ZM152.384 510.85C153.651 510.85 154.584 510.575 155.184 510.025C155.784 509.475 156.084 508.692 156.084 507.675C156.084 505.525 154.851 504.45 152.384 504.45H149.034V510.85H152.384ZM162.562 509.425C162.128 509.425 161.762 509.275 161.462 508.975C161.162 508.675 161.012 508.308 161.012 507.875C161.012 507.442 161.162 507.075 161.462 506.775C161.762 506.475 162.128 506.325 162.562 506.325C162.978 506.325 163.328 506.475 163.612 506.775C163.912 507.075 164.062 507.442 164.062 507.875C164.062 508.308 163.912 508.675 163.612 508.975C163.328 509.275 162.978 509.425 162.562 509.425ZM164.212 516.85L161.412 523.575H159.887L161.712 516.85H164.212ZM44.2 542.425V548.25H50.55V550.125H44.2V556.125H51.3V558H41.925V540.55H51.3V542.425H44.2ZM68.4424 558H66.1674L57.0174 544.125V558H54.7424V540.55H57.0174L66.1674 554.4V540.55H68.4424V558ZM77.7455 540.575C79.6455 540.575 81.2872 540.933 82.6705 541.65C84.0705 542.35 85.1372 543.358 85.8705 544.675C86.6205 545.992 86.9955 547.542 86.9955 549.325C86.9955 551.108 86.6205 552.658 85.8705 553.975C85.1372 555.275 84.0705 556.275 82.6705 556.975C81.2872 557.658 79.6455 558 77.7455 558H72.3205V540.575H77.7455ZM77.7455 556.125C79.9955 556.125 81.7122 555.533 82.8955 554.35C84.0788 553.15 84.6705 551.475 84.6705 549.325C84.6705 547.158 84.0705 545.467 82.8705 544.25C81.6872 543.033 79.9788 542.425 77.7455 542.425H74.5955V556.125H77.7455ZM91.3213 547.425C90.888 547.425 90.5213 547.275 90.2213 546.975C89.9213 546.675 89.7713 546.308 89.7713 545.875C89.7713 545.442 89.9213 545.075 90.2213 544.775C90.5213 544.475 90.888 544.325 91.3213 544.325C91.738 544.325 92.088 544.475 92.3713 544.775C92.6713 545.075 92.8213 545.442 92.8213 545.875C92.8213 546.308 92.6713 546.675 92.3713 546.975C92.088 547.275 91.738 547.425 91.3213 547.425ZM92.9713 554.85L90.1713 561.575H88.6463L90.4713 554.85H92.9713Z" fill="black"/>
<path d="M51.425 205.875V207.8H41.45V205.875H51.425ZM65.1945 205.875V207.8H55.2195V205.875H65.1945ZM94.3791 202.3L90.1041 216H87.7541L84.4541 205.125L81.1541 216H78.8041L74.5041 202.3H76.8291L79.9791 213.8L83.3791 202.3H85.7041L89.0291 213.825L92.1291 202.3H94.3791ZM103.437 202.05C104.47 202.05 105.404 202.275 106.237 202.725C107.07 203.158 107.72 203.817 108.187 204.7C108.67 205.583 108.912 206.658 108.912 207.925V216H106.662V208.25C106.662 206.883 106.32 205.842 105.637 205.125C104.954 204.392 104.02 204.025 102.837 204.025C101.637 204.025 100.679 204.4 99.9619 205.15C99.2619 205.9 98.9119 206.992 98.9119 208.425V216H96.6369V197.5H98.9119V204.25C99.3619 203.55 99.9786 203.008 100.762 202.625C101.562 202.242 102.454 202.05 103.437 202.05ZM113.803 200.075C113.37 200.075 113.003 199.925 112.703 199.625C112.403 199.325 112.253 198.958 112.253 198.525C112.253 198.092 112.403 197.725 112.703 197.425C113.003 197.125 113.37 196.975 113.803 196.975C114.22 196.975 114.57 197.125 114.853 197.425C115.153 197.725 115.303 198.092 115.303 198.525C115.303 198.958 115.153 199.325 114.853 199.625C114.57 199.925 114.22 200.075 113.803 200.075ZM114.903 202.3V216H112.628V202.3H114.903ZM121.055 197.5V216H118.78V197.5H121.055ZM137.433 208.625C137.433 209.058 137.408 209.517 137.358 210H126.408C126.491 211.35 126.949 212.408 127.783 213.175C128.633 213.925 129.658 214.3 130.858 214.3C131.841 214.3 132.658 214.075 133.308 213.625C133.974 213.158 134.441 212.542 134.708 211.775H137.158C136.791 213.092 136.058 214.167 134.958 215C133.858 215.817 132.491 216.225 130.858 216.225C129.558 216.225 128.391 215.933 127.358 215.35C126.341 214.767 125.541 213.942 124.958 212.875C124.374 211.792 124.083 210.542 124.083 209.125C124.083 207.708 124.366 206.467 124.933 205.4C125.499 204.333 126.291 203.517 127.308 202.95C128.341 202.367 129.524 202.075 130.858 202.075C132.158 202.075 133.308 202.358 134.308 202.925C135.308 203.492 136.074 204.275 136.608 205.275C137.158 206.258 137.433 207.375 137.433 208.625ZM135.083 208.15C135.083 207.283 134.891 206.542 134.508 205.925C134.124 205.292 133.599 204.817 132.933 204.5C132.283 204.167 131.558 204 130.758 204C129.608 204 128.624 204.367 127.808 205.1C127.008 205.833 126.549 206.85 126.433 208.15H135.083ZM149.376 197.5V216H147.101V197.5H149.376ZM159.228 216.225C157.945 216.225 156.778 215.933 155.728 215.35C154.695 214.767 153.878 213.942 153.278 212.875C152.695 211.792 152.403 210.542 152.403 209.125C152.403 207.725 152.703 206.492 153.303 205.425C153.92 204.342 154.753 203.517 155.803 202.95C156.853 202.367 158.028 202.075 159.328 202.075C160.628 202.075 161.803 202.367 162.853 202.95C163.903 203.517 164.728 204.333 165.328 205.4C165.945 206.467 166.253 207.708 166.253 209.125C166.253 210.542 165.936 211.792 165.303 212.875C164.686 213.942 163.845 214.767 162.778 215.35C161.711 215.933 160.528 216.225 159.228 216.225ZM159.228 214.225C160.045 214.225 160.811 214.033 161.528 213.65C162.245 213.267 162.82 212.692 163.253 211.925C163.703 211.158 163.928 210.225 163.928 209.125C163.928 208.025 163.711 207.092 163.278 206.325C162.845 205.558 162.278 204.992 161.578 204.625C160.878 204.242 160.12 204.05 159.303 204.05C158.47 204.05 157.703 204.242 157.003 204.625C156.32 204.992 155.77 205.558 155.353 206.325C154.936 207.092 154.728 208.025 154.728 209.125C154.728 210.242 154.928 211.183 155.328 211.95C155.745 212.717 156.295 213.292 156.978 213.675C157.661 214.042 158.411 214.225 159.228 214.225ZM175.219 216.225C173.936 216.225 172.769 215.933 171.719 215.35C170.686 214.767 169.869 213.942 169.269 212.875C168.686 211.792 168.394 210.542 168.394 209.125C168.394 207.725 168.694 206.492 169.294 205.425C169.911 204.342 170.744 203.517 171.794 202.95C172.844 202.367 174.019 202.075 175.319 202.075C176.619 202.075 177.794 202.367 178.844 202.95C179.894 203.517 180.719 204.333 181.319 205.4C181.936 206.467 182.244 207.708 182.244 209.125C182.244 210.542 181.928 211.792 181.294 212.875C180.678 213.942 179.836 214.767 178.769 215.35C177.703 215.933 176.519 216.225 175.219 216.225ZM175.219 214.225C176.036 214.225 176.803 214.033 177.519 213.65C178.236 213.267 178.811 212.692 179.244 211.925C179.694 211.158 179.919 210.225 179.919 209.125C179.919 208.025 179.703 207.092 179.269 206.325C178.836 205.558 178.269 204.992 177.569 204.625C176.869 204.242 176.111 204.05 175.294 204.05C174.461 204.05 173.694 204.242 172.994 204.625C172.311 204.992 171.761 205.558 171.344 206.325C170.928 207.092 170.719 208.025 170.719 209.125C170.719 210.242 170.919 211.183 171.319 211.95C171.736 212.717 172.286 213.292 172.969 213.675C173.653 214.042 174.403 214.225 175.219 214.225ZM187.511 204.825C187.961 204.042 188.627 203.392 189.511 202.875C190.411 202.342 191.452 202.075 192.636 202.075C193.852 202.075 194.952 202.367 195.936 202.95C196.936 203.533 197.719 204.358 198.286 205.425C198.852 206.475 199.136 207.7 199.136 209.1C199.136 210.483 198.852 211.717 198.286 212.8C197.719 213.883 196.936 214.725 195.936 215.325C194.952 215.925 193.852 216.225 192.636 216.225C191.469 216.225 190.436 215.967 189.536 215.45C188.652 214.917 187.977 214.258 187.511 213.475V222.5H185.236V202.3H187.511V204.825ZM196.811 209.1C196.811 208.067 196.602 207.167 196.186 206.4C195.769 205.633 195.202 205.05 194.486 204.65C193.786 204.25 193.011 204.05 192.161 204.05C191.327 204.05 190.552 204.258 189.836 204.675C189.136 205.075 188.569 205.667 188.136 206.45C187.719 207.217 187.511 208.108 187.511 209.125C187.511 210.158 187.719 211.067 188.136 211.85C188.569 212.617 189.136 213.208 189.836 213.625C190.552 214.025 191.327 214.225 192.161 214.225C193.011 214.225 193.786 214.025 194.486 213.625C195.202 213.208 195.769 212.617 196.186 211.85C196.602 211.067 196.811 210.15 196.811 209.1ZM221.295 208.625C221.295 209.058 221.27 209.517 221.22 210H210.27C210.353 211.35 210.812 212.408 211.645 213.175C212.495 213.925 213.52 214.3 214.72 214.3C215.703 214.3 216.52 214.075 217.17 213.625C217.837 213.158 218.303 212.542 218.57 211.775H221.02C220.653 213.092 219.92 214.167 218.82 215C217.72 215.817 216.353 216.225 214.72 216.225C213.42 216.225 212.253 215.933 211.22 215.35C210.203 214.767 209.403 213.942 208.82 212.875C208.237 211.792 207.945 210.542 207.945 209.125C207.945 207.708 208.228 206.467 208.795 205.4C209.362 204.333 210.153 203.517 211.17 202.95C212.203 202.367 213.387 202.075 214.72 202.075C216.02 202.075 217.17 202.358 218.17 202.925C219.17 203.492 219.937 204.275 220.47 205.275C221.02 206.258 221.295 207.375 221.295 208.625ZM218.945 208.15C218.945 207.283 218.753 206.542 218.37 205.925C217.987 205.292 217.462 204.817 216.795 204.5C216.145 204.167 215.42 204 214.62 204C213.47 204 212.487 204.367 211.67 205.1C210.87 205.833 210.412 206.85 210.295 208.15H218.945ZM231.448 216L228.198 210.9L225.073 216H222.698L227.123 209.2L222.698 202.3H225.273L228.523 207.375L231.623 202.3H233.998L229.598 209.075L234.023 216H231.448ZM248.761 208.625C248.761 209.058 248.736 209.517 248.686 210H237.736C237.819 211.35 238.278 212.408 239.111 213.175C239.961 213.925 240.986 214.3 242.186 214.3C243.169 214.3 243.986 214.075 244.636 213.625C245.303 213.158 245.769 212.542 246.036 211.775H248.486C248.119 213.092 247.386 214.167 246.286 215C245.186 215.817 243.819 216.225 242.186 216.225C240.886 216.225 239.719 215.933 238.686 215.35C237.669 214.767 236.869 213.942 236.286 212.875C235.703 211.792 235.411 210.542 235.411 209.125C235.411 207.708 235.694 206.467 236.261 205.4C236.828 204.333 237.619 203.517 238.636 202.95C239.669 202.367 240.853 202.075 242.186 202.075C243.486 202.075 244.636 202.358 245.636 202.925C246.636 203.492 247.403 204.275 247.936 205.275C248.486 206.258 248.761 207.375 248.761 208.625ZM246.411 208.15C246.411 207.283 246.219 206.542 245.836 205.925C245.453 205.292 244.928 204.817 244.261 204.5C243.611 204.167 242.886 204 242.086 204C240.936 204 239.953 204.367 239.136 205.1C238.336 205.833 237.878 206.85 237.761 208.15H246.411ZM250.914 209.125C250.914 207.708 251.197 206.475 251.764 205.425C252.331 204.358 253.114 203.533 254.114 202.95C255.131 202.367 256.289 202.075 257.589 202.075C259.272 202.075 260.656 202.483 261.739 203.3C262.839 204.117 263.564 205.25 263.914 206.7H261.464C261.231 205.867 260.772 205.208 260.089 204.725C259.422 204.242 258.589 204 257.589 204C256.289 204 255.239 204.45 254.439 205.35C253.639 206.233 253.239 207.492 253.239 209.125C253.239 210.775 253.639 212.05 254.439 212.95C255.239 213.85 256.289 214.3 257.589 214.3C258.589 214.3 259.422 214.067 260.089 213.6C260.756 213.133 261.214 212.467 261.464 211.6H263.914C263.547 213 262.814 214.125 261.714 214.975C260.614 215.808 259.239 216.225 257.589 216.225C256.289 216.225 255.131 215.933 254.114 215.35C253.114 214.767 252.331 213.942 251.764 212.875C251.197 211.808 250.914 210.558 250.914 209.125ZM279.099 202.3V216H276.824V213.975C276.391 214.675 275.783 215.225 274.999 215.625C274.233 216.008 273.383 216.2 272.449 216.2C271.383 216.2 270.424 215.983 269.574 215.55C268.724 215.1 268.049 214.433 267.549 213.55C267.066 212.667 266.824 211.592 266.824 210.325V202.3H269.074V210.025C269.074 211.375 269.416 212.417 270.099 213.15C270.783 213.867 271.716 214.225 272.899 214.225C274.116 214.225 275.074 213.85 275.774 213.1C276.474 212.35 276.824 211.258 276.824 209.825V202.3H279.099ZM285.716 204.175V212.25C285.716 212.917 285.857 213.392 286.141 213.675C286.424 213.942 286.916 214.075 287.616 214.075H289.291V216H287.241C285.974 216 285.024 215.708 284.391 215.125C283.757 214.542 283.441 213.583 283.441 212.25V204.175H281.666V202.3H283.441V198.85H285.716V202.3H289.291V204.175H285.716ZM293.222 200.075C292.789 200.075 292.422 199.925 292.122 199.625C291.822 199.325 291.672 198.958 291.672 198.525C291.672 198.092 291.822 197.725 292.122 197.425C292.422 197.125 292.789 196.975 293.222 196.975C293.639 196.975 293.989 197.125 294.272 197.425C294.572 197.725 294.722 198.092 294.722 198.525C294.722 198.958 294.572 199.325 294.272 199.625C293.989 199.925 293.639 200.075 293.222 200.075ZM294.322 202.3V216H292.047V202.3H294.322ZM304.174 216.225C302.891 216.225 301.724 215.933 300.674 215.35C299.641 214.767 298.824 213.942 298.224 212.875C297.641 211.792 297.349 210.542 297.349 209.125C297.349 207.725 297.649 206.492 298.249 205.425C298.866 204.342 299.699 203.517 300.749 202.95C301.799 202.367 302.974 202.075 304.274 202.075C305.574 202.075 306.749 202.367 307.799 202.95C308.849 203.517 309.674 204.333 310.274 205.4C310.891 206.467 311.199 207.708 311.199 209.125C311.199 210.542 310.883 211.792 310.249 212.875C309.633 213.942 308.791 214.767 307.724 215.35C306.658 215.933 305.474 216.225 304.174 216.225ZM304.174 214.225C304.991 214.225 305.758 214.033 306.474 213.65C307.191 213.267 307.766 212.692 308.199 211.925C308.649 211.158 308.874 210.225 308.874 209.125C308.874 208.025 308.658 207.092 308.224 206.325C307.791 205.558 307.224 204.992 306.524 204.625C305.824 204.242 305.066 204.05 304.249 204.05C303.416 204.05 302.649 204.242 301.949 204.625C301.266 204.992 300.716 205.558 300.299 206.325C299.883 207.092 299.674 208.025 299.674 209.125C299.674 210.242 299.874 211.183 300.274 211.95C300.691 212.717 301.241 213.292 301.924 213.675C302.608 214.042 303.358 214.225 304.174 214.225ZM320.866 202.05C322.532 202.05 323.882 202.558 324.916 203.575C325.949 204.575 326.466 206.025 326.466 207.925V216H324.216V208.25C324.216 206.883 323.874 205.842 323.191 205.125C322.507 204.392 321.574 204.025 320.391 204.025C319.191 204.025 318.232 204.4 317.516 205.15C316.816 205.9 316.466 206.992 316.466 208.425V216H314.191V202.3H316.466V204.25C316.916 203.55 317.524 203.008 318.291 202.625C319.074 202.242 319.932 202.05 320.866 202.05Z" fill="#21B573"/>
<defs>
<filter id="filter0_d_728_120" x="2" y="13" width="678" height="605" filterUnits="userSpaceOnUse" color-interpolation-filters="sRGB">
<feFlood flood-opacity="0" result="BackgroundImageFix"/>
<feColorMatrix in="SourceAlpha" type="matrix" values="0 0 0 0 0 0 0 0 0 0 0 0 0 0 0 0 0 0 127 0" result="hardAlpha"/>
<feOffset dy="12"/>
<feGaussianBlur stdDeviation="9"/>
<feComposite in2="hardAlpha" operator="out"/>
<feColorMatrix type="matrix" values="0 0 0 0 0.0196078 0 0 0 0 0.337255 0 0 0 0 0.952941 0 0 0 0.05 0"/>
<feBlend mode="normal" in2="BackgroundImageFix" result="effect1_dropShadow_728_120"/>
<feBlend mode="normal" in="SourceGraphic" in2="effect1_dropShadow_728_120" result="shape"/>
</filter>
</defs>
</svg>
