<svg width="641" height="156" viewBox="0 0 641 156" fill="none" xmlns="http://www.w3.org/2000/svg">
<g filter="url(#filter0_d_723_178)">
<rect width="633" height="148" transform="translate(4)" fill="black"/>
<path d="M26.6 26.05C28.2667 26.05 29.6167 26.5583 30.65 27.575C31.6833 28.575 32.2 30.025 32.2 31.925V40H29.95V32.25C29.95 30.8833 29.6083 29.8417 28.925 29.125C28.2417 28.3917 27.3083 28.025 26.125 28.025C24.925 28.025 23.9667 28.4 23.25 29.15C22.55 29.9 22.2 30.9917 22.2 32.425V40H19.925V26.3H22.2V28.25C22.65 27.55 23.2583 27.0083 24.025 26.625C24.8083 26.2417 25.6667 26.05 26.6 26.05ZM48.0662 26.3V40H45.7912V37.975C45.3579 38.675 44.7495 39.225 43.9662 39.625C43.1995 40.0083 42.3495 40.2 41.4162 40.2C40.3495 40.2 39.3912 39.9833 38.5412 39.55C37.6912 39.1 37.0162 38.4333 36.5162 37.55C36.0329 36.6667 35.7912 35.5917 35.7912 34.325V26.3H38.0412V34.025C38.0412 35.375 38.3829 36.4167 39.0662 37.15C39.7495 37.8667 40.6829 38.225 41.8662 38.225C43.0829 38.225 44.0412 37.85 44.7412 37.1C45.4412 36.35 45.7912 35.2583 45.7912 33.825V26.3H48.0662ZM68.3824 26.05C69.4491 26.05 70.3991 26.275 71.2324 26.725C72.0658 27.1583 72.7241 27.8167 73.2074 28.7C73.6908 29.5833 73.9324 30.6583 73.9324 31.925V40H71.6824V32.25C71.6824 30.8833 71.3408 29.8417 70.6574 29.125C69.9908 28.3917 69.0824 28.025 67.9324 28.025C66.7491 28.025 65.8074 28.4083 65.1074 29.175C64.4074 29.925 64.0574 31.0167 64.0574 32.45V40H61.8074V32.25C61.8074 30.8833 61.4658 29.8417 60.7824 29.125C60.1158 28.3917 59.2074 28.025 58.0574 28.025C56.8741 28.025 55.9324 28.4083 55.2324 29.175C54.5324 29.925 54.1824 31.0167 54.1824 32.45V40H51.9074V26.3H54.1824V28.275C54.6324 27.5583 55.2324 27.0083 55.9824 26.625C56.7491 26.2417 57.5908 26.05 58.5074 26.05C59.6574 26.05 60.6741 26.3083 61.5574 26.825C62.4408 27.3417 63.0991 28.1 63.5324 29.1C63.9158 28.1333 64.5491 27.3833 65.4324 26.85C66.3158 26.3167 67.2991 26.05 68.3824 26.05ZM85.5043 24.075C85.071 24.075 84.7043 23.925 84.4043 23.625C84.1043 23.325 83.9543 22.9583 83.9543 22.525C83.9543 22.0917 84.1043 21.725 84.4043 21.425C84.7043 21.125 85.071 20.975 85.5043 20.975C85.921 20.975 86.271 21.125 86.5543 21.425C86.8543 21.725 87.0043 22.0917 87.0043 22.525C87.0043 22.9583 86.8543 23.325 86.5543 23.625C86.271 23.925 85.921 24.075 85.5043 24.075ZM86.6043 26.3V40H84.3293V26.3H86.6043ZM95.3316 40.225C94.2816 40.225 93.34 40.05 92.5066 39.7C91.6733 39.3333 91.015 38.8333 90.5316 38.2C90.0483 37.55 89.7816 36.8083 89.7316 35.975H92.0816C92.1483 36.6583 92.465 37.2167 93.0316 37.65C93.615 38.0833 94.3733 38.3 95.3066 38.3C96.1733 38.3 96.8566 38.1083 97.3566 37.725C97.8566 37.3417 98.1066 36.8583 98.1066 36.275C98.1066 35.675 97.84 35.2333 97.3066 34.95C96.7733 34.65 95.9483 34.3583 94.8316 34.075C93.815 33.8083 92.9816 33.5417 92.3316 33.275C91.6983 32.9917 91.1483 32.5833 90.6816 32.05C90.2316 31.5 90.0066 30.7833 90.0066 29.9C90.0066 29.2 90.215 28.5583 90.6316 27.975C91.0483 27.3917 91.64 26.9333 92.4066 26.6C93.1733 26.25 94.0483 26.075 95.0316 26.075C96.5483 26.075 97.7733 26.4583 98.7066 27.225C99.64 27.9917 100.14 29.0417 100.207 30.375H97.9316C97.8816 29.6583 97.59 29.0833 97.0566 28.65C96.54 28.2167 95.84 28 94.9566 28C94.14 28 93.49 28.175 93.0066 28.525C92.5233 28.875 92.2816 29.3333 92.2816 29.9C92.2816 30.35 92.4233 30.725 92.7066 31.025C93.0066 31.3083 93.3733 31.5417 93.8066 31.725C94.2566 31.8917 94.8733 32.0833 95.6566 32.3C96.64 32.5667 97.44 32.8333 98.0566 33.1C98.6733 33.35 99.1983 33.7333 99.6316 34.25C100.082 34.7667 100.315 35.4417 100.332 36.275C100.332 37.025 100.123 37.7 99.7066 38.3C99.29 38.9 98.6983 39.375 97.9316 39.725C97.1816 40.0583 96.315 40.225 95.3316 40.225ZM116.883 26.05C118.55 26.05 119.9 26.5583 120.933 27.575C121.967 28.575 122.483 30.025 122.483 31.925V40H120.233V32.25C120.233 30.8833 119.892 29.8417 119.208 29.125C118.525 28.3917 117.592 28.025 116.408 28.025C115.208 28.025 114.25 28.4 113.533 29.15C112.833 29.9 112.483 30.9917 112.483 32.425V40H110.208V26.3H112.483V28.25C112.933 27.55 113.542 27.0083 114.308 26.625C115.092 26.2417 115.95 26.05 116.883 26.05ZM132.174 40.225C130.891 40.225 129.724 39.9333 128.674 39.35C127.641 38.7667 126.824 37.9417 126.224 36.875C125.641 35.7917 125.349 34.5417 125.349 33.125C125.349 31.725 125.649 30.4917 126.249 29.425C126.866 28.3417 127.699 27.5167 128.749 26.95C129.799 26.3667 130.974 26.075 132.274 26.075C133.574 26.075 134.749 26.3667 135.799 26.95C136.849 27.5167 137.674 28.3333 138.274 29.4C138.891 30.4667 139.199 31.7083 139.199 33.125C139.199 34.5417 138.883 35.7917 138.249 36.875C137.633 37.9417 136.791 38.7667 135.724 39.35C134.658 39.9333 133.474 40.225 132.174 40.225ZM132.174 38.225C132.991 38.225 133.758 38.0333 134.474 37.65C135.191 37.2667 135.766 36.6917 136.199 35.925C136.649 35.1583 136.874 34.225 136.874 33.125C136.874 32.025 136.658 31.0917 136.224 30.325C135.791 29.5583 135.224 28.9917 134.524 28.625C133.824 28.2417 133.066 28.05 132.249 28.05C131.416 28.05 130.649 28.2417 129.949 28.625C129.266 28.9917 128.716 29.5583 128.299 30.325C127.883 31.0917 127.674 32.025 127.674 33.125C127.674 34.2417 127.874 35.1833 128.274 35.95C128.691 36.7167 129.241 37.2917 129.924 37.675C130.608 38.0417 131.358 38.225 132.174 38.225ZM144.966 28.175V36.25C144.966 36.9167 145.107 37.3917 145.391 37.675C145.674 37.9417 146.166 38.075 146.866 38.075H148.541V40H146.491C145.224 40 144.274 39.7083 143.641 39.125C143.007 38.5417 142.691 37.5833 142.691 36.25V28.175H140.916V26.3H142.691V22.85H144.966V26.3H148.541V28.175H144.966ZM160.237 21.5V40H157.962V21.5H160.237ZM176.614 32.625C176.614 33.0583 176.589 33.5167 176.539 34H165.589C165.673 35.35 166.131 36.4083 166.964 37.175C167.814 37.925 168.839 38.3 170.039 38.3C171.023 38.3 171.839 38.075 172.489 37.625C173.156 37.1583 173.623 36.5417 173.889 35.775H176.339C175.973 37.0917 175.239 38.1667 174.139 39C173.039 39.8167 171.673 40.225 170.039 40.225C168.739 40.225 167.573 39.9333 166.539 39.35C165.523 38.7667 164.723 37.9417 164.139 36.875C163.556 35.7917 163.264 34.5417 163.264 33.125C163.264 31.7083 163.548 30.4667 164.114 29.4C164.681 28.3333 165.473 27.5167 166.489 26.95C167.523 26.3667 168.706 26.075 170.039 26.075C171.339 26.075 172.489 26.3583 173.489 26.925C174.489 27.4917 175.256 28.275 175.789 29.275C176.339 30.2583 176.614 31.375 176.614 32.625ZM174.264 32.15C174.264 31.2833 174.073 30.5417 173.689 29.925C173.306 29.2917 172.781 28.8167 172.114 28.5C171.464 28.1667 170.739 28 169.939 28C168.789 28 167.806 28.3667 166.989 29.1C166.189 29.8333 165.731 30.85 165.614 32.15H174.264ZM184.467 40.225C183.417 40.225 182.476 40.05 181.642 39.7C180.809 39.3333 180.151 38.8333 179.667 38.2C179.184 37.55 178.917 36.8083 178.867 35.975H181.217C181.284 36.6583 181.601 37.2167 182.167 37.65C182.751 38.0833 183.509 38.3 184.442 38.3C185.309 38.3 185.992 38.1083 186.492 37.725C186.992 37.3417 187.242 36.8583 187.242 36.275C187.242 35.675 186.976 35.2333 186.442 34.95C185.909 34.65 185.084 34.3583 183.967 34.075C182.951 33.8083 182.117 33.5417 181.467 33.275C180.834 32.9917 180.284 32.5833 179.817 32.05C179.367 31.5 179.142 30.7833 179.142 29.9C179.142 29.2 179.351 28.5583 179.767 27.975C180.184 27.3917 180.776 26.9333 181.542 26.6C182.309 26.25 183.184 26.075 184.167 26.075C185.684 26.075 186.909 26.4583 187.842 27.225C188.776 27.9917 189.276 29.0417 189.342 30.375H187.067C187.017 29.6583 186.726 29.0833 186.192 28.65C185.676 28.2167 184.976 28 184.092 28C183.276 28 182.626 28.175 182.142 28.525C181.659 28.875 181.417 29.3333 181.417 29.9C181.417 30.35 181.559 30.725 181.842 31.025C182.142 31.3083 182.509 31.5417 182.942 31.725C183.392 31.8917 184.009 32.0833 184.792 32.3C185.776 32.5667 186.576 32.8333 187.192 33.1C187.809 33.35 188.334 33.7333 188.767 34.25C189.217 34.7667 189.451 35.4417 189.467 36.275C189.467 37.025 189.259 37.7 188.842 38.3C188.426 38.9 187.834 39.375 187.067 39.725C186.317 40.0583 185.451 40.225 184.467 40.225ZM197.529 40.225C196.479 40.225 195.537 40.05 194.704 39.7C193.871 39.3333 193.212 38.8333 192.729 38.2C192.246 37.55 191.979 36.8083 191.929 35.975H194.279C194.346 36.6583 194.662 37.2167 195.229 37.65C195.812 38.0833 196.571 38.3 197.504 38.3C198.371 38.3 199.054 38.1083 199.554 37.725C200.054 37.3417 200.304 36.8583 200.304 36.275C200.304 35.675 200.037 35.2333 199.504 34.95C198.971 34.65 198.146 34.3583 197.029 34.075C196.012 33.8083 195.179 33.5417 194.529 33.275C193.896 32.9917 193.346 32.5833 192.879 32.05C192.429 31.5 192.204 30.7833 192.204 29.9C192.204 29.2 192.412 28.5583 192.829 27.975C193.246 27.3917 193.837 26.9333 194.604 26.6C195.371 26.25 196.246 26.075 197.229 26.075C198.746 26.075 199.971 26.4583 200.904 27.225C201.837 27.9917 202.337 29.0417 202.404 30.375H200.129C200.079 29.6583 199.787 29.0833 199.254 28.65C198.737 28.2167 198.037 28 197.154 28C196.337 28 195.687 28.175 195.204 28.525C194.721 28.875 194.479 29.3333 194.479 29.9C194.479 30.35 194.621 30.725 194.904 31.025C195.204 31.3083 195.571 31.5417 196.004 31.725C196.454 31.8917 197.071 32.0833 197.854 32.3C198.837 32.5667 199.637 32.8333 200.254 33.1C200.871 33.35 201.396 33.7333 201.829 34.25C202.279 34.7667 202.512 35.4417 202.529 36.275C202.529 37.025 202.321 37.7 201.904 38.3C201.487 38.9 200.896 39.375 200.129 39.725C199.379 40.0583 198.512 40.225 197.529 40.225ZM215.18 28.175V36.25C215.18 36.9167 215.322 37.3917 215.605 37.675C215.889 37.9417 216.38 38.075 217.08 38.075H218.755V40H216.705C215.439 40 214.489 39.7083 213.855 39.125C213.222 38.5417 212.905 37.5833 212.905 36.25V28.175H211.13V26.3H212.905V22.85H215.18V26.3H218.755V28.175H215.18ZM228.312 26.05C229.345 26.05 230.279 26.275 231.112 26.725C231.945 27.1583 232.595 27.8167 233.062 28.7C233.545 29.5833 233.787 30.6583 233.787 31.925V40H231.537V32.25C231.537 30.8833 231.195 29.8417 230.512 29.125C229.829 28.3917 228.895 28.025 227.712 28.025C226.512 28.025 225.554 28.4 224.837 29.15C224.137 29.9 223.787 30.9917 223.787 32.425V40H221.512V21.5H223.787V28.25C224.237 27.55 224.854 27.0083 225.637 26.625C226.437 26.2417 227.329 26.05 228.312 26.05ZM236.653 33.1C236.653 31.7 236.936 30.475 237.503 29.425C238.07 28.3583 238.845 27.5333 239.828 26.95C240.828 26.3667 241.936 26.075 243.153 26.075C244.353 26.075 245.395 26.3333 246.278 26.85C247.161 27.3667 247.82 28.0167 248.253 28.8V26.3H250.553V40H248.253V37.45C247.803 38.25 247.128 38.9167 246.228 39.45C245.345 39.9667 244.311 40.225 243.128 40.225C241.911 40.225 240.811 39.925 239.828 39.325C238.845 38.725 238.07 37.8833 237.503 36.8C236.936 35.7167 236.653 34.4833 236.653 33.1ZM248.253 33.125C248.253 32.0917 248.045 31.1917 247.628 30.425C247.211 29.6583 246.645 29.075 245.928 28.675C245.228 28.2583 244.453 28.05 243.603 28.05C242.753 28.05 241.978 28.25 241.278 28.65C240.578 29.05 240.02 29.6333 239.603 30.4C239.186 31.1667 238.978 32.0667 238.978 33.1C238.978 34.15 239.186 35.0667 239.603 35.85C240.02 36.6167 240.578 37.2083 241.278 37.625C241.978 38.025 242.753 38.225 243.603 38.225C244.453 38.225 245.228 38.025 245.928 37.625C246.645 37.2083 247.211 36.6167 247.628 35.85C248.045 35.0667 248.253 34.1583 248.253 33.125ZM261.073 26.05C262.739 26.05 264.089 26.5583 265.123 27.575C266.156 28.575 266.673 30.025 266.673 31.925V40H264.423V32.25C264.423 30.8833 264.081 29.8417 263.398 29.125C262.714 28.3917 261.781 28.025 260.598 28.025C259.398 28.025 258.439 28.4 257.723 29.15C257.023 29.9 256.673 30.9917 256.673 32.425V40H254.398V26.3H256.673V28.25C257.123 27.55 257.731 27.0083 258.498 26.625C259.281 26.2417 260.139 26.05 261.073 26.05ZM276.404 38.175C278.521 36.475 280.179 35.0833 281.379 34C282.579 32.9 283.587 31.7583 284.404 30.575C285.237 29.375 285.654 28.2 285.654 27.05C285.654 25.9667 285.387 25.1167 284.854 24.5C284.337 23.8667 283.496 23.55 282.329 23.55C281.196 23.55 280.312 23.9083 279.679 24.625C279.062 25.325 278.729 26.2667 278.679 27.45H276.479C276.546 25.5833 277.112 24.1417 278.179 23.125C279.246 22.1083 280.621 21.6 282.304 21.6C284.021 21.6 285.379 22.075 286.379 23.025C287.396 23.975 287.904 25.2833 287.904 26.95C287.904 28.3333 287.487 29.6833 286.654 31C285.837 32.3 284.904 33.45 283.854 34.45C282.804 35.4333 281.462 36.5833 279.829 37.9H288.429V39.8H276.404V38.175ZM291.059 30.775C291.059 27.9083 291.525 25.675 292.459 24.075C293.392 22.4583 295.025 21.65 297.359 21.65C299.675 21.65 301.3 22.4583 302.234 24.075C303.167 25.675 303.634 27.9083 303.634 30.775C303.634 33.6917 303.167 35.9583 302.234 37.575C301.3 39.1917 299.675 40 297.359 40C295.025 40 293.392 39.1917 292.459 37.575C291.525 35.9583 291.059 33.6917 291.059 30.775ZM301.384 30.775C301.384 29.325 301.284 28.1 301.084 27.1C300.9 26.0833 300.509 25.2667 299.909 24.65C299.325 24.0333 298.475 23.725 297.359 23.725C296.225 23.725 295.359 24.0333 294.759 24.65C294.175 25.2667 293.784 26.0833 293.584 27.1C293.4 28.1 293.309 29.325 293.309 30.775C293.309 32.275 293.4 33.5333 293.584 34.55C293.784 35.5667 294.175 36.3833 294.759 37C295.359 37.6167 296.225 37.925 297.359 37.925C298.475 37.925 299.325 37.6167 299.909 37C300.509 36.3833 300.9 35.5667 301.084 34.55C301.284 33.5333 301.384 32.275 301.384 30.775ZM25.025 75.9L29.275 64.3H31.7L26.325 78H23.675L18.3 64.3H20.75L25.025 75.9ZM33.0887 71.1C33.0887 69.7 33.372 68.475 33.9387 67.425C34.5053 66.3583 35.2803 65.5333 36.2637 64.95C37.2637 64.3667 38.372 64.075 39.5887 64.075C40.7887 64.075 41.8303 64.3333 42.7137 64.85C43.597 65.3667 44.2553 66.0167 44.6887 66.8V64.3H46.9887V78H44.6887V75.45C44.2387 76.25 43.5637 76.9167 42.6637 77.45C41.7803 77.9667 40.747 78.225 39.5637 78.225C38.347 78.225 37.247 77.925 36.2637 77.325C35.2803 76.725 34.5053 75.8833 33.9387 74.8C33.372 73.7167 33.0887 72.4833 33.0887 71.1ZM44.6887 71.125C44.6887 70.0917 44.4803 69.1917 44.0637 68.425C43.647 67.6583 43.0803 67.075 42.3637 66.675C41.6637 66.2583 40.8887 66.05 40.0387 66.05C39.1887 66.05 38.4137 66.25 37.7137 66.65C37.0137 67.05 36.4553 67.6333 36.0387 68.4C35.622 69.1667 35.4137 70.0667 35.4137 71.1C35.4137 72.15 35.622 73.0667 36.0387 73.85C36.4553 74.6167 37.0137 75.2083 37.7137 75.625C38.4137 76.025 39.1887 76.225 40.0387 76.225C40.8887 76.225 41.6637 76.025 42.3637 75.625C43.0803 75.2083 43.647 74.6167 44.0637 73.85C44.4803 73.0667 44.6887 72.1583 44.6887 71.125ZM53.1082 59.5V78H50.8332V59.5H53.1082ZM69.1355 64.3V78H66.8605V75.975C66.4272 76.675 65.8189 77.225 65.0355 77.625C64.2689 78.0083 63.4189 78.2 62.4855 78.2C61.4189 78.2 60.4605 77.9833 59.6105 77.55C58.7605 77.1 58.0855 76.4333 57.5855 75.55C57.1022 74.6667 56.8605 73.5917 56.8605 72.325V64.3H59.1105V72.025C59.1105 73.375 59.4522 74.4167 60.1355 75.15C60.8189 75.8667 61.7522 76.225 62.9355 76.225C64.1522 76.225 65.1105 75.85 65.8105 75.1C66.5105 74.35 66.8605 73.2583 66.8605 71.825V64.3H69.1355ZM85.4768 70.625C85.4768 71.0583 85.4518 71.5167 85.4018 72H74.4518C74.5351 73.35 74.9934 74.4083 75.8268 75.175C76.6768 75.925 77.7018 76.3 78.9018 76.3C79.8851 76.3 80.7018 76.075 81.3518 75.625C82.0184 75.1583 82.4851 74.5417 82.7518 73.775H85.2018C84.8351 75.0917 84.1018 76.1667 83.0018 77C81.9018 77.8167 80.5351 78.225 78.9018 78.225C77.6018 78.225 76.4351 77.9333 75.4018 77.35C74.3851 76.7667 73.5851 75.9417 73.0018 74.875C72.4184 73.7917 72.1268 72.5417 72.1268 71.125C72.1268 69.7083 72.4101 68.4667 72.9768 67.4C73.5434 66.3333 74.3351 65.5167 75.3518 64.95C76.3851 64.3667 77.5684 64.075 78.9018 64.075C80.2018 64.075 81.3518 64.3583 82.3518 64.925C83.3518 65.4917 84.1184 66.275 84.6518 67.275C85.2018 68.2583 85.4768 69.375 85.4768 70.625ZM83.1268 70.15C83.1268 69.2833 82.9351 68.5417 82.5518 67.925C82.1684 67.2917 81.6434 66.8167 80.9768 66.5C80.3268 66.1667 79.6018 66 78.8018 66C77.6518 66 76.6684 66.3667 75.8518 67.1C75.0518 67.8333 74.5934 68.85 74.4768 70.15H83.1268ZM101.12 78.225C99.8364 78.225 98.6697 77.9333 97.6197 77.35C96.5864 76.7667 95.7697 75.9417 95.1697 74.875C94.5864 73.7917 94.2947 72.5417 94.2947 71.125C94.2947 69.725 94.5947 68.4917 95.1947 67.425C95.8114 66.3417 96.6447 65.5167 97.6947 64.95C98.7447 64.3667 99.9197 64.075 101.22 64.075C102.52 64.075 103.695 64.3667 104.745 64.95C105.795 65.5167 106.62 66.3333 107.22 67.4C107.836 68.4667 108.145 69.7083 108.145 71.125C108.145 72.5417 107.828 73.7917 107.195 74.875C106.578 75.9417 105.736 76.7667 104.67 77.35C103.603 77.9333 102.42 78.225 101.12 78.225ZM101.12 76.225C101.936 76.225 102.703 76.0333 103.42 75.65C104.136 75.2667 104.711 74.6917 105.145 73.925C105.595 73.1583 105.82 72.225 105.82 71.125C105.82 70.025 105.603 69.0917 105.17 68.325C104.736 67.5583 104.17 66.9917 103.47 66.625C102.77 66.2417 102.011 66.05 101.195 66.05C100.361 66.05 99.5947 66.2417 98.8947 66.625C98.2114 66.9917 97.6614 67.5583 97.2447 68.325C96.8281 69.0917 96.6197 70.025 96.6197 71.125C96.6197 72.2417 96.8197 73.1833 97.2197 73.95C97.6364 74.7167 98.1864 75.2917 98.8697 75.675C99.5531 76.0417 100.303 76.225 101.12 76.225ZM116.711 66.175H113.836V78H111.561V66.175H109.786V64.3H111.561V63.325C111.561 61.7917 111.953 60.675 112.736 59.975C113.536 59.2583 114.811 58.9 116.561 58.9V60.8C115.561 60.8 114.853 61 114.436 61.4C114.036 61.7833 113.836 62.425 113.836 63.325V64.3H116.711V66.175ZM132.704 64.05C134.37 64.05 135.72 64.5583 136.754 65.575C137.787 66.575 138.304 68.025 138.304 69.925V78H136.054V70.25C136.054 68.8833 135.712 67.8417 135.029 67.125C134.345 66.3917 133.412 66.025 132.229 66.025C131.029 66.025 130.07 66.4 129.354 67.15C128.654 67.9 128.304 68.9917 128.304 70.425V78H126.029V64.3H128.304V66.25C128.754 65.55 129.362 65.0083 130.129 64.625C130.912 64.2417 131.77 64.05 132.704 64.05ZM154.17 64.3V78H151.895V75.975C151.461 76.675 150.853 77.225 150.07 77.625C149.303 78.0083 148.453 78.2 147.52 78.2C146.453 78.2 145.495 77.9833 144.645 77.55C143.795 77.1 143.12 76.4333 142.62 75.55C142.136 74.6667 141.895 73.5917 141.895 72.325V64.3H144.145V72.025C144.145 73.375 144.486 74.4167 145.17 75.15C145.853 75.8667 146.786 76.225 147.97 76.225C149.186 76.225 150.145 75.85 150.845 75.1C151.545 74.35 151.895 73.2583 151.895 71.825V64.3H154.17ZM174.486 64.05C175.553 64.05 176.503 64.275 177.336 64.725C178.169 65.1583 178.828 65.8167 179.311 66.7C179.794 67.5833 180.036 68.6583 180.036 69.925V78H177.786V70.25C177.786 68.8833 177.444 67.8417 176.761 67.125C176.094 66.3917 175.186 66.025 174.036 66.025C172.853 66.025 171.911 66.4083 171.211 67.175C170.511 67.925 170.161 69.0167 170.161 70.45V78H167.911V70.25C167.911 68.8833 167.569 67.8417 166.886 67.125C166.219 66.3917 165.311 66.025 164.161 66.025C162.978 66.025 162.036 66.4083 161.336 67.175C160.636 67.925 160.286 69.0167 160.286 70.45V78H158.011V64.3H160.286V66.275C160.736 65.5583 161.336 65.0083 162.086 64.625C162.853 64.2417 163.694 64.05 164.611 64.05C165.761 64.05 166.778 64.3083 167.661 64.825C168.544 65.3417 169.203 66.1 169.636 67.1C170.019 66.1333 170.653 65.3833 171.536 64.85C172.419 64.3167 173.403 64.05 174.486 64.05ZM191.608 62.075C191.174 62.075 190.808 61.925 190.508 61.625C190.208 61.325 190.058 60.9583 190.058 60.525C190.058 60.0917 190.208 59.725 190.508 59.425C190.808 59.125 191.174 58.975 191.608 58.975C192.024 58.975 192.374 59.125 192.658 59.425C192.958 59.725 193.108 60.0917 193.108 60.525C193.108 60.9583 192.958 61.325 192.658 61.625C192.374 61.925 192.024 62.075 191.608 62.075ZM192.708 64.3V78H190.433V64.3H192.708ZM201.435 78.225C200.385 78.225 199.443 78.05 198.61 77.7C197.777 77.3333 197.118 76.8333 196.635 76.2C196.152 75.55 195.885 74.8083 195.835 73.975H198.185C198.252 74.6583 198.568 75.2167 199.135 75.65C199.718 76.0833 200.477 76.3 201.41 76.3C202.277 76.3 202.96 76.1083 203.46 75.725C203.96 75.3417 204.21 74.8583 204.21 74.275C204.21 73.675 203.943 73.2333 203.41 72.95C202.877 72.65 202.052 72.3583 200.935 72.075C199.918 71.8083 199.085 71.5417 198.435 71.275C197.802 70.9917 197.252 70.5833 196.785 70.05C196.335 69.5 196.11 68.7833 196.11 67.9C196.11 67.2 196.318 66.5583 196.735 65.975C197.152 65.3917 197.743 64.9333 198.51 64.6C199.277 64.25 200.152 64.075 201.135 64.075C202.652 64.075 203.877 64.4583 204.81 65.225C205.743 65.9917 206.243 67.0417 206.31 68.375H204.035C203.985 67.6583 203.693 67.0833 203.16 66.65C202.643 66.2167 201.943 66 201.06 66C200.243 66 199.593 66.175 199.11 66.525C198.627 66.875 198.385 67.3333 198.385 67.9C198.385 68.35 198.527 68.725 198.81 69.025C199.11 69.3083 199.477 69.5417 199.91 69.725C200.36 69.8917 200.977 70.0833 201.76 70.3C202.743 70.5667 203.543 70.8333 204.16 71.1C204.777 71.35 205.302 71.7333 205.735 72.25C206.185 72.7667 206.418 73.4417 206.435 74.275C206.435 75.025 206.227 75.7 205.81 76.3C205.393 76.9 204.802 77.375 204.035 77.725C203.285 78.0583 202.418 78.225 201.435 78.225ZM217.037 78.15C216.603 78.15 216.237 78 215.937 77.7C215.637 77.4 215.487 77.0333 215.487 76.6C215.487 76.1667 215.637 75.8 215.937 75.5C216.237 75.2 216.603 75.05 217.037 75.05C217.453 75.05 217.803 75.2 218.087 75.5C218.387 75.8 218.537 76.1667 218.537 76.6C218.537 77.0333 218.387 77.4 218.087 77.7C217.803 78 217.453 78.15 217.037 78.15ZM217.037 67.45C216.603 67.45 216.237 67.3 215.937 67C215.637 66.7 215.487 66.3333 215.487 65.9C215.487 65.4667 215.637 65.1 215.937 64.8C216.237 64.5 216.603 64.35 217.037 64.35C217.453 64.35 217.803 64.5 218.087 64.8C218.387 65.1 218.537 65.4667 218.537 65.9C218.537 66.3333 218.387 66.7 218.087 67C217.803 67.3 217.453 67.45 217.037 67.45ZM239.449 61.9H230.674V67.6C231.057 67.0667 231.624 66.6333 232.374 66.3C233.124 65.95 233.932 65.775 234.799 65.775C236.182 65.775 237.307 66.0667 238.174 66.65C239.041 67.2167 239.657 67.9583 240.024 68.875C240.407 69.775 240.599 70.7333 240.599 71.75C240.599 72.95 240.374 74.025 239.924 74.975C239.474 75.925 238.782 76.675 237.849 77.225C236.932 77.775 235.791 78.05 234.424 78.05C232.674 78.05 231.257 77.6 230.174 76.7C229.091 75.8 228.432 74.6 228.199 73.1H230.424C230.641 74.05 231.099 74.7917 231.799 75.325C232.499 75.8583 233.382 76.125 234.449 76.125C235.766 76.125 236.757 75.7333 237.424 74.95C238.091 74.15 238.424 73.1 238.424 71.8C238.424 70.5 238.091 69.5 237.424 68.8C236.757 68.0833 235.774 67.725 234.474 67.725C233.591 67.725 232.816 67.9417 232.149 68.375C231.499 68.7917 231.024 69.3667 230.724 70.1H228.574V59.9H239.449V61.9ZM243.622 68.775C243.622 65.9083 244.089 63.675 245.022 62.075C245.956 60.4583 247.589 59.65 249.922 59.65C252.239 59.65 253.864 60.4583 254.797 62.075C255.731 63.675 256.197 65.9083 256.197 68.775C256.197 71.6917 255.731 73.9583 254.797 75.575C253.864 77.1917 252.239 78 249.922 78C247.589 78 245.956 77.1917 245.022 75.575C244.089 73.9583 243.622 71.6917 243.622 68.775ZM253.947 68.775C253.947 67.325 253.847 66.1 253.647 65.1C253.464 64.0833 253.072 63.2667 252.472 62.65C251.889 62.0333 251.039 61.725 249.922 61.725C248.789 61.725 247.922 62.0333 247.322 62.65C246.739 63.2667 246.347 64.0833 246.147 65.1C245.964 66.1 245.872 67.325 245.872 68.775C245.872 70.275 245.964 71.5333 246.147 72.55C246.347 73.5667 246.739 74.3833 247.322 75C247.922 75.6167 248.789 75.925 249.922 75.925C251.039 75.925 251.889 75.6167 252.472 75C253.072 74.3833 253.464 73.5667 253.647 72.55C253.847 71.5333 253.947 70.275 253.947 68.775ZM32.025 103.8C32.025 104.683 31.8167 105.517 31.4 106.3C30.9833 107.083 30.3167 107.725 29.4 108.225C28.4833 108.708 27.3083 108.95 25.875 108.95H22.725V116H19.875V98.625H25.875C27.2083 98.625 28.3333 98.8583 29.25 99.325C30.1833 99.775 30.875 100.392 31.325 101.175C31.7917 101.958 32.025 102.833 32.025 103.8ZM25.875 106.625C26.9583 106.625 27.7667 106.383 28.3 105.9C28.8333 105.4 29.1 104.7 29.1 103.8C29.1 101.9 28.025 100.95 25.875 100.95H22.725V106.625H25.875ZM37.5932 113.7H43.4682V116H34.7432V98.625H37.5932V113.7ZM55.1016 92.4L48.3016 120.375H45.5016L52.2766 92.4H55.1016ZM64.4184 116.175C63.2517 116.175 62.2017 115.975 61.2684 115.575C60.335 115.158 59.6017 114.575 59.0684 113.825C58.535 113.075 58.2684 112.2 58.2684 111.2H61.3184C61.385 111.95 61.6767 112.567 62.1934 113.05C62.7267 113.533 63.4684 113.775 64.4184 113.775C65.4017 113.775 66.1684 113.542 66.7184 113.075C67.2684 112.592 67.5434 111.975 67.5434 111.225C67.5434 110.642 67.3684 110.167 67.0184 109.8C66.685 109.433 66.26 109.15 65.7434 108.95C65.2434 108.75 64.5434 108.533 63.6434 108.3C62.51 108 61.585 107.7 60.8684 107.4C60.1684 107.083 59.5684 106.6 59.0684 105.95C58.5684 105.3 58.3184 104.433 58.3184 103.35C58.3184 102.35 58.5684 101.475 59.0684 100.725C59.5684 99.975 60.2684 99.4 61.1684 99C62.0684 98.6 63.11 98.4 64.2934 98.4C65.9767 98.4 67.3517 98.825 68.4184 99.675C69.5017 100.508 70.1017 101.658 70.2184 103.125H67.0684C67.0184 102.492 66.7184 101.95 66.1684 101.5C65.6184 101.05 64.8934 100.825 63.9934 100.825C63.1767 100.825 62.51 101.033 61.9934 101.45C61.4767 101.867 61.2184 102.467 61.2184 103.25C61.2184 103.783 61.3767 104.225 61.6934 104.575C62.0267 104.908 62.4434 105.175 62.9434 105.375C63.4434 105.575 64.1267 105.792 64.9934 106.025C66.1434 106.342 67.0767 106.658 67.7934 106.975C68.5267 107.292 69.1434 107.783 69.6434 108.45C70.16 109.1 70.4184 109.975 70.4184 111.075C70.4184 111.958 70.1767 112.792 69.6934 113.575C69.2267 114.358 68.535 114.992 67.6184 115.475C66.7184 115.942 65.6517 116.175 64.4184 116.175ZM87.2313 119.15L84.1813 115.85C83.4313 116.067 82.6063 116.175 81.7063 116.175C80.0896 116.175 78.5979 115.8 77.2313 115.05C75.8813 114.283 74.8063 113.225 74.0063 111.875C73.2229 110.508 72.8313 108.975 72.8313 107.275C72.8313 105.575 73.2229 104.05 74.0063 102.7C74.8063 101.35 75.8813 100.3 77.2313 99.55C78.5979 98.7833 80.0896 98.4 81.7063 98.4C83.3396 98.4 84.8313 98.7833 86.1813 99.55C87.5479 100.3 88.6229 101.35 89.4063 102.7C90.1896 104.05 90.5813 105.575 90.5813 107.275C90.5813 108.875 90.2313 110.325 89.5313 111.625C88.8479 112.908 87.8979 113.942 86.6813 114.725L90.8563 119.15H87.2313ZM75.7563 107.275C75.7563 108.558 76.0063 109.692 76.5063 110.675C77.0229 111.642 77.7313 112.392 78.6313 112.925C79.5313 113.442 80.5563 113.7 81.7063 113.7C82.8563 113.7 83.8813 113.442 84.7813 112.925C85.6813 112.392 86.3813 111.642 86.8813 110.675C87.3979 109.692 87.6563 108.558 87.6563 107.275C87.6563 105.992 87.3979 104.867 86.8813 103.9C86.3813 102.933 85.6813 102.192 84.7813 101.675C83.8813 101.158 82.8563 100.9 81.7063 100.9C80.5563 100.9 79.5313 101.158 78.6313 101.675C77.7313 102.192 77.0229 102.933 76.5063 103.9C76.0063 104.867 75.7563 105.992 75.7563 107.275ZM96.309 113.7H102.184V116H93.459V98.625H96.309V113.7ZM113.912 104.25C114.395 103.617 115.053 103.083 115.887 102.65C116.72 102.217 117.662 102 118.712 102C119.912 102 121.003 102.3 121.987 102.9C122.987 103.483 123.77 104.308 124.337 105.375C124.903 106.442 125.187 107.667 125.187 109.05C125.187 110.433 124.903 111.675 124.337 112.775C123.77 113.858 122.987 114.708 121.987 115.325C121.003 115.925 119.912 116.225 118.712 116.225C117.662 116.225 116.728 116.017 115.912 115.6C115.095 115.167 114.428 114.633 113.912 114V122.55H111.062V102.225H113.912V104.25ZM122.287 109.05C122.287 108.1 122.087 107.283 121.687 106.6C121.303 105.9 120.787 105.375 120.137 105.025C119.503 104.658 118.82 104.475 118.087 104.475C117.37 104.475 116.687 104.658 116.037 105.025C115.403 105.392 114.887 105.925 114.487 106.625C114.103 107.325 113.912 108.15 113.912 109.1C113.912 110.05 114.103 110.883 114.487 111.6C114.887 112.3 115.403 112.833 116.037 113.2C116.687 113.567 117.37 113.75 118.087 113.75C118.82 113.75 119.503 113.567 120.137 113.2C120.787 112.817 121.303 112.267 121.687 111.55C122.087 110.833 122.287 110 122.287 109.05ZM130.855 104.225C131.272 103.525 131.822 102.983 132.505 102.6C133.205 102.2 134.03 102 134.98 102V104.95H134.255C133.138 104.95 132.288 105.233 131.705 105.8C131.138 106.367 130.855 107.35 130.855 108.75V116H128.005V102.225H130.855V104.225ZM143.575 116.225C142.275 116.225 141.1 115.933 140.05 115.35C139 114.75 138.175 113.917 137.575 112.85C136.975 111.767 136.675 110.517 136.675 109.1C136.675 107.7 136.983 106.458 137.6 105.375C138.216 104.292 139.058 103.458 140.125 102.875C141.191 102.292 142.383 102 143.7 102C145.016 102 146.208 102.292 147.275 102.875C148.341 103.458 149.183 104.292 149.8 105.375C150.416 106.458 150.725 107.7 150.725 109.1C150.725 110.5 150.408 111.742 149.775 112.825C149.141 113.908 148.275 114.75 147.175 115.35C146.091 115.933 144.891 116.225 143.575 116.225ZM143.575 113.75C144.308 113.75 144.991 113.575 145.625 113.225C146.275 112.875 146.8 112.35 147.2 111.65C147.6 110.95 147.8 110.1 147.8 109.1C147.8 108.1 147.608 107.258 147.225 106.575C146.841 105.875 146.333 105.35 145.7 105C145.066 104.65 144.383 104.475 143.65 104.475C142.916 104.475 142.233 104.65 141.6 105C140.983 105.35 140.491 105.875 140.125 106.575C139.758 107.258 139.575 108.1 139.575 109.1C139.575 110.583 139.95 111.733 140.7 112.55C141.466 113.35 142.425 113.75 143.575 113.75ZM152.592 109.1C152.592 107.683 152.875 106.442 153.442 105.375C154.025 104.292 154.825 103.458 155.842 102.875C156.859 102.292 158.025 102 159.342 102C161.009 102 162.384 102.4 163.467 103.2C164.567 103.983 165.309 105.108 165.692 106.575H162.617C162.367 105.892 161.967 105.358 161.417 104.975C160.867 104.592 160.175 104.4 159.342 104.4C158.175 104.4 157.242 104.817 156.542 105.65C155.859 106.467 155.517 107.617 155.517 109.1C155.517 110.583 155.859 111.742 156.542 112.575C157.242 113.408 158.175 113.825 159.342 113.825C160.992 113.825 162.084 113.1 162.617 111.65H165.692C165.292 113.05 164.542 114.167 163.442 115C162.342 115.817 160.975 116.225 159.342 116.225C158.025 116.225 156.859 115.933 155.842 115.35C154.825 114.75 154.025 113.917 153.442 112.85C152.875 111.767 152.592 110.517 152.592 109.1ZM181.157 108.775C181.157 109.292 181.124 109.758 181.057 110.175H170.532C170.616 111.275 171.024 112.158 171.757 112.825C172.491 113.492 173.391 113.825 174.457 113.825C175.991 113.825 177.074 113.183 177.707 111.9H180.782C180.366 113.167 179.607 114.208 178.507 115.025C177.424 115.825 176.074 116.225 174.457 116.225C173.141 116.225 171.957 115.933 170.907 115.35C169.874 114.75 169.057 113.917 168.457 112.85C167.874 111.767 167.582 110.517 167.582 109.1C167.582 107.683 167.866 106.442 168.432 105.375C169.016 104.292 169.824 103.458 170.857 102.875C171.907 102.292 173.107 102 174.457 102C175.757 102 176.916 102.283 177.932 102.85C178.949 103.417 179.741 104.217 180.307 105.25C180.874 106.267 181.157 107.442 181.157 108.775ZM178.182 107.875C178.166 106.825 177.791 105.983 177.057 105.35C176.324 104.717 175.416 104.4 174.332 104.4C173.349 104.4 172.507 104.717 171.807 105.35C171.107 105.967 170.691 106.808 170.557 107.875H178.182ZM183.012 109.05C183.012 107.667 183.295 106.442 183.862 105.375C184.445 104.308 185.229 103.483 186.212 102.9C187.212 102.3 188.32 102 189.537 102C190.437 102 191.32 102.2 192.187 102.6C193.07 102.983 193.77 103.5 194.287 104.15V97.5H197.162V116H194.287V113.925C193.82 114.592 193.17 115.142 192.337 115.575C191.52 116.008 190.579 116.225 189.512 116.225C188.312 116.225 187.212 115.925 186.212 115.325C185.229 114.708 184.445 113.858 183.862 112.775C183.295 111.675 183.012 110.433 183.012 109.05ZM194.287 109.1C194.287 108.15 194.087 107.325 193.687 106.625C193.304 105.925 192.795 105.392 192.162 105.025C191.529 104.658 190.845 104.475 190.112 104.475C189.379 104.475 188.695 104.658 188.062 105.025C187.429 105.375 186.912 105.9 186.512 106.6C186.129 107.283 185.937 108.1 185.937 109.05C185.937 110 186.129 110.833 186.512 111.55C186.912 112.267 187.429 112.817 188.062 113.2C188.712 113.567 189.395 113.75 190.112 113.75C190.845 113.75 191.529 113.567 192.162 113.2C192.795 112.833 193.304 112.3 193.687 111.6C194.087 110.883 194.287 110.05 194.287 109.1ZM213.38 102.225V116H210.53V114.375C210.08 114.942 209.489 115.392 208.755 115.725C208.039 116.042 207.272 116.2 206.455 116.2C205.372 116.2 204.397 115.975 203.53 115.525C202.68 115.075 202.005 114.408 201.505 113.525C201.022 112.642 200.78 111.575 200.78 110.325V102.225H203.605V109.9C203.605 111.133 203.914 112.083 204.53 112.75C205.147 113.4 205.989 113.725 207.055 113.725C208.122 113.725 208.964 113.4 209.58 112.75C210.214 112.083 210.53 111.133 210.53 109.9V102.225H213.38ZM219.991 104.225C220.407 103.525 220.957 102.983 221.641 102.6C222.341 102.2 223.166 102 224.116 102V104.95H223.391C222.274 104.95 221.424 105.233 220.841 105.8C220.274 106.367 219.991 107.35 219.991 108.75V116H217.141V102.225H219.991V104.225ZM239.36 108.775C239.36 109.292 239.327 109.758 239.26 110.175H228.735C228.819 111.275 229.227 112.158 229.96 112.825C230.694 113.492 231.594 113.825 232.66 113.825C234.194 113.825 235.277 113.183 235.91 111.9H238.985C238.569 113.167 237.81 114.208 236.71 115.025C235.627 115.825 234.277 116.225 232.66 116.225C231.344 116.225 230.16 115.933 229.11 115.35C228.077 114.75 227.26 113.917 226.66 112.85C226.077 111.767 225.785 110.517 225.785 109.1C225.785 107.683 226.069 106.442 226.635 105.375C227.219 104.292 228.027 103.458 229.06 102.875C230.11 102.292 231.31 102 232.66 102C233.96 102 235.119 102.283 236.135 102.85C237.152 103.417 237.944 104.217 238.51 105.25C239.077 106.267 239.36 107.442 239.36 108.775ZM236.385 107.875C236.369 106.825 235.994 105.983 235.26 105.35C234.527 104.717 233.619 104.4 232.535 104.4C231.552 104.4 230.71 104.717 230.01 105.35C229.31 105.967 228.894 106.808 228.76 107.875H236.385ZM253.659 116.225C252.576 116.225 251.601 116.033 250.734 115.65C249.884 115.25 249.209 114.717 248.709 114.05C248.209 113.367 247.943 112.608 247.909 111.775H250.859C250.909 112.358 251.184 112.85 251.684 113.25C252.201 113.633 252.843 113.825 253.609 113.825C254.409 113.825 255.026 113.675 255.459 113.375C255.909 113.058 256.134 112.658 256.134 112.175C256.134 111.658 255.884 111.275 255.384 111.025C254.901 110.775 254.126 110.5 253.059 110.2C252.026 109.917 251.184 109.642 250.534 109.375C249.884 109.108 249.318 108.7 248.834 108.15C248.368 107.6 248.134 106.875 248.134 105.975C248.134 105.242 248.351 104.575 248.784 103.975C249.218 103.358 249.834 102.875 250.634 102.525C251.451 102.175 252.384 102 253.434 102C255.001 102 256.259 102.4 257.209 103.2C258.176 103.983 258.693 105.058 258.759 106.425H255.909C255.859 105.808 255.609 105.317 255.159 104.95C254.709 104.583 254.101 104.4 253.334 104.4C252.584 104.4 252.009 104.542 251.609 104.825C251.209 105.108 251.009 105.483 251.009 105.95C251.009 106.317 251.143 106.625 251.409 106.875C251.676 107.125 252.001 107.325 252.384 107.475C252.768 107.608 253.334 107.783 254.084 108C255.084 108.267 255.901 108.542 256.534 108.825C257.184 109.092 257.743 109.492 258.209 110.025C258.676 110.558 258.918 111.267 258.934 112.15C258.934 112.933 258.718 113.633 258.284 114.25C257.851 114.867 257.234 115.35 256.434 115.7C255.651 116.05 254.726 116.225 253.659 116.225ZM274.489 102.225V116H271.639V114.375C271.189 114.942 270.597 115.392 269.864 115.725C269.147 116.042 268.38 116.2 267.564 116.2C266.48 116.2 265.505 115.975 264.639 115.525C263.789 115.075 263.114 114.408 262.614 113.525C262.13 112.642 261.889 111.575 261.889 110.325V102.225H264.714V109.9C264.714 111.133 265.022 112.083 265.639 112.75C266.255 113.4 267.097 113.725 268.164 113.725C269.23 113.725 270.072 113.4 270.689 112.75C271.322 112.083 271.639 111.133 271.639 109.9V102.225H274.489ZM277.299 109.1C277.299 107.683 277.582 106.442 278.149 105.375C278.732 104.292 279.532 103.458 280.549 102.875C281.566 102.292 282.732 102 284.049 102C285.716 102 287.091 102.4 288.174 103.2C289.274 103.983 290.016 105.108 290.399 106.575H287.324C287.074 105.892 286.674 105.358 286.124 104.975C285.574 104.592 284.882 104.4 284.049 104.4C282.882 104.4 281.949 104.817 281.249 105.65C280.566 106.467 280.224 107.617 280.224 109.1C280.224 110.583 280.566 111.742 281.249 112.575C281.949 113.408 282.882 113.825 284.049 113.825C285.699 113.825 286.791 113.1 287.324 111.65H290.399C289.999 113.05 289.249 114.167 288.149 115C287.049 115.817 285.682 116.225 284.049 116.225C282.732 116.225 281.566 115.933 280.549 115.35C279.532 114.75 278.732 113.917 278.149 112.85C277.582 111.767 277.299 110.517 277.299 109.1ZM292.289 109.1C292.289 107.683 292.573 106.442 293.139 105.375C293.723 104.292 294.523 103.458 295.539 102.875C296.556 102.292 297.723 102 299.039 102C300.706 102 302.081 102.4 303.164 103.2C304.264 103.983 305.006 105.108 305.389 106.575H302.314C302.064 105.892 301.664 105.358 301.114 104.975C300.564 104.592 299.873 104.4 299.039 104.4C297.873 104.4 296.939 104.817 296.239 105.65C295.556 106.467 295.214 107.617 295.214 109.1C295.214 110.583 295.556 111.742 296.239 112.575C296.939 113.408 297.873 113.825 299.039 113.825C300.689 113.825 301.781 113.1 302.314 111.65H305.389C304.989 113.05 304.239 114.167 303.139 115C302.039 115.817 300.673 116.225 299.039 116.225C297.723 116.225 296.556 115.933 295.539 115.35C294.523 114.75 293.723 113.917 293.139 112.85C292.573 111.767 292.289 110.517 292.289 109.1ZM320.854 108.775C320.854 109.292 320.821 109.758 320.754 110.175H310.229C310.313 111.275 310.721 112.158 311.454 112.825C312.188 113.492 313.088 113.825 314.154 113.825C315.688 113.825 316.771 113.183 317.404 111.9H320.479C320.063 113.167 319.304 114.208 318.204 115.025C317.121 115.825 315.771 116.225 314.154 116.225C312.838 116.225 311.654 115.933 310.604 115.35C309.571 114.75 308.754 113.917 308.154 112.85C307.571 111.767 307.279 110.517 307.279 109.1C307.279 107.683 307.563 106.442 308.129 105.375C308.713 104.292 309.521 103.458 310.554 102.875C311.604 102.292 312.804 102 314.154 102C315.454 102 316.613 102.283 317.629 102.85C318.646 103.417 319.438 104.217 320.004 105.25C320.571 106.267 320.854 107.442 320.854 108.775ZM317.879 107.875C317.863 106.825 317.488 105.983 316.754 105.35C316.021 104.717 315.113 104.4 314.029 104.4C313.046 104.4 312.204 104.717 311.504 105.35C310.804 105.967 310.388 106.808 310.254 107.875H317.879ZM328.659 116.225C327.576 116.225 326.601 116.033 325.734 115.65C324.884 115.25 324.209 114.717 323.709 114.05C323.209 113.367 322.943 112.608 322.909 111.775H325.859C325.909 112.358 326.184 112.85 326.684 113.25C327.201 113.633 327.843 113.825 328.609 113.825C329.409 113.825 330.026 113.675 330.459 113.375C330.909 113.058 331.134 112.658 331.134 112.175C331.134 111.658 330.884 111.275 330.384 111.025C329.901 110.775 329.126 110.5 328.059 110.2C327.026 109.917 326.184 109.642 325.534 109.375C324.884 109.108 324.318 108.7 323.834 108.15C323.368 107.6 323.134 106.875 323.134 105.975C323.134 105.242 323.351 104.575 323.784 103.975C324.218 103.358 324.834 102.875 325.634 102.525C326.451 102.175 327.384 102 328.434 102C330.001 102 331.259 102.4 332.209 103.2C333.176 103.983 333.693 105.058 333.759 106.425H330.909C330.859 105.808 330.609 105.317 330.159 104.95C329.709 104.583 329.101 104.4 328.334 104.4C327.584 104.4 327.009 104.542 326.609 104.825C326.209 105.108 326.009 105.483 326.009 105.95C326.009 106.317 326.143 106.625 326.409 106.875C326.676 107.125 327.001 107.325 327.384 107.475C327.768 107.608 328.334 107.783 329.084 108C330.084 108.267 330.901 108.542 331.534 108.825C332.184 109.092 332.743 109.492 333.209 110.025C333.676 110.558 333.918 111.267 333.934 112.15C333.934 112.933 333.718 113.633 333.284 114.25C332.851 114.867 332.234 115.35 331.434 115.7C330.651 116.05 329.726 116.225 328.659 116.225ZM342.014 116.225C340.93 116.225 339.955 116.033 339.089 115.65C338.239 115.25 337.564 114.717 337.064 114.05C336.564 113.367 336.297 112.608 336.264 111.775H339.214C339.264 112.358 339.539 112.85 340.039 113.25C340.555 113.633 341.197 113.825 341.964 113.825C342.764 113.825 343.38 113.675 343.814 113.375C344.264 113.058 344.489 112.658 344.489 112.175C344.489 111.658 344.239 111.275 343.739 111.025C343.255 110.775 342.48 110.5 341.414 110.2C340.38 109.917 339.539 109.642 338.889 109.375C338.239 109.108 337.672 108.7 337.189 108.15C336.722 107.6 336.489 106.875 336.489 105.975C336.489 105.242 336.705 104.575 337.139 103.975C337.572 103.358 338.189 102.875 338.989 102.525C339.805 102.175 340.739 102 341.789 102C343.355 102 344.614 102.4 345.564 103.2C346.53 103.983 347.047 105.058 347.114 106.425H344.264C344.214 105.808 343.964 105.317 343.514 104.95C343.064 104.583 342.455 104.4 341.689 104.4C340.939 104.4 340.364 104.542 339.964 104.825C339.564 105.108 339.364 105.483 339.364 105.95C339.364 106.317 339.497 106.625 339.764 106.875C340.03 107.125 340.355 107.325 340.739 107.475C341.122 107.608 341.689 107.783 342.439 108C343.439 108.267 344.255 108.542 344.889 108.825C345.539 109.092 346.097 109.492 346.564 110.025C347.03 110.558 347.272 111.267 347.289 112.15C347.289 112.933 347.072 113.633 346.639 114.25C346.205 114.867 345.589 115.35 344.789 115.7C344.005 116.05 343.08 116.225 342.014 116.225ZM356.143 104.55H353.593V116H350.718V104.55H349.093V102.225H350.718V101.25C350.718 99.6667 351.135 98.5167 351.968 97.8C352.818 97.0667 354.143 96.7 355.943 96.7V99.075C355.076 99.075 354.468 99.2417 354.118 99.575C353.768 99.8917 353.593 100.45 353.593 101.25V102.225H356.143V104.55ZM371.144 102.225V116H368.294V114.375C367.844 114.942 367.252 115.392 366.519 115.725C365.802 116.042 365.036 116.2 364.219 116.2C363.136 116.2 362.161 115.975 361.294 115.525C360.444 115.075 359.769 114.408 359.269 113.525C358.786 112.642 358.544 111.575 358.544 110.325V102.225H361.369V109.9C361.369 111.133 361.677 112.083 362.294 112.75C362.911 113.4 363.752 113.725 364.819 113.725C365.886 113.725 366.727 113.4 367.344 112.75C367.977 112.083 368.294 111.133 368.294 109.9V102.225H371.144ZM377.754 97.5V116H374.904V97.5H377.754ZM384.346 97.5V116H381.496V97.5H384.346ZM400.488 102.225L392.038 122.475H389.088L391.888 115.775L386.463 102.225H389.638L393.513 112.725L397.538 102.225H400.488ZM408.183 109.1C408.183 107.683 408.466 106.442 409.033 105.375C409.616 104.292 410.416 103.458 411.433 102.875C412.449 102.292 413.616 102 414.933 102C416.599 102 417.974 102.4 419.058 103.2C420.158 103.983 420.899 105.108 421.283 106.575H418.208C417.958 105.892 417.558 105.358 417.008 104.975C416.458 104.592 415.766 104.4 414.933 104.4C413.766 104.4 412.833 104.817 412.133 105.65C411.449 106.467 411.108 107.617 411.108 109.1C411.108 110.583 411.449 111.742 412.133 112.575C412.833 113.408 413.766 113.825 414.933 113.825C416.583 113.825 417.674 113.1 418.208 111.65H421.283C420.883 113.05 420.133 114.167 419.033 115C417.933 115.817 416.566 116.225 414.933 116.225C413.616 116.225 412.449 115.933 411.433 115.35C410.416 114.75 409.616 113.917 409.033 112.85C408.466 111.767 408.183 110.517 408.183 109.1ZM430.098 116.225C428.798 116.225 427.623 115.933 426.573 115.35C425.523 114.75 424.698 113.917 424.098 112.85C423.498 111.767 423.198 110.517 423.198 109.1C423.198 107.7 423.506 106.458 424.123 105.375C424.74 104.292 425.581 103.458 426.648 102.875C427.715 102.292 428.906 102 430.223 102C431.54 102 432.731 102.292 433.798 102.875C434.865 103.458 435.706 104.292 436.323 105.375C436.94 106.458 437.248 107.7 437.248 109.1C437.248 110.5 436.931 111.742 436.298 112.825C435.665 113.908 434.798 114.75 433.698 115.35C432.615 115.933 431.415 116.225 430.098 116.225ZM430.098 113.75C430.831 113.75 431.515 113.575 432.148 113.225C432.798 112.875 433.323 112.35 433.723 111.65C434.123 110.95 434.323 110.1 434.323 109.1C434.323 108.1 434.131 107.258 433.748 106.575C433.365 105.875 432.856 105.35 432.223 105C431.59 104.65 430.906 104.475 430.173 104.475C429.44 104.475 428.756 104.65 428.123 105C427.506 105.35 427.015 105.875 426.648 106.575C426.281 107.258 426.098 108.1 426.098 109.1C426.098 110.583 426.473 111.733 427.223 112.55C427.99 113.35 428.948 113.75 430.098 113.75ZM456.74 102C457.824 102 458.79 102.225 459.64 102.675C460.507 103.125 461.182 103.792 461.665 104.675C462.165 105.558 462.415 106.625 462.415 107.875V116H459.59V108.3C459.59 107.067 459.282 106.125 458.665 105.475C458.049 104.808 457.207 104.475 456.14 104.475C455.074 104.475 454.224 104.808 453.59 105.475C452.974 106.125 452.665 107.067 452.665 108.3V116H449.84V108.3C449.84 107.067 449.532 106.125 448.915 105.475C448.299 104.808 447.457 104.475 446.39 104.475C445.324 104.475 444.474 104.808 443.84 105.475C443.224 106.125 442.915 107.067 442.915 108.3V116H440.065V102.225H442.915V103.8C443.382 103.233 443.974 102.792 444.69 102.475C445.407 102.158 446.174 102 446.99 102C448.09 102 449.074 102.233 449.94 102.7C450.807 103.167 451.474 103.842 451.94 104.725C452.357 103.892 453.007 103.233 453.89 102.75C454.774 102.25 455.724 102 456.74 102ZM468.892 104.25C469.375 103.617 470.034 103.083 470.867 102.65C471.7 102.217 472.642 102 473.692 102C474.892 102 475.984 102.3 476.967 102.9C477.967 103.483 478.75 104.308 479.317 105.375C479.884 106.442 480.167 107.667 480.167 109.05C480.167 110.433 479.884 111.675 479.317 112.775C478.75 113.858 477.967 114.708 476.967 115.325C475.984 115.925 474.892 116.225 473.692 116.225C472.642 116.225 471.709 116.017 470.892 115.6C470.075 115.167 469.409 114.633 468.892 114V122.55H466.042V102.225H468.892V104.25ZM477.267 109.05C477.267 108.1 477.067 107.283 476.667 106.6C476.284 105.9 475.767 105.375 475.117 105.025C474.484 104.658 473.8 104.475 473.067 104.475C472.35 104.475 471.667 104.658 471.017 105.025C470.384 105.392 469.867 105.925 469.467 106.625C469.084 107.325 468.892 108.15 468.892 109.1C468.892 110.05 469.084 110.883 469.467 111.6C469.867 112.3 470.384 112.833 471.017 113.2C471.667 113.567 472.35 113.75 473.067 113.75C473.8 113.75 474.484 113.567 475.117 113.2C475.767 112.817 476.284 112.267 476.667 111.55C477.067 110.833 477.267 110 477.267 109.05ZM485.835 97.5V116H482.985V97.5H485.835ZM502.202 108.775C502.202 109.292 502.169 109.758 502.102 110.175H491.577C491.66 111.275 492.069 112.158 492.802 112.825C493.535 113.492 494.435 113.825 495.502 113.825C497.035 113.825 498.119 113.183 498.752 111.9H501.827C501.41 113.167 500.652 114.208 499.552 115.025C498.469 115.825 497.119 116.225 495.502 116.225C494.185 116.225 493.002 115.933 491.952 115.35C490.919 114.75 490.102 113.917 489.502 112.85C488.919 111.767 488.627 110.517 488.627 109.1C488.627 107.683 488.91 106.442 489.477 105.375C490.06 104.292 490.869 103.458 491.902 102.875C492.952 102.292 494.152 102 495.502 102C496.802 102 497.96 102.283 498.977 102.85C499.994 103.417 500.785 104.217 501.352 105.25C501.919 106.267 502.202 107.442 502.202 108.775ZM499.227 107.875C499.21 106.825 498.835 105.983 498.102 105.35C497.369 104.717 496.46 104.4 495.377 104.4C494.394 104.4 493.552 104.717 492.852 105.35C492.152 105.967 491.735 106.808 491.602 107.875H499.227ZM508.332 104.55V112.175C508.332 112.692 508.449 113.067 508.682 113.3C508.932 113.517 509.349 113.625 509.932 113.625H511.682V116H509.432C508.149 116 507.165 115.7 506.482 115.1C505.799 114.5 505.457 113.525 505.457 112.175V104.55H503.832V102.225H505.457V98.8H508.332V102.225H511.682V104.55H508.332ZM526.934 108.775C526.934 109.292 526.9 109.758 526.834 110.175H516.309C516.392 111.275 516.8 112.158 517.534 112.825C518.267 113.492 519.167 113.825 520.234 113.825C521.767 113.825 522.85 113.183 523.484 111.9H526.559C526.142 113.167 525.384 114.208 524.284 115.025C523.2 115.825 521.85 116.225 520.234 116.225C518.917 116.225 517.734 115.933 516.684 115.35C515.65 114.75 514.834 113.917 514.234 112.85C513.65 111.767 513.359 110.517 513.359 109.1C513.359 107.683 513.642 106.442 514.209 105.375C514.792 104.292 515.6 103.458 516.634 102.875C517.684 102.292 518.884 102 520.234 102C521.534 102 522.692 102.283 523.709 102.85C524.725 103.417 525.517 104.217 526.084 105.25C526.65 106.267 526.934 107.442 526.934 108.775ZM523.959 107.875C523.942 106.825 523.567 105.983 522.834 105.35C522.1 104.717 521.192 104.4 520.109 104.4C519.125 104.4 518.284 104.717 517.584 105.35C516.884 105.967 516.467 106.808 516.334 107.875H523.959ZM528.788 109.05C528.788 107.667 529.072 106.442 529.638 105.375C530.222 104.308 531.005 103.483 531.988 102.9C532.988 102.3 534.097 102 535.313 102C536.213 102 537.097 102.2 537.963 102.6C538.847 102.983 539.547 103.5 540.063 104.15V97.5H542.938V116H540.063V113.925C539.597 114.592 538.947 115.142 538.113 115.575C537.297 116.008 536.355 116.225 535.288 116.225C534.088 116.225 532.988 115.925 531.988 115.325C531.005 114.708 530.222 113.858 529.638 112.775C529.072 111.675 528.788 110.433 528.788 109.05ZM540.063 109.1C540.063 108.15 539.863 107.325 539.463 106.625C539.08 105.925 538.572 105.392 537.938 105.025C537.305 104.658 536.622 104.475 535.888 104.475C535.155 104.475 534.472 104.658 533.838 105.025C533.205 105.375 532.688 105.9 532.288 106.6C531.905 107.283 531.713 108.1 531.713 109.05C531.713 110 531.905 110.833 532.288 111.55C532.688 112.267 533.205 112.817 533.838 113.2C534.488 113.567 535.172 113.75 535.888 113.75C536.622 113.75 537.305 113.567 537.938 113.2C538.572 112.833 539.08 112.3 539.463 111.6C539.863 110.883 540.063 110.05 540.063 109.1ZM547.832 116.175C547.315 116.175 546.882 116 546.532 115.65C546.182 115.3 546.007 114.867 546.007 114.35C546.007 113.833 546.182 113.4 546.532 113.05C546.882 112.7 547.315 112.525 547.832 112.525C548.332 112.525 548.757 112.7 549.107 113.05C549.457 113.4 549.632 113.833 549.632 114.35C549.632 114.867 549.457 115.3 549.107 115.65C548.757 116 548.332 116.175 547.832 116.175Z" fill="white"/>
</g>
<defs>
<filter id="filter0_d_723_178" x="0" y="0" width="641" height="156" filterUnits="userSpaceOnUse" color-interpolation-filters="sRGB">
<feFlood flood-opacity="0" result="BackgroundImageFix"/>
<feColorMatrix in="SourceAlpha" type="matrix" values="0 0 0 0 0 0 0 0 0 0 0 0 0 0 0 0 0 0 127 0" result="hardAlpha"/>
<feOffset dy="4"/>
<feGaussianBlur stdDeviation="2"/>
<feComposite in2="hardAlpha" operator="out"/>
<feColorMatrix type="matrix" values="0 0 0 0 0 0 0 0 0 0 0 0 0 0 0 0 0 0 0.25 0"/>
<feBlend mode="normal" in2="BackgroundImageFix" result="effect1_dropShadow_723_178"/>
<feBlend mode="normal" in="SourceGraphic" in2="effect1_dropShadow_723_178" result="shape"/>
</filter>
</defs>
</svg>
