<svg width="878" height="149" viewBox="0 0 878 149" fill="none" xmlns="http://www.w3.org/2000/svg">
<rect width="878" height="149" fill="black"/>
<path d="M34.325 26.575L27.75 44H25.125L18.55 26.575H20.975L26.45 41.6L31.925 26.575H34.325ZM35.9695 37.1C35.9695 35.7 36.2529 34.475 36.8195 33.425C37.3862 32.3583 38.1612 31.5333 39.1445 30.95C40.1445 30.3667 41.2529 30.075 42.4695 30.075C43.6695 30.075 44.7112 30.3333 45.5945 30.85C46.4779 31.3667 47.1362 32.0167 47.5695 32.8V30.3H49.8695V44H47.5695V41.45C47.1195 42.25 46.4445 42.9167 45.5445 43.45C44.6612 43.9667 43.6279 44.225 42.4445 44.225C41.2279 44.225 40.1279 43.925 39.1445 43.325C38.1612 42.725 37.3862 41.8833 36.8195 40.8C36.2529 39.7167 35.9695 38.4833 35.9695 37.1ZM47.5695 37.125C47.5695 36.0917 47.3612 35.1917 46.9445 34.425C46.5279 33.6583 45.9612 33.075 45.2445 32.675C44.5445 32.2583 43.7695 32.05 42.9195 32.05C42.0695 32.05 41.2945 32.25 40.5945 32.65C39.8945 33.05 39.3362 33.6333 38.9195 34.4C38.5029 35.1667 38.2945 36.0667 38.2945 37.1C38.2945 38.15 38.5029 39.0667 38.9195 39.85C39.3362 40.6167 39.8945 41.2083 40.5945 41.625C41.2945 42.025 42.0695 42.225 42.9195 42.225C43.7695 42.225 44.5445 42.025 45.2445 41.625C45.9612 41.2083 46.5279 40.6167 46.9445 39.85C47.3612 39.0667 47.5695 38.1583 47.5695 37.125ZM55.9891 25.5V44H53.7141V25.5H55.9891ZM72.0164 30.3V44H69.7414V41.975C69.3081 42.675 68.6997 43.225 67.9164 43.625C67.1497 44.0083 66.2997 44.2 65.3664 44.2C64.2997 44.2 63.3414 43.9833 62.4914 43.55C61.6414 43.1 60.9664 42.4333 60.4664 41.55C59.9831 40.6667 59.7414 39.5917 59.7414 38.325V30.3H61.9914V38.025C61.9914 39.375 62.3331 40.4167 63.0164 41.15C63.6997 41.8667 64.6331 42.225 65.8164 42.225C67.0331 42.225 67.9914 41.85 68.6914 41.1C69.3914 40.35 69.7414 39.2583 69.7414 37.825V30.3H72.0164ZM88.3576 36.625C88.3576 37.0583 88.3326 37.5167 88.2826 38H77.3326C77.416 39.35 77.8743 40.4083 78.7076 41.175C79.5576 41.925 80.5826 42.3 81.7826 42.3C82.766 42.3 83.5826 42.075 84.2326 41.625C84.8993 41.1583 85.366 40.5417 85.6326 39.775H88.0826C87.716 41.0917 86.9826 42.1667 85.8826 43C84.7826 43.8167 83.416 44.225 81.7826 44.225C80.4826 44.225 79.316 43.9333 78.2826 43.35C77.266 42.7667 76.466 41.9417 75.8826 40.875C75.2993 39.7917 75.0076 38.5417 75.0076 37.125C75.0076 35.7083 75.291 34.4667 75.8576 33.4C76.4243 32.3333 77.216 31.5167 78.2326 30.95C79.266 30.3667 80.4493 30.075 81.7826 30.075C83.0826 30.075 84.2326 30.3583 85.2326 30.925C86.2326 31.4917 86.9993 32.275 87.5326 33.275C88.0826 34.2583 88.3576 35.375 88.3576 36.625ZM86.0076 36.15C86.0076 35.2833 85.816 34.5417 85.4326 33.925C85.0493 33.2917 84.5243 32.8167 83.8576 32.5C83.2076 32.1667 82.4826 32 81.6826 32C80.5326 32 79.5493 32.3667 78.7326 33.1C77.9326 33.8333 77.4743 34.85 77.3576 36.15H86.0076ZM104.001 44.225C102.717 44.225 101.551 43.9333 100.501 43.35C99.4673 42.7667 98.6506 41.9417 98.0506 40.875C97.4673 39.7917 97.1756 38.5417 97.1756 37.125C97.1756 35.725 97.4756 34.4917 98.0756 33.425C98.6923 32.3417 99.5256 31.5167 100.576 30.95C101.626 30.3667 102.801 30.075 104.101 30.075C105.401 30.075 106.576 30.3667 107.626 30.95C108.676 31.5167 109.501 32.3333 110.101 33.4C110.717 34.4667 111.026 35.7083 111.026 37.125C111.026 38.5417 110.709 39.7917 110.076 40.875C109.459 41.9417 108.617 42.7667 107.551 43.35C106.484 43.9333 105.301 44.225 104.001 44.225ZM104.001 42.225C104.817 42.225 105.584 42.0333 106.301 41.65C107.017 41.2667 107.592 40.6917 108.026 39.925C108.476 39.1583 108.701 38.225 108.701 37.125C108.701 36.025 108.484 35.0917 108.051 34.325C107.617 33.5583 107.051 32.9917 106.351 32.625C105.651 32.2417 104.892 32.05 104.076 32.05C103.242 32.05 102.476 32.2417 101.776 32.625C101.092 32.9917 100.542 33.5583 100.126 34.325C99.7089 35.0917 99.5006 36.025 99.5006 37.125C99.5006 38.2417 99.7006 39.1833 100.101 39.95C100.517 40.7167 101.067 41.2917 101.751 41.675C102.434 42.0417 103.184 42.225 104.001 42.225ZM119.592 32.175H116.717V44H114.442V32.175H112.667V30.3H114.442V29.325C114.442 27.7917 114.833 26.675 115.617 25.975C116.417 25.2583 117.692 24.9 119.442 24.9V26.8C118.442 26.8 117.733 27 117.317 27.4C116.917 27.7833 116.717 28.425 116.717 29.325V30.3H119.592V32.175ZM128.059 37.125C128.059 35.7083 128.343 34.475 128.909 33.425C129.476 32.3583 130.259 31.5333 131.259 30.95C132.276 30.3667 133.434 30.075 134.734 30.075C136.418 30.075 137.801 30.4833 138.884 31.3C139.984 32.1167 140.709 33.25 141.059 34.7H138.609C138.376 33.8667 137.918 33.2083 137.234 32.725C136.568 32.2417 135.734 32 134.734 32C133.434 32 132.384 32.45 131.584 33.35C130.784 34.2333 130.384 35.4917 130.384 37.125C130.384 38.775 130.784 40.05 131.584 40.95C132.384 41.85 133.434 42.3 134.734 42.3C135.734 42.3 136.568 42.0667 137.234 41.6C137.901 41.1333 138.359 40.4667 138.609 39.6H141.059C140.693 41 139.959 42.125 138.859 42.975C137.759 43.8083 136.384 44.225 134.734 44.225C133.434 44.225 132.276 43.9333 131.259 43.35C130.259 42.7667 129.476 41.9417 128.909 40.875C128.343 39.8083 128.059 38.5583 128.059 37.125ZM144.82 44.15C144.387 44.15 144.02 44 143.72 43.7C143.42 43.4 143.27 43.0333 143.27 42.6C143.27 42.1667 143.42 41.8 143.72 41.5C144.02 41.2 144.387 41.05 144.82 41.05C145.237 41.05 145.587 41.2 145.87 41.5C146.17 41.8 146.32 42.1667 146.32 42.6C146.32 43.0333 146.17 43.4 145.87 43.7C145.587 44 145.237 44.15 144.82 44.15ZM144.82 33.45C144.387 33.45 144.02 33.3 143.72 33C143.42 32.7 143.27 32.3333 143.27 31.9C143.27 31.4667 143.42 31.1 143.72 30.8C144.02 30.5 144.387 30.35 144.82 30.35C145.237 30.35 145.587 30.5 145.87 30.8C146.17 31.1 146.32 31.4667 146.32 31.9C146.32 32.3333 146.17 32.7 145.87 33C145.587 33.3 145.237 33.45 144.82 33.45ZM158.632 39.15C158.799 40.1 159.182 40.8333 159.782 41.35C160.399 41.8667 161.224 42.125 162.257 42.125C163.641 42.125 164.657 41.5833 165.307 40.5C165.974 39.4167 166.291 37.5917 166.257 35.025C165.907 35.775 165.324 36.3667 164.507 36.8C163.691 37.2167 162.782 37.425 161.782 37.425C160.666 37.425 159.666 37.2 158.782 36.75C157.916 36.2833 157.232 35.6083 156.732 34.725C156.232 33.8417 155.982 32.775 155.982 31.525C155.982 29.7417 156.499 28.3083 157.532 27.225C158.566 26.125 160.032 25.575 161.932 25.575C164.266 25.575 165.899 26.3333 166.832 27.85C167.782 29.3667 168.257 31.625 168.257 34.625C168.257 36.725 168.066 38.4583 167.682 39.825C167.316 41.1917 166.682 42.2333 165.782 42.95C164.899 43.6667 163.682 44.025 162.132 44.025C160.432 44.025 159.107 43.5667 158.157 42.65C157.207 41.7333 156.666 40.5667 156.532 39.15H158.632ZM162.157 35.5C163.274 35.5 164.191 35.1583 164.907 34.475C165.624 33.775 165.982 32.8333 165.982 31.65C165.982 30.4 165.632 29.3917 164.932 28.625C164.232 27.8583 163.249 27.475 161.982 27.475C160.816 27.475 159.882 27.8417 159.182 28.575C158.499 29.3083 158.157 30.275 158.157 31.475C158.157 32.6917 158.499 33.6667 159.182 34.4C159.866 35.1333 160.857 35.5 162.157 35.5ZM171.454 34.775C171.454 31.9083 171.921 29.675 172.854 28.075C173.788 26.4583 175.421 25.65 177.754 25.65C180.071 25.65 181.696 26.4583 182.629 28.075C183.563 29.675 184.029 31.9083 184.029 34.775C184.029 37.6917 183.563 39.9583 182.629 41.575C181.696 43.1917 180.071 44 177.754 44C175.421 44 173.788 43.1917 172.854 41.575C171.921 39.9583 171.454 37.6917 171.454 34.775ZM181.779 34.775C181.779 33.325 181.679 32.1 181.479 31.1C181.296 30.0833 180.904 29.2667 180.304 28.65C179.721 28.0333 178.871 27.725 177.754 27.725C176.621 27.725 175.754 28.0333 175.154 28.65C174.571 29.2667 174.179 30.0833 173.979 31.1C173.796 32.1 173.704 33.325 173.704 34.775C173.704 36.275 173.796 37.5333 173.979 38.55C174.179 39.5667 174.571 40.3833 175.154 41C175.754 41.6167 176.621 41.925 177.754 41.925C178.871 41.925 179.721 41.6167 180.304 41C180.904 40.3833 181.296 39.5667 181.479 38.55C181.679 37.5333 181.779 36.275 181.779 34.775ZM34.325 64.575L27.75 82H25.125L18.55 64.575H20.975L26.45 79.6L31.925 64.575H34.325ZM35.9695 75.1C35.9695 73.7 36.2529 72.475 36.8195 71.425C37.3862 70.3583 38.1612 69.5333 39.1445 68.95C40.1445 68.3667 41.2529 68.075 42.4695 68.075C43.6695 68.075 44.7112 68.3333 45.5945 68.85C46.4779 69.3667 47.1362 70.0167 47.5695 70.8V68.3H49.8695V82H47.5695V79.45C47.1195 80.25 46.4445 80.9167 45.5445 81.45C44.6612 81.9667 43.6279 82.225 42.4445 82.225C41.2279 82.225 40.1279 81.925 39.1445 81.325C38.1612 80.725 37.3862 79.8833 36.8195 78.8C36.2529 77.7167 35.9695 76.4833 35.9695 75.1ZM47.5695 75.125C47.5695 74.0917 47.3612 73.1917 46.9445 72.425C46.5279 71.6583 45.9612 71.075 45.2445 70.675C44.5445 70.2583 43.7695 70.05 42.9195 70.05C42.0695 70.05 41.2945 70.25 40.5945 70.65C39.8945 71.05 39.3362 71.6333 38.9195 72.4C38.5029 73.1667 38.2945 74.0667 38.2945 75.1C38.2945 76.15 38.5029 77.0667 38.9195 77.85C39.3362 78.6167 39.8945 79.2083 40.5945 79.625C41.2945 80.025 42.0695 80.225 42.9195 80.225C43.7695 80.225 44.5445 80.025 45.2445 79.625C45.9612 79.2083 46.5279 78.6167 46.9445 77.85C47.3612 77.0667 47.5695 76.1583 47.5695 75.125ZM55.9891 63.5V82H53.7141V63.5H55.9891ZM72.0164 68.3V82H69.7414V79.975C69.3081 80.675 68.6997 81.225 67.9164 81.625C67.1497 82.0083 66.2997 82.2 65.3664 82.2C64.2997 82.2 63.3414 81.9833 62.4914 81.55C61.6414 81.1 60.9664 80.4333 60.4664 79.55C59.9831 78.6667 59.7414 77.5917 59.7414 76.325V68.3H61.9914V76.025C61.9914 77.375 62.3331 78.4167 63.0164 79.15C63.6997 79.8667 64.6331 80.225 65.8164 80.225C67.0331 80.225 67.9914 79.85 68.6914 79.1C69.3914 78.35 69.7414 77.2583 69.7414 75.825V68.3H72.0164ZM88.3576 74.625C88.3576 75.0583 88.3326 75.5167 88.2826 76H77.3326C77.416 77.35 77.8743 78.4083 78.7076 79.175C79.5576 79.925 80.5826 80.3 81.7826 80.3C82.766 80.3 83.5826 80.075 84.2326 79.625C84.8993 79.1583 85.366 78.5417 85.6326 77.775H88.0826C87.716 79.0917 86.9826 80.1667 85.8826 81C84.7826 81.8167 83.416 82.225 81.7826 82.225C80.4826 82.225 79.316 81.9333 78.2826 81.35C77.266 80.7667 76.466 79.9417 75.8826 78.875C75.2993 77.7917 75.0076 76.5417 75.0076 75.125C75.0076 73.7083 75.291 72.4667 75.8576 71.4C76.4243 70.3333 77.216 69.5167 78.2326 68.95C79.266 68.3667 80.4493 68.075 81.7826 68.075C83.0826 68.075 84.2326 68.3583 85.2326 68.925C86.2326 69.4917 86.9993 70.275 87.5326 71.275C88.0826 72.2583 88.3576 73.375 88.3576 74.625ZM86.0076 74.15C86.0076 73.2833 85.816 72.5417 85.4326 71.925C85.0493 71.2917 84.5243 70.8167 83.8576 70.5C83.2076 70.1667 82.4826 70 81.6826 70C80.5326 70 79.5493 70.3667 78.7326 71.1C77.9326 71.8333 77.4743 72.85 77.3576 74.15H86.0076ZM104.001 82.225C102.717 82.225 101.551 81.9333 100.501 81.35C99.4673 80.7667 98.6506 79.9417 98.0506 78.875C97.4673 77.7917 97.1756 76.5417 97.1756 75.125C97.1756 73.725 97.4756 72.4917 98.0756 71.425C98.6923 70.3417 99.5256 69.5167 100.576 68.95C101.626 68.3667 102.801 68.075 104.101 68.075C105.401 68.075 106.576 68.3667 107.626 68.95C108.676 69.5167 109.501 70.3333 110.101 71.4C110.717 72.4667 111.026 73.7083 111.026 75.125C111.026 76.5417 110.709 77.7917 110.076 78.875C109.459 79.9417 108.617 80.7667 107.551 81.35C106.484 81.9333 105.301 82.225 104.001 82.225ZM104.001 80.225C104.817 80.225 105.584 80.0333 106.301 79.65C107.017 79.2667 107.592 78.6917 108.026 77.925C108.476 77.1583 108.701 76.225 108.701 75.125C108.701 74.025 108.484 73.0917 108.051 72.325C107.617 71.5583 107.051 70.9917 106.351 70.625C105.651 70.2417 104.892 70.05 104.076 70.05C103.242 70.05 102.476 70.2417 101.776 70.625C101.092 70.9917 100.542 71.5583 100.126 72.325C99.7089 73.0917 99.5006 74.025 99.5006 75.125C99.5006 76.2417 99.7006 77.1833 100.101 77.95C100.517 78.7167 101.067 79.2917 101.751 79.675C102.434 80.0417 103.184 80.225 104.001 80.225ZM119.592 70.175H116.717V82H114.442V70.175H112.667V68.3H114.442V67.325C114.442 65.7917 114.833 64.675 115.617 63.975C116.417 63.2583 117.692 62.9 119.442 62.9V64.8C118.442 64.8 117.733 65 117.317 65.4C116.917 65.7833 116.717 66.425 116.717 67.325V68.3H119.592V70.175ZM134.484 70.175H131.609V82H129.334V70.175H127.559V68.3H129.334V67.325C129.334 65.7917 129.726 64.675 130.509 63.975C131.309 63.2583 132.584 62.9 134.334 62.9V64.8C133.334 64.8 132.626 65 132.209 65.4C131.809 65.7833 131.609 66.425 131.609 67.325V68.3H134.484V70.175ZM137.862 82.15C137.429 82.15 137.062 82 136.762 81.7C136.462 81.4 136.312 81.0333 136.312 80.6C136.312 80.1667 136.462 79.8 136.762 79.5C137.062 79.2 137.429 79.05 137.862 79.05C138.279 79.05 138.629 79.2 138.912 79.5C139.212 79.8 139.362 80.1667 139.362 80.6C139.362 81.0333 139.212 81.4 138.912 81.7C138.629 82 138.279 82.15 137.862 82.15ZM137.862 71.45C137.429 71.45 137.062 71.3 136.762 71C136.462 70.7 136.312 70.3333 136.312 69.9C136.312 69.4667 136.462 69.1 136.762 68.8C137.062 68.5 137.429 68.35 137.862 68.35C138.279 68.35 138.629 68.5 138.912 68.8C139.212 69.1 139.362 69.4667 139.362 69.9C139.362 70.3333 139.212 70.7 138.912 71C138.629 71.3 138.279 71.45 137.862 71.45ZM148.699 68.475C148.816 66.9417 149.408 65.7417 150.474 64.875C151.541 64.0083 152.924 63.575 154.624 63.575C155.758 63.575 156.733 63.7833 157.549 64.2C158.383 64.6 159.008 65.15 159.424 65.85C159.858 66.55 160.074 67.3417 160.074 68.225C160.074 69.2583 159.774 70.15 159.174 70.9C158.591 71.65 157.824 72.1333 156.874 72.35V72.475C157.958 72.7417 158.816 73.2667 159.449 74.05C160.083 74.8333 160.399 75.8583 160.399 77.125C160.399 78.075 160.183 78.9333 159.749 79.7C159.316 80.45 158.666 81.0417 157.799 81.475C156.933 81.9083 155.891 82.125 154.674 82.125C152.908 82.125 151.458 81.6667 150.324 80.75C149.191 79.8167 148.558 78.5 148.424 76.8H150.624C150.741 77.8 151.149 78.6167 151.849 79.25C152.549 79.8833 153.483 80.2 154.649 80.2C155.816 80.2 156.699 79.9 157.299 79.3C157.916 78.6833 158.224 77.8917 158.224 76.925C158.224 75.675 157.808 74.775 156.974 74.225C156.141 73.675 154.883 73.4 153.199 73.4H152.624V71.5H153.224C154.758 71.4833 155.916 71.2333 156.699 70.75C157.483 70.25 157.874 69.4833 157.874 68.45C157.874 67.5667 157.583 66.8583 156.999 66.325C156.433 65.7917 155.616 65.525 154.549 65.525C153.516 65.525 152.683 65.7917 152.049 66.325C151.416 66.8583 151.041 67.575 150.924 68.475H148.699ZM163.421 68.475C163.538 66.9417 164.129 65.7417 165.196 64.875C166.263 64.0083 167.646 63.575 169.346 63.575C170.479 63.575 171.454 63.7833 172.271 64.2C173.104 64.6 173.729 65.15 174.146 65.85C174.579 66.55 174.796 67.3417 174.796 68.225C174.796 69.2583 174.496 70.15 173.896 70.9C173.313 71.65 172.546 72.1333 171.596 72.35V72.475C172.679 72.7417 173.538 73.2667 174.171 74.05C174.804 74.8333 175.121 75.8583 175.121 77.125C175.121 78.075 174.904 78.9333 174.471 79.7C174.038 80.45 173.388 81.0417 172.521 81.475C171.654 81.9083 170.613 82.125 169.396 82.125C167.629 82.125 166.179 81.6667 165.046 80.75C163.913 79.8167 163.279 78.5 163.146 76.8H165.346C165.463 77.8 165.871 78.6167 166.571 79.25C167.271 79.8833 168.204 80.2 169.371 80.2C170.538 80.2 171.421 79.9 172.021 79.3C172.638 78.6833 172.946 77.8917 172.946 76.925C172.946 75.675 172.529 74.775 171.696 74.225C170.863 73.675 169.604 73.4 167.921 73.4H167.346V71.5H167.946C169.479 71.4833 170.638 71.2333 171.421 70.75C172.204 70.25 172.596 69.4833 172.596 68.45C172.596 67.5667 172.304 66.8583 171.721 66.325C171.154 65.7917 170.338 65.525 169.271 65.525C168.238 65.525 167.404 65.7917 166.771 66.325C166.138 66.8583 165.763 67.575 165.646 68.475H163.421ZM179.293 82.15C178.859 82.15 178.493 82 178.193 81.7C177.893 81.4 177.743 81.0333 177.743 80.6C177.743 80.1667 177.893 79.8 178.193 79.5C178.493 79.2 178.859 79.05 179.293 79.05C179.709 79.05 180.059 79.2 180.343 79.5C180.643 79.8 180.793 80.1667 180.793 80.6C180.793 81.0333 180.643 81.4 180.343 81.7C180.059 82 179.709 82.15 179.293 82.15ZM183.392 68.475C183.508 66.9417 184.1 65.7417 185.167 64.875C186.233 64.0083 187.617 63.575 189.317 63.575C190.45 63.575 191.425 63.7833 192.242 64.2C193.075 64.6 193.7 65.15 194.117 65.85C194.55 66.55 194.767 67.3417 194.767 68.225C194.767 69.2583 194.467 70.15 193.867 70.9C193.283 71.65 192.517 72.1333 191.567 72.35V72.475C192.65 72.7417 193.508 73.2667 194.142 74.05C194.775 74.8333 195.092 75.8583 195.092 77.125C195.092 78.075 194.875 78.9333 194.442 79.7C194.008 80.45 193.358 81.0417 192.492 81.475C191.625 81.9083 190.583 82.125 189.367 82.125C187.6 82.125 186.15 81.6667 185.017 80.75C183.883 79.8167 183.25 78.5 183.117 76.8H185.317C185.433 77.8 185.842 78.6167 186.542 79.25C187.242 79.8833 188.175 80.2 189.342 80.2C190.508 80.2 191.392 79.9 191.992 79.3C192.608 78.6833 192.917 77.8917 192.917 76.925C192.917 75.675 192.5 74.775 191.667 74.225C190.833 73.675 189.575 73.4 187.892 73.4H187.317V71.5H187.917C189.45 71.4833 190.608 71.2333 191.392 70.75C192.175 70.25 192.567 69.4833 192.567 68.45C192.567 67.5667 192.275 66.8583 191.692 66.325C191.125 65.7917 190.308 65.525 189.242 65.525C188.208 65.525 187.375 65.7917 186.742 66.325C186.108 66.8583 185.733 67.575 185.617 68.475H183.392ZM198.113 68.475C198.23 66.9417 198.822 65.7417 199.888 64.875C200.955 64.0083 202.338 63.575 204.038 63.575C205.172 63.575 206.147 63.7833 206.963 64.2C207.797 64.6 208.422 65.15 208.838 65.85C209.272 66.55 209.488 67.3417 209.488 68.225C209.488 69.2583 209.188 70.15 208.588 70.9C208.005 71.65 207.238 72.1333 206.288 72.35V72.475C207.372 72.7417 208.23 73.2667 208.863 74.05C209.497 74.8333 209.813 75.8583 209.813 77.125C209.813 78.075 209.597 78.9333 209.163 79.7C208.73 80.45 208.08 81.0417 207.213 81.475C206.347 81.9083 205.305 82.125 204.088 82.125C202.322 82.125 200.872 81.6667 199.738 80.75C198.605 79.8167 197.972 78.5 197.838 76.8H200.038C200.155 77.8 200.563 78.6167 201.263 79.25C201.963 79.8833 202.897 80.2 204.063 80.2C205.23 80.2 206.113 79.9 206.713 79.3C207.33 78.6833 207.638 77.8917 207.638 76.925C207.638 75.675 207.222 74.775 206.388 74.225C205.555 73.675 204.297 73.4 202.613 73.4H202.038V71.5H202.638C204.172 71.4833 205.33 71.2333 206.113 70.75C206.897 70.25 207.288 69.4833 207.288 68.45C207.288 67.5667 206.997 66.8583 206.413 66.325C205.847 65.7917 205.03 65.525 203.963 65.525C202.93 65.525 202.097 65.7917 201.463 66.325C200.83 66.8583 200.455 67.575 200.338 68.475H198.113ZM212.835 68.475C212.952 66.9417 213.543 65.7417 214.61 64.875C215.677 64.0083 217.06 63.575 218.76 63.575C219.893 63.575 220.868 63.7833 221.685 64.2C222.518 64.6 223.143 65.15 223.56 65.85C223.993 66.55 224.21 67.3417 224.21 68.225C224.21 69.2583 223.91 70.15 223.31 70.9C222.727 71.65 221.96 72.1333 221.01 72.35V72.475C222.093 72.7417 222.952 73.2667 223.585 74.05C224.218 74.8333 224.535 75.8583 224.535 77.125C224.535 78.075 224.318 78.9333 223.885 79.7C223.452 80.45 222.802 81.0417 221.935 81.475C221.068 81.9083 220.027 82.125 218.81 82.125C217.043 82.125 215.593 81.6667 214.46 80.75C213.327 79.8167 212.693 78.5 212.56 76.8H214.76C214.877 77.8 215.285 78.6167 215.985 79.25C216.685 79.8833 217.618 80.2 218.785 80.2C219.952 80.2 220.835 79.9 221.435 79.3C222.052 78.6833 222.36 77.8917 222.36 76.925C222.36 75.675 221.943 74.775 221.11 74.225C220.277 73.675 219.018 73.4 217.335 73.4H216.76V71.5H217.36C218.893 71.4833 220.052 71.2333 220.835 70.75C221.618 70.25 222.01 69.4833 222.01 68.45C222.01 67.5667 221.718 66.8583 221.135 66.325C220.568 65.7917 219.752 65.525 218.685 65.525C217.652 65.525 216.818 65.7917 216.185 66.325C215.552 66.8583 215.177 67.575 215.06 68.475H212.835ZM227.557 68.475C227.673 66.9417 228.265 65.7417 229.332 64.875C230.398 64.0083 231.782 63.575 233.482 63.575C234.615 63.575 235.59 63.7833 236.407 64.2C237.24 64.6 237.865 65.15 238.282 65.85C238.715 66.55 238.932 67.3417 238.932 68.225C238.932 69.2583 238.632 70.15 238.032 70.9C237.448 71.65 236.682 72.1333 235.732 72.35V72.475C236.815 72.7417 237.673 73.2667 238.307 74.05C238.94 74.8333 239.257 75.8583 239.257 77.125C239.257 78.075 239.04 78.9333 238.607 79.7C238.173 80.45 237.523 81.0417 236.657 81.475C235.79 81.9083 234.748 82.125 233.532 82.125C231.765 82.125 230.315 81.6667 229.182 80.75C228.048 79.8167 227.415 78.5 227.282 76.8H229.482C229.598 77.8 230.007 78.6167 230.707 79.25C231.407 79.8833 232.34 80.2 233.507 80.2C234.673 80.2 235.557 79.9 236.157 79.3C236.773 78.6833 237.082 77.8917 237.082 76.925C237.082 75.675 236.665 74.775 235.832 74.225C234.998 73.675 233.74 73.4 232.057 73.4H231.482V71.5H232.082C233.615 71.4833 234.773 71.2333 235.557 70.75C236.34 70.25 236.732 69.4833 236.732 68.45C236.732 67.5667 236.44 66.8583 235.857 66.325C235.29 65.7917 234.473 65.525 233.407 65.525C232.373 65.525 231.54 65.7917 230.907 66.325C230.273 66.8583 229.898 67.575 229.782 68.475H227.557ZM242.278 68.475C242.395 66.9417 242.987 65.7417 244.053 64.875C245.12 64.0083 246.503 63.575 248.203 63.575C249.337 63.575 250.312 63.7833 251.128 64.2C251.962 64.6 252.587 65.15 253.003 65.85C253.437 66.55 253.653 67.3417 253.653 68.225C253.653 69.2583 253.353 70.15 252.753 70.9C252.17 71.65 251.403 72.1333 250.453 72.35V72.475C251.537 72.7417 252.395 73.2667 253.028 74.05C253.662 74.8333 253.978 75.8583 253.978 77.125C253.978 78.075 253.762 78.9333 253.328 79.7C252.895 80.45 252.245 81.0417 251.378 81.475C250.512 81.9083 249.47 82.125 248.253 82.125C246.487 82.125 245.037 81.6667 243.903 80.75C242.77 79.8167 242.137 78.5 242.003 76.8H244.203C244.32 77.8 244.728 78.6167 245.428 79.25C246.128 79.8833 247.062 80.2 248.228 80.2C249.395 80.2 250.278 79.9 250.878 79.3C251.495 78.6833 251.803 77.8917 251.803 76.925C251.803 75.675 251.387 74.775 250.553 74.225C249.72 73.675 248.462 73.4 246.778 73.4H246.203V71.5H246.803C248.337 71.4833 249.495 71.2333 250.278 70.75C251.062 70.25 251.453 69.4833 251.453 68.45C251.453 67.5667 251.162 66.8583 250.578 66.325C250.012 65.7917 249.195 65.525 248.128 65.525C247.095 65.525 246.262 65.7917 245.628 66.325C244.995 66.8583 244.62 67.575 244.503 68.475H242.278ZM257 68.475C257.117 66.9417 257.708 65.7417 258.775 64.875C259.842 64.0083 261.225 63.575 262.925 63.575C264.058 63.575 265.033 63.7833 265.85 64.2C266.683 64.6 267.308 65.15 267.725 65.85C268.158 66.55 268.375 67.3417 268.375 68.225C268.375 69.2583 268.075 70.15 267.475 70.9C266.892 71.65 266.125 72.1333 265.175 72.35V72.475C266.258 72.7417 267.117 73.2667 267.75 74.05C268.383 74.8333 268.7 75.8583 268.7 77.125C268.7 78.075 268.483 78.9333 268.05 79.7C267.617 80.45 266.967 81.0417 266.1 81.475C265.233 81.9083 264.192 82.125 262.975 82.125C261.208 82.125 259.758 81.6667 258.625 80.75C257.492 79.8167 256.858 78.5 256.725 76.8H258.925C259.042 77.8 259.45 78.6167 260.15 79.25C260.85 79.8833 261.783 80.2 262.95 80.2C264.117 80.2 265 79.9 265.6 79.3C266.217 78.6833 266.525 77.8917 266.525 76.925C266.525 75.675 266.108 74.775 265.275 74.225C264.442 73.675 263.183 73.4 261.5 73.4H260.925V71.5H261.525C263.058 71.4833 264.217 71.2333 265 70.75C265.783 70.25 266.175 69.4833 266.175 68.45C266.175 67.5667 265.883 66.8583 265.3 66.325C264.733 65.7917 263.917 65.525 262.85 65.525C261.817 65.525 260.983 65.7917 260.35 66.325C259.717 66.8583 259.342 67.575 259.225 68.475H257ZM271.722 68.475C271.838 66.9417 272.43 65.7417 273.497 64.875C274.563 64.0083 275.947 63.575 277.647 63.575C278.78 63.575 279.755 63.7833 280.572 64.2C281.405 64.6 282.03 65.15 282.447 65.85C282.88 66.55 283.097 67.3417 283.097 68.225C283.097 69.2583 282.797 70.15 282.197 70.9C281.613 71.65 280.847 72.1333 279.897 72.35V72.475C280.98 72.7417 281.838 73.2667 282.472 74.05C283.105 74.8333 283.422 75.8583 283.422 77.125C283.422 78.075 283.205 78.9333 282.772 79.7C282.338 80.45 281.688 81.0417 280.822 81.475C279.955 81.9083 278.913 82.125 277.697 82.125C275.93 82.125 274.48 81.6667 273.347 80.75C272.213 79.8167 271.58 78.5 271.447 76.8H273.647C273.763 77.8 274.172 78.6167 274.872 79.25C275.572 79.8833 276.505 80.2 277.672 80.2C278.838 80.2 279.722 79.9 280.322 79.3C280.938 78.6833 281.247 77.8917 281.247 76.925C281.247 75.675 280.83 74.775 279.997 74.225C279.163 73.675 277.905 73.4 276.222 73.4H275.647V71.5H276.247C277.78 71.4833 278.938 71.2333 279.722 70.75C280.505 70.25 280.897 69.4833 280.897 68.45C280.897 67.5667 280.605 66.8583 280.022 66.325C279.455 65.7917 278.638 65.525 277.572 65.525C276.538 65.525 275.705 65.7917 275.072 66.325C274.438 66.8583 274.063 67.575 273.947 68.475H271.722ZM286.443 68.475C286.56 66.9417 287.152 65.7417 288.218 64.875C289.285 64.0083 290.668 63.575 292.368 63.575C293.502 63.575 294.477 63.7833 295.293 64.2C296.127 64.6 296.752 65.15 297.168 65.85C297.602 66.55 297.818 67.3417 297.818 68.225C297.818 69.2583 297.518 70.15 296.918 70.9C296.335 71.65 295.568 72.1333 294.618 72.35V72.475C295.702 72.7417 296.56 73.2667 297.193 74.05C297.827 74.8333 298.143 75.8583 298.143 77.125C298.143 78.075 297.927 78.9333 297.493 79.7C297.06 80.45 296.41 81.0417 295.543 81.475C294.677 81.9083 293.635 82.125 292.418 82.125C290.652 82.125 289.202 81.6667 288.068 80.75C286.935 79.8167 286.302 78.5 286.168 76.8H288.368C288.485 77.8 288.893 78.6167 289.593 79.25C290.293 79.8833 291.227 80.2 292.393 80.2C293.56 80.2 294.443 79.9 295.043 79.3C295.66 78.6833 295.968 77.8917 295.968 76.925C295.968 75.675 295.552 74.775 294.718 74.225C293.885 73.675 292.627 73.4 290.943 73.4H290.368V71.5H290.968C292.502 71.4833 293.66 71.2333 294.443 70.75C295.227 70.25 295.618 69.4833 295.618 68.45C295.618 67.5667 295.327 66.8583 294.743 66.325C294.177 65.7917 293.36 65.525 292.293 65.525C291.26 65.525 290.427 65.7917 289.793 66.325C289.16 66.8583 288.785 67.575 288.668 68.475H286.443ZM301.165 68.475C301.282 66.9417 301.873 65.7417 302.94 64.875C304.007 64.0083 305.39 63.575 307.09 63.575C308.223 63.575 309.198 63.7833 310.015 64.2C310.848 64.6 311.473 65.15 311.89 65.85C312.323 66.55 312.54 67.3417 312.54 68.225C312.54 69.2583 312.24 70.15 311.64 70.9C311.057 71.65 310.29 72.1333 309.34 72.35V72.475C310.423 72.7417 311.282 73.2667 311.915 74.05C312.548 74.8333 312.865 75.8583 312.865 77.125C312.865 78.075 312.648 78.9333 312.215 79.7C311.782 80.45 311.132 81.0417 310.265 81.475C309.398 81.9083 308.357 82.125 307.14 82.125C305.373 82.125 303.923 81.6667 302.79 80.75C301.657 79.8167 301.023 78.5 300.89 76.8H303.09C303.207 77.8 303.615 78.6167 304.315 79.25C305.015 79.8833 305.948 80.2 307.115 80.2C308.282 80.2 309.165 79.9 309.765 79.3C310.382 78.6833 310.69 77.8917 310.69 76.925C310.69 75.675 310.273 74.775 309.44 74.225C308.607 73.675 307.348 73.4 305.665 73.4H305.09V71.5H305.69C307.223 71.4833 308.382 71.2333 309.165 70.75C309.948 70.25 310.34 69.4833 310.34 68.45C310.34 67.5667 310.048 66.8583 309.465 66.325C308.898 65.7917 308.082 65.525 307.015 65.525C305.982 65.525 305.148 65.7917 304.515 66.325C303.882 66.8583 303.507 67.575 303.39 68.475H301.165ZM315.887 68.475C316.003 66.9417 316.595 65.7417 317.662 64.875C318.728 64.0083 320.112 63.575 321.812 63.575C322.945 63.575 323.92 63.7833 324.737 64.2C325.57 64.6 326.195 65.15 326.612 65.85C327.045 66.55 327.262 67.3417 327.262 68.225C327.262 69.2583 326.962 70.15 326.362 70.9C325.778 71.65 325.012 72.1333 324.062 72.35V72.475C325.145 72.7417 326.003 73.2667 326.637 74.05C327.27 74.8333 327.587 75.8583 327.587 77.125C327.587 78.075 327.37 78.9333 326.937 79.7C326.503 80.45 325.853 81.0417 324.987 81.475C324.12 81.9083 323.078 82.125 321.862 82.125C320.095 82.125 318.645 81.6667 317.512 80.75C316.378 79.8167 315.745 78.5 315.612 76.8H317.812C317.928 77.8 318.337 78.6167 319.037 79.25C319.737 79.8833 320.67 80.2 321.837 80.2C323.003 80.2 323.887 79.9 324.487 79.3C325.103 78.6833 325.412 77.8917 325.412 76.925C325.412 75.675 324.995 74.775 324.162 74.225C323.328 73.675 322.07 73.4 320.387 73.4H319.812V71.5H320.412C321.945 71.4833 323.103 71.2333 323.887 70.75C324.67 70.25 325.062 69.4833 325.062 68.45C325.062 67.5667 324.77 66.8583 324.187 66.325C323.62 65.7917 322.803 65.525 321.737 65.525C320.703 65.525 319.87 65.7917 319.237 66.325C318.603 66.8583 318.228 67.575 318.112 68.475H315.887ZM330.608 68.475C330.725 66.9417 331.317 65.7417 332.383 64.875C333.45 64.0083 334.833 63.575 336.533 63.575C337.667 63.575 338.642 63.7833 339.458 64.2C340.292 64.6 340.917 65.15 341.333 65.85C341.767 66.55 341.983 67.3417 341.983 68.225C341.983 69.2583 341.683 70.15 341.083 70.9C340.5 71.65 339.733 72.1333 338.783 72.35V72.475C339.867 72.7417 340.725 73.2667 341.358 74.05C341.992 74.8333 342.308 75.8583 342.308 77.125C342.308 78.075 342.092 78.9333 341.658 79.7C341.225 80.45 340.575 81.0417 339.708 81.475C338.842 81.9083 337.8 82.125 336.583 82.125C334.817 82.125 333.367 81.6667 332.233 80.75C331.1 79.8167 330.467 78.5 330.333 76.8H332.533C332.65 77.8 333.058 78.6167 333.758 79.25C334.458 79.8833 335.392 80.2 336.558 80.2C337.725 80.2 338.608 79.9 339.208 79.3C339.825 78.6833 340.133 77.8917 340.133 76.925C340.133 75.675 339.717 74.775 338.883 74.225C338.05 73.675 336.792 73.4 335.108 73.4H334.533V71.5H335.133C336.667 71.4833 337.825 71.2333 338.608 70.75C339.392 70.25 339.783 69.4833 339.783 68.45C339.783 67.5667 339.492 66.8583 338.908 66.325C338.342 65.7917 337.525 65.525 336.458 65.525C335.425 65.525 334.592 65.7917 333.958 66.325C333.325 66.8583 332.95 67.575 332.833 68.475H330.608ZM345.33 68.475C345.447 66.9417 346.038 65.7417 347.105 64.875C348.172 64.0083 349.555 63.575 351.255 63.575C352.388 63.575 353.363 63.7833 354.18 64.2C355.013 64.6 355.638 65.15 356.055 65.85C356.488 66.55 356.705 67.3417 356.705 68.225C356.705 69.2583 356.405 70.15 355.805 70.9C355.222 71.65 354.455 72.1333 353.505 72.35V72.475C354.588 72.7417 355.447 73.2667 356.08 74.05C356.713 74.8333 357.03 75.8583 357.03 77.125C357.03 78.075 356.813 78.9333 356.38 79.7C355.947 80.45 355.297 81.0417 354.43 81.475C353.563 81.9083 352.522 82.125 351.305 82.125C349.538 82.125 348.088 81.6667 346.955 80.75C345.822 79.8167 345.188 78.5 345.055 76.8H347.255C347.372 77.8 347.78 78.6167 348.48 79.25C349.18 79.8833 350.113 80.2 351.28 80.2C352.447 80.2 353.33 79.9 353.93 79.3C354.547 78.6833 354.855 77.8917 354.855 76.925C354.855 75.675 354.438 74.775 353.605 74.225C352.772 73.675 351.513 73.4 349.83 73.4H349.255V71.5H349.855C351.388 71.4833 352.547 71.2333 353.33 70.75C354.113 70.25 354.505 69.4833 354.505 68.45C354.505 67.5667 354.213 66.8583 353.63 66.325C353.063 65.7917 352.247 65.525 351.18 65.525C350.147 65.525 349.313 65.7917 348.68 66.325C348.047 66.8583 347.672 67.575 347.555 68.475H345.33ZM360.052 68.475C360.168 66.9417 360.76 65.7417 361.827 64.875C362.893 64.0083 364.277 63.575 365.977 63.575C367.11 63.575 368.085 63.7833 368.902 64.2C369.735 64.6 370.36 65.15 370.777 65.85C371.21 66.55 371.427 67.3417 371.427 68.225C371.427 69.2583 371.127 70.15 370.527 70.9C369.943 71.65 369.177 72.1333 368.227 72.35V72.475C369.31 72.7417 370.168 73.2667 370.802 74.05C371.435 74.8333 371.752 75.8583 371.752 77.125C371.752 78.075 371.535 78.9333 371.102 79.7C370.668 80.45 370.018 81.0417 369.152 81.475C368.285 81.9083 367.243 82.125 366.027 82.125C364.26 82.125 362.81 81.6667 361.677 80.75C360.543 79.8167 359.91 78.5 359.777 76.8H361.977C362.093 77.8 362.502 78.6167 363.202 79.25C363.902 79.8833 364.835 80.2 366.002 80.2C367.168 80.2 368.052 79.9 368.652 79.3C369.268 78.6833 369.577 77.8917 369.577 76.925C369.577 75.675 369.16 74.775 368.327 74.225C367.493 73.675 366.235 73.4 364.552 73.4H363.977V71.5H364.577C366.11 71.4833 367.268 71.2333 368.052 70.75C368.835 70.25 369.227 69.4833 369.227 68.45C369.227 67.5667 368.935 66.8583 368.352 66.325C367.785 65.7917 366.968 65.525 365.902 65.525C364.868 65.525 364.035 65.7917 363.402 66.325C362.768 66.8583 362.393 67.575 362.277 68.475H360.052ZM374.773 68.475C374.89 66.9417 375.482 65.7417 376.548 64.875C377.615 64.0083 378.998 63.575 380.698 63.575C381.832 63.575 382.807 63.7833 383.623 64.2C384.457 64.6 385.082 65.15 385.498 65.85C385.932 66.55 386.148 67.3417 386.148 68.225C386.148 69.2583 385.848 70.15 385.248 70.9C384.665 71.65 383.898 72.1333 382.948 72.35V72.475C384.032 72.7417 384.89 73.2667 385.523 74.05C386.157 74.8333 386.473 75.8583 386.473 77.125C386.473 78.075 386.257 78.9333 385.823 79.7C385.39 80.45 384.74 81.0417 383.873 81.475C383.007 81.9083 381.965 82.125 380.748 82.125C378.982 82.125 377.532 81.6667 376.398 80.75C375.265 79.8167 374.632 78.5 374.498 76.8H376.698C376.815 77.8 377.223 78.6167 377.923 79.25C378.623 79.8833 379.557 80.2 380.723 80.2C381.89 80.2 382.773 79.9 383.373 79.3C383.99 78.6833 384.298 77.8917 384.298 76.925C384.298 75.675 383.882 74.775 383.048 74.225C382.215 73.675 380.957 73.4 379.273 73.4H378.698V71.5H379.298C380.832 71.4833 381.99 71.2333 382.773 70.75C383.557 70.25 383.948 69.4833 383.948 68.45C383.948 67.5667 383.657 66.8583 383.073 66.325C382.507 65.7917 381.69 65.525 380.623 65.525C379.59 65.525 378.757 65.7917 378.123 66.325C377.49 66.8583 377.115 67.575 376.998 68.475H374.773ZM389.495 68.475C389.612 66.9417 390.203 65.7417 391.27 64.875C392.337 64.0083 393.72 63.575 395.42 63.575C396.553 63.575 397.528 63.7833 398.345 64.2C399.178 64.6 399.803 65.15 400.22 65.85C400.653 66.55 400.87 67.3417 400.87 68.225C400.87 69.2583 400.57 70.15 399.97 70.9C399.387 71.65 398.62 72.1333 397.67 72.35V72.475C398.753 72.7417 399.612 73.2667 400.245 74.05C400.878 74.8333 401.195 75.8583 401.195 77.125C401.195 78.075 400.978 78.9333 400.545 79.7C400.112 80.45 399.462 81.0417 398.595 81.475C397.728 81.9083 396.687 82.125 395.47 82.125C393.703 82.125 392.253 81.6667 391.12 80.75C389.987 79.8167 389.353 78.5 389.22 76.8H391.42C391.537 77.8 391.945 78.6167 392.645 79.25C393.345 79.8833 394.278 80.2 395.445 80.2C396.612 80.2 397.495 79.9 398.095 79.3C398.712 78.6833 399.02 77.8917 399.02 76.925C399.02 75.675 398.603 74.775 397.77 74.225C396.937 73.675 395.678 73.4 393.995 73.4H393.42V71.5H394.02C395.553 71.4833 396.712 71.2333 397.495 70.75C398.278 70.25 398.67 69.4833 398.67 68.45C398.67 67.5667 398.378 66.8583 397.795 66.325C397.228 65.7917 396.412 65.525 395.345 65.525C394.312 65.525 393.478 65.7917 392.845 66.325C392.212 66.8583 391.837 67.575 391.72 68.475H389.495ZM404.217 68.475C404.333 66.9417 404.925 65.7417 405.992 64.875C407.058 64.0083 408.442 63.575 410.142 63.575C411.275 63.575 412.25 63.7833 413.067 64.2C413.9 64.6 414.525 65.15 414.942 65.85C415.375 66.55 415.592 67.3417 415.592 68.225C415.592 69.2583 415.292 70.15 414.692 70.9C414.108 71.65 413.342 72.1333 412.392 72.35V72.475C413.475 72.7417 414.333 73.2667 414.967 74.05C415.6 74.8333 415.917 75.8583 415.917 77.125C415.917 78.075 415.7 78.9333 415.267 79.7C414.833 80.45 414.183 81.0417 413.317 81.475C412.45 81.9083 411.408 82.125 410.192 82.125C408.425 82.125 406.975 81.6667 405.842 80.75C404.708 79.8167 404.075 78.5 403.942 76.8H406.142C406.258 77.8 406.667 78.6167 407.367 79.25C408.067 79.8833 409 80.2 410.167 80.2C411.333 80.2 412.217 79.9 412.817 79.3C413.433 78.6833 413.742 77.8917 413.742 76.925C413.742 75.675 413.325 74.775 412.492 74.225C411.658 73.675 410.4 73.4 408.717 73.4H408.142V71.5H408.742C410.275 71.4833 411.433 71.2333 412.217 70.75C413 70.25 413.392 69.4833 413.392 68.45C413.392 67.5667 413.1 66.8583 412.517 66.325C411.95 65.7917 411.133 65.525 410.067 65.525C409.033 65.525 408.2 65.7917 407.567 66.325C406.933 66.8583 406.558 67.575 406.442 68.475H404.217ZM418.938 68.475C419.055 66.9417 419.647 65.7417 420.713 64.875C421.78 64.0083 423.163 63.575 424.863 63.575C425.997 63.575 426.972 63.7833 427.788 64.2C428.622 64.6 429.247 65.15 429.663 65.85C430.097 66.55 430.313 67.3417 430.313 68.225C430.313 69.2583 430.013 70.15 429.413 70.9C428.83 71.65 428.063 72.1333 427.113 72.35V72.475C428.197 72.7417 429.055 73.2667 429.688 74.05C430.322 74.8333 430.638 75.8583 430.638 77.125C430.638 78.075 430.422 78.9333 429.988 79.7C429.555 80.45 428.905 81.0417 428.038 81.475C427.172 81.9083 426.13 82.125 424.913 82.125C423.147 82.125 421.697 81.6667 420.563 80.75C419.43 79.8167 418.797 78.5 418.663 76.8H420.863C420.98 77.8 421.388 78.6167 422.088 79.25C422.788 79.8833 423.722 80.2 424.888 80.2C426.055 80.2 426.938 79.9 427.538 79.3C428.155 78.6833 428.463 77.8917 428.463 76.925C428.463 75.675 428.047 74.775 427.213 74.225C426.38 73.675 425.122 73.4 423.438 73.4H422.863V71.5H423.463C424.997 71.4833 426.155 71.2333 426.938 70.75C427.722 70.25 428.113 69.4833 428.113 68.45C428.113 67.5667 427.822 66.8583 427.238 66.325C426.672 65.7917 425.855 65.525 424.788 65.525C423.755 65.525 422.922 65.7917 422.288 66.325C421.655 66.8583 421.28 67.575 421.163 68.475H418.938ZM433.66 68.475C433.777 66.9417 434.368 65.7417 435.435 64.875C436.502 64.0083 437.885 63.575 439.585 63.575C440.718 63.575 441.693 63.7833 442.51 64.2C443.343 64.6 443.968 65.15 444.385 65.85C444.818 66.55 445.035 67.3417 445.035 68.225C445.035 69.2583 444.735 70.15 444.135 70.9C443.552 71.65 442.785 72.1333 441.835 72.35V72.475C442.918 72.7417 443.777 73.2667 444.41 74.05C445.043 74.8333 445.36 75.8583 445.36 77.125C445.36 78.075 445.143 78.9333 444.71 79.7C444.277 80.45 443.627 81.0417 442.76 81.475C441.893 81.9083 440.852 82.125 439.635 82.125C437.868 82.125 436.418 81.6667 435.285 80.75C434.152 79.8167 433.518 78.5 433.385 76.8H435.585C435.702 77.8 436.11 78.6167 436.81 79.25C437.51 79.8833 438.443 80.2 439.61 80.2C440.777 80.2 441.66 79.9 442.26 79.3C442.877 78.6833 443.185 77.8917 443.185 76.925C443.185 75.675 442.768 74.775 441.935 74.225C441.102 73.675 439.843 73.4 438.16 73.4H437.585V71.5H438.185C439.718 71.4833 440.877 71.2333 441.66 70.75C442.443 70.25 442.835 69.4833 442.835 68.45C442.835 67.5667 442.543 66.8583 441.96 66.325C441.393 65.7917 440.577 65.525 439.51 65.525C438.477 65.525 437.643 65.7917 437.01 66.325C436.377 66.8583 436.002 67.575 435.885 68.475H433.66ZM31.575 107.675C31.575 109.125 31.075 110.333 30.075 111.3C29.0917 112.25 27.5833 112.725 25.55 112.725H22.2V120H19.925V102.575H25.55C27.5167 102.575 29.0083 103.05 30.025 104C31.0583 104.95 31.575 106.175 31.575 107.675ZM25.55 110.85C26.8167 110.85 27.75 110.575 28.35 110.025C28.95 109.475 29.25 108.692 29.25 107.675C29.25 105.525 28.0167 104.45 25.55 104.45H22.2V110.85H25.55ZM36.6775 118.15H42.7775V120H34.4025V102.575H36.6775V118.15ZM53.6936 96.45L46.8436 124.25H44.5936L51.4186 96.45H53.6936ZM62.6082 120.175C61.4582 120.175 60.4249 119.975 59.5082 119.575C58.6082 119.158 57.8999 118.592 57.3832 117.875C56.8665 117.142 56.5999 116.3 56.5832 115.35H59.0082C59.0915 116.167 59.4249 116.858 60.0082 117.425C60.6082 117.975 61.4749 118.25 62.6082 118.25C63.6915 118.25 64.5415 117.983 65.1582 117.45C65.7915 116.9 66.1082 116.2 66.1082 115.35C66.1082 114.683 65.9249 114.142 65.5582 113.725C65.1915 113.308 64.7332 112.992 64.1832 112.775C63.6332 112.558 62.8915 112.325 61.9582 112.075C60.8082 111.775 59.8832 111.475 59.1832 111.175C58.4999 110.875 57.9082 110.408 57.4082 109.775C56.9249 109.125 56.6832 108.258 56.6832 107.175C56.6832 106.225 56.9249 105.383 57.4082 104.65C57.8915 103.917 58.5665 103.35 59.4332 102.95C60.3165 102.55 61.3249 102.35 62.4582 102.35C64.0915 102.35 65.4249 102.758 66.4582 103.575C67.5082 104.392 68.0999 105.475 68.2332 106.825H65.7332C65.6499 106.158 65.2999 105.575 64.6832 105.075C64.0665 104.558 63.2499 104.3 62.2332 104.3C61.2832 104.3 60.5082 104.55 59.9082 105.05C59.3082 105.533 59.0082 106.217 59.0082 107.1C59.0082 107.733 59.1832 108.25 59.5332 108.65C59.8999 109.05 60.3415 109.358 60.8582 109.575C61.3915 109.775 62.1332 110.008 63.0832 110.275C64.2332 110.592 65.1582 110.908 65.8582 111.225C66.5582 111.525 67.1582 112 67.6582 112.65C68.1582 113.283 68.4082 114.15 68.4082 115.25C68.4082 116.1 68.1832 116.9 67.7332 117.65C67.2832 118.4 66.6165 119.008 65.7332 119.475C64.8499 119.942 63.8082 120.175 62.6082 120.175ZM85.7311 123.3L82.2561 119.825C81.4061 120.058 80.5394 120.175 79.6561 120.175C78.0394 120.175 76.5644 119.8 75.2311 119.05C73.8977 118.283 72.8394 117.225 72.0561 115.875C71.2894 114.508 70.9061 112.975 70.9061 111.275C70.9061 109.575 71.2894 108.05 72.0561 106.7C72.8394 105.333 73.8977 104.275 75.2311 103.525C76.5644 102.758 78.0394 102.375 79.6561 102.375C81.2894 102.375 82.7727 102.758 84.1061 103.525C85.4394 104.275 86.4894 105.325 87.2561 106.675C88.0227 108.025 88.4061 109.558 88.4061 111.275C88.4061 112.942 88.0394 114.442 87.3061 115.775C86.5727 117.108 85.5644 118.158 84.2811 118.925L88.6811 123.3H85.7311ZM73.2311 111.275C73.2311 112.658 73.5061 113.875 74.0561 114.925C74.6227 115.975 75.3894 116.783 76.3561 117.35C77.3394 117.917 78.4394 118.2 79.6561 118.2C80.8727 118.2 81.9644 117.917 82.9311 117.35C83.9144 116.783 84.6811 115.975 85.2311 114.925C85.7977 113.875 86.0811 112.658 86.0811 111.275C86.0811 109.875 85.7977 108.658 85.2311 107.625C84.6811 106.575 83.9227 105.767 82.9561 105.2C81.9894 104.633 80.8894 104.35 79.6561 104.35C78.4227 104.35 77.3227 104.633 76.3561 105.2C75.3894 105.767 74.6227 106.575 74.0561 107.625C73.5061 108.658 73.2311 109.875 73.2311 111.275ZM93.7332 118.15H99.8332V120H91.4582V102.575H93.7332V118.15ZM111.189 108.825C111.639 108.042 112.306 107.392 113.189 106.875C114.089 106.342 115.131 106.075 116.314 106.075C117.531 106.075 118.631 106.367 119.614 106.95C120.614 107.533 121.398 108.358 121.964 109.425C122.531 110.475 122.814 111.7 122.814 113.1C122.814 114.483 122.531 115.717 121.964 116.8C121.398 117.883 120.614 118.725 119.614 119.325C118.631 119.925 117.531 120.225 116.314 120.225C115.148 120.225 114.114 119.967 113.214 119.45C112.331 118.917 111.656 118.258 111.189 117.475V126.5H108.914V106.3H111.189V108.825ZM120.489 113.1C120.489 112.067 120.281 111.167 119.864 110.4C119.448 109.633 118.881 109.05 118.164 108.65C117.464 108.25 116.689 108.05 115.839 108.05C115.006 108.05 114.231 108.258 113.514 108.675C112.814 109.075 112.248 109.667 111.814 110.45C111.398 111.217 111.189 112.108 111.189 113.125C111.189 114.158 111.398 115.067 111.814 115.85C112.248 116.617 112.814 117.208 113.514 117.625C114.231 118.025 115.006 118.225 115.839 118.225C116.689 118.225 117.464 118.025 118.164 117.625C118.881 117.208 119.448 116.617 119.864 115.85C120.281 115.067 120.489 114.15 120.489 113.1ZM128.084 108.525C128.484 107.742 129.05 107.133 129.784 106.7C130.534 106.267 131.442 106.05 132.509 106.05V108.4H131.909C129.359 108.4 128.084 109.783 128.084 112.55V120H125.809V106.3H128.084V108.525ZM141.11 120.225C139.827 120.225 138.66 119.933 137.61 119.35C136.577 118.767 135.76 117.942 135.16 116.875C134.577 115.792 134.285 114.542 134.285 113.125C134.285 111.725 134.585 110.492 135.185 109.425C135.802 108.342 136.635 107.517 137.685 106.95C138.735 106.367 139.91 106.075 141.21 106.075C142.51 106.075 143.685 106.367 144.735 106.95C145.785 107.517 146.61 108.333 147.21 109.4C147.827 110.467 148.135 111.708 148.135 113.125C148.135 114.542 147.818 115.792 147.185 116.875C146.568 117.942 145.727 118.767 144.66 119.35C143.593 119.933 142.41 120.225 141.11 120.225ZM141.11 118.225C141.927 118.225 142.693 118.033 143.41 117.65C144.127 117.267 144.702 116.692 145.135 115.925C145.585 115.158 145.81 114.225 145.81 113.125C145.81 112.025 145.593 111.092 145.16 110.325C144.727 109.558 144.16 108.992 143.46 108.625C142.76 108.242 142.002 108.05 141.185 108.05C140.352 108.05 139.585 108.242 138.885 108.625C138.202 108.992 137.652 109.558 137.235 110.325C136.818 111.092 136.61 112.025 136.61 113.125C136.61 114.242 136.81 115.183 137.21 115.95C137.627 116.717 138.177 117.292 138.86 117.675C139.543 118.042 140.293 118.225 141.11 118.225ZM150.276 113.125C150.276 111.708 150.56 110.475 151.126 109.425C151.693 108.358 152.476 107.533 153.476 106.95C154.493 106.367 155.651 106.075 156.951 106.075C158.635 106.075 160.018 106.483 161.101 107.3C162.201 108.117 162.926 109.25 163.276 110.7H160.826C160.593 109.867 160.135 109.208 159.451 108.725C158.785 108.242 157.951 108 156.951 108C155.651 108 154.601 108.45 153.801 109.35C153.001 110.233 152.601 111.492 152.601 113.125C152.601 114.775 153.001 116.05 153.801 116.95C154.601 117.85 155.651 118.3 156.951 118.3C157.951 118.3 158.785 118.067 159.451 117.6C160.118 117.133 160.576 116.467 160.826 115.6H163.276C162.91 117 162.176 118.125 161.076 118.975C159.976 119.808 158.601 120.225 156.951 120.225C155.651 120.225 154.493 119.933 153.476 119.35C152.476 118.767 151.693 117.942 151.126 116.875C150.56 115.808 150.276 114.558 150.276 113.125ZM178.812 112.625C178.812 113.058 178.787 113.517 178.737 114H167.787C167.87 115.35 168.328 116.408 169.162 117.175C170.012 117.925 171.037 118.3 172.237 118.3C173.22 118.3 174.037 118.075 174.687 117.625C175.353 117.158 175.82 116.542 176.087 115.775H178.537C178.17 117.092 177.437 118.167 176.337 119C175.237 119.817 173.87 120.225 172.237 120.225C170.937 120.225 169.77 119.933 168.737 119.35C167.72 118.767 166.92 117.942 166.337 116.875C165.753 115.792 165.462 114.542 165.462 113.125C165.462 111.708 165.745 110.467 166.312 109.4C166.878 108.333 167.67 107.517 168.687 106.95C169.72 106.367 170.903 106.075 172.237 106.075C173.537 106.075 174.687 106.358 175.687 106.925C176.687 107.492 177.453 108.275 177.987 109.275C178.537 110.258 178.812 111.375 178.812 112.625ZM176.462 112.15C176.462 111.283 176.27 110.542 175.887 109.925C175.503 109.292 174.978 108.817 174.312 108.5C173.662 108.167 172.937 108 172.137 108C170.987 108 170.003 108.367 169.187 109.1C168.387 109.833 167.928 110.85 167.812 112.15H176.462ZM180.965 113.1C180.965 111.7 181.248 110.475 181.815 109.425C182.381 108.358 183.156 107.533 184.14 106.95C185.14 106.367 186.256 106.075 187.49 106.075C188.556 106.075 189.548 106.325 190.465 106.825C191.381 107.308 192.081 107.95 192.565 108.75V101.5H194.865V120H192.565V117.425C192.115 118.242 191.448 118.917 190.565 119.45C189.681 119.967 188.648 120.225 187.465 120.225C186.248 120.225 185.14 119.925 184.14 119.325C183.156 118.725 182.381 117.883 181.815 116.8C181.248 115.717 180.965 114.483 180.965 113.1ZM192.565 113.125C192.565 112.092 192.356 111.192 191.94 110.425C191.523 109.658 190.956 109.075 190.24 108.675C189.54 108.258 188.765 108.05 187.915 108.05C187.065 108.05 186.29 108.25 185.59 108.65C184.89 109.05 184.331 109.633 183.915 110.4C183.498 111.167 183.29 112.067 183.29 113.1C183.29 114.15 183.498 115.067 183.915 115.85C184.331 116.617 184.89 117.208 185.59 117.625C186.29 118.025 187.065 118.225 187.915 118.225C188.765 118.225 189.54 118.025 190.24 117.625C190.956 117.208 191.523 116.617 191.94 115.85C192.356 115.067 192.565 114.158 192.565 113.125ZM210.859 106.3V120H208.584V117.975C208.151 118.675 207.543 119.225 206.759 119.625C205.993 120.008 205.143 120.2 204.209 120.2C203.143 120.2 202.184 119.983 201.334 119.55C200.484 119.1 199.809 118.433 199.309 117.55C198.826 116.667 198.584 115.592 198.584 114.325V106.3H200.834V114.025C200.834 115.375 201.176 116.417 201.859 117.15C202.543 117.867 203.476 118.225 204.659 118.225C205.876 118.225 206.834 117.85 207.534 117.1C208.234 116.35 208.584 115.258 208.584 113.825V106.3H210.859ZM216.975 108.525C217.375 107.742 217.942 107.133 218.675 106.7C219.425 106.267 220.334 106.05 221.4 106.05V108.4H220.8C218.25 108.4 216.975 109.783 216.975 112.55V120H214.7V106.3H216.975V108.525ZM236.527 112.625C236.527 113.058 236.502 113.517 236.452 114H225.502C225.585 115.35 226.043 116.408 226.877 117.175C227.727 117.925 228.752 118.3 229.952 118.3C230.935 118.3 231.752 118.075 232.402 117.625C233.068 117.158 233.535 116.542 233.802 115.775H236.252C235.885 117.092 235.152 118.167 234.052 119C232.952 119.817 231.585 120.225 229.952 120.225C228.652 120.225 227.485 119.933 226.452 119.35C225.435 118.767 224.635 117.942 224.052 116.875C223.468 115.792 223.177 114.542 223.177 113.125C223.177 111.708 223.46 110.467 224.027 109.4C224.593 108.333 225.385 107.517 226.402 106.95C227.435 106.367 228.618 106.075 229.952 106.075C231.252 106.075 232.402 106.358 233.402 106.925C234.402 107.492 235.168 108.275 235.702 109.275C236.252 110.258 236.527 111.375 236.527 112.625ZM234.177 112.15C234.177 111.283 233.985 110.542 233.602 109.925C233.218 109.292 232.693 108.817 232.027 108.5C231.377 108.167 230.652 108 229.852 108C228.702 108 227.718 108.367 226.902 109.1C226.102 109.833 225.643 110.85 225.527 112.15H234.177ZM251.045 120.225C249.995 120.225 249.053 120.05 248.22 119.7C247.386 119.333 246.728 118.833 246.245 118.2C245.761 117.55 245.495 116.808 245.445 115.975H247.795C247.861 116.658 248.178 117.217 248.745 117.65C249.328 118.083 250.086 118.3 251.02 118.3C251.886 118.3 252.57 118.108 253.07 117.725C253.57 117.342 253.82 116.858 253.82 116.275C253.82 115.675 253.553 115.233 253.02 114.95C252.486 114.65 251.661 114.358 250.545 114.075C249.528 113.808 248.695 113.542 248.045 113.275C247.411 112.992 246.861 112.583 246.395 112.05C245.945 111.5 245.72 110.783 245.72 109.9C245.72 109.2 245.928 108.558 246.345 107.975C246.761 107.392 247.353 106.933 248.12 106.6C248.886 106.25 249.761 106.075 250.745 106.075C252.261 106.075 253.486 106.458 254.42 107.225C255.353 107.992 255.853 109.042 255.92 110.375H253.645C253.595 109.658 253.303 109.083 252.77 108.65C252.253 108.217 251.553 108 250.67 108C249.853 108 249.203 108.175 248.72 108.525C248.236 108.875 247.995 109.333 247.995 109.9C247.995 110.35 248.136 110.725 248.42 111.025C248.72 111.308 249.086 111.542 249.52 111.725C249.97 111.892 250.586 112.083 251.37 112.3C252.353 112.567 253.153 112.833 253.77 113.1C254.386 113.35 254.911 113.733 255.345 114.25C255.795 114.767 256.028 115.442 256.045 116.275C256.045 117.025 255.836 117.7 255.42 118.3C255.003 118.9 254.411 119.375 253.645 119.725C252.895 120.058 252.028 120.225 251.045 120.225ZM271.406 106.3V120H269.131V117.975C268.698 118.675 268.089 119.225 267.306 119.625C266.539 120.008 265.689 120.2 264.756 120.2C263.689 120.2 262.731 119.983 261.881 119.55C261.031 119.1 260.356 118.433 259.856 117.55C259.373 116.667 259.131 115.592 259.131 114.325V106.3H261.381V114.025C261.381 115.375 261.723 116.417 262.406 117.15C263.089 117.867 264.023 118.225 265.206 118.225C266.423 118.225 267.381 117.85 268.081 117.1C268.781 116.35 269.131 115.258 269.131 113.825V106.3H271.406ZM274.397 113.125C274.397 111.708 274.681 110.475 275.247 109.425C275.814 108.358 276.597 107.533 277.597 106.95C278.614 106.367 279.772 106.075 281.072 106.075C282.756 106.075 284.139 106.483 285.222 107.3C286.322 108.117 287.047 109.25 287.397 110.7H284.947C284.714 109.867 284.256 109.208 283.572 108.725C282.906 108.242 282.072 108 281.072 108C279.772 108 278.722 108.45 277.922 109.35C277.122 110.233 276.722 111.492 276.722 113.125C276.722 114.775 277.122 116.05 277.922 116.95C278.722 117.85 279.772 118.3 281.072 118.3C282.072 118.3 282.906 118.067 283.572 117.6C284.239 117.133 284.697 116.467 284.947 115.6H287.397C287.031 117 286.297 118.125 285.197 118.975C284.097 119.808 282.722 120.225 281.072 120.225C279.772 120.225 278.614 119.933 277.597 119.35C276.597 118.767 275.814 117.942 275.247 116.875C274.681 115.808 274.397 114.558 274.397 113.125ZM289.583 113.125C289.583 111.708 289.866 110.475 290.433 109.425C290.999 108.358 291.783 107.533 292.783 106.95C293.799 106.367 294.958 106.075 296.258 106.075C297.941 106.075 299.324 106.483 300.408 107.3C301.508 108.117 302.233 109.25 302.583 110.7H300.133C299.899 109.867 299.441 109.208 298.758 108.725C298.091 108.242 297.258 108 296.258 108C294.958 108 293.908 108.45 293.108 109.35C292.308 110.233 291.908 111.492 291.908 113.125C291.908 114.775 292.308 116.05 293.108 116.95C293.908 117.85 294.958 118.3 296.258 118.3C297.258 118.3 298.091 118.067 298.758 117.6C299.424 117.133 299.883 116.467 300.133 115.6H302.583C302.216 117 301.483 118.125 300.383 118.975C299.283 119.808 297.908 120.225 296.258 120.225C294.958 120.225 293.799 119.933 292.783 119.35C291.783 118.767 290.999 117.942 290.433 116.875C289.866 115.808 289.583 114.558 289.583 113.125ZM318.118 112.625C318.118 113.058 318.093 113.517 318.043 114H307.093C307.177 115.35 307.635 116.408 308.468 117.175C309.318 117.925 310.343 118.3 311.543 118.3C312.527 118.3 313.343 118.075 313.993 117.625C314.66 117.158 315.127 116.542 315.393 115.775H317.843C317.477 117.092 316.743 118.167 315.643 119C314.543 119.817 313.177 120.225 311.543 120.225C310.243 120.225 309.077 119.933 308.043 119.35C307.027 118.767 306.227 117.942 305.643 116.875C305.06 115.792 304.768 114.542 304.768 113.125C304.768 111.708 305.052 110.467 305.618 109.4C306.185 108.333 306.977 107.517 307.993 106.95C309.027 106.367 310.21 106.075 311.543 106.075C312.843 106.075 313.993 106.358 314.993 106.925C315.993 107.492 316.76 108.275 317.293 109.275C317.843 110.258 318.118 111.375 318.118 112.625ZM315.768 112.15C315.768 111.283 315.577 110.542 315.193 109.925C314.81 109.292 314.285 108.817 313.618 108.5C312.968 108.167 312.243 108 311.443 108C310.293 108 309.31 108.367 308.493 109.1C307.693 109.833 307.235 110.85 307.118 112.15H315.768ZM325.971 120.225C324.921 120.225 323.98 120.05 323.146 119.7C322.313 119.333 321.655 118.833 321.171 118.2C320.688 117.55 320.421 116.808 320.371 115.975H322.721C322.788 116.658 323.105 117.217 323.671 117.65C324.255 118.083 325.013 118.3 325.946 118.3C326.813 118.3 327.496 118.108 327.996 117.725C328.496 117.342 328.746 116.858 328.746 116.275C328.746 115.675 328.48 115.233 327.946 114.95C327.413 114.65 326.588 114.358 325.471 114.075C324.455 113.808 323.621 113.542 322.971 113.275C322.338 112.992 321.788 112.583 321.321 112.05C320.871 111.5 320.646 110.783 320.646 109.9C320.646 109.2 320.855 108.558 321.271 107.975C321.688 107.392 322.28 106.933 323.046 106.6C323.813 106.25 324.688 106.075 325.671 106.075C327.188 106.075 328.413 106.458 329.346 107.225C330.28 107.992 330.78 109.042 330.846 110.375H328.571C328.521 109.658 328.23 109.083 327.696 108.65C327.18 108.217 326.48 108 325.596 108C324.78 108 324.13 108.175 323.646 108.525C323.163 108.875 322.921 109.333 322.921 109.9C322.921 110.35 323.063 110.725 323.346 111.025C323.646 111.308 324.013 111.542 324.446 111.725C324.896 111.892 325.513 112.083 326.296 112.3C327.28 112.567 328.08 112.833 328.696 113.1C329.313 113.35 329.838 113.733 330.271 114.25C330.721 114.767 330.955 115.442 330.971 116.275C330.971 117.025 330.763 117.7 330.346 118.3C329.93 118.9 329.338 119.375 328.571 119.725C327.821 120.058 326.955 120.225 325.971 120.225ZM339.033 120.225C337.983 120.225 337.041 120.05 336.208 119.7C335.374 119.333 334.716 118.833 334.233 118.2C333.749 117.55 333.483 116.808 333.433 115.975H335.783C335.849 116.658 336.166 117.217 336.733 117.65C337.316 118.083 338.074 118.3 339.008 118.3C339.874 118.3 340.558 118.108 341.058 117.725C341.558 117.342 341.808 116.858 341.808 116.275C341.808 115.675 341.541 115.233 341.008 114.95C340.474 114.65 339.649 114.358 338.533 114.075C337.516 113.808 336.683 113.542 336.033 113.275C335.399 112.992 334.849 112.583 334.383 112.05C333.933 111.5 333.708 110.783 333.708 109.9C333.708 109.2 333.916 108.558 334.333 107.975C334.749 107.392 335.341 106.933 336.108 106.6C336.874 106.25 337.749 106.075 338.733 106.075C340.249 106.075 341.474 106.458 342.408 107.225C343.341 107.992 343.841 109.042 343.908 110.375H341.633C341.583 109.658 341.291 109.083 340.758 108.65C340.241 108.217 339.541 108 338.658 108C337.841 108 337.191 108.175 336.708 108.525C336.224 108.875 335.983 109.333 335.983 109.9C335.983 110.35 336.124 110.725 336.408 111.025C336.708 111.308 337.074 111.542 337.508 111.725C337.958 111.892 338.574 112.083 339.358 112.3C340.341 112.567 341.141 112.833 341.758 113.1C342.374 113.35 342.899 113.733 343.333 114.25C343.783 114.767 344.016 115.442 344.033 116.275C344.033 117.025 343.824 117.7 343.408 118.3C342.991 118.9 342.399 119.375 341.633 119.725C340.883 120.058 340.016 120.225 339.033 120.225ZM352.819 108.175H349.944V120H347.669V108.175H345.894V106.3H347.669V105.325C347.669 103.792 348.061 102.675 348.844 101.975C349.644 101.258 350.919 100.9 352.669 100.9V102.8C351.669 102.8 350.961 103 350.544 103.4C350.144 103.783 349.944 104.425 349.944 105.325V106.3H352.819V108.175ZM367.622 106.3V120H365.347V117.975C364.914 118.675 364.305 119.225 363.522 119.625C362.755 120.008 361.905 120.2 360.972 120.2C359.905 120.2 358.947 119.983 358.097 119.55C357.247 119.1 356.572 118.433 356.072 117.55C355.589 116.667 355.347 115.592 355.347 114.325V106.3H357.597V114.025C357.597 115.375 357.939 116.417 358.622 117.15C359.305 117.867 360.239 118.225 361.422 118.225C362.639 118.225 363.597 117.85 364.297 117.1C364.997 116.35 365.347 115.258 365.347 113.825V106.3H367.622ZM373.738 101.5V120H371.463V101.5H373.738ZM379.89 101.5V120H377.615V101.5H379.89ZM395.568 106.3L387.318 126.45H384.968L387.668 119.85L382.143 106.3H384.668L388.968 117.4L393.218 106.3H395.568ZM403.67 113.125C403.67 111.708 403.953 110.475 404.52 109.425C405.086 108.358 405.87 107.533 406.87 106.95C407.886 106.367 409.045 106.075 410.345 106.075C412.028 106.075 413.411 106.483 414.495 107.3C415.595 108.117 416.32 109.25 416.67 110.7H414.22C413.986 109.867 413.528 109.208 412.845 108.725C412.178 108.242 411.345 108 410.345 108C409.045 108 407.995 108.45 407.195 109.35C406.395 110.233 405.995 111.492 405.995 113.125C405.995 114.775 406.395 116.05 407.195 116.95C407.995 117.85 409.045 118.3 410.345 118.3C411.345 118.3 412.178 118.067 412.845 117.6C413.511 117.133 413.97 116.467 414.22 115.6H416.67C416.303 117 415.57 118.125 414.47 118.975C413.37 119.808 411.995 120.225 410.345 120.225C409.045 120.225 407.886 119.933 406.87 119.35C405.87 118.767 405.086 117.942 404.52 116.875C403.953 115.808 403.67 114.558 403.67 113.125ZM425.68 120.225C424.397 120.225 423.23 119.933 422.18 119.35C421.147 118.767 420.33 117.942 419.73 116.875C419.147 115.792 418.855 114.542 418.855 113.125C418.855 111.725 419.155 110.492 419.755 109.425C420.372 108.342 421.205 107.517 422.255 106.95C423.305 106.367 424.48 106.075 425.78 106.075C427.08 106.075 428.255 106.367 429.305 106.95C430.355 107.517 431.18 108.333 431.78 109.4C432.397 110.467 432.705 111.708 432.705 113.125C432.705 114.542 432.389 115.792 431.755 116.875C431.139 117.942 430.297 118.767 429.23 119.35C428.164 119.933 426.98 120.225 425.68 120.225ZM425.68 118.225C426.497 118.225 427.264 118.033 427.98 117.65C428.697 117.267 429.272 116.692 429.705 115.925C430.155 115.158 430.38 114.225 430.38 113.125C430.38 112.025 430.164 111.092 429.73 110.325C429.297 109.558 428.73 108.992 428.03 108.625C427.33 108.242 426.572 108.05 425.755 108.05C424.922 108.05 424.155 108.242 423.455 108.625C422.772 108.992 422.222 109.558 421.805 110.325C421.389 111.092 421.18 112.025 421.18 113.125C421.18 114.242 421.38 115.183 421.78 115.95C422.197 116.717 422.747 117.292 423.43 117.675C424.114 118.042 424.864 118.225 425.68 118.225ZM452.171 106.05C453.238 106.05 454.188 106.275 455.021 106.725C455.855 107.158 456.513 107.817 456.996 108.7C457.48 109.583 457.721 110.658 457.721 111.925V120H455.471V112.25C455.471 110.883 455.13 109.842 454.446 109.125C453.78 108.392 452.871 108.025 451.721 108.025C450.538 108.025 449.596 108.408 448.896 109.175C448.196 109.925 447.846 111.017 447.846 112.45V120H445.596V112.25C445.596 110.883 445.255 109.842 444.571 109.125C443.905 108.392 442.996 108.025 441.846 108.025C440.663 108.025 439.721 108.408 439.021 109.175C438.321 109.925 437.971 111.017 437.971 112.45V120H435.696V106.3H437.971V108.275C438.421 107.558 439.021 107.008 439.771 106.625C440.538 106.242 441.38 106.05 442.296 106.05C443.446 106.05 444.463 106.308 445.346 106.825C446.23 107.342 446.888 108.1 447.321 109.1C447.705 108.133 448.338 107.383 449.221 106.85C450.105 106.317 451.088 106.05 452.171 106.05ZM463.728 108.825C464.178 108.042 464.845 107.392 465.728 106.875C466.628 106.342 467.67 106.075 468.853 106.075C470.07 106.075 471.17 106.367 472.153 106.95C473.153 107.533 473.937 108.358 474.503 109.425C475.07 110.475 475.353 111.7 475.353 113.1C475.353 114.483 475.07 115.717 474.503 116.8C473.937 117.883 473.153 118.725 472.153 119.325C471.17 119.925 470.07 120.225 468.853 120.225C467.687 120.225 466.653 119.967 465.753 119.45C464.87 118.917 464.195 118.258 463.728 117.475V126.5H461.453V106.3H463.728V108.825ZM473.028 113.1C473.028 112.067 472.82 111.167 472.403 110.4C471.987 109.633 471.42 109.05 470.703 108.65C470.003 108.25 469.228 108.05 468.378 108.05C467.545 108.05 466.77 108.258 466.053 108.675C465.353 109.075 464.787 109.667 464.353 110.45C463.937 111.217 463.728 112.108 463.728 113.125C463.728 114.158 463.937 115.067 464.353 115.85C464.787 116.617 465.353 117.208 466.053 117.625C466.77 118.025 467.545 118.225 468.378 118.225C469.228 118.225 470.003 118.025 470.703 117.625C471.42 117.208 471.987 116.617 472.403 115.85C472.82 115.067 473.028 114.15 473.028 113.1ZM480.623 101.5V120H478.348V101.5H480.623ZM497 112.625C497 113.058 496.975 113.517 496.925 114H485.975C486.059 115.35 486.517 116.408 487.35 117.175C488.2 117.925 489.225 118.3 490.425 118.3C491.409 118.3 492.225 118.075 492.875 117.625C493.542 117.158 494.009 116.542 494.275 115.775H496.725C496.359 117.092 495.625 118.167 494.525 119C493.425 119.817 492.059 120.225 490.425 120.225C489.125 120.225 487.959 119.933 486.925 119.35C485.909 118.767 485.109 117.942 484.525 116.875C483.942 115.792 483.65 114.542 483.65 113.125C483.65 111.708 483.934 110.467 484.5 109.4C485.067 108.333 485.859 107.517 486.875 106.95C487.909 106.367 489.092 106.075 490.425 106.075C491.725 106.075 492.875 106.358 493.875 106.925C494.875 107.492 495.642 108.275 496.175 109.275C496.725 110.258 497 111.375 497 112.625ZM494.65 112.15C494.65 111.283 494.459 110.542 494.075 109.925C493.692 109.292 493.167 108.817 492.5 108.5C491.85 108.167 491.125 108 490.325 108C489.175 108 488.192 108.367 487.375 109.1C486.575 109.833 486.117 110.85 486 112.15H494.65ZM502.778 108.175V116.25C502.778 116.917 502.92 117.392 503.203 117.675C503.486 117.942 503.978 118.075 504.678 118.075H506.353V120H504.303C503.036 120 502.086 119.708 501.453 119.125C500.82 118.542 500.503 117.583 500.503 116.25V108.175H498.728V106.3H500.503V102.85H502.778V106.3H506.353V108.175H502.778ZM521.61 112.625C521.61 113.058 521.585 113.517 521.535 114H510.585C510.668 115.35 511.126 116.408 511.96 117.175C512.81 117.925 513.835 118.3 515.035 118.3C516.018 118.3 516.835 118.075 517.485 117.625C518.151 117.158 518.618 116.542 518.885 115.775H521.335C520.968 117.092 520.235 118.167 519.135 119C518.035 119.817 516.668 120.225 515.035 120.225C513.735 120.225 512.568 119.933 511.535 119.35C510.518 118.767 509.718 117.942 509.135 116.875C508.551 115.792 508.26 114.542 508.26 113.125C508.26 111.708 508.543 110.467 509.11 109.4C509.676 108.333 510.468 107.517 511.485 106.95C512.518 106.367 513.701 106.075 515.035 106.075C516.335 106.075 517.485 106.358 518.485 106.925C519.485 107.492 520.251 108.275 520.785 109.275C521.335 110.258 521.61 111.375 521.61 112.625ZM519.26 112.15C519.26 111.283 519.068 110.542 518.685 109.925C518.301 109.292 517.776 108.817 517.11 108.5C516.46 108.167 515.735 108 514.935 108C513.785 108 512.801 108.367 511.985 109.1C511.185 109.833 510.726 110.85 510.61 112.15H519.26ZM523.763 113.1C523.763 111.7 524.046 110.475 524.613 109.425C525.179 108.358 525.954 107.533 526.938 106.95C527.938 106.367 529.054 106.075 530.288 106.075C531.354 106.075 532.346 106.325 533.263 106.825C534.179 107.308 534.879 107.95 535.363 108.75V101.5H537.663V120H535.363V117.425C534.913 118.242 534.246 118.917 533.363 119.45C532.479 119.967 531.446 120.225 530.263 120.225C529.046 120.225 527.938 119.925 526.938 119.325C525.954 118.725 525.179 117.883 524.613 116.8C524.046 115.717 523.763 114.483 523.763 113.1ZM535.363 113.125C535.363 112.092 535.154 111.192 534.738 110.425C534.321 109.658 533.754 109.075 533.038 108.675C532.338 108.258 531.563 108.05 530.713 108.05C529.863 108.05 529.088 108.25 528.388 108.65C527.688 109.05 527.129 109.633 526.713 110.4C526.296 111.167 526.088 112.067 526.088 113.1C526.088 114.15 526.296 115.067 526.713 115.85C527.129 116.617 527.688 117.208 528.388 117.625C529.088 118.025 529.863 118.225 530.713 118.225C531.563 118.225 532.338 118.025 533.038 117.625C533.754 117.208 534.321 116.617 534.738 115.85C535.154 115.067 535.363 114.158 535.363 113.125ZM548.897 120.15C548.464 120.15 548.097 120 547.797 119.7C547.497 119.4 547.347 119.033 547.347 118.6C547.347 118.167 547.497 117.8 547.797 117.5C548.097 117.2 548.464 117.05 548.897 117.05C549.314 117.05 549.664 117.2 549.947 117.5C550.247 117.8 550.397 118.167 550.397 118.6C550.397 119.033 550.247 119.4 549.947 119.7C549.664 120 549.314 120.15 548.897 120.15Z" fill="white"/>
</svg>
