<svg width="641" height="112" viewBox="0 0 641 112" fill="none" xmlns="http://www.w3.org/2000/svg">
<g clip-path="url(#clip0_725_184)" filter="url(#filter0_d_725_184)">
<rect width="633" height="104" transform="translate(4)" fill="black"/>
<path d="M21.864 23.671V29.03H27.706V30.755H21.864V36.275H28.396V38H19.771V21.946H28.396V23.671H21.864ZM38.141 38L35.151 33.308L32.276 38H30.091L34.162 31.744L30.091 25.396H32.46L35.45 30.065L38.302 25.396H40.487L36.439 31.629L40.51 38H38.141ZM41.7869 31.675C41.7869 30.3717 42.0475 29.237 42.5689 28.271C43.0902 27.2897 43.8109 26.5307 44.7309 25.994C45.6662 25.4573 46.7319 25.189 47.9279 25.189C49.4765 25.189 50.7492 25.5647 51.7459 26.316C52.7579 27.0673 53.4249 28.11 53.7469 29.444H51.4929C51.2782 28.6773 50.8565 28.0717 50.2279 27.627C49.6145 27.1823 48.8479 26.96 47.9279 26.96C46.7319 26.96 45.7659 27.374 45.0299 28.202C44.2939 29.0147 43.9259 30.1723 43.9259 31.675C43.9259 33.193 44.2939 34.366 45.0299 35.194C45.7659 36.022 46.7319 36.436 47.9279 36.436C48.8479 36.436 49.6145 36.2213 50.2279 35.792C50.8412 35.3627 51.2629 34.7493 51.4929 33.952H53.7469C53.4095 35.24 52.7349 36.275 51.7229 37.057C50.7109 37.8237 49.4459 38.207 47.9279 38.207C46.7319 38.207 45.6662 37.9387 44.7309 37.402C43.8109 36.8653 43.0902 36.1063 42.5689 35.125C42.0475 34.1437 41.7869 32.9937 41.7869 31.675ZM68.0396 31.215C68.0396 31.6137 68.0166 32.0353 67.9706 32.48H57.8966C57.9732 33.722 58.3949 34.6957 59.1616 35.401C59.9436 36.091 60.8866 36.436 61.9906 36.436C62.8952 36.436 63.6466 36.229 64.2446 35.815C64.8579 35.3857 65.2872 34.8183 65.5326 34.113H67.7866C67.4492 35.3243 66.7746 36.3133 65.7626 37.08C64.7506 37.8313 63.4932 38.207 61.9906 38.207C60.7946 38.207 59.7212 37.9387 58.7706 37.402C57.8352 36.8653 57.0992 36.1063 56.5626 35.125C56.0259 34.1283 55.7576 32.9783 55.7576 31.675C55.7576 30.3717 56.0182 29.2293 56.5396 28.248C57.0609 27.2667 57.7892 26.5153 58.7246 25.994C59.6752 25.4573 60.7639 25.189 61.9906 25.189C63.1866 25.189 64.2446 25.4497 65.1646 25.971C66.0846 26.4923 66.7899 27.213 67.2806 28.133C67.7866 29.0377 68.0396 30.065 68.0396 31.215ZM65.8776 30.778C65.8776 29.9807 65.7012 29.2983 65.3486 28.731C64.9959 28.1483 64.5129 27.7113 63.8996 27.42C63.3016 27.1133 62.6346 26.96 61.8986 26.96C60.8406 26.96 59.9359 27.2973 59.1846 27.972C58.4486 28.6467 58.0269 29.582 57.9196 30.778H65.8776ZM72.8953 20.98V38H70.8023V20.98H72.8953ZM78.5554 20.98V38H76.4624V20.98H78.5554ZM93.6226 31.215C93.6226 31.6137 93.5996 32.0353 93.5536 32.48H83.4796C83.5562 33.722 83.9779 34.6957 84.7446 35.401C85.5266 36.091 86.4696 36.436 87.5736 36.436C88.4782 36.436 89.2296 36.229 89.8276 35.815C90.4409 35.3857 90.8702 34.8183 91.1156 34.113H93.3696C93.0322 35.3243 92.3576 36.3133 91.3456 37.08C90.3336 37.8313 89.0762 38.207 87.5736 38.207C86.3776 38.207 85.3042 37.9387 84.3536 37.402C83.4182 36.8653 82.6822 36.1063 82.1456 35.125C81.6089 34.1283 81.3406 32.9783 81.3406 31.675C81.3406 30.3717 81.6012 29.2293 82.1226 28.248C82.6439 27.2667 83.3722 26.5153 84.3076 25.994C85.2582 25.4573 86.3469 25.189 87.5736 25.189C88.7696 25.189 89.8276 25.4497 90.7476 25.971C91.6676 26.4923 92.3729 27.213 92.8636 28.133C93.3696 29.0377 93.6226 30.065 93.6226 31.215ZM91.4606 30.778C91.4606 29.9807 91.2842 29.2983 90.9316 28.731C90.5789 28.1483 90.0959 27.7113 89.4826 27.42C88.8846 27.1133 88.2176 26.96 87.4816 26.96C86.4236 26.96 85.5189 27.2973 84.7676 27.972C84.0316 28.6467 83.6099 29.582 83.5026 30.778H91.4606ZM102.526 25.166C104.06 25.166 105.302 25.6337 106.252 26.569C107.203 27.489 107.678 28.823 107.678 30.571V38H105.608V30.87C105.608 29.6127 105.294 28.6543 104.665 27.995C104.037 27.3203 103.178 26.983 102.089 26.983C100.985 26.983 100.104 27.328 99.4443 28.018C98.8003 28.708 98.4783 29.7123 98.4783 31.031V38H96.3853V25.396H98.4783V27.19C98.8923 26.546 99.4519 26.0477 100.157 25.695C100.878 25.3423 101.668 25.166 102.526 25.166ZM113.65 27.121V34.55C113.65 35.1633 113.781 35.6003 114.041 35.861C114.302 36.1063 114.754 36.229 115.398 36.229H116.939V38H115.053C113.888 38 113.014 37.7317 112.431 37.195C111.849 36.6583 111.557 35.7767 111.557 34.55V27.121H109.924V25.396H111.557V22.222H113.65V25.396H116.939V27.121H113.65ZM30.903 61.776C30.903 62.5887 30.7113 63.3553 30.328 64.076C29.9447 64.7967 29.3313 65.387 28.488 65.847C27.6447 66.2917 26.5637 66.514 25.245 66.514H22.347V73H19.725V57.015H25.245C26.4717 57.015 27.5067 57.2297 28.35 57.659C29.2087 58.073 29.845 58.6403 30.259 59.361C30.6883 60.0817 30.903 60.8867 30.903 61.776ZM25.245 64.375C26.2417 64.375 26.9853 64.1527 27.476 63.708C27.9667 63.248 28.212 62.604 28.212 61.776C28.212 60.028 27.223 59.154 25.245 59.154H22.347V64.375H25.245ZM36.0257 70.884H41.4307V73H33.4037V57.015H36.0257V70.884ZM52.1334 51.288L45.8774 77.025H43.3014L49.5344 51.288H52.1334ZM60.7049 73.161C59.6316 73.161 58.6656 72.977 57.8069 72.609C56.9482 72.2257 56.2736 71.689 55.7829 70.999C55.2922 70.309 55.0469 69.504 55.0469 68.584H57.8529C57.9142 69.274 58.1826 69.8413 58.6579 70.286C59.1486 70.7307 59.8309 70.953 60.7049 70.953C61.6096 70.953 62.3149 70.7383 62.8209 70.309C63.3269 69.8643 63.5799 69.297 63.5799 68.607C63.5799 68.0703 63.4189 67.6333 63.0969 67.296C62.7902 66.9587 62.3992 66.698 61.9239 66.514C61.4639 66.33 60.8199 66.1307 59.9919 65.916C58.9492 65.64 58.0982 65.364 57.4389 65.088C56.7949 64.7967 56.2429 64.352 55.7829 63.754C55.3229 63.156 55.0929 62.3587 55.0929 61.362C55.0929 60.442 55.3229 59.637 55.7829 58.947C56.2429 58.257 56.8869 57.728 57.7149 57.36C58.5429 56.992 59.5012 56.808 60.5899 56.808C62.1386 56.808 63.4036 57.199 64.3849 57.981C65.3816 58.7477 65.9336 59.8057 66.0409 61.155H63.1429C63.0969 60.5723 62.8209 60.074 62.3149 59.66C61.8089 59.246 61.1419 59.039 60.3139 59.039C59.5626 59.039 58.9492 59.2307 58.4739 59.614C57.9986 59.9973 57.7609 60.5493 57.7609 61.27C57.7609 61.7607 57.9066 62.167 58.1979 62.489C58.5046 62.7957 58.8879 63.041 59.3479 63.225C59.8079 63.409 60.4366 63.6083 61.2339 63.823C62.2919 64.1143 63.1506 64.4057 63.8099 64.697C64.4846 64.9883 65.0519 65.4407 65.5119 66.054C65.9872 66.652 66.2249 67.457 66.2249 68.469C66.2249 69.2817 66.0026 70.0483 65.5579 70.769C65.1286 71.4897 64.4922 72.0723 63.6489 72.517C62.8209 72.9463 61.8396 73.161 60.7049 73.161ZM81.6928 75.898L78.8868 72.862C78.1968 73.0613 77.4378 73.161 76.6098 73.161C75.1224 73.161 73.7501 72.816 72.4928 72.126C71.2508 71.4207 70.2618 70.447 69.5258 69.205C68.8051 67.9477 68.4448 66.537 68.4448 64.973C68.4448 63.409 68.8051 62.006 69.5258 60.764C70.2618 59.522 71.2508 58.556 72.4928 57.866C73.7501 57.1607 75.1224 56.808 76.6098 56.808C78.1124 56.808 79.4848 57.1607 80.7268 57.866C81.9841 58.556 82.9731 59.522 83.6938 60.764C84.4144 62.006 84.7748 63.409 84.7748 64.973C84.7748 66.445 84.4528 67.779 83.8088 68.975C83.1801 70.1557 82.3061 71.1063 81.1868 71.827L85.0278 75.898H81.6928ZM71.1358 64.973C71.1358 66.1537 71.3658 67.1963 71.8258 68.101C72.3011 68.9903 72.9528 69.6803 73.7808 70.171C74.6088 70.6463 75.5518 70.884 76.6098 70.884C77.6678 70.884 78.6108 70.6463 79.4388 70.171C80.2668 69.6803 80.9108 68.9903 81.3708 68.101C81.8461 67.1963 82.0838 66.1537 82.0838 64.973C82.0838 63.7923 81.8461 62.7573 81.3708 61.868C80.9108 60.9787 80.2668 60.2963 79.4388 59.821C78.6108 59.3457 77.6678 59.108 76.6098 59.108C75.5518 59.108 74.6088 59.3457 73.7808 59.821C72.9528 60.2963 72.3011 60.9787 71.8258 61.868C71.3658 62.7573 71.1358 63.7923 71.1358 64.973ZM90.0443 70.884H95.4493V73H87.4223V57.015H90.0443V70.884ZM106.239 62.19C106.683 61.6073 107.289 61.1167 108.056 60.718C108.822 60.3193 109.689 60.12 110.655 60.12C111.759 60.12 112.763 60.396 113.668 60.948C114.588 61.4847 115.308 62.2437 115.83 63.225C116.351 64.2063 116.612 65.3333 116.612 66.606C116.612 67.8787 116.351 69.021 115.83 70.033C115.308 71.0297 114.588 71.8117 113.668 72.379C112.763 72.931 111.759 73.207 110.655 73.207C109.689 73.207 108.83 73.0153 108.079 72.632C107.327 72.2333 106.714 71.7427 106.239 71.16V79.026H103.617V60.327H106.239V62.19ZM113.944 66.606C113.944 65.732 113.76 64.9807 113.392 64.352C113.039 63.708 112.564 63.225 111.966 62.903C111.383 62.5657 110.754 62.397 110.08 62.397C109.42 62.397 108.792 62.5657 108.194 62.903C107.611 63.2403 107.136 63.731 106.768 64.375C106.415 65.019 106.239 65.778 106.239 66.652C106.239 67.526 106.415 68.2927 106.768 68.952C107.136 69.596 107.611 70.0867 108.194 70.424C108.792 70.7613 109.42 70.93 110.08 70.93C110.754 70.93 111.383 70.7613 111.966 70.424C112.564 70.0713 113.039 69.5653 113.392 68.906C113.76 68.2467 113.944 67.48 113.944 66.606ZM121.826 62.167C122.21 61.523 122.716 61.0247 123.344 60.672C123.988 60.304 124.747 60.12 125.621 60.12V62.834H124.954C123.927 62.834 123.145 63.0947 122.608 63.616C122.087 64.1373 121.826 65.042 121.826 66.33V73H119.204V60.327H121.826V62.167ZM133.529 73.207C132.333 73.207 131.252 72.9387 130.286 72.402C129.32 71.85 128.561 71.0833 128.009 70.102C127.457 69.1053 127.181 67.9553 127.181 66.652C127.181 65.364 127.464 64.2217 128.032 63.225C128.599 62.2283 129.373 61.4617 130.355 60.925C131.336 60.3883 132.432 60.12 133.644 60.12C134.855 60.12 135.951 60.3883 136.933 60.925C137.914 61.4617 138.688 62.2283 139.256 63.225C139.823 64.2217 140.107 65.364 140.107 66.652C140.107 67.94 139.815 69.0823 139.233 70.079C138.65 71.0757 137.853 71.85 136.841 72.402C135.844 72.9387 134.74 73.207 133.529 73.207ZM133.529 70.93C134.203 70.93 134.832 70.769 135.415 70.447C136.013 70.125 136.496 69.642 136.864 68.998C137.232 68.354 137.416 67.572 137.416 66.652C137.416 65.732 137.239 64.9577 136.887 64.329C136.534 63.685 136.066 63.202 135.484 62.88C134.901 62.558 134.272 62.397 133.598 62.397C132.923 62.397 132.294 62.558 131.712 62.88C131.144 63.202 130.692 63.685 130.355 64.329C130.017 64.9577 129.849 65.732 129.849 66.652C129.849 68.0167 130.194 69.0747 130.884 69.826C131.589 70.562 132.471 70.93 133.529 70.93ZM141.825 66.652C141.825 65.3487 142.085 64.2063 142.607 63.225C143.143 62.2283 143.879 61.4617 144.815 60.925C145.75 60.3883 146.823 60.12 148.035 60.12C149.568 60.12 150.833 60.488 151.83 61.224C152.842 61.9447 153.524 62.9797 153.877 64.329H151.048C150.818 63.7003 150.45 63.2097 149.944 62.857C149.438 62.5043 148.801 62.328 148.035 62.328C146.961 62.328 146.103 62.7113 145.459 63.478C144.83 64.2293 144.516 65.2873 144.516 66.652C144.516 68.0167 144.83 69.0823 145.459 69.849C146.103 70.6157 146.961 70.999 148.035 70.999C149.553 70.999 150.557 70.332 151.048 68.998H153.877C153.509 70.286 152.819 71.3133 151.807 72.08C150.795 72.8313 149.537 73.207 148.035 73.207C146.823 73.207 145.75 72.9387 144.815 72.402C143.879 71.85 143.143 71.0833 142.607 70.102C142.085 69.1053 141.825 67.9553 141.825 66.652ZM168.105 66.353C168.105 66.8283 168.074 67.2577 168.013 67.641H158.33C158.406 68.653 158.782 69.4657 159.457 70.079C160.131 70.6923 160.959 70.999 161.941 70.999C163.351 70.999 164.348 70.4087 164.931 69.228H167.76C167.376 70.3933 166.679 71.3517 165.667 72.103C164.67 72.839 163.428 73.207 161.941 73.207C160.729 73.207 159.641 72.9387 158.675 72.402C157.724 71.85 156.973 71.0833 156.421 70.102C155.884 69.1053 155.616 67.9553 155.616 66.652C155.616 65.3487 155.876 64.2063 156.398 63.225C156.934 62.2283 157.678 61.4617 158.629 60.925C159.595 60.3883 160.699 60.12 161.941 60.12C163.137 60.12 164.202 60.3807 165.138 60.902C166.073 61.4233 166.801 62.1593 167.323 63.11C167.844 64.0453 168.105 65.1263 168.105 66.353ZM165.368 65.525C165.352 64.559 165.007 63.7847 164.333 63.202C163.658 62.6193 162.822 62.328 161.826 62.328C160.921 62.328 160.147 62.6193 159.503 63.202C158.859 63.7693 158.475 64.5437 158.353 65.525H165.368ZM169.811 66.606C169.811 65.3333 170.072 64.2063 170.593 63.225C171.13 62.2437 171.85 61.4847 172.755 60.948C173.675 60.396 174.695 60.12 175.814 60.12C176.642 60.12 177.455 60.304 178.252 60.672C179.065 61.0247 179.709 61.5 180.184 62.098V55.98H182.829V73H180.184V71.091C179.755 71.7043 179.157 72.2103 178.39 72.609C177.639 73.0077 176.772 73.207 175.791 73.207C174.687 73.207 173.675 72.931 172.755 72.379C171.85 71.8117 171.13 71.0297 170.593 70.033C170.072 69.021 169.811 67.8787 169.811 66.606ZM180.184 66.652C180.184 65.778 180 65.019 179.632 64.375C179.279 63.731 178.812 63.2403 178.229 62.903C177.646 62.5657 177.018 62.397 176.343 62.397C175.668 62.397 175.04 62.5657 174.457 62.903C173.874 63.225 173.399 63.708 173.031 64.352C172.678 64.9807 172.502 65.732 172.502 66.606C172.502 67.48 172.678 68.2467 173.031 68.906C173.399 69.5653 173.874 70.0713 174.457 70.424C175.055 70.7613 175.684 70.93 176.343 70.93C177.018 70.93 177.646 70.7613 178.229 70.424C178.812 70.0867 179.279 69.596 179.632 68.952C180 68.2927 180.184 67.526 180.184 66.652ZM197.75 60.327V73H195.128V71.505C194.714 72.0263 194.17 72.4403 193.495 72.747C192.836 73.0383 192.13 73.184 191.379 73.184C190.382 73.184 189.485 72.977 188.688 72.563C187.906 72.149 187.285 71.5357 186.825 70.723C186.38 69.9103 186.158 68.929 186.158 67.779V60.327H188.757V67.388C188.757 68.5227 189.041 69.3967 189.608 70.01C190.175 70.608 190.95 70.907 191.931 70.907C192.912 70.907 193.687 70.608 194.254 70.01C194.837 69.3967 195.128 68.5227 195.128 67.388V60.327H197.75ZM203.831 62.167C204.215 61.523 204.721 61.0247 205.349 60.672C205.993 60.304 206.752 60.12 207.626 60.12V62.834H206.959C205.932 62.834 205.15 63.0947 204.613 63.616C204.092 64.1373 203.831 65.042 203.831 66.33V73H201.209V60.327H203.831V62.167ZM221.652 66.353C221.652 66.8283 221.621 67.2577 221.56 67.641H211.877C211.953 68.653 212.329 69.4657 213.004 70.079C213.678 70.6923 214.506 70.999 215.488 70.999C216.898 70.999 217.895 70.4087 218.478 69.228H221.307C220.923 70.3933 220.226 71.3517 219.214 72.103C218.217 72.839 216.975 73.207 215.488 73.207C214.276 73.207 213.188 72.9387 212.222 72.402C211.271 71.85 210.52 71.0833 209.968 70.102C209.431 69.1053 209.163 67.9553 209.163 66.652C209.163 65.3487 209.423 64.2063 209.945 63.225C210.481 62.2283 211.225 61.4617 212.176 60.925C213.142 60.3883 214.246 60.12 215.488 60.12C216.684 60.12 217.749 60.3807 218.685 60.902C219.62 61.4233 220.348 62.1593 220.87 63.11C221.391 64.0453 221.652 65.1263 221.652 66.353ZM218.915 65.525C218.899 64.559 218.554 63.7847 217.88 63.202C217.205 62.6193 216.369 62.328 215.373 62.328C214.468 62.328 213.694 62.6193 213.05 63.202C212.406 63.7693 212.022 64.5437 211.9 65.525H218.915ZM234.806 73.207C233.81 73.207 232.913 73.0307 232.115 72.678C231.333 72.31 230.712 71.8193 230.252 71.206C229.792 70.5773 229.547 69.8797 229.516 69.113H232.23C232.276 69.6497 232.529 70.102 232.989 70.47C233.465 70.8227 234.055 70.999 234.76 70.999C235.496 70.999 236.064 70.861 236.462 70.585C236.876 70.2937 237.083 69.9257 237.083 69.481C237.083 69.0057 236.853 68.653 236.393 68.423C235.949 68.193 235.236 67.94 234.254 67.664C233.304 67.4033 232.529 67.1503 231.931 66.905C231.333 66.6597 230.812 66.284 230.367 65.778C229.938 65.272 229.723 64.605 229.723 63.777C229.723 63.1023 229.923 62.489 230.321 61.937C230.72 61.3697 231.287 60.925 232.023 60.603C232.775 60.281 233.633 60.12 234.599 60.12C236.041 60.12 237.198 60.488 238.072 61.224C238.962 61.9447 239.437 62.9337 239.498 64.191H236.876C236.83 63.6237 236.6 63.1713 236.186 62.834C235.772 62.4967 235.213 62.328 234.507 62.328C233.817 62.328 233.288 62.4583 232.92 62.719C232.552 62.9797 232.368 63.3247 232.368 63.754C232.368 64.0913 232.491 64.375 232.736 64.605C232.982 64.835 233.281 65.019 233.633 65.157C233.986 65.2797 234.507 65.4407 235.197 65.64C236.117 65.8853 236.869 66.1383 237.451 66.399C238.049 66.6443 238.563 67.0123 238.992 67.503C239.422 67.9937 239.644 68.6453 239.659 69.458C239.659 70.1787 239.46 70.8227 239.061 71.39C238.663 71.9573 238.095 72.402 237.359 72.724C236.639 73.046 235.788 73.207 234.806 73.207ZM253.97 60.327V73H251.348V71.505C250.934 72.0263 250.389 72.4403 249.715 72.747C249.055 73.0383 248.35 73.184 247.599 73.184C246.602 73.184 245.705 72.977 244.908 72.563C244.126 72.149 243.505 71.5357 243.045 70.723C242.6 69.9103 242.378 68.929 242.378 67.779V60.327H244.977V67.388C244.977 68.5227 245.26 69.3967 245.828 70.01C246.395 70.608 247.169 70.907 248.151 70.907C249.132 70.907 249.906 70.608 250.474 70.01C251.056 69.3967 251.348 68.5227 251.348 67.388V60.327H253.97ZM256.555 66.652C256.555 65.3487 256.816 64.2063 257.337 63.225C257.874 62.2283 258.61 61.4617 259.545 60.925C260.48 60.3883 261.554 60.12 262.765 60.12C264.298 60.12 265.563 60.488 266.56 61.224C267.572 61.9447 268.254 62.9797 268.607 64.329H265.778C265.548 63.7003 265.18 63.2097 264.674 62.857C264.168 62.5043 263.532 62.328 262.765 62.328C261.692 62.328 260.833 62.7113 260.189 63.478C259.56 64.2293 259.246 65.2873 259.246 66.652C259.246 68.0167 259.56 69.0823 260.189 69.849C260.833 70.6157 261.692 70.999 262.765 70.999C264.283 70.999 265.287 70.332 265.778 68.998H268.607C268.239 70.286 267.549 71.3133 266.537 72.08C265.525 72.8313 264.268 73.207 262.765 73.207C261.554 73.207 260.48 72.9387 259.545 72.402C258.61 71.85 257.874 71.0833 257.337 70.102C256.816 69.1053 256.555 67.9553 256.555 66.652ZM270.346 66.652C270.346 65.3487 270.607 64.2063 271.128 63.225C271.665 62.2283 272.401 61.4617 273.336 60.925C274.271 60.3883 275.345 60.12 276.556 60.12C278.089 60.12 279.354 60.488 280.351 61.224C281.363 61.9447 282.045 62.9797 282.398 64.329H279.569C279.339 63.7003 278.971 63.2097 278.465 62.857C277.959 62.5043 277.323 62.328 276.556 62.328C275.483 62.328 274.624 62.7113 273.98 63.478C273.351 64.2293 273.037 65.2873 273.037 66.652C273.037 68.0167 273.351 69.0823 273.98 69.849C274.624 70.6157 275.483 70.999 276.556 70.999C278.074 70.999 279.078 70.332 279.569 68.998H282.398C282.03 70.286 281.34 71.3133 280.328 72.08C279.316 72.8313 278.059 73.207 276.556 73.207C275.345 73.207 274.271 72.9387 273.336 72.402C272.401 71.85 271.665 71.0833 271.128 70.102C270.607 69.1053 270.346 67.9553 270.346 66.652ZM296.626 66.353C296.626 66.8283 296.595 67.2577 296.534 67.641H286.851C286.928 68.653 287.303 69.4657 287.978 70.079C288.653 70.6923 289.481 70.999 290.462 70.999C291.873 70.999 292.869 70.4087 293.452 69.228H296.281C295.898 70.3933 295.2 71.3517 294.188 72.103C293.191 72.839 291.949 73.207 290.462 73.207C289.251 73.207 288.162 72.9387 287.196 72.402C286.245 71.85 285.494 71.0833 284.942 70.102C284.405 69.1053 284.137 67.9553 284.137 66.652C284.137 65.3487 284.398 64.2063 284.919 63.225C285.456 62.2283 286.199 61.4617 287.15 60.925C288.116 60.3883 289.22 60.12 290.462 60.12C291.658 60.12 292.724 60.3807 293.659 60.902C294.594 61.4233 295.323 62.1593 295.844 63.11C296.365 64.0453 296.626 65.1263 296.626 66.353ZM293.889 65.525C293.874 64.559 293.529 63.7847 292.854 63.202C292.179 62.6193 291.344 62.328 290.347 62.328C289.442 62.328 288.668 62.6193 288.024 63.202C287.38 63.7693 286.997 64.5437 286.874 65.525H293.889ZM303.806 73.207C302.81 73.207 301.913 73.0307 301.115 72.678C300.333 72.31 299.712 71.8193 299.252 71.206C298.792 70.5773 298.547 69.8797 298.516 69.113H301.23C301.276 69.6497 301.529 70.102 301.989 70.47C302.465 70.8227 303.055 70.999 303.76 70.999C304.496 70.999 305.064 70.861 305.462 70.585C305.876 70.2937 306.083 69.9257 306.083 69.481C306.083 69.0057 305.853 68.653 305.393 68.423C304.949 68.193 304.236 67.94 303.254 67.664C302.304 67.4033 301.529 67.1503 300.931 66.905C300.333 66.6597 299.812 66.284 299.367 65.778C298.938 65.272 298.723 64.605 298.723 63.777C298.723 63.1023 298.923 62.489 299.321 61.937C299.72 61.3697 300.287 60.925 301.023 60.603C301.775 60.281 302.633 60.12 303.599 60.12C305.041 60.12 306.198 60.488 307.072 61.224C307.962 61.9447 308.437 62.9337 308.498 64.191H305.876C305.83 63.6237 305.6 63.1713 305.186 62.834C304.772 62.4967 304.213 62.328 303.507 62.328C302.817 62.328 302.288 62.4583 301.92 62.719C301.552 62.9797 301.368 63.3247 301.368 63.754C301.368 64.0913 301.491 64.375 301.736 64.605C301.982 64.835 302.281 65.019 302.633 65.157C302.986 65.2797 303.507 65.4407 304.197 65.64C305.117 65.8853 305.869 66.1383 306.451 66.399C307.049 66.6443 307.563 67.0123 307.992 67.503C308.422 67.9937 308.644 68.6453 308.659 69.458C308.659 70.1787 308.46 70.8227 308.061 71.39C307.663 71.9573 307.095 72.402 306.359 72.724C305.639 73.046 304.788 73.207 303.806 73.207ZM316.093 73.207C315.096 73.207 314.199 73.0307 313.402 72.678C312.62 72.31 311.999 71.8193 311.539 71.206C311.079 70.5773 310.833 69.8797 310.803 69.113H313.517C313.563 69.6497 313.816 70.102 314.276 70.47C314.751 70.8227 315.341 70.999 316.047 70.999C316.783 70.999 317.35 70.861 317.749 70.585C318.163 70.2937 318.37 69.9257 318.37 69.481C318.37 69.0057 318.14 68.653 317.68 68.423C317.235 68.193 316.522 67.94 315.541 67.664C314.59 67.4033 313.816 67.1503 313.218 66.905C312.62 66.6597 312.098 66.284 311.654 65.778C311.224 65.272 311.01 64.605 311.01 63.777C311.01 63.1023 311.209 62.489 311.608 61.937C312.006 61.3697 312.574 60.925 313.31 60.603C314.061 60.281 314.92 60.12 315.886 60.12C317.327 60.12 318.485 60.488 319.359 61.224C320.248 61.9447 320.723 62.9337 320.785 64.191H318.163C318.117 63.6237 317.887 63.1713 317.473 62.834C317.059 62.4967 316.499 62.328 315.794 62.328C315.104 62.328 314.575 62.4583 314.207 62.719C313.839 62.9797 313.655 63.3247 313.655 63.754C313.655 64.0913 313.777 64.375 314.023 64.605C314.268 64.835 314.567 65.019 314.92 65.157C315.272 65.2797 315.794 65.4407 316.484 65.64C317.404 65.8853 318.155 66.1383 318.738 66.399C319.336 66.6443 319.849 67.0123 320.279 67.503C320.708 67.9937 320.93 68.6453 320.946 69.458C320.946 70.1787 320.746 70.8227 320.348 71.39C319.949 71.9573 319.382 72.402 318.646 72.724C317.925 73.046 317.074 73.207 316.093 73.207ZM329.092 62.466H326.746V73H324.101V62.466H322.606V60.327H324.101V59.43C324.101 57.9733 324.484 56.9153 325.251 56.256C326.033 55.5813 327.252 55.244 328.908 55.244V57.429C328.11 57.429 327.551 57.5823 327.229 57.889C326.907 58.1803 326.746 58.694 326.746 59.43V60.327H329.092V62.466ZM342.892 60.327V73H340.27V71.505C339.856 72.0263 339.312 72.4403 338.637 72.747C337.978 73.0383 337.273 73.184 336.521 73.184C335.525 73.184 334.628 72.977 333.83 72.563C333.048 72.149 332.427 71.5357 331.967 70.723C331.523 69.9103 331.3 68.929 331.3 67.779V60.327H333.899V67.388C333.899 68.5227 334.183 69.3967 334.75 70.01C335.318 70.608 336.092 70.907 337.073 70.907C338.055 70.907 338.829 70.608 339.396 70.01C339.979 69.3967 340.27 68.5227 340.27 67.388V60.327H342.892ZM348.974 55.98V73H346.352V55.98H348.974ZM355.038 55.98V73H352.416V55.98H355.038ZM369.889 60.327L362.115 78.957H359.401L361.977 72.793L356.986 60.327H359.907L363.472 69.987L367.175 60.327H369.889ZM376.968 66.652C376.968 65.3487 377.229 64.2063 377.75 63.225C378.287 62.2283 379.023 61.4617 379.958 60.925C380.894 60.3883 381.967 60.12 383.178 60.12C384.712 60.12 385.977 60.488 386.973 61.224C387.985 61.9447 388.668 62.9797 389.02 64.329H386.191C385.961 63.7003 385.593 63.2097 385.087 62.857C384.581 62.5043 383.945 62.328 383.178 62.328C382.105 62.328 381.246 62.7113 380.602 63.478C379.974 64.2293 379.659 65.2873 379.659 66.652C379.659 68.0167 379.974 69.0823 380.602 69.849C381.246 70.6157 382.105 70.999 383.178 70.999C384.696 70.999 385.701 70.332 386.191 68.998H389.02C388.652 70.286 387.962 71.3133 386.95 72.08C385.938 72.8313 384.681 73.207 383.178 73.207C381.967 73.207 380.894 72.9387 379.958 72.402C379.023 71.85 378.287 71.0833 377.75 70.102C377.229 69.1053 376.968 67.9553 376.968 66.652ZM397.13 73.207C395.934 73.207 394.853 72.9387 393.887 72.402C392.921 71.85 392.162 71.0833 391.61 70.102C391.058 69.1053 390.782 67.9553 390.782 66.652C390.782 65.364 391.066 64.2217 391.633 63.225C392.201 62.2283 392.975 61.4617 393.956 60.925C394.938 60.3883 396.034 60.12 397.245 60.12C398.457 60.12 399.553 60.3883 400.534 60.925C401.516 61.4617 402.29 62.2283 402.857 63.225C403.425 64.2217 403.708 65.364 403.708 66.652C403.708 67.94 403.417 69.0823 402.834 70.079C402.252 71.0757 401.454 71.85 400.442 72.402C399.446 72.9387 398.342 73.207 397.13 73.207ZM397.13 70.93C397.805 70.93 398.434 70.769 399.016 70.447C399.614 70.125 400.097 69.642 400.465 68.998C400.833 68.354 401.017 67.572 401.017 66.652C401.017 65.732 400.841 64.9577 400.488 64.329C400.136 63.685 399.668 63.202 399.085 62.88C398.503 62.558 397.874 62.397 397.199 62.397C396.525 62.397 395.896 62.558 395.313 62.88C394.746 63.202 394.294 63.685 393.956 64.329C393.619 64.9577 393.45 65.732 393.45 66.652C393.45 68.0167 393.795 69.0747 394.485 69.826C395.191 70.562 396.072 70.93 397.13 70.93ZM421.641 60.12C422.638 60.12 423.527 60.327 424.309 60.741C425.107 61.155 425.728 61.7683 426.172 62.581C426.632 63.3937 426.862 64.375 426.862 65.525V73H424.263V65.916C424.263 64.7813 423.98 63.915 423.412 63.317C422.845 62.7037 422.071 62.397 421.089 62.397C420.108 62.397 419.326 62.7037 418.743 63.317C418.176 63.915 417.892 64.7813 417.892 65.916V73H415.293V65.916C415.293 64.7813 415.01 63.915 414.442 63.317C413.875 62.7037 413.101 62.397 412.119 62.397C411.138 62.397 410.356 62.7037 409.773 63.317C409.206 63.915 408.922 64.7813 408.922 65.916V73H406.3V60.327H408.922V61.776C409.352 61.2547 409.896 60.8483 410.555 60.557C411.215 60.2657 411.92 60.12 412.671 60.12C413.683 60.12 414.588 60.3347 415.385 60.764C416.183 61.1933 416.796 61.8143 417.225 62.627C417.609 61.8603 418.207 61.2547 419.019 60.81C419.832 60.35 420.706 60.12 421.641 60.12ZM432.821 62.19C433.265 61.6073 433.871 61.1167 434.638 60.718C435.404 60.3193 436.271 60.12 437.237 60.12C438.341 60.12 439.345 60.396 440.25 60.948C441.17 61.4847 441.89 62.2437 442.412 63.225C442.933 64.2063 443.194 65.3333 443.194 66.606C443.194 67.8787 442.933 69.021 442.412 70.033C441.89 71.0297 441.17 71.8117 440.25 72.379C439.345 72.931 438.341 73.207 437.237 73.207C436.271 73.207 435.412 73.0153 434.661 72.632C433.909 72.2333 433.296 71.7427 432.821 71.16V79.026H430.199V60.327H432.821V62.19ZM440.526 66.606C440.526 65.732 440.342 64.9807 439.974 64.352C439.621 63.708 439.146 63.225 438.548 62.903C437.965 62.5657 437.336 62.397 436.662 62.397C436.002 62.397 435.374 62.5657 434.776 62.903C434.193 63.2403 433.718 63.731 433.35 64.375C432.997 65.019 432.821 65.778 432.821 66.652C432.821 67.526 432.997 68.2927 433.35 68.952C433.718 69.596 434.193 70.0867 434.776 70.424C435.374 70.7613 436.002 70.93 436.662 70.93C437.336 70.93 437.965 70.7613 438.548 70.424C439.146 70.0713 439.621 69.5653 439.974 68.906C440.342 68.2467 440.526 67.48 440.526 66.606ZM448.409 55.98V73H445.787V55.98H448.409ZM463.466 66.353C463.466 66.8283 463.435 67.2577 463.374 67.641H453.691C453.768 68.653 454.143 69.4657 454.818 70.079C455.493 70.6923 456.321 70.999 457.302 70.999C458.713 70.999 459.709 70.4087 460.292 69.228H463.121C462.738 70.3933 462.04 71.3517 461.028 72.103C460.031 72.839 458.789 73.207 457.302 73.207C456.091 73.207 455.002 72.9387 454.036 72.402C453.085 71.85 452.334 71.0833 451.782 70.102C451.245 69.1053 450.977 67.9553 450.977 66.652C450.977 65.3487 451.238 64.2063 451.759 63.225C452.296 62.2283 453.039 61.4617 453.99 60.925C454.956 60.3883 456.06 60.12 457.302 60.12C458.498 60.12 459.564 60.3807 460.499 60.902C461.434 61.4233 462.163 62.1593 462.684 63.11C463.205 64.0453 463.466 65.1263 463.466 66.353ZM460.729 65.525C460.714 64.559 460.369 63.7847 459.694 63.202C459.019 62.6193 458.184 62.328 457.187 62.328C456.282 62.328 455.508 62.6193 454.864 63.202C454.22 63.7693 453.837 64.5437 453.714 65.525H460.729ZM469.105 62.466V69.481C469.105 69.9563 469.213 70.3013 469.427 70.516C469.657 70.7153 470.041 70.815 470.577 70.815H472.187V73H470.117C468.937 73 468.032 72.724 467.403 72.172C466.775 71.62 466.46 70.723 466.46 69.481V62.466H464.965V60.327H466.46V57.176H469.105V60.327H472.187V62.466H469.105ZM486.219 66.353C486.219 66.8283 486.188 67.2577 486.127 67.641H476.444C476.521 68.653 476.896 69.4657 477.571 70.079C478.246 70.6923 479.074 70.999 480.055 70.999C481.466 70.999 482.462 70.4087 483.045 69.228H485.874C485.491 70.3933 484.793 71.3517 483.781 72.103C482.784 72.839 481.542 73.207 480.055 73.207C478.844 73.207 477.755 72.9387 476.789 72.402C475.838 71.85 475.087 71.0833 474.535 70.102C473.998 69.1053 473.73 67.9553 473.73 66.652C473.73 65.3487 473.991 64.2063 474.512 63.225C475.049 62.2283 475.792 61.4617 476.743 60.925C477.709 60.3883 478.813 60.12 480.055 60.12C481.251 60.12 482.317 60.3807 483.252 60.902C484.187 61.4233 484.916 62.1593 485.437 63.11C485.958 64.0453 486.219 65.1263 486.219 66.353ZM483.482 65.525C483.467 64.559 483.122 63.7847 482.447 63.202C481.772 62.6193 480.937 62.328 479.94 62.328C479.035 62.328 478.261 62.6193 477.617 63.202C476.973 63.7693 476.59 64.5437 476.467 65.525H483.482ZM487.925 66.606C487.925 65.3333 488.186 64.2063 488.707 63.225C489.244 62.2437 489.965 61.4847 490.869 60.948C491.789 60.396 492.809 60.12 493.928 60.12C494.756 60.12 495.569 60.304 496.366 60.672C497.179 61.0247 497.823 61.5 498.298 62.098V55.98H500.943V73H498.298V71.091C497.869 71.7043 497.271 72.2103 496.504 72.609C495.753 73.0077 494.887 73.207 493.905 73.207C492.801 73.207 491.789 72.931 490.869 72.379C489.965 71.8117 489.244 71.0297 488.707 70.033C488.186 69.021 487.925 67.8787 487.925 66.606ZM498.298 66.652C498.298 65.778 498.114 65.019 497.746 64.375C497.394 63.731 496.926 63.2403 496.343 62.903C495.761 62.5657 495.132 62.397 494.457 62.397C493.783 62.397 493.154 62.5657 492.571 62.903C491.989 63.225 491.513 63.708 491.145 64.352C490.793 64.9807 490.616 65.732 490.616 66.606C490.616 67.48 490.793 68.2467 491.145 68.906C491.513 69.5653 491.989 70.0713 492.571 70.424C493.169 70.7613 493.798 70.93 494.457 70.93C495.132 70.93 495.761 70.7613 496.343 70.424C496.926 70.0867 497.394 69.596 497.746 68.952C498.114 68.2927 498.298 67.526 498.298 66.652ZM505.445 73.161C504.97 73.161 504.571 73 504.249 72.678C503.927 72.356 503.766 71.9573 503.766 71.482C503.766 71.0067 503.927 70.608 504.249 70.286C504.571 69.964 504.97 69.803 505.445 69.803C505.905 69.803 506.296 69.964 506.618 70.286C506.94 70.608 507.101 71.0067 507.101 71.482C507.101 71.9573 506.94 72.356 506.618 72.678C506.296 73 505.905 73.161 505.445 73.161Z" fill="white"/>
</g>
<defs>
<filter id="filter0_d_725_184" x="0" y="0" width="641" height="112" filterUnits="userSpaceOnUse" color-interpolation-filters="sRGB">
<feFlood flood-opacity="0" result="BackgroundImageFix"/>
<feColorMatrix in="SourceAlpha" type="matrix" values="0 0 0 0 0 0 0 0 0 0 0 0 0 0 0 0 0 0 127 0" result="hardAlpha"/>
<feOffset dy="4"/>
<feGaussianBlur stdDeviation="2"/>
<feComposite in2="hardAlpha" operator="out"/>
<feColorMatrix type="matrix" values="0 0 0 0 0 0 0 0 0 0 0 0 0 0 0 0 0 0 0.25 0"/>
<feBlend mode="normal" in2="BackgroundImageFix" result="effect1_dropShadow_725_184"/>
<feBlend mode="normal" in="SourceGraphic" in2="effect1_dropShadow_725_184" result="shape"/>
</filter>
<clipPath id="clip0_725_184">
<rect width="633" height="104" fill="white" transform="translate(4)"/>
</clipPath>
</defs>
</svg>
