<svg width="936" height="404" viewBox="0 0 936 404" fill="none" xmlns="http://www.w3.org/2000/svg">
<g clip-path="url(#clip0_729_132)">
<rect width="936" height="404" fill="#F8F8F8"/>
<g filter="url(#filter0_d_729_132)">
<rect x="20" y="19" width="873" height="363" fill="white"/>
</g>
<path d="M41.075 57.125C41.075 55.7083 41.3583 54.475 41.925 53.425C42.4917 52.3583 43.275 51.5333 44.275 50.95C45.2917 50.3667 46.45 50.075 47.75 50.075C49.4333 50.075 50.8167 50.4833 51.9 51.3C53 52.1167 53.725 53.25 54.075 54.7H51.625C51.3917 53.8667 50.9333 53.2083 50.25 52.725C49.5833 52.2417 48.75 52 47.75 52C46.45 52 45.4 52.45 44.6 53.35C43.8 54.2333 43.4 55.4917 43.4 57.125C43.4 58.775 43.8 60.05 44.6 60.95C45.4 61.85 46.45 62.3 47.75 62.3C48.75 62.3 49.5833 62.0667 50.25 61.6C50.9167 61.1333 51.375 60.4667 51.625 59.6H54.075C53.7083 61 52.975 62.125 51.875 62.975C50.775 63.8083 49.4 64.225 47.75 64.225C46.45 64.225 45.2917 63.9333 44.275 63.35C43.275 62.7667 42.4917 61.9417 41.925 60.875C41.3583 59.8083 41.075 58.5583 41.075 57.125ZM59.3855 52.525C59.7855 51.7417 60.3522 51.1333 61.0855 50.7C61.8355 50.2667 62.7439 50.05 63.8105 50.05V52.4H63.2105C60.6605 52.4 59.3855 53.7833 59.3855 56.55V64H57.1105V50.3H59.3855V52.525ZM78.9367 56.625C78.9367 57.0583 78.9117 57.5167 78.8617 58H67.9117C67.9951 59.35 68.4534 60.4083 69.2867 61.175C70.1367 61.925 71.1617 62.3 72.3617 62.3C73.3451 62.3 74.1617 62.075 74.8117 61.625C75.4784 61.1583 75.9451 60.5417 76.2117 59.775H78.6617C78.2951 61.0917 77.5617 62.1667 76.4617 63C75.3617 63.8167 73.9951 64.225 72.3617 64.225C71.0617 64.225 69.8951 63.9333 68.8617 63.35C67.8451 62.7667 67.0451 61.9417 66.4617 60.875C65.8784 59.7917 65.5867 58.5417 65.5867 57.125C65.5867 55.7083 65.8701 54.4667 66.4367 53.4C67.0034 52.3333 67.7951 51.5167 68.8117 50.95C69.8451 50.3667 71.0284 50.075 72.3617 50.075C73.6617 50.075 74.8117 50.3583 75.8117 50.925C76.8117 51.4917 77.5784 52.275 78.1117 53.275C78.6617 54.2583 78.9367 55.375 78.9367 56.625ZM76.5867 56.15C76.5867 55.2833 76.3951 54.5417 76.0117 53.925C75.6284 53.2917 75.1034 52.8167 74.4367 52.5C73.7867 52.1667 73.0617 52 72.2617 52C71.1117 52 70.1284 52.3667 69.3117 53.1C68.5117 53.8333 68.0534 54.85 67.9367 56.15H76.5867ZM81.0896 57.1C81.0896 55.7 81.373 54.475 81.9396 53.425C82.5063 52.3583 83.2813 51.5333 84.2646 50.95C85.2646 50.3667 86.373 50.075 87.5896 50.075C88.7896 50.075 89.8313 50.3333 90.7146 50.85C91.598 51.3667 92.2563 52.0167 92.6896 52.8V50.3H94.9896V64H92.6896V61.45C92.2396 62.25 91.5646 62.9167 90.6646 63.45C89.7813 63.9667 88.748 64.225 87.5646 64.225C86.348 64.225 85.248 63.925 84.2646 63.325C83.2813 62.725 82.5063 61.8833 81.9396 60.8C81.373 59.7167 81.0896 58.4833 81.0896 57.1ZM92.6896 57.125C92.6896 56.0917 92.4813 55.1917 92.0646 54.425C91.648 53.6583 91.0813 53.075 90.3646 52.675C89.6646 52.2583 88.8896 52.05 88.0396 52.05C87.1896 52.05 86.4146 52.25 85.7146 52.65C85.0146 53.05 84.4563 53.6333 84.0396 54.4C83.623 55.1667 83.4146 56.0667 83.4146 57.1C83.4146 58.15 83.623 59.0667 84.0396 59.85C84.4563 60.6167 85.0146 61.2083 85.7146 61.625C86.4146 62.025 87.1896 62.225 88.0396 62.225C88.8896 62.225 89.6646 62.025 90.3646 61.625C91.0813 61.2083 91.648 60.6167 92.0646 59.85C92.4813 59.0667 92.6896 58.1583 92.6896 57.125ZM101.609 52.175V60.25C101.609 60.9167 101.751 61.3917 102.034 61.675C102.318 61.9417 102.809 62.075 103.509 62.075H105.184V64H103.134C101.868 64 100.918 63.7083 100.284 63.125C99.6508 62.5417 99.3342 61.5833 99.3342 60.25V52.175H97.5592V50.3H99.3342V46.85H101.609V50.3H105.184V52.175H101.609ZM120.441 56.625C120.441 57.0583 120.416 57.5167 120.366 58H109.416C109.499 59.35 109.957 60.4083 110.791 61.175C111.641 61.925 112.666 62.3 113.866 62.3C114.849 62.3 115.666 62.075 116.316 61.625C116.982 61.1583 117.449 60.5417 117.716 59.775H120.166C119.799 61.0917 119.066 62.1667 117.966 63C116.866 63.8167 115.499 64.225 113.866 64.225C112.566 64.225 111.399 63.9333 110.366 63.35C109.349 62.7667 108.549 61.9417 107.966 60.875C107.382 59.7917 107.091 58.5417 107.091 57.125C107.091 55.7083 107.374 54.4667 107.941 53.4C108.507 52.3333 109.299 51.5167 110.316 50.95C111.349 50.3667 112.532 50.075 113.866 50.075C115.166 50.075 116.316 50.3583 117.316 50.925C118.316 51.4917 119.082 52.275 119.616 53.275C120.166 54.2583 120.441 55.375 120.441 56.625ZM118.091 56.15C118.091 55.2833 117.899 54.5417 117.516 53.925C117.132 53.2917 116.607 52.8167 115.941 52.5C115.291 52.1667 114.566 52 113.766 52C112.616 52 111.632 52.3667 110.816 53.1C110.016 53.8333 109.557 54.85 109.441 56.15H118.091ZM136.084 64.225C134.8 64.225 133.634 63.9333 132.584 63.35C131.55 62.7667 130.734 61.9417 130.134 60.875C129.55 59.7917 129.259 58.5417 129.259 57.125C129.259 55.725 129.559 54.4917 130.159 53.425C130.775 52.3417 131.609 51.5167 132.659 50.95C133.709 50.3667 134.884 50.075 136.184 50.075C137.484 50.075 138.659 50.3667 139.709 50.95C140.759 51.5167 141.584 52.3333 142.184 53.4C142.8 54.4667 143.109 55.7083 143.109 57.125C143.109 58.5417 142.792 59.7917 142.159 60.875C141.542 61.9417 140.7 62.7667 139.634 63.35C138.567 63.9333 137.384 64.225 136.084 64.225ZM136.084 62.225C136.9 62.225 137.667 62.0333 138.384 61.65C139.1 61.2667 139.675 60.6917 140.109 59.925C140.559 59.1583 140.784 58.225 140.784 57.125C140.784 56.025 140.567 55.0917 140.134 54.325C139.7 53.5583 139.134 52.9917 138.434 52.625C137.734 52.2417 136.975 52.05 136.159 52.05C135.325 52.05 134.559 52.2417 133.859 52.625C133.175 52.9917 132.625 53.5583 132.209 54.325C131.792 55.0917 131.584 56.025 131.584 57.125C131.584 58.2417 131.784 59.1833 132.184 59.95C132.6 60.7167 133.15 61.2917 133.834 61.675C134.517 62.0417 135.267 62.225 136.084 62.225ZM148.375 52.525C148.775 51.7417 149.341 51.1333 150.075 50.7C150.825 50.2667 151.733 50.05 152.8 50.05V52.4H152.2C149.65 52.4 148.375 53.7833 148.375 56.55V64H146.1V50.3H148.375V52.525ZM164.366 52.525C164.766 51.7417 165.333 51.1333 166.066 50.7C166.816 50.2667 167.724 50.05 168.791 50.05V52.4H168.191C165.641 52.4 164.366 53.7833 164.366 56.55V64H162.091V50.3H164.366V52.525ZM183.917 56.625C183.917 57.0583 183.892 57.5167 183.842 58H172.892C172.976 59.35 173.434 60.4083 174.267 61.175C175.117 61.925 176.142 62.3 177.342 62.3C178.326 62.3 179.142 62.075 179.792 61.625C180.459 61.1583 180.926 60.5417 181.192 59.775H183.642C183.276 61.0917 182.542 62.1667 181.442 63C180.342 63.8167 178.976 64.225 177.342 64.225C176.042 64.225 174.876 63.9333 173.842 63.35C172.826 62.7667 172.026 61.9417 171.442 60.875C170.859 59.7917 170.567 58.5417 170.567 57.125C170.567 55.7083 170.851 54.4667 171.417 53.4C171.984 52.3333 172.776 51.5167 173.792 50.95C174.826 50.3667 176.009 50.075 177.342 50.075C178.642 50.075 179.792 50.3583 180.792 50.925C181.792 51.4917 182.559 52.275 183.092 53.275C183.642 54.2583 183.917 55.375 183.917 56.625ZM181.567 56.15C181.567 55.2833 181.376 54.5417 180.992 53.925C180.609 53.2917 180.084 52.8167 179.417 52.5C178.767 52.1667 178.042 52 177.242 52C176.092 52 175.109 52.3667 174.292 53.1C173.492 53.8333 173.034 54.85 172.917 56.15H181.567ZM189.195 52.825C189.645 52.0417 190.312 51.3917 191.195 50.875C192.095 50.3417 193.137 50.075 194.32 50.075C195.537 50.075 196.637 50.3667 197.62 50.95C198.62 51.5333 199.403 52.3583 199.97 53.425C200.537 54.475 200.82 55.7 200.82 57.1C200.82 58.4833 200.537 59.7167 199.97 60.8C199.403 61.8833 198.62 62.725 197.62 63.325C196.637 63.925 195.537 64.225 194.32 64.225C193.153 64.225 192.12 63.9667 191.22 63.45C190.337 62.9167 189.662 62.2583 189.195 61.475V70.5H186.92V50.3H189.195V52.825ZM198.495 57.1C198.495 56.0667 198.287 55.1667 197.87 54.4C197.453 53.6333 196.887 53.05 196.17 52.65C195.47 52.25 194.695 52.05 193.845 52.05C193.012 52.05 192.237 52.2583 191.52 52.675C190.82 53.075 190.253 53.6667 189.82 54.45C189.403 55.2167 189.195 56.1083 189.195 57.125C189.195 58.1583 189.403 59.0667 189.82 59.85C190.253 60.6167 190.82 61.2083 191.52 61.625C192.237 62.025 193.012 62.225 193.845 62.225C194.695 62.225 195.47 62.025 196.17 61.625C196.887 61.2083 197.453 60.6167 197.87 59.85C198.287 59.0667 198.495 58.15 198.495 57.1ZM206.09 45.5V64H203.815V45.5H206.09ZM209.117 57.1C209.117 55.7 209.4 54.475 209.967 53.425C210.534 52.3583 211.309 51.5333 212.292 50.95C213.292 50.3667 214.4 50.075 215.617 50.075C216.817 50.075 217.859 50.3333 218.742 50.85C219.625 51.3667 220.284 52.0167 220.717 52.8V50.3H223.017V64H220.717V61.45C220.267 62.25 219.592 62.9167 218.692 63.45C217.809 63.9667 216.775 64.225 215.592 64.225C214.375 64.225 213.275 63.925 212.292 63.325C211.309 62.725 210.534 61.8833 209.967 60.8C209.4 59.7167 209.117 58.4833 209.117 57.1ZM220.717 57.125C220.717 56.0917 220.509 55.1917 220.092 54.425C219.675 53.6583 219.109 53.075 218.392 52.675C217.692 52.2583 216.917 52.05 216.067 52.05C215.217 52.05 214.442 52.25 213.742 52.65C213.042 53.05 212.484 53.6333 212.067 54.4C211.65 55.1667 211.442 56.0667 211.442 57.1C211.442 58.15 211.65 59.0667 212.067 59.85C212.484 60.6167 213.042 61.2083 213.742 61.625C214.442 62.025 215.217 62.225 216.067 62.225C216.917 62.225 217.692 62.025 218.392 61.625C219.109 61.2083 219.675 60.6167 220.092 59.85C220.509 59.0667 220.717 58.1583 220.717 57.125ZM226.012 57.125C226.012 55.7083 226.295 54.475 226.862 53.425C227.428 52.3583 228.212 51.5333 229.212 50.95C230.228 50.3667 231.387 50.075 232.687 50.075C234.37 50.075 235.753 50.4833 236.837 51.3C237.937 52.1167 238.662 53.25 239.012 54.7H236.562C236.328 53.8667 235.87 53.2083 235.187 52.725C234.52 52.2417 233.687 52 232.687 52C231.387 52 230.337 52.45 229.537 53.35C228.737 54.2333 228.337 55.4917 228.337 57.125C228.337 58.775 228.737 60.05 229.537 60.95C230.337 61.85 231.387 62.3 232.687 62.3C233.687 62.3 234.52 62.0667 235.187 61.6C235.853 61.1333 236.312 60.4667 236.562 59.6H239.012C238.645 61 237.912 62.125 236.812 62.975C235.712 63.8083 234.337 64.225 232.687 64.225C231.387 64.225 230.228 63.9333 229.212 63.35C228.212 62.7667 227.428 61.9417 226.862 60.875C226.295 59.8083 226.012 58.5583 226.012 57.125ZM254.547 56.625C254.547 57.0583 254.522 57.5167 254.472 58H243.522C243.605 59.35 244.064 60.4083 244.897 61.175C245.747 61.925 246.772 62.3 247.972 62.3C248.955 62.3 249.772 62.075 250.422 61.625C251.089 61.1583 251.555 60.5417 251.822 59.775H254.272C253.905 61.0917 253.172 62.1667 252.072 63C250.972 63.8167 249.605 64.225 247.972 64.225C246.672 64.225 245.505 63.9333 244.472 63.35C243.455 62.7667 242.655 61.9417 242.072 60.875C241.489 59.7917 241.197 58.5417 241.197 57.125C241.197 55.7083 241.48 54.4667 242.047 53.4C242.614 52.3333 243.405 51.5167 244.422 50.95C245.455 50.3667 246.639 50.075 247.972 50.075C249.272 50.075 250.422 50.3583 251.422 50.925C252.422 51.4917 253.189 52.275 253.722 53.275C254.272 54.2583 254.547 55.375 254.547 56.625ZM252.197 56.15C252.197 55.2833 252.005 54.5417 251.622 53.925C251.239 53.2917 250.714 52.8167 250.047 52.5C249.397 52.1667 248.672 52 247.872 52C246.722 52 245.739 52.3667 244.922 53.1C244.122 53.8333 243.664 54.85 243.547 56.15H252.197ZM269.79 52.175H266.915V64H264.64V52.175H262.865V50.3H264.64V49.325C264.64 47.7917 265.032 46.675 265.815 45.975C266.615 45.2583 267.89 44.9 269.64 44.9V46.8C268.64 46.8 267.932 47 267.515 47.4C267.115 47.7833 266.915 48.425 266.915 49.325V50.3H269.79V52.175ZM284.593 50.3V64H282.318V61.975C281.884 62.675 281.276 63.225 280.493 63.625C279.726 64.0083 278.876 64.2 277.943 64.2C276.876 64.2 275.918 63.9833 275.068 63.55C274.218 63.1 273.543 62.4333 273.043 61.55C272.559 60.6667 272.318 59.5917 272.318 58.325V50.3H274.568V58.025C274.568 59.375 274.909 60.4167 275.593 61.15C276.276 61.8667 277.209 62.225 278.393 62.225C279.609 62.225 280.568 61.85 281.268 61.1C281.968 60.35 282.318 59.2583 282.318 57.825V50.3H284.593ZM295.109 50.05C296.775 50.05 298.125 50.5583 299.159 51.575C300.192 52.575 300.709 54.025 300.709 55.925V64H298.459V56.25C298.459 54.8833 298.117 53.8417 297.434 53.125C296.75 52.3917 295.817 52.025 294.634 52.025C293.434 52.025 292.475 52.4 291.759 53.15C291.059 53.9 290.709 54.9917 290.709 56.425V64H288.434V50.3H290.709V52.25C291.159 51.55 291.767 51.0083 292.534 50.625C293.317 50.2417 294.175 50.05 295.109 50.05ZM303.575 57.125C303.575 55.7083 303.858 54.475 304.425 53.425C304.992 52.3583 305.775 51.5333 306.775 50.95C307.792 50.3667 308.95 50.075 310.25 50.075C311.933 50.075 313.317 50.4833 314.4 51.3C315.5 52.1167 316.225 53.25 316.575 54.7H314.125C313.892 53.8667 313.433 53.2083 312.75 52.725C312.083 52.2417 311.25 52 310.25 52C308.95 52 307.9 52.45 307.1 53.35C306.3 54.2333 305.9 55.4917 305.9 57.125C305.9 58.775 306.3 60.05 307.1 60.95C307.9 61.85 308.95 62.3 310.25 62.3C311.25 62.3 312.083 62.0667 312.75 61.6C313.417 61.1333 313.875 60.4667 314.125 59.6H316.575C316.208 61 315.475 62.125 314.375 62.975C313.275 63.8083 311.9 64.225 310.25 64.225C308.95 64.225 307.792 63.9333 306.775 63.35C305.775 62.7667 304.992 61.9417 304.425 60.875C303.858 59.8083 303.575 58.5583 303.575 57.125ZM322.386 52.175V60.25C322.386 60.9167 322.527 61.3917 322.811 61.675C323.094 61.9417 323.586 62.075 324.286 62.075H325.961V64H323.911C322.644 64 321.694 63.7083 321.061 63.125C320.427 62.5417 320.111 61.5833 320.111 60.25V52.175H318.336V50.3H320.111V46.85H322.386V50.3H325.961V52.175H322.386ZM329.892 48.075C329.459 48.075 329.092 47.925 328.792 47.625C328.492 47.325 328.342 46.9583 328.342 46.525C328.342 46.0917 328.492 45.725 328.792 45.425C329.092 45.125 329.459 44.975 329.892 44.975C330.309 44.975 330.659 45.125 330.942 45.425C331.242 45.725 331.392 46.0917 331.392 46.525C331.392 46.9583 331.242 47.325 330.942 47.625C330.659 47.925 330.309 48.075 329.892 48.075ZM330.992 50.3V64H328.717V50.3H330.992ZM340.844 64.225C339.561 64.225 338.394 63.9333 337.344 63.35C336.311 62.7667 335.494 61.9417 334.894 60.875C334.311 59.7917 334.019 58.5417 334.019 57.125C334.019 55.725 334.319 54.4917 334.919 53.425C335.536 52.3417 336.369 51.5167 337.419 50.95C338.469 50.3667 339.644 50.075 340.944 50.075C342.244 50.075 343.419 50.3667 344.469 50.95C345.519 51.5167 346.344 52.3333 346.944 53.4C347.561 54.4667 347.869 55.7083 347.869 57.125C347.869 58.5417 347.553 59.7917 346.919 60.875C346.303 61.9417 345.461 62.7667 344.394 63.35C343.328 63.9333 342.144 64.225 340.844 64.225ZM340.844 62.225C341.661 62.225 342.428 62.0333 343.144 61.65C343.861 61.2667 344.436 60.6917 344.869 59.925C345.319 59.1583 345.544 58.225 345.544 57.125C345.544 56.025 345.328 55.0917 344.894 54.325C344.461 53.5583 343.894 52.9917 343.194 52.625C342.494 52.2417 341.736 52.05 340.919 52.05C340.086 52.05 339.319 52.2417 338.619 52.625C337.936 52.9917 337.386 53.5583 336.969 54.325C336.553 55.0917 336.344 56.025 336.344 57.125C336.344 58.2417 336.544 59.1833 336.944 59.95C337.361 60.7167 337.911 61.2917 338.594 61.675C339.278 62.0417 340.028 62.225 340.844 62.225ZM357.536 50.05C359.202 50.05 360.552 50.5583 361.586 51.575C362.619 52.575 363.136 54.025 363.136 55.925V64H360.886V56.25C360.886 54.8833 360.544 53.8417 359.861 53.125C359.177 52.3917 358.244 52.025 357.061 52.025C355.861 52.025 354.902 52.4 354.186 53.15C353.486 53.9 353.136 54.9917 353.136 56.425V64H350.861V50.3H353.136V52.25C353.586 51.55 354.194 51.0083 354.961 50.625C355.744 50.2417 356.602 50.05 357.536 50.05ZM372.667 57.1C372.667 55.7 372.95 54.475 373.517 53.425C374.083 52.3583 374.858 51.5333 375.842 50.95C376.842 50.3667 377.95 50.075 379.167 50.075C380.367 50.075 381.408 50.3333 382.292 50.85C383.175 51.3667 383.833 52.0167 384.267 52.8V50.3H386.567V64H384.267V61.45C383.817 62.25 383.142 62.9167 382.242 63.45C381.358 63.9667 380.325 64.225 379.142 64.225C377.925 64.225 376.825 63.925 375.842 63.325C374.858 62.725 374.083 61.8833 373.517 60.8C372.95 59.7167 372.667 58.4833 372.667 57.1ZM384.267 57.125C384.267 56.0917 384.058 55.1917 383.642 54.425C383.225 53.6583 382.658 53.075 381.942 52.675C381.242 52.2583 380.467 52.05 379.617 52.05C378.767 52.05 377.992 52.25 377.292 52.65C376.592 53.05 376.033 53.6333 375.617 54.4C375.2 55.1667 374.992 56.0667 374.992 57.1C374.992 58.15 375.2 59.0667 375.617 59.85C376.033 60.6167 376.592 61.2083 377.292 61.625C377.992 62.025 378.767 62.225 379.617 62.225C380.467 62.225 381.242 62.025 381.942 61.625C382.658 61.2083 383.225 60.6167 383.642 59.85C384.058 59.0667 384.267 58.1583 384.267 57.125ZM389.561 57.1C389.561 55.7 389.845 54.475 390.411 53.425C390.978 52.3583 391.753 51.5333 392.736 50.95C393.736 50.3667 394.853 50.075 396.086 50.075C397.153 50.075 398.145 50.325 399.061 50.825C399.978 51.3083 400.678 51.95 401.161 52.75V45.5H403.461V64H401.161V61.425C400.711 62.2417 400.045 62.9167 399.161 63.45C398.278 63.9667 397.245 64.225 396.061 64.225C394.845 64.225 393.736 63.925 392.736 63.325C391.753 62.725 390.978 61.8833 390.411 60.8C389.845 59.7167 389.561 58.4833 389.561 57.1ZM401.161 57.125C401.161 56.0917 400.953 55.1917 400.536 54.425C400.12 53.6583 399.553 53.075 398.836 52.675C398.136 52.2583 397.361 52.05 396.511 52.05C395.661 52.05 394.886 52.25 394.186 52.65C393.486 53.05 392.928 53.6333 392.511 54.4C392.095 55.1667 391.886 56.0667 391.886 57.1C391.886 58.15 392.095 59.0667 392.511 59.85C392.928 60.6167 393.486 61.2083 394.186 61.625C394.886 62.025 395.661 62.225 396.511 62.225C397.361 62.225 398.136 62.025 398.836 61.625C399.553 61.2083 400.12 60.6167 400.536 59.85C400.953 59.0667 401.161 58.1583 401.161 57.125ZM406.456 57.1C406.456 55.7 406.739 54.475 407.306 53.425C407.873 52.3583 408.648 51.5333 409.631 50.95C410.631 50.3667 411.748 50.075 412.981 50.075C414.048 50.075 415.039 50.325 415.956 50.825C416.873 51.3083 417.573 51.95 418.056 52.75V45.5H420.356V64H418.056V61.425C417.606 62.2417 416.939 62.9167 416.056 63.45C415.173 63.9667 414.139 64.225 412.956 64.225C411.739 64.225 410.631 63.925 409.631 63.325C408.648 62.725 407.873 61.8833 407.306 60.8C406.739 59.7167 406.456 58.4833 406.456 57.1ZM418.056 57.125C418.056 56.0917 417.848 55.1917 417.431 54.425C417.014 53.6583 416.448 53.075 415.731 52.675C415.031 52.2583 414.256 52.05 413.406 52.05C412.556 52.05 411.781 52.25 411.081 52.65C410.381 53.05 409.823 53.6333 409.406 54.4C408.989 55.1667 408.781 56.0667 408.781 57.1C408.781 58.15 408.989 59.0667 409.406 59.85C409.823 60.6167 410.381 61.2083 411.081 61.625C411.781 62.025 412.556 62.225 413.406 62.225C414.256 62.225 415.031 62.025 415.731 61.625C416.448 61.2083 417.014 60.6167 417.431 59.85C417.848 59.0667 418.056 58.1583 418.056 57.125ZM436.7 56.625C436.7 57.0583 436.675 57.5167 436.625 58H425.675C425.759 59.35 426.217 60.4083 427.05 61.175C427.9 61.925 428.925 62.3 430.125 62.3C431.109 62.3 431.925 62.075 432.575 61.625C433.242 61.1583 433.709 60.5417 433.975 59.775H436.425C436.059 61.0917 435.325 62.1667 434.225 63C433.125 63.8167 431.759 64.225 430.125 64.225C428.825 64.225 427.659 63.9333 426.625 63.35C425.609 62.7667 424.809 61.9417 424.225 60.875C423.642 59.7917 423.35 58.5417 423.35 57.125C423.35 55.7083 423.634 54.4667 424.2 53.4C424.767 52.3333 425.559 51.5167 426.575 50.95C427.609 50.3667 428.792 50.075 430.125 50.075C431.425 50.075 432.575 50.3583 433.575 50.925C434.575 51.4917 435.342 52.275 435.875 53.275C436.425 54.2583 436.7 55.375 436.7 56.625ZM434.35 56.15C434.35 55.2833 434.159 54.5417 433.775 53.925C433.392 53.2917 432.867 52.8167 432.2 52.5C431.55 52.1667 430.825 52 430.025 52C428.875 52 427.892 52.3667 427.075 53.1C426.275 53.8333 425.817 54.85 425.7 56.15H434.35ZM441.978 52.525C442.378 51.7417 442.945 51.1333 443.678 50.7C444.428 50.2667 445.337 50.05 446.403 50.05V52.4H445.803C443.253 52.4 441.978 53.7833 441.978 56.55V64H439.703V50.3H441.978V52.525ZM454.879 68.65C453.279 67.0833 452.029 65.0917 451.129 62.675C450.246 60.2583 449.804 57.65 449.804 54.85C449.804 51.9833 450.271 49.3083 451.204 46.825C452.154 44.325 453.504 42.2667 455.254 40.65H457.629V40.875C455.763 42.625 454.354 44.7333 453.404 47.2C452.471 49.65 452.004 52.2 452.004 54.85C452.004 57.4333 452.446 59.9 453.329 62.25C454.229 64.6 455.538 66.6583 457.254 68.425V68.65H454.879ZM467.057 50.05C468.724 50.05 470.074 50.5583 471.107 51.575C472.14 52.575 472.657 54.025 472.657 55.925V64H470.407V56.25C470.407 54.8833 470.065 53.8417 469.382 53.125C468.699 52.3917 467.765 52.025 466.582 52.025C465.382 52.025 464.424 52.4 463.707 53.15C463.007 53.9 462.657 54.9917 462.657 56.425V64H460.382V50.3H462.657V52.25C463.107 51.55 463.715 51.0083 464.482 50.625C465.265 50.2417 466.124 50.05 467.057 50.05ZM475.398 48V45.925H480.098V64H477.798V48H475.398ZM492.221 48.075C491.788 48.075 491.421 47.925 491.121 47.625C490.821 47.325 490.671 46.9583 490.671 46.525C490.671 46.0917 490.821 45.725 491.121 45.425C491.421 45.125 491.788 44.975 492.221 44.975C492.638 44.975 492.988 45.125 493.271 45.425C493.571 45.725 493.721 46.0917 493.721 46.525C493.721 46.9583 493.571 47.325 493.271 47.625C492.988 47.925 492.638 48.075 492.221 48.075ZM493.321 50.3V64H491.046V50.3H493.321ZM503.873 50.05C505.54 50.05 506.89 50.5583 507.923 51.575C508.957 52.575 509.473 54.025 509.473 55.925V64H507.223V56.25C507.223 54.8833 506.882 53.8417 506.198 53.125C505.515 52.3917 504.582 52.025 503.398 52.025C502.198 52.025 501.24 52.4 500.523 53.15C499.823 53.9 499.473 54.9917 499.473 56.425V64H497.198V50.3H499.473V52.25C499.923 51.55 500.532 51.0083 501.298 50.625C502.082 50.2417 502.94 50.05 503.873 50.05ZM526.53 50.05C528.196 50.05 529.546 50.5583 530.58 51.575C531.613 52.575 532.13 54.025 532.13 55.925V64H529.88V56.25C529.88 54.8833 529.538 53.8417 528.855 53.125C528.171 52.3917 527.238 52.025 526.055 52.025C524.855 52.025 523.896 52.4 523.18 53.15C522.48 53.9 522.13 54.9917 522.13 56.425V64H519.855V50.3H522.13V52.25C522.58 51.55 523.188 51.0083 523.955 50.625C524.738 50.2417 525.596 50.05 526.53 50.05ZM547.996 50.3V64H545.721V61.975C545.288 62.675 544.679 63.225 543.896 63.625C543.129 64.0083 542.279 64.2 541.346 64.2C540.279 64.2 539.321 63.9833 538.471 63.55C537.621 63.1 536.946 62.4333 536.446 61.55C535.963 60.6667 535.721 59.5917 535.721 58.325V50.3H537.971V58.025C537.971 59.375 538.313 60.4167 538.996 61.15C539.679 61.8667 540.613 62.225 541.796 62.225C543.013 62.225 543.971 61.85 544.671 61.1C545.371 60.35 545.721 59.2583 545.721 57.825V50.3H547.996ZM568.312 50.05C569.379 50.05 570.329 50.275 571.162 50.725C571.995 51.1583 572.654 51.8167 573.137 52.7C573.62 53.5833 573.862 54.6583 573.862 55.925V64H571.612V56.25C571.612 54.8833 571.27 53.8417 570.587 53.125C569.92 52.3917 569.012 52.025 567.862 52.025C566.679 52.025 565.737 52.4083 565.037 53.175C564.337 53.925 563.987 55.0167 563.987 56.45V64H561.737V56.25C561.737 54.8833 561.395 53.8417 560.712 53.125C560.045 52.3917 559.137 52.025 557.987 52.025C556.804 52.025 555.862 52.4083 555.162 53.175C554.462 53.925 554.112 55.0167 554.112 56.45V64H551.837V50.3H554.112V52.275C554.562 51.5583 555.162 51.0083 555.912 50.625C556.679 50.2417 557.52 50.05 558.437 50.05C559.587 50.05 560.604 50.3083 561.487 50.825C562.37 51.3417 563.029 52.1 563.462 53.1C563.845 52.1333 564.479 51.3833 565.362 50.85C566.245 50.3167 567.229 50.05 568.312 50.05ZM579.869 52.85C580.336 52.0333 581.019 51.3667 581.919 50.85C582.819 50.3333 583.844 50.075 584.994 50.075C586.227 50.075 587.336 50.3667 588.319 50.95C589.302 51.5333 590.077 52.3583 590.644 53.425C591.211 54.475 591.494 55.7 591.494 57.1C591.494 58.4833 591.211 59.7167 590.644 60.8C590.077 61.8833 589.294 62.725 588.294 63.325C587.311 63.925 586.211 64.225 584.994 64.225C583.811 64.225 582.769 63.9667 581.869 63.45C580.986 62.9333 580.319 62.275 579.869 61.475V64H577.594V45.5H579.869V52.85ZM589.169 57.1C589.169 56.0667 588.961 55.1667 588.544 54.4C588.127 53.6333 587.561 53.05 586.844 52.65C586.144 52.25 585.369 52.05 584.519 52.05C583.686 52.05 582.911 52.2583 582.194 52.675C581.494 53.075 580.927 53.6667 580.494 54.45C580.077 55.2167 579.869 56.1083 579.869 57.125C579.869 58.1583 580.077 59.0667 580.494 59.85C580.927 60.6167 581.494 61.2083 582.194 61.625C582.911 62.025 583.686 62.225 584.519 62.225C585.369 62.225 586.144 62.025 586.844 61.625C587.561 61.2083 588.127 60.6167 588.544 59.85C588.961 59.0667 589.169 58.15 589.169 57.1ZM606.988 56.625C606.988 57.0583 606.963 57.5167 606.913 58H595.963C596.047 59.35 596.505 60.4083 597.338 61.175C598.188 61.925 599.213 62.3 600.413 62.3C601.397 62.3 602.213 62.075 602.863 61.625C603.53 61.1583 603.997 60.5417 604.263 59.775H606.713C606.347 61.0917 605.613 62.1667 604.513 63C603.413 63.8167 602.047 64.225 600.413 64.225C599.113 64.225 597.947 63.9333 596.913 63.35C595.897 62.7667 595.097 61.9417 594.513 60.875C593.93 59.7917 593.638 58.5417 593.638 57.125C593.638 55.7083 593.922 54.4667 594.488 53.4C595.055 52.3333 595.847 51.5167 596.863 50.95C597.897 50.3667 599.08 50.075 600.413 50.075C601.713 50.075 602.863 50.3583 603.863 50.925C604.863 51.4917 605.63 52.275 606.163 53.275C606.713 54.2583 606.988 55.375 606.988 56.625ZM604.638 56.15C604.638 55.2833 604.447 54.5417 604.063 53.925C603.68 53.2917 603.155 52.8167 602.488 52.5C601.838 52.1667 601.113 52 600.313 52C599.163 52 598.18 52.3667 597.363 53.1C596.563 53.8333 596.105 54.85 595.988 56.15H604.638ZM612.266 52.525C612.666 51.7417 613.233 51.1333 613.966 50.7C614.716 50.2667 615.625 50.05 616.691 50.05V52.4H616.091C613.541 52.4 612.266 53.7833 612.266 56.55V64H609.991V50.3H612.266V52.525ZM621.668 60.85L618.868 67.575H617.343L619.168 60.85H621.668ZM637.614 50.05C639.28 50.05 640.63 50.5583 641.664 51.575C642.697 52.575 643.214 54.025 643.214 55.925V64H640.964V56.25C640.964 54.8833 640.622 53.8417 639.939 53.125C639.255 52.3917 638.322 52.025 637.139 52.025C635.939 52.025 634.98 52.4 634.264 53.15C633.564 53.9 633.214 54.9917 633.214 56.425V64H630.939V50.3H633.214V52.25C633.664 51.55 634.272 51.0083 635.039 50.625C635.822 50.2417 636.68 50.05 637.614 50.05ZM646.28 62.175C648.397 60.475 650.055 59.0833 651.255 58C652.455 56.9 653.463 55.7583 654.28 54.575C655.113 53.375 655.53 52.2 655.53 51.05C655.53 49.9667 655.263 49.1167 654.73 48.5C654.213 47.8667 653.372 47.55 652.205 47.55C651.072 47.55 650.188 47.9083 649.555 48.625C648.938 49.325 648.605 50.2667 648.555 51.45H646.355C646.422 49.5833 646.988 48.1417 648.055 47.125C649.122 46.1083 650.497 45.6 652.18 45.6C653.897 45.6 655.255 46.075 656.255 47.025C657.272 47.975 657.78 49.2833 657.78 50.95C657.78 52.3333 657.363 53.6833 656.53 55C655.713 56.3 654.78 57.45 653.73 58.45C652.68 59.4333 651.338 60.5833 649.705 61.9H658.305V63.8H646.28V62.175ZM669.15 48.075C668.716 48.075 668.35 47.925 668.05 47.625C667.75 47.325 667.6 46.9583 667.6 46.525C667.6 46.0917 667.75 45.725 668.05 45.425C668.35 45.125 668.716 44.975 669.15 44.975C669.566 44.975 669.916 45.125 670.2 45.425C670.5 45.725 670.65 46.0917 670.65 46.525C670.65 46.9583 670.5 47.325 670.2 47.625C669.916 47.925 669.566 48.075 669.15 48.075ZM670.25 50.3V64H667.975V50.3H670.25ZM680.802 50.05C682.469 50.05 683.819 50.5583 684.852 51.575C685.885 52.575 686.402 54.025 686.402 55.925V64H684.152V56.25C684.152 54.8833 683.81 53.8417 683.127 53.125C682.444 52.3917 681.51 52.025 680.327 52.025C679.127 52.025 678.169 52.4 677.452 53.15C676.752 53.9 676.402 54.9917 676.402 56.425V64H674.127V50.3H676.402V52.25C676.852 51.55 677.46 51.0083 678.227 50.625C679.01 50.2417 679.869 50.05 680.802 50.05ZM703.458 50.05C705.125 50.05 706.475 50.5583 707.508 51.575C708.542 52.575 709.058 54.025 709.058 55.925V64H706.808V56.25C706.808 54.8833 706.467 53.8417 705.783 53.125C705.1 52.3917 704.167 52.025 702.983 52.025C701.783 52.025 700.825 52.4 700.108 53.15C699.408 53.9 699.058 54.9917 699.058 56.425V64H696.783V50.3H699.058V52.25C699.508 51.55 700.117 51.0083 700.883 50.625C701.667 50.2417 702.525 50.05 703.458 50.05ZM724.925 50.3V64H722.65V61.975C722.216 62.675 721.608 63.225 720.825 63.625C720.058 64.0083 719.208 64.2 718.275 64.2C717.208 64.2 716.25 63.9833 715.4 63.55C714.55 63.1 713.875 62.4333 713.375 61.55C712.891 60.6667 712.65 59.5917 712.65 58.325V50.3H714.9V58.025C714.9 59.375 715.241 60.4167 715.925 61.15C716.608 61.8667 717.541 62.225 718.725 62.225C719.941 62.225 720.9 61.85 721.6 61.1C722.3 60.35 722.65 59.2583 722.65 57.825V50.3H724.925ZM745.241 50.05C746.307 50.05 747.257 50.275 748.091 50.725C748.924 51.1583 749.582 51.8167 750.066 52.7C750.549 53.5833 750.791 54.6583 750.791 55.925V64H748.541V56.25C748.541 54.8833 748.199 53.8417 747.516 53.125C746.849 52.3917 745.941 52.025 744.791 52.025C743.607 52.025 742.666 52.4083 741.966 53.175C741.266 53.925 740.916 55.0167 740.916 56.45V64H738.666V56.25C738.666 54.8833 738.324 53.8417 737.641 53.125C736.974 52.3917 736.066 52.025 734.916 52.025C733.732 52.025 732.791 52.4083 732.091 53.175C731.391 53.925 731.041 55.0167 731.041 56.45V64H728.766V50.3H731.041V52.275C731.491 51.5583 732.091 51.0083 732.841 50.625C733.607 50.2417 734.449 50.05 735.366 50.05C736.516 50.05 737.532 50.3083 738.416 50.825C739.299 51.3417 739.957 52.1 740.391 53.1C740.774 52.1333 741.407 51.3833 742.291 50.85C743.174 50.3167 744.157 50.05 745.241 50.05ZM756.798 52.85C757.264 52.0333 757.948 51.3667 758.848 50.85C759.748 50.3333 760.773 50.075 761.923 50.075C763.156 50.075 764.264 50.3667 765.248 50.95C766.231 51.5333 767.006 52.3583 767.573 53.425C768.139 54.475 768.423 55.7 768.423 57.1C768.423 58.4833 768.139 59.7167 767.573 60.8C767.006 61.8833 766.223 62.725 765.223 63.325C764.239 63.925 763.139 64.225 761.923 64.225C760.739 64.225 759.698 63.9667 758.798 63.45C757.914 62.9333 757.248 62.275 756.798 61.475V64H754.523V45.5H756.798V52.85ZM766.098 57.1C766.098 56.0667 765.889 55.1667 765.473 54.4C765.056 53.6333 764.489 53.05 763.773 52.65C763.073 52.25 762.298 52.05 761.448 52.05C760.614 52.05 759.839 52.2583 759.123 52.675C758.423 53.075 757.856 53.6667 757.423 54.45C757.006 55.2167 756.798 56.1083 756.798 57.125C756.798 58.1583 757.006 59.0667 757.423 59.85C757.856 60.6167 758.423 61.2083 759.123 61.625C759.839 62.025 760.614 62.225 761.448 62.225C762.298 62.225 763.073 62.025 763.773 61.625C764.489 61.2083 765.056 60.6167 765.473 59.85C765.889 59.0667 766.098 58.15 766.098 57.1ZM783.917 56.625C783.917 57.0583 783.892 57.5167 783.842 58H772.892C772.976 59.35 773.434 60.4083 774.267 61.175C775.117 61.925 776.142 62.3 777.342 62.3C778.326 62.3 779.142 62.075 779.792 61.625C780.459 61.1583 780.926 60.5417 781.192 59.775H783.642C783.276 61.0917 782.542 62.1667 781.442 63C780.342 63.8167 778.976 64.225 777.342 64.225C776.042 64.225 774.876 63.9333 773.842 63.35C772.826 62.7667 772.026 61.9417 771.442 60.875C770.859 59.7917 770.567 58.5417 770.567 57.125C770.567 55.7083 770.851 54.4667 771.417 53.4C771.984 52.3333 772.776 51.5167 773.792 50.95C774.826 50.3667 776.009 50.075 777.342 50.075C778.642 50.075 779.792 50.3583 780.792 50.925C781.792 51.4917 782.559 52.275 783.092 53.275C783.642 54.2583 783.917 55.375 783.917 56.625ZM781.567 56.15C781.567 55.2833 781.376 54.5417 780.992 53.925C780.609 53.2917 780.084 52.8167 779.417 52.5C778.767 52.1667 778.042 52 777.242 52C776.092 52 775.109 52.3667 774.292 53.1C773.492 53.8333 773.034 54.85 772.917 56.15H781.567ZM789.195 52.525C789.595 51.7417 790.162 51.1333 790.895 50.7C791.645 50.2667 792.553 50.05 793.62 50.05V52.4H793.02C790.47 52.4 789.195 53.7833 789.195 56.55V64H786.92V50.3H789.195V52.525ZM795.521 68.65V68.425C797.238 66.6583 798.538 64.6 799.421 62.25C800.321 59.9 800.771 57.4333 800.771 54.85C800.771 52.2 800.296 49.65 799.346 47.2C798.413 44.7333 797.013 42.625 795.146 40.875V40.65H797.521C799.271 42.2667 800.613 44.325 801.546 46.825C802.496 49.3083 802.971 51.9833 802.971 54.85C802.971 57.65 802.521 60.2583 801.621 62.675C800.738 65.0917 799.496 67.0833 797.896 68.65H795.521ZM44.2 90.525C44.6 89.7417 45.1667 89.1333 45.9 88.7C46.65 88.2667 47.5583 88.05 48.625 88.05V90.4H48.025C45.475 90.4 44.2 91.7833 44.2 94.55V102H41.925V88.3H44.2V90.525ZM63.7512 94.625C63.7512 95.0583 63.7262 95.5167 63.6762 96H52.7262C52.8095 97.35 53.2678 98.4083 54.1012 99.175C54.9512 99.925 55.9762 100.3 57.1762 100.3C58.1595 100.3 58.9762 100.075 59.6262 99.625C60.2928 99.1583 60.7595 98.5417 61.0262 97.775H63.4762C63.1095 99.0917 62.3762 100.167 61.2762 101C60.1762 101.817 58.8095 102.225 57.1762 102.225C55.8762 102.225 54.7095 101.933 53.6762 101.35C52.6595 100.767 51.8595 99.9417 51.2762 98.875C50.6928 97.7917 50.4012 96.5417 50.4012 95.125C50.4012 93.7083 50.6845 92.4667 51.2512 91.4C51.8178 90.3333 52.6095 89.5167 53.6262 88.95C54.6595 88.3667 55.8428 88.075 57.1762 88.075C58.4762 88.075 59.6262 88.3583 60.6262 88.925C61.6262 89.4917 62.3928 90.275 62.9262 91.275C63.4762 92.2583 63.7512 93.375 63.7512 94.625ZM61.4012 94.15C61.4012 93.2833 61.2095 92.5417 60.8262 91.925C60.4428 91.2917 59.9178 90.8167 59.2512 90.5C58.6012 90.1667 57.8762 90 57.0762 90C55.9262 90 54.9428 90.3667 54.1262 91.1C53.3262 91.8333 52.8678 92.85 52.7512 94.15H61.4012ZM69.5291 90.175V98.25C69.5291 98.9167 69.6708 99.3917 69.9541 99.675C70.2374 99.9417 70.7291 100.075 71.4291 100.075H73.1041V102H71.0541C69.7874 102 68.8374 101.708 68.2041 101.125C67.5708 100.542 67.2541 99.5833 67.2541 98.25V90.175H65.4791V88.3H67.2541V84.85H69.5291V88.3H73.1041V90.175H69.5291ZM88.0105 88.3V102H85.7355V99.975C85.3022 100.675 84.6939 101.225 83.9105 101.625C83.1439 102.008 82.2939 102.2 81.3605 102.2C80.2939 102.2 79.3355 101.983 78.4855 101.55C77.6355 101.1 76.9605 100.433 76.4605 99.55C75.9772 98.6667 75.7355 97.5917 75.7355 96.325V88.3H77.9855V96.025C77.9855 97.375 78.3272 98.4167 79.0105 99.15C79.6939 99.8667 80.6272 100.225 81.8105 100.225C83.0272 100.225 83.9855 99.85 84.6855 99.1C85.3855 98.35 85.7355 97.2583 85.7355 95.825V88.3H88.0105ZM94.1268 90.525C94.5268 89.7417 95.0934 89.1333 95.8268 88.7C96.5768 88.2667 97.4851 88.05 98.5518 88.05V90.4H97.9518C95.4018 90.4 94.1268 91.7833 94.1268 94.55V102H91.8518V88.3H94.1268V90.525ZM107.853 88.05C109.52 88.05 110.87 88.5583 111.903 89.575C112.936 90.575 113.453 92.025 113.453 93.925V102H111.203V94.25C111.203 92.8833 110.861 91.8417 110.178 91.125C109.495 90.3917 108.561 90.025 107.378 90.025C106.178 90.025 105.22 90.4 104.503 91.15C103.803 91.9 103.453 92.9917 103.453 94.425V102H101.178V88.3H103.453V90.25C103.903 89.55 104.511 89.0083 105.278 88.625C106.061 88.2417 106.92 88.05 107.853 88.05ZM130.509 88.05C132.176 88.05 133.526 88.5583 134.559 89.575C135.593 90.575 136.109 92.025 136.109 93.925V102H133.859V94.25C133.859 92.8833 133.518 91.8417 132.834 91.125C132.151 90.3917 131.218 90.025 130.034 90.025C128.834 90.025 127.876 90.4 127.159 91.15C126.459 91.9 126.109 92.9917 126.109 94.425V102H123.834V88.3H126.109V90.25C126.559 89.55 127.168 89.0083 127.934 88.625C128.718 88.2417 129.576 88.05 130.509 88.05ZM151.975 88.3V102H149.7V99.975C149.267 100.675 148.659 101.225 147.875 101.625C147.109 102.008 146.259 102.2 145.325 102.2C144.259 102.2 143.3 101.983 142.45 101.55C141.6 101.1 140.925 100.433 140.425 99.55C139.942 98.6667 139.7 97.5917 139.7 96.325V88.3H141.95V96.025C141.95 97.375 142.292 98.4167 142.975 99.15C143.659 99.8667 144.592 100.225 145.775 100.225C146.992 100.225 147.95 99.85 148.65 99.1C149.35 98.35 149.7 97.2583 149.7 95.825V88.3H151.975ZM172.292 88.05C173.358 88.05 174.308 88.275 175.142 88.725C175.975 89.1583 176.633 89.8167 177.117 90.7C177.6 91.5833 177.842 92.6583 177.842 93.925V102H175.592V94.25C175.592 92.8833 175.25 91.8417 174.567 91.125C173.9 90.3917 172.992 90.025 171.842 90.025C170.658 90.025 169.717 90.4083 169.017 91.175C168.317 91.925 167.967 93.0167 167.967 94.45V102H165.717V94.25C165.717 92.8833 165.375 91.8417 164.692 91.125C164.025 90.3917 163.117 90.025 161.967 90.025C160.783 90.025 159.842 90.4083 159.142 91.175C158.442 91.925 158.092 93.0167 158.092 94.45V102H155.817V88.3H158.092V90.275C158.542 89.5583 159.142 89.0083 159.892 88.625C160.658 88.2417 161.5 88.05 162.417 88.05C163.567 88.05 164.583 88.3083 165.467 88.825C166.35 89.3417 167.008 90.1 167.442 91.1C167.825 90.1333 168.458 89.3833 169.342 88.85C170.225 88.3167 171.208 88.05 172.292 88.05ZM183.848 90.85C184.315 90.0333 184.998 89.3667 185.898 88.85C186.798 88.3333 187.823 88.075 188.973 88.075C190.207 88.075 191.315 88.3667 192.298 88.95C193.282 89.5333 194.057 90.3583 194.623 91.425C195.19 92.475 195.473 93.7 195.473 95.1C195.473 96.4833 195.19 97.7167 194.623 98.8C194.057 99.8833 193.273 100.725 192.273 101.325C191.29 101.925 190.19 102.225 188.973 102.225C187.79 102.225 186.748 101.967 185.848 101.45C184.965 100.933 184.298 100.275 183.848 99.475V102H181.573V83.5H183.848V90.85ZM193.148 95.1C193.148 94.0667 192.94 93.1667 192.523 92.4C192.107 91.6333 191.54 91.05 190.823 90.65C190.123 90.25 189.348 90.05 188.498 90.05C187.665 90.05 186.89 90.2583 186.173 90.675C185.473 91.075 184.907 91.6667 184.473 92.45C184.057 93.2167 183.848 94.1083 183.848 95.125C183.848 96.1583 184.057 97.0667 184.473 97.85C184.907 98.6167 185.473 99.2083 186.173 99.625C186.89 100.025 187.665 100.225 188.498 100.225C189.348 100.225 190.123 100.025 190.823 99.625C191.54 99.2083 192.107 98.6167 192.523 97.85C192.94 97.0667 193.148 96.15 193.148 95.1ZM210.968 94.625C210.968 95.0583 210.943 95.5167 210.893 96H199.943C200.026 97.35 200.485 98.4083 201.318 99.175C202.168 99.925 203.193 100.3 204.393 100.3C205.376 100.3 206.193 100.075 206.843 99.625C207.51 99.1583 207.976 98.5417 208.243 97.775H210.693C210.326 99.0917 209.593 100.167 208.493 101C207.393 101.817 206.026 102.225 204.393 102.225C203.093 102.225 201.926 101.933 200.893 101.35C199.876 100.767 199.076 99.9417 198.493 98.875C197.91 97.7917 197.618 96.5417 197.618 95.125C197.618 93.7083 197.901 92.4667 198.468 91.4C199.035 90.3333 199.826 89.5167 200.843 88.95C201.876 88.3667 203.06 88.075 204.393 88.075C205.693 88.075 206.843 88.3583 207.843 88.925C208.843 89.4917 209.61 90.275 210.143 91.275C210.693 92.2583 210.968 93.375 210.968 94.625ZM208.618 94.15C208.618 93.2833 208.426 92.5417 208.043 91.925C207.66 91.2917 207.135 90.8167 206.468 90.5C205.818 90.1667 205.093 90 204.293 90C203.143 90 202.16 90.3667 201.343 91.1C200.543 91.8333 200.085 92.85 199.968 94.15H208.618ZM216.246 90.525C216.646 89.7417 217.213 89.1333 217.946 88.7C218.696 88.2667 219.604 88.05 220.671 88.05V90.4H220.071C217.521 90.4 216.246 91.7833 216.246 94.55V102H213.971V88.3H216.246V90.525ZM43.1 124.075C42.6667 124.075 42.3 123.925 42 123.625C41.7 123.325 41.55 122.958 41.55 122.525C41.55 122.092 41.7 121.725 42 121.425C42.3 121.125 42.6667 120.975 43.1 120.975C43.5167 120.975 43.8667 121.125 44.15 121.425C44.45 121.725 44.6 122.092 44.6 122.525C44.6 122.958 44.45 123.325 44.15 123.625C43.8667 123.925 43.5167 124.075 43.1 124.075ZM44.2 126.3V140H41.925V126.3H44.2ZM52.9273 140.225C51.8773 140.225 50.9357 140.05 50.1023 139.7C49.269 139.333 48.6107 138.833 48.1273 138.2C47.644 137.55 47.3773 136.808 47.3273 135.975H49.6773C49.744 136.658 50.0607 137.217 50.6273 137.65C51.2107 138.083 51.969 138.3 52.9023 138.3C53.769 138.3 54.4523 138.108 54.9523 137.725C55.4523 137.342 55.7023 136.858 55.7023 136.275C55.7023 135.675 55.4357 135.233 54.9023 134.95C54.369 134.65 53.544 134.358 52.4273 134.075C51.4107 133.808 50.5773 133.542 49.9273 133.275C49.294 132.992 48.744 132.583 48.2773 132.05C47.8273 131.5 47.6023 130.783 47.6023 129.9C47.6023 129.2 47.8107 128.558 48.2273 127.975C48.644 127.392 49.2357 126.933 50.0023 126.6C50.769 126.25 51.644 126.075 52.6273 126.075C54.144 126.075 55.369 126.458 56.3023 127.225C57.2357 127.992 57.7357 129.042 57.8023 130.375H55.5273C55.4773 129.658 55.1857 129.083 54.6523 128.65C54.1357 128.217 53.4357 128 52.5523 128C51.7357 128 51.0857 128.175 50.6023 128.525C50.119 128.875 49.8773 129.333 49.8773 129.9C49.8773 130.35 50.019 130.725 50.3023 131.025C50.6023 131.308 50.969 131.542 51.4023 131.725C51.8523 131.892 52.469 132.083 53.2523 132.3C54.2357 132.567 55.0357 132.833 55.6523 133.1C56.269 133.35 56.794 133.733 57.2273 134.25C57.6773 134.767 57.9107 135.442 57.9273 136.275C57.9273 137.025 57.719 137.7 57.3023 138.3C56.8857 138.9 56.294 139.375 55.5273 139.725C54.7773 140.058 53.9107 140.225 52.9273 140.225ZM48.6 164.05C50.2667 164.05 51.6167 164.558 52.65 165.575C53.6833 166.575 54.2 168.025 54.2 169.925V178H51.95V170.25C51.95 168.883 51.6083 167.842 50.925 167.125C50.2417 166.392 49.3083 166.025 48.125 166.025C46.925 166.025 45.9667 166.4 45.25 167.15C44.55 167.9 44.2 168.992 44.2 170.425V178H41.925V164.3H44.2V166.25C44.65 165.55 45.2583 165.008 46.025 164.625C46.8083 164.242 47.6667 164.05 48.6 164.05ZM57.4912 164.475C57.6079 162.942 58.1995 161.742 59.2662 160.875C60.3329 160.008 61.7162 159.575 63.4162 159.575C64.5495 159.575 65.5245 159.783 66.3412 160.2C67.1745 160.6 67.7995 161.15 68.2162 161.85C68.6495 162.55 68.8662 163.342 68.8662 164.225C68.8662 165.258 68.5662 166.15 67.9662 166.9C67.3829 167.65 66.6162 168.133 65.6662 168.35V168.475C66.7495 168.742 67.6079 169.267 68.2412 170.05C68.8745 170.833 69.1912 171.858 69.1912 173.125C69.1912 174.075 68.9745 174.933 68.5412 175.7C68.1079 176.45 67.4579 177.042 66.5912 177.475C65.7245 177.908 64.6829 178.125 63.4662 178.125C61.6995 178.125 60.2495 177.667 59.1162 176.75C57.9829 175.817 57.3495 174.5 57.2162 172.8H59.4162C59.5329 173.8 59.9412 174.617 60.6412 175.25C61.3412 175.883 62.2745 176.2 63.4412 176.2C64.6079 176.2 65.4912 175.9 66.0912 175.3C66.7079 174.683 67.0162 173.892 67.0162 172.925C67.0162 171.675 66.5995 170.775 65.7662 170.225C64.9329 169.675 63.6745 169.4 61.9912 169.4H61.4162V167.5H62.0162C63.5495 167.483 64.7079 167.233 65.4912 166.75C66.2745 166.25 66.6662 165.483 66.6662 164.45C66.6662 163.567 66.3745 162.858 65.7912 162.325C65.2245 161.792 64.4079 161.525 63.3412 161.525C62.3079 161.525 61.4745 161.792 60.8412 162.325C60.2079 162.858 59.8329 163.575 59.7162 164.475H57.4912ZM85.9779 164.05C87.6446 164.05 88.9946 164.558 90.0279 165.575C91.0613 166.575 91.5779 168.025 91.5779 169.925V178H89.3279V170.25C89.3279 168.883 88.9863 167.842 88.3029 167.125C87.6196 166.392 86.6863 166.025 85.5029 166.025C84.3029 166.025 83.3446 166.4 82.6279 167.15C81.9279 167.9 81.5779 168.992 81.5779 170.425V178H79.3029V164.3H81.5779V166.25C82.0279 165.55 82.6363 165.008 83.4029 164.625C84.1863 164.242 85.0446 164.05 85.9779 164.05ZM107.444 164.3V178H105.169V175.975C104.736 176.675 104.127 177.225 103.344 177.625C102.577 178.008 101.727 178.2 100.794 178.2C99.7275 178.2 98.7691 177.983 97.9191 177.55C97.0691 177.1 96.3941 176.433 95.8941 175.55C95.4108 174.667 95.1691 173.592 95.1691 172.325V164.3H97.4191V172.025C97.4191 173.375 97.7608 174.417 98.4441 175.15C99.1275 175.867 100.061 176.225 101.244 176.225C102.461 176.225 103.419 175.85 104.119 175.1C104.819 174.35 105.169 173.258 105.169 171.825V164.3H107.444ZM127.76 164.05C128.827 164.05 129.777 164.275 130.61 164.725C131.444 165.158 132.102 165.817 132.585 166.7C133.069 167.583 133.31 168.658 133.31 169.925V178H131.06V170.25C131.06 168.883 130.719 167.842 130.035 167.125C129.369 166.392 128.46 166.025 127.31 166.025C126.127 166.025 125.185 166.408 124.485 167.175C123.785 167.925 123.435 169.017 123.435 170.45V178H121.185V170.25C121.185 168.883 120.844 167.842 120.16 167.125C119.494 166.392 118.585 166.025 117.435 166.025C116.252 166.025 115.31 166.408 114.61 167.175C113.91 167.925 113.56 169.017 113.56 170.45V178H111.285V164.3H113.56V166.275C114.01 165.558 114.61 165.008 115.36 164.625C116.127 164.242 116.969 164.05 117.885 164.05C119.035 164.05 120.052 164.308 120.935 164.825C121.819 165.342 122.477 166.1 122.91 167.1C123.294 166.133 123.927 165.383 124.81 164.85C125.694 164.317 126.677 164.05 127.76 164.05ZM139.317 166.85C139.784 166.033 140.467 165.367 141.367 164.85C142.267 164.333 143.292 164.075 144.442 164.075C145.676 164.075 146.784 164.367 147.767 164.95C148.751 165.533 149.526 166.358 150.092 167.425C150.659 168.475 150.942 169.7 150.942 171.1C150.942 172.483 150.659 173.717 150.092 174.8C149.526 175.883 148.742 176.725 147.742 177.325C146.759 177.925 145.659 178.225 144.442 178.225C143.259 178.225 142.217 177.967 141.317 177.45C140.434 176.933 139.767 176.275 139.317 175.475V178H137.042V159.5H139.317V166.85ZM148.617 171.1C148.617 170.067 148.409 169.167 147.992 168.4C147.576 167.633 147.009 167.05 146.292 166.65C145.592 166.25 144.817 166.05 143.967 166.05C143.134 166.05 142.359 166.258 141.642 166.675C140.942 167.075 140.376 167.667 139.942 168.45C139.526 169.217 139.317 170.108 139.317 171.125C139.317 172.158 139.526 173.067 139.942 173.85C140.376 174.617 140.942 175.208 141.642 175.625C142.359 176.025 143.134 176.225 143.967 176.225C144.817 176.225 145.592 176.025 146.292 175.625C147.009 175.208 147.576 174.617 147.992 173.85C148.409 173.067 148.617 172.15 148.617 171.1ZM166.437 170.625C166.437 171.058 166.412 171.517 166.362 172H155.412C155.495 173.35 155.953 174.408 156.787 175.175C157.637 175.925 158.662 176.3 159.862 176.3C160.845 176.3 161.662 176.075 162.312 175.625C162.978 175.158 163.445 174.542 163.712 173.775H166.162C165.795 175.092 165.062 176.167 163.962 177C162.862 177.817 161.495 178.225 159.862 178.225C158.562 178.225 157.395 177.933 156.362 177.35C155.345 176.767 154.545 175.942 153.962 174.875C153.378 173.792 153.087 172.542 153.087 171.125C153.087 169.708 153.37 168.467 153.937 167.4C154.503 166.333 155.295 165.517 156.312 164.95C157.345 164.367 158.528 164.075 159.862 164.075C161.162 164.075 162.312 164.358 163.312 164.925C164.312 165.492 165.078 166.275 165.612 167.275C166.162 168.258 166.437 169.375 166.437 170.625ZM164.087 170.15C164.087 169.283 163.895 168.542 163.512 167.925C163.128 167.292 162.603 166.817 161.937 166.5C161.287 166.167 160.562 166 159.762 166C158.612 166 157.628 166.367 156.812 167.1C156.012 167.833 155.553 168.85 155.437 170.15H164.087ZM171.715 166.525C172.115 165.742 172.681 165.133 173.415 164.7C174.165 164.267 175.073 164.05 176.14 164.05V166.4H175.54C172.99 166.4 171.715 167.783 171.715 170.55V178H169.44V164.3H171.715V166.525ZM184.616 182.65C183.016 181.083 181.766 179.092 180.866 176.675C179.982 174.258 179.541 171.65 179.541 168.85C179.541 165.983 180.007 163.308 180.941 160.825C181.891 158.325 183.241 156.267 184.991 154.65H187.366V154.875C185.499 156.625 184.091 158.733 183.141 161.2C182.207 163.65 181.741 166.2 181.741 168.85C181.741 171.433 182.182 173.9 183.066 176.25C183.966 178.6 185.274 180.658 186.991 182.425V182.65H184.616ZM193.043 168.6C192.11 168.233 191.393 167.7 190.893 167C190.393 166.3 190.143 165.45 190.143 164.45C190.143 163.55 190.368 162.742 190.818 162.025C191.268 161.292 191.935 160.717 192.818 160.3C193.718 159.867 194.802 159.65 196.068 159.65C197.335 159.65 198.41 159.867 199.293 160.3C200.193 160.717 200.868 161.292 201.318 162.025C201.785 162.742 202.018 163.55 202.018 164.45C202.018 165.417 201.76 166.267 201.243 167C200.727 167.717 200.018 168.25 199.118 168.6C200.152 168.917 200.968 169.475 201.568 170.275C202.185 171.058 202.493 172.008 202.493 173.125C202.493 174.208 202.227 175.158 201.693 175.975C201.16 176.775 200.402 177.4 199.418 177.85C198.452 178.283 197.335 178.5 196.068 178.5C194.802 178.5 193.685 178.283 192.718 177.85C191.768 177.4 191.027 176.775 190.493 175.975C189.96 175.158 189.693 174.208 189.693 173.125C189.693 172.008 189.993 171.05 190.593 170.25C191.193 169.45 192.01 168.9 193.043 168.6ZM199.818 164.725C199.818 163.708 199.485 162.925 198.818 162.375C198.152 161.825 197.235 161.55 196.068 161.55C194.918 161.55 194.01 161.825 193.343 162.375C192.677 162.925 192.343 163.717 192.343 164.75C192.343 165.683 192.685 166.433 193.368 167C194.068 167.567 194.968 167.85 196.068 167.85C197.185 167.85 198.085 167.567 198.768 167C199.468 166.417 199.818 165.658 199.818 164.725ZM196.068 169.6C194.835 169.6 193.827 169.892 193.043 170.475C192.26 171.042 191.868 171.9 191.868 173.05C191.868 174.117 192.243 174.975 192.993 175.625C193.76 176.275 194.785 176.6 196.068 176.6C197.352 176.6 198.368 176.275 199.118 175.625C199.868 174.975 200.243 174.117 200.243 173.05C200.243 171.933 199.86 171.083 199.093 170.5C198.327 169.9 197.318 169.6 196.068 169.6ZM205.165 182.65V182.425C206.882 180.658 208.182 178.6 209.065 176.25C209.965 173.9 210.415 171.433 210.415 168.85C210.415 166.2 209.94 163.65 208.99 161.2C208.057 158.733 206.657 156.625 204.79 154.875V154.65H207.165C208.915 156.267 210.257 158.325 211.19 160.825C212.14 163.308 212.615 165.983 212.615 168.85C212.615 171.65 212.165 174.258 211.265 176.675C210.382 179.092 209.14 181.083 207.54 182.65H205.165ZM218.567 167.425C218.134 167.425 217.767 167.275 217.467 166.975C217.167 166.675 217.017 166.308 217.017 165.875C217.017 165.442 217.167 165.075 217.467 164.775C217.767 164.475 218.134 164.325 218.567 164.325C218.984 164.325 219.334 164.475 219.617 164.775C219.917 165.075 220.067 165.442 220.067 165.875C220.067 166.308 219.917 166.675 219.617 166.975C219.334 167.275 218.984 167.425 218.567 167.425ZM220.217 174.85L217.417 181.575H215.892L217.717 174.85H220.217ZM44.2 204.85C44.6667 204.033 45.35 203.367 46.25 202.85C47.15 202.333 48.175 202.075 49.325 202.075C50.5583 202.075 51.6667 202.367 52.65 202.95C53.6333 203.533 54.4083 204.358 54.975 205.425C55.5417 206.475 55.825 207.7 55.825 209.1C55.825 210.483 55.5417 211.717 54.975 212.8C54.4083 213.883 53.625 214.725 52.625 215.325C51.6417 215.925 50.5417 216.225 49.325 216.225C48.1417 216.225 47.1 215.967 46.2 215.45C45.3167 214.933 44.65 214.275 44.2 213.475V216H41.925V197.5H44.2V204.85ZM53.5 209.1C53.5 208.067 53.2917 207.167 52.875 206.4C52.4583 205.633 51.8917 205.05 51.175 204.65C50.475 204.25 49.7 204.05 48.85 204.05C48.0167 204.05 47.2417 204.258 46.525 204.675C45.825 205.075 45.2583 205.667 44.825 206.45C44.4083 207.217 44.2 208.108 44.2 209.125C44.2 210.158 44.4083 211.067 44.825 211.85C45.2583 212.617 45.825 213.208 46.525 213.625C47.2417 214.025 48.0167 214.225 48.85 214.225C49.7 214.225 50.475 214.025 51.175 213.625C51.8917 213.208 52.4583 212.617 52.875 211.85C53.2917 211.067 53.5 210.15 53.5 209.1ZM71.3195 208.625C71.3195 209.058 71.2945 209.517 71.2445 210H60.2945C60.3779 211.35 60.8362 212.408 61.6695 213.175C62.5195 213.925 63.5445 214.3 64.7445 214.3C65.7279 214.3 66.5445 214.075 67.1945 213.625C67.8612 213.158 68.3279 212.542 68.5945 211.775H71.0445C70.6779 213.092 69.9445 214.167 68.8445 215C67.7445 215.817 66.3779 216.225 64.7445 216.225C63.4445 216.225 62.2779 215.933 61.2445 215.35C60.2279 214.767 59.4279 213.942 58.8445 212.875C58.2612 211.792 57.9695 210.542 57.9695 209.125C57.9695 207.708 58.2529 206.467 58.8195 205.4C59.3862 204.333 60.1779 203.517 61.1945 202.95C62.2279 202.367 63.4112 202.075 64.7445 202.075C66.0445 202.075 67.1945 202.358 68.1945 202.925C69.1945 203.492 69.9612 204.275 70.4945 205.275C71.0445 206.258 71.3195 207.375 71.3195 208.625ZM68.9695 208.15C68.9695 207.283 68.7779 206.542 68.3945 205.925C68.0112 205.292 67.4862 204.817 66.8195 204.5C66.1695 204.167 65.4445 204 64.6445 204C63.4945 204 62.5112 204.367 61.6945 205.1C60.8945 205.833 60.4362 206.85 60.3195 208.15H68.9695ZM79.9725 202.075C81.1558 202.075 82.1891 202.333 83.0725 202.85C83.9725 203.367 84.6391 204.017 85.0725 204.8V202.3H87.3725V216.3C87.3725 217.55 87.1058 218.658 86.5725 219.625C86.0391 220.608 85.2725 221.375 84.2725 221.925C83.2891 222.475 82.1391 222.75 80.8225 222.75C79.0225 222.75 77.5225 222.325 76.3225 221.475C75.1225 220.625 74.4141 219.467 74.1975 218H76.4475C76.6975 218.833 77.2141 219.5 77.9975 220C78.7808 220.517 79.7225 220.775 80.8225 220.775C82.0725 220.775 83.0891 220.383 83.8725 219.6C84.6725 218.817 85.0725 217.717 85.0725 216.3V213.425C84.6225 214.225 83.9558 214.892 83.0725 215.425C82.1891 215.958 81.1558 216.225 79.9725 216.225C78.7558 216.225 77.6475 215.925 76.6475 215.325C75.6641 214.725 74.8891 213.883 74.3225 212.8C73.7558 211.717 73.4725 210.483 73.4725 209.1C73.4725 207.7 73.7558 206.475 74.3225 205.425C74.8891 204.358 75.6641 203.533 76.6475 202.95C77.6475 202.367 78.7558 202.075 79.9725 202.075ZM85.0725 209.125C85.0725 208.092 84.8641 207.192 84.4475 206.425C84.0308 205.658 83.4641 205.075 82.7475 204.675C82.0475 204.258 81.2725 204.05 80.4225 204.05C79.5725 204.05 78.7975 204.25 78.0975 204.65C77.3975 205.05 76.8391 205.633 76.4225 206.4C76.0058 207.167 75.7975 208.067 75.7975 209.1C75.7975 210.15 76.0058 211.067 76.4225 211.85C76.8391 212.617 77.3975 213.208 78.0975 213.625C78.7975 214.025 79.5725 214.225 80.4225 214.225C81.2725 214.225 82.0475 214.025 82.7475 213.625C83.4641 213.208 84.0308 212.617 84.4475 211.85C84.8641 211.067 85.0725 210.158 85.0725 209.125ZM92.392 200.075C91.9587 200.075 91.592 199.925 91.292 199.625C90.992 199.325 90.842 198.958 90.842 198.525C90.842 198.092 90.992 197.725 91.292 197.425C91.592 197.125 91.9587 196.975 92.392 196.975C92.8087 196.975 93.1587 197.125 93.442 197.425C93.742 197.725 93.892 198.092 93.892 198.525C93.892 198.958 93.742 199.325 93.442 199.625C93.1587 199.925 92.8087 200.075 92.392 200.075ZM93.492 202.3V216H91.217V202.3H93.492ZM104.044 202.05C105.711 202.05 107.061 202.558 108.094 203.575C109.128 204.575 109.644 206.025 109.644 207.925V216H107.394V208.25C107.394 206.883 107.053 205.842 106.369 205.125C105.686 204.392 104.753 204.025 103.569 204.025C102.369 204.025 101.411 204.4 100.694 205.15C99.9943 205.9 99.6443 206.992 99.6443 208.425V216H97.3693V202.3H99.6443V204.25C100.094 203.55 100.703 203.008 101.469 202.625C102.253 202.242 103.111 202.05 104.044 202.05ZM48.6 240.05C50.2667 240.05 51.6167 240.558 52.65 241.575C53.6833 242.575 54.2 244.025 54.2 245.925V254H51.95V246.25C51.95 244.883 51.6083 243.842 50.925 243.125C50.2417 242.392 49.3083 242.025 48.125 242.025C46.925 242.025 45.9667 242.4 45.25 243.15C44.55 243.9 44.2 244.992 44.2 246.425V254H41.925V240.3H44.2V242.25C44.65 241.55 45.2583 241.008 46.025 240.625C46.8083 240.242 47.6667 240.05 48.6 240.05ZM57.4912 240.475C57.6079 238.942 58.1995 237.742 59.2662 236.875C60.3329 236.008 61.7162 235.575 63.4162 235.575C64.5495 235.575 65.5245 235.783 66.3412 236.2C67.1745 236.6 67.7995 237.15 68.2162 237.85C68.6495 238.55 68.8662 239.342 68.8662 240.225C68.8662 241.258 68.5662 242.15 67.9662 242.9C67.3829 243.65 66.6162 244.133 65.6662 244.35V244.475C66.7495 244.742 67.6079 245.267 68.2412 246.05C68.8745 246.833 69.1912 247.858 69.1912 249.125C69.1912 250.075 68.9745 250.933 68.5412 251.7C68.1079 252.45 67.4579 253.042 66.5912 253.475C65.7245 253.908 64.6829 254.125 63.4662 254.125C61.6995 254.125 60.2495 253.667 59.1162 252.75C57.9829 251.817 57.3495 250.5 57.2162 248.8H59.4162C59.5329 249.8 59.9412 250.617 60.6412 251.25C61.3412 251.883 62.2745 252.2 63.4412 252.2C64.6079 252.2 65.4912 251.9 66.0912 251.3C66.7079 250.683 67.0162 249.892 67.0162 248.925C67.0162 247.675 66.5995 246.775 65.7662 246.225C64.9329 245.675 63.6745 245.4 61.9912 245.4H61.4162V243.5H62.0162C63.5495 243.483 64.7079 243.233 65.4912 242.75C66.2745 242.25 66.6662 241.483 66.6662 240.45C66.6662 239.567 66.3745 238.858 65.7912 238.325C65.2245 237.792 64.4079 237.525 63.3412 237.525C62.3079 237.525 61.4745 237.792 60.8412 238.325C60.2079 238.858 59.8329 239.575 59.7162 240.475H57.4912ZM80.0279 254.15C79.5946 254.15 79.2279 254 78.9279 253.7C78.6279 253.4 78.4779 253.033 78.4779 252.6C78.4779 252.167 78.6279 251.8 78.9279 251.5C79.2279 251.2 79.5946 251.05 80.0279 251.05C80.4446 251.05 80.7946 251.2 81.0779 251.5C81.3779 251.8 81.5279 252.167 81.5279 252.6C81.5279 253.033 81.3779 253.4 81.0779 253.7C80.7946 254 80.4446 254.15 80.0279 254.15ZM80.0279 243.45C79.5946 243.45 79.2279 243.3 78.9279 243C78.6279 242.7 78.4779 242.333 78.4779 241.9C78.4779 241.467 78.6279 241.1 78.9279 240.8C79.2279 240.5 79.5946 240.35 80.0279 240.35C80.4446 240.35 80.7946 240.5 81.0779 240.8C81.3779 241.1 81.5279 241.467 81.5279 241.9C81.5279 242.333 81.3779 242.7 81.0779 243C80.7946 243.3 80.4446 243.45 80.0279 243.45ZM98.2252 241.2V243.125H85.2252V241.2H98.2252ZM98.2252 246.575V248.5H85.2252V246.575H98.2252ZM109.367 240.05C111.033 240.05 112.383 240.558 113.417 241.575C114.45 242.575 114.967 244.025 114.967 245.925V254H112.717V246.25C112.717 244.883 112.375 243.842 111.692 243.125C111.008 242.392 110.075 242.025 108.892 242.025C107.692 242.025 106.733 242.4 106.017 243.15C105.317 243.9 104.967 244.992 104.967 246.425V254H102.692V240.3H104.967V242.25C105.417 241.55 106.025 241.008 106.792 240.625C107.575 240.242 108.433 240.05 109.367 240.05ZM117.708 238V235.925H122.408V254H120.108V238H117.708ZM139.691 245.825H134.366V251.225H132.241V245.825H126.941V243.9H132.241V238.475H134.366V243.9H139.691V245.825ZM150.431 240.05C152.098 240.05 153.448 240.558 154.481 241.575C155.514 242.575 156.031 244.025 156.031 245.925V254H153.781V246.25C153.781 244.883 153.439 243.842 152.756 243.125C152.073 242.392 151.139 242.025 149.956 242.025C148.756 242.025 147.798 242.4 147.081 243.15C146.381 243.9 146.031 244.992 146.031 246.425V254H143.756V240.3H146.031V242.25C146.481 241.55 147.089 241.008 147.856 240.625C148.639 240.242 149.498 240.05 150.431 240.05ZM159.097 252.175C161.214 250.475 162.872 249.083 164.072 248C165.272 246.9 166.281 245.758 167.097 244.575C167.931 243.375 168.347 242.2 168.347 241.05C168.347 239.967 168.081 239.117 167.547 238.5C167.031 237.867 166.189 237.55 165.022 237.55C163.889 237.55 163.006 237.908 162.372 238.625C161.756 239.325 161.422 240.267 161.372 241.45H159.172C159.239 239.583 159.806 238.142 160.872 237.125C161.939 236.108 163.314 235.6 164.997 235.6C166.714 235.6 168.072 236.075 169.072 237.025C170.089 237.975 170.597 239.283 170.597 240.95C170.597 242.333 170.181 243.683 169.347 245C168.531 246.3 167.597 247.45 166.547 248.45C165.497 249.433 164.156 250.583 162.522 251.9H171.122V253.8H159.097V252.175ZM175.452 243.425C175.019 243.425 174.652 243.275 174.352 242.975C174.052 242.675 173.902 242.308 173.902 241.875C173.902 241.442 174.052 241.075 174.352 240.775C174.652 240.475 175.019 240.325 175.452 240.325C175.869 240.325 176.219 240.475 176.502 240.775C176.802 241.075 176.952 241.442 176.952 241.875C176.952 242.308 176.802 242.675 176.502 242.975C176.219 243.275 175.869 243.425 175.452 243.425ZM177.102 250.85L174.302 257.575H172.777L174.602 250.85H177.102ZM44.2 280.525C44.6 279.742 45.1667 279.133 45.9 278.7C46.65 278.267 47.5583 278.05 48.625 278.05V280.4H48.025C45.475 280.4 44.2 281.783 44.2 284.55V292H41.925V278.3H44.2V280.525ZM63.7512 284.625C63.7512 285.058 63.7262 285.517 63.6762 286H52.7262C52.8095 287.35 53.2678 288.408 54.1012 289.175C54.9512 289.925 55.9762 290.3 57.1762 290.3C58.1595 290.3 58.9762 290.075 59.6262 289.625C60.2928 289.158 60.7595 288.542 61.0262 287.775H63.4762C63.1095 289.092 62.3762 290.167 61.2762 291C60.1762 291.817 58.8095 292.225 57.1762 292.225C55.8762 292.225 54.7095 291.933 53.6762 291.35C52.6595 290.767 51.8595 289.942 51.2762 288.875C50.6928 287.792 50.4012 286.542 50.4012 285.125C50.4012 283.708 50.6845 282.467 51.2512 281.4C51.8178 280.333 52.6095 279.517 53.6262 278.95C54.6595 278.367 55.8428 278.075 57.1762 278.075C58.4762 278.075 59.6262 278.358 60.6262 278.925C61.6262 279.492 62.3928 280.275 62.9262 281.275C63.4762 282.258 63.7512 283.375 63.7512 284.625ZM61.4012 284.15C61.4012 283.283 61.2095 282.542 60.8262 281.925C60.4428 281.292 59.9178 280.817 59.2512 280.5C58.6012 280.167 57.8762 280 57.0762 280C55.9262 280 54.9428 280.367 54.1262 281.1C53.3262 281.833 52.8678 282.85 52.7512 284.15H61.4012ZM69.5291 280.175V288.25C69.5291 288.917 69.6708 289.392 69.9541 289.675C70.2374 289.942 70.7291 290.075 71.4291 290.075H73.1041V292H71.0541C69.7874 292 68.8374 291.708 68.2041 291.125C67.5708 290.542 67.2541 289.583 67.2541 288.25V280.175H65.4791V278.3H67.2541V274.85H69.5291V278.3H73.1041V280.175H69.5291ZM88.0105 278.3V292H85.7355V289.975C85.3022 290.675 84.6939 291.225 83.9105 291.625C83.1439 292.008 82.2939 292.2 81.3605 292.2C80.2939 292.2 79.3355 291.983 78.4855 291.55C77.6355 291.1 76.9605 290.433 76.4605 289.55C75.9772 288.667 75.7355 287.592 75.7355 286.325V278.3H77.9855V286.025C77.9855 287.375 78.3272 288.417 79.0105 289.15C79.6939 289.867 80.6272 290.225 81.8105 290.225C83.0272 290.225 83.9855 289.85 84.6855 289.1C85.3855 288.35 85.7355 287.258 85.7355 285.825V278.3H88.0105ZM94.1268 280.525C94.5268 279.742 95.0934 279.133 95.8268 278.7C96.5768 278.267 97.4851 278.05 98.5518 278.05V280.4H97.9518C95.4018 280.4 94.1268 281.783 94.1268 284.55V292H91.8518V278.3H94.1268V280.525ZM107.853 278.05C109.52 278.05 110.87 278.558 111.903 279.575C112.936 280.575 113.453 282.025 113.453 283.925V292H111.203V284.25C111.203 282.883 110.861 281.842 110.178 281.125C109.495 280.392 108.561 280.025 107.378 280.025C106.178 280.025 105.22 280.4 104.503 281.15C103.803 281.9 103.453 282.992 103.453 284.425V292H101.178V278.3H103.453V280.25C103.903 279.55 104.511 279.008 105.278 278.625C106.061 278.242 106.92 278.05 107.853 278.05ZM130.509 278.05C132.176 278.05 133.526 278.558 134.559 279.575C135.593 280.575 136.109 282.025 136.109 283.925V292H133.859V284.25C133.859 282.883 133.518 281.842 132.834 281.125C132.151 280.392 131.218 280.025 130.034 280.025C128.834 280.025 127.876 280.4 127.159 281.15C126.459 281.9 126.109 282.992 126.109 284.425V292H123.834V278.3H126.109V280.25C126.559 279.55 127.168 279.008 127.934 278.625C128.718 278.242 129.576 278.05 130.509 278.05ZM139.4 278.475C139.517 276.942 140.109 275.742 141.175 274.875C142.242 274.008 143.625 273.575 145.325 273.575C146.459 273.575 147.434 273.783 148.25 274.2C149.084 274.6 149.709 275.15 150.125 275.85C150.559 276.55 150.775 277.342 150.775 278.225C150.775 279.258 150.475 280.15 149.875 280.9C149.292 281.65 148.525 282.133 147.575 282.35V282.475C148.659 282.742 149.517 283.267 150.15 284.05C150.784 284.833 151.1 285.858 151.1 287.125C151.1 288.075 150.884 288.933 150.45 289.7C150.017 290.45 149.367 291.042 148.5 291.475C147.634 291.908 146.592 292.125 145.375 292.125C143.609 292.125 142.159 291.667 141.025 290.75C139.892 289.817 139.259 288.5 139.125 286.8H141.325C141.442 287.8 141.85 288.617 142.55 289.25C143.25 289.883 144.184 290.2 145.35 290.2C146.517 290.2 147.4 289.9 148 289.3C148.617 288.683 148.925 287.892 148.925 286.925C148.925 285.675 148.509 284.775 147.675 284.225C146.842 283.675 145.584 283.4 143.9 283.4H143.325V281.5H143.925C145.459 281.483 146.617 281.233 147.4 280.75C148.184 280.25 148.575 279.483 148.575 278.45C148.575 277.567 148.284 276.858 147.7 276.325C147.134 275.792 146.317 275.525 145.25 275.525C144.217 275.525 143.384 275.792 142.75 276.325C142.117 276.858 141.742 277.575 141.625 278.475H139.4ZM155.872 281.425C155.439 281.425 155.072 281.275 154.772 280.975C154.472 280.675 154.322 280.308 154.322 279.875C154.322 279.442 154.472 279.075 154.772 278.775C155.072 278.475 155.439 278.325 155.872 278.325C156.289 278.325 156.639 278.475 156.922 278.775C157.222 279.075 157.372 279.442 157.372 279.875C157.372 280.308 157.222 280.675 156.922 280.975C156.639 281.275 156.289 281.425 155.872 281.425ZM157.522 288.85L154.722 295.575H153.197L155.022 288.85H157.522ZM54.425 322.625C54.425 323.058 54.4 323.517 54.35 324H43.4C43.4833 325.35 43.9417 326.408 44.775 327.175C45.625 327.925 46.65 328.3 47.85 328.3C48.8333 328.3 49.65 328.075 50.3 327.625C50.9667 327.158 51.4333 326.542 51.7 325.775H54.15C53.7833 327.092 53.05 328.167 51.95 329C50.85 329.817 49.4833 330.225 47.85 330.225C46.55 330.225 45.3833 329.933 44.35 329.35C43.3333 328.767 42.5333 327.942 41.95 326.875C41.3667 325.792 41.075 324.542 41.075 323.125C41.075 321.708 41.3583 320.467 41.925 319.4C42.4917 318.333 43.2833 317.517 44.3 316.95C45.3333 316.367 46.5167 316.075 47.85 316.075C49.15 316.075 50.3 316.358 51.3 316.925C52.3 317.492 53.0667 318.275 53.6 319.275C54.15 320.258 54.425 321.375 54.425 322.625ZM52.075 322.15C52.075 321.283 51.8833 320.542 51.5 319.925C51.1167 319.292 50.5917 318.817 49.925 318.5C49.275 318.167 48.55 318 47.75 318C46.6 318 45.6167 318.367 44.8 319.1C44 319.833 43.5417 320.85 43.425 322.15H52.075ZM64.1029 316.05C65.7696 316.05 67.1196 316.558 68.1529 317.575C69.1863 318.575 69.7029 320.025 69.7029 321.925V330H67.4529V322.25C67.4529 320.883 67.1113 319.842 66.4279 319.125C65.7446 318.392 64.8113 318.025 63.6279 318.025C62.4279 318.025 61.4696 318.4 60.7529 319.15C60.0529 319.9 59.7029 320.992 59.7029 322.425V330H57.4279V316.3H59.7029V318.25C60.1529 317.55 60.7613 317.008 61.5279 316.625C62.3113 316.242 63.1696 316.05 64.1029 316.05ZM72.5691 323.1C72.5691 321.7 72.8525 320.475 73.4191 319.425C73.9858 318.358 74.7608 317.533 75.7441 316.95C76.7441 316.367 77.8608 316.075 79.0941 316.075C80.1608 316.075 81.1525 316.325 82.0691 316.825C82.9858 317.308 83.6858 317.95 84.1691 318.75V311.5H86.4691V330H84.1691V327.425C83.7191 328.242 83.0525 328.917 82.1691 329.45C81.2858 329.967 80.2525 330.225 79.0691 330.225C77.8525 330.225 76.7441 329.925 75.7441 329.325C74.7608 328.725 73.9858 327.883 73.4191 326.8C72.8525 325.717 72.5691 324.483 72.5691 323.1ZM84.1691 323.125C84.1691 322.092 83.9608 321.192 83.5441 320.425C83.1275 319.658 82.5608 319.075 81.8441 318.675C81.1441 318.258 80.3691 318.05 79.5191 318.05C78.6691 318.05 77.8941 318.25 77.1941 318.65C76.4941 319.05 75.9358 319.633 75.5191 320.4C75.1025 321.167 74.8941 322.067 74.8941 323.1C74.8941 324.15 75.1025 325.067 75.5191 325.85C75.9358 326.617 76.4941 327.208 77.1941 327.625C77.8941 328.025 78.6691 328.225 79.5191 328.225C80.3691 328.225 81.1441 328.025 81.8441 327.625C82.5608 327.208 83.1275 326.617 83.5441 325.85C83.9608 325.067 84.1691 324.158 84.1691 323.125ZM91.6387 319.425C91.2053 319.425 90.8387 319.275 90.5387 318.975C90.2387 318.675 90.0887 318.308 90.0887 317.875C90.0887 317.442 90.2387 317.075 90.5387 316.775C90.8387 316.475 91.2053 316.325 91.6387 316.325C92.0553 316.325 92.4053 316.475 92.6887 316.775C92.9887 317.075 93.1387 317.442 93.1387 317.875C93.1387 318.308 92.9887 318.675 92.6887 318.975C92.4053 319.275 92.0553 319.425 91.6387 319.425ZM93.2887 326.85L90.4887 333.575H88.9637L90.7887 326.85H93.2887Z" fill="black"/>
</g>
<defs>
<filter id="filter0_d_729_132" x="2" y="13" width="909" height="399" filterUnits="userSpaceOnUse" color-interpolation-filters="sRGB">
<feFlood flood-opacity="0" result="BackgroundImageFix"/>
<feColorMatrix in="SourceAlpha" type="matrix" values="0 0 0 0 0 0 0 0 0 0 0 0 0 0 0 0 0 0 127 0" result="hardAlpha"/>
<feOffset dy="12"/>
<feGaussianBlur stdDeviation="9"/>
<feComposite in2="hardAlpha" operator="out"/>
<feColorMatrix type="matrix" values="0 0 0 0 0.0196078 0 0 0 0 0.337255 0 0 0 0 0.952941 0 0 0 0.05 0"/>
<feBlend mode="normal" in2="BackgroundImageFix" result="effect1_dropShadow_729_132"/>
<feBlend mode="normal" in="SourceGraphic" in2="effect1_dropShadow_729_132" result="shape"/>
</filter>
<clipPath id="clip0_729_132">
<rect width="936" height="404" fill="white"/>
</clipPath>
</defs>
</svg>
