<svg width="142" height="434" viewBox="0 0 142 434" fill="none" xmlns="http://www.w3.org/2000/svg">
<g filter="url(#filter0_d_726_191)">
<rect width="134" height="426" transform="translate(4)" fill="black"/>
<path d="M19.275 38.175C21.3917 36.475 23.05 35.0833 24.25 34C25.45 32.9 26.4583 31.7583 27.275 30.575C28.1083 29.375 28.525 28.2 28.525 27.05C28.525 25.9667 28.2583 25.1167 27.725 24.5C27.2083 23.8667 26.3667 23.55 25.2 23.55C24.0667 23.55 23.1833 23.9083 22.55 24.625C21.9333 25.325 21.6 26.2667 21.55 27.45H19.35C19.4167 25.5833 19.9833 24.1417 21.05 23.125C22.1167 22.1083 23.4917 21.6 25.175 21.6C26.8917 21.6 28.25 22.075 29.25 23.025C30.2667 23.975 30.775 25.2833 30.775 26.95C30.775 28.3333 30.3583 29.6833 29.525 31C28.7083 32.3 27.775 33.45 26.725 34.45C25.675 35.4333 24.3333 36.5833 22.7 37.9H31.3V39.8H19.275V38.175ZM33.9299 30.775C33.9299 27.9083 34.3965 25.675 35.3299 24.075C36.2632 22.4583 37.8965 21.65 40.2299 21.65C42.5465 21.65 44.1715 22.4583 45.1049 24.075C46.0382 25.675 46.5049 27.9083 46.5049 30.775C46.5049 33.6917 46.0382 35.9583 45.1049 37.575C44.1715 39.1917 42.5465 40 40.2299 40C37.8965 40 36.2632 39.1917 35.3299 37.575C34.3965 35.9583 33.9299 33.6917 33.9299 30.775ZM44.2549 30.775C44.2549 29.325 44.1549 28.1 43.9549 27.1C43.7716 26.0833 43.3799 25.2667 42.7799 24.65C42.1965 24.0333 41.3465 23.725 40.2299 23.725C39.0965 23.725 38.2299 24.0333 37.6299 24.65C37.0465 25.2667 36.6549 26.0833 36.4549 27.1C36.2715 28.1 36.1799 29.325 36.1799 30.775C36.1799 32.275 36.2715 33.5333 36.4549 34.55C36.6549 35.5667 37.0465 36.3833 37.6299 37C38.2299 37.6167 39.0965 37.925 40.2299 37.925C41.3465 37.925 42.1965 37.6167 42.7799 37C43.3799 36.3833 43.7716 35.5667 43.9549 34.55C44.1549 33.5333 44.2549 32.275 44.2549 30.775ZM49.6281 30.775C49.6281 27.9083 50.0948 25.675 51.0281 24.075C51.9615 22.4583 53.5948 21.65 55.9281 21.65C58.2448 21.65 59.8698 22.4583 60.8031 24.075C61.7365 25.675 62.2031 27.9083 62.2031 30.775C62.2031 33.6917 61.7365 35.9583 60.8031 37.575C59.8698 39.1917 58.2448 40 55.9281 40C53.5948 40 51.9615 39.1917 51.0281 37.575C50.0948 35.9583 49.6281 33.6917 49.6281 30.775ZM59.9531 30.775C59.9531 29.325 59.8531 28.1 59.6531 27.1C59.4698 26.0833 59.0781 25.2667 58.4781 24.65C57.8948 24.0333 57.0448 23.725 55.9281 23.725C54.7948 23.725 53.9281 24.0333 53.3281 24.65C52.7448 25.2667 52.3531 26.0833 52.1531 27.1C51.9698 28.1 51.8781 29.325 51.8781 30.775C51.8781 32.275 51.9698 33.5333 52.1531 34.55C52.3531 35.5667 52.7448 36.3833 53.3281 37C53.9281 37.6167 54.7948 37.925 55.9281 37.925C57.0448 37.925 57.8948 37.6167 58.4781 37C59.0781 36.3833 59.4698 35.5667 59.6531 34.55C59.8531 33.5333 59.9531 32.275 59.9531 30.775ZM19 73.975V72.25L27.775 60.1H30.5V72H33V73.975H30.5V78H28.25V73.975H19ZM28.35 62.475L21.625 72H28.35V62.475ZM35.2727 68.775C35.2727 65.9083 35.7393 63.675 36.6727 62.075C37.606 60.4583 39.2393 59.65 41.5727 59.65C43.8893 59.65 45.5143 60.4583 46.4477 62.075C47.381 63.675 47.8477 65.9083 47.8477 68.775C47.8477 71.6917 47.381 73.9583 46.4477 75.575C45.5143 77.1917 43.8893 78 41.5727 78C39.2393 78 37.606 77.1917 36.6727 75.575C35.7393 73.9583 35.2727 71.6917 35.2727 68.775ZM45.5977 68.775C45.5977 67.325 45.4977 66.1 45.2977 65.1C45.1143 64.0833 44.7227 63.2667 44.1227 62.65C43.5393 62.0333 42.6893 61.725 41.5727 61.725C40.4393 61.725 39.5727 62.0333 38.9727 62.65C38.3893 63.2667 37.9977 64.0833 37.7977 65.1C37.6143 66.1 37.5227 67.325 37.5227 68.775C37.5227 70.275 37.6143 71.5333 37.7977 72.55C37.9977 73.5667 38.3893 74.3833 38.9727 75C39.5727 75.6167 40.4393 75.925 41.5727 75.925C42.6893 75.925 43.5393 75.6167 44.1227 75C44.7227 74.3833 45.1143 73.5667 45.2977 72.55C45.4977 71.5333 45.5977 70.275 45.5977 68.775ZM50.9709 68.775C50.9709 65.9083 51.4376 63.675 52.3709 62.075C53.3042 60.4583 54.9376 59.65 57.2709 59.65C59.5876 59.65 61.2126 60.4583 62.1459 62.075C63.0792 63.675 63.5459 65.9083 63.5459 68.775C63.5459 71.6917 63.0792 73.9583 62.1459 75.575C61.2126 77.1917 59.5876 78 57.2709 78C54.9376 78 53.3042 77.1917 52.3709 75.575C51.4376 73.9583 50.9709 71.6917 50.9709 68.775ZM61.2959 68.775C61.2959 67.325 61.1959 66.1 60.9959 65.1C60.8126 64.0833 60.4209 63.2667 59.8209 62.65C59.2376 62.0333 58.3876 61.725 57.2709 61.725C56.1376 61.725 55.2709 62.0333 54.6709 62.65C54.0876 63.2667 53.6959 64.0833 53.4959 65.1C53.3126 66.1 53.2209 67.325 53.2209 68.775C53.2209 70.275 53.3126 71.5333 53.4959 72.55C53.6959 73.5667 54.0876 74.3833 54.6709 75C55.2709 75.6167 56.1376 75.925 57.2709 75.925C58.3876 75.925 59.2376 75.6167 59.8209 75C60.4209 74.3833 60.8126 73.5667 60.9959 72.55C61.1959 71.5333 61.2959 70.275 61.2959 68.775ZM29.625 102.225C29.2583 100.375 28.1167 99.45 26.2 99.45C24.7167 99.45 23.6083 100.025 22.875 101.175C22.1417 102.308 21.7833 104.183 21.8 106.8C22.1833 105.933 22.8167 105.258 23.7 104.775C24.6 104.275 25.6 104.025 26.7 104.025C28.4167 104.025 29.7833 104.558 30.8 105.625C31.8333 106.692 32.35 108.167 32.35 110.05C32.35 111.183 32.125 112.2 31.675 113.1C31.2417 114 30.575 114.717 29.675 115.25C28.7917 115.783 27.7167 116.05 26.45 116.05C24.7333 116.05 23.3917 115.667 22.425 114.9C21.4583 114.133 20.7833 113.075 20.4 111.725C20.0167 110.375 19.825 108.708 19.825 106.725C19.825 100.608 21.9583 97.55 26.225 97.55C27.8583 97.55 29.1417 97.9917 30.075 98.875C31.0083 99.7583 31.5583 100.875 31.725 102.225H29.625ZM26.225 105.95C25.5083 105.95 24.8333 106.1 24.2 106.4C23.5667 106.683 23.05 107.125 22.65 107.725C22.2667 108.308 22.075 109.025 22.075 109.875C22.075 111.142 22.4417 112.175 23.175 112.975C23.9083 113.758 24.9583 114.15 26.325 114.15C27.4917 114.15 28.4167 113.792 29.1 113.075C29.8 112.342 30.15 111.358 30.15 110.125C30.15 108.825 29.8167 107.808 29.15 107.075C28.4833 106.325 27.5083 105.95 26.225 105.95ZM35.4191 106.775C35.4191 103.908 35.8858 101.675 36.8191 100.075C37.7525 98.4583 39.3858 97.65 41.7191 97.65C44.0358 97.65 45.6608 98.4583 46.5941 100.075C47.5275 101.675 47.9941 103.908 47.9941 106.775C47.9941 109.692 47.5275 111.958 46.5941 113.575C45.6608 115.192 44.0358 116 41.7191 116C39.3858 116 37.7525 115.192 36.8191 113.575C35.8858 111.958 35.4191 109.692 35.4191 106.775ZM45.7441 106.775C45.7441 105.325 45.6441 104.1 45.4441 103.1C45.2608 102.083 44.8691 101.267 44.2691 100.65C43.6858 100.033 42.8358 99.725 41.7191 99.725C40.5858 99.725 39.7191 100.033 39.1191 100.65C38.5358 101.267 38.1441 102.083 37.9441 103.1C37.7608 104.1 37.6691 105.325 37.6691 106.775C37.6691 108.275 37.7608 109.533 37.9441 110.55C38.1441 111.567 38.5358 112.383 39.1191 113C39.7191 113.617 40.5858 113.925 41.7191 113.925C42.8358 113.925 43.6858 113.617 44.2691 113C44.8691 112.383 45.2608 111.567 45.4441 110.55C45.6441 109.533 45.7441 108.275 45.7441 106.775ZM51.1174 106.775C51.1174 103.908 51.584 101.675 52.5174 100.075C53.4507 98.4583 55.084 97.65 57.4174 97.65C59.734 97.65 61.359 98.4583 62.2924 100.075C63.2257 101.675 63.6924 103.908 63.6924 106.775C63.6924 109.692 63.2257 111.958 62.2924 113.575C61.359 115.192 59.734 116 57.4174 116C55.084 116 53.4507 115.192 52.5174 113.575C51.584 111.958 51.1174 109.692 51.1174 106.775ZM61.4424 106.775C61.4424 105.325 61.3424 104.1 61.1424 103.1C60.9591 102.083 60.5674 101.267 59.9674 100.65C59.384 100.033 58.534 99.725 57.4174 99.725C56.284 99.725 55.4174 100.033 54.8174 100.65C54.234 101.267 53.8424 102.083 53.6424 103.1C53.459 104.1 53.3674 105.325 53.3674 106.775C53.3674 108.275 53.459 109.533 53.6424 110.55C53.8424 111.567 54.234 112.383 54.8174 113C55.4174 113.617 56.284 113.925 57.4174 113.925C58.534 113.925 59.384 113.617 59.9674 113C60.5674 112.383 60.9591 111.567 61.1424 110.55C61.3424 109.533 61.4424 108.275 61.4424 106.775ZM22.85 144.6C21.9167 144.233 21.2 143.7 20.7 143C20.2 142.3 19.95 141.45 19.95 140.45C19.95 139.55 20.175 138.742 20.625 138.025C21.075 137.292 21.7417 136.717 22.625 136.3C23.525 135.867 24.6083 135.65 25.875 135.65C27.1417 135.65 28.2167 135.867 29.1 136.3C30 136.717 30.675 137.292 31.125 138.025C31.5917 138.742 31.825 139.55 31.825 140.45C31.825 141.417 31.5667 142.267 31.05 143C30.5333 143.717 29.825 144.25 28.925 144.6C29.9583 144.917 30.775 145.475 31.375 146.275C31.9917 147.058 32.3 148.008 32.3 149.125C32.3 150.208 32.0333 151.158 31.5 151.975C30.9667 152.775 30.2083 153.4 29.225 153.85C28.2583 154.283 27.1417 154.5 25.875 154.5C24.6083 154.5 23.4917 154.283 22.525 153.85C21.575 153.4 20.8333 152.775 20.3 151.975C19.7667 151.158 19.5 150.208 19.5 149.125C19.5 148.008 19.8 147.05 20.4 146.25C21 145.45 21.8167 144.9 22.85 144.6ZM29.625 140.725C29.625 139.708 29.2917 138.925 28.625 138.375C27.9583 137.825 27.0417 137.55 25.875 137.55C24.725 137.55 23.8167 137.825 23.15 138.375C22.4833 138.925 22.15 139.717 22.15 140.75C22.15 141.683 22.4917 142.433 23.175 143C23.875 143.567 24.775 143.85 25.875 143.85C26.9917 143.85 27.8917 143.567 28.575 143C29.275 142.417 29.625 141.658 29.625 140.725ZM25.875 145.6C24.6417 145.6 23.6333 145.892 22.85 146.475C22.0667 147.042 21.675 147.9 21.675 149.05C21.675 150.117 22.05 150.975 22.8 151.625C23.5667 152.275 24.5917 152.6 25.875 152.6C27.1583 152.6 28.175 152.275 28.925 151.625C29.675 150.975 30.05 150.117 30.05 149.05C30.05 147.933 29.6667 147.083 28.9 146.5C28.1333 145.9 27.125 145.6 25.875 145.6ZM35.3215 144.775C35.3215 141.908 35.7882 139.675 36.7215 138.075C37.6548 136.458 39.2882 135.65 41.6215 135.65C43.9382 135.65 45.5632 136.458 46.4965 138.075C47.4298 139.675 47.8965 141.908 47.8965 144.775C47.8965 147.692 47.4298 149.958 46.4965 151.575C45.5632 153.192 43.9382 154 41.6215 154C39.2882 154 37.6548 153.192 36.7215 151.575C35.7882 149.958 35.3215 147.692 35.3215 144.775ZM45.6465 144.775C45.6465 143.325 45.5465 142.1 45.3465 141.1C45.1632 140.083 44.7715 139.267 44.1715 138.65C43.5882 138.033 42.7382 137.725 41.6215 137.725C40.4882 137.725 39.6215 138.033 39.0215 138.65C38.4382 139.267 38.0465 140.083 37.8465 141.1C37.6632 142.1 37.5715 143.325 37.5715 144.775C37.5715 146.275 37.6632 147.533 37.8465 148.55C38.0465 149.567 38.4382 150.383 39.0215 151C39.6215 151.617 40.4882 151.925 41.6215 151.925C42.7382 151.925 43.5882 151.617 44.1715 151C44.7715 150.383 45.1632 149.567 45.3465 148.55C45.5465 147.533 45.6465 146.275 45.6465 144.775ZM51.0197 144.775C51.0197 141.908 51.4864 139.675 52.4197 138.075C53.3531 136.458 54.9864 135.65 57.3197 135.65C59.6364 135.65 61.2614 136.458 62.1947 138.075C63.1281 139.675 63.5947 141.908 63.5947 144.775C63.5947 147.692 63.1281 149.958 62.1947 151.575C61.2614 153.192 59.6364 154 57.3197 154C54.9864 154 53.3531 153.192 52.4197 151.575C51.4864 149.958 51.0197 147.692 51.0197 144.775ZM61.3447 144.775C61.3447 143.325 61.2447 142.1 61.0447 141.1C60.8614 140.083 60.4697 139.267 59.8697 138.65C59.2864 138.033 58.4364 137.725 57.3197 137.725C56.1864 137.725 55.3197 138.033 54.7197 138.65C54.1364 139.267 53.7447 140.083 53.5447 141.1C53.3614 142.1 53.2697 143.325 53.2697 144.775C53.2697 146.275 53.3614 147.533 53.5447 148.55C53.7447 149.567 54.1364 150.383 54.7197 151C55.3197 151.617 56.1864 151.925 57.3197 151.925C58.4364 151.925 59.2864 151.617 59.8697 151C60.4697 150.383 60.8614 149.567 61.0447 148.55C61.2447 147.533 61.3447 146.275 61.3447 144.775ZM18.95 176V173.925H23.65V192H21.35V176H18.95ZM27.5578 182.775C27.5578 179.908 28.0245 177.675 28.9578 176.075C29.8911 174.458 31.5245 173.65 33.8578 173.65C36.1745 173.65 37.7995 174.458 38.7328 176.075C39.6661 177.675 40.1328 179.908 40.1328 182.775C40.1328 185.692 39.6661 187.958 38.7328 189.575C37.7995 191.192 36.1745 192 33.8578 192C31.5245 192 29.8911 191.192 28.9578 189.575C28.0245 187.958 27.5578 185.692 27.5578 182.775ZM37.8828 182.775C37.8828 181.325 37.7828 180.1 37.5828 179.1C37.3995 178.083 37.0078 177.267 36.4078 176.65C35.8245 176.033 34.9745 175.725 33.8578 175.725C32.7245 175.725 31.8578 176.033 31.2578 176.65C30.6745 177.267 30.2828 178.083 30.0828 179.1C29.8995 180.1 29.8078 181.325 29.8078 182.775C29.8078 184.275 29.8995 185.533 30.0828 186.55C30.2828 187.567 30.6745 188.383 31.2578 189C31.8578 189.617 32.7245 189.925 33.8578 189.925C34.9745 189.925 35.8245 189.617 36.4078 189C37.0078 188.383 37.3995 187.567 37.5828 186.55C37.7828 185.533 37.8828 184.275 37.8828 182.775ZM43.2561 182.775C43.2561 179.908 43.7227 177.675 44.6561 176.075C45.5894 174.458 47.2227 173.65 49.5561 173.65C51.8727 173.65 53.4977 174.458 54.4311 176.075C55.3644 177.675 55.8311 179.908 55.8311 182.775C55.8311 185.692 55.3644 187.958 54.4311 189.575C53.4977 191.192 51.8727 192 49.5561 192C47.2227 192 45.5894 191.192 44.6561 189.575C43.7227 187.958 43.2561 185.692 43.2561 182.775ZM53.5811 182.775C53.5811 181.325 53.4811 180.1 53.2811 179.1C53.0977 178.083 52.7061 177.267 52.1061 176.65C51.5227 176.033 50.6727 175.725 49.5561 175.725C48.4227 175.725 47.5561 176.033 46.9561 176.65C46.3727 177.267 45.9811 178.083 45.7811 179.1C45.5977 180.1 45.5061 181.325 45.5061 182.775C45.5061 184.275 45.5977 185.533 45.7811 186.55C45.9811 187.567 46.3727 188.383 46.9561 189C47.5561 189.617 48.4227 189.925 49.5561 189.925C50.6727 189.925 51.5227 189.617 52.1061 189C52.7061 188.383 53.0977 187.567 53.2811 186.55C53.4811 185.533 53.5811 184.275 53.5811 182.775ZM58.9543 182.775C58.9543 179.908 59.421 177.675 60.3543 176.075C61.2876 174.458 62.921 173.65 65.2543 173.65C67.571 173.65 69.196 174.458 70.1293 176.075C71.0626 177.675 71.5293 179.908 71.5293 182.775C71.5293 185.692 71.0626 187.958 70.1293 189.575C69.196 191.192 67.571 192 65.2543 192C62.921 192 61.2876 191.192 60.3543 189.575C59.421 187.958 58.9543 185.692 58.9543 182.775ZM69.2793 182.775C69.2793 181.325 69.1793 180.1 68.9793 179.1C68.796 178.083 68.4043 177.267 67.8043 176.65C67.221 176.033 66.371 175.725 65.2543 175.725C64.121 175.725 63.2543 176.033 62.6543 176.65C62.071 177.267 61.6793 178.083 61.4793 179.1C61.296 180.1 61.2043 181.325 61.2043 182.775C61.2043 184.275 61.296 185.533 61.4793 186.55C61.6793 187.567 62.071 188.383 62.6543 189C63.2543 189.617 64.121 189.925 65.2543 189.925C66.371 189.925 67.221 189.617 67.8043 189C68.4043 188.383 68.796 187.567 68.9793 186.55C69.1793 185.533 69.2793 184.275 69.2793 182.775ZM18.95 214V211.925H23.65V230H21.35V214H18.95ZM27.2828 228.175C29.3995 226.475 31.0578 225.083 32.2578 224C33.4578 222.9 34.4661 221.758 35.2828 220.575C36.1161 219.375 36.5328 218.2 36.5328 217.05C36.5328 215.967 36.2661 215.117 35.7328 214.5C35.2161 213.867 34.3745 213.55 33.2078 213.55C32.0745 213.55 31.1911 213.908 30.5578 214.625C29.9411 215.325 29.6078 216.267 29.5578 217.45H27.3578C27.4245 215.583 27.9911 214.142 29.0578 213.125C30.1245 212.108 31.4995 211.6 33.1828 211.6C34.8995 211.6 36.2578 212.075 37.2578 213.025C38.2745 213.975 38.7828 215.283 38.7828 216.95C38.7828 218.333 38.3661 219.683 37.5328 221C36.7161 222.3 35.7828 223.45 34.7328 224.45C33.6828 225.433 32.3411 226.583 30.7078 227.9H39.3078V229.8H27.2828V228.175ZM41.9377 220.775C41.9377 217.908 42.4044 215.675 43.3377 214.075C44.271 212.458 45.9044 211.65 48.2377 211.65C50.5544 211.65 52.1794 212.458 53.1127 214.075C54.046 215.675 54.5127 217.908 54.5127 220.775C54.5127 223.692 54.046 225.958 53.1127 227.575C52.1794 229.192 50.5544 230 48.2377 230C45.9044 230 44.271 229.192 43.3377 227.575C42.4044 225.958 41.9377 223.692 41.9377 220.775ZM52.2627 220.775C52.2627 219.325 52.1627 218.1 51.9627 217.1C51.7794 216.083 51.3877 215.267 50.7877 214.65C50.2044 214.033 49.3544 213.725 48.2377 213.725C47.1044 213.725 46.2377 214.033 45.6377 214.65C45.0544 215.267 44.6627 216.083 44.4627 217.1C44.2794 218.1 44.1877 219.325 44.1877 220.775C44.1877 222.275 44.2794 223.533 44.4627 224.55C44.6627 225.567 45.0544 226.383 45.6377 227C46.2377 227.617 47.1044 227.925 48.2377 227.925C49.3544 227.925 50.2044 227.617 50.7877 227C51.3877 226.383 51.7794 225.567 51.9627 224.55C52.1627 223.533 52.2627 222.275 52.2627 220.775ZM57.6359 220.775C57.6359 217.908 58.1026 215.675 59.0359 214.075C59.9693 212.458 61.6026 211.65 63.9359 211.65C66.2526 211.65 67.8776 212.458 68.8109 214.075C69.7443 215.675 70.2109 217.908 70.2109 220.775C70.2109 223.692 69.7443 225.958 68.8109 227.575C67.8776 229.192 66.2526 230 63.9359 230C61.6026 230 59.9693 229.192 59.0359 227.575C58.1026 225.958 57.6359 223.692 57.6359 220.775ZM67.9609 220.775C67.9609 219.325 67.8609 218.1 67.6609 217.1C67.4776 216.083 67.0859 215.267 66.4859 214.65C65.9026 214.033 65.0526 213.725 63.9359 213.725C62.8026 213.725 61.9359 214.033 61.3359 214.65C60.7526 215.267 60.3609 216.083 60.1609 217.1C59.9776 218.1 59.8859 219.325 59.8859 220.775C59.8859 222.275 59.9776 223.533 60.1609 224.55C60.3609 225.567 60.7526 226.383 61.3359 227C61.9359 227.617 62.8026 227.925 63.9359 227.925C65.0526 227.925 65.9026 227.617 66.4859 227C67.0859 226.383 67.4776 225.567 67.6609 224.55C67.8609 223.533 67.9609 222.275 67.9609 220.775ZM18.95 252V249.925H23.65V268H21.35V252H18.95ZM27.0078 263.975V262.25L35.7828 250.1H38.5078V262H41.0078V263.975H38.5078V268H36.2578V263.975H27.0078ZM36.3578 252.475L29.6328 262H36.3578V252.475ZM43.2805 258.775C43.2805 255.908 43.7471 253.675 44.6805 252.075C45.6138 250.458 47.2471 249.65 49.5805 249.65C51.8971 249.65 53.5221 250.458 54.4555 252.075C55.3888 253.675 55.8555 255.908 55.8555 258.775C55.8555 261.692 55.3888 263.958 54.4555 265.575C53.5221 267.192 51.8971 268 49.5805 268C47.2471 268 45.6138 267.192 44.6805 265.575C43.7471 263.958 43.2805 261.692 43.2805 258.775ZM53.6055 258.775C53.6055 257.325 53.5055 256.1 53.3055 255.1C53.1221 254.083 52.7305 253.267 52.1305 252.65C51.5471 252.033 50.6971 251.725 49.5805 251.725C48.4471 251.725 47.5805 252.033 46.9805 252.65C46.3971 253.267 46.0055 254.083 45.8055 255.1C45.6221 256.1 45.5305 257.325 45.5305 258.775C45.5305 260.275 45.6221 261.533 45.8055 262.55C46.0055 263.567 46.3971 264.383 46.9805 265C47.5805 265.617 48.4471 265.925 49.5805 265.925C50.6971 265.925 51.5471 265.617 52.1305 265C52.7305 264.383 53.1221 263.567 53.3055 262.55C53.5055 261.533 53.6055 260.275 53.6055 258.775ZM58.9787 258.775C58.9787 255.908 59.4454 253.675 60.3787 252.075C61.312 250.458 62.9454 249.65 65.2787 249.65C67.5954 249.65 69.2204 250.458 70.1537 252.075C71.087 253.675 71.5537 255.908 71.5537 258.775C71.5537 261.692 71.087 263.958 70.1537 265.575C69.2204 267.192 67.5954 268 65.2787 268C62.9454 268 61.312 267.192 60.3787 265.575C59.4454 263.958 58.9787 261.692 58.9787 258.775ZM69.3037 258.775C69.3037 257.325 69.2037 256.1 69.0037 255.1C68.8204 254.083 68.4287 253.267 67.8287 252.65C67.2454 252.033 66.3954 251.725 65.2787 251.725C64.1454 251.725 63.2787 252.033 62.6787 252.65C62.0954 253.267 61.7037 254.083 61.5037 255.1C61.3204 256.1 61.2287 257.325 61.2287 258.775C61.2287 260.275 61.3204 261.533 61.5037 262.55C61.7037 263.567 62.0954 264.383 62.6787 265C63.2787 265.617 64.1454 265.925 65.2787 265.925C66.3954 265.925 67.2454 265.617 67.8287 265C68.4287 264.383 68.8204 263.567 69.0037 262.55C69.2037 261.533 69.3037 260.275 69.3037 258.775ZM18.95 290V287.925H23.65V306H21.35V290H18.95ZM37.6328 292.225C37.2661 290.375 36.1245 289.45 34.2078 289.45C32.7245 289.45 31.6161 290.025 30.8828 291.175C30.1495 292.308 29.7911 294.183 29.8078 296.8C30.1911 295.933 30.8245 295.258 31.7078 294.775C32.6078 294.275 33.6078 294.025 34.7078 294.025C36.4245 294.025 37.7911 294.558 38.8078 295.625C39.8411 296.692 40.3578 298.167 40.3578 300.05C40.3578 301.183 40.1328 302.2 39.6828 303.1C39.2495 304 38.5828 304.717 37.6828 305.25C36.7995 305.783 35.7245 306.05 34.4578 306.05C32.7411 306.05 31.3995 305.667 30.4328 304.9C29.4661 304.133 28.7911 303.075 28.4078 301.725C28.0245 300.375 27.8328 298.708 27.8328 296.725C27.8328 290.608 29.9661 287.55 34.2328 287.55C35.8661 287.55 37.1495 287.992 38.0828 288.875C39.0161 289.758 39.5661 290.875 39.7328 292.225H37.6328ZM34.2328 295.95C33.5161 295.95 32.8411 296.1 32.2078 296.4C31.5745 296.683 31.0578 297.125 30.6578 297.725C30.2745 298.308 30.0828 299.025 30.0828 299.875C30.0828 301.142 30.4495 302.175 31.1828 302.975C31.9161 303.758 32.9661 304.15 34.3328 304.15C35.4995 304.15 36.4245 303.792 37.1078 303.075C37.8078 302.342 38.1578 301.358 38.1578 300.125C38.1578 298.825 37.8245 297.808 37.1578 297.075C36.4911 296.325 35.5161 295.95 34.2328 295.95ZM43.427 296.775C43.427 293.908 43.8936 291.675 44.827 290.075C45.7603 288.458 47.3936 287.65 49.727 287.65C52.0436 287.65 53.6686 288.458 54.602 290.075C55.5353 291.675 56.002 293.908 56.002 296.775C56.002 299.692 55.5353 301.958 54.602 303.575C53.6686 305.192 52.0436 306 49.727 306C47.3936 306 45.7603 305.192 44.827 303.575C43.8936 301.958 43.427 299.692 43.427 296.775ZM53.752 296.775C53.752 295.325 53.652 294.1 53.452 293.1C53.2686 292.083 52.877 291.267 52.277 290.65C51.6936 290.033 50.8436 289.725 49.727 289.725C48.5936 289.725 47.727 290.033 47.127 290.65C46.5436 291.267 46.152 292.083 45.952 293.1C45.7686 294.1 45.677 295.325 45.677 296.775C45.677 298.275 45.7686 299.533 45.952 300.55C46.152 301.567 46.5436 302.383 47.127 303C47.727 303.617 48.5936 303.925 49.727 303.925C50.8436 303.925 51.6936 303.617 52.277 303C52.877 302.383 53.2686 301.567 53.452 300.55C53.652 299.533 53.752 298.275 53.752 296.775ZM59.1252 296.775C59.1252 293.908 59.5919 291.675 60.5252 290.075C61.4585 288.458 63.0919 287.65 65.4252 287.65C67.7419 287.65 69.3669 288.458 70.3002 290.075C71.2335 291.675 71.7002 293.908 71.7002 296.775C71.7002 299.692 71.2335 301.958 70.3002 303.575C69.3669 305.192 67.7419 306 65.4252 306C63.0919 306 61.4585 305.192 60.5252 303.575C59.5919 301.958 59.1252 299.692 59.1252 296.775ZM69.4502 296.775C69.4502 295.325 69.3502 294.1 69.1502 293.1C68.9669 292.083 68.5752 291.267 67.9752 290.65C67.3919 290.033 66.5419 289.725 65.4252 289.725C64.2919 289.725 63.4252 290.033 62.8252 290.65C62.2419 291.267 61.8502 292.083 61.6502 293.1C61.4669 294.1 61.3752 295.325 61.3752 296.775C61.3752 298.275 61.4669 299.533 61.6502 300.55C61.8502 301.567 62.2419 302.383 62.8252 303C63.4252 303.617 64.2919 303.925 65.4252 303.925C66.5419 303.925 67.3919 303.617 67.9752 303C68.5752 302.383 68.9669 301.567 69.1502 300.55C69.3502 299.533 69.4502 298.275 69.4502 296.775ZM18.95 328V325.925H23.65V344H21.35V328H18.95ZM30.8578 334.6C29.9245 334.233 29.2078 333.7 28.7078 333C28.2078 332.3 27.9578 331.45 27.9578 330.45C27.9578 329.55 28.1828 328.742 28.6328 328.025C29.0828 327.292 29.7495 326.717 30.6328 326.3C31.5328 325.867 32.6161 325.65 33.8828 325.65C35.1495 325.65 36.2245 325.867 37.1078 326.3C38.0078 326.717 38.6828 327.292 39.1328 328.025C39.5995 328.742 39.8328 329.55 39.8328 330.45C39.8328 331.417 39.5745 332.267 39.0578 333C38.5411 333.717 37.8328 334.25 36.9328 334.6C37.9661 334.917 38.7828 335.475 39.3828 336.275C39.9995 337.058 40.3078 338.008 40.3078 339.125C40.3078 340.208 40.0411 341.158 39.5078 341.975C38.9745 342.775 38.2161 343.4 37.2328 343.85C36.2661 344.283 35.1495 344.5 33.8828 344.5C32.6161 344.5 31.4995 344.283 30.5328 343.85C29.5828 343.4 28.8411 342.775 28.3078 341.975C27.7745 341.158 27.5078 340.208 27.5078 339.125C27.5078 338.008 27.8078 337.05 28.4078 336.25C29.0078 335.45 29.8245 334.9 30.8578 334.6ZM37.6328 330.725C37.6328 329.708 37.2995 328.925 36.6328 328.375C35.9661 327.825 35.0495 327.55 33.8828 327.55C32.7328 327.55 31.8245 327.825 31.1578 328.375C30.4911 328.925 30.1578 329.717 30.1578 330.75C30.1578 331.683 30.4995 332.433 31.1828 333C31.8828 333.567 32.7828 333.85 33.8828 333.85C34.9995 333.85 35.8995 333.567 36.5828 333C37.2828 332.417 37.6328 331.658 37.6328 330.725ZM33.8828 335.6C32.6495 335.6 31.6411 335.892 30.8578 336.475C30.0745 337.042 29.6828 337.9 29.6828 339.05C29.6828 340.117 30.0578 340.975 30.8078 341.625C31.5745 342.275 32.5995 342.6 33.8828 342.6C35.1661 342.6 36.1828 342.275 36.9328 341.625C37.6828 340.975 38.0578 340.117 38.0578 339.05C38.0578 337.933 37.6745 337.083 36.9078 336.5C36.1411 335.9 35.1328 335.6 33.8828 335.6ZM43.3293 334.775C43.3293 331.908 43.796 329.675 44.7293 328.075C45.6626 326.458 47.296 325.65 49.6293 325.65C51.946 325.65 53.571 326.458 54.5043 328.075C55.4376 329.675 55.9043 331.908 55.9043 334.775C55.9043 337.692 55.4376 339.958 54.5043 341.575C53.571 343.192 51.946 344 49.6293 344C47.296 344 45.6626 343.192 44.7293 341.575C43.796 339.958 43.3293 337.692 43.3293 334.775ZM53.6543 334.775C53.6543 333.325 53.5543 332.1 53.3543 331.1C53.171 330.083 52.7793 329.267 52.1793 328.65C51.596 328.033 50.746 327.725 49.6293 327.725C48.496 327.725 47.6293 328.033 47.0293 328.65C46.446 329.267 46.0543 330.083 45.8543 331.1C45.671 332.1 45.5793 333.325 45.5793 334.775C45.5793 336.275 45.671 337.533 45.8543 338.55C46.0543 339.567 46.446 340.383 47.0293 341C47.6293 341.617 48.496 341.925 49.6293 341.925C50.746 341.925 51.596 341.617 52.1793 341C52.7793 340.383 53.171 339.567 53.3543 338.55C53.5543 337.533 53.6543 336.275 53.6543 334.775ZM59.0275 334.775C59.0275 331.908 59.4942 329.675 60.4275 328.075C61.3609 326.458 62.9942 325.65 65.3275 325.65C67.6442 325.65 69.2692 326.458 70.2025 328.075C71.1359 329.675 71.6025 331.908 71.6025 334.775C71.6025 337.692 71.1359 339.958 70.2025 341.575C69.2692 343.192 67.6442 344 65.3275 344C62.9942 344 61.3609 343.192 60.4275 341.575C59.4942 339.958 59.0275 337.692 59.0275 334.775ZM69.3525 334.775C69.3525 333.325 69.2525 332.1 69.0525 331.1C68.8692 330.083 68.4775 329.267 67.8775 328.65C67.2942 328.033 66.4442 327.725 65.3275 327.725C64.1942 327.725 63.3275 328.033 62.7275 328.65C62.1442 329.267 61.7525 330.083 61.5525 331.1C61.3692 332.1 61.2775 333.325 61.2775 334.775C61.2775 336.275 61.3692 337.533 61.5525 338.55C61.7525 339.567 62.1442 340.383 62.7275 341C63.3275 341.617 64.1942 341.925 65.3275 341.925C66.4442 341.925 67.2942 341.617 67.8775 341C68.4775 340.383 68.8692 339.567 69.0525 338.55C69.2525 337.533 69.3525 336.275 69.3525 334.775ZM19.275 380.175C21.3917 378.475 23.05 377.083 24.25 376C25.45 374.9 26.4583 373.758 27.275 372.575C28.1083 371.375 28.525 370.2 28.525 369.05C28.525 367.967 28.2583 367.117 27.725 366.5C27.2083 365.867 26.3667 365.55 25.2 365.55C24.0667 365.55 23.1833 365.908 22.55 366.625C21.9333 367.325 21.6 368.267 21.55 369.45H19.35C19.4167 367.583 19.9833 366.142 21.05 365.125C22.1167 364.108 23.4917 363.6 25.175 363.6C26.8917 363.6 28.25 364.075 29.25 365.025C30.2667 365.975 30.775 367.283 30.775 368.95C30.775 370.333 30.3583 371.683 29.525 373C28.7083 374.3 27.775 375.45 26.725 376.45C25.675 377.433 24.3333 378.583 22.7 379.9H31.3V381.8H19.275V380.175ZM33.9299 372.775C33.9299 369.908 34.3965 367.675 35.3299 366.075C36.2632 364.458 37.8965 363.65 40.2299 363.65C42.5465 363.65 44.1715 364.458 45.1049 366.075C46.0382 367.675 46.5049 369.908 46.5049 372.775C46.5049 375.692 46.0382 377.958 45.1049 379.575C44.1715 381.192 42.5465 382 40.2299 382C37.8965 382 36.2632 381.192 35.3299 379.575C34.3965 377.958 33.9299 375.692 33.9299 372.775ZM44.2549 372.775C44.2549 371.325 44.1549 370.1 43.9549 369.1C43.7716 368.083 43.3799 367.267 42.7799 366.65C42.1965 366.033 41.3465 365.725 40.2299 365.725C39.0965 365.725 38.2299 366.033 37.6299 366.65C37.0465 367.267 36.6549 368.083 36.4549 369.1C36.2715 370.1 36.1799 371.325 36.1799 372.775C36.1799 374.275 36.2715 375.533 36.4549 376.55C36.6549 377.567 37.0465 378.383 37.6299 379C38.2299 379.617 39.0965 379.925 40.2299 379.925C41.3465 379.925 42.1965 379.617 42.7799 379C43.3799 378.383 43.7716 377.567 43.9549 376.55C44.1549 375.533 44.2549 374.275 44.2549 372.775ZM49.6281 372.775C49.6281 369.908 50.0948 367.675 51.0281 366.075C51.9615 364.458 53.5948 363.65 55.9281 363.65C58.2448 363.65 59.8698 364.458 60.8031 366.075C61.7365 367.675 62.2031 369.908 62.2031 372.775C62.2031 375.692 61.7365 377.958 60.8031 379.575C59.8698 381.192 58.2448 382 55.9281 382C53.5948 382 51.9615 381.192 51.0281 379.575C50.0948 377.958 49.6281 375.692 49.6281 372.775ZM59.9531 372.775C59.9531 371.325 59.8531 370.1 59.6531 369.1C59.4698 368.083 59.0781 367.267 58.4781 366.65C57.8948 366.033 57.0448 365.725 55.9281 365.725C54.7948 365.725 53.9281 366.033 53.3281 366.65C52.7448 367.267 52.3531 368.083 52.1531 369.1C51.9698 370.1 51.8781 371.325 51.8781 372.775C51.8781 374.275 51.9698 375.533 52.1531 376.55C52.3531 377.567 52.7448 378.383 53.3281 379C53.9281 379.617 54.7948 379.925 55.9281 379.925C57.0448 379.925 57.8948 379.617 58.4781 379C59.0781 378.383 59.4698 377.567 59.6531 376.55C59.8531 375.533 59.9531 374.275 59.9531 372.775ZM65.3264 372.775C65.3264 369.908 65.793 367.675 66.7264 366.075C67.6597 364.458 69.293 363.65 71.6264 363.65C73.943 363.65 75.568 364.458 76.5014 366.075C77.4347 367.675 77.9014 369.908 77.9014 372.775C77.9014 375.692 77.4347 377.958 76.5014 379.575C75.568 381.192 73.943 382 71.6264 382C69.293 382 67.6597 381.192 66.7264 379.575C65.793 377.958 65.3264 375.692 65.3264 372.775ZM75.6514 372.775C75.6514 371.325 75.5514 370.1 75.3514 369.1C75.168 368.083 74.7764 367.267 74.1764 366.65C73.593 366.033 72.743 365.725 71.6264 365.725C70.493 365.725 69.6264 366.033 69.0264 366.65C68.443 367.267 68.0514 368.083 67.8514 369.1C67.668 370.1 67.5764 371.325 67.5764 372.775C67.5764 374.275 67.668 375.533 67.8514 376.55C68.0514 377.567 68.443 378.383 69.0264 379C69.6264 379.617 70.493 379.925 71.6264 379.925C72.743 379.925 73.593 379.617 74.1764 379C74.7764 378.383 75.168 377.567 75.3514 376.55C75.5514 375.533 75.6514 374.275 75.6514 372.775Z" fill="white"/>
</g>
<defs>
<filter id="filter0_d_726_191" x="0" y="0" width="142" height="434" filterUnits="userSpaceOnUse" color-interpolation-filters="sRGB">
<feFlood flood-opacity="0" result="BackgroundImageFix"/>
<feColorMatrix in="SourceAlpha" type="matrix" values="0 0 0 0 0 0 0 0 0 0 0 0 0 0 0 0 0 0 127 0" result="hardAlpha"/>
<feOffset dy="4"/>
<feGaussianBlur stdDeviation="2"/>
<feComposite in2="hardAlpha" operator="out"/>
<feColorMatrix type="matrix" values="0 0 0 0 0 0 0 0 0 0 0 0 0 0 0 0 0 0 0.25 0"/>
<feBlend mode="normal" in2="BackgroundImageFix" result="effect1_dropShadow_726_191"/>
<feBlend mode="normal" in="SourceGraphic" in2="effect1_dropShadow_726_191" result="shape"/>
</filter>
</defs>
</svg>
