<svg width="641" height="216" viewBox="0 0 641 216" fill="none" xmlns="http://www.w3.org/2000/svg">
<g filter="url(#filter0_d_721_120)">
<rect width="633" height="208" transform="translate(4)" fill="black"/>
<path d="M34.8599 24V21.925H39.5599V40H37.2599V24H34.8599ZM44.5677 40.15C44.1344 40.15 43.7677 40 43.4677 39.7C43.1677 39.4 43.0177 39.0333 43.0177 38.6C43.0177 38.1667 43.1677 37.8 43.4677 37.5C43.7677 37.2 44.1344 37.05 44.5677 37.05C44.9844 37.05 45.3344 37.2 45.6177 37.5C45.9177 37.8 46.0677 38.1667 46.0677 38.6C46.0677 39.0333 45.9177 39.4 45.6177 39.7C45.3344 40 44.9844 40.15 44.5677 40.15ZM66.6 40L62.45 32.875H59.7V40H57.425V22.575H63.05C64.3667 22.575 65.475 22.8 66.375 23.25C67.2917 23.7 67.975 24.3083 68.425 25.075C68.875 25.8417 69.1 26.7167 69.1 27.7C69.1 28.9 68.75 29.9583 68.05 30.875C67.3667 31.7917 66.3333 32.4 64.95 32.7L69.325 40H66.6ZM59.7 31.05H63.05C64.2833 31.05 65.2083 30.75 65.825 30.15C66.4417 29.5333 66.75 28.7167 66.75 27.7C66.75 26.6667 66.4417 25.8667 65.825 25.3C65.225 24.7333 64.3 24.45 63.05 24.45H59.7V31.05ZM71.785 33.1C71.785 31.7 72.0683 30.475 72.635 29.425C73.2016 28.3583 73.9766 27.5333 74.96 26.95C75.96 26.3667 77.0683 26.075 78.285 26.075C79.485 26.075 80.5266 26.3333 81.41 26.85C82.2933 27.3667 82.9516 28.0167 83.385 28.8V26.3H85.685V40H83.385V37.45C82.935 38.25 82.26 38.9167 81.36 39.45C80.4766 39.9667 79.4433 40.225 78.26 40.225C77.0433 40.225 75.9433 39.925 74.96 39.325C73.9766 38.725 73.2016 37.8833 72.635 36.8C72.0683 35.7167 71.785 34.4833 71.785 33.1ZM83.385 33.125C83.385 32.0917 83.1766 31.1917 82.76 30.425C82.3433 29.6583 81.7766 29.075 81.06 28.675C80.36 28.2583 79.585 28.05 78.735 28.05C77.885 28.05 77.11 28.25 76.41 28.65C75.71 29.05 75.1516 29.6333 74.735 30.4C74.3183 31.1667 74.11 32.0667 74.11 33.1C74.11 34.15 74.3183 35.0667 74.735 35.85C75.1516 36.6167 75.71 37.2083 76.41 37.625C77.11 38.025 77.885 38.225 78.735 38.225C79.585 38.225 80.36 38.025 81.06 37.625C81.7766 37.2083 82.3433 36.6167 82.76 35.85C83.1766 35.0667 83.385 34.1583 83.385 33.125ZM88.6795 33.1C88.6795 31.7 88.9628 30.475 89.5295 29.425C90.0962 28.3583 90.8712 27.5333 91.8545 26.95C92.8545 26.3667 93.9712 26.075 95.2045 26.075C96.2712 26.075 97.2628 26.325 98.1795 26.825C99.0962 27.3083 99.7962 27.95 100.279 28.75V21.5H102.579V40H100.279V37.425C99.8295 38.2417 99.1628 38.9167 98.2795 39.45C97.3962 39.9667 96.3628 40.225 95.1795 40.225C93.9628 40.225 92.8545 39.925 91.8545 39.325C90.8712 38.725 90.0962 37.8833 89.5295 36.8C88.9628 35.7167 88.6795 34.4833 88.6795 33.1ZM100.279 33.125C100.279 32.0917 100.071 31.1917 99.6545 30.425C99.2378 29.6583 98.6712 29.075 97.9545 28.675C97.2545 28.2583 96.4795 28.05 95.6295 28.05C94.7795 28.05 94.0045 28.25 93.3045 28.65C92.6045 29.05 92.0462 29.6333 91.6295 30.4C91.2128 31.1667 91.0045 32.0667 91.0045 33.1C91.0045 34.15 91.2128 35.0667 91.6295 35.85C92.0462 36.6167 92.6045 37.2083 93.3045 37.625C94.0045 38.025 94.7795 38.225 95.6295 38.225C96.4795 38.225 97.2545 38.025 97.9545 37.625C98.6712 37.2083 99.2378 36.6167 99.6545 35.85C100.071 35.0667 100.279 34.1583 100.279 33.125ZM107.599 24.075C107.166 24.075 106.799 23.925 106.499 23.625C106.199 23.325 106.049 22.9583 106.049 22.525C106.049 22.0917 106.199 21.725 106.499 21.425C106.799 21.125 107.166 20.975 107.599 20.975C108.016 20.975 108.366 21.125 108.649 21.425C108.949 21.725 109.099 22.0917 109.099 22.525C109.099 22.9583 108.949 23.325 108.649 23.625C108.366 23.925 108.016 24.075 107.599 24.075ZM108.699 26.3V40H106.424V26.3H108.699ZM124.726 26.3V40H122.451V37.975C122.018 38.675 121.41 39.225 120.626 39.625C119.86 40.0083 119.01 40.2 118.076 40.2C117.01 40.2 116.051 39.9833 115.201 39.55C114.351 39.1 113.676 38.4333 113.176 37.55C112.693 36.6667 112.451 35.5917 112.451 34.325V26.3H114.701V34.025C114.701 35.375 115.043 36.4167 115.726 37.15C116.41 37.8667 117.343 38.225 118.526 38.225C119.743 38.225 120.701 37.85 121.401 37.1C122.101 36.35 122.451 35.2583 122.451 33.825V26.3H124.726ZM133.418 40.225C132.368 40.225 131.426 40.05 130.593 39.7C129.759 39.3333 129.101 38.8333 128.618 38.2C128.134 37.55 127.868 36.8083 127.818 35.975H130.168C130.234 36.6583 130.551 37.2167 131.118 37.65C131.701 38.0833 132.459 38.3 133.393 38.3C134.259 38.3 134.943 38.1083 135.443 37.725C135.943 37.3417 136.193 36.8583 136.193 36.275C136.193 35.675 135.926 35.2333 135.393 34.95C134.859 34.65 134.034 34.3583 132.918 34.075C131.901 33.8083 131.068 33.5417 130.418 33.275C129.784 32.9917 129.234 32.5833 128.768 32.05C128.318 31.5 128.093 30.7833 128.093 29.9C128.093 29.2 128.301 28.5583 128.718 27.975C129.134 27.3917 129.726 26.9333 130.493 26.6C131.259 26.25 132.134 26.075 133.118 26.075C134.634 26.075 135.859 26.4583 136.793 27.225C137.726 27.9917 138.226 29.0417 138.293 30.375H136.018C135.968 29.6583 135.676 29.0833 135.143 28.65C134.626 28.2167 133.926 28 133.043 28C132.226 28 131.576 28.175 131.093 28.525C130.609 28.875 130.368 29.3333 130.368 29.9C130.368 30.35 130.509 30.725 130.793 31.025C131.093 31.3083 131.459 31.5417 131.893 31.725C132.343 31.8917 132.959 32.0833 133.743 32.3C134.726 32.5667 135.526 32.8333 136.143 33.1C136.759 33.35 137.284 33.7333 137.718 34.25C138.168 34.7667 138.401 35.4417 138.418 36.275C138.418 37.025 138.209 37.7 137.793 38.3C137.376 38.9 136.784 39.375 136.018 39.725C135.268 40.0583 134.401 40.225 133.418 40.225ZM142.354 40.15C141.921 40.15 141.554 40 141.254 39.7C140.954 39.4 140.804 39.0333 140.804 38.6C140.804 38.1667 140.954 37.8 141.254 37.5C141.554 37.2 141.921 37.05 142.354 37.05C142.771 37.05 143.121 37.2 143.404 37.5C143.704 37.8 143.854 38.1667 143.854 38.6C143.854 39.0333 143.704 39.4 143.404 39.7C143.121 40 142.771 40.15 142.354 40.15ZM142.354 29.45C141.921 29.45 141.554 29.3 141.254 29C140.954 28.7 140.804 28.3333 140.804 27.9C140.804 27.4667 140.954 27.1 141.254 26.8C141.554 26.5 141.921 26.35 142.354 26.35C142.771 26.35 143.121 26.5 143.404 26.8C143.704 27.1 143.854 27.4667 143.854 27.9C143.854 28.3333 143.704 28.7 143.404 29C143.121 29.3 142.771 29.45 142.354 29.45ZM156.166 35.15C156.333 36.1 156.716 36.8333 157.316 37.35C157.933 37.8667 158.758 38.125 159.791 38.125C161.175 38.125 162.191 37.5833 162.841 36.5C163.508 35.4167 163.825 33.5917 163.791 31.025C163.441 31.775 162.858 32.3667 162.041 32.8C161.225 33.2167 160.316 33.425 159.316 33.425C158.2 33.425 157.2 33.2 156.316 32.75C155.45 32.2833 154.766 31.6083 154.266 30.725C153.766 29.8417 153.516 28.775 153.516 27.525C153.516 25.7417 154.033 24.3083 155.066 23.225C156.1 22.125 157.566 21.575 159.466 21.575C161.8 21.575 163.433 22.3333 164.366 23.85C165.316 25.3667 165.791 27.625 165.791 30.625C165.791 32.725 165.6 34.4583 165.216 35.825C164.85 37.1917 164.216 38.2333 163.316 38.95C162.433 39.6667 161.216 40.025 159.666 40.025C157.966 40.025 156.641 39.5667 155.691 38.65C154.741 37.7333 154.2 36.5667 154.066 35.15H156.166ZM159.691 31.5C160.808 31.5 161.725 31.1583 162.441 30.475C163.158 29.775 163.516 28.8333 163.516 27.65C163.516 26.4 163.166 25.3917 162.466 24.625C161.766 23.8583 160.783 23.475 159.516 23.475C158.35 23.475 157.416 23.8417 156.716 24.575C156.033 25.3083 155.691 26.275 155.691 27.475C155.691 28.6917 156.033 29.6667 156.716 30.4C157.4 31.1333 158.391 31.5 159.691 31.5ZM170.088 40.15C169.655 40.15 169.288 40 168.988 39.7C168.688 39.4 168.538 39.0333 168.538 38.6C168.538 38.1667 168.688 37.8 168.988 37.5C169.288 37.2 169.655 37.05 170.088 37.05C170.505 37.05 170.855 37.2 171.138 37.5C171.438 37.8 171.588 38.1667 171.588 38.6C171.588 39.0333 171.438 39.4 171.138 39.7C170.855 40 170.505 40.15 170.088 40.15ZM185.763 23.9H176.988V29.6C177.371 29.0667 177.938 28.6333 178.688 28.3C179.438 27.95 180.246 27.775 181.113 27.775C182.496 27.775 183.621 28.0667 184.488 28.65C185.354 29.2167 185.971 29.9583 186.338 30.875C186.721 31.775 186.913 32.7333 186.913 33.75C186.913 34.95 186.688 36.025 186.238 36.975C185.788 37.925 185.096 38.675 184.163 39.225C183.246 39.775 182.104 40.05 180.738 40.05C178.988 40.05 177.571 39.6 176.488 38.7C175.404 37.8 174.746 36.6 174.513 35.1H176.738C176.954 36.05 177.413 36.7917 178.113 37.325C178.813 37.8583 179.696 38.125 180.763 38.125C182.079 38.125 183.071 37.7333 183.738 36.95C184.404 36.15 184.738 35.1 184.738 33.8C184.738 32.5 184.404 31.5 183.738 30.8C183.071 30.0833 182.088 29.725 180.788 29.725C179.904 29.725 179.129 29.9417 178.463 30.375C177.813 30.7917 177.338 31.3667 177.038 32.1H174.888V21.9H185.763V23.9ZM28.8128 76.175C30.9295 74.475 32.5878 73.0833 33.7878 72C34.9878 70.9 35.9962 69.7583 36.8128 68.575C37.6462 67.375 38.0628 66.2 38.0628 65.05C38.0628 63.9667 37.7962 63.1167 37.2628 62.5C36.7462 61.8667 35.9045 61.55 34.7378 61.55C33.6045 61.55 32.7212 61.9083 32.0878 62.625C31.4712 63.325 31.1378 64.2667 31.0878 65.45H28.8878C28.9545 63.5833 29.5212 62.1417 30.5878 61.125C31.6545 60.1083 33.0295 59.6 34.7128 59.6C36.4295 59.6 37.7878 60.075 38.7878 61.025C39.8045 61.975 40.3128 63.2833 40.3128 64.95C40.3128 66.3333 39.8962 67.6833 39.0628 69C38.2462 70.3 37.3128 71.45 36.2628 72.45C35.2128 73.4333 33.8712 74.5833 32.2378 75.9H40.8378V77.8H28.8128V76.175ZM44.5677 78.15C44.1344 78.15 43.7677 78 43.4677 77.7C43.1677 77.4 43.0177 77.0333 43.0177 76.6C43.0177 76.1667 43.1677 75.8 43.4677 75.5C43.7677 75.2 44.1344 75.05 44.5677 75.05C44.9844 75.05 45.3344 75.2 45.6177 75.5C45.9177 75.8 46.0677 76.1667 46.0677 76.6C46.0677 77.0333 45.9177 77.4 45.6177 77.7C45.3344 78 44.9844 78.15 44.5677 78.15ZM62.85 60.575C64.75 60.575 66.3917 60.9333 67.775 61.65C69.175 62.35 70.2417 63.3583 70.975 64.675C71.725 65.9917 72.1 67.5417 72.1 69.325C72.1 71.1083 71.725 72.6583 70.975 73.975C70.2417 75.275 69.175 76.275 67.775 76.975C66.3917 77.6583 64.75 78 62.85 78H57.425V60.575H62.85ZM62.85 76.125C65.1 76.125 66.8167 75.5333 68 74.35C69.1833 73.15 69.775 71.475 69.775 69.325C69.775 67.1583 69.175 65.4667 67.975 64.25C66.7917 63.0333 65.0833 62.425 62.85 62.425H59.7V76.125H62.85ZM76.2758 62.075C75.8424 62.075 75.4758 61.925 75.1758 61.625C74.8758 61.325 74.7258 60.9583 74.7258 60.525C74.7258 60.0917 74.8758 59.725 75.1758 59.425C75.4758 59.125 75.8424 58.975 76.2758 58.975C76.6924 58.975 77.0424 59.125 77.3258 59.425C77.6258 59.725 77.7758 60.0917 77.7758 60.525C77.7758 60.9583 77.6258 61.325 77.3258 61.625C77.0424 61.925 76.6924 62.075 76.2758 62.075ZM77.3758 64.3V78H75.1008V64.3H77.3758ZM80.4031 71.1C80.4031 69.7 80.6865 68.475 81.2531 67.425C81.8198 66.3583 82.5948 65.5333 83.5781 64.95C84.5781 64.3667 85.6865 64.075 86.9031 64.075C88.1031 64.075 89.1448 64.3333 90.0281 64.85C90.9115 65.3667 91.5698 66.0167 92.0031 66.8V64.3H94.3031V78H92.0031V75.45C91.5531 76.25 90.8781 76.9167 89.9781 77.45C89.0948 77.9667 88.0615 78.225 86.8781 78.225C85.6615 78.225 84.5615 77.925 83.5781 77.325C82.5948 76.725 81.8198 75.8833 81.2531 74.8C80.6865 73.7167 80.4031 72.4833 80.4031 71.1ZM92.0031 71.125C92.0031 70.0917 91.7948 69.1917 91.3781 68.425C90.9615 67.6583 90.3948 67.075 89.6781 66.675C88.9781 66.2583 88.2031 66.05 87.3531 66.05C86.5031 66.05 85.7281 66.25 85.0281 66.65C84.3281 67.05 83.7698 67.6333 83.3531 68.4C82.9365 69.1667 82.7281 70.0667 82.7281 71.1C82.7281 72.15 82.9365 73.0667 83.3531 73.85C83.7698 74.6167 84.3281 75.2083 85.0281 75.625C85.7281 76.025 86.5031 76.225 87.3531 76.225C88.2031 76.225 88.9781 76.025 89.6781 75.625C90.3948 75.2083 90.9615 74.6167 91.3781 73.85C91.7948 73.0667 92.0031 72.1583 92.0031 71.125ZM114.623 64.05C115.689 64.05 116.639 64.275 117.473 64.725C118.306 65.1583 118.964 65.8167 119.448 66.7C119.931 67.5833 120.173 68.6583 120.173 69.925V78H117.923V70.25C117.923 68.8833 117.581 67.8417 116.898 67.125C116.231 66.3917 115.323 66.025 114.173 66.025C112.989 66.025 112.048 66.4083 111.348 67.175C110.648 67.925 110.298 69.0167 110.298 70.45V78H108.048V70.25C108.048 68.8833 107.706 67.8417 107.023 67.125C106.356 66.3917 105.448 66.025 104.298 66.025C103.114 66.025 102.173 66.4083 101.473 67.175C100.773 67.925 100.423 69.0167 100.423 70.45V78H98.1477V64.3H100.423V66.275C100.873 65.5583 101.473 65.0083 102.223 64.625C102.989 64.2417 103.831 64.05 104.748 64.05C105.898 64.05 106.914 64.3083 107.798 64.825C108.681 65.3417 109.339 66.1 109.773 67.1C110.156 66.1333 110.789 65.3833 111.673 64.85C112.556 64.3167 113.539 64.05 114.623 64.05ZM136.404 70.625C136.404 71.0583 136.379 71.5167 136.329 72H125.379C125.463 73.35 125.921 74.4083 126.754 75.175C127.604 75.925 128.629 76.3 129.829 76.3C130.813 76.3 131.629 76.075 132.279 75.625C132.946 75.1583 133.413 74.5417 133.679 73.775H136.129C135.763 75.0917 135.029 76.1667 133.929 77C132.829 77.8167 131.463 78.225 129.829 78.225C128.529 78.225 127.363 77.9333 126.329 77.35C125.313 76.7667 124.513 75.9417 123.929 74.875C123.346 73.7917 123.054 72.5417 123.054 71.125C123.054 69.7083 123.338 68.4667 123.904 67.4C124.471 66.3333 125.263 65.5167 126.279 64.95C127.313 64.3667 128.496 64.075 129.829 64.075C131.129 64.075 132.279 64.3583 133.279 64.925C134.279 65.4917 135.046 66.275 135.579 67.275C136.129 68.2583 136.404 69.375 136.404 70.625ZM134.054 70.15C134.054 69.2833 133.863 68.5417 133.479 67.925C133.096 67.2917 132.571 66.8167 131.904 66.5C131.254 66.1667 130.529 66 129.729 66C128.579 66 127.596 66.3667 126.779 67.1C125.979 67.8333 125.521 68.85 125.404 70.15H134.054ZM142.182 66.175V74.25C142.182 74.9167 142.324 75.3917 142.607 75.675C142.891 75.9417 143.382 76.075 144.082 76.075H145.757V78H143.707C142.441 78 141.491 77.7083 140.857 77.125C140.224 76.5417 139.907 75.5833 139.907 74.25V66.175H138.132V64.3H139.907V60.85H142.182V64.3H145.757V66.175H142.182ZM161.014 70.625C161.014 71.0583 160.989 71.5167 160.939 72H149.989C150.072 73.35 150.531 74.4083 151.364 75.175C152.214 75.925 153.239 76.3 154.439 76.3C155.422 76.3 156.239 76.075 156.889 75.625C157.556 75.1583 158.022 74.5417 158.289 73.775H160.739C160.372 75.0917 159.639 76.1667 158.539 77C157.439 77.8167 156.072 78.225 154.439 78.225C153.139 78.225 151.972 77.9333 150.939 77.35C149.922 76.7667 149.122 75.9417 148.539 74.875C147.956 73.7917 147.664 72.5417 147.664 71.125C147.664 69.7083 147.947 68.4667 148.514 67.4C149.081 66.3333 149.872 65.5167 150.889 64.95C151.922 64.3667 153.106 64.075 154.439 64.075C155.739 64.075 156.889 64.3583 157.889 64.925C158.889 65.4917 159.656 66.275 160.189 67.275C160.739 68.2583 161.014 69.375 161.014 70.625ZM158.664 70.15C158.664 69.2833 158.472 68.5417 158.089 67.925C157.706 67.2917 157.181 66.8167 156.514 66.5C155.864 66.1667 155.139 66 154.339 66C153.189 66 152.206 66.3667 151.389 67.1C150.589 67.8333 150.131 68.85 150.014 70.15H158.664ZM166.292 66.525C166.692 65.7417 167.258 65.1333 167.992 64.7C168.742 64.2667 169.65 64.05 170.717 64.05V66.4H170.117C167.567 66.4 166.292 67.7833 166.292 70.55V78H164.017V64.3H166.292V66.525ZM174.068 78.15C173.635 78.15 173.268 78 172.968 77.7C172.668 77.4 172.518 77.0333 172.518 76.6C172.518 76.1667 172.668 75.8 172.968 75.5C173.268 75.2 173.635 75.05 174.068 75.05C174.485 75.05 174.835 75.2 175.118 75.5C175.418 75.8 175.568 76.1667 175.568 76.6C175.568 77.0333 175.418 77.4 175.118 77.7C174.835 78 174.485 78.15 174.068 78.15ZM174.068 67.45C173.635 67.45 173.268 67.3 172.968 67C172.668 66.7 172.518 66.3333 172.518 65.9C172.518 65.4667 172.668 65.1 172.968 64.8C173.268 64.5 173.635 64.35 174.068 64.35C174.485 64.35 174.835 64.5 175.118 64.8C175.418 65.1 175.568 65.4667 175.568 65.9C175.568 66.3333 175.418 66.7 175.118 67C174.835 67.3 174.485 67.45 174.068 67.45ZM184.355 62V59.925H189.055V78H186.755V62H184.355ZM195.888 73.15C196.055 74.1 196.438 74.8333 197.038 75.35C197.655 75.8667 198.48 76.125 199.513 76.125C200.896 76.125 201.913 75.5833 202.563 74.5C203.23 73.4167 203.546 71.5917 203.513 69.025C203.163 69.775 202.58 70.3667 201.763 70.8C200.946 71.2167 200.038 71.425 199.038 71.425C197.921 71.425 196.921 71.2 196.038 70.75C195.171 70.2833 194.488 69.6083 193.988 68.725C193.488 67.8417 193.238 66.775 193.238 65.525C193.238 63.7417 193.755 62.3083 194.788 61.225C195.821 60.125 197.288 59.575 199.188 59.575C201.521 59.575 203.155 60.3333 204.088 61.85C205.038 63.3667 205.513 65.625 205.513 68.625C205.513 70.725 205.321 72.4583 204.938 73.825C204.571 75.1917 203.938 76.2333 203.038 76.95C202.155 77.6667 200.938 78.025 199.388 78.025C197.688 78.025 196.363 77.5667 195.413 76.65C194.463 75.7333 193.921 74.5667 193.788 73.15H195.888ZM199.413 69.5C200.53 69.5 201.446 69.1583 202.163 68.475C202.88 67.775 203.238 66.8333 203.238 65.65C203.238 64.4 202.888 63.3917 202.188 62.625C201.488 61.8583 200.505 61.475 199.238 61.475C198.071 61.475 197.138 61.8417 196.438 62.575C195.755 63.3083 195.413 64.275 195.413 65.475C195.413 66.6917 195.755 67.6667 196.438 68.4C197.121 69.1333 198.113 69.5 199.413 69.5ZM28.696 102.475C28.8127 100.942 29.4044 99.7417 30.471 98.875C31.5377 98.0083 32.921 97.575 34.621 97.575C35.7544 97.575 36.7294 97.7833 37.546 98.2C38.3794 98.6 39.0044 99.15 39.421 99.85C39.8544 100.55 40.071 101.342 40.071 102.225C40.071 103.258 39.771 104.15 39.171 104.9C38.5877 105.65 37.821 106.133 36.871 106.35V106.475C37.9544 106.742 38.8127 107.267 39.446 108.05C40.0794 108.833 40.396 109.858 40.396 111.125C40.396 112.075 40.1794 112.933 39.746 113.7C39.3127 114.45 38.6627 115.042 37.796 115.475C36.9294 115.908 35.8877 116.125 34.671 116.125C32.9044 116.125 31.4544 115.667 30.321 114.75C29.1877 113.817 28.5544 112.5 28.421 110.8H30.621C30.7377 111.8 31.146 112.617 31.846 113.25C32.546 113.883 33.4794 114.2 34.646 114.2C35.8127 114.2 36.696 113.9 37.296 113.3C37.9127 112.683 38.221 111.892 38.221 110.925C38.221 109.675 37.8044 108.775 36.971 108.225C36.1377 107.675 34.8794 107.4 33.196 107.4H32.621V105.5H33.221C34.7544 105.483 35.9127 105.233 36.696 104.75C37.4794 104.25 37.871 103.483 37.871 102.45C37.871 101.567 37.5794 100.858 36.996 100.325C36.4294 99.7917 35.6127 99.525 34.546 99.525C33.5127 99.525 32.6794 99.7917 32.046 100.325C31.4127 100.858 31.0377 101.575 30.921 102.475H28.696ZM44.5677 116.15C44.1344 116.15 43.7677 116 43.4677 115.7C43.1677 115.4 43.0177 115.033 43.0177 114.6C43.0177 114.167 43.1677 113.8 43.4677 113.5C43.7677 113.2 44.1344 113.05 44.5677 113.05C44.9844 113.05 45.3344 113.2 45.6177 113.5C45.9177 113.8 46.0677 114.167 46.0677 114.6C46.0677 115.033 45.9177 115.4 45.6177 115.7C45.3344 116 44.9844 116.15 44.5677 116.15ZM56.575 107.275C56.575 105.575 56.9583 104.05 57.725 102.7C58.4917 101.333 59.5333 100.267 60.85 99.5C62.1833 98.7333 63.6583 98.35 65.275 98.35C67.175 98.35 68.8333 98.8083 70.25 99.725C71.6667 100.642 72.7 101.942 73.35 103.625H70.625C70.1417 102.575 69.4417 101.767 68.525 101.2C67.625 100.633 66.5417 100.35 65.275 100.35C64.0583 100.35 62.9667 100.633 62 101.2C61.0333 101.767 60.275 102.575 59.725 103.625C59.175 104.658 58.9 105.875 58.9 107.275C58.9 108.658 59.175 109.875 59.725 110.925C60.275 111.958 61.0333 112.758 62 113.325C62.9667 113.892 64.0583 114.175 65.275 114.175C66.5417 114.175 67.625 113.9 68.525 113.35C69.4417 112.783 70.1417 111.975 70.625 110.925H73.35C72.7 112.592 71.6667 113.883 70.25 114.8C68.8333 115.7 67.175 116.15 65.275 116.15C63.6583 116.15 62.1833 115.775 60.85 115.025C59.5333 114.258 58.4917 113.2 57.725 111.85C56.9583 110.5 56.575 108.975 56.575 107.275ZM77.9115 100.075C77.4782 100.075 77.1115 99.925 76.8115 99.625C76.5115 99.325 76.3615 98.9583 76.3615 98.525C76.3615 98.0917 76.5115 97.725 76.8115 97.425C77.1115 97.125 77.4782 96.975 77.9115 96.975C78.3282 96.975 78.6782 97.125 78.9615 97.425C79.2615 97.725 79.4115 98.0917 79.4115 98.525C79.4115 98.9583 79.2615 99.325 78.9615 99.625C78.6782 99.925 78.3282 100.075 77.9115 100.075ZM79.0115 102.3V116H76.7365V102.3H79.0115ZM85.1639 104.525C85.5639 103.742 86.1305 103.133 86.8639 102.7C87.6139 102.267 88.5222 102.05 89.5889 102.05V104.4H88.9889C86.4389 104.4 85.1639 105.783 85.1639 108.55V116H82.8889V102.3H85.1639V104.525ZM91.365 109.125C91.365 107.708 91.6484 106.475 92.215 105.425C92.7817 104.358 93.565 103.533 94.565 102.95C95.5817 102.367 96.74 102.075 98.04 102.075C99.7234 102.075 101.107 102.483 102.19 103.3C103.29 104.117 104.015 105.25 104.365 106.7H101.915C101.682 105.867 101.223 105.208 100.54 104.725C99.8734 104.242 99.04 104 98.04 104C96.74 104 95.69 104.45 94.89 105.35C94.09 106.233 93.69 107.492 93.69 109.125C93.69 110.775 94.09 112.05 94.89 112.95C95.69 113.85 96.74 114.3 98.04 114.3C99.04 114.3 99.8734 114.067 100.54 113.6C101.207 113.133 101.665 112.467 101.915 111.6H104.365C103.998 113 103.265 114.125 102.165 114.975C101.065 115.808 99.69 116.225 98.04 116.225C96.74 116.225 95.5817 115.933 94.565 115.35C93.565 114.767 92.7817 113.942 92.215 112.875C91.6484 111.808 91.365 110.558 91.365 109.125ZM119.551 102.3V116H117.276V113.975C116.842 114.675 116.234 115.225 115.451 115.625C114.684 116.008 113.834 116.2 112.901 116.2C111.834 116.2 110.876 115.983 110.026 115.55C109.176 115.1 108.501 114.433 108.001 113.55C107.517 112.667 107.276 111.592 107.276 110.325V102.3H109.526V110.025C109.526 111.375 109.867 112.417 110.551 113.15C111.234 113.867 112.167 114.225 113.351 114.225C114.567 114.225 115.526 113.85 116.226 113.1C116.926 112.35 117.276 111.258 117.276 109.825V102.3H119.551ZM139.867 102.05C140.933 102.05 141.883 102.275 142.717 102.725C143.55 103.158 144.208 103.817 144.692 104.7C145.175 105.583 145.417 106.658 145.417 107.925V116H143.167V108.25C143.167 106.883 142.825 105.842 142.142 105.125C141.475 104.392 140.567 104.025 139.417 104.025C138.233 104.025 137.292 104.408 136.592 105.175C135.892 105.925 135.542 107.017 135.542 108.45V116H133.292V108.25C133.292 106.883 132.95 105.842 132.267 105.125C131.6 104.392 130.692 104.025 129.542 104.025C128.358 104.025 127.417 104.408 126.717 105.175C126.017 105.925 125.667 107.017 125.667 108.45V116H123.392V102.3H125.667V104.275C126.117 103.558 126.717 103.008 127.467 102.625C128.233 102.242 129.075 102.05 129.992 102.05C131.142 102.05 132.158 102.308 133.042 102.825C133.925 103.342 134.583 104.1 135.017 105.1C135.4 104.133 136.033 103.383 136.917 102.85C137.8 102.317 138.783 102.05 139.867 102.05ZM154.724 104.175H151.849V116H149.574V104.175H147.799V102.3H149.574V101.325C149.574 99.7917 149.965 98.675 150.749 97.975C151.549 97.2583 152.824 96.9 154.574 96.9V98.8C153.574 98.8 152.865 99 152.449 99.4C152.049 99.7833 151.849 100.425 151.849 101.325V102.3H154.724V104.175ZM169.876 108.625C169.876 109.058 169.851 109.517 169.801 110H158.851C158.935 111.35 159.393 112.408 160.226 113.175C161.076 113.925 162.101 114.3 163.301 114.3C164.285 114.3 165.101 114.075 165.751 113.625C166.418 113.158 166.885 112.542 167.151 111.775H169.601C169.235 113.092 168.501 114.167 167.401 115C166.301 115.817 164.935 116.225 163.301 116.225C162.001 116.225 160.835 115.933 159.801 115.35C158.785 114.767 157.985 113.942 157.401 112.875C156.818 111.792 156.526 110.542 156.526 109.125C156.526 107.708 156.81 106.467 157.376 105.4C157.943 104.333 158.735 103.517 159.751 102.95C160.785 102.367 161.968 102.075 163.301 102.075C164.601 102.075 165.751 102.358 166.751 102.925C167.751 103.492 168.518 104.275 169.051 105.275C169.601 106.258 169.876 107.375 169.876 108.625ZM167.526 108.15C167.526 107.283 167.335 106.542 166.951 105.925C166.568 105.292 166.043 104.817 165.376 104.5C164.726 104.167 164.001 104 163.201 104C162.051 104 161.068 104.367 160.251 105.1C159.451 105.833 158.993 106.85 158.876 108.15H167.526ZM175.154 104.525C175.554 103.742 176.121 103.133 176.854 102.7C177.604 102.267 178.512 102.05 179.579 102.05V104.4H178.979C176.429 104.4 175.154 105.783 175.154 108.55V116H172.879V102.3H175.154V104.525ZM194.705 108.625C194.705 109.058 194.68 109.517 194.63 110H183.68C183.764 111.35 184.222 112.408 185.055 113.175C185.905 113.925 186.93 114.3 188.13 114.3C189.114 114.3 189.93 114.075 190.58 113.625C191.247 113.158 191.714 112.542 191.98 111.775H194.43C194.064 113.092 193.33 114.167 192.23 115C191.13 115.817 189.764 116.225 188.13 116.225C186.83 116.225 185.664 115.933 184.63 115.35C183.614 114.767 182.814 113.942 182.23 112.875C181.647 111.792 181.355 110.542 181.355 109.125C181.355 107.708 181.639 106.467 182.205 105.4C182.772 104.333 183.564 103.517 184.58 102.95C185.614 102.367 186.797 102.075 188.13 102.075C189.43 102.075 190.58 102.358 191.58 102.925C192.58 103.492 193.347 104.275 193.88 105.275C194.43 106.258 194.705 107.375 194.705 108.625ZM192.355 108.15C192.355 107.283 192.164 106.542 191.78 105.925C191.397 105.292 190.872 104.817 190.205 104.5C189.555 104.167 188.83 104 188.03 104C186.88 104 185.897 104.367 185.08 105.1C184.28 105.833 183.822 106.85 183.705 108.15H192.355ZM204.383 102.05C206.05 102.05 207.4 102.558 208.433 103.575C209.467 104.575 209.983 106.025 209.983 107.925V116H207.733V108.25C207.733 106.883 207.392 105.842 206.708 105.125C206.025 104.392 205.092 104.025 203.908 104.025C202.708 104.025 201.75 104.4 201.033 105.15C200.333 105.9 199.983 106.992 199.983 108.425V116H197.708V102.3H199.983V104.25C200.433 103.55 201.042 103.008 201.808 102.625C202.592 102.242 203.45 102.05 204.383 102.05ZM212.849 109.125C212.849 107.708 213.133 106.475 213.699 105.425C214.266 104.358 215.049 103.533 216.049 102.95C217.066 102.367 218.224 102.075 219.524 102.075C221.208 102.075 222.591 102.483 223.674 103.3C224.774 104.117 225.499 105.25 225.849 106.7H223.399C223.166 105.867 222.708 105.208 222.024 104.725C221.358 104.242 220.524 104 219.524 104C218.224 104 217.174 104.45 216.374 105.35C215.574 106.233 215.174 107.492 215.174 109.125C215.174 110.775 215.574 112.05 216.374 112.95C217.174 113.85 218.224 114.3 219.524 114.3C220.524 114.3 221.358 114.067 222.024 113.6C222.691 113.133 223.149 112.467 223.399 111.6H225.849C225.483 113 224.749 114.125 223.649 114.975C222.549 115.808 221.174 116.225 219.524 116.225C218.224 116.225 217.066 115.933 216.049 115.35C215.049 114.767 214.266 113.942 213.699 112.875C213.133 111.808 212.849 110.558 212.849 109.125ZM241.385 108.625C241.385 109.058 241.36 109.517 241.31 110H230.36C230.443 111.35 230.902 112.408 231.735 113.175C232.585 113.925 233.61 114.3 234.81 114.3C235.793 114.3 236.61 114.075 237.26 113.625C237.927 113.158 238.393 112.542 238.66 111.775H241.11C240.743 113.092 240.01 114.167 238.91 115C237.81 115.817 236.443 116.225 234.81 116.225C233.51 116.225 232.343 115.933 231.31 115.35C230.293 114.767 229.493 113.942 228.91 112.875C228.327 111.792 228.035 110.542 228.035 109.125C228.035 107.708 228.318 106.467 228.885 105.4C229.452 104.333 230.243 103.517 231.26 102.95C232.293 102.367 233.477 102.075 234.81 102.075C236.11 102.075 237.26 102.358 238.26 102.925C239.26 103.492 240.027 104.275 240.56 105.275C241.11 106.258 241.385 107.375 241.385 108.625ZM239.035 108.15C239.035 107.283 238.843 106.542 238.46 105.925C238.077 105.292 237.552 104.817 236.885 104.5C236.235 104.167 235.51 104 234.71 104C233.56 104 232.577 104.367 231.76 105.1C230.96 105.833 230.502 106.85 230.385 108.15H239.035ZM245.113 116.15C244.68 116.15 244.313 116 244.013 115.7C243.713 115.4 243.563 115.033 243.563 114.6C243.563 114.167 243.713 113.8 244.013 113.5C244.313 113.2 244.68 113.05 245.113 113.05C245.53 113.05 245.88 113.2 246.163 113.5C246.463 113.8 246.613 114.167 246.613 114.6C246.613 115.033 246.463 115.4 246.163 115.7C245.88 116 245.53 116.15 245.113 116.15ZM245.113 105.45C244.68 105.45 244.313 105.3 244.013 105C243.713 104.7 243.563 104.333 243.563 103.9C243.563 103.467 243.713 103.1 244.013 102.8C244.313 102.5 244.68 102.35 245.113 102.35C245.53 102.35 245.88 102.5 246.163 102.8C246.463 103.1 246.613 103.467 246.613 103.9C246.613 104.333 246.463 104.7 246.163 105C245.88 105.3 245.53 105.45 245.113 105.45ZM267.525 99.9H258.75V105.6C259.134 105.067 259.7 104.633 260.45 104.3C261.2 103.95 262.009 103.775 262.875 103.775C264.259 103.775 265.384 104.067 266.25 104.65C267.117 105.217 267.734 105.958 268.1 106.875C268.484 107.775 268.675 108.733 268.675 109.75C268.675 110.95 268.45 112.025 268 112.975C267.55 113.925 266.859 114.675 265.925 115.225C265.009 115.775 263.867 116.05 262.5 116.05C260.75 116.05 259.334 115.6 258.25 114.7C257.167 113.8 256.509 112.6 256.275 111.1H258.5C258.717 112.05 259.175 112.792 259.875 113.325C260.575 113.858 261.459 114.125 262.525 114.125C263.842 114.125 264.834 113.733 265.5 112.95C266.167 112.15 266.5 111.1 266.5 109.8C266.5 108.5 266.167 107.5 265.5 106.8C264.834 106.083 263.85 105.725 262.55 105.725C261.667 105.725 260.892 105.942 260.225 106.375C259.575 106.792 259.1 107.367 258.8 108.1H256.65V97.9H267.525V99.9ZM274.623 111.15C274.79 112.1 275.173 112.833 275.773 113.35C276.39 113.867 277.215 114.125 278.248 114.125C279.632 114.125 280.648 113.583 281.298 112.5C281.965 111.417 282.282 109.592 282.248 107.025C281.898 107.775 281.315 108.367 280.498 108.8C279.682 109.217 278.773 109.425 277.773 109.425C276.657 109.425 275.657 109.2 274.773 108.75C273.907 108.283 273.223 107.608 272.723 106.725C272.223 105.842 271.973 104.775 271.973 103.525C271.973 101.742 272.49 100.308 273.523 99.225C274.557 98.125 276.023 97.575 277.923 97.575C280.257 97.575 281.89 98.3333 282.823 99.85C283.773 101.367 284.248 103.625 284.248 106.625C284.248 108.725 284.057 110.458 283.673 111.825C283.307 113.192 282.673 114.233 281.773 114.95C280.89 115.667 279.673 116.025 278.123 116.025C276.423 116.025 275.098 115.567 274.148 114.65C273.198 113.733 272.657 112.567 272.523 111.15H274.623ZM278.148 107.5C279.265 107.5 280.182 107.158 280.898 106.475C281.615 105.775 281.973 104.833 281.973 103.65C281.973 102.4 281.623 101.392 280.923 100.625C280.223 99.8583 279.24 99.475 277.973 99.475C276.807 99.475 275.873 99.8417 275.173 100.575C274.49 101.308 274.148 102.275 274.148 103.475C274.148 104.692 274.49 105.667 275.173 106.4C275.857 107.133 276.848 107.5 278.148 107.5ZM288.546 116.15C288.112 116.15 287.746 116 287.446 115.7C287.146 115.4 286.996 115.033 286.996 114.6C286.996 114.167 287.146 113.8 287.446 113.5C287.746 113.2 288.112 113.05 288.546 113.05C288.962 113.05 289.312 113.2 289.596 113.5C289.896 113.8 290.046 114.167 290.046 114.6C290.046 115.033 289.896 115.4 289.596 115.7C289.312 116 288.962 116.15 288.546 116.15ZM302.77 102.225C302.403 100.375 301.261 99.45 299.345 99.45C297.861 99.45 296.753 100.025 296.02 101.175C295.286 102.308 294.928 104.183 294.945 106.8C295.328 105.933 295.961 105.258 296.845 104.775C297.745 104.275 298.745 104.025 299.845 104.025C301.561 104.025 302.928 104.558 303.945 105.625C304.978 106.692 305.495 108.167 305.495 110.05C305.495 111.183 305.27 112.2 304.82 113.1C304.386 114 303.72 114.717 302.82 115.25C301.936 115.783 300.861 116.05 299.595 116.05C297.878 116.05 296.536 115.667 295.57 114.9C294.603 114.133 293.928 113.075 293.545 111.725C293.161 110.375 292.97 108.708 292.97 106.725C292.97 100.608 295.103 97.55 299.37 97.55C301.003 97.55 302.286 97.9917 303.22 98.875C304.153 99.7583 304.703 100.875 304.87 102.225H302.77ZM299.37 105.95C298.653 105.95 297.978 106.1 297.345 106.4C296.711 106.683 296.195 107.125 295.795 107.725C295.411 108.308 295.22 109.025 295.22 109.875C295.22 111.142 295.586 112.175 296.32 112.975C297.053 113.758 298.103 114.15 299.47 114.15C300.636 114.15 301.561 113.792 302.245 113.075C302.945 112.342 303.295 111.358 303.295 110.125C303.295 108.825 302.961 107.808 302.295 107.075C301.628 106.325 300.653 105.95 299.37 105.95ZM311.489 111.15C311.655 112.1 312.039 112.833 312.639 113.35C313.255 113.867 314.08 114.125 315.114 114.125C316.497 114.125 317.514 113.583 318.164 112.5C318.83 111.417 319.147 109.592 319.114 107.025C318.764 107.775 318.18 108.367 317.364 108.8C316.547 109.217 315.639 109.425 314.639 109.425C313.522 109.425 312.522 109.2 311.639 108.75C310.772 108.283 310.089 107.608 309.589 106.725C309.089 105.842 308.839 104.775 308.839 103.525C308.839 101.742 309.355 100.308 310.389 99.225C311.422 98.125 312.889 97.575 314.789 97.575C317.122 97.575 318.755 98.3333 319.689 99.85C320.639 101.367 321.114 103.625 321.114 106.625C321.114 108.725 320.922 110.458 320.539 111.825C320.172 113.192 319.539 114.233 318.639 114.95C317.755 115.667 316.539 116.025 314.989 116.025C313.289 116.025 311.964 115.567 311.014 114.65C310.064 113.733 309.522 112.567 309.389 111.15H311.489ZM315.014 107.5C316.13 107.5 317.047 107.158 317.764 106.475C318.48 105.775 318.839 104.833 318.839 103.65C318.839 102.4 318.489 101.392 317.789 100.625C317.089 99.8583 316.105 99.475 314.839 99.475C313.672 99.475 312.739 99.8417 312.039 100.575C311.355 101.308 311.014 102.275 311.014 103.475C311.014 104.692 311.355 105.667 312.039 106.4C312.722 107.133 313.714 107.5 315.014 107.5ZM27.1951 149.975V148.25L35.9701 136.1H38.6951V148H41.1951V149.975H38.6951V154H36.4451V149.975H27.1951ZM36.5451 138.475L29.8201 148H36.5451V138.475ZM44.5677 154.15C44.1344 154.15 43.7677 154 43.4677 153.7C43.1677 153.4 43.0177 153.033 43.0177 152.6C43.0177 152.167 43.1677 151.8 43.4677 151.5C43.7677 151.2 44.1344 151.05 44.5677 151.05C44.9844 151.05 45.3344 151.2 45.6177 151.5C45.9177 151.8 46.0677 152.167 46.0677 152.6C46.0677 153.033 45.9177 153.4 45.6177 153.7C45.3344 154 44.9844 154.15 44.5677 154.15ZM67.725 150.125H60.125L58.725 154H56.325L62.625 136.675H65.25L71.525 154H69.125L67.725 150.125ZM67.075 148.275L63.925 139.475L60.775 148.275H67.075ZM76.5457 142.525C76.9457 141.742 77.5124 141.133 78.2457 140.7C78.9957 140.267 79.904 140.05 80.9707 140.05V142.4H80.3707C77.8207 142.4 76.5457 143.783 76.5457 146.55V154H74.2707V140.3H76.5457V142.525ZM96.0969 146.625C96.0969 147.058 96.0719 147.517 96.0219 148H85.0719C85.1552 149.35 85.6135 150.408 86.4469 151.175C87.2969 151.925 88.3219 152.3 89.5219 152.3C90.5052 152.3 91.3219 152.075 91.9719 151.625C92.6385 151.158 93.1052 150.542 93.3719 149.775H95.8219C95.4552 151.092 94.7219 152.167 93.6219 153C92.5219 153.817 91.1552 154.225 89.5219 154.225C88.2219 154.225 87.0552 153.933 86.0219 153.35C85.0052 152.767 84.2052 151.942 83.6219 150.875C83.0385 149.792 82.7469 148.542 82.7469 147.125C82.7469 145.708 83.0302 144.467 83.5969 143.4C84.1635 142.333 84.9552 141.517 85.9719 140.95C87.0052 140.367 88.1885 140.075 89.5219 140.075C90.8219 140.075 91.9719 140.358 92.9719 140.925C93.9719 141.492 94.7385 142.275 95.2719 143.275C95.8219 144.258 96.0969 145.375 96.0969 146.625ZM93.7469 146.15C93.7469 145.283 93.5552 144.542 93.1719 143.925C92.7885 143.292 92.2635 142.817 91.5969 142.5C90.9469 142.167 90.2219 142 89.4219 142C88.2719 142 87.2885 142.367 86.4719 143.1C85.6719 143.833 85.2135 144.85 85.0969 146.15H93.7469ZM98.2498 147.1C98.2498 145.7 98.5331 144.475 99.0998 143.425C99.6665 142.358 100.441 141.533 101.425 140.95C102.425 140.367 103.533 140.075 104.75 140.075C105.95 140.075 106.991 140.333 107.875 140.85C108.758 141.367 109.416 142.017 109.85 142.8V140.3H112.15V154H109.85V151.45C109.4 152.25 108.725 152.917 107.825 153.45C106.941 153.967 105.908 154.225 104.725 154.225C103.508 154.225 102.408 153.925 101.425 153.325C100.441 152.725 99.6665 151.883 99.0998 150.8C98.5331 149.717 98.2498 148.483 98.2498 147.1ZM109.85 147.125C109.85 146.092 109.641 145.192 109.225 144.425C108.808 143.658 108.241 143.075 107.525 142.675C106.825 142.258 106.05 142.05 105.2 142.05C104.35 142.05 103.575 142.25 102.875 142.65C102.175 143.05 101.616 143.633 101.2 144.4C100.783 145.167 100.575 146.067 100.575 147.1C100.575 148.15 100.783 149.067 101.2 149.85C101.616 150.617 102.175 151.208 102.875 151.625C103.575 152.025 104.35 152.225 105.2 152.225C106.05 152.225 106.825 152.025 107.525 151.625C108.241 151.208 108.808 150.617 109.225 149.85C109.641 149.067 109.85 148.158 109.85 147.125ZM116.719 154.15C116.286 154.15 115.919 154 115.619 153.7C115.319 153.4 115.169 153.033 115.169 152.6C115.169 152.167 115.319 151.8 115.619 151.5C115.919 151.2 116.286 151.05 116.719 151.05C117.136 151.05 117.486 151.2 117.769 151.5C118.069 151.8 118.219 152.167 118.219 152.6C118.219 153.033 118.069 153.4 117.769 153.7C117.486 154 117.136 154.15 116.719 154.15ZM116.719 143.45C116.286 143.45 115.919 143.3 115.619 143C115.319 142.7 115.169 142.333 115.169 141.9C115.169 141.467 115.319 141.1 115.619 140.8C115.919 140.5 116.286 140.35 116.719 140.35C117.136 140.35 117.486 140.5 117.769 140.8C118.069 141.1 118.219 141.467 118.219 141.9C118.219 142.333 118.069 142.7 117.769 143C117.486 143.3 117.136 143.45 116.719 143.45ZM127.332 152.175C129.448 150.475 131.107 149.083 132.307 148C133.507 146.9 134.515 145.758 135.332 144.575C136.165 143.375 136.582 142.2 136.582 141.05C136.582 139.967 136.315 139.117 135.782 138.5C135.265 137.867 134.423 137.55 133.257 137.55C132.123 137.55 131.24 137.908 130.607 138.625C129.99 139.325 129.657 140.267 129.607 141.45H127.407C127.473 139.583 128.04 138.142 129.107 137.125C130.173 136.108 131.548 135.6 133.232 135.6C134.948 135.6 136.307 136.075 137.307 137.025C138.323 137.975 138.832 139.283 138.832 140.95C138.832 142.333 138.415 143.683 137.582 145C136.765 146.3 135.832 147.45 134.782 148.45C133.732 149.433 132.39 150.583 130.757 151.9H139.357V153.8H127.332V152.175ZM145.287 144.6C144.353 144.233 143.637 143.7 143.137 143C142.637 142.3 142.387 141.45 142.387 140.45C142.387 139.55 142.612 138.742 143.062 138.025C143.512 137.292 144.178 136.717 145.062 136.3C145.962 135.867 147.045 135.65 148.312 135.65C149.578 135.65 150.653 135.867 151.537 136.3C152.437 136.717 153.112 137.292 153.562 138.025C154.028 138.742 154.262 139.55 154.262 140.45C154.262 141.417 154.003 142.267 153.487 143C152.97 143.717 152.262 144.25 151.362 144.6C152.395 144.917 153.212 145.475 153.812 146.275C154.428 147.058 154.737 148.008 154.737 149.125C154.737 150.208 154.47 151.158 153.937 151.975C153.403 152.775 152.645 153.4 151.662 153.85C150.695 154.283 149.578 154.5 148.312 154.5C147.045 154.5 145.928 154.283 144.962 153.85C144.012 153.4 143.27 152.775 142.737 151.975C142.203 151.158 141.937 150.208 141.937 149.125C141.937 148.008 142.237 147.05 142.837 146.25C143.437 145.45 144.253 144.9 145.287 144.6ZM152.062 140.725C152.062 139.708 151.728 138.925 151.062 138.375C150.395 137.825 149.478 137.55 148.312 137.55C147.162 137.55 146.253 137.825 145.587 138.375C144.92 138.925 144.587 139.717 144.587 140.75C144.587 141.683 144.928 142.433 145.612 143C146.312 143.567 147.212 143.85 148.312 143.85C149.428 143.85 150.328 143.567 151.012 143C151.712 142.417 152.062 141.658 152.062 140.725ZM148.312 145.6C147.078 145.6 146.07 145.892 145.287 146.475C144.503 147.042 144.112 147.9 144.112 149.05C144.112 150.117 144.487 150.975 145.237 151.625C146.003 152.275 147.028 152.6 148.312 152.6C149.595 152.6 150.612 152.275 151.362 151.625C152.112 150.975 152.487 150.117 152.487 149.05C152.487 147.933 152.103 147.083 151.337 146.5C150.57 145.9 149.562 145.6 148.312 145.6ZM157.708 140.475C157.825 138.942 158.416 137.742 159.483 136.875C160.55 136.008 161.933 135.575 163.633 135.575C164.766 135.575 165.741 135.783 166.558 136.2C167.391 136.6 168.016 137.15 168.433 137.85C168.866 138.55 169.083 139.342 169.083 140.225C169.083 141.258 168.783 142.15 168.183 142.9C167.6 143.65 166.833 144.133 165.883 144.35V144.475C166.966 144.742 167.825 145.267 168.458 146.05C169.091 146.833 169.408 147.858 169.408 149.125C169.408 150.075 169.191 150.933 168.758 151.7C168.325 152.45 167.675 153.042 166.808 153.475C165.941 153.908 164.9 154.125 163.683 154.125C161.916 154.125 160.466 153.667 159.333 152.75C158.2 151.817 157.566 150.5 157.433 148.8H159.633C159.75 149.8 160.158 150.617 160.858 151.25C161.558 151.883 162.491 152.2 163.658 152.2C164.825 152.2 165.708 151.9 166.308 151.3C166.925 150.683 167.233 149.892 167.233 148.925C167.233 147.675 166.816 146.775 165.983 146.225C165.15 145.675 163.891 145.4 162.208 145.4H161.633V143.5H162.233C163.766 143.483 164.925 143.233 165.708 142.75C166.491 142.25 166.883 141.483 166.883 140.45C166.883 139.567 166.591 138.858 166.008 138.325C165.441 137.792 164.625 137.525 163.558 137.525C162.525 137.525 161.691 137.792 161.058 138.325C160.425 138.858 160.05 139.575 159.933 140.475H157.708ZM173.58 154.15C173.146 154.15 172.78 154 172.48 153.7C172.18 153.4 172.03 153.033 172.03 152.6C172.03 152.167 172.18 151.8 172.48 151.5C172.78 151.2 173.146 151.05 173.58 151.05C173.996 151.05 174.346 151.2 174.63 151.5C174.93 151.8 175.08 152.167 175.08 152.6C175.08 153.033 174.93 153.4 174.63 153.7C174.346 154 173.996 154.15 173.58 154.15ZM189.254 137.9H180.479V143.6C180.862 143.067 181.429 142.633 182.179 142.3C182.929 141.95 183.737 141.775 184.604 141.775C185.987 141.775 187.112 142.067 187.979 142.65C188.845 143.217 189.462 143.958 189.829 144.875C190.212 145.775 190.404 146.733 190.404 147.75C190.404 148.95 190.179 150.025 189.729 150.975C189.279 151.925 188.587 152.675 187.654 153.225C186.737 153.775 185.595 154.05 184.229 154.05C182.479 154.05 181.062 153.6 179.979 152.7C178.895 151.8 178.237 150.6 178.004 149.1H180.229C180.445 150.05 180.904 150.792 181.604 151.325C182.304 151.858 183.187 152.125 184.254 152.125C185.57 152.125 186.562 151.733 187.229 150.95C187.895 150.15 188.229 149.1 188.229 147.8C188.229 146.5 187.895 145.5 187.229 144.8C186.562 144.083 185.579 143.725 184.279 143.725C183.395 143.725 182.62 143.942 181.954 144.375C181.304 144.792 180.829 145.367 180.529 146.1H178.379V135.9H189.254V137.9ZM193.377 140.475C193.494 138.942 194.085 137.742 195.152 136.875C196.219 136.008 197.602 135.575 199.302 135.575C200.435 135.575 201.41 135.783 202.227 136.2C203.06 136.6 203.685 137.15 204.102 137.85C204.535 138.55 204.752 139.342 204.752 140.225C204.752 141.258 204.452 142.15 203.852 142.9C203.269 143.65 202.502 144.133 201.552 144.35V144.475C202.635 144.742 203.494 145.267 204.127 146.05C204.76 146.833 205.077 147.858 205.077 149.125C205.077 150.075 204.86 150.933 204.427 151.7C203.994 152.45 203.344 153.042 202.477 153.475C201.61 153.908 200.569 154.125 199.352 154.125C197.585 154.125 196.135 153.667 195.002 152.75C193.869 151.817 193.235 150.5 193.102 148.8H195.302C195.419 149.8 195.827 150.617 196.527 151.25C197.227 151.883 198.16 152.2 199.327 152.2C200.494 152.2 201.377 151.9 201.977 151.3C202.594 150.683 202.902 149.892 202.902 148.925C202.902 147.675 202.485 146.775 201.652 146.225C200.819 145.675 199.56 145.4 197.877 145.4H197.302V143.5H197.902C199.435 143.483 200.594 143.233 201.377 142.75C202.16 142.25 202.552 141.483 202.552 140.45C202.552 139.567 202.26 138.858 201.677 138.325C201.11 137.792 200.294 137.525 199.227 137.525C198.194 137.525 197.36 137.792 196.727 138.325C196.094 138.858 195.719 139.575 195.602 140.475H193.377ZM39.2945 175.9H30.5195V181.6C30.9028 181.067 31.4695 180.633 32.2195 180.3C32.9695 179.95 33.7778 179.775 34.6445 179.775C36.0278 179.775 37.1528 180.067 38.0195 180.65C38.8862 181.217 39.5028 181.958 39.8695 182.875C40.2528 183.775 40.4445 184.733 40.4445 185.75C40.4445 186.95 40.2195 188.025 39.7695 188.975C39.3195 189.925 38.6278 190.675 37.6945 191.225C36.7778 191.775 35.6362 192.05 34.2695 192.05C32.5195 192.05 31.1028 191.6 30.0195 190.7C28.9362 189.8 28.2778 188.6 28.0445 187.1H30.2695C30.4862 188.05 30.9445 188.792 31.6445 189.325C32.3445 189.858 33.2278 190.125 34.2945 190.125C35.6112 190.125 36.6028 189.733 37.2695 188.95C37.9362 188.15 38.2695 187.1 38.2695 185.8C38.2695 184.5 37.9362 183.5 37.2695 182.8C36.6028 182.083 35.6195 181.725 34.3195 181.725C33.4362 181.725 32.6612 181.942 31.9945 182.375C31.3445 182.792 30.8695 183.367 30.5695 184.1H28.4195V173.9H39.2945V175.9ZM44.5677 192.15C44.1344 192.15 43.7677 192 43.4677 191.7C43.1677 191.4 43.0177 191.033 43.0177 190.6C43.0177 190.167 43.1677 189.8 43.4677 189.5C43.7677 189.2 44.1344 189.05 44.5677 189.05C44.9844 189.05 45.3344 189.2 45.6177 189.5C45.9177 189.8 46.0677 190.167 46.0677 190.6C46.0677 191.033 45.9177 191.4 45.6177 191.7C45.3344 192 44.9844 192.15 44.5677 192.15ZM69.075 179.675C69.075 181.125 68.575 182.333 67.575 183.3C66.5917 184.25 65.0833 184.725 63.05 184.725H59.7V192H57.425V174.575H63.05C65.0167 174.575 66.5083 175.05 67.525 176C68.5583 176.95 69.075 178.175 69.075 179.675ZM63.05 182.85C64.3167 182.85 65.25 182.575 65.85 182.025C66.45 181.475 66.75 180.692 66.75 179.675C66.75 177.525 65.5167 176.45 63.05 176.45H59.7V182.85H63.05ZM74.1775 173.5V192H71.9025V173.5H74.1775ZM86.5549 168.45L79.7049 196.25H77.4549L84.2799 168.45H86.5549ZM95.4695 192.175C94.3195 192.175 93.2862 191.975 92.3695 191.575C91.4695 191.158 90.7612 190.592 90.2445 189.875C89.7279 189.142 89.4612 188.3 89.4445 187.35H91.8695C91.9529 188.167 92.2862 188.858 92.8695 189.425C93.4695 189.975 94.3362 190.25 95.4695 190.25C96.5529 190.25 97.4029 189.983 98.0195 189.45C98.6529 188.9 98.9695 188.2 98.9695 187.35C98.9695 186.683 98.7862 186.142 98.4195 185.725C98.0529 185.308 97.5945 184.992 97.0445 184.775C96.4945 184.558 95.7529 184.325 94.8195 184.075C93.6695 183.775 92.7445 183.475 92.0445 183.175C91.3612 182.875 90.7695 182.408 90.2695 181.775C89.7862 181.125 89.5445 180.258 89.5445 179.175C89.5445 178.225 89.7862 177.383 90.2695 176.65C90.7529 175.917 91.4279 175.35 92.2945 174.95C93.1779 174.55 94.1862 174.35 95.3195 174.35C96.9529 174.35 98.2862 174.758 99.3195 175.575C100.37 176.392 100.961 177.475 101.095 178.825H98.5945C98.5112 178.158 98.1612 177.575 97.5445 177.075C96.9279 176.558 96.1112 176.3 95.0945 176.3C94.1445 176.3 93.3695 176.55 92.7695 177.05C92.1695 177.533 91.8695 178.217 91.8695 179.1C91.8695 179.733 92.0445 180.25 92.3945 180.65C92.7612 181.05 93.2029 181.358 93.7195 181.575C94.2529 181.775 94.9945 182.008 95.9445 182.275C97.0945 182.592 98.0195 182.908 98.7195 183.225C99.4195 183.525 100.02 184 100.52 184.65C101.02 185.283 101.27 186.15 101.27 187.25C101.27 188.1 101.045 188.9 100.595 189.65C100.145 190.4 99.4779 191.008 98.5945 191.475C97.7112 191.942 96.6695 192.175 95.4695 192.175ZM118.592 195.3L115.117 191.825C114.267 192.058 113.401 192.175 112.517 192.175C110.901 192.175 109.426 191.8 108.092 191.05C106.759 190.283 105.701 189.225 104.917 187.875C104.151 186.508 103.767 184.975 103.767 183.275C103.767 181.575 104.151 180.05 104.917 178.7C105.701 177.333 106.759 176.275 108.092 175.525C109.426 174.758 110.901 174.375 112.517 174.375C114.151 174.375 115.634 174.758 116.967 175.525C118.301 176.275 119.351 177.325 120.117 178.675C120.884 180.025 121.267 181.558 121.267 183.275C121.267 184.942 120.901 186.442 120.167 187.775C119.434 189.108 118.426 190.158 117.142 190.925L121.542 195.3H118.592ZM106.092 183.275C106.092 184.658 106.367 185.875 106.917 186.925C107.484 187.975 108.251 188.783 109.217 189.35C110.201 189.917 111.301 190.2 112.517 190.2C113.734 190.2 114.826 189.917 115.792 189.35C116.776 188.783 117.542 187.975 118.092 186.925C118.659 185.875 118.942 184.658 118.942 183.275C118.942 181.875 118.659 180.658 118.092 179.625C117.542 178.575 116.784 177.767 115.817 177.2C114.851 176.633 113.751 176.35 112.517 176.35C111.284 176.35 110.184 176.633 109.217 177.2C108.251 177.767 107.484 178.575 106.917 179.625C106.367 180.658 106.092 181.875 106.092 183.275ZM126.595 190.15H132.695V192H124.32V174.575H126.595V190.15ZM144.051 180.825C144.501 180.042 145.167 179.392 146.051 178.875C146.951 178.342 147.992 178.075 149.176 178.075C150.392 178.075 151.492 178.367 152.476 178.95C153.476 179.533 154.259 180.358 154.826 181.425C155.392 182.475 155.676 183.7 155.676 185.1C155.676 186.483 155.392 187.717 154.826 188.8C154.259 189.883 153.476 190.725 152.476 191.325C151.492 191.925 150.392 192.225 149.176 192.225C148.009 192.225 146.976 191.967 146.076 191.45C145.192 190.917 144.517 190.258 144.051 189.475V198.5H141.776V178.3H144.051V180.825ZM153.351 185.1C153.351 184.067 153.142 183.167 152.726 182.4C152.309 181.633 151.742 181.05 151.026 180.65C150.326 180.25 149.551 180.05 148.701 180.05C147.867 180.05 147.092 180.258 146.376 180.675C145.676 181.075 145.109 181.667 144.676 182.45C144.259 183.217 144.051 184.108 144.051 185.125C144.051 186.158 144.259 187.067 144.676 187.85C145.109 188.617 145.676 189.208 146.376 189.625C147.092 190.025 147.867 190.225 148.701 190.225C149.551 190.225 150.326 190.025 151.026 189.625C151.742 189.208 152.309 188.617 152.726 187.85C153.142 187.067 153.351 186.15 153.351 185.1ZM160.945 180.525C161.345 179.742 161.912 179.133 162.645 178.7C163.395 178.267 164.303 178.05 165.37 178.05V180.4H164.77C162.22 180.4 160.945 181.783 160.945 184.55V192H158.67V178.3H160.945V180.525ZM173.971 192.225C172.688 192.225 171.521 191.933 170.471 191.35C169.438 190.767 168.621 189.942 168.021 188.875C167.438 187.792 167.146 186.542 167.146 185.125C167.146 183.725 167.446 182.492 168.046 181.425C168.663 180.342 169.496 179.517 170.546 178.95C171.596 178.367 172.771 178.075 174.071 178.075C175.371 178.075 176.546 178.367 177.596 178.95C178.646 179.517 179.471 180.333 180.071 181.4C180.688 182.467 180.996 183.708 180.996 185.125C180.996 186.542 180.68 187.792 180.046 188.875C179.43 189.942 178.588 190.767 177.521 191.35C176.455 191.933 175.271 192.225 173.971 192.225ZM173.971 190.225C174.788 190.225 175.555 190.033 176.271 189.65C176.988 189.267 177.563 188.692 177.996 187.925C178.446 187.158 178.671 186.225 178.671 185.125C178.671 184.025 178.455 183.092 178.021 182.325C177.588 181.558 177.021 180.992 176.321 180.625C175.621 180.242 174.863 180.05 174.046 180.05C173.213 180.05 172.446 180.242 171.746 180.625C171.063 180.992 170.513 181.558 170.096 182.325C169.68 183.092 169.471 184.025 169.471 185.125C169.471 186.242 169.671 187.183 170.071 187.95C170.488 188.717 171.038 189.292 171.721 189.675C172.405 190.042 173.155 190.225 173.971 190.225ZM183.138 185.125C183.138 183.708 183.421 182.475 183.988 181.425C184.554 180.358 185.338 179.533 186.338 178.95C187.354 178.367 188.513 178.075 189.813 178.075C191.496 178.075 192.879 178.483 193.963 179.3C195.063 180.117 195.788 181.25 196.138 182.7H193.688C193.454 181.867 192.996 181.208 192.313 180.725C191.646 180.242 190.813 180 189.813 180C188.513 180 187.463 180.45 186.663 181.35C185.863 182.233 185.463 183.492 185.463 185.125C185.463 186.775 185.863 188.05 186.663 188.95C187.463 189.85 188.513 190.3 189.813 190.3C190.813 190.3 191.646 190.067 192.313 189.6C192.979 189.133 193.438 188.467 193.688 187.6H196.138C195.771 189 195.038 190.125 193.938 190.975C192.838 191.808 191.463 192.225 189.813 192.225C188.513 192.225 187.354 191.933 186.338 191.35C185.338 190.767 184.554 189.942 183.988 188.875C183.421 187.808 183.138 186.558 183.138 185.125ZM211.673 184.625C211.673 185.058 211.648 185.517 211.598 186H200.648C200.731 187.35 201.19 188.408 202.023 189.175C202.873 189.925 203.898 190.3 205.098 190.3C206.081 190.3 206.898 190.075 207.548 189.625C208.215 189.158 208.681 188.542 208.948 187.775H211.398C211.031 189.092 210.298 190.167 209.198 191C208.098 191.817 206.731 192.225 205.098 192.225C203.798 192.225 202.631 191.933 201.598 191.35C200.581 190.767 199.781 189.942 199.198 188.875C198.615 187.792 198.323 186.542 198.323 185.125C198.323 183.708 198.606 182.467 199.173 181.4C199.74 180.333 200.531 179.517 201.548 178.95C202.581 178.367 203.765 178.075 205.098 178.075C206.398 178.075 207.548 178.358 208.548 178.925C209.548 179.492 210.315 180.275 210.848 181.275C211.398 182.258 211.673 183.375 211.673 184.625ZM209.323 184.15C209.323 183.283 209.131 182.542 208.748 181.925C208.365 181.292 207.84 180.817 207.173 180.5C206.523 180.167 205.798 180 204.998 180C203.848 180 202.865 180.367 202.048 181.1C201.248 181.833 200.79 182.85 200.673 184.15H209.323ZM213.826 185.1C213.826 183.7 214.109 182.475 214.676 181.425C215.243 180.358 216.018 179.533 217.001 178.95C218.001 178.367 219.118 178.075 220.351 178.075C221.418 178.075 222.409 178.325 223.326 178.825C224.243 179.308 224.943 179.95 225.426 180.75V173.5H227.726V192H225.426V189.425C224.976 190.242 224.309 190.917 223.426 191.45C222.543 191.967 221.509 192.225 220.326 192.225C219.109 192.225 218.001 191.925 217.001 191.325C216.018 190.725 215.243 189.883 214.676 188.8C214.109 187.717 213.826 186.483 213.826 185.1ZM225.426 185.125C225.426 184.092 225.218 183.192 224.801 182.425C224.384 181.658 223.818 181.075 223.101 180.675C222.401 180.258 221.626 180.05 220.776 180.05C219.926 180.05 219.151 180.25 218.451 180.65C217.751 181.05 217.193 181.633 216.776 182.4C216.359 183.167 216.151 184.067 216.151 185.1C216.151 186.15 216.359 187.067 216.776 187.85C217.193 188.617 217.751 189.208 218.451 189.625C219.151 190.025 219.926 190.225 220.776 190.225C221.626 190.225 222.401 190.025 223.101 189.625C223.818 189.208 224.384 188.617 224.801 187.85C225.218 187.067 225.426 186.158 225.426 185.125ZM243.721 178.3V192H241.446V189.975C241.012 190.675 240.404 191.225 239.621 191.625C238.854 192.008 238.004 192.2 237.071 192.2C236.004 192.2 235.046 191.983 234.196 191.55C233.346 191.1 232.671 190.433 232.171 189.55C231.687 188.667 231.446 187.592 231.446 186.325V178.3H233.696V186.025C233.696 187.375 234.037 188.417 234.721 189.15C235.404 189.867 236.337 190.225 237.521 190.225C238.737 190.225 239.696 189.85 240.396 189.1C241.096 188.35 241.446 187.258 241.446 185.825V178.3H243.721ZM249.837 180.525C250.237 179.742 250.803 179.133 251.537 178.7C252.287 178.267 253.195 178.05 254.262 178.05V180.4H253.662C251.112 180.4 249.837 181.783 249.837 184.55V192H247.562V178.3H249.837V180.525ZM269.388 184.625C269.388 185.058 269.363 185.517 269.313 186H258.363C258.446 187.35 258.905 188.408 259.738 189.175C260.588 189.925 261.613 190.3 262.813 190.3C263.796 190.3 264.613 190.075 265.263 189.625C265.93 189.158 266.396 188.542 266.663 187.775H269.113C268.746 189.092 268.013 190.167 266.913 191C265.813 191.817 264.446 192.225 262.813 192.225C261.513 192.225 260.346 191.933 259.313 191.35C258.296 190.767 257.496 189.942 256.913 188.875C256.33 187.792 256.038 186.542 256.038 185.125C256.038 183.708 256.321 182.467 256.888 181.4C257.455 180.333 258.246 179.517 259.263 178.95C260.296 178.367 261.48 178.075 262.813 178.075C264.113 178.075 265.263 178.358 266.263 178.925C267.263 179.492 268.03 180.275 268.563 181.275C269.113 182.258 269.388 183.375 269.388 184.625ZM267.038 184.15C267.038 183.283 266.846 182.542 266.463 181.925C266.08 181.292 265.555 180.817 264.888 180.5C264.238 180.167 263.513 180 262.713 180C261.563 180 260.58 180.367 259.763 181.1C258.963 181.833 258.505 182.85 258.388 184.15H267.038ZM283.906 192.225C282.856 192.225 281.914 192.05 281.081 191.7C280.248 191.333 279.589 190.833 279.106 190.2C278.623 189.55 278.356 188.808 278.306 187.975H280.656C280.723 188.658 281.039 189.217 281.606 189.65C282.189 190.083 282.948 190.3 283.881 190.3C284.748 190.3 285.431 190.108 285.931 189.725C286.431 189.342 286.681 188.858 286.681 188.275C286.681 187.675 286.414 187.233 285.881 186.95C285.348 186.65 284.523 186.358 283.406 186.075C282.389 185.808 281.556 185.542 280.906 185.275C280.273 184.992 279.723 184.583 279.256 184.05C278.806 183.5 278.581 182.783 278.581 181.9C278.581 181.2 278.789 180.558 279.206 179.975C279.623 179.392 280.214 178.933 280.981 178.6C281.748 178.25 282.623 178.075 283.606 178.075C285.123 178.075 286.348 178.458 287.281 179.225C288.214 179.992 288.714 181.042 288.781 182.375H286.506C286.456 181.658 286.164 181.083 285.631 180.65C285.114 180.217 284.414 180 283.531 180C282.714 180 282.064 180.175 281.581 180.525C281.098 180.875 280.856 181.333 280.856 181.9C280.856 182.35 280.998 182.725 281.281 183.025C281.581 183.308 281.948 183.542 282.381 183.725C282.831 183.892 283.448 184.083 284.231 184.3C285.214 184.567 286.014 184.833 286.631 185.1C287.248 185.35 287.773 185.733 288.206 186.25C288.656 186.767 288.889 187.442 288.906 188.275C288.906 189.025 288.698 189.7 288.281 190.3C287.864 190.9 287.273 191.375 286.506 191.725C285.756 192.058 284.889 192.225 283.906 192.225ZM304.267 178.3V192H301.992V189.975C301.559 190.675 300.951 191.225 300.167 191.625C299.401 192.008 298.551 192.2 297.617 192.2C296.551 192.2 295.592 191.983 294.742 191.55C293.892 191.1 293.217 190.433 292.717 189.55C292.234 188.667 291.992 187.592 291.992 186.325V178.3H294.242V186.025C294.242 187.375 294.584 188.417 295.267 189.15C295.951 189.867 296.884 190.225 298.067 190.225C299.284 190.225 300.242 189.85 300.942 189.1C301.642 188.35 301.992 187.258 301.992 185.825V178.3H304.267ZM307.259 185.125C307.259 183.708 307.542 182.475 308.109 181.425C308.675 180.358 309.459 179.533 310.459 178.95C311.475 178.367 312.634 178.075 313.934 178.075C315.617 178.075 317 178.483 318.084 179.3C319.184 180.117 319.909 181.25 320.259 182.7H317.809C317.575 181.867 317.117 181.208 316.434 180.725C315.767 180.242 314.934 180 313.934 180C312.634 180 311.584 180.45 310.784 181.35C309.984 182.233 309.584 183.492 309.584 185.125C309.584 186.775 309.984 188.05 310.784 188.95C311.584 189.85 312.634 190.3 313.934 190.3C314.934 190.3 315.767 190.067 316.434 189.6C317.1 189.133 317.559 188.467 317.809 187.6H320.259C319.892 189 319.159 190.125 318.059 190.975C316.959 191.808 315.584 192.225 313.934 192.225C312.634 192.225 311.475 191.933 310.459 191.35C309.459 190.767 308.675 189.942 308.109 188.875C307.542 187.808 307.259 186.558 307.259 185.125ZM322.444 185.125C322.444 183.708 322.727 182.475 323.294 181.425C323.861 180.358 324.644 179.533 325.644 178.95C326.661 178.367 327.819 178.075 329.119 178.075C330.802 178.075 332.186 178.483 333.269 179.3C334.369 180.117 335.094 181.25 335.444 182.7H332.994C332.761 181.867 332.302 181.208 331.619 180.725C330.952 180.242 330.119 180 329.119 180C327.819 180 326.769 180.45 325.969 181.35C325.169 182.233 324.769 183.492 324.769 185.125C324.769 186.775 325.169 188.05 325.969 188.95C326.769 189.85 327.819 190.3 329.119 190.3C330.119 190.3 330.952 190.067 331.619 189.6C332.286 189.133 332.744 188.467 332.994 187.6H335.444C335.077 189 334.344 190.125 333.244 190.975C332.144 191.808 330.769 192.225 329.119 192.225C327.819 192.225 326.661 191.933 325.644 191.35C324.644 190.767 323.861 189.942 323.294 188.875C322.727 187.808 322.444 186.558 322.444 185.125ZM350.98 184.625C350.98 185.058 350.955 185.517 350.905 186H339.955C340.038 187.35 340.496 188.408 341.33 189.175C342.18 189.925 343.205 190.3 344.405 190.3C345.388 190.3 346.205 190.075 346.855 189.625C347.521 189.158 347.988 188.542 348.255 187.775H350.705C350.338 189.092 349.605 190.167 348.505 191C347.405 191.817 346.038 192.225 344.405 192.225C343.105 192.225 341.938 191.933 340.905 191.35C339.888 190.767 339.088 189.942 338.505 188.875C337.921 187.792 337.63 186.542 337.63 185.125C337.63 183.708 337.913 182.467 338.48 181.4C339.046 180.333 339.838 179.517 340.855 178.95C341.888 178.367 343.071 178.075 344.405 178.075C345.705 178.075 346.855 178.358 347.855 178.925C348.855 179.492 349.621 180.275 350.155 181.275C350.705 182.258 350.98 183.375 350.98 184.625ZM348.63 184.15C348.63 183.283 348.438 182.542 348.055 181.925C347.671 181.292 347.146 180.817 346.48 180.5C345.83 180.167 345.105 180 344.305 180C343.155 180 342.171 180.367 341.355 181.1C340.555 181.833 340.096 182.85 339.98 184.15H348.63ZM358.833 192.225C357.783 192.225 356.841 192.05 356.008 191.7C355.174 191.333 354.516 190.833 354.033 190.2C353.549 189.55 353.283 188.808 353.233 187.975H355.583C355.649 188.658 355.966 189.217 356.533 189.65C357.116 190.083 357.874 190.3 358.808 190.3C359.674 190.3 360.358 190.108 360.858 189.725C361.358 189.342 361.608 188.858 361.608 188.275C361.608 187.675 361.341 187.233 360.808 186.95C360.274 186.65 359.449 186.358 358.333 186.075C357.316 185.808 356.483 185.542 355.833 185.275C355.199 184.992 354.649 184.583 354.183 184.05C353.733 183.5 353.508 182.783 353.508 181.9C353.508 181.2 353.716 180.558 354.133 179.975C354.549 179.392 355.141 178.933 355.908 178.6C356.674 178.25 357.549 178.075 358.533 178.075C360.049 178.075 361.274 178.458 362.208 179.225C363.141 179.992 363.641 181.042 363.708 182.375H361.433C361.383 181.658 361.091 181.083 360.558 180.65C360.041 180.217 359.341 180 358.458 180C357.641 180 356.991 180.175 356.508 180.525C356.024 180.875 355.783 181.333 355.783 181.9C355.783 182.35 355.924 182.725 356.208 183.025C356.508 183.308 356.874 183.542 357.308 183.725C357.758 183.892 358.374 184.083 359.158 184.3C360.141 184.567 360.941 184.833 361.558 185.1C362.174 185.35 362.699 185.733 363.133 186.25C363.583 186.767 363.816 187.442 363.833 188.275C363.833 189.025 363.624 189.7 363.208 190.3C362.791 190.9 362.199 191.375 361.433 191.725C360.683 192.058 359.816 192.225 358.833 192.225ZM371.894 192.225C370.844 192.225 369.902 192.05 369.069 191.7C368.236 191.333 367.577 190.833 367.094 190.2C366.611 189.55 366.344 188.808 366.294 187.975H368.644C368.711 188.658 369.027 189.217 369.594 189.65C370.177 190.083 370.936 190.3 371.869 190.3C372.736 190.3 373.419 190.108 373.919 189.725C374.419 189.342 374.669 188.858 374.669 188.275C374.669 187.675 374.402 187.233 373.869 186.95C373.336 186.65 372.511 186.358 371.394 186.075C370.377 185.808 369.544 185.542 368.894 185.275C368.261 184.992 367.711 184.583 367.244 184.05C366.794 183.5 366.569 182.783 366.569 181.9C366.569 181.2 366.777 180.558 367.194 179.975C367.611 179.392 368.202 178.933 368.969 178.6C369.736 178.25 370.611 178.075 371.594 178.075C373.111 178.075 374.336 178.458 375.269 179.225C376.202 179.992 376.702 181.042 376.769 182.375H374.494C374.444 181.658 374.152 181.083 373.619 180.65C373.102 180.217 372.402 180 371.519 180C370.702 180 370.052 180.175 369.569 180.525C369.086 180.875 368.844 181.333 368.844 181.9C368.844 182.35 368.986 182.725 369.269 183.025C369.569 183.308 369.936 183.542 370.369 183.725C370.819 183.892 371.436 184.083 372.219 184.3C373.202 184.567 374.002 184.833 374.619 185.1C375.236 185.35 375.761 185.733 376.194 186.25C376.644 186.767 376.877 187.442 376.894 188.275C376.894 189.025 376.686 189.7 376.269 190.3C375.852 190.9 375.261 191.375 374.494 191.725C373.744 192.058 372.877 192.225 371.894 192.225ZM385.681 180.175H382.806V192H380.531V180.175H378.756V178.3H380.531V177.325C380.531 175.792 380.922 174.675 381.706 173.975C382.506 173.258 383.781 172.9 385.531 172.9V174.8C384.531 174.8 383.822 175 383.406 175.4C383.006 175.783 382.806 176.425 382.806 177.325V178.3H385.681V180.175ZM400.483 178.3V192H398.208V189.975C397.775 190.675 397.167 191.225 396.383 191.625C395.617 192.008 394.767 192.2 393.833 192.2C392.767 192.2 391.808 191.983 390.958 191.55C390.108 191.1 389.433 190.433 388.933 189.55C388.45 188.667 388.208 187.592 388.208 186.325V178.3H390.458V186.025C390.458 187.375 390.8 188.417 391.483 189.15C392.167 189.867 393.1 190.225 394.283 190.225C395.5 190.225 396.458 189.85 397.158 189.1C397.858 188.35 398.208 187.258 398.208 185.825V178.3H400.483ZM406.599 173.5V192H404.324V173.5H406.599ZM412.752 173.5V192H410.477V173.5H412.752ZM428.429 178.3L420.179 198.45H417.829L420.529 191.85L415.004 178.3H417.529L421.829 189.4L426.079 178.3H428.429ZM436.531 185.125C436.531 183.708 436.814 182.475 437.381 181.425C437.948 180.358 438.731 179.533 439.731 178.95C440.748 178.367 441.906 178.075 443.206 178.075C444.889 178.075 446.273 178.483 447.356 179.3C448.456 180.117 449.181 181.25 449.531 182.7H447.081C446.848 181.867 446.389 181.208 445.706 180.725C445.039 180.242 444.206 180 443.206 180C441.906 180 440.856 180.45 440.056 181.35C439.256 182.233 438.856 183.492 438.856 185.125C438.856 186.775 439.256 188.05 440.056 188.95C440.856 189.85 441.906 190.3 443.206 190.3C444.206 190.3 445.039 190.067 445.706 189.6C446.373 189.133 446.831 188.467 447.081 187.6H449.531C449.164 189 448.431 190.125 447.331 190.975C446.231 191.808 444.856 192.225 443.206 192.225C441.906 192.225 440.748 191.933 439.731 191.35C438.731 190.767 437.948 189.942 437.381 188.875C436.814 187.808 436.531 186.558 436.531 185.125ZM458.542 192.225C457.258 192.225 456.092 191.933 455.042 191.35C454.008 190.767 453.192 189.942 452.592 188.875C452.008 187.792 451.717 186.542 451.717 185.125C451.717 183.725 452.017 182.492 452.617 181.425C453.233 180.342 454.067 179.517 455.117 178.95C456.167 178.367 457.342 178.075 458.642 178.075C459.942 178.075 461.117 178.367 462.167 178.95C463.217 179.517 464.042 180.333 464.642 181.4C465.258 182.467 465.567 183.708 465.567 185.125C465.567 186.542 465.25 187.792 464.617 188.875C464 189.942 463.158 190.767 462.092 191.35C461.025 191.933 459.842 192.225 458.542 192.225ZM458.542 190.225C459.358 190.225 460.125 190.033 460.842 189.65C461.558 189.267 462.133 188.692 462.567 187.925C463.017 187.158 463.242 186.225 463.242 185.125C463.242 184.025 463.025 183.092 462.592 182.325C462.158 181.558 461.592 180.992 460.892 180.625C460.192 180.242 459.433 180.05 458.617 180.05C457.783 180.05 457.017 180.242 456.317 180.625C455.633 180.992 455.083 181.558 454.667 182.325C454.25 183.092 454.042 184.025 454.042 185.125C454.042 186.242 454.242 187.183 454.642 187.95C455.058 188.717 455.608 189.292 456.292 189.675C456.975 190.042 457.725 190.225 458.542 190.225ZM485.033 178.05C486.099 178.05 487.049 178.275 487.883 178.725C488.716 179.158 489.374 179.817 489.858 180.7C490.341 181.583 490.583 182.658 490.583 183.925V192H488.333V184.25C488.333 182.883 487.991 181.842 487.308 181.125C486.641 180.392 485.733 180.025 484.583 180.025C483.399 180.025 482.458 180.408 481.758 181.175C481.058 181.925 480.708 183.017 480.708 184.45V192H478.458V184.25C478.458 182.883 478.116 181.842 477.433 181.125C476.766 180.392 475.858 180.025 474.708 180.025C473.524 180.025 472.583 180.408 471.883 181.175C471.183 181.925 470.833 183.017 470.833 184.45V192H468.558V178.3H470.833V180.275C471.283 179.558 471.883 179.008 472.633 178.625C473.399 178.242 474.241 178.05 475.158 178.05C476.308 178.05 477.324 178.308 478.208 178.825C479.091 179.342 479.749 180.1 480.183 181.1C480.566 180.133 481.199 179.383 482.083 178.85C482.966 178.317 483.949 178.05 485.033 178.05ZM496.59 180.825C497.04 180.042 497.706 179.392 498.59 178.875C499.49 178.342 500.531 178.075 501.715 178.075C502.931 178.075 504.031 178.367 505.015 178.95C506.015 179.533 506.798 180.358 507.365 181.425C507.931 182.475 508.215 183.7 508.215 185.1C508.215 186.483 507.931 187.717 507.365 188.8C506.798 189.883 506.015 190.725 505.015 191.325C504.031 191.925 502.931 192.225 501.715 192.225C500.548 192.225 499.515 191.967 498.615 191.45C497.731 190.917 497.056 190.258 496.59 189.475V198.5H494.315V178.3H496.59V180.825ZM505.89 185.1C505.89 184.067 505.681 183.167 505.265 182.4C504.848 181.633 504.281 181.05 503.565 180.65C502.865 180.25 502.09 180.05 501.24 180.05C500.406 180.05 499.631 180.258 498.915 180.675C498.215 181.075 497.648 181.667 497.215 182.45C496.798 183.217 496.59 184.108 496.59 185.125C496.59 186.158 496.798 187.067 497.215 187.85C497.648 188.617 498.215 189.208 498.915 189.625C499.631 190.025 500.406 190.225 501.24 190.225C502.09 190.225 502.865 190.025 503.565 189.625C504.281 189.208 504.848 188.617 505.265 187.85C505.681 187.067 505.89 186.15 505.89 185.1ZM513.484 173.5V192H511.209V173.5H513.484ZM529.862 184.625C529.862 185.058 529.837 185.517 529.787 186H518.837C518.92 187.35 519.378 188.408 520.212 189.175C521.062 189.925 522.087 190.3 523.287 190.3C524.27 190.3 525.087 190.075 525.737 189.625C526.403 189.158 526.87 188.542 527.137 187.775H529.587C529.22 189.092 528.487 190.167 527.387 191C526.287 191.817 524.92 192.225 523.287 192.225C521.987 192.225 520.82 191.933 519.787 191.35C518.77 190.767 517.97 189.942 517.387 188.875C516.803 187.792 516.512 186.542 516.512 185.125C516.512 183.708 516.795 182.467 517.362 181.4C517.928 180.333 518.72 179.517 519.737 178.95C520.77 178.367 521.953 178.075 523.287 178.075C524.587 178.075 525.737 178.358 526.737 178.925C527.737 179.492 528.503 180.275 529.037 181.275C529.587 182.258 529.862 183.375 529.862 184.625ZM527.512 184.15C527.512 183.283 527.32 182.542 526.937 181.925C526.553 181.292 526.028 180.817 525.362 180.5C524.712 180.167 523.987 180 523.187 180C522.037 180 521.053 180.367 520.237 181.1C519.437 181.833 518.978 182.85 518.862 184.15H527.512ZM535.639 180.175V188.25C535.639 188.917 535.781 189.392 536.064 189.675C536.348 189.942 536.839 190.075 537.539 190.075H539.214V192H537.164C535.898 192 534.948 191.708 534.314 191.125C533.681 190.542 533.364 189.583 533.364 188.25V180.175H531.589V178.3H533.364V174.85H535.639V178.3H539.214V180.175H535.639ZM554.471 184.625C554.471 185.058 554.446 185.517 554.396 186H543.446C543.529 187.35 543.988 188.408 544.821 189.175C545.671 189.925 546.696 190.3 547.896 190.3C548.879 190.3 549.696 190.075 550.346 189.625C551.013 189.158 551.479 188.542 551.746 187.775H554.196C553.829 189.092 553.096 190.167 551.996 191C550.896 191.817 549.529 192.225 547.896 192.225C546.596 192.225 545.429 191.933 544.396 191.35C543.379 190.767 542.579 189.942 541.996 188.875C541.413 187.792 541.121 186.542 541.121 185.125C541.121 183.708 541.404 182.467 541.971 181.4C542.538 180.333 543.329 179.517 544.346 178.95C545.379 178.367 546.563 178.075 547.896 178.075C549.196 178.075 550.346 178.358 551.346 178.925C552.346 179.492 553.113 180.275 553.646 181.275C554.196 182.258 554.471 183.375 554.471 184.625ZM552.121 184.15C552.121 183.283 551.929 182.542 551.546 181.925C551.163 181.292 550.638 180.817 549.971 180.5C549.321 180.167 548.596 180 547.796 180C546.646 180 545.663 180.367 544.846 181.1C544.046 181.833 543.588 182.85 543.471 184.15H552.121ZM556.624 185.1C556.624 183.7 556.907 182.475 557.474 181.425C558.04 180.358 558.815 179.533 559.799 178.95C560.799 178.367 561.915 178.075 563.149 178.075C564.215 178.075 565.207 178.325 566.124 178.825C567.04 179.308 567.74 179.95 568.224 180.75V173.5H570.524V192H568.224V189.425C567.774 190.242 567.107 190.917 566.224 191.45C565.34 191.967 564.307 192.225 563.124 192.225C561.907 192.225 560.799 191.925 559.799 191.325C558.815 190.725 558.04 189.883 557.474 188.8C556.907 187.717 556.624 186.483 556.624 185.1ZM568.224 185.125C568.224 184.092 568.015 183.192 567.599 182.425C567.182 181.658 566.615 181.075 565.899 180.675C565.199 180.258 564.424 180.05 563.574 180.05C562.724 180.05 561.949 180.25 561.249 180.65C560.549 181.05 559.99 181.633 559.574 182.4C559.157 183.167 558.949 184.067 558.949 185.1C558.949 186.15 559.157 187.067 559.574 187.85C559.99 188.617 560.549 189.208 561.249 189.625C561.949 190.025 562.724 190.225 563.574 190.225C564.424 190.225 565.199 190.025 565.899 189.625C566.615 189.208 567.182 188.617 567.599 187.85C568.015 187.067 568.224 186.158 568.224 185.125ZM575.093 192.15C574.66 192.15 574.293 192 573.993 191.7C573.693 191.4 573.543 191.033 573.543 190.6C573.543 190.167 573.693 189.8 573.993 189.5C574.293 189.2 574.66 189.05 575.093 189.05C575.51 189.05 575.86 189.2 576.143 189.5C576.443 189.8 576.593 190.167 576.593 190.6C576.593 191.033 576.443 191.4 576.143 191.7C575.86 192 575.51 192.15 575.093 192.15Z" fill="white"/>
</g>
<defs>
<filter id="filter0_d_721_120" x="0" y="0" width="641" height="216" filterUnits="userSpaceOnUse" color-interpolation-filters="sRGB">
<feFlood flood-opacity="0" result="BackgroundImageFix"/>
<feColorMatrix in="SourceAlpha" type="matrix" values="0 0 0 0 0 0 0 0 0 0 0 0 0 0 0 0 0 0 127 0" result="hardAlpha"/>
<feOffset dy="4"/>
<feGaussianBlur stdDeviation="2"/>
<feComposite in2="hardAlpha" operator="out"/>
<feColorMatrix type="matrix" values="0 0 0 0 0 0 0 0 0 0 0 0 0 0 0 0 0 0 0.25 0"/>
<feBlend mode="normal" in2="BackgroundImageFix" result="effect1_dropShadow_721_120"/>
<feBlend mode="normal" in="SourceGraphic" in2="effect1_dropShadow_721_120" result="shape"/>
</filter>
</defs>
</svg>
