<svg width="413" height="472" viewBox="0 0 413 472" fill="none" xmlns="http://www.w3.org/2000/svg">
<g clip-path="url(#clip0_725_187)">
<rect width="413" height="472" fill="#F8F8F8"/>
<g filter="url(#filter0_d_725_187)">
<rect x="20" y="19" width="367" height="439" fill="white"/>
</g>
<path d="M46.174 44.363C47.77 44.363 49.149 44.664 50.311 45.266C51.487 45.854 52.383 46.701 52.999 47.807C53.629 48.913 53.944 50.215 53.944 51.713C53.944 53.211 53.629 54.513 52.999 55.619C52.383 56.711 51.487 57.551 50.311 58.139C49.149 58.713 47.77 59 46.174 59H41.617V44.363H46.174ZM46.174 57.425C48.064 57.425 49.506 56.928 50.5 55.934C51.494 54.926 51.991 53.519 51.991 51.713C51.991 49.893 51.487 48.472 50.479 47.45C49.485 46.428 48.05 45.917 46.174 45.917H43.528V57.425H46.174ZM58.3757 45.917V50.81H63.7097V52.385H58.3757V57.425H64.3397V59H56.4647V44.342H64.3397V45.917H58.3757ZM66.5173 51.671C66.5173 50.243 66.8393 48.962 67.4833 47.828C68.1273 46.68 69.0023 45.784 70.1083 45.14C71.2283 44.496 72.4673 44.174 73.8253 44.174C75.4213 44.174 76.8143 44.559 78.0043 45.329C79.1943 46.099 80.0623 47.191 80.6083 48.605H78.3193C77.9133 47.723 77.3253 47.044 76.5553 46.568C75.7993 46.092 74.8893 45.854 73.8253 45.854C72.8033 45.854 71.8863 46.092 71.0743 46.568C70.2623 47.044 69.6253 47.723 69.1633 48.605C68.7013 49.473 68.4703 50.495 68.4703 51.671C68.4703 52.833 68.7013 53.855 69.1633 54.737C69.6253 55.605 70.2623 56.277 71.0743 56.753C71.8863 57.229 72.8033 57.467 73.8253 57.467C74.8893 57.467 75.7993 57.236 76.5553 56.774C77.3253 56.298 77.9133 55.619 78.3193 54.737H80.6083C80.0623 56.137 79.1943 57.222 78.0043 57.992C76.8143 58.748 75.4213 59.126 73.8253 59.126C72.4673 59.126 71.2283 58.811 70.1083 58.181C69.0023 57.537 68.1273 56.648 67.4833 55.514C66.8393 54.38 66.5173 53.099 66.5173 51.671ZM85.3639 57.446H90.4879V59H83.4529V44.363H85.3639V57.446ZM101.169 55.745H94.7854L93.6094 59H91.5934L96.8854 44.447H99.0904L104.361 59H102.345L101.169 55.745ZM100.623 54.191L97.9774 46.799L95.3314 54.191H100.623ZM114.375 59L110.889 53.015H108.579V59H106.668V44.363H111.393C112.499 44.363 113.43 44.552 114.186 44.93C114.956 45.308 115.53 45.819 115.908 46.463C116.286 47.107 116.475 47.842 116.475 48.668C116.475 49.676 116.181 50.565 115.593 51.335C115.019 52.105 114.151 52.616 112.989 52.868L116.664 59H114.375ZM108.579 51.482H111.393C112.429 51.482 113.206 51.23 113.724 50.726C114.242 50.208 114.501 49.522 114.501 48.668C114.501 47.8 114.242 47.128 113.724 46.652C113.22 46.176 112.443 45.938 111.393 45.938H108.579V51.482ZM121.355 45.917V50.81H126.689V52.385H121.355V57.425H127.319V59H119.444V44.342H127.319V45.917H121.355ZM53.713 76.363L48.19 91H45.985L40.462 76.363H42.499L47.098 88.984L51.697 76.363H53.713ZM64.4604 87.745H58.0764L56.9004 91H54.8844L60.1764 76.447H62.3814L67.6524 91H65.6364L64.4604 87.745ZM63.9144 86.191L61.2684 78.799L58.6224 86.191H63.9144ZM77.6658 91L74.1798 85.015H71.8698V91H69.9588V76.363H74.6838C75.7898 76.363 76.7208 76.552 77.4768 76.93C78.2468 77.308 78.8208 77.819 79.1988 78.463C79.5768 79.107 79.7658 79.842 79.7658 80.668C79.7658 81.676 79.4718 82.565 78.8838 83.335C78.3098 84.105 77.4418 84.616 76.2798 84.868L79.9548 91H77.6658ZM71.8698 83.482H74.6838C75.7198 83.482 76.4968 83.23 77.0148 82.726C77.5328 82.208 77.7918 81.522 77.7918 80.668C77.7918 79.8 77.5328 79.128 77.0148 78.652C76.5108 78.176 75.7338 77.938 74.6838 77.938H71.8698V83.482ZM81.9162 77.56V75.817H85.8642V91H83.9322V77.56H81.9162ZM106.568 91H104.657L96.9714 79.345V91H95.0604V76.342H96.9714L104.657 87.976V76.342H106.568V91ZM111.695 76.363V85.624C111.695 86.926 112.01 87.892 112.64 88.522C113.284 89.152 114.173 89.467 115.307 89.467C116.427 89.467 117.302 89.152 117.932 88.522C118.576 87.892 118.898 86.926 118.898 85.624V76.363H120.809V85.603C120.809 86.821 120.564 87.85 120.074 88.69C119.584 89.516 118.919 90.132 118.079 90.538C117.253 90.944 116.322 91.147 115.286 91.147C114.25 91.147 113.312 90.944 112.472 90.538C111.646 90.132 110.988 89.516 110.498 88.69C110.022 87.85 109.784 86.821 109.784 85.603V76.363H111.695ZM138.844 76.468V91H136.933V80.164L132.103 91H130.759L125.908 80.143V91H123.997V76.468H126.055L131.431 88.48L136.807 76.468H138.844ZM149.414 83.461C149.946 83.545 150.429 83.762 150.863 84.112C151.311 84.462 151.661 84.896 151.913 85.414C152.179 85.932 152.312 86.485 152.312 87.073C152.312 87.815 152.123 88.487 151.745 89.089C151.367 89.677 150.814 90.146 150.086 90.496C149.372 90.832 148.525 91 147.545 91H142.085V76.363H147.335C148.329 76.363 149.176 76.531 149.876 76.867C150.576 77.189 151.101 77.63 151.451 78.19C151.801 78.75 151.976 79.38 151.976 80.08C151.976 80.948 151.738 81.669 151.262 82.243C150.8 82.803 150.184 83.209 149.414 83.461ZM143.996 82.684H147.209C148.105 82.684 148.798 82.474 149.288 82.054C149.778 81.634 150.023 81.053 150.023 80.311C150.023 79.569 149.778 78.988 149.288 78.568C148.798 78.148 148.091 77.938 147.167 77.938H143.996V82.684ZM147.377 89.425C148.329 89.425 149.071 89.201 149.603 88.753C150.135 88.305 150.401 87.682 150.401 86.884C150.401 86.072 150.121 85.435 149.561 84.973C149.001 84.497 148.252 84.259 147.314 84.259H143.996V89.425H147.377ZM156.875 77.917V82.81H162.209V84.385H156.875V89.425H162.839V91H154.964V76.342H162.839V77.917H156.875ZM173.437 91L169.951 85.015H167.641V91H165.73V76.363H170.455C171.561 76.363 172.492 76.552 173.248 76.93C174.018 77.308 174.592 77.819 174.97 78.463C175.348 79.107 175.537 79.842 175.537 80.668C175.537 81.676 175.243 82.565 174.655 83.335C174.081 84.105 173.213 84.616 172.051 84.868L175.726 91H173.437ZM167.641 83.482H170.455C171.491 83.482 172.268 83.23 172.786 82.726C173.304 82.208 173.563 81.522 173.563 80.668C173.563 79.8 173.304 79.128 172.786 78.652C172.282 78.176 171.505 77.938 170.455 77.938H167.641V83.482ZM179.62 82.117C179.256 82.117 178.948 81.991 178.696 81.739C178.444 81.487 178.318 81.179 178.318 80.815C178.318 80.451 178.444 80.143 178.696 79.891C178.948 79.639 179.256 79.513 179.62 79.513C179.97 79.513 180.264 79.639 180.502 79.891C180.754 80.143 180.88 80.451 180.88 80.815C180.88 81.179 180.754 81.487 180.502 81.739C180.264 81.991 179.97 82.117 179.62 82.117ZM181.006 88.354L178.654 94.003H177.373L178.906 88.354H181.006ZM53.713 108.363L48.19 123H45.985L40.462 108.363H42.499L47.098 120.984L51.697 108.363H53.713ZM64.4604 119.745H58.0764L56.9004 123H54.8844L60.1764 108.447H62.3814L67.6524 123H65.6364L64.4604 119.745ZM63.9144 118.191L61.2684 110.799L58.6224 118.191H63.9144ZM77.6658 123L74.1798 117.015H71.8698V123H69.9588V108.363H74.6838C75.7898 108.363 76.7208 108.552 77.4768 108.93C78.2468 109.308 78.8208 109.819 79.1988 110.463C79.5768 111.107 79.7658 111.842 79.7658 112.668C79.7658 113.676 79.4718 114.565 78.8838 115.335C78.3098 116.105 77.4418 116.616 76.2798 116.868L79.9548 123H77.6658ZM71.8698 115.482H74.6838C75.7198 115.482 76.4968 115.23 77.0148 114.726C77.5328 114.208 77.7918 113.522 77.7918 112.668C77.7918 111.8 77.5328 111.128 77.0148 110.652C76.5108 110.176 75.7338 109.938 74.6838 109.938H71.8698V115.482ZM82.1892 121.467C83.9672 120.039 85.3602 118.87 86.3682 117.96C87.3762 117.036 88.2232 116.077 88.9092 115.083C89.6092 114.075 89.9592 113.088 89.9592 112.122C89.9592 111.212 89.7352 110.498 89.2872 109.98C88.8532 109.448 88.1462 109.182 87.1662 109.182C86.2142 109.182 85.4722 109.483 84.9402 110.085C84.4222 110.673 84.1422 111.464 84.1002 112.458H82.2522C82.3082 110.89 82.7842 109.679 83.6802 108.825C84.5762 107.971 85.7312 107.544 87.1452 107.544C88.5872 107.544 89.7282 107.943 90.5682 108.741C91.4222 109.539 91.8492 110.638 91.8492 112.038C91.8492 113.2 91.4992 114.334 90.7992 115.44C90.1132 116.532 89.3292 117.498 88.4472 118.338C87.5652 119.164 86.4382 120.13 85.0662 121.236H92.2902V122.832H82.1892V121.467ZM111.921 123H110.01L102.324 111.345V123H100.413V108.342H102.324L110.01 119.976V108.342H111.921V123ZM117.048 108.363V117.624C117.048 118.926 117.363 119.892 117.993 120.522C118.637 121.152 119.526 121.467 120.66 121.467C121.78 121.467 122.655 121.152 123.285 120.522C123.929 119.892 124.251 118.926 124.251 117.624V108.363H126.162V117.603C126.162 118.821 125.917 119.85 125.427 120.69C124.937 121.516 124.272 122.132 123.432 122.538C122.606 122.944 121.675 123.147 120.639 123.147C119.603 123.147 118.665 122.944 117.825 122.538C116.999 122.132 116.341 121.516 115.851 120.69C115.375 119.85 115.137 118.821 115.137 117.603V108.363H117.048ZM144.196 108.468V123H142.285V112.164L137.455 123H136.111L131.26 112.143V123H129.349V108.468H131.407L136.783 120.48L142.159 108.468H144.196ZM154.766 115.461C155.298 115.545 155.781 115.762 156.215 116.112C156.663 116.462 157.013 116.896 157.265 117.414C157.531 117.932 157.664 118.485 157.664 119.073C157.664 119.815 157.475 120.487 157.097 121.089C156.719 121.677 156.166 122.146 155.438 122.496C154.724 122.832 153.877 123 152.897 123H147.437V108.363H152.687C153.681 108.363 154.528 108.531 155.228 108.867C155.928 109.189 156.453 109.63 156.803 110.19C157.153 110.75 157.328 111.38 157.328 112.08C157.328 112.948 157.09 113.669 156.614 114.243C156.152 114.803 155.536 115.209 154.766 115.461ZM149.348 114.684H152.561C153.457 114.684 154.15 114.474 154.64 114.054C155.13 113.634 155.375 113.053 155.375 112.311C155.375 111.569 155.13 110.988 154.64 110.568C154.15 110.148 153.443 109.938 152.519 109.938H149.348V114.684ZM152.729 121.425C153.681 121.425 154.423 121.201 154.955 120.753C155.487 120.305 155.753 119.682 155.753 118.884C155.753 118.072 155.473 117.435 154.913 116.973C154.353 116.497 153.604 116.259 152.666 116.259H149.348V121.425H152.729ZM162.227 109.917V114.81H167.561V116.385H162.227V121.425H168.191V123H160.316V108.342H168.191V109.917H162.227ZM178.79 123L175.304 117.015H172.994V123H171.083V108.363H175.808C176.914 108.363 177.845 108.552 178.601 108.93C179.371 109.308 179.945 109.819 180.323 110.463C180.701 111.107 180.89 111.842 180.89 112.668C180.89 113.676 180.596 114.565 180.008 115.335C179.434 116.105 178.566 116.616 177.404 116.868L181.079 123H178.79ZM172.994 115.482H175.808C176.844 115.482 177.621 115.23 178.139 114.726C178.657 114.208 178.916 113.522 178.916 112.668C178.916 111.8 178.657 111.128 178.139 110.652C177.635 110.176 176.858 109.938 175.808 109.938H172.994V115.482ZM184.972 114.117C184.608 114.117 184.3 113.991 184.048 113.739C183.796 113.487 183.67 113.179 183.67 112.815C183.67 112.451 183.796 112.143 184.048 111.891C184.3 111.639 184.608 111.513 184.972 111.513C185.322 111.513 185.616 111.639 185.854 111.891C186.106 112.143 186.232 112.451 186.232 112.815C186.232 113.179 186.106 113.487 185.854 113.739C185.616 113.991 185.322 114.117 184.972 114.117ZM186.358 120.354L184.006 126.003H182.725L184.258 120.354H186.358ZM48.946 147.461C49.478 147.545 49.961 147.762 50.395 148.112C50.843 148.462 51.193 148.896 51.445 149.414C51.711 149.932 51.844 150.485 51.844 151.073C51.844 151.815 51.655 152.487 51.277 153.089C50.899 153.677 50.346 154.146 49.618 154.496C48.904 154.832 48.057 155 47.077 155H41.617V140.363H46.867C47.861 140.363 48.708 140.531 49.408 140.867C50.108 141.189 50.633 141.63 50.983 142.19C51.333 142.75 51.508 143.38 51.508 144.08C51.508 144.948 51.27 145.669 50.794 146.243C50.332 146.803 49.716 147.209 48.946 147.461ZM43.528 146.684H46.741C47.637 146.684 48.33 146.474 48.82 146.054C49.31 145.634 49.555 145.053 49.555 144.311C49.555 143.569 49.31 142.988 48.82 142.568C48.33 142.148 47.623 141.938 46.699 141.938H43.528V146.684ZM46.909 153.425C47.861 153.425 48.603 153.201 49.135 152.753C49.667 152.305 49.933 151.682 49.933 150.884C49.933 150.072 49.653 149.435 49.093 148.973C48.533 148.497 47.784 148.259 46.846 148.259H43.528V153.425H46.909ZM56.4069 141.917V146.81H61.7409V148.385H56.4069V153.425H62.3709V155H54.4959V140.342H62.3709V141.917H56.4069ZM76.3505 144.605C75.9445 143.751 75.3565 143.093 74.5865 142.631C73.8165 142.155 72.9205 141.917 71.8985 141.917C70.8765 141.917 69.9525 142.155 69.1265 142.631C68.3145 143.093 67.6705 143.765 67.1945 144.647C66.7325 145.515 66.5015 146.523 66.5015 147.671C66.5015 148.819 66.7325 149.827 67.1945 150.695C67.6705 151.563 68.3145 152.235 69.1265 152.711C69.9525 153.173 70.8765 153.404 71.8985 153.404C73.3265 153.404 74.5025 152.977 75.4265 152.123C76.3505 151.269 76.8895 150.114 77.0435 148.658H71.2055V147.104H79.0805V148.574C78.9685 149.778 78.5905 150.884 77.9465 151.892C77.3025 152.886 76.4555 153.677 75.4055 154.265C74.3555 154.839 73.1865 155.126 71.8985 155.126C70.5405 155.126 69.3015 154.811 68.1815 154.181C67.0615 153.537 66.1725 152.648 65.5145 151.514C64.8705 150.38 64.5485 149.099 64.5485 147.671C64.5485 146.243 64.8705 144.962 65.5145 143.828C66.1725 142.68 67.0615 141.791 68.1815 141.161C69.3015 140.517 70.5405 140.195 71.8985 140.195C73.4525 140.195 74.8245 140.58 76.0145 141.35C77.2185 142.12 78.0935 143.205 78.6395 144.605H76.3505ZM83.5182 140.363V155H81.6072V140.363H83.5182ZM98.2832 155H96.3722L88.6862 143.345V155H86.7752V140.342H88.6862L96.3722 151.976V140.342H98.2832V155ZM53.713 172.363L48.19 187H45.985L40.462 172.363H42.499L47.098 184.984L51.697 172.363H53.713ZM64.4604 183.745H58.0764L56.9004 187H54.8844L60.1764 172.447H62.3814L67.6524 187H65.6364L64.4604 183.745ZM63.9144 182.191L61.2684 174.799L58.6224 182.191H63.9144ZM77.6658 187L74.1798 181.015H71.8698V187H69.9588V172.363H74.6838C75.7898 172.363 76.7208 172.552 77.4768 172.93C78.2468 173.308 78.8208 173.819 79.1988 174.463C79.5768 175.107 79.7658 175.842 79.7658 176.668C79.7658 177.676 79.4718 178.565 78.8838 179.335C78.3098 180.105 77.4418 180.616 76.2798 180.868L79.9548 187H77.6658ZM71.8698 179.482H74.6838C75.7198 179.482 76.4968 179.23 77.0148 178.726C77.5328 178.208 77.7918 177.522 77.7918 176.668C77.7918 175.8 77.5328 175.128 77.0148 174.652C76.5108 174.176 75.7338 173.938 74.6838 173.938H71.8698V179.482ZM81.9162 173.56V171.817H85.8642V187H83.9322V173.56H81.9162ZM90.0707 187.126C89.7067 187.126 89.3987 187 89.1467 186.748C88.8947 186.496 88.7687 186.188 88.7687 185.824C88.7687 185.46 88.8947 185.152 89.1467 184.9C89.3987 184.648 89.7067 184.522 90.0707 184.522C90.4207 184.522 90.7147 184.648 90.9527 184.9C91.2047 185.152 91.3307 185.46 91.3307 185.824C91.3307 186.188 91.2047 186.496 90.9527 186.748C90.7147 187 90.4207 187.126 90.0707 187.126ZM90.0707 178.138C89.7067 178.138 89.3987 178.012 89.1467 177.76C88.8947 177.508 88.7687 177.2 88.7687 176.836C88.7687 176.472 88.8947 176.164 89.1467 175.912C89.3987 175.66 89.7067 175.534 90.0707 175.534C90.4207 175.534 90.7147 175.66 90.9527 175.912C91.2047 176.164 91.3307 176.472 91.3307 176.836C91.3307 177.2 91.2047 177.508 90.9527 177.76C90.7147 178.012 90.4207 178.138 90.0707 178.138ZM105.356 176.248V177.865H94.4364V176.248H105.356ZM105.356 180.763V182.38H94.4364V180.763H105.356ZM108.562 185.467C110.34 184.039 111.733 182.87 112.741 181.96C113.749 181.036 114.596 180.077 115.282 179.083C115.982 178.075 116.332 177.088 116.332 176.122C116.332 175.212 116.108 174.498 115.66 173.98C115.226 173.448 114.519 173.182 113.539 173.182C112.587 173.182 111.845 173.483 111.313 174.085C110.795 174.673 110.515 175.464 110.473 176.458H108.625C108.681 174.89 109.157 173.679 110.053 172.825C110.949 171.971 112.104 171.544 113.518 171.544C114.96 171.544 116.101 171.943 116.941 172.741C117.795 173.539 118.222 174.638 118.222 176.038C118.222 177.2 117.872 178.334 117.172 179.44C116.486 180.532 115.702 181.498 114.82 182.338C113.938 183.164 112.811 184.13 111.439 185.236H118.663V186.832H108.562V185.467ZM120.872 179.251C120.872 176.843 121.264 174.967 122.048 173.623C122.832 172.265 124.204 171.586 126.164 171.586C128.11 171.586 129.475 172.265 130.259 173.623C131.043 174.967 131.435 176.843 131.435 179.251C131.435 181.701 131.043 183.605 130.259 184.963C129.475 186.321 128.11 187 126.164 187C124.204 187 122.832 186.321 122.048 184.963C121.264 183.605 120.872 181.701 120.872 179.251ZM129.545 179.251C129.545 178.033 129.461 177.004 129.293 176.164C129.139 175.31 128.81 174.624 128.306 174.106C127.816 173.588 127.102 173.329 126.164 173.329C125.212 173.329 124.484 173.588 123.98 174.106C123.49 174.624 123.161 175.31 122.993 176.164C122.839 177.004 122.762 178.033 122.762 179.251C122.762 180.511 122.839 181.568 122.993 182.422C123.161 183.276 123.49 183.962 123.98 184.48C124.484 184.998 125.212 185.257 126.164 185.257C127.102 185.257 127.816 184.998 128.306 184.48C128.81 183.962 129.139 183.276 129.293 182.422C129.461 181.568 129.545 180.511 129.545 179.251ZM134.059 179.251C134.059 176.843 134.451 174.967 135.235 173.623C136.019 172.265 137.391 171.586 139.351 171.586C141.297 171.586 142.662 172.265 143.446 173.623C144.23 174.967 144.622 176.843 144.622 179.251C144.622 181.701 144.23 183.605 143.446 184.963C142.662 186.321 141.297 187 139.351 187C137.391 187 136.019 186.321 135.235 184.963C134.451 183.605 134.059 181.701 134.059 179.251ZM142.732 179.251C142.732 178.033 142.648 177.004 142.48 176.164C142.326 175.31 141.997 174.624 141.493 174.106C141.003 173.588 140.289 173.329 139.351 173.329C138.399 173.329 137.671 173.588 137.167 174.106C136.677 174.624 136.348 175.31 136.18 176.164C136.026 177.004 135.949 178.033 135.949 179.251C135.949 180.511 136.026 181.568 136.18 182.422C136.348 183.276 136.677 183.962 137.167 184.48C137.671 184.998 138.399 185.257 139.351 185.257C140.289 185.257 141.003 184.998 141.493 184.48C141.997 183.962 142.326 183.276 142.48 182.422C142.648 181.568 142.732 180.511 142.732 179.251ZM148.673 178.117C148.309 178.117 148.001 177.991 147.749 177.739C147.497 177.487 147.371 177.179 147.371 176.815C147.371 176.451 147.497 176.143 147.749 175.891C148.001 175.639 148.309 175.513 148.673 175.513C149.023 175.513 149.317 175.639 149.555 175.891C149.807 176.143 149.933 176.451 149.933 176.815C149.933 177.179 149.807 177.487 149.555 177.739C149.317 177.991 149.023 178.117 148.673 178.117ZM150.059 184.354L147.707 190.003H146.426L147.959 184.354H150.059ZM53.713 204.363L48.19 219H45.985L40.462 204.363H42.499L47.098 216.984L51.697 204.363H53.713ZM64.4604 215.745H58.0764L56.9004 219H54.8844L60.1764 204.447H62.3814L67.6524 219H65.6364L64.4604 215.745ZM63.9144 214.191L61.2684 206.799L58.6224 214.191H63.9144ZM77.6658 219L74.1798 213.015H71.8698V219H69.9588V204.363H74.6838C75.7898 204.363 76.7208 204.552 77.4768 204.93C78.2468 205.308 78.8208 205.819 79.1988 206.463C79.5768 207.107 79.7658 207.842 79.7658 208.668C79.7658 209.676 79.4718 210.565 78.8838 211.335C78.3098 212.105 77.4418 212.616 76.2798 212.868L79.9548 219H77.6658ZM71.8698 211.482H74.6838C75.7198 211.482 76.4968 211.23 77.0148 210.726C77.5328 210.208 77.7918 209.522 77.7918 208.668C77.7918 207.8 77.5328 207.128 77.0148 206.652C76.5108 206.176 75.7338 205.938 74.6838 205.938H71.8698V211.482ZM82.1892 217.467C83.9672 216.039 85.3602 214.87 86.3682 213.96C87.3762 213.036 88.2232 212.077 88.9092 211.083C89.6092 210.075 89.9592 209.088 89.9592 208.122C89.9592 207.212 89.7352 206.498 89.2872 205.98C88.8532 205.448 88.1462 205.182 87.1662 205.182C86.2142 205.182 85.4722 205.483 84.9402 206.085C84.4222 206.673 84.1422 207.464 84.1002 208.458H82.2522C82.3082 206.89 82.7842 205.679 83.6802 204.825C84.5762 203.971 85.7312 203.544 87.1452 203.544C88.5872 203.544 89.7282 203.943 90.5682 204.741C91.4222 205.539 91.8492 206.638 91.8492 208.038C91.8492 209.2 91.4992 210.334 90.7992 211.44C90.1132 212.532 89.3292 213.498 88.4472 214.338C87.5652 215.164 86.4382 216.13 85.0662 217.236H92.2902V218.832H82.1892V217.467ZM95.4233 219.126C95.0593 219.126 94.7513 219 94.4993 218.748C94.2473 218.496 94.1213 218.188 94.1213 217.824C94.1213 217.46 94.2473 217.152 94.4993 216.9C94.7513 216.648 95.0593 216.522 95.4233 216.522C95.7733 216.522 96.0673 216.648 96.3053 216.9C96.5573 217.152 96.6833 217.46 96.6833 217.824C96.6833 218.188 96.5573 218.496 96.3053 218.748C96.0673 219 95.7733 219.126 95.4233 219.126ZM95.4233 210.138C95.0593 210.138 94.7513 210.012 94.4993 209.76C94.2473 209.508 94.1213 209.2 94.1213 208.836C94.1213 208.472 94.2473 208.164 94.4993 207.912C94.7513 207.66 95.0593 207.534 95.4233 207.534C95.7733 207.534 96.0673 207.66 96.3053 207.912C96.5573 208.164 96.6833 208.472 96.6833 208.836C96.6833 209.2 96.5573 209.508 96.3053 209.76C96.0673 210.012 95.7733 210.138 95.4233 210.138ZM110.709 208.248V209.865H99.789V208.248H110.709ZM110.709 212.763V214.38H99.789V212.763H110.709ZM113.642 205.56V203.817H117.59V219H115.658V205.56H113.642ZM122.3 210.117C121.936 210.117 121.628 209.991 121.376 209.739C121.124 209.487 120.998 209.179 120.998 208.815C120.998 208.451 121.124 208.143 121.376 207.891C121.628 207.639 121.936 207.513 122.3 207.513C122.65 207.513 122.944 207.639 123.182 207.891C123.434 208.143 123.56 208.451 123.56 208.815C123.56 209.179 123.434 209.487 123.182 209.739C122.944 209.991 122.65 210.117 122.3 210.117ZM123.686 216.354L121.334 222.003H120.053L121.586 216.354H123.686ZM60.013 236.363L55.771 251H53.629L50.227 239.219L46.699 251L44.578 251.021L40.483 236.363H42.52L45.712 248.774L49.24 236.363H51.382L54.742 248.732L57.955 236.363H60.013ZM73.3813 236.363V251H71.4703V244.364H64.0153V251H62.1043V236.363H64.0153V242.789H71.4703V236.363H73.3813ZM78.5553 236.363V251H76.6443V236.363H78.5553ZM83.7233 249.446H88.8473V251H81.8123V236.363H83.7233V249.446ZM92.7878 237.917V242.81H98.1218V244.385H92.7878V249.425H98.7518V251H90.8768V236.342H98.7518V237.917H92.7878ZM112.156 254.906C110.812 253.59 109.762 251.917 109.006 249.887C108.264 247.857 107.893 245.666 107.893 243.314C107.893 240.906 108.285 238.659 109.069 236.573C109.867 234.473 111.001 232.744 112.471 231.386H114.466V231.575C112.898 233.045 111.715 234.816 110.917 236.888C110.133 238.946 109.741 241.088 109.741 243.314C109.741 245.484 110.112 247.556 110.854 249.53C111.61 251.504 112.709 253.233 114.151 254.717V254.906H112.156ZM128.874 236.363L123.351 251H121.146L115.623 236.363H117.66L122.259 248.984L126.858 236.363H128.874ZM139.622 247.745H133.238L132.062 251H130.046L135.338 236.447H137.543L142.814 251H140.798L139.622 247.745ZM139.076 246.191L136.43 238.799L133.784 246.191H139.076ZM152.827 251L149.341 245.015H147.031V251H145.12V236.363H149.845C150.951 236.363 151.882 236.552 152.638 236.93C153.408 237.308 153.982 237.819 154.36 238.463C154.738 239.107 154.927 239.842 154.927 240.668C154.927 241.676 154.633 242.565 154.045 243.335C153.471 244.105 152.603 244.616 151.441 244.868L155.116 251H152.827ZM147.031 243.482H149.845C150.881 243.482 151.658 243.23 152.176 242.726C152.694 242.208 152.953 241.522 152.953 240.668C152.953 239.8 152.694 239.128 152.176 238.652C151.672 238.176 150.895 237.938 149.845 237.938H147.031V243.482ZM157.35 249.467C159.128 248.039 160.521 246.87 161.529 245.96C162.537 245.036 163.384 244.077 164.07 243.083C164.77 242.075 165.12 241.088 165.12 240.122C165.12 239.212 164.896 238.498 164.448 237.98C164.014 237.448 163.307 237.182 162.327 237.182C161.375 237.182 160.633 237.483 160.101 238.085C159.583 238.673 159.303 239.464 159.261 240.458H157.413C157.469 238.89 157.945 237.679 158.841 236.825C159.737 235.971 160.892 235.544 162.306 235.544C163.748 235.544 164.889 235.943 165.729 236.741C166.583 237.539 167.01 238.638 167.01 240.038C167.01 241.2 166.66 242.334 165.96 243.44C165.274 244.532 164.49 245.498 163.608 246.338C162.726 247.164 161.599 248.13 160.227 249.236H167.451V250.832H157.35V249.467ZM175.183 248.144L170.122 243.314L175.183 238.505H177.598L172.516 243.314L177.598 248.144H175.183ZM193.048 240.248V241.865H182.128V240.248H193.048ZM193.048 244.763V246.38H182.128V244.763H193.048ZM195.981 237.56V235.817H199.929V251H197.997V237.56H195.981ZM203.211 243.251C203.211 240.843 203.603 238.967 204.387 237.623C205.171 236.265 206.543 235.586 208.503 235.586C210.449 235.586 211.814 236.265 212.598 237.623C213.382 238.967 213.774 240.843 213.774 243.251C213.774 245.701 213.382 247.605 212.598 248.963C211.814 250.321 210.449 251 208.503 251C206.543 251 205.171 250.321 204.387 248.963C203.603 247.605 203.211 245.701 203.211 243.251ZM211.884 243.251C211.884 242.033 211.8 241.004 211.632 240.164C211.478 239.31 211.149 238.624 210.645 238.106C210.155 237.588 209.441 237.329 208.503 237.329C207.551 237.329 206.823 237.588 206.319 238.106C205.829 238.624 205.5 239.31 205.332 240.164C205.178 241.004 205.101 242.033 205.101 243.251C205.101 244.511 205.178 245.568 205.332 246.422C205.5 247.276 205.829 247.962 206.319 248.48C206.823 248.998 207.551 249.257 208.503 249.257C209.441 249.257 210.155 248.998 210.645 248.48C211.149 247.962 211.478 247.276 211.632 246.422C211.8 245.568 211.884 244.511 211.884 243.251ZM216.104 254.906V254.717C217.546 253.233 218.638 251.504 219.38 249.53C220.136 247.556 220.514 245.484 220.514 243.314C220.514 241.088 220.115 238.946 219.317 236.888C218.533 234.816 217.357 233.045 215.789 231.575V231.386H217.784C219.254 232.744 220.381 234.473 221.165 236.573C221.963 238.659 222.362 240.906 222.362 243.314C222.362 245.666 221.984 247.857 221.228 249.887C220.486 251.917 219.443 253.59 218.099 254.906H216.104ZM43.528 281.446H48.652V283H41.617V268.363H43.528V281.446ZM57.3175 283.147C55.9595 283.147 54.7205 282.832 53.6005 282.202C52.4805 281.558 51.5915 280.669 50.9335 279.535C50.2895 278.387 49.9675 277.099 49.9675 275.671C49.9675 274.243 50.2895 272.962 50.9335 271.828C51.5915 270.68 52.4805 269.791 53.6005 269.161C54.7205 268.517 55.9595 268.195 57.3175 268.195C58.6895 268.195 59.9355 268.517 61.0555 269.161C62.1755 269.791 63.0575 270.673 63.7015 271.807C64.3455 272.941 64.6675 274.229 64.6675 275.671C64.6675 277.113 64.3455 278.401 63.7015 279.535C63.0575 280.669 62.1755 281.558 61.0555 282.202C59.9355 282.832 58.6895 283.147 57.3175 283.147ZM57.3175 281.488C58.3395 281.488 59.2565 281.25 60.0685 280.774C60.8945 280.298 61.5385 279.619 62.0005 278.737C62.4765 277.855 62.7145 276.833 62.7145 275.671C62.7145 274.495 62.4765 273.473 62.0005 272.605C61.5385 271.723 60.9015 271.044 60.0895 270.568C59.2775 270.092 58.3535 269.854 57.3175 269.854C56.2815 269.854 55.3575 270.092 54.5455 270.568C53.7335 271.044 53.0895 271.723 52.6135 272.605C52.1515 273.473 51.9205 274.495 51.9205 275.671C51.9205 276.833 52.1515 277.855 52.6135 278.737C53.0895 279.619 53.7335 280.298 54.5455 280.774C55.3715 281.25 56.2955 281.488 57.3175 281.488ZM73.8262 283.147C72.4682 283.147 71.2292 282.832 70.1092 282.202C68.9892 281.558 68.1002 280.669 67.4422 279.535C66.7982 278.387 66.4762 277.099 66.4762 275.671C66.4762 274.243 66.7982 272.962 67.4422 271.828C68.1002 270.68 68.9892 269.791 70.1092 269.161C71.2292 268.517 72.4682 268.195 73.8262 268.195C75.1982 268.195 76.4442 268.517 77.5642 269.161C78.6842 269.791 79.5662 270.673 80.2102 271.807C80.8542 272.941 81.1762 274.229 81.1762 275.671C81.1762 277.113 80.8542 278.401 80.2102 279.535C79.5662 280.669 78.6842 281.558 77.5642 282.202C76.4442 282.832 75.1982 283.147 73.8262 283.147ZM73.8262 281.488C74.8482 281.488 75.7652 281.25 76.5772 280.774C77.4032 280.298 78.0472 279.619 78.5092 278.737C78.9852 277.855 79.2232 276.833 79.2232 275.671C79.2232 274.495 78.9852 273.473 78.5092 272.605C78.0472 271.723 77.4102 271.044 76.5982 270.568C75.7862 270.092 74.8622 269.854 73.8262 269.854C72.7902 269.854 71.8662 270.092 71.0542 270.568C70.2422 271.044 69.5982 271.723 69.1222 272.605C68.6602 273.473 68.4292 274.495 68.4292 275.671C68.4292 276.833 68.6602 277.855 69.1222 278.737C69.5982 279.619 70.2422 280.298 71.0542 280.774C71.8802 281.25 72.8042 281.488 73.8262 281.488ZM93.485 272.647C93.485 273.865 93.065 274.88 92.225 275.692C91.399 276.49 90.132 276.889 88.424 276.889H85.61V283H83.699V268.363H88.424C90.076 268.363 91.329 268.762 92.183 269.56C93.051 270.358 93.485 271.387 93.485 272.647ZM88.424 275.314C89.488 275.314 90.272 275.083 90.776 274.621C91.28 274.159 91.532 273.501 91.532 272.647C91.532 270.841 90.496 269.938 88.424 269.938H85.61V275.314H88.424ZM46.174 300.363C47.77 300.363 49.149 300.664 50.311 301.266C51.487 301.854 52.383 302.701 52.999 303.807C53.629 304.913 53.944 306.215 53.944 307.713C53.944 309.211 53.629 310.513 52.999 311.619C52.383 312.711 51.487 313.551 50.311 314.139C49.149 314.713 47.77 315 46.174 315H41.617V300.363H46.174ZM46.174 313.425C48.064 313.425 49.506 312.928 50.5 311.934C51.494 310.926 51.991 309.519 51.991 307.713C51.991 305.893 51.487 304.472 50.479 303.45C49.485 302.428 48.05 301.917 46.174 301.917H43.528V313.425H46.174ZM63.7937 307.461C64.3257 307.545 64.8087 307.762 65.2427 308.112C65.6907 308.462 66.0407 308.896 66.2927 309.414C66.5587 309.932 66.6917 310.485 66.6917 311.073C66.6917 311.815 66.5027 312.487 66.1247 313.089C65.7467 313.677 65.1937 314.146 64.4657 314.496C63.7517 314.832 62.9047 315 61.9247 315H56.4647V300.363H61.7147C62.7087 300.363 63.5557 300.531 64.2557 300.867C64.9557 301.189 65.4807 301.63 65.8307 302.19C66.1807 302.75 66.3557 303.38 66.3557 304.08C66.3557 304.948 66.1177 305.669 65.6417 306.243C65.1797 306.803 64.5637 307.209 63.7937 307.461ZM58.3757 306.684H61.5887C62.4847 306.684 63.1777 306.474 63.6677 306.054C64.1577 305.634 64.4027 305.053 64.4027 304.311C64.4027 303.569 64.1577 302.988 63.6677 302.568C63.1777 302.148 62.4707 301.938 61.5467 301.938H58.3757V306.684ZM61.7567 313.425C62.7087 313.425 63.4507 313.201 63.9827 312.753C64.5147 312.305 64.7807 311.682 64.7807 310.884C64.7807 310.072 64.5007 309.435 63.9407 308.973C63.3807 308.497 62.6317 308.259 61.6937 308.259H58.3757V313.425H61.7567ZM84.1906 300.468V315H82.2796V304.164L77.4496 315H76.1056L71.2546 304.143V315H69.3436V300.468H71.4016L76.7776 312.48L82.1536 300.468H84.1906ZM92.0725 315.147C91.1065 315.147 90.2385 314.979 89.4685 314.643C88.7125 314.293 88.1175 313.817 87.6835 313.215C87.2495 312.599 87.0255 311.892 87.0115 311.094H89.0485C89.1185 311.78 89.3985 312.361 89.8885 312.837C90.3925 313.299 91.1205 313.53 92.0725 313.53C92.9825 313.53 93.6965 313.306 94.2145 312.858C94.7465 312.396 95.0125 311.808 95.0125 311.094C95.0125 310.534 94.8585 310.079 94.5505 309.729C94.2425 309.379 93.8575 309.113 93.3955 308.931C92.9335 308.749 92.3105 308.553 91.5265 308.343C90.5605 308.091 89.7835 307.839 89.1955 307.587C88.6215 307.335 88.1245 306.943 87.7045 306.411C87.2985 305.865 87.0955 305.137 87.0955 304.227C87.0955 303.429 87.2985 302.722 87.7045 302.106C88.1105 301.49 88.6775 301.014 89.4055 300.678C90.1475 300.342 90.9945 300.174 91.9465 300.174C93.3185 300.174 94.4385 300.517 95.3065 301.203C96.1885 301.889 96.6855 302.799 96.7975 303.933H94.6975C94.6275 303.373 94.3335 302.883 93.8155 302.463C93.2975 302.029 92.6115 301.812 91.7575 301.812C90.9595 301.812 90.3085 302.022 89.8045 302.442C89.3005 302.848 89.0485 303.422 89.0485 304.164C89.0485 304.696 89.1955 305.13 89.4895 305.466C89.7975 305.802 90.1685 306.061 90.6025 306.243C91.0505 306.411 91.6735 306.607 92.4715 306.831C93.4375 307.097 94.2145 307.363 94.8025 307.629C95.3905 307.881 95.8945 308.28 96.3145 308.826C96.7345 309.358 96.9445 310.086 96.9445 311.01C96.9445 311.724 96.7555 312.396 96.3775 313.026C95.9995 313.656 95.4395 314.167 94.6975 314.559C93.9555 314.951 93.0805 315.147 92.0725 315.147ZM111.517 315.798V317.562H100.345V315.798H111.517ZM121.794 315.147C120.436 315.147 119.197 314.832 118.077 314.202C116.957 313.558 116.068 312.669 115.41 311.535C114.766 310.387 114.444 309.099 114.444 307.671C114.444 306.243 114.766 304.962 115.41 303.828C116.068 302.68 116.957 301.791 118.077 301.161C119.197 300.517 120.436 300.195 121.794 300.195C123.166 300.195 124.412 300.517 125.532 301.161C126.652 301.791 127.534 302.673 128.178 303.807C128.822 304.941 129.144 306.229 129.144 307.671C129.144 309.113 128.822 310.401 128.178 311.535C127.534 312.669 126.652 313.558 125.532 314.202C124.412 314.832 123.166 315.147 121.794 315.147ZM121.794 313.488C122.816 313.488 123.733 313.25 124.545 312.774C125.371 312.298 126.015 311.619 126.477 310.737C126.953 309.855 127.191 308.833 127.191 307.671C127.191 306.495 126.953 305.473 126.477 304.605C126.015 303.723 125.378 303.044 124.566 302.568C123.754 302.092 122.83 301.854 121.794 301.854C120.758 301.854 119.834 302.092 119.022 302.568C118.21 303.044 117.566 303.723 117.09 304.605C116.628 305.473 116.397 306.495 116.397 307.671C116.397 308.833 116.628 309.855 117.09 310.737C117.566 311.619 118.21 312.298 119.022 312.774C119.848 313.25 120.772 313.488 121.794 313.488ZM133.536 300.363V309.624C133.536 310.926 133.851 311.892 134.481 312.522C135.125 313.152 136.014 313.467 137.148 313.467C138.268 313.467 139.143 313.152 139.773 312.522C140.417 311.892 140.739 310.926 140.739 309.624V300.363H142.65V309.603C142.65 310.821 142.405 311.85 141.915 312.69C141.425 313.516 140.76 314.132 139.92 314.538C139.094 314.944 138.163 315.147 137.127 315.147C136.091 315.147 135.153 314.944 134.313 314.538C133.487 314.132 132.829 313.516 132.339 312.69C131.863 311.85 131.625 310.821 131.625 309.603V300.363H133.536ZM154.847 300.363V301.917H150.857V315H148.946V301.917H144.935V300.363H154.847ZM166.985 304.647C166.985 305.865 166.565 306.88 165.725 307.692C164.899 308.49 163.632 308.889 161.924 308.889H159.11V315H157.199V300.363H161.924C163.576 300.363 164.829 300.762 165.683 301.56C166.551 302.358 166.985 303.387 166.985 304.647ZM161.924 307.314C162.988 307.314 163.772 307.083 164.276 306.621C164.78 306.159 165.032 305.501 165.032 304.647C165.032 302.841 163.996 301.938 161.924 301.938H159.11V307.314H161.924ZM171.229 300.363V309.624C171.229 310.926 171.544 311.892 172.174 312.522C172.818 313.152 173.707 313.467 174.841 313.467C175.961 313.467 176.836 313.152 177.466 312.522C178.11 311.892 178.432 310.926 178.432 309.624V300.363H180.343V309.603C180.343 310.821 180.098 311.85 179.608 312.69C179.118 313.516 178.453 314.132 177.613 314.538C176.787 314.944 175.856 315.147 174.82 315.147C173.784 315.147 172.846 314.944 172.006 314.538C171.18 314.132 170.522 313.516 170.032 312.69C169.556 311.85 169.318 310.821 169.318 309.603V300.363H171.229ZM192.54 300.363V301.917H188.55V315H186.639V301.917H182.628V300.363H192.54ZM195.501 315.126C195.137 315.126 194.829 315 194.577 314.748C194.325 314.496 194.199 314.188 194.199 313.824C194.199 313.46 194.325 313.152 194.577 312.9C194.829 312.648 195.137 312.522 195.501 312.522C195.851 312.522 196.145 312.648 196.383 312.9C196.635 313.152 196.761 313.46 196.761 313.824C196.761 314.188 196.635 314.496 196.383 314.748C196.145 315 195.851 315.126 195.501 315.126ZM209.088 304.647C209.088 305.865 208.668 306.88 207.828 307.692C207.002 308.49 205.735 308.889 204.027 308.889H201.213V315H199.302V300.363H204.027C205.679 300.363 206.932 300.762 207.786 301.56C208.654 302.358 209.088 303.387 209.088 304.647ZM204.027 307.314C205.091 307.314 205.875 307.083 206.379 306.621C206.883 306.159 207.135 305.501 207.135 304.647C207.135 302.841 206.099 301.938 204.027 301.938H201.213V307.314H204.027ZM213.332 300.363V309.624C213.332 310.926 213.647 311.892 214.277 312.522C214.921 313.152 215.81 313.467 216.944 313.467C218.064 313.467 218.939 313.152 219.569 312.522C220.213 311.892 220.535 310.926 220.535 309.624V300.363H222.446V309.603C222.446 310.821 222.201 311.85 221.711 312.69C221.221 313.516 220.556 314.132 219.716 314.538C218.89 314.944 217.959 315.147 216.923 315.147C215.887 315.147 214.949 314.944 214.109 314.538C213.283 314.132 212.625 313.516 212.135 312.69C211.659 311.85 211.421 310.821 211.421 309.603V300.363H213.332ZM234.643 300.363V301.917H230.653V315H228.742V301.917H224.731V300.363H234.643ZM248.755 315.798V317.562H237.583V315.798H248.755ZM254.307 313.446H259.431V315H252.396V300.363H254.307V313.446ZM263.372 300.363V315H261.461V300.363H263.372ZM278.137 315H276.226L268.54 303.345V315H266.629V300.342H268.54L276.226 311.976V300.342H278.137V315ZM283.305 301.917V306.81H288.639V308.385H283.305V313.425H289.269V315H281.394V300.342H289.269V301.917H283.305ZM46.531 350.906C45.187 349.59 44.137 347.917 43.381 345.887C42.639 343.857 42.268 341.666 42.268 339.314C42.268 336.906 42.66 334.659 43.444 332.573C44.242 330.473 45.376 328.744 46.846 327.386H48.841V327.575C47.273 329.045 46.09 330.816 45.292 332.888C44.508 334.946 44.116 337.088 44.116 339.314C44.116 341.484 44.487 343.556 45.229 345.53C45.985 347.504 47.084 349.233 48.526 350.717V350.906H46.531ZM63.2491 332.363L57.7261 347H55.5211L49.9981 332.363H52.0351L56.6341 344.984L61.2331 332.363H63.2491ZM73.9965 343.745H67.6125L66.4365 347H64.4205L69.7125 332.447H71.9175L77.1885 347H75.1725L73.9965 343.745ZM73.4505 342.191L70.8045 334.799L68.1585 342.191H73.4505ZM87.2019 347L83.7159 341.015H81.4059V347H79.4949V332.363H84.2199C85.3259 332.363 86.2569 332.552 87.0129 332.93C87.7829 333.308 88.3569 333.819 88.7349 334.463C89.1129 335.107 89.3019 335.842 89.3019 336.668C89.3019 337.676 89.0079 338.565 88.4199 339.335C87.8459 340.105 86.9779 340.616 85.8159 340.868L89.4909 347H87.2019ZM81.4059 339.482H84.2199C85.2559 339.482 86.0329 339.23 86.5509 338.726C87.0689 338.208 87.3279 337.522 87.3279 336.668C87.3279 335.8 87.0689 335.128 86.5509 334.652C86.0469 334.176 85.2699 333.938 84.2199 333.938H81.4059V339.482ZM91.4523 333.56V331.817H95.4003V347H93.4683V333.56H91.4523ZM105.508 332.93L106.264 334.295L103.345 335.513L106.285 336.71L105.487 338.117L102.946 336.269L103.282 339.44H101.707L102.022 336.269L99.4809 338.138L98.6619 336.71L101.581 335.492L98.6619 334.316L99.4389 332.909L102.043 334.778L101.707 331.586H103.303L102.946 334.778L105.508 332.93ZM121.307 332.363L115.784 347H113.579L108.056 332.363H110.093L114.692 344.984L119.291 332.363H121.307ZM132.054 343.745H125.67L124.494 347H122.478L127.77 332.447H129.975L135.246 347H133.23L132.054 343.745ZM131.508 342.191L128.862 334.799L126.216 342.191H131.508ZM145.26 347L141.774 341.015H139.464V347H137.553V332.363H142.278C143.384 332.363 144.315 332.552 145.071 332.93C145.841 333.308 146.415 333.819 146.793 334.463C147.171 335.107 147.36 335.842 147.36 336.668C147.36 337.676 147.066 338.565 146.478 339.335C145.904 340.105 145.036 340.616 143.874 340.868L147.549 347H145.26ZM139.464 339.482H142.278C143.314 339.482 144.091 339.23 144.609 338.726C145.127 338.208 145.386 337.522 145.386 336.668C145.386 335.8 145.127 335.128 144.609 334.652C144.105 334.176 143.328 333.938 142.278 333.938H139.464V339.482ZM149.783 345.467C151.561 344.039 152.954 342.87 153.962 341.96C154.97 341.036 155.817 340.077 156.503 339.083C157.203 338.075 157.553 337.088 157.553 336.122C157.553 335.212 157.329 334.498 156.881 333.98C156.447 333.448 155.74 333.182 154.76 333.182C153.808 333.182 153.066 333.483 152.534 334.085C152.016 334.673 151.736 335.464 151.694 336.458H149.846C149.902 334.89 150.378 333.679 151.274 332.825C152.17 331.971 153.325 331.544 154.739 331.544C156.181 331.544 157.322 331.943 158.162 332.741C159.016 333.539 159.443 334.638 159.443 336.038C159.443 337.2 159.093 338.334 158.393 339.44C157.707 340.532 156.923 341.498 156.041 342.338C155.159 343.164 154.032 344.13 152.66 345.236H159.884V346.832H149.783V345.467ZM161.799 350.906V350.717C163.241 349.233 164.333 347.504 165.075 345.53C165.831 343.556 166.209 341.484 166.209 339.314C166.209 337.088 165.81 334.946 165.012 332.888C164.228 330.816 163.052 329.045 161.484 327.575V327.386H163.479C164.949 328.744 166.076 330.473 166.86 332.573C167.658 334.659 168.057 336.906 168.057 339.314C168.057 341.666 167.679 343.857 166.923 345.887C166.181 347.917 165.138 349.59 163.794 350.906H161.799ZM173.057 338.117C172.693 338.117 172.385 337.991 172.133 337.739C171.881 337.487 171.755 337.179 171.755 336.815C171.755 336.451 171.881 336.143 172.133 335.891C172.385 335.639 172.693 335.513 173.057 335.513C173.407 335.513 173.701 335.639 173.939 335.891C174.191 336.143 174.317 336.451 174.317 336.815C174.317 337.179 174.191 337.487 173.939 337.739C173.701 337.991 173.407 338.117 173.057 338.117ZM174.443 344.354L172.091 350.003H170.81L172.343 344.354H174.443ZM53.713 364.363L48.19 379H45.985L40.462 364.363H42.499L47.098 376.984L51.697 364.363H53.713ZM64.4604 375.745H58.0764L56.9004 379H54.8844L60.1764 364.447H62.3814L67.6524 379H65.6364L64.4604 375.745ZM63.9144 374.191L61.2684 366.799L58.6224 374.191H63.9144ZM77.6658 379L74.1798 373.015H71.8698V379H69.9588V364.363H74.6838C75.7898 364.363 76.7208 364.552 77.4768 364.93C78.2468 365.308 78.8208 365.819 79.1988 366.463C79.5768 367.107 79.7658 367.842 79.7658 368.668C79.7658 369.676 79.4718 370.565 78.8838 371.335C78.3098 372.105 77.4418 372.616 76.2798 372.868L79.9548 379H77.6658ZM71.8698 371.482H74.6838C75.7198 371.482 76.4968 371.23 77.0148 370.726C77.5328 370.208 77.7918 369.522 77.7918 368.668C77.7918 367.8 77.5328 367.128 77.0148 366.652C76.5108 366.176 75.7338 365.938 74.6838 365.938H71.8698V371.482ZM82.1892 377.467C83.9672 376.039 85.3602 374.87 86.3682 373.96C87.3762 373.036 88.2232 372.077 88.9092 371.083C89.6092 370.075 89.9592 369.088 89.9592 368.122C89.9592 367.212 89.7352 366.498 89.2872 365.98C88.8532 365.448 88.1462 365.182 87.1662 365.182C86.2142 365.182 85.4722 365.483 84.9402 366.085C84.4222 366.673 84.1422 367.464 84.1002 368.458H82.2522C82.3082 366.89 82.7842 365.679 83.6802 364.825C84.5762 363.971 85.7312 363.544 87.1452 363.544C88.5872 363.544 89.7282 363.943 90.5682 364.741C91.4222 365.539 91.8492 366.638 91.8492 368.038C91.8492 369.2 91.4992 370.334 90.7992 371.44C90.1132 372.532 89.3292 373.498 88.4472 374.338C87.5652 375.164 86.4382 376.13 85.0662 377.236H92.2902V378.832H82.1892V377.467ZM95.4233 379.126C95.0593 379.126 94.7513 379 94.4993 378.748C94.2473 378.496 94.1213 378.188 94.1213 377.824C94.1213 377.46 94.2473 377.152 94.4993 376.9C94.7513 376.648 95.0593 376.522 95.4233 376.522C95.7733 376.522 96.0673 376.648 96.3053 376.9C96.5573 377.152 96.6833 377.46 96.6833 377.824C96.6833 378.188 96.5573 378.496 96.3053 378.748C96.0673 379 95.7733 379.126 95.4233 379.126ZM95.4233 370.138C95.0593 370.138 94.7513 370.012 94.4993 369.76C94.2473 369.508 94.1213 369.2 94.1213 368.836C94.1213 368.472 94.2473 368.164 94.4993 367.912C94.7513 367.66 95.0593 367.534 95.4233 367.534C95.7733 367.534 96.0673 367.66 96.3053 367.912C96.5573 368.164 96.6833 368.472 96.6833 368.836C96.6833 369.2 96.5573 369.508 96.3053 369.76C96.0673 370.012 95.7733 370.138 95.4233 370.138ZM110.709 368.248V369.865H99.789V368.248H110.709ZM110.709 372.763V374.38H99.789V372.763H110.709ZM126.557 364.363L121.034 379H118.829L113.306 364.363H115.343L119.942 376.984L124.541 364.363H126.557ZM137.304 375.745H130.92L129.744 379H127.728L133.02 364.447H135.225L140.496 379H138.48L137.304 375.745ZM136.758 374.191L134.112 366.799L131.466 374.191H136.758ZM150.51 379L147.024 373.015H144.714V379H142.803V364.363H147.528C148.634 364.363 149.565 364.552 150.321 364.93C151.091 365.308 151.665 365.819 152.043 366.463C152.421 367.107 152.61 367.842 152.61 368.668C152.61 369.676 152.316 370.565 151.728 371.335C151.154 372.105 150.286 372.616 149.124 372.868L152.799 379H150.51ZM144.714 371.482H147.528C148.564 371.482 149.341 371.23 149.859 370.726C150.377 370.208 150.636 369.522 150.636 368.668C150.636 367.8 150.377 367.128 149.859 366.652C149.355 366.176 148.578 365.938 147.528 365.938H144.714V371.482ZM155.033 377.467C156.811 376.039 158.204 374.87 159.212 373.96C160.22 373.036 161.067 372.077 161.753 371.083C162.453 370.075 162.803 369.088 162.803 368.122C162.803 367.212 162.579 366.498 162.131 365.98C161.697 365.448 160.99 365.182 160.01 365.182C159.058 365.182 158.316 365.483 157.784 366.085C157.266 366.673 156.986 367.464 156.944 368.458H155.096C155.152 366.89 155.628 365.679 156.524 364.825C157.42 363.971 158.575 363.544 159.989 363.544C161.431 363.544 162.572 363.943 163.412 364.741C164.266 365.539 164.693 366.638 164.693 368.038C164.693 369.2 164.343 370.334 163.643 371.44C162.957 372.532 162.173 373.498 161.291 374.338C160.409 375.164 159.282 376.13 157.91 377.236H165.134V378.832H155.033V377.467ZM178.578 372.133H174.105V376.669H172.32V372.133H167.868V370.516H172.32V365.959H174.105V370.516H178.578V372.133ZM181.174 365.56V363.817H185.122V379H183.19V365.56H181.174ZM189.833 370.117C189.469 370.117 189.161 369.991 188.909 369.739C188.657 369.487 188.531 369.179 188.531 368.815C188.531 368.451 188.657 368.143 188.909 367.891C189.161 367.639 189.469 367.513 189.833 367.513C190.183 367.513 190.477 367.639 190.715 367.891C190.967 368.143 191.093 368.451 191.093 368.815C191.093 369.179 190.967 369.487 190.715 369.739C190.477 369.991 190.183 370.117 189.833 370.117ZM191.219 376.354L188.867 382.003H187.586L189.119 376.354H191.219ZM43.528 397.917V402.81H48.862V404.385H43.528V409.425H49.492V411H41.617V396.342H49.492V397.917H43.528ZM63.8916 411H61.9806L54.2946 399.345V411H52.3836V396.342H54.2946L61.9806 407.976V396.342H63.8916V411ZM71.7062 396.363C73.3022 396.363 74.6812 396.664 75.8432 397.266C77.0192 397.854 77.9152 398.701 78.5312 399.807C79.1612 400.913 79.4762 402.215 79.4762 403.713C79.4762 405.211 79.1612 406.513 78.5312 407.619C77.9152 408.711 77.0192 409.551 75.8432 410.139C74.6812 410.713 73.3022 411 71.7062 411H67.1492V396.363H71.7062ZM71.7062 409.425C73.5962 409.425 75.0382 408.928 76.0322 407.934C77.0262 406.926 77.5232 405.519 77.5232 403.713C77.5232 401.893 77.0192 400.472 76.0112 399.45C75.0172 398.428 73.5822 397.917 71.7062 397.917H69.0602V409.425H71.7062ZM89.5065 409.446H94.6305V411H87.5955V396.363H89.5065V409.446ZM103.296 411.147C101.938 411.147 100.699 410.832 99.579 410.202C98.459 409.558 97.57 408.669 96.912 407.535C96.268 406.387 95.946 405.099 95.946 403.671C95.946 402.243 96.268 400.962 96.912 399.828C97.57 398.68 98.459 397.791 99.579 397.161C100.699 396.517 101.938 396.195 103.296 396.195C104.668 396.195 105.914 396.517 107.034 397.161C108.154 397.791 109.036 398.673 109.68 399.807C110.324 400.941 110.646 402.229 110.646 403.671C110.646 405.113 110.324 406.401 109.68 407.535C109.036 408.669 108.154 409.558 107.034 410.202C105.914 410.832 104.668 411.147 103.296 411.147ZM103.296 409.488C104.318 409.488 105.235 409.25 106.047 408.774C106.873 408.298 107.517 407.619 107.979 406.737C108.455 405.855 108.693 404.833 108.693 403.671C108.693 402.495 108.455 401.473 107.979 400.605C107.517 399.723 106.88 399.044 106.068 398.568C105.256 398.092 104.332 397.854 103.296 397.854C102.26 397.854 101.336 398.092 100.524 398.568C99.712 399.044 99.068 399.723 98.592 400.605C98.13 401.473 97.899 402.495 97.899 403.671C97.899 404.833 98.13 405.855 98.592 406.737C99.068 407.619 99.712 408.298 100.524 408.774C101.35 409.25 102.274 409.488 103.296 409.488ZM119.805 411.147C118.447 411.147 117.208 410.832 116.088 410.202C114.968 409.558 114.079 408.669 113.421 407.535C112.777 406.387 112.455 405.099 112.455 403.671C112.455 402.243 112.777 400.962 113.421 399.828C114.079 398.68 114.968 397.791 116.088 397.161C117.208 396.517 118.447 396.195 119.805 396.195C121.177 396.195 122.423 396.517 123.543 397.161C124.663 397.791 125.545 398.673 126.189 399.807C126.833 400.941 127.155 402.229 127.155 403.671C127.155 405.113 126.833 406.401 126.189 407.535C125.545 408.669 124.663 409.558 123.543 410.202C122.423 410.832 121.177 411.147 119.805 411.147ZM119.805 409.488C120.827 409.488 121.744 409.25 122.556 408.774C123.382 408.298 124.026 407.619 124.488 406.737C124.964 405.855 125.202 404.833 125.202 403.671C125.202 402.495 124.964 401.473 124.488 400.605C124.026 399.723 123.389 399.044 122.577 398.568C121.765 398.092 120.841 397.854 119.805 397.854C118.769 397.854 117.845 398.092 117.033 398.568C116.221 399.044 115.577 399.723 115.101 400.605C114.639 401.473 114.408 402.495 114.408 403.671C114.408 404.833 114.639 405.855 115.101 406.737C115.577 407.619 116.221 408.298 117.033 408.774C117.859 409.25 118.783 409.488 119.805 409.488ZM139.464 400.647C139.464 401.865 139.044 402.88 138.204 403.692C137.378 404.49 136.111 404.889 134.403 404.889H131.589V411H129.678V396.363H134.403C136.055 396.363 137.308 396.762 138.162 397.56C139.03 398.358 139.464 399.387 139.464 400.647ZM134.403 403.314C135.467 403.314 136.251 403.083 136.755 402.621C137.259 402.159 137.511 401.501 137.511 400.647C137.511 398.841 136.475 397.938 134.403 397.938H131.589V403.314H134.403ZM142.952 402.117C142.588 402.117 142.28 401.991 142.028 401.739C141.776 401.487 141.65 401.179 141.65 400.815C141.65 400.451 141.776 400.143 142.028 399.891C142.28 399.639 142.588 399.513 142.952 399.513C143.302 399.513 143.596 399.639 143.834 399.891C144.086 400.143 144.212 400.451 144.212 400.815C144.212 401.179 144.086 401.487 143.834 401.739C143.596 401.991 143.302 402.117 142.952 402.117ZM144.338 408.354L141.986 414.003H140.705L142.238 408.354H144.338ZM43.528 429.917V434.81H48.862V436.385H43.528V441.425H49.492V443H41.617V428.342H49.492V429.917H43.528ZM63.8916 443H61.9806L54.2946 431.345V443H52.3836V428.342H54.2946L61.9806 439.976V428.342H63.8916V443ZM71.7062 428.363C73.3022 428.363 74.6812 428.664 75.8432 429.266C77.0192 429.854 77.9152 430.701 78.5312 431.807C79.1612 432.913 79.4762 434.215 79.4762 435.713C79.4762 437.211 79.1612 438.513 78.5312 439.619C77.9152 440.711 77.0192 441.551 75.8432 442.139C74.6812 442.713 73.3022 443 71.7062 443H67.1492V428.363H71.7062ZM71.7062 441.425C73.5962 441.425 75.0382 440.928 76.0322 439.934C77.0262 438.926 77.5232 437.519 77.5232 435.713C77.5232 433.893 77.0192 432.472 76.0112 431.45C75.0172 430.428 73.5822 429.917 71.7062 429.917H69.0602V441.425H71.7062ZM83.1099 434.117C82.7459 434.117 82.4379 433.991 82.1859 433.739C81.9339 433.487 81.8079 433.179 81.8079 432.815C81.8079 432.451 81.9339 432.143 82.1859 431.891C82.4379 431.639 82.7459 431.513 83.1099 431.513C83.4599 431.513 83.7539 431.639 83.9919 431.891C84.2439 432.143 84.3699 432.451 84.3699 432.815C84.3699 433.179 84.2439 433.487 83.9919 433.739C83.7539 433.991 83.4599 434.117 83.1099 434.117ZM84.4959 440.354L82.1439 446.003H80.8629L82.3959 440.354H84.4959Z" fill="#131313"/>
</g>
<defs>
<filter id="filter0_d_725_187" x="2" y="13" width="403" height="475" filterUnits="userSpaceOnUse" color-interpolation-filters="sRGB">
<feFlood flood-opacity="0" result="BackgroundImageFix"/>
<feColorMatrix in="SourceAlpha" type="matrix" values="0 0 0 0 0 0 0 0 0 0 0 0 0 0 0 0 0 0 127 0" result="hardAlpha"/>
<feOffset dy="12"/>
<feGaussianBlur stdDeviation="9"/>
<feComposite in2="hardAlpha" operator="out"/>
<feColorMatrix type="matrix" values="0 0 0 0 0.0196078 0 0 0 0 0.337255 0 0 0 0 0.952941 0 0 0 0.05 0"/>
<feBlend mode="normal" in2="BackgroundImageFix" result="effect1_dropShadow_725_187"/>
<feBlend mode="normal" in="SourceGraphic" in2="effect1_dropShadow_725_187" result="shape"/>
</filter>
<clipPath id="clip0_725_187">
<rect width="413" height="472" fill="white"/>
</clipPath>
</defs>
</svg>
