<svg width="413" height="396" viewBox="0 0 413 396" fill="none" xmlns="http://www.w3.org/2000/svg">
<g clip-path="url(#clip0_725_187)">
<rect width="413" height="396" fill="#F8F8F8"/>
<g filter="url(#filter0_d_725_187)">
<rect x="20" y="19" width="367" height="349" fill="white"/>
</g>
<path d="M46.174 44.363C47.77 44.363 49.149 44.664 50.311 45.266C51.487 45.854 52.383 46.701 52.999 47.807C53.629 48.913 53.944 50.215 53.944 51.713C53.944 53.211 53.629 54.513 52.999 55.619C52.383 56.711 51.487 57.551 50.311 58.139C49.149 58.713 47.77 59 46.174 59H41.617V44.363H46.174ZM46.174 57.425C48.064 57.425 49.506 56.928 50.5 55.934C51.494 54.926 51.991 53.519 51.991 51.713C51.991 49.893 51.487 48.472 50.479 47.45C49.485 46.428 48.05 45.917 46.174 45.917H43.528V57.425H46.174ZM58.3757 45.917V50.81H63.7097V52.385H58.3757V57.425H64.3397V59H56.4647V44.342H64.3397V45.917H58.3757ZM66.5173 51.671C66.5173 50.243 66.8393 48.962 67.4833 47.828C68.1273 46.68 69.0023 45.784 70.1083 45.14C71.2283 44.496 72.4673 44.174 73.8253 44.174C75.4213 44.174 76.8143 44.559 78.0043 45.329C79.1943 46.099 80.0623 47.191 80.6083 48.605H78.3193C77.9133 47.723 77.3253 47.044 76.5553 46.568C75.7993 46.092 74.8893 45.854 73.8253 45.854C72.8033 45.854 71.8863 46.092 71.0743 46.568C70.2623 47.044 69.6253 47.723 69.1633 48.605C68.7013 49.473 68.4703 50.495 68.4703 51.671C68.4703 52.833 68.7013 53.855 69.1633 54.737C69.6253 55.605 70.2623 56.277 71.0743 56.753C71.8863 57.229 72.8033 57.467 73.8253 57.467C74.8893 57.467 75.7993 57.236 76.5553 56.774C77.3253 56.298 77.9133 55.619 78.3193 54.737H80.6083C80.0623 56.137 79.1943 57.222 78.0043 57.992C76.8143 58.748 75.4213 59.126 73.8253 59.126C72.4673 59.126 71.2283 58.811 70.1083 58.181C69.0023 57.537 68.1273 56.648 67.4833 55.514C66.8393 54.38 66.5173 53.099 66.5173 51.671ZM85.3639 57.446H90.4879V59H83.4529V44.363H85.3639V57.446ZM101.169 55.745H94.7854L93.6094 59H91.5934L96.8854 44.447H99.0904L104.361 59H102.345L101.169 55.745ZM100.623 54.191L97.9774 46.799L95.3314 54.191H100.623ZM114.375 59L110.889 53.015H108.579V59H106.668V44.363H111.393C112.499 44.363 113.43 44.552 114.186 44.93C114.956 45.308 115.53 45.819 115.908 46.463C116.286 47.107 116.475 47.842 116.475 48.668C116.475 49.676 116.181 50.565 115.593 51.335C115.019 52.105 114.151 52.616 112.989 52.868L116.664 59H114.375ZM108.579 51.482H111.393C112.429 51.482 113.206 51.23 113.724 50.726C114.242 50.208 114.501 49.522 114.501 48.668C114.501 47.8 114.242 47.128 113.724 46.652C113.22 46.176 112.443 45.938 111.393 45.938H108.579V51.482ZM121.355 45.917V50.81H126.689V52.385H121.355V57.425H127.319V59H119.444V44.342H127.319V45.917H121.355ZM42.604 77.623C42.24 77.623 41.932 77.497 41.68 77.245C41.428 76.993 41.302 76.685 41.302 76.321C41.302 75.957 41.428 75.649 41.68 75.397C41.932 75.145 42.24 75.019 42.604 75.019C42.954 75.019 43.248 75.145 43.486 75.397C43.738 75.649 43.864 75.957 43.864 76.321C43.864 76.685 43.738 76.993 43.486 77.245C43.248 77.497 42.954 77.623 42.604 77.623ZM43.528 79.492V91H41.617V79.492H43.528ZM63.8916 91H61.9806L54.2946 79.345V91H52.3836V76.342H54.2946L61.9806 87.976V76.342H63.8916V91ZM69.0182 76.363V85.624C69.0182 86.926 69.3332 87.892 69.9632 88.522C70.6072 89.152 71.4962 89.467 72.6302 89.467C73.7502 89.467 74.6252 89.152 75.2552 88.522C75.8992 87.892 76.2212 86.926 76.2212 85.624V76.363H78.1322V85.603C78.1322 86.821 77.8872 87.85 77.3972 88.69C76.9072 89.516 76.2422 90.132 75.4022 90.538C74.5762 90.944 73.6452 91.147 72.6092 91.147C71.5732 91.147 70.6352 90.944 69.7952 90.538C68.9692 90.132 68.3112 89.516 67.8212 88.69C67.3452 87.85 67.1072 86.821 67.1072 85.603V76.363H69.0182ZM96.1671 76.468V91H94.2561V80.164L89.4261 91H88.0821L83.2311 80.143V91H81.3201V76.468H83.3781L88.7541 88.48L94.1301 76.468H96.1671ZM106.737 83.461C107.269 83.545 107.752 83.762 108.186 84.112C108.634 84.462 108.984 84.896 109.236 85.414C109.502 85.932 109.635 86.485 109.635 87.073C109.635 87.815 109.446 88.487 109.068 89.089C108.69 89.677 108.137 90.146 107.409 90.496C106.695 90.832 105.848 91 104.868 91H99.408V76.363H104.658C105.652 76.363 106.499 76.531 107.199 76.867C107.899 77.189 108.424 77.63 108.774 78.19C109.124 78.75 109.299 79.38 109.299 80.08C109.299 80.948 109.061 81.669 108.585 82.243C108.123 82.803 107.507 83.209 106.737 83.461ZM101.319 82.684H104.532C105.428 82.684 106.121 82.474 106.611 82.054C107.101 81.634 107.346 81.053 107.346 80.311C107.346 79.569 107.101 78.988 106.611 78.568C106.121 78.148 105.414 77.938 104.49 77.938H101.319V82.684ZM104.7 89.425C105.652 89.425 106.394 89.201 106.926 88.753C107.458 88.305 107.724 87.682 107.724 86.884C107.724 86.072 107.444 85.435 106.884 84.973C106.324 84.497 105.575 84.259 104.637 84.259H101.319V89.425H104.7ZM114.198 77.917V82.81H119.532V84.385H114.198V89.425H120.162V91H112.287V76.342H120.162V77.917H114.198ZM130.761 91L127.275 85.015H124.965V91H123.054V76.363H127.779C128.885 76.363 129.816 76.552 130.572 76.93C131.342 77.308 131.916 77.819 132.294 78.463C132.672 79.107 132.861 79.842 132.861 80.668C132.861 81.676 132.567 82.565 131.979 83.335C131.405 84.105 130.537 84.616 129.375 84.868L133.05 91H130.761ZM124.965 83.482H127.779C128.815 83.482 129.592 83.23 130.11 82.726C130.628 82.208 130.887 81.522 130.887 80.668C130.887 79.8 130.628 79.128 130.11 78.652C129.606 78.176 128.829 77.938 127.779 77.938H124.965V83.482ZM142.038 91.126C141.674 91.126 141.366 91 141.114 90.748C140.862 90.496 140.736 90.188 140.736 89.824C140.736 89.46 140.862 89.152 141.114 88.9C141.366 88.648 141.674 88.522 142.038 88.522C142.388 88.522 142.682 88.648 142.92 88.9C143.172 89.152 143.298 89.46 143.298 89.824C143.298 90.188 143.172 90.496 142.92 90.748C142.682 91 142.388 91.126 142.038 91.126ZM142.038 82.138C141.674 82.138 141.366 82.012 141.114 81.76C140.862 81.508 140.736 81.2 140.736 80.836C140.736 80.472 140.862 80.164 141.114 79.912C141.366 79.66 141.674 79.534 142.038 79.534C142.388 79.534 142.682 79.66 142.92 79.912C143.172 80.164 143.298 80.472 143.298 80.836C143.298 81.2 143.172 81.508 142.92 81.76C142.682 82.012 142.388 82.138 142.038 82.138ZM157.323 80.248V81.865H146.403V80.248H157.323ZM157.323 84.763V86.38H146.403V84.763H157.323ZM165.855 77.56V75.817H169.803V91H167.871V77.56H165.855ZM174.513 82.117C174.149 82.117 173.841 81.991 173.589 81.739C173.337 81.487 173.211 81.179 173.211 80.815C173.211 80.451 173.337 80.143 173.589 79.891C173.841 79.639 174.149 79.513 174.513 79.513C174.863 79.513 175.157 79.639 175.395 79.891C175.647 80.143 175.773 80.451 175.773 80.815C175.773 81.179 175.647 81.487 175.395 81.739C175.157 81.991 174.863 82.117 174.513 82.117ZM175.899 88.354L173.547 94.003H172.266L173.799 88.354H175.899ZM48.946 115.461C49.478 115.545 49.961 115.762 50.395 116.112C50.843 116.462 51.193 116.896 51.445 117.414C51.711 117.932 51.844 118.485 51.844 119.073C51.844 119.815 51.655 120.487 51.277 121.089C50.899 121.677 50.346 122.146 49.618 122.496C48.904 122.832 48.057 123 47.077 123H41.617V108.363H46.867C47.861 108.363 48.708 108.531 49.408 108.867C50.108 109.189 50.633 109.63 50.983 110.19C51.333 110.75 51.508 111.38 51.508 112.08C51.508 112.948 51.27 113.669 50.794 114.243C50.332 114.803 49.716 115.209 48.946 115.461ZM43.528 114.684H46.741C47.637 114.684 48.33 114.474 48.82 114.054C49.31 113.634 49.555 113.053 49.555 112.311C49.555 111.569 49.31 110.988 48.82 110.568C48.33 110.148 47.623 109.938 46.699 109.938H43.528V114.684ZM46.909 121.425C47.861 121.425 48.603 121.201 49.135 120.753C49.667 120.305 49.933 119.682 49.933 118.884C49.933 118.072 49.653 117.435 49.093 116.973C48.533 116.497 47.784 116.259 46.846 116.259H43.528V121.425H46.909ZM56.4069 109.917V114.81H61.7409V116.385H56.4069V121.425H62.3709V123H54.4959V108.342H62.3709V109.917H56.4069ZM76.3505 112.605C75.9445 111.751 75.3565 111.093 74.5865 110.631C73.8165 110.155 72.9205 109.917 71.8985 109.917C70.8765 109.917 69.9525 110.155 69.1265 110.631C68.3145 111.093 67.6705 111.765 67.1945 112.647C66.7325 113.515 66.5015 114.523 66.5015 115.671C66.5015 116.819 66.7325 117.827 67.1945 118.695C67.6705 119.563 68.3145 120.235 69.1265 120.711C69.9525 121.173 70.8765 121.404 71.8985 121.404C73.3265 121.404 74.5025 120.977 75.4265 120.123C76.3505 119.269 76.8895 118.114 77.0435 116.658H71.2055V115.104H79.0805V116.574C78.9685 117.778 78.5905 118.884 77.9465 119.892C77.3025 120.886 76.4555 121.677 75.4055 122.265C74.3555 122.839 73.1865 123.126 71.8985 123.126C70.5405 123.126 69.3015 122.811 68.1815 122.181C67.0615 121.537 66.1725 120.648 65.5145 119.514C64.8705 118.38 64.5485 117.099 64.5485 115.671C64.5485 114.243 64.8705 112.962 65.5145 111.828C66.1725 110.68 67.0615 109.791 68.1815 109.161C69.3015 108.517 70.5405 108.195 71.8985 108.195C73.4525 108.195 74.8245 108.58 76.0145 109.35C77.2185 110.12 78.0935 111.205 78.6395 112.605H76.3505ZM83.5182 108.363V123H81.6072V108.363H83.5182ZM98.2832 123H96.3722L88.6862 111.345V123H86.7752V108.342H88.6862L96.3722 119.976V108.342H98.2832V123ZM43.528 153.446H48.652V155H41.617V140.363H43.528V153.446ZM57.3175 155.147C55.9595 155.147 54.7205 154.832 53.6005 154.202C52.4805 153.558 51.5915 152.669 50.9335 151.535C50.2895 150.387 49.9675 149.099 49.9675 147.671C49.9675 146.243 50.2895 144.962 50.9335 143.828C51.5915 142.68 52.4805 141.791 53.6005 141.161C54.7205 140.517 55.9595 140.195 57.3175 140.195C58.6895 140.195 59.9355 140.517 61.0555 141.161C62.1755 141.791 63.0575 142.673 63.7015 143.807C64.3455 144.941 64.6675 146.229 64.6675 147.671C64.6675 149.113 64.3455 150.401 63.7015 151.535C63.0575 152.669 62.1755 153.558 61.0555 154.202C59.9355 154.832 58.6895 155.147 57.3175 155.147ZM57.3175 153.488C58.3395 153.488 59.2565 153.25 60.0685 152.774C60.8945 152.298 61.5385 151.619 62.0005 150.737C62.4765 149.855 62.7145 148.833 62.7145 147.671C62.7145 146.495 62.4765 145.473 62.0005 144.605C61.5385 143.723 60.9015 143.044 60.0895 142.568C59.2775 142.092 58.3535 141.854 57.3175 141.854C56.2815 141.854 55.3575 142.092 54.5455 142.568C53.7335 143.044 53.0895 143.723 52.6135 144.605C52.1515 145.473 51.9205 146.495 51.9205 147.671C51.9205 148.833 52.1515 149.855 52.6135 150.737C53.0895 151.619 53.7335 152.298 54.5455 152.774C55.3715 153.25 56.2955 153.488 57.3175 153.488ZM73.8262 155.147C72.4682 155.147 71.2292 154.832 70.1092 154.202C68.9892 153.558 68.1002 152.669 67.4422 151.535C66.7982 150.387 66.4762 149.099 66.4762 147.671C66.4762 146.243 66.7982 144.962 67.4422 143.828C68.1002 142.68 68.9892 141.791 70.1092 141.161C71.2292 140.517 72.4682 140.195 73.8262 140.195C75.1982 140.195 76.4442 140.517 77.5642 141.161C78.6842 141.791 79.5662 142.673 80.2102 143.807C80.8542 144.941 81.1762 146.229 81.1762 147.671C81.1762 149.113 80.8542 150.401 80.2102 151.535C79.5662 152.669 78.6842 153.558 77.5642 154.202C76.4442 154.832 75.1982 155.147 73.8262 155.147ZM73.8262 153.488C74.8482 153.488 75.7652 153.25 76.5772 152.774C77.4032 152.298 78.0472 151.619 78.5092 150.737C78.9852 149.855 79.2232 148.833 79.2232 147.671C79.2232 146.495 78.9852 145.473 78.5092 144.605C78.0472 143.723 77.4102 143.044 76.5982 142.568C75.7862 142.092 74.8622 141.854 73.8262 141.854C72.7902 141.854 71.8662 142.092 71.0542 142.568C70.2422 143.044 69.5982 143.723 69.1222 144.605C68.6602 145.473 68.4292 146.495 68.4292 147.671C68.4292 148.833 68.6602 149.855 69.1222 150.737C69.5982 151.619 70.2422 152.298 71.0542 152.774C71.8802 153.25 72.8042 153.488 73.8262 153.488ZM93.485 144.647C93.485 145.865 93.065 146.88 92.225 147.692C91.399 148.49 90.132 148.889 88.424 148.889H85.61V155H83.699V140.363H88.424C90.076 140.363 91.329 140.762 92.183 141.56C93.051 142.358 93.485 143.387 93.485 144.647ZM88.424 147.314C89.488 147.314 90.272 147.083 90.776 146.621C91.28 146.159 91.532 145.501 91.532 144.647C91.532 142.841 90.496 141.938 88.424 141.938H85.61V147.314H88.424ZM43.528 173.917V178.81H48.862V180.385H43.528V185.425H49.492V187H41.617V172.342H49.492V173.917H43.528ZM58.3686 179.692L62.8626 187H60.6996L57.1926 181.288L53.8536 187H51.7326L56.2056 179.692L51.7116 172.363H53.8536L57.3816 178.096L60.7416 172.363H62.8836L58.3686 179.692ZM67.3376 172.363V187H65.4266V172.363H67.3376ZM79.6035 172.363V173.917H75.6135V187H73.7025V173.917H69.6915V172.363H79.6035ZM105.951 172.363L101.709 187H99.5665L96.1645 175.219L92.6365 187L90.5155 187.021L86.4205 172.363H88.4575L91.6495 184.774L95.1775 172.363H97.3195L100.68 184.732L103.893 172.363H105.951ZM119.319 172.363V187H117.408V180.364H109.953V187H108.042V172.363H109.953V178.789H117.408V172.363H119.319ZM124.493 173.917V178.81H129.827V180.385H124.493V185.425H130.457V187H122.582V172.342H130.457V173.917H124.493ZM144.856 187H142.945L135.259 175.345V187H133.348V172.342H135.259L142.945 183.976V172.342H144.856V187ZM154.7 173.623C154.336 173.623 154.028 173.497 153.776 173.245C153.524 172.993 153.398 172.685 153.398 172.321C153.398 171.957 153.524 171.649 153.776 171.397C154.028 171.145 154.336 171.019 154.7 171.019C155.05 171.019 155.344 171.145 155.582 171.397C155.834 171.649 155.96 171.957 155.96 172.321C155.96 172.685 155.834 172.993 155.582 173.245C155.344 173.497 155.05 173.623 154.7 173.623ZM155.624 175.492V187H153.713V175.492H155.624ZM159.238 174.505H161.653L166.735 179.314L161.653 184.144H159.238L164.32 179.314L159.238 174.505ZM169.382 173.56V171.817H173.33V187H171.398V173.56H169.382ZM176.613 179.251C176.613 176.843 177.005 174.967 177.789 173.623C178.573 172.265 179.945 171.586 181.905 171.586C183.851 171.586 185.216 172.265 186 173.623C186.784 174.967 187.176 176.843 187.176 179.251C187.176 181.701 186.784 183.605 186 184.963C185.216 186.321 183.851 187 181.905 187C179.945 187 178.573 186.321 177.789 184.963C177.005 183.605 176.613 181.701 176.613 179.251ZM185.286 179.251C185.286 178.033 185.202 177.004 185.034 176.164C184.88 175.31 184.551 174.624 184.047 174.106C183.557 173.588 182.843 173.329 181.905 173.329C180.953 173.329 180.225 173.588 179.721 174.106C179.231 174.624 178.902 175.31 178.734 176.164C178.58 177.004 178.503 178.033 178.503 179.251C178.503 180.511 178.58 181.568 178.734 182.422C178.902 183.276 179.231 183.962 179.721 184.48C180.225 184.998 180.953 185.257 181.905 185.257C182.843 185.257 183.557 184.998 184.047 184.48C184.551 183.962 184.88 183.276 185.034 182.422C185.202 181.568 185.286 180.511 185.286 179.251ZM191.227 178.117C190.863 178.117 190.555 177.991 190.303 177.739C190.051 177.487 189.925 177.179 189.925 176.815C189.925 176.451 190.051 176.143 190.303 175.891C190.555 175.639 190.863 175.513 191.227 175.513C191.577 175.513 191.871 175.639 192.109 175.891C192.361 176.143 192.487 176.451 192.487 176.815C192.487 177.179 192.361 177.487 192.109 177.739C191.871 177.991 191.577 178.117 191.227 178.117ZM192.613 184.354L190.261 190.003H188.98L190.513 184.354H192.613ZM46.174 204.363C47.77 204.363 49.149 204.664 50.311 205.266C51.487 205.854 52.383 206.701 52.999 207.807C53.629 208.913 53.944 210.215 53.944 211.713C53.944 213.211 53.629 214.513 52.999 215.619C52.383 216.711 51.487 217.551 50.311 218.139C49.149 218.713 47.77 219 46.174 219H41.617V204.363H46.174ZM46.174 217.425C48.064 217.425 49.506 216.928 50.5 215.934C51.494 214.926 51.991 213.519 51.991 211.713C51.991 209.893 51.487 208.472 50.479 207.45C49.485 206.428 48.05 205.917 46.174 205.917H43.528V217.425H46.174ZM63.7937 211.461C64.3257 211.545 64.8087 211.762 65.2427 212.112C65.6907 212.462 66.0407 212.896 66.2927 213.414C66.5587 213.932 66.6917 214.485 66.6917 215.073C66.6917 215.815 66.5027 216.487 66.1247 217.089C65.7467 217.677 65.1937 218.146 64.4657 218.496C63.7517 218.832 62.9047 219 61.9247 219H56.4647V204.363H61.7147C62.7087 204.363 63.5557 204.531 64.2557 204.867C64.9557 205.189 65.4807 205.63 65.8307 206.19C66.1807 206.75 66.3557 207.38 66.3557 208.08C66.3557 208.948 66.1177 209.669 65.6417 210.243C65.1797 210.803 64.5637 211.209 63.7937 211.461ZM58.3757 210.684H61.5887C62.4847 210.684 63.1777 210.474 63.6677 210.054C64.1577 209.634 64.4027 209.053 64.4027 208.311C64.4027 207.569 64.1577 206.988 63.6677 206.568C63.1777 206.148 62.4707 205.938 61.5467 205.938H58.3757V210.684ZM61.7567 217.425C62.7087 217.425 63.4507 217.201 63.9827 216.753C64.5147 216.305 64.7807 215.682 64.7807 214.884C64.7807 214.072 64.5007 213.435 63.9407 212.973C63.3807 212.497 62.6317 212.259 61.6937 212.259H58.3757V217.425H61.7567ZM84.1906 204.468V219H82.2796V208.164L77.4496 219H76.1056L71.2546 208.143V219H69.3436V204.468H71.4016L76.7776 216.48L82.1536 204.468H84.1906ZM92.0725 219.147C91.1065 219.147 90.2385 218.979 89.4685 218.643C88.7125 218.293 88.1175 217.817 87.6835 217.215C87.2495 216.599 87.0255 215.892 87.0115 215.094H89.0485C89.1185 215.78 89.3985 216.361 89.8885 216.837C90.3925 217.299 91.1205 217.53 92.0725 217.53C92.9825 217.53 93.6965 217.306 94.2145 216.858C94.7465 216.396 95.0125 215.808 95.0125 215.094C95.0125 214.534 94.8585 214.079 94.5505 213.729C94.2425 213.379 93.8575 213.113 93.3955 212.931C92.9335 212.749 92.3105 212.553 91.5265 212.343C90.5605 212.091 89.7835 211.839 89.1955 211.587C88.6215 211.335 88.1245 210.943 87.7045 210.411C87.2985 209.865 87.0955 209.137 87.0955 208.227C87.0955 207.429 87.2985 206.722 87.7045 206.106C88.1105 205.49 88.6775 205.014 89.4055 204.678C90.1475 204.342 90.9945 204.174 91.9465 204.174C93.3185 204.174 94.4385 204.517 95.3065 205.203C96.1885 205.889 96.6855 206.799 96.7975 207.933H94.6975C94.6275 207.373 94.3335 206.883 93.8155 206.463C93.2975 206.029 92.6115 205.812 91.7575 205.812C90.9595 205.812 90.3085 206.022 89.8045 206.442C89.3005 206.848 89.0485 207.422 89.0485 208.164C89.0485 208.696 89.1955 209.13 89.4895 209.466C89.7975 209.802 90.1685 210.061 90.6025 210.243C91.0505 210.411 91.6735 210.607 92.4715 210.831C93.4375 211.097 94.2145 211.363 94.8025 211.629C95.3905 211.881 95.8945 212.28 96.3145 212.826C96.7345 213.358 96.9445 214.086 96.9445 215.01C96.9445 215.724 96.7555 216.396 96.3775 217.026C95.9995 217.656 95.4395 218.167 94.6975 218.559C93.9555 218.951 93.0805 219.147 92.0725 219.147ZM111.517 219.798V221.562H100.345V219.798H111.517ZM121.794 219.147C120.436 219.147 119.197 218.832 118.077 218.202C116.957 217.558 116.068 216.669 115.41 215.535C114.766 214.387 114.444 213.099 114.444 211.671C114.444 210.243 114.766 208.962 115.41 207.828C116.068 206.68 116.957 205.791 118.077 205.161C119.197 204.517 120.436 204.195 121.794 204.195C123.166 204.195 124.412 204.517 125.532 205.161C126.652 205.791 127.534 206.673 128.178 207.807C128.822 208.941 129.144 210.229 129.144 211.671C129.144 213.113 128.822 214.401 128.178 215.535C127.534 216.669 126.652 217.558 125.532 218.202C124.412 218.832 123.166 219.147 121.794 219.147ZM121.794 217.488C122.816 217.488 123.733 217.25 124.545 216.774C125.371 216.298 126.015 215.619 126.477 214.737C126.953 213.855 127.191 212.833 127.191 211.671C127.191 210.495 126.953 209.473 126.477 208.605C126.015 207.723 125.378 207.044 124.566 206.568C123.754 206.092 122.83 205.854 121.794 205.854C120.758 205.854 119.834 206.092 119.022 206.568C118.21 207.044 117.566 207.723 117.09 208.605C116.628 209.473 116.397 210.495 116.397 211.671C116.397 212.833 116.628 213.855 117.09 214.737C117.566 215.619 118.21 216.298 119.022 216.774C119.848 217.25 120.772 217.488 121.794 217.488ZM133.536 204.363V213.624C133.536 214.926 133.851 215.892 134.481 216.522C135.125 217.152 136.014 217.467 137.148 217.467C138.268 217.467 139.143 217.152 139.773 216.522C140.417 215.892 140.739 214.926 140.739 213.624V204.363H142.65V213.603C142.65 214.821 142.405 215.85 141.915 216.69C141.425 217.516 140.76 218.132 139.92 218.538C139.094 218.944 138.163 219.147 137.127 219.147C136.091 219.147 135.153 218.944 134.313 218.538C133.487 218.132 132.829 217.516 132.339 216.69C131.863 215.85 131.625 214.821 131.625 213.603V204.363H133.536ZM154.847 204.363V205.917H150.857V219H148.946V205.917H144.935V204.363H154.847ZM166.985 208.647C166.985 209.865 166.565 210.88 165.725 211.692C164.899 212.49 163.632 212.889 161.924 212.889H159.11V219H157.199V204.363H161.924C163.576 204.363 164.829 204.762 165.683 205.56C166.551 206.358 166.985 207.387 166.985 208.647ZM161.924 211.314C162.988 211.314 163.772 211.083 164.276 210.621C164.78 210.159 165.032 209.501 165.032 208.647C165.032 206.841 163.996 205.938 161.924 205.938H159.11V211.314H161.924ZM171.229 204.363V213.624C171.229 214.926 171.544 215.892 172.174 216.522C172.818 217.152 173.707 217.467 174.841 217.467C175.961 217.467 176.836 217.152 177.466 216.522C178.11 215.892 178.432 214.926 178.432 213.624V204.363H180.343V213.603C180.343 214.821 180.098 215.85 179.608 216.69C179.118 217.516 178.453 218.132 177.613 218.538C176.787 218.944 175.856 219.147 174.82 219.147C173.784 219.147 172.846 218.944 172.006 218.538C171.18 218.132 170.522 217.516 170.032 216.69C169.556 215.85 169.318 214.821 169.318 213.603V204.363H171.229ZM192.54 204.363V205.917H188.55V219H186.639V205.917H182.628V204.363H192.54ZM195.501 219.126C195.137 219.126 194.829 219 194.577 218.748C194.325 218.496 194.199 218.188 194.199 217.824C194.199 217.46 194.325 217.152 194.577 216.9C194.829 216.648 195.137 216.522 195.501 216.522C195.851 216.522 196.145 216.648 196.383 216.9C196.635 217.152 196.761 217.46 196.761 217.824C196.761 218.188 196.635 218.496 196.383 218.748C196.145 219 195.851 219.126 195.501 219.126ZM209.088 208.647C209.088 209.865 208.668 210.88 207.828 211.692C207.002 212.49 205.735 212.889 204.027 212.889H201.213V219H199.302V204.363H204.027C205.679 204.363 206.932 204.762 207.786 205.56C208.654 206.358 209.088 207.387 209.088 208.647ZM204.027 211.314C205.091 211.314 205.875 211.083 206.379 210.621C206.883 210.159 207.135 209.501 207.135 208.647C207.135 206.841 206.099 205.938 204.027 205.938H201.213V211.314H204.027ZM213.332 204.363V213.624C213.332 214.926 213.647 215.892 214.277 216.522C214.921 217.152 215.81 217.467 216.944 217.467C218.064 217.467 218.939 217.152 219.569 216.522C220.213 215.892 220.535 214.926 220.535 213.624V204.363H222.446V213.603C222.446 214.821 222.201 215.85 221.711 216.69C221.221 217.516 220.556 218.132 219.716 218.538C218.89 218.944 217.959 219.147 216.923 219.147C215.887 219.147 214.949 218.944 214.109 218.538C213.283 218.132 212.625 217.516 212.135 216.69C211.659 215.85 211.421 214.821 211.421 213.603V204.363H213.332ZM234.643 204.363V205.917H230.653V219H228.742V205.917H224.731V204.363H234.643ZM248.755 219.798V221.562H237.583V219.798H248.755ZM254.307 217.446H259.431V219H252.396V204.363H254.307V217.446ZM263.372 204.363V219H261.461V204.363H263.372ZM278.137 219H276.226L268.54 207.345V219H266.629V204.342H268.54L276.226 215.976V204.342H278.137V219ZM283.305 205.917V210.81H288.639V212.385H283.305V217.425H289.269V219H281.394V204.342H289.269V205.917H283.305ZM297.075 222.906C295.731 221.59 294.681 219.917 293.925 217.887C293.183 215.857 292.812 213.666 292.812 211.314C292.812 208.906 293.204 206.659 293.988 204.573C294.786 202.473 295.92 200.744 297.39 199.386H299.385V199.575C297.817 201.045 296.634 202.816 295.836 204.888C295.052 206.946 294.66 209.088 294.66 211.314C294.66 213.484 295.031 215.556 295.773 217.53C296.529 219.504 297.628 221.233 299.07 222.717V222.906H297.075ZM302.684 205.623C302.32 205.623 302.012 205.497 301.76 205.245C301.508 204.993 301.382 204.685 301.382 204.321C301.382 203.957 301.508 203.649 301.76 203.397C302.012 203.145 302.32 203.019 302.684 203.019C303.034 203.019 303.328 203.145 303.566 203.397C303.818 203.649 303.944 203.957 303.944 204.321C303.944 204.685 303.818 204.993 303.566 205.245C303.328 205.497 303.034 205.623 302.684 205.623ZM303.608 207.492V219H301.697V207.492H303.608ZM306.256 222.906V222.717C307.698 221.233 308.79 219.504 309.532 217.53C310.288 215.556 310.666 213.484 310.666 211.314C310.666 209.088 310.267 206.946 309.469 204.888C308.685 202.816 307.509 201.045 305.941 199.575V199.386H307.936C309.406 200.744 310.533 202.473 311.317 204.573C312.115 206.659 312.514 208.906 312.514 211.314C312.514 213.666 312.136 215.857 311.38 217.887C310.638 219.917 309.595 221.59 308.251 222.906H306.256ZM317.514 210.117C317.15 210.117 316.842 209.991 316.59 209.739C316.338 209.487 316.212 209.179 316.212 208.815C316.212 208.451 316.338 208.143 316.59 207.891C316.842 207.639 317.15 207.513 317.514 207.513C317.864 207.513 318.158 207.639 318.396 207.891C318.648 208.143 318.774 208.451 318.774 208.815C318.774 209.179 318.648 209.487 318.396 209.739C318.158 209.991 317.864 210.117 317.514 210.117ZM318.9 216.354L316.548 222.003H315.267L316.8 216.354H318.9ZM42.604 237.623C42.24 237.623 41.932 237.497 41.68 237.245C41.428 236.993 41.302 236.685 41.302 236.321C41.302 235.957 41.428 235.649 41.68 235.397C41.932 235.145 42.24 235.019 42.604 235.019C42.954 235.019 43.248 235.145 43.486 235.397C43.738 235.649 43.864 235.957 43.864 236.321C43.864 236.685 43.738 236.993 43.486 237.245C43.248 237.497 42.954 237.623 42.604 237.623ZM43.528 239.492V251H41.617V239.492H43.528ZM52.9926 251.126C52.6286 251.126 52.3206 251 52.0686 250.748C51.8166 250.496 51.6906 250.188 51.6906 249.824C51.6906 249.46 51.8166 249.152 52.0686 248.9C52.3206 248.648 52.6286 248.522 52.9926 248.522C53.3426 248.522 53.6366 248.648 53.8746 248.9C54.1266 249.152 54.2526 249.46 54.2526 249.824C54.2526 250.188 54.1266 250.496 53.8746 250.748C53.6366 251 53.3426 251.126 52.9926 251.126ZM52.9926 242.138C52.6286 242.138 52.3206 242.012 52.0686 241.76C51.8166 241.508 51.6906 241.2 51.6906 240.836C51.6906 240.472 51.8166 240.164 52.0686 239.912C52.3206 239.66 52.6286 239.534 52.9926 239.534C53.3426 239.534 53.6366 239.66 53.8746 239.912C54.1266 240.164 54.2526 240.472 54.2526 240.836C54.2526 241.2 54.1266 241.508 53.8746 241.76C53.6366 242.012 53.3426 242.138 52.9926 242.138ZM68.2783 240.248V241.865H57.3583V240.248H68.2783ZM68.2783 244.763V246.38H57.3583V244.763H68.2783ZM78.6157 237.623C78.2517 237.623 77.9437 237.497 77.6917 237.245C77.4397 236.993 77.3137 236.685 77.3137 236.321C77.3137 235.957 77.4397 235.649 77.6917 235.397C77.9437 235.145 78.2517 235.019 78.6157 235.019C78.9657 235.019 79.2597 235.145 79.4977 235.397C79.7497 235.649 79.8757 235.957 79.8757 236.321C79.8757 236.685 79.7497 236.993 79.4977 237.245C79.2597 237.497 78.9657 237.623 78.6157 237.623ZM79.5397 239.492V251H77.6287V239.492H79.5397ZM93.7167 244.133H89.2437V248.669H87.4587V244.133H83.0067V242.516H87.4587V237.959H89.2437V242.516H93.7167V244.133ZM96.3126 237.56V235.817H100.261V251H98.3286V237.56H96.3126ZM104.971 242.117C104.607 242.117 104.299 241.991 104.047 241.739C103.795 241.487 103.669 241.179 103.669 240.815C103.669 240.451 103.795 240.143 104.047 239.891C104.299 239.639 104.607 239.513 104.971 239.513C105.321 239.513 105.615 239.639 105.853 239.891C106.105 240.143 106.231 240.451 106.231 240.815C106.231 241.179 106.105 241.487 105.853 241.739C105.615 241.991 105.321 242.117 104.971 242.117ZM106.357 248.354L104.005 254.003H102.724L104.257 248.354H106.357ZM43.528 269.917V274.81H48.862V276.385H43.528V281.425H49.492V283H41.617V268.342H49.492V269.917H43.528ZM63.8916 283H61.9806L54.2946 271.345V283H52.3836V268.342H54.2946L61.9806 279.976V268.342H63.8916V283ZM71.7062 268.363C73.3022 268.363 74.6812 268.664 75.8432 269.266C77.0192 269.854 77.9152 270.701 78.5312 271.807C79.1612 272.913 79.4762 274.215 79.4762 275.713C79.4762 277.211 79.1612 278.513 78.5312 279.619C77.9152 280.711 77.0192 281.551 75.8432 282.139C74.6812 282.713 73.3022 283 71.7062 283H67.1492V268.363H71.7062ZM71.7062 281.425C73.5962 281.425 75.0382 280.928 76.0322 279.934C77.0262 278.926 77.5232 277.519 77.5232 275.713C77.5232 273.893 77.0192 272.472 76.0112 271.45C75.0172 270.428 73.5822 269.917 71.7062 269.917H69.0602V281.425H71.7062ZM89.5065 281.446H94.6305V283H87.5955V268.363H89.5065V281.446ZM103.296 283.147C101.938 283.147 100.699 282.832 99.579 282.202C98.459 281.558 97.57 280.669 96.912 279.535C96.268 278.387 95.946 277.099 95.946 275.671C95.946 274.243 96.268 272.962 96.912 271.828C97.57 270.68 98.459 269.791 99.579 269.161C100.699 268.517 101.938 268.195 103.296 268.195C104.668 268.195 105.914 268.517 107.034 269.161C108.154 269.791 109.036 270.673 109.68 271.807C110.324 272.941 110.646 274.229 110.646 275.671C110.646 277.113 110.324 278.401 109.68 279.535C109.036 280.669 108.154 281.558 107.034 282.202C105.914 282.832 104.668 283.147 103.296 283.147ZM103.296 281.488C104.318 281.488 105.235 281.25 106.047 280.774C106.873 280.298 107.517 279.619 107.979 278.737C108.455 277.855 108.693 276.833 108.693 275.671C108.693 274.495 108.455 273.473 107.979 272.605C107.517 271.723 106.88 271.044 106.068 270.568C105.256 270.092 104.332 269.854 103.296 269.854C102.26 269.854 101.336 270.092 100.524 270.568C99.712 271.044 99.068 271.723 98.592 272.605C98.13 273.473 97.899 274.495 97.899 275.671C97.899 276.833 98.13 277.855 98.592 278.737C99.068 279.619 99.712 280.298 100.524 280.774C101.35 281.25 102.274 281.488 103.296 281.488ZM119.805 283.147C118.447 283.147 117.208 282.832 116.088 282.202C114.968 281.558 114.079 280.669 113.421 279.535C112.777 278.387 112.455 277.099 112.455 275.671C112.455 274.243 112.777 272.962 113.421 271.828C114.079 270.68 114.968 269.791 116.088 269.161C117.208 268.517 118.447 268.195 119.805 268.195C121.177 268.195 122.423 268.517 123.543 269.161C124.663 269.791 125.545 270.673 126.189 271.807C126.833 272.941 127.155 274.229 127.155 275.671C127.155 277.113 126.833 278.401 126.189 279.535C125.545 280.669 124.663 281.558 123.543 282.202C122.423 282.832 121.177 283.147 119.805 283.147ZM119.805 281.488C120.827 281.488 121.744 281.25 122.556 280.774C123.382 280.298 124.026 279.619 124.488 278.737C124.964 277.855 125.202 276.833 125.202 275.671C125.202 274.495 124.964 273.473 124.488 272.605C124.026 271.723 123.389 271.044 122.577 270.568C121.765 270.092 120.841 269.854 119.805 269.854C118.769 269.854 117.845 270.092 117.033 270.568C116.221 271.044 115.577 271.723 115.101 272.605C114.639 273.473 114.408 274.495 114.408 275.671C114.408 276.833 114.639 277.855 115.101 278.737C115.577 279.619 116.221 280.298 117.033 280.774C117.859 281.25 118.783 281.488 119.805 281.488ZM139.464 272.647C139.464 273.865 139.044 274.88 138.204 275.692C137.378 276.49 136.111 276.889 134.403 276.889H131.589V283H129.678V268.363H134.403C136.055 268.363 137.308 268.762 138.162 269.56C139.03 270.358 139.464 271.387 139.464 272.647ZM134.403 275.314C135.467 275.314 136.251 275.083 136.755 274.621C137.259 274.159 137.511 273.501 137.511 272.647C137.511 270.841 136.475 269.938 134.403 269.938H131.589V275.314H134.403ZM142.952 274.117C142.588 274.117 142.28 273.991 142.028 273.739C141.776 273.487 141.65 273.179 141.65 272.815C141.65 272.451 141.776 272.143 142.028 271.891C142.28 271.639 142.588 271.513 142.952 271.513C143.302 271.513 143.596 271.639 143.834 271.891C144.086 272.143 144.212 272.451 144.212 272.815C144.212 273.179 144.086 273.487 143.834 273.739C143.596 273.991 143.302 274.117 142.952 274.117ZM144.338 280.354L141.986 286.003H140.705L142.238 280.354H144.338ZM43.528 301.917V306.81H48.862V308.385H43.528V313.425H49.492V315H41.617V300.342H49.492V301.917H43.528ZM63.8916 315H61.9806L54.2946 303.345V315H52.3836V300.342H54.2946L61.9806 311.976V300.342H63.8916V315ZM71.7062 300.363C73.3022 300.363 74.6812 300.664 75.8432 301.266C77.0192 301.854 77.9152 302.701 78.5312 303.807C79.1612 304.913 79.4762 306.215 79.4762 307.713C79.4762 309.211 79.1612 310.513 78.5312 311.619C77.9152 312.711 77.0192 313.551 75.8432 314.139C74.6812 314.713 73.3022 315 71.7062 315H67.1492V300.363H71.7062ZM71.7062 313.425C73.5962 313.425 75.0382 312.928 76.0322 311.934C77.0262 310.926 77.5232 309.519 77.5232 307.713C77.5232 305.893 77.0192 304.472 76.0112 303.45C75.0172 302.428 73.5822 301.917 71.7062 301.917H69.0602V313.425H71.7062ZM83.1099 306.117C82.7459 306.117 82.4379 305.991 82.1859 305.739C81.9339 305.487 81.8079 305.179 81.8079 304.815C81.8079 304.451 81.9339 304.143 82.1859 303.891C82.4379 303.639 82.7459 303.513 83.1099 303.513C83.4599 303.513 83.7539 303.639 83.9919 303.891C84.2439 304.143 84.3699 304.451 84.3699 304.815C84.3699 305.179 84.2439 305.487 83.9919 305.739C83.7539 305.991 83.4599 306.117 83.1099 306.117ZM84.4959 312.354L82.1439 318.003H80.8629L82.3959 312.354H84.4959Z" fill="#131313"/>
</g>
<defs>
<filter id="filter0_d_725_187" x="2" y="13" width="403" height="385" filterUnits="userSpaceOnUse" color-interpolation-filters="sRGB">
<feFlood flood-opacity="0" result="BackgroundImageFix"/>
<feColorMatrix in="SourceAlpha" type="matrix" values="0 0 0 0 0 0 0 0 0 0 0 0 0 0 0 0 0 0 127 0" result="hardAlpha"/>
<feOffset dy="12"/>
<feGaussianBlur stdDeviation="9"/>
<feComposite in2="hardAlpha" operator="out"/>
<feColorMatrix type="matrix" values="0 0 0 0 0.0196078 0 0 0 0 0.337255 0 0 0 0 0.952941 0 0 0 0.05 0"/>
<feBlend mode="normal" in2="BackgroundImageFix" result="effect1_dropShadow_725_187"/>
<feBlend mode="normal" in="SourceGraphic" in2="effect1_dropShadow_725_187" result="shape"/>
</filter>
<clipPath id="clip0_725_187">
<rect width="413" height="396" fill="white"/>
</clipPath>
</defs>
</svg>
