<svg width="441" height="231" viewBox="0 0 441 231" fill="none" xmlns="http://www.w3.org/2000/svg">
<g clip-path="url(#clip0_726_194)">
<rect width="441" height="231" fill="#F8F8F8"/>
<g filter="url(#filter0_d_726_194)">
<rect x="20" y="19" width="396" height="190" fill="white"/>
</g>
<path d="M48.094 41.179C48.5753 41.255 49.0123 41.4513 49.405 41.768C49.8103 42.0847 50.127 42.4773 50.355 42.946C50.5957 43.4147 50.716 43.915 50.716 44.447C50.716 45.1183 50.545 45.7263 50.203 46.271C49.861 46.803 49.3607 47.2273 48.702 47.544C48.056 47.848 47.2897 48 46.403 48H41.463V34.757H46.213C47.1123 34.757 47.8787 34.909 48.512 35.213C49.1453 35.5043 49.6203 35.9033 49.937 36.41C50.2537 36.9167 50.412 37.4867 50.412 38.12C50.412 38.9053 50.1967 39.5577 49.766 40.077C49.348 40.5837 48.7907 40.951 48.094 41.179ZM43.192 40.476H46.099C46.9097 40.476 47.5367 40.286 47.98 39.906C48.4233 39.526 48.645 39.0003 48.645 38.329C48.645 37.6577 48.4233 37.132 47.98 36.752C47.5367 36.372 46.897 36.182 46.061 36.182H43.192V40.476ZM46.251 46.575C47.1123 46.575 47.7837 46.3723 48.265 45.967C48.7463 45.5617 48.987 44.998 48.987 44.276C48.987 43.5413 48.7337 42.965 48.227 42.547C47.7203 42.1163 47.0427 41.901 46.194 41.901H43.192V46.575H46.251ZM54.8443 36.163V40.59H59.6703V42.015H54.8443V46.575H60.2403V48H53.1153V34.738H60.2403V36.163H54.8443ZM72.8886 38.595C72.5212 37.8223 71.9892 37.227 71.2926 36.809C70.5959 36.3783 69.7852 36.163 68.8606 36.163C67.9359 36.163 67.0999 36.3783 66.3526 36.809C65.6179 37.227 65.0352 37.835 64.6046 38.633C64.1866 39.4183 63.9776 40.3303 63.9776 41.369C63.9776 42.4077 64.1866 43.3197 64.6046 44.105C65.0352 44.8903 65.6179 45.4983 66.3526 45.929C67.0999 46.347 67.9359 46.556 68.8606 46.556C70.1526 46.556 71.2166 46.1697 72.0526 45.397C72.8886 44.6243 73.3762 43.5793 73.5156 42.262H68.2336V40.856H75.3586V42.186C75.2572 43.2753 74.9152 44.276 74.3326 45.188C73.7499 46.0873 72.9836 46.803 72.0336 47.335C71.0836 47.8543 70.0259 48.114 68.8606 48.114C67.6319 48.114 66.5109 47.829 65.4976 47.259C64.4842 46.6763 63.6799 45.872 63.0846 44.846C62.5019 43.82 62.2106 42.661 62.2106 41.369C62.2106 40.077 62.5019 38.918 63.0846 37.892C63.6799 36.8533 64.4842 36.049 65.4976 35.479C66.5109 34.8963 67.6319 34.605 68.8606 34.605C70.2666 34.605 71.5079 34.9533 72.5846 35.65C73.6739 36.3467 74.4656 37.3283 74.9596 38.595H72.8886ZM79.3736 34.757V48H77.6446V34.757H79.3736ZM92.7324 48H91.0034L84.0494 37.455V48H82.3204V34.738H84.0494L91.0034 45.264V34.738H92.7324V48ZM48.949 63.757V65.163H43.192V69.628H47.866V71.034H43.192V77H41.463V63.757H48.949ZM57.0412 77.133C55.8126 77.133 54.6916 76.848 53.6782 76.278C52.6649 75.6953 51.8606 74.891 51.2652 73.865C50.6826 72.8263 50.3912 71.661 50.3912 70.369C50.3912 69.077 50.6826 67.918 51.2652 66.892C51.8606 65.8533 52.6649 65.049 53.6782 64.479C54.6916 63.8963 55.8126 63.605 57.0412 63.605C58.2826 63.605 59.4099 63.8963 60.4232 64.479C61.4366 65.049 62.2346 65.847 62.8172 66.873C63.3999 67.899 63.6912 69.0643 63.6912 70.369C63.6912 71.6737 63.3999 72.839 62.8172 73.865C62.2346 74.891 61.4366 75.6953 60.4232 76.278C59.4099 76.848 58.2826 77.133 57.0412 77.133ZM57.0412 75.632C57.9659 75.632 58.7956 75.4167 59.5302 74.986C60.2776 74.5553 60.8602 73.941 61.2782 73.143C61.7089 72.345 61.9242 71.4203 61.9242 70.369C61.9242 69.305 61.7089 68.3803 61.2782 67.595C60.8602 66.797 60.2839 66.1827 59.5492 65.752C58.8146 65.3213 57.9786 65.106 57.0412 65.106C56.1039 65.106 55.2679 65.3213 54.5332 65.752C53.7986 66.1827 53.2159 66.797 52.7852 67.595C52.3672 68.3803 52.1582 69.305 52.1582 70.369C52.1582 71.4203 52.3672 72.345 52.7852 73.143C53.2159 73.941 53.7986 74.5553 54.5332 74.986C55.2806 75.4167 56.1166 75.632 57.0412 75.632ZM72.9467 77L69.7927 71.585H67.7027V77H65.9737V63.757H70.2487C71.2494 63.757 72.0917 63.928 72.7757 64.27C73.4724 64.612 73.9917 65.0743 74.3337 65.657C74.6757 66.2397 74.8467 66.9047 74.8467 67.652C74.8467 68.564 74.5807 69.3683 74.0487 70.065C73.5294 70.7617 72.7441 71.224 71.6927 71.452L75.0177 77H72.9467ZM67.7027 70.198H70.2487C71.1861 70.198 71.8891 69.97 72.3577 69.514C72.8264 69.0453 73.0607 68.4247 73.0607 67.652C73.0607 66.8667 72.8264 66.2587 72.3577 65.828C71.9017 65.3973 71.1987 65.182 70.2487 65.182H67.7027V70.198ZM88.4127 77L84.3277 72.402V77H82.5987V62.94H84.3277V71.205L88.3367 66.588H90.7497L85.8477 71.775L90.7687 77H88.4127ZM99.1715 63.757V77H97.4425V63.757H99.1715ZM112.53 77H110.801L103.847 66.455V77H102.118V63.738H103.847L110.801 74.264V63.738H112.53V77ZM119.802 64.84V63.263H123.374V77H121.626V64.84H119.802ZM127.18 77.114C126.851 77.114 126.572 77 126.344 76.772C126.116 76.544 126.002 76.2653 126.002 75.936C126.002 75.6067 126.116 75.328 126.344 75.1C126.572 74.872 126.851 74.758 127.18 74.758C127.497 74.758 127.763 74.872 127.978 75.1C128.206 75.328 128.32 75.6067 128.32 75.936C128.32 76.2653 128.206 76.544 127.978 76.772C127.763 77 127.497 77.114 127.18 77.114ZM131.169 77.114C130.84 77.114 130.561 77 130.333 76.772C130.105 76.544 129.991 76.2653 129.991 75.936C129.991 75.6067 130.105 75.328 130.333 75.1C130.561 74.872 130.84 74.758 131.169 74.758C131.486 74.758 131.752 74.872 131.967 75.1C132.195 75.328 132.309 75.6067 132.309 75.936C132.309 76.2653 132.195 76.544 131.967 76.772C131.752 77 131.486 77.114 131.169 77.114ZM133.867 64.84V63.263H137.439V77H135.691V64.84H133.867ZM140.408 69.989C140.408 67.8103 140.763 66.113 141.472 64.897C142.182 63.6683 143.423 63.054 145.196 63.054C146.957 63.054 148.192 63.6683 148.901 64.897C149.611 66.113 149.965 67.8103 149.965 69.989C149.965 72.2057 149.611 73.9283 148.901 75.157C148.192 76.3857 146.957 77 145.196 77C143.423 77 142.182 76.3857 141.472 75.157C140.763 73.9283 140.408 72.2057 140.408 69.989ZM148.255 69.989C148.255 68.887 148.179 67.956 148.027 67.196C147.888 66.4233 147.59 65.8027 147.134 65.334C146.691 64.8653 146.045 64.631 145.196 64.631C144.335 64.631 143.676 64.8653 143.22 65.334C142.777 65.8027 142.479 66.4233 142.327 67.196C142.188 67.956 142.118 68.887 142.118 69.989C142.118 71.129 142.188 72.0853 142.327 72.858C142.479 73.6307 142.777 74.2513 143.22 74.72C143.676 75.1887 144.335 75.423 145.196 75.423C146.045 75.423 146.691 75.1887 147.134 74.72C147.59 74.2513 147.888 73.6307 148.027 72.858C148.179 72.0853 148.255 71.129 148.255 69.989ZM159.419 75.594H164.055V77H157.69V63.757H159.419V75.594ZM171.895 77.133C170.666 77.133 169.545 76.848 168.532 76.278C167.518 75.6953 166.714 74.891 166.119 73.865C165.536 72.8263 165.245 71.661 165.245 70.369C165.245 69.077 165.536 67.918 166.119 66.892C166.714 65.8533 167.518 65.049 168.532 64.479C169.545 63.8963 170.666 63.605 171.895 63.605C173.136 63.605 174.263 63.8963 175.277 64.479C176.29 65.049 177.088 65.847 177.671 66.873C178.253 67.899 178.545 69.0643 178.545 70.369C178.545 71.6737 178.253 72.839 177.671 73.865C177.088 74.891 176.29 75.6953 175.277 76.278C174.263 76.848 173.136 77.133 171.895 77.133ZM171.895 75.632C172.819 75.632 173.649 75.4167 174.384 74.986C175.131 74.5553 175.714 73.941 176.132 73.143C176.562 72.345 176.778 71.4203 176.778 70.369C176.778 69.305 176.562 68.3803 176.132 67.595C175.714 66.797 175.137 66.1827 174.403 65.752C173.668 65.3213 172.832 65.106 171.895 65.106C170.957 65.106 170.121 65.3213 169.387 65.752C168.652 66.1827 168.069 66.797 167.639 67.595C167.221 68.3803 167.012 69.305 167.012 70.369C167.012 71.4203 167.221 72.345 167.639 73.143C168.069 73.941 168.652 74.5553 169.387 74.986C170.134 75.4167 170.97 75.632 171.895 75.632ZM186.831 77.133C185.603 77.133 184.482 76.848 183.468 76.278C182.455 75.6953 181.651 74.891 181.055 73.865C180.473 72.8263 180.181 71.661 180.181 70.369C180.181 69.077 180.473 67.918 181.055 66.892C181.651 65.8533 182.455 65.049 183.468 64.479C184.482 63.8963 185.603 63.605 186.831 63.605C188.073 63.605 189.2 63.8963 190.213 64.479C191.227 65.049 192.025 65.847 192.607 66.873C193.19 67.899 193.481 69.0643 193.481 70.369C193.481 71.6737 193.19 72.839 192.607 73.865C192.025 74.891 191.227 75.6953 190.213 76.278C189.2 76.848 188.073 77.133 186.831 77.133ZM186.831 75.632C187.756 75.632 188.586 75.4167 189.32 74.986C190.068 74.5553 190.65 73.941 191.068 73.143C191.499 72.345 191.714 71.4203 191.714 70.369C191.714 69.305 191.499 68.3803 191.068 67.595C190.65 66.797 190.074 66.1827 189.339 65.752C188.605 65.3213 187.769 65.106 186.831 65.106C185.894 65.106 185.058 65.3213 184.323 65.752C183.589 66.1827 183.006 66.797 182.575 67.595C182.157 68.3803 181.948 69.305 181.948 70.369C181.948 71.4203 182.157 72.345 182.575 73.143C183.006 73.941 183.589 74.5553 184.323 74.986C185.071 75.4167 185.907 75.632 186.831 75.632ZM204.618 67.633C204.618 68.735 204.238 69.6533 203.478 70.388C202.73 71.11 201.584 71.471 200.039 71.471H197.493V77H195.764V63.757H200.039C201.533 63.757 202.667 64.118 203.44 64.84C204.225 65.562 204.618 66.493 204.618 67.633ZM200.039 70.046C201.001 70.046 201.711 69.837 202.167 69.419C202.623 69.001 202.851 68.4057 202.851 67.633C202.851 65.999 201.913 65.182 200.039 65.182H197.493V70.046H200.039ZM45.586 121.757C47.03 121.757 48.2777 122.029 49.329 122.574C50.393 123.106 51.2037 123.872 51.761 124.873C52.331 125.874 52.616 127.052 52.616 128.407C52.616 129.762 52.331 130.94 51.761 131.941C51.2037 132.929 50.393 133.689 49.329 134.221C48.2777 134.74 47.03 135 45.586 135H41.463V121.757H45.586ZM45.586 133.575C47.296 133.575 48.6007 133.125 49.5 132.226C50.3993 131.314 50.849 130.041 50.849 128.407C50.849 126.76 50.393 125.475 49.481 124.55C48.5817 123.625 47.2833 123.163 45.586 123.163H43.192V133.575H45.586ZM61.5276 128.179C62.0089 128.255 62.4459 128.451 62.8386 128.768C63.2439 129.085 63.5606 129.477 63.7886 129.946C64.0293 130.415 64.1496 130.915 64.1496 131.447C64.1496 132.118 63.9786 132.726 63.6366 133.271C63.2946 133.803 62.7943 134.227 62.1356 134.544C61.4896 134.848 60.7233 135 59.8366 135H54.8966V121.757H59.6466C60.5459 121.757 61.3123 121.909 61.9456 122.213C62.5789 122.504 63.0539 122.903 63.3706 123.41C63.6873 123.917 63.8456 124.487 63.8456 125.12C63.8456 125.905 63.6303 126.558 63.1996 127.077C62.7816 127.584 62.2243 127.951 61.5276 128.179ZM56.6256 127.476H59.5326C60.3433 127.476 60.9703 127.286 61.4136 126.906C61.8569 126.526 62.0786 126 62.0786 125.329C62.0786 124.658 61.8569 124.132 61.4136 123.752C60.9703 123.372 60.3306 123.182 59.4946 123.182H56.6256V127.476ZM59.6846 133.575C60.5459 133.575 61.2173 133.372 61.6986 132.967C62.1799 132.562 62.4206 131.998 62.4206 131.276C62.4206 130.541 62.1673 129.965 61.6606 129.547C61.1539 129.116 60.4763 128.901 59.6276 128.901H56.6256V133.575H59.6846ZM79.9819 121.852V135H78.2529V125.196L73.8829 135H72.6669L68.2779 125.177V135H66.5489V121.852H68.4109L73.2749 132.72L78.1389 121.852H79.9819ZM87.1132 135.133C86.2392 135.133 85.4538 134.981 84.7572 134.677C84.0732 134.36 83.5348 133.93 83.1422 133.385C82.7495 132.828 82.5468 132.188 82.5342 131.466H84.3772C84.4405 132.087 84.6938 132.612 85.1372 133.043C85.5932 133.461 86.2518 133.67 87.1132 133.67C87.9365 133.67 88.5825 133.467 89.0512 133.062C89.5325 132.644 89.7732 132.112 89.7732 131.466C89.7732 130.959 89.6338 130.548 89.3552 130.231C89.0765 129.914 88.7282 129.674 88.3102 129.509C87.8922 129.344 87.3285 129.167 86.6192 128.977C85.7452 128.749 85.0422 128.521 84.5102 128.293C83.9908 128.065 83.5412 127.71 83.1612 127.229C82.7938 126.735 82.6102 126.076 82.6102 125.253C82.6102 124.531 82.7938 123.891 83.1612 123.334C83.5285 122.777 84.0415 122.346 84.7002 122.042C85.3715 121.738 86.1378 121.586 86.9992 121.586C88.2405 121.586 89.2538 121.896 90.0392 122.517C90.8372 123.138 91.2868 123.961 91.3882 124.987H89.4882C89.4248 124.48 89.1588 124.037 88.6902 123.657C88.2215 123.264 87.6008 123.068 86.8282 123.068C86.1062 123.068 85.5172 123.258 85.0612 123.638C84.6052 124.005 84.3772 124.525 84.3772 125.196C84.3772 125.677 84.5102 126.07 84.7762 126.374C85.0548 126.678 85.3905 126.912 85.7832 127.077C86.1885 127.229 86.7522 127.406 87.4742 127.609C88.3482 127.85 89.0512 128.09 89.5832 128.331C90.1152 128.559 90.5712 128.92 90.9512 129.414C91.3312 129.895 91.5212 130.554 91.5212 131.39C91.5212 132.036 91.3502 132.644 91.0082 133.214C90.6662 133.784 90.1595 134.246 89.4882 134.601C88.8168 134.956 88.0252 135.133 87.1132 135.133ZM104.706 135.722V137.318H94.5975V135.722H104.706ZM114.004 135.133C112.775 135.133 111.654 134.848 110.641 134.278C109.628 133.695 108.823 132.891 108.228 131.865C107.645 130.826 107.354 129.661 107.354 128.369C107.354 127.077 107.645 125.918 108.228 124.892C108.823 123.853 109.628 123.049 110.641 122.479C111.654 121.896 112.775 121.605 114.004 121.605C115.245 121.605 116.373 121.896 117.386 122.479C118.399 123.049 119.197 123.847 119.78 124.873C120.363 125.899 120.654 127.064 120.654 128.369C120.654 129.674 120.363 130.839 119.78 131.865C119.197 132.891 118.399 133.695 117.386 134.278C116.373 134.848 115.245 135.133 114.004 135.133ZM114.004 133.632C114.929 133.632 115.758 133.417 116.493 132.986C117.24 132.555 117.823 131.941 118.241 131.143C118.672 130.345 118.887 129.42 118.887 128.369C118.887 127.305 118.672 126.38 118.241 125.595C117.823 124.797 117.247 124.183 116.512 123.752C115.777 123.321 114.941 123.106 114.004 123.106C113.067 123.106 112.231 123.321 111.496 123.752C110.761 124.183 110.179 124.797 109.748 125.595C109.33 126.38 109.121 127.305 109.121 128.369C109.121 129.42 109.33 130.345 109.748 131.143C110.179 131.941 110.761 132.555 111.496 132.986C112.243 133.417 113.079 133.632 114.004 133.632ZM124.628 121.757V130.136C124.628 131.314 124.913 132.188 125.483 132.758C126.065 133.328 126.87 133.613 127.896 133.613C128.909 133.613 129.701 133.328 130.271 132.758C130.853 132.188 131.145 131.314 131.145 130.136V121.757H132.874V130.117C132.874 131.219 132.652 132.15 132.209 132.91C131.765 133.657 131.164 134.215 130.404 134.582C129.656 134.949 128.814 135.133 127.877 135.133C126.939 135.133 126.091 134.949 125.331 134.582C124.583 134.215 123.988 133.657 123.545 132.91C123.114 132.15 122.899 131.219 122.899 130.117V121.757H124.628ZM143.909 121.757V123.163H140.299V135H138.57V123.163H134.941V121.757H143.909ZM154.891 125.633C154.891 126.735 154.511 127.653 153.751 128.388C153.004 129.11 151.858 129.471 150.312 129.471H147.766V135H146.037V121.757H150.312C151.807 121.757 152.941 122.118 153.713 122.84C154.499 123.562 154.891 124.493 154.891 125.633ZM150.312 128.046C151.275 128.046 151.984 127.837 152.44 127.419C152.896 127.001 153.124 126.406 153.124 125.633C153.124 123.999 152.187 123.182 150.312 123.182H147.766V128.046H150.312ZM158.731 121.757V130.136C158.731 131.314 159.016 132.188 159.586 132.758C160.169 133.328 160.973 133.613 161.999 133.613C163.012 133.613 163.804 133.328 164.374 132.758C164.957 132.188 165.248 131.314 165.248 130.136V121.757H166.977V130.117C166.977 131.219 166.755 132.15 166.312 132.91C165.869 133.657 165.267 134.215 164.507 134.582C163.76 134.949 162.917 135.133 161.98 135.133C161.043 135.133 160.194 134.949 159.434 134.582C158.687 134.215 158.091 133.657 157.648 132.91C157.217 132.15 157.002 131.219 157.002 130.117V121.757H158.731ZM178.012 121.757V123.163H174.402V135H172.673V123.163H169.044V121.757H178.012ZM180.692 135.114C180.362 135.114 180.084 135 179.856 134.772C179.628 134.544 179.514 134.265 179.514 133.936C179.514 133.607 179.628 133.328 179.856 133.1C180.084 132.872 180.362 132.758 180.692 132.758C181.008 132.758 181.274 132.872 181.49 133.1C181.718 133.328 181.832 133.607 181.832 133.936C181.832 134.265 181.718 134.544 181.49 134.772C181.274 135 181.008 135.114 180.692 135.114ZM192.984 125.633C192.984 126.735 192.604 127.653 191.844 128.388C191.097 129.11 189.95 129.471 188.405 129.471H185.859V135H184.13V121.757H188.405C189.9 121.757 191.033 122.118 191.806 122.84C192.591 123.562 192.984 124.493 192.984 125.633ZM188.405 128.046C189.368 128.046 190.077 127.837 190.533 127.419C190.989 127.001 191.217 126.406 191.217 125.633C191.217 123.999 190.28 123.182 188.405 123.182H185.859V128.046H188.405ZM196.824 121.757V130.136C196.824 131.314 197.109 132.188 197.679 132.758C198.262 133.328 199.066 133.613 200.092 133.613C201.105 133.613 201.897 133.328 202.467 132.758C203.05 132.188 203.341 131.314 203.341 130.136V121.757H205.07V130.117C205.07 131.219 204.848 132.15 204.405 132.91C203.962 133.657 203.36 134.215 202.6 134.582C201.853 134.949 201.01 135.133 200.073 135.133C199.136 135.133 198.287 134.949 197.527 134.582C196.78 134.215 196.184 133.657 195.741 132.91C195.31 132.15 195.095 131.219 195.095 130.117V121.757H196.824ZM216.105 121.757V123.163H212.495V135H210.766V123.163H207.137V121.757H216.105ZM228.874 135.722V137.318H218.766V135.722H228.874ZM233.897 133.594H238.533V135H232.168V121.757H233.897V133.594ZM242.098 121.757V135H240.369V121.757H242.098ZM255.457 135H253.728L246.774 124.455V135H245.045V121.738H246.774L253.728 132.264V121.738H255.457V135ZM260.133 123.163V127.59H264.959V129.015H260.133V133.575H265.529V135H258.404V121.738H265.529V123.163H260.133ZM272.592 138.534C271.376 137.343 270.426 135.83 269.742 133.993C269.07 132.156 268.735 130.174 268.735 128.046C268.735 125.867 269.089 123.834 269.799 121.947C270.521 120.047 271.547 118.483 272.877 117.254H274.682V117.425C273.263 118.755 272.193 120.357 271.471 122.232C270.761 124.094 270.407 126.032 270.407 128.046C270.407 130.009 270.742 131.884 271.414 133.67C272.098 135.456 273.092 137.02 274.397 138.363V138.534H272.592ZM282.588 135L278.503 130.402V135H276.774V120.94H278.503V129.205L282.512 124.588H284.925L280.023 129.775L284.944 135H282.588ZM286.001 138.534V138.363C287.306 137.02 288.294 135.456 288.965 133.67C289.649 131.884 289.991 130.009 289.991 128.046C289.991 126.032 289.63 124.094 288.908 122.232C288.199 120.357 287.135 118.755 285.716 117.425V117.254H287.521C288.851 118.483 289.871 120.047 290.58 121.947C291.302 123.834 291.663 125.867 291.663 128.046C291.663 130.174 291.321 132.156 290.637 133.993C289.966 135.83 289.022 137.343 287.806 138.534H286.001ZM296.187 126.963C295.857 126.963 295.579 126.849 295.351 126.621C295.123 126.393 295.009 126.114 295.009 125.785C295.009 125.456 295.123 125.177 295.351 124.949C295.579 124.721 295.857 124.607 296.187 124.607C296.503 124.607 296.769 124.721 296.985 124.949C297.213 125.177 297.327 125.456 297.327 125.785C297.327 126.114 297.213 126.393 296.985 126.621C296.769 126.849 296.503 126.963 296.187 126.963ZM297.441 132.606L295.313 137.717H294.154L295.541 132.606H297.441ZM43.192 152.163V156.59H48.018V158.015H43.192V162.575H48.588V164H41.463V150.738H48.588V152.163H43.192ZM61.6162 164H59.8872L52.9332 153.455V164H51.2042V150.738H52.9332L59.8872 161.264V150.738H61.6162V164ZM68.6866 150.757C70.1306 150.757 71.3783 151.029 72.4296 151.574C73.4936 152.106 74.3043 152.872 74.8616 153.873C75.4316 154.874 75.7166 156.052 75.7166 157.407C75.7166 158.762 75.4316 159.94 74.8616 160.941C74.3043 161.929 73.4936 162.689 72.4296 163.221C71.3783 163.74 70.1306 164 68.6866 164H64.5636V150.757H68.6866ZM68.6866 162.575C70.3966 162.575 71.7013 162.125 72.6006 161.226C73.4999 160.314 73.9496 159.041 73.9496 157.407C73.9496 155.76 73.4936 154.475 72.5816 153.55C71.6823 152.625 70.3839 152.163 68.6866 152.163H66.2926V162.575H68.6866ZM84.7916 162.594H89.4276V164H83.0626V150.757H84.7916V162.594ZM97.2678 164.133C96.0391 164.133 94.9181 163.848 93.9048 163.278C92.8914 162.695 92.0871 161.891 91.4918 160.865C90.9091 159.826 90.6178 158.661 90.6178 157.369C90.6178 156.077 90.9091 154.918 91.4918 153.892C92.0871 152.853 92.8914 152.049 93.9048 151.479C94.9181 150.896 96.0391 150.605 97.2678 150.605C98.5091 150.605 99.6364 150.896 100.65 151.479C101.663 152.049 102.461 152.847 103.044 153.873C103.626 154.899 103.918 156.064 103.918 157.369C103.918 158.674 103.626 159.839 103.044 160.865C102.461 161.891 101.663 162.695 100.65 163.278C99.6364 163.848 98.5091 164.133 97.2678 164.133ZM97.2678 162.632C98.1924 162.632 99.0221 162.417 99.7568 161.986C100.504 161.555 101.087 160.941 101.505 160.143C101.935 159.345 102.151 158.42 102.151 157.369C102.151 156.305 101.935 155.38 101.505 154.595C101.087 153.797 100.51 153.183 99.7758 152.752C99.0411 152.321 98.2051 152.106 97.2678 152.106C96.3304 152.106 95.4944 152.321 94.7598 152.752C94.0251 153.183 93.4424 153.797 93.0118 154.595C92.5938 155.38 92.3848 156.305 92.3848 157.369C92.3848 158.42 92.5938 159.345 93.0118 160.143C93.4424 160.941 94.0251 161.555 94.7598 161.986C95.5071 162.417 96.3431 162.632 97.2678 162.632ZM112.204 164.133C110.976 164.133 109.855 163.848 108.841 163.278C107.828 162.695 107.024 161.891 106.428 160.865C105.846 159.826 105.554 158.661 105.554 157.369C105.554 156.077 105.846 154.918 106.428 153.892C107.024 152.853 107.828 152.049 108.841 151.479C109.855 150.896 110.976 150.605 112.204 150.605C113.446 150.605 114.573 150.896 115.586 151.479C116.6 152.049 117.398 152.847 117.98 153.873C118.563 154.899 118.854 156.064 118.854 157.369C118.854 158.674 118.563 159.839 117.98 160.865C117.398 161.891 116.6 162.695 115.586 163.278C114.573 163.848 113.446 164.133 112.204 164.133ZM112.204 162.632C113.129 162.632 113.959 162.417 114.693 161.986C115.441 161.555 116.023 160.941 116.441 160.143C116.872 159.345 117.087 158.42 117.087 157.369C117.087 156.305 116.872 155.38 116.441 154.595C116.023 153.797 115.447 153.183 114.712 152.752C113.978 152.321 113.142 152.106 112.204 152.106C111.267 152.106 110.431 152.321 109.696 152.752C108.962 153.183 108.379 153.797 107.948 154.595C107.53 155.38 107.321 156.305 107.321 157.369C107.321 158.42 107.53 159.345 107.948 160.143C108.379 160.941 108.962 161.555 109.696 161.986C110.444 162.417 111.28 162.632 112.204 162.632ZM129.991 154.633C129.991 155.735 129.611 156.653 128.851 157.388C128.103 158.11 126.957 158.471 125.412 158.471H122.866V164H121.137V150.757H125.412C126.906 150.757 128.04 151.118 128.813 151.84C129.598 152.562 129.991 153.493 129.991 154.633ZM125.412 157.046C126.374 157.046 127.084 156.837 127.54 156.419C127.996 156.001 128.224 155.406 128.224 154.633C128.224 152.999 127.286 152.182 125.412 152.182H122.866V157.046H125.412ZM133.147 155.963C132.817 155.963 132.539 155.849 132.311 155.621C132.083 155.393 131.969 155.114 131.969 154.785C131.969 154.456 132.083 154.177 132.311 153.949C132.539 153.721 132.817 153.607 133.147 153.607C133.463 153.607 133.729 153.721 133.945 153.949C134.173 154.177 134.287 154.456 134.287 154.785C134.287 155.114 134.173 155.393 133.945 155.621C133.729 155.849 133.463 155.963 133.147 155.963ZM134.401 161.606L132.273 166.717H131.114L132.501 161.606H134.401ZM43.192 181.163V185.59H48.018V187.015H43.192V191.575H48.588V193H41.463V179.738H48.588V181.163H43.192ZM61.6162 193H59.8872L52.9332 182.455V193H51.2042V179.738H52.9332L59.8872 190.264V179.738H61.6162V193ZM68.6866 179.757C70.1306 179.757 71.3783 180.029 72.4296 180.574C73.4936 181.106 74.3043 181.872 74.8616 182.873C75.4316 183.874 75.7166 185.052 75.7166 186.407C75.7166 187.762 75.4316 188.94 74.8616 189.941C74.3043 190.929 73.4936 191.689 72.4296 192.221C71.3783 192.74 70.1306 193 68.6866 193H64.5636V179.757H68.6866ZM68.6866 191.575C70.3966 191.575 71.7013 191.125 72.6006 190.226C73.4999 189.314 73.9496 188.041 73.9496 186.407C73.9496 184.76 73.4936 183.475 72.5816 182.55C71.6823 181.625 70.3839 181.163 68.6866 181.163H66.2926V191.575H68.6866ZM79.0042 184.963C78.6748 184.963 78.3962 184.849 78.1682 184.621C77.9402 184.393 77.8262 184.114 77.8262 183.785C77.8262 183.456 77.9402 183.177 78.1682 182.949C78.3962 182.721 78.6748 182.607 79.0042 182.607C79.3208 182.607 79.5868 182.721 79.8022 182.949C80.0302 183.177 80.1442 183.456 80.1442 183.785C80.1442 184.114 80.0302 184.393 79.8022 184.621C79.5868 184.849 79.3208 184.963 79.0042 184.963ZM80.2582 190.606L78.1302 195.717H76.9712L78.3582 190.606H80.2582Z" fill="black"/>
<path d="M48.683 98.305V99.768H41.102V98.305H48.683ZM59.1478 98.305V99.768H51.5668V98.305H59.1478ZM72.5311 95.398C73.7978 95.398 74.8238 95.7843 75.6091 96.557C76.3945 97.317 76.7871 98.419 76.7871 99.863V106H75.0771V100.11C75.0771 99.0713 74.8175 98.2797 74.2981 97.735C73.7788 97.1777 73.0695 96.899 72.1701 96.899C71.2581 96.899 70.5298 97.184 69.9851 97.754C69.4531 98.324 69.1871 99.1537 69.1871 100.243V106H67.4581V95.588H69.1871V97.07C69.5291 96.538 69.9915 96.1263 70.5741 95.835C71.1695 95.5437 71.8218 95.398 72.5311 95.398ZM84.1524 106.171C83.1771 106.171 82.2904 105.949 81.4924 105.506C80.7071 105.063 80.0864 104.436 79.6304 103.625C79.1871 102.802 78.9654 101.852 78.9654 100.775C78.9654 99.711 79.1934 98.7737 79.6494 97.963C80.1181 97.1397 80.7514 96.5127 81.5494 96.082C82.3474 95.6387 83.2404 95.417 84.2284 95.417C85.2164 95.417 86.1094 95.6387 86.9074 96.082C87.7054 96.5127 88.3324 97.1333 88.7884 97.944C89.2571 98.7547 89.4914 99.6983 89.4914 100.775C89.4914 101.852 89.2508 102.802 88.7694 103.625C88.3008 104.436 87.6611 105.063 86.8504 105.506C86.0398 105.949 85.1404 106.171 84.1524 106.171ZM84.1524 104.651C84.7731 104.651 85.3558 104.505 85.9004 104.214C86.4451 103.923 86.8821 103.486 87.2114 102.903C87.5534 102.32 87.7244 101.611 87.7244 100.775C87.7244 99.939 87.5598 99.2297 87.2304 98.647C86.9011 98.0643 86.4704 97.6337 85.9384 97.355C85.4064 97.0637 84.8301 96.918 84.2094 96.918C83.5761 96.918 82.9934 97.0637 82.4614 97.355C81.9421 97.6337 81.5241 98.0643 81.2074 98.647C80.8908 99.2297 80.7324 99.939 80.7324 100.775C80.7324 101.624 80.8844 102.339 81.1884 102.922C81.5051 103.505 81.9231 103.942 82.4424 104.233C82.9618 104.512 83.5318 104.651 84.1524 104.651ZM93.8738 97.013V103.15C93.8738 103.657 93.9814 104.018 94.1968 104.233C94.4121 104.436 94.7858 104.537 95.3178 104.537H96.5908V106H95.0328C94.0701 106 93.3481 105.778 92.8668 105.335C92.3854 104.892 92.1448 104.163 92.1448 103.15V97.013H90.7958V95.588H92.1448V92.966H93.8738V95.588H96.5908V97.013H93.8738ZM108.186 100.395C108.186 100.724 108.167 101.073 108.129 101.44H99.8067C99.87 102.466 100.218 103.27 100.852 103.853C101.498 104.423 102.277 104.708 103.189 104.708C103.936 104.708 104.557 104.537 105.051 104.195C105.557 103.84 105.912 103.372 106.115 102.789H107.977C107.698 103.79 107.141 104.607 106.305 105.24C105.469 105.861 104.43 106.171 103.189 106.171C102.201 106.171 101.314 105.949 100.529 105.506C99.756 105.063 99.148 104.436 98.7047 103.625C98.2613 102.802 98.0397 101.852 98.0397 100.775C98.0397 99.6983 98.255 98.7547 98.6857 97.944C99.1163 97.1333 99.718 96.5127 100.491 96.082C101.276 95.6387 102.175 95.417 103.189 95.417C104.177 95.417 105.051 95.6323 105.811 96.063C106.571 96.4937 107.153 97.089 107.559 97.849C107.977 98.5963 108.186 99.445 108.186 100.395ZM106.4 100.034C106.4 99.3753 106.254 98.8117 105.963 98.343C105.671 97.8617 105.272 97.5007 104.766 97.26C104.272 97.0067 103.721 96.88 103.113 96.88C102.239 96.88 101.491 97.1587 100.871 97.716C100.263 98.2733 99.9143 99.046 99.8257 100.034H106.4ZM117.642 97.013V103.15C117.642 103.657 117.75 104.018 117.965 104.233C118.181 104.436 118.554 104.537 119.086 104.537H120.359V106H118.801C117.839 106 117.117 105.778 116.635 105.335C116.154 104.892 115.913 104.163 115.913 103.15V97.013H114.564V95.588H115.913V92.966H117.642V95.588H120.359V97.013H117.642ZM127.622 95.398C128.408 95.398 129.117 95.569 129.75 95.911C130.384 96.2403 130.878 96.7407 131.232 97.412C131.6 98.0833 131.783 98.9003 131.783 99.863V106H130.073V100.11C130.073 99.0713 129.814 98.2797 129.294 97.735C128.775 97.1777 128.066 96.899 127.166 96.899C126.254 96.899 125.526 97.184 124.981 97.754C124.449 98.324 124.183 99.1537 124.183 100.243V106H122.454V91.94H124.183V97.07C124.525 96.538 124.994 96.1263 125.589 95.835C126.197 95.5437 126.875 95.398 127.622 95.398ZM133.962 100.756C133.962 99.692 134.177 98.761 134.608 97.963C135.038 97.1523 135.627 96.5253 136.375 96.082C137.135 95.6387 137.977 95.417 138.902 95.417C139.814 95.417 140.605 95.6133 141.277 96.006C141.948 96.3987 142.448 96.8927 142.778 97.488V95.588H144.526V106H142.778V104.062C142.436 104.67 141.923 105.177 141.239 105.582C140.567 105.975 139.782 106.171 138.883 106.171C137.958 106.171 137.122 105.943 136.375 105.487C135.627 105.031 135.038 104.391 134.608 103.568C134.177 102.745 133.962 101.807 133.962 100.756ZM142.778 100.775C142.778 99.9897 142.619 99.3057 142.303 98.723C141.986 98.1403 141.555 97.697 141.011 97.393C140.479 97.0763 139.89 96.918 139.244 96.918C138.598 96.918 138.009 97.07 137.477 97.374C136.945 97.678 136.52 98.1213 136.204 98.704C135.887 99.2867 135.729 99.9707 135.729 100.756C135.729 101.554 135.887 102.251 136.204 102.846C136.52 103.429 136.945 103.878 137.477 104.195C138.009 104.499 138.598 104.651 139.244 104.651C139.89 104.651 140.479 104.499 141.011 104.195C141.555 103.878 141.986 103.429 142.303 102.846C142.619 102.251 142.778 101.56 142.778 100.775ZM149.556 97.013V103.15C149.556 103.657 149.664 104.018 149.879 104.233C150.095 104.436 150.468 104.537 151 104.537H152.273V106H150.715C149.753 106 149.031 105.778 148.549 105.335C148.068 104.892 147.827 104.163 147.827 103.15V97.013H146.478V95.588H147.827V92.966H149.556V95.588H152.273V97.013H149.556ZM165.248 106L161.163 101.402V106H159.434V91.94H161.163V100.205L165.172 95.588H167.585L162.683 100.775L167.604 106H165.248ZM188.147 95.588L184.898 106H183.112L180.604 97.735L178.096 106H176.31L173.042 95.588H174.809L177.203 104.328L179.787 95.588H181.554L184.081 104.347L186.437 95.588H188.147ZM189.217 100.756C189.217 99.692 189.433 98.761 189.863 97.963C190.294 97.1523 190.883 96.5253 191.63 96.082C192.39 95.6387 193.233 95.417 194.157 95.417C195.069 95.417 195.861 95.6133 196.532 96.006C197.204 96.3987 197.704 96.8927 198.033 97.488V95.588H199.781V106H198.033V104.062C197.691 104.67 197.178 105.177 196.494 105.582C195.823 105.975 195.038 106.171 194.138 106.171C193.214 106.171 192.378 105.943 191.63 105.487C190.883 105.031 190.294 104.391 189.863 103.568C189.433 102.745 189.217 101.807 189.217 100.756ZM198.033 100.775C198.033 99.9897 197.875 99.3057 197.558 98.723C197.242 98.1403 196.811 97.697 196.266 97.393C195.734 97.0763 195.145 96.918 194.499 96.918C193.853 96.918 193.264 97.07 192.732 97.374C192.2 97.678 191.776 98.1213 191.459 98.704C191.143 99.2867 190.984 99.9707 190.984 100.756C190.984 101.554 191.143 102.251 191.459 102.846C191.776 103.429 192.2 103.878 192.732 104.195C193.264 104.499 193.853 104.651 194.499 104.651C195.145 104.651 195.734 104.499 196.266 104.195C196.811 103.878 197.242 103.429 197.558 102.846C197.875 102.251 198.033 101.56 198.033 100.775ZM206.389 106.171C205.591 106.171 204.876 106.038 204.242 105.772C203.609 105.493 203.109 105.113 202.741 104.632C202.374 104.138 202.171 103.574 202.133 102.941H203.919C203.97 103.46 204.211 103.885 204.641 104.214C205.085 104.543 205.661 104.708 206.37 104.708C207.029 104.708 207.548 104.562 207.928 104.271C208.308 103.98 208.498 103.612 208.498 103.169C208.498 102.713 208.296 102.377 207.89 102.162C207.485 101.934 206.858 101.712 206.009 101.497C205.237 101.294 204.603 101.092 204.109 100.889C203.628 100.674 203.21 100.363 202.855 99.958C202.513 99.54 202.342 98.9953 202.342 98.324C202.342 97.792 202.501 97.3043 202.817 96.861C203.134 96.4177 203.584 96.0693 204.166 95.816C204.749 95.55 205.414 95.417 206.161 95.417C207.314 95.417 208.245 95.7083 208.954 96.291C209.664 96.8737 210.044 97.6717 210.094 98.685H208.365C208.327 98.1403 208.106 97.7033 207.7 97.374C207.308 97.0447 206.776 96.88 206.104 96.88C205.484 96.88 204.99 97.013 204.622 97.279C204.255 97.545 204.071 97.8933 204.071 98.324C204.071 98.666 204.179 98.951 204.394 99.179C204.622 99.3943 204.901 99.5717 205.23 99.711C205.572 99.8377 206.041 99.9833 206.636 100.148C207.384 100.351 207.992 100.553 208.46 100.756C208.929 100.946 209.328 101.237 209.657 101.63C209.999 102.023 210.177 102.536 210.189 103.169C210.189 103.739 210.031 104.252 209.714 104.708C209.398 105.164 208.948 105.525 208.365 105.791C207.795 106.044 207.137 106.171 206.389 106.171ZM222.768 95.398C224.035 95.398 225.061 95.7843 225.846 96.557C226.632 97.317 227.024 98.419 227.024 99.863V106H225.314V100.11C225.314 99.0713 225.055 98.2797 224.535 97.735C224.016 97.1777 223.307 96.899 222.407 96.899C221.495 96.899 220.767 97.184 220.222 97.754C219.69 98.324 219.424 99.1537 219.424 100.243V106H217.695V95.588H219.424V97.07C219.766 96.538 220.229 96.1263 220.811 95.835C221.407 95.5437 222.059 95.398 222.768 95.398ZM234.39 106.171C233.414 106.171 232.528 105.949 231.73 105.506C230.944 105.063 230.324 104.436 229.868 103.625C229.424 102.802 229.203 101.852 229.203 100.775C229.203 99.711 229.431 98.7737 229.887 97.963C230.355 97.1397 230.989 96.5127 231.787 96.082C232.585 95.6387 233.478 95.417 234.466 95.417C235.454 95.417 236.347 95.6387 237.145 96.082C237.943 96.5127 238.57 97.1333 239.026 97.944C239.494 98.7547 239.729 99.6983 239.729 100.775C239.729 101.852 239.488 102.802 239.007 103.625C238.538 104.436 237.898 105.063 237.088 105.506C236.277 105.949 235.378 106.171 234.39 106.171ZM234.39 104.651C235.01 104.651 235.593 104.505 236.138 104.214C236.682 103.923 237.119 103.486 237.449 102.903C237.791 102.32 237.962 101.611 237.962 100.775C237.962 99.939 237.797 99.2297 237.468 98.647C237.138 98.0643 236.708 97.6337 236.176 97.355C235.644 97.0637 235.067 96.918 234.447 96.918C233.813 96.918 233.231 97.0637 232.699 97.355C232.179 97.6337 231.761 98.0643 231.445 98.647C231.128 99.2297 230.97 99.939 230.97 100.775C230.97 101.624 231.122 102.339 231.426 102.922C231.742 103.505 232.16 103.942 232.68 104.233C233.199 104.512 233.769 104.651 234.39 104.651ZM244.111 97.013V103.15C244.111 103.657 244.219 104.018 244.434 104.233C244.649 104.436 245.023 104.537 245.555 104.537H246.828V106H245.27C244.307 106 243.585 105.778 243.104 105.335C242.623 104.892 242.382 104.163 242.382 103.15V97.013H241.033V95.588H242.382V92.966H244.111V95.588H246.828V97.013H244.111ZM253.342 100.756C253.342 99.692 253.558 98.761 253.988 97.963C254.419 97.1523 255.008 96.5253 255.755 96.082C256.515 95.6387 257.364 95.417 258.301 95.417C259.112 95.417 259.866 95.607 260.562 95.987C261.259 96.3543 261.791 96.842 262.158 97.45V91.94H263.906V106H262.158V104.043C261.816 104.664 261.31 105.177 260.638 105.582C259.967 105.975 259.182 106.171 258.282 106.171C257.358 106.171 256.515 105.943 255.755 105.487C255.008 105.031 254.419 104.391 253.988 103.568C253.558 102.745 253.342 101.807 253.342 100.756ZM262.158 100.775C262.158 99.9897 262 99.3057 261.683 98.723C261.367 98.1403 260.936 97.697 260.391 97.393C259.859 97.0763 259.27 96.918 258.624 96.918C257.978 96.918 257.389 97.07 256.857 97.374C256.325 97.678 255.901 98.1213 255.584 98.704C255.268 99.2867 255.109 99.9707 255.109 100.756C255.109 101.554 255.268 102.251 255.584 102.846C255.901 103.429 256.325 103.878 256.857 104.195C257.389 104.499 257.978 104.651 258.624 104.651C259.27 104.651 259.859 104.499 260.391 104.195C260.936 103.878 261.367 103.429 261.683 102.846C262 102.251 262.158 101.56 262.158 100.775ZM276.328 100.395C276.328 100.724 276.309 101.073 276.271 101.44H267.949C268.013 102.466 268.361 103.27 268.994 103.853C269.64 104.423 270.419 104.708 271.331 104.708C272.079 104.708 272.699 104.537 273.193 104.195C273.7 103.84 274.055 103.372 274.257 102.789H276.119C275.841 103.79 275.283 104.607 274.447 105.24C273.611 105.861 272.573 106.171 271.331 106.171C270.343 106.171 269.457 105.949 268.671 105.506C267.899 105.063 267.291 104.436 266.847 103.625C266.404 102.802 266.182 101.852 266.182 100.775C266.182 99.6983 266.398 98.7547 266.828 97.944C267.259 97.1333 267.861 96.5127 268.633 96.082C269.419 95.6387 270.318 95.417 271.331 95.417C272.319 95.417 273.193 95.6323 273.953 96.063C274.713 96.4937 275.296 97.089 275.701 97.849C276.119 98.5963 276.328 99.445 276.328 100.395ZM274.542 100.034C274.542 99.3753 274.397 98.8117 274.105 98.343C273.814 97.8617 273.415 97.5007 272.908 97.26C272.414 97.0067 271.863 96.88 271.255 96.88C270.381 96.88 269.634 97.1587 269.013 97.716C268.405 98.2733 268.057 99.046 267.968 100.034H274.542ZM277.964 100.775C277.964 99.6983 278.18 98.761 278.61 97.963C279.041 97.1523 279.636 96.5253 280.396 96.082C281.169 95.6387 282.049 95.417 283.037 95.417C284.317 95.417 285.368 95.7273 286.191 96.348C287.027 96.9687 287.578 97.83 287.844 98.932H285.982C285.805 98.2987 285.457 97.7983 284.937 97.431C284.431 97.0637 283.797 96.88 283.037 96.88C282.049 96.88 281.251 97.222 280.643 97.906C280.035 98.5773 279.731 99.5337 279.731 100.775C279.731 102.029 280.035 102.998 280.643 103.682C281.251 104.366 282.049 104.708 283.037 104.708C283.797 104.708 284.431 104.531 284.937 104.176C285.444 103.821 285.792 103.315 285.982 102.656H287.844C287.566 103.72 287.008 104.575 286.172 105.221C285.336 105.854 284.291 106.171 283.037 106.171C282.049 106.171 281.169 105.949 280.396 105.506C279.636 105.063 279.041 104.436 278.61 103.625C278.18 102.814 277.964 101.864 277.964 100.775ZM291.88 91.94V106H290.151V91.94H291.88ZM294.181 100.756C294.181 99.692 294.397 98.761 294.827 97.963C295.258 97.1523 295.847 96.5253 296.594 96.082C297.354 95.6387 298.197 95.417 299.121 95.417C300.033 95.417 300.825 95.6133 301.496 96.006C302.168 96.3987 302.668 96.8927 302.997 97.488V95.588H304.745V106H302.997V104.062C302.655 104.67 302.142 105.177 301.458 105.582C300.787 105.975 300.002 106.171 299.102 106.171C298.178 106.171 297.342 105.943 296.594 105.487C295.847 105.031 295.258 104.391 294.827 103.568C294.397 102.745 294.181 101.807 294.181 100.756ZM302.997 100.775C302.997 99.9897 302.839 99.3057 302.522 98.723C302.206 98.1403 301.775 97.697 301.23 97.393C300.698 97.0763 300.109 96.918 299.463 96.918C298.817 96.918 298.228 97.07 297.696 97.374C297.164 97.678 296.74 98.1213 296.423 98.704C296.107 99.2867 295.948 99.9707 295.948 100.756C295.948 101.554 296.107 102.251 296.423 102.846C296.74 103.429 297.164 103.878 297.696 104.195C298.228 104.499 298.817 104.651 299.463 104.651C300.109 104.651 300.698 104.499 301.23 104.195C301.775 103.878 302.206 103.429 302.522 102.846C302.839 102.251 302.997 101.56 302.997 100.775ZM309.396 97.279C309.7 96.6837 310.131 96.2213 310.688 95.892C311.258 95.5627 311.948 95.398 312.759 95.398V97.184H312.303C310.365 97.184 309.396 98.2353 309.396 100.338V106H307.667V95.588H309.396V97.279ZM324.255 100.395C324.255 100.724 324.236 101.073 324.198 101.44H315.876C315.939 102.466 316.288 103.27 316.921 103.853C317.567 104.423 318.346 104.708 319.258 104.708C320.005 104.708 320.626 104.537 321.12 104.195C321.627 103.84 321.981 103.372 322.184 102.789H324.046C323.767 103.79 323.21 104.607 322.374 105.24C321.538 105.861 320.499 106.171 319.258 106.171C318.27 106.171 317.383 105.949 316.598 105.506C315.825 105.063 315.217 104.436 314.774 103.625C314.331 102.802 314.109 101.852 314.109 100.775C314.109 99.6983 314.324 98.7547 314.755 97.944C315.186 97.1333 315.787 96.5127 316.56 96.082C317.345 95.6387 318.245 95.417 319.258 95.417C320.246 95.417 321.12 95.6323 321.88 96.063C322.64 96.4937 323.223 97.089 323.628 97.849C324.046 98.5963 324.255 99.445 324.255 100.395ZM322.469 100.034C322.469 99.3753 322.323 98.8117 322.032 98.343C321.741 97.8617 321.342 97.5007 320.835 97.26C320.341 97.0067 319.79 96.88 319.182 96.88C318.308 96.88 317.561 97.1587 316.94 97.716C316.332 98.2733 315.984 99.046 315.895 100.034H322.469ZM325.891 100.756C325.891 99.692 326.107 98.761 326.537 97.963C326.968 97.1523 327.557 96.5253 328.304 96.082C329.064 95.6387 329.913 95.417 330.85 95.417C331.661 95.417 332.415 95.607 333.111 95.987C333.808 96.3543 334.34 96.842 334.707 97.45V91.94H336.455V106H334.707V104.043C334.365 104.664 333.859 105.177 333.187 105.582C332.516 105.975 331.731 106.171 330.831 106.171C329.907 106.171 329.064 105.943 328.304 105.487C327.557 105.031 326.968 104.391 326.537 103.568C326.107 102.745 325.891 101.807 325.891 100.756ZM334.707 100.775C334.707 99.9897 334.549 99.3057 334.232 98.723C333.916 98.1403 333.485 97.697 332.94 97.393C332.408 97.0763 331.819 96.918 331.173 96.918C330.527 96.918 329.938 97.07 329.406 97.374C328.874 97.678 328.45 98.1213 328.133 98.704C327.817 99.2867 327.658 99.9707 327.658 100.756C327.658 101.554 327.817 102.251 328.133 102.846C328.45 103.429 328.874 103.878 329.406 104.195C329.938 104.499 330.527 104.651 331.173 104.651C331.819 104.651 332.408 104.499 332.94 104.195C333.485 103.878 333.916 103.429 334.232 102.846C334.549 102.251 334.707 101.56 334.707 100.775Z" fill="#21B573"/>
</g>
<defs>
<filter id="filter0_d_726_194" x="2" y="13" width="432" height="226" filterUnits="userSpaceOnUse" color-interpolation-filters="sRGB">
<feFlood flood-opacity="0" result="BackgroundImageFix"/>
<feColorMatrix in="SourceAlpha" type="matrix" values="0 0 0 0 0 0 0 0 0 0 0 0 0 0 0 0 0 0 127 0" result="hardAlpha"/>
<feOffset dy="12"/>
<feGaussianBlur stdDeviation="9"/>
<feComposite in2="hardAlpha" operator="out"/>
<feColorMatrix type="matrix" values="0 0 0 0 0.0196078 0 0 0 0 0.337255 0 0 0 0 0.952941 0 0 0 0.05 0"/>
<feBlend mode="normal" in2="BackgroundImageFix" result="effect1_dropShadow_726_194"/>
<feBlend mode="normal" in="SourceGraphic" in2="effect1_dropShadow_726_194" result="shape"/>
</filter>
<clipPath id="clip0_726_194">
<rect width="441" height="231" fill="white"/>
</clipPath>
</defs>
</svg>
