<svg width="82" height="434" viewBox="0 0 82 434" fill="none" xmlns="http://www.w3.org/2000/svg">
<g clip-path="url(#clip0_723_178)" filter="url(#filter0_d_723_178)">
<rect width="74" height="426" transform="translate(4)" fill="black"/>
<path d="M18.95 24V21.925H23.65V40H21.35V24H18.95ZM19.275 76.175C21.3917 74.475 23.05 73.0833 24.25 72C25.45 70.9 26.4583 69.7583 27.275 68.575C28.1083 67.375 28.525 66.2 28.525 65.05C28.525 63.9667 28.2583 63.1167 27.725 62.5C27.2083 61.8667 26.3667 61.55 25.2 61.55C24.0667 61.55 23.1833 61.9083 22.55 62.625C21.9333 63.325 21.6 64.2667 21.55 65.45H19.35C19.4167 63.5833 19.9833 62.1417 21.05 61.125C22.1167 60.1083 23.4917 59.6 25.175 59.6C26.8917 59.6 28.25 60.075 29.25 61.025C30.2667 61.975 30.775 63.2833 30.775 64.95C30.775 66.3333 30.3583 67.6833 29.525 69C28.7083 70.3 27.775 71.45 26.725 72.45C25.675 73.4333 24.3333 74.5833 22.7 75.9H31.3V77.8H19.275V76.175ZM19.5 102.475C19.6167 100.942 20.2083 99.7417 21.275 98.875C22.3417 98.0083 23.725 97.575 25.425 97.575C26.5583 97.575 27.5333 97.7833 28.35 98.2C29.1833 98.6 29.8083 99.15 30.225 99.85C30.6583 100.55 30.875 101.342 30.875 102.225C30.875 103.258 30.575 104.15 29.975 104.9C29.3917 105.65 28.625 106.133 27.675 106.35V106.475C28.7583 106.742 29.6167 107.267 30.25 108.05C30.8833 108.833 31.2 109.858 31.2 111.125C31.2 112.075 30.9833 112.933 30.55 113.7C30.1167 114.45 29.4667 115.042 28.6 115.475C27.7333 115.908 26.6917 116.125 25.475 116.125C23.7083 116.125 22.2583 115.667 21.125 114.75C19.9917 113.817 19.3583 112.5 19.225 110.8H21.425C21.5417 111.8 21.95 112.617 22.65 113.25C23.35 113.883 24.2833 114.2 25.45 114.2C26.6167 114.2 27.5 113.9 28.1 113.3C28.7167 112.683 29.025 111.892 29.025 110.925C29.025 109.675 28.6083 108.775 27.775 108.225C26.9417 107.675 25.6833 107.4 24 107.4H23.425V105.5H24.025C25.5583 105.483 26.7167 105.233 27.5 104.75C28.2833 104.25 28.675 103.483 28.675 102.45C28.675 101.567 28.3833 100.858 27.8 100.325C27.2333 99.7917 26.4167 99.525 25.35 99.525C24.3167 99.525 23.4833 99.7917 22.85 100.325C22.2167 100.858 21.8417 101.575 21.725 102.475H19.5ZM19 149.975V148.25L27.775 136.1H30.5V148H33V149.975H30.5V154H28.25V149.975H19ZM28.35 138.475L21.625 148H28.35V138.475ZM31.075 175.9H22.3V181.6C22.6833 181.067 23.25 180.633 24 180.3C24.75 179.95 25.5583 179.775 26.425 179.775C27.8083 179.775 28.9333 180.067 29.8 180.65C30.6667 181.217 31.2833 181.958 31.65 182.875C32.0333 183.775 32.225 184.733 32.225 185.75C32.225 186.95 32 188.025 31.55 188.975C31.1 189.925 30.4083 190.675 29.475 191.225C28.5583 191.775 27.4167 192.05 26.05 192.05C24.3 192.05 22.8833 191.6 21.8 190.7C20.7167 189.8 20.0583 188.6 19.825 187.1H22.05C22.2667 188.05 22.725 188.792 23.425 189.325C24.125 189.858 25.0083 190.125 26.075 190.125C27.3917 190.125 28.3833 189.733 29.05 188.95C29.7167 188.15 30.05 187.1 30.05 185.8C30.05 184.5 29.7167 183.5 29.05 182.8C28.3833 182.083 27.4 181.725 26.1 181.725C25.2167 181.725 24.4417 181.942 23.775 182.375C23.125 182.792 22.65 183.367 22.35 184.1H20.2V173.9H31.075V175.9ZM29.625 216.225C29.2583 214.375 28.1167 213.45 26.2 213.45C24.7167 213.45 23.6083 214.025 22.875 215.175C22.1417 216.308 21.7833 218.183 21.8 220.8C22.1833 219.933 22.8167 219.258 23.7 218.775C24.6 218.275 25.6 218.025 26.7 218.025C28.4167 218.025 29.7833 218.558 30.8 219.625C31.8333 220.692 32.35 222.167 32.35 224.05C32.35 225.183 32.125 226.2 31.675 227.1C31.2417 228 30.575 228.717 29.675 229.25C28.7917 229.783 27.7167 230.05 26.45 230.05C24.7333 230.05 23.3917 229.667 22.425 228.9C21.4583 228.133 20.7833 227.075 20.4 225.725C20.0167 224.375 19.825 222.708 19.825 220.725C19.825 214.608 21.9583 211.55 26.225 211.55C27.8583 211.55 29.1417 211.992 30.075 212.875C31.0083 213.758 31.5583 214.875 31.725 216.225H29.625ZM26.225 219.95C25.5083 219.95 24.8333 220.1 24.2 220.4C23.5667 220.683 23.05 221.125 22.65 221.725C22.2667 222.308 22.075 223.025 22.075 223.875C22.075 225.142 22.4417 226.175 23.175 226.975C23.9083 227.758 24.9583 228.15 26.325 228.15C27.4917 228.15 28.4167 227.792 29.1 227.075C29.8 226.342 30.15 225.358 30.15 224.125C30.15 222.825 29.8167 221.808 29.15 221.075C28.4833 220.325 27.5083 219.95 26.225 219.95ZM30.675 251.7L23.725 268H21.425L28.475 251.925H18.825V249.975H30.675V251.7ZM22.85 296.6C21.9167 296.233 21.2 295.7 20.7 295C20.2 294.3 19.95 293.45 19.95 292.45C19.95 291.55 20.175 290.742 20.625 290.025C21.075 289.292 21.7417 288.717 22.625 288.3C23.525 287.867 24.6083 287.65 25.875 287.65C27.1417 287.65 28.2167 287.867 29.1 288.3C30 288.717 30.675 289.292 31.125 290.025C31.5917 290.742 31.825 291.55 31.825 292.45C31.825 293.417 31.5667 294.267 31.05 295C30.5333 295.717 29.825 296.25 28.925 296.6C29.9583 296.917 30.775 297.475 31.375 298.275C31.9917 299.058 32.3 300.008 32.3 301.125C32.3 302.208 32.0333 303.158 31.5 303.975C30.9667 304.775 30.2083 305.4 29.225 305.85C28.2583 306.283 27.1417 306.5 25.875 306.5C24.6083 306.5 23.4917 306.283 22.525 305.85C21.575 305.4 20.8333 304.775 20.3 303.975C19.7667 303.158 19.5 302.208 19.5 301.125C19.5 300.008 19.8 299.05 20.4 298.25C21 297.45 21.8167 296.9 22.85 296.6ZM29.625 292.725C29.625 291.708 29.2917 290.925 28.625 290.375C27.9583 289.825 27.0417 289.55 25.875 289.55C24.725 289.55 23.8167 289.825 23.15 290.375C22.4833 290.925 22.15 291.717 22.15 292.75C22.15 293.683 22.4917 294.433 23.175 295C23.875 295.567 24.775 295.85 25.875 295.85C26.9917 295.85 27.8917 295.567 28.575 295C29.275 294.417 29.625 293.658 29.625 292.725ZM25.875 297.6C24.6417 297.6 23.6333 297.892 22.85 298.475C22.0667 299.042 21.675 299.9 21.675 301.05C21.675 302.117 22.05 302.975 22.8 303.625C23.5667 304.275 24.5917 304.6 25.875 304.6C27.1583 304.6 28.175 304.275 28.925 303.625C29.675 302.975 30.05 302.117 30.05 301.05C30.05 299.933 29.6667 299.083 28.9 298.5C28.1333 297.9 27.125 297.6 25.875 297.6ZM22.475 339.15C22.6417 340.1 23.025 340.833 23.625 341.35C24.2417 341.867 25.0667 342.125 26.1 342.125C27.4833 342.125 28.5 341.583 29.15 340.5C29.8167 339.417 30.1333 337.592 30.1 335.025C29.75 335.775 29.1667 336.367 28.35 336.8C27.5333 337.217 26.625 337.425 25.625 337.425C24.5083 337.425 23.5083 337.2 22.625 336.75C21.7583 336.283 21.075 335.608 20.575 334.725C20.075 333.842 19.825 332.775 19.825 331.525C19.825 329.742 20.3417 328.308 21.375 327.225C22.4083 326.125 23.875 325.575 25.775 325.575C28.1083 325.575 29.7417 326.333 30.675 327.85C31.625 329.367 32.1 331.625 32.1 334.625C32.1 336.725 31.9083 338.458 31.525 339.825C31.1583 341.192 30.525 342.233 29.625 342.95C28.7417 343.667 27.525 344.025 25.975 344.025C24.275 344.025 22.95 343.567 22 342.65C21.05 341.733 20.5083 340.567 20.375 339.15H22.475ZM26 335.5C27.1167 335.5 28.0333 335.158 28.75 334.475C29.4667 333.775 29.825 332.833 29.825 331.65C29.825 330.4 29.475 329.392 28.775 328.625C28.075 327.858 27.0917 327.475 25.825 327.475C24.6583 327.475 23.725 327.842 23.025 328.575C22.3417 329.308 22 330.275 22 331.475C22 332.692 22.3417 333.667 23.025 334.4C23.7083 335.133 24.7 335.5 26 335.5ZM18.95 366V363.925H23.65V382H21.35V366H18.95ZM27.5578 372.775C27.5578 369.908 28.0245 367.675 28.9578 366.075C29.8911 364.458 31.5245 363.65 33.8578 363.65C36.1745 363.65 37.7995 364.458 38.7328 366.075C39.6661 367.675 40.1328 369.908 40.1328 372.775C40.1328 375.692 39.6661 377.958 38.7328 379.575C37.7995 381.192 36.1745 382 33.8578 382C31.5245 382 29.8911 381.192 28.9578 379.575C28.0245 377.958 27.5578 375.692 27.5578 372.775ZM37.8828 372.775C37.8828 371.325 37.7828 370.1 37.5828 369.1C37.3995 368.083 37.0078 367.267 36.4078 366.65C35.8245 366.033 34.9745 365.725 33.8578 365.725C32.7245 365.725 31.8578 366.033 31.2578 366.65C30.6745 367.267 30.2828 368.083 30.0828 369.1C29.8995 370.1 29.8078 371.325 29.8078 372.775C29.8078 374.275 29.8995 375.533 30.0828 376.55C30.2828 377.567 30.6745 378.383 31.2578 379C31.8578 379.617 32.7245 379.925 33.8578 379.925C34.9745 379.925 35.8245 379.617 36.4078 379C37.0078 378.383 37.3995 377.567 37.5828 376.55C37.7828 375.533 37.8828 374.275 37.8828 372.775Z" fill="white"/>
</g>
<defs>
<filter id="filter0_d_723_178" x="0" y="0" width="82" height="434" filterUnits="userSpaceOnUse" color-interpolation-filters="sRGB">
<feFlood flood-opacity="0" result="BackgroundImageFix"/>
<feColorMatrix in="SourceAlpha" type="matrix" values="0 0 0 0 0 0 0 0 0 0 0 0 0 0 0 0 0 0 127 0" result="hardAlpha"/>
<feOffset dy="4"/>
<feGaussianBlur stdDeviation="2"/>
<feComposite in2="hardAlpha" operator="out"/>
<feColorMatrix type="matrix" values="0 0 0 0 0 0 0 0 0 0 0 0 0 0 0 0 0 0 0.25 0"/>
<feBlend mode="normal" in2="BackgroundImageFix" result="effect1_dropShadow_723_178"/>
<feBlend mode="normal" in="SourceGraphic" in2="effect1_dropShadow_723_178" result="shape"/>
</filter>
<clipPath id="clip0_723_178">
<rect width="74" height="426" fill="white" transform="translate(4)"/>
</clipPath>
</defs>
</svg>
