<svg width="820" height="346" viewBox="0 0 820 346" fill="none" xmlns="http://www.w3.org/2000/svg">
<rect width="820" height="346" fill="#F8F8F8"/>
<g filter="url(#filter0_d_621_151)">
<rect x="170" y="138" width="583" height="147" rx="6" fill="white"/>
</g>
<mask id="path-2-inside-1_621_151" fill="white">
<path d="M170 143C170 139.686 172.686 137 176 137H747C750.314 137 753 139.686 753 143V174H170V143Z"/>
</mask>
<path d="M170 143C170 139.686 172.686 137 176 137H747C750.314 137 753 139.686 753 143V174H170V143Z" fill="white"/>
<path d="M170 137H753H170ZM753 176H170V172H753V176ZM170 174V137V174ZM753 137V174V137Z" fill="#F4F4F4" mask="url(#path-2-inside-1_621_151)"/>
<mask id="path-4-inside-2_621_151" fill="white">
<path d="M170 174H753V211H170V174Z"/>
</mask>
<path d="M170 174H753V211H170V174Z" fill="white"/>
<path d="M753 209H170V213H753V209Z" fill="#F4F4F4" mask="url(#path-4-inside-2_621_151)"/>
<mask id="path-6-inside-3_621_151" fill="white">
<path d="M170 211H753V248H170V211Z"/>
</mask>
<path d="M170 211H753V248H170V211Z" fill="white"/>
<path d="M753 246H170V250H753V246Z" fill="#F4F4F4" mask="url(#path-6-inside-3_621_151)"/>
<mask id="path-8-inside-4_621_151" fill="white">
<path d="M170 248H753V285H170V248Z"/>
</mask>
<path d="M170 248H753V285H170V248Z" fill="white"/>
<path d="M753 283H170V287H753V283Z" fill="#F4F4F4" mask="url(#path-8-inside-4_621_151)"/>
<line x1="295.5" y1="137" x2="295.5" y2="285" stroke="#F4F4F4"/>
<line x1="544.5" y1="138" x2="544.5" y2="286" stroke="#F4F4F4"/>
<path d="M208.836 149.367V151.611H211.476V152.634H208.836V154.977H211.806V156H207.582V148.344H211.806V149.367H208.836ZM221.402 148.355V156H220.148V150.764L217.816 156H216.947L214.604 150.764V156H213.35V148.355H214.703L217.387 154.35L220.06 148.355H221.402ZM228.397 150.632C228.397 151.021 228.305 151.387 228.122 151.732C227.938 152.077 227.645 152.359 227.242 152.579C226.838 152.792 226.321 152.898 225.691 152.898H224.305V156H223.051V148.355H225.691C226.277 148.355 226.772 148.458 227.176 148.663C227.586 148.861 227.891 149.132 228.089 149.477C228.294 149.822 228.397 150.207 228.397 150.632ZM225.691 151.875C226.167 151.875 226.523 151.769 226.758 151.556C226.992 151.336 227.11 151.028 227.11 150.632C227.11 149.796 226.637 149.378 225.691 149.378H224.305V151.875H225.691ZM236.292 156.44V157.606H230.154V156.44H236.292ZM239.623 148.355V156H238.369V148.355H239.623ZM243.766 148.355C244.58 148.355 245.292 148.513 245.9 148.828C246.516 149.136 246.989 149.583 247.319 150.17C247.657 150.749 247.825 151.428 247.825 152.205C247.825 152.982 247.657 153.657 247.319 154.229C246.989 154.801 246.516 155.241 245.9 155.549C245.292 155.85 244.58 156 243.766 156H241.269V148.355H243.766ZM243.766 154.977C244.661 154.977 245.347 154.735 245.823 154.251C246.3 153.767 246.538 153.085 246.538 152.205C246.538 151.318 246.3 150.625 245.823 150.126C245.347 149.627 244.661 149.378 243.766 149.378H242.523V154.977H243.766Z" fill="#0556F3"/>
<path d="M350.894 149.367V151.611H353.534V152.634H350.894V154.977H353.864V156H349.64V148.344H353.864V149.367H350.894ZM361.689 156H360.435L356.662 150.291V156H355.408V148.344H356.662L360.435 154.042V148.344H361.689V156ZM362.918 152.942C362.918 152.333 363.043 151.794 363.292 151.325C363.549 150.856 363.894 150.493 364.326 150.236C364.766 149.972 365.25 149.84 365.778 149.84C366.255 149.84 366.669 149.935 367.021 150.126C367.381 150.309 367.667 150.54 367.879 150.819V149.939H369.144V156H367.879V155.098C367.667 155.384 367.377 155.622 367.01 155.813C366.644 156.004 366.226 156.099 365.756 156.099C365.236 156.099 364.759 155.967 364.326 155.703C363.894 155.432 363.549 155.058 363.292 154.581C363.043 154.097 362.918 153.551 362.918 152.942ZM367.879 152.964C367.879 152.546 367.791 152.183 367.615 151.875C367.447 151.567 367.223 151.332 366.944 151.171C366.666 151.01 366.365 150.929 366.042 150.929C365.72 150.929 365.419 151.01 365.14 151.171C364.862 151.325 364.634 151.556 364.458 151.864C364.29 152.165 364.205 152.524 364.205 152.942C364.205 153.36 364.29 153.727 364.458 154.042C364.634 154.357 364.862 154.599 365.14 154.768C365.426 154.929 365.727 155.01 366.042 155.01C366.365 155.01 366.666 154.929 366.944 154.768C367.223 154.607 367.447 154.372 367.615 154.064C367.791 153.749 367.879 153.382 367.879 152.964ZM378.128 149.84C378.605 149.84 379.03 149.939 379.404 150.137C379.786 150.335 380.083 150.628 380.295 151.017C380.515 151.406 380.625 151.875 380.625 152.425V156H379.382V152.612C379.382 152.069 379.247 151.655 378.975 151.369C378.704 151.076 378.334 150.929 377.864 150.929C377.395 150.929 377.021 151.076 376.742 151.369C376.471 151.655 376.335 152.069 376.335 152.612V156H375.092V152.612C375.092 152.069 374.957 151.655 374.685 151.369C374.414 151.076 374.044 150.929 373.574 150.929C373.105 150.929 372.731 151.076 372.452 151.369C372.181 151.655 372.045 152.069 372.045 152.612V156H370.791V149.939H372.045V150.632C372.251 150.383 372.511 150.188 372.826 150.049C373.142 149.91 373.479 149.84 373.838 149.84C374.322 149.84 374.755 149.943 375.136 150.148C375.518 150.353 375.811 150.65 376.016 151.039C376.2 150.672 376.486 150.383 376.874 150.17C377.263 149.95 377.681 149.84 378.128 149.84ZM387.776 152.821C387.776 153.048 387.761 153.254 387.732 153.437H383.101C383.138 153.921 383.317 154.31 383.64 154.603C383.963 154.896 384.359 155.043 384.828 155.043C385.503 155.043 385.979 154.761 386.258 154.196H387.611C387.428 154.753 387.094 155.212 386.61 155.571C386.133 155.923 385.539 156.099 384.828 156.099C384.249 156.099 383.728 155.971 383.266 155.714C382.811 155.45 382.452 155.083 382.188 154.614C381.931 154.137 381.803 153.587 381.803 152.964C381.803 152.341 381.928 151.794 382.177 151.325C382.434 150.848 382.789 150.482 383.244 150.225C383.706 149.968 384.234 149.84 384.828 149.84C385.4 149.84 385.91 149.965 386.357 150.214C386.804 150.463 387.153 150.815 387.402 151.27C387.651 151.717 387.776 152.234 387.776 152.821ZM386.467 152.425C386.46 151.963 386.295 151.593 385.972 151.314C385.649 151.035 385.25 150.896 384.773 150.896C384.34 150.896 383.97 151.035 383.662 151.314C383.354 151.585 383.171 151.956 383.112 152.425H386.467Z" fill="black"/>
<path d="M581.307 156.077C580.794 156.077 580.332 155.989 579.921 155.813C579.511 155.63 579.188 155.373 578.953 155.043C578.719 154.713 578.601 154.328 578.601 153.888H579.943C579.973 154.218 580.101 154.489 580.328 154.702C580.563 154.915 580.889 155.021 581.307 155.021C581.74 155.021 582.077 154.918 582.319 154.713C582.561 154.5 582.682 154.229 582.682 153.899C582.682 153.642 582.605 153.433 582.451 153.272C582.305 153.111 582.118 152.986 581.89 152.898C581.67 152.81 581.362 152.715 580.966 152.612C580.468 152.48 580.061 152.348 579.745 152.216C579.437 152.077 579.173 151.864 578.953 151.578C578.733 151.292 578.623 150.911 578.623 150.434C578.623 149.994 578.733 149.609 578.953 149.279C579.173 148.949 579.481 148.696 579.877 148.52C580.273 148.344 580.732 148.256 581.252 148.256C581.993 148.256 582.598 148.443 583.067 148.817C583.544 149.184 583.808 149.69 583.859 150.335H582.473C582.451 150.056 582.319 149.818 582.077 149.62C581.835 149.422 581.516 149.323 581.12 149.323C580.761 149.323 580.468 149.415 580.24 149.598C580.013 149.781 579.899 150.045 579.899 150.39C579.899 150.625 579.969 150.819 580.108 150.973C580.255 151.12 580.438 151.237 580.658 151.325C580.878 151.413 581.179 151.508 581.56 151.611C582.066 151.75 582.477 151.89 582.792 152.029C583.115 152.168 583.386 152.385 583.606 152.678C583.834 152.964 583.947 153.349 583.947 153.833C583.947 154.222 583.841 154.588 583.628 154.933C583.423 155.278 583.119 155.556 582.715 155.769C582.319 155.974 581.85 156.077 581.307 156.077ZM585.009 152.942C585.009 152.333 585.134 151.794 585.383 151.325C585.64 150.856 585.984 150.493 586.417 150.236C586.857 149.972 587.341 149.84 587.869 149.84C588.346 149.84 588.76 149.935 589.112 150.126C589.471 150.309 589.757 150.54 589.97 150.819V149.939H591.235V156H589.97V155.098C589.757 155.384 589.468 155.622 589.101 155.813C588.734 156.004 588.316 156.099 587.847 156.099C587.326 156.099 586.85 155.967 586.417 155.703C585.984 155.432 585.64 155.058 585.383 154.581C585.134 154.097 585.009 153.551 585.009 152.942ZM589.97 152.964C589.97 152.546 589.882 152.183 589.706 151.875C589.537 151.567 589.314 151.332 589.035 151.171C588.756 151.01 588.456 150.929 588.133 150.929C587.81 150.929 587.51 151.01 587.231 151.171C586.952 151.325 586.725 151.556 586.549 151.864C586.38 152.165 586.296 152.524 586.296 152.942C586.296 153.36 586.38 153.727 586.549 154.042C586.725 154.357 586.952 154.599 587.231 154.768C587.517 154.929 587.818 155.01 588.133 155.01C588.456 155.01 588.756 154.929 589.035 154.768C589.314 154.607 589.537 154.372 589.706 154.064C589.882 153.749 589.97 153.382 589.97 152.964ZM594.136 147.86V156H592.882V147.86H594.136ZM595.365 152.942C595.365 152.333 595.489 151.794 595.739 151.325C595.995 150.856 596.34 150.493 596.773 150.236C597.213 149.972 597.697 149.84 598.225 149.84C598.701 149.84 599.116 149.935 599.468 150.126C599.827 150.309 600.113 150.54 600.326 150.819V149.939H601.591V156H600.326V155.098C600.113 155.384 599.823 155.622 599.457 155.813C599.09 156.004 598.672 156.099 598.203 156.099C597.682 156.099 597.205 155.967 596.773 155.703C596.34 155.432 595.995 155.058 595.739 154.581C595.489 154.097 595.365 153.551 595.365 152.942ZM600.326 152.964C600.326 152.546 600.238 152.183 600.062 151.875C599.893 151.567 599.669 151.332 599.391 151.171C599.112 151.01 598.811 150.929 598.489 150.929C598.166 150.929 597.865 151.01 597.587 151.171C597.308 151.325 597.081 151.556 596.905 151.864C596.736 152.165 596.652 152.524 596.652 152.942C596.652 153.36 596.736 153.727 596.905 154.042C597.081 154.357 597.308 154.599 597.587 154.768C597.873 154.929 598.173 155.01 598.489 155.01C598.811 155.01 599.112 154.929 599.391 154.768C599.669 154.607 599.893 154.372 600.062 154.064C600.238 153.749 600.326 153.382 600.326 152.964ZM604.492 150.819C604.675 150.511 604.917 150.273 605.218 150.104C605.526 149.928 605.889 149.84 606.307 149.84V151.138H605.988C605.496 151.138 605.122 151.263 604.866 151.512C604.616 151.761 604.492 152.194 604.492 152.81V156H603.238V149.939H604.492V150.819ZM612.915 149.939L609.197 158.849H607.899L609.131 155.901L606.744 149.939H608.141L609.846 154.559L611.617 149.939H612.915Z" fill="black"/>
<path d="M225.018 187.524V190.32H228.066V191.22H225.018V194.1H228.426V195H223.926V186.624H228.426V187.524H225.018ZM229.61 187.32V186.324H231.866V195H230.762V187.32H229.61Z" fill="black"/>
<path d="M223.489 224.524V227.32H226.537V228.22H223.489V231.1H226.897V232H222.397V223.624H226.897V224.524H223.489ZM228.237 231.124C229.253 230.308 230.049 229.64 230.625 229.12C231.201 228.592 231.685 228.044 232.077 227.476C232.477 226.9 232.677 226.336 232.677 225.784C232.677 225.264 232.549 224.856 232.293 224.56C232.045 224.256 231.641 224.104 231.081 224.104C230.537 224.104 230.113 224.276 229.809 224.62C229.513 224.956 229.353 225.408 229.329 225.976H228.273C228.305 225.08 228.577 224.388 229.089 223.9C229.601 223.412 230.261 223.168 231.069 223.168C231.893 223.168 232.545 223.396 233.025 223.852C233.513 224.308 233.757 224.936 233.757 225.736C233.757 226.4 233.557 227.048 233.157 227.68C232.765 228.304 232.317 228.856 231.813 229.336C231.309 229.808 230.665 230.36 229.881 230.992H234.009V231.904H228.237V231.124Z" fill="black"/>
<path d="M223.407 262.524V265.32H226.455V266.22H223.407V269.1H226.815V270H222.315V261.624H226.815V262.524H223.407ZM228.263 263.508C228.319 262.772 228.603 262.196 229.115 261.78C229.627 261.364 230.291 261.156 231.107 261.156C231.651 261.156 232.119 261.256 232.511 261.456C232.911 261.648 233.211 261.912 233.411 262.248C233.619 262.584 233.723 262.964 233.723 263.388C233.723 263.884 233.579 264.312 233.291 264.672C233.011 265.032 232.643 265.264 232.187 265.368V265.428C232.707 265.556 233.119 265.808 233.423 266.184C233.727 266.56 233.879 267.052 233.879 267.66C233.879 268.116 233.775 268.528 233.567 268.896C233.359 269.256 233.047 269.54 232.631 269.748C232.215 269.956 231.715 270.06 231.131 270.06C230.283 270.06 229.587 269.84 229.043 269.4C228.499 268.952 228.195 268.32 228.131 267.504H229.187C229.243 267.984 229.439 268.376 229.775 268.68C230.111 268.984 230.559 269.136 231.119 269.136C231.679 269.136 232.103 268.992 232.391 268.704C232.687 268.408 232.835 268.028 232.835 267.564C232.835 266.964 232.635 266.532 232.235 266.268C231.835 266.004 231.231 265.872 230.423 265.872H230.147V264.96H230.435C231.171 264.952 231.727 264.832 232.103 264.6C232.479 264.36 232.667 263.992 232.667 263.496C232.667 263.072 232.527 262.732 232.247 262.476C231.975 262.22 231.583 262.092 231.071 262.092C230.575 262.092 230.175 262.22 229.871 262.476C229.567 262.732 229.387 263.076 229.331 263.508H228.263Z" fill="black"/>
<path d="M341.887 196L339.895 192.58H338.575V196H337.483V187.636H340.183C340.815 187.636 341.347 187.744 341.779 187.96C342.219 188.176 342.547 188.468 342.763 188.836C342.979 189.204 343.087 189.624 343.087 190.096C343.087 190.672 342.919 191.18 342.583 191.62C342.255 192.06 341.759 192.352 341.095 192.496L343.195 196H341.887ZM338.575 191.704H340.183C340.775 191.704 341.219 191.56 341.515 191.272C341.811 190.976 341.959 190.584 341.959 190.096C341.959 189.6 341.811 189.216 341.515 188.944C341.227 188.672 340.783 188.536 340.183 188.536H338.575V191.704ZM344.375 192.688C344.375 192.016 344.511 191.428 344.783 190.924C345.055 190.412 345.427 190.016 345.899 189.736C346.379 189.456 346.911 189.316 347.495 189.316C348.071 189.316 348.571 189.44 348.995 189.688C349.419 189.936 349.735 190.248 349.943 190.624V189.424H351.047V196H349.943V194.776C349.727 195.16 349.403 195.48 348.971 195.736C348.547 195.984 348.051 196.108 347.483 196.108C346.899 196.108 346.371 195.964 345.899 195.676C345.427 195.388 345.055 194.984 344.783 194.464C344.511 193.944 344.375 193.352 344.375 192.688ZM349.943 192.7C349.943 192.204 349.843 191.772 349.643 191.404C349.443 191.036 349.171 190.756 348.827 190.564C348.491 190.364 348.119 190.264 347.711 190.264C347.303 190.264 346.931 190.36 346.595 190.552C346.259 190.744 345.991 191.024 345.791 191.392C345.591 191.76 345.491 192.192 345.491 192.688C345.491 193.192 345.591 193.632 345.791 194.008C345.991 194.376 346.259 194.66 346.595 194.86C346.931 195.052 347.303 195.148 347.711 195.148C348.119 195.148 348.491 195.052 348.827 194.86C349.171 194.66 349.443 194.376 349.643 194.008C349.843 193.632 349.943 193.196 349.943 192.7ZM356.097 189.304C356.897 189.304 357.545 189.548 358.041 190.036C358.537 190.516 358.785 191.212 358.785 192.124V196H357.705V192.28C357.705 191.624 357.541 191.124 357.213 190.78C356.885 190.428 356.437 190.252 355.869 190.252C355.293 190.252 354.833 190.432 354.489 190.792C354.153 191.152 353.985 191.676 353.985 192.364V196H352.893V189.424H353.985V190.36C354.201 190.024 354.493 189.764 354.861 189.58C355.237 189.396 355.649 189.304 356.097 189.304ZM364.241 196L361.661 193.096V196H360.569V187.12H361.661V192.34L364.193 189.424H365.717L362.621 192.7L365.729 196H364.241ZM372.576 189.424V196H371.484V195.028C371.276 195.364 370.984 195.628 370.608 195.82C370.24 196.004 369.832 196.096 369.384 196.096C368.872 196.096 368.412 195.992 368.004 195.784C367.596 195.568 367.272 195.248 367.032 194.824C366.8 194.4 366.684 193.884 366.684 193.276V189.424H367.764V193.132C367.764 193.78 367.928 194.28 368.256 194.632C368.584 194.976 369.032 195.148 369.6 195.148C370.184 195.148 370.644 194.968 370.98 194.608C371.316 194.248 371.484 193.724 371.484 193.036V189.424H372.576ZM376.748 196.108C376.244 196.108 375.792 196.024 375.392 195.856C374.992 195.68 374.676 195.44 374.444 195.136C374.212 194.824 374.084 194.468 374.06 194.068H375.188C375.22 194.396 375.372 194.664 375.644 194.872C375.924 195.08 376.288 195.184 376.736 195.184C377.152 195.184 377.48 195.092 377.72 194.908C377.96 194.724 378.08 194.492 378.08 194.212C378.08 193.924 377.952 193.712 377.696 193.576C377.44 193.432 377.044 193.292 376.508 193.156C376.02 193.028 375.62 192.9 375.308 192.772C375.004 192.636 374.74 192.44 374.516 192.184C374.3 191.92 374.192 191.576 374.192 191.152C374.192 190.816 374.292 190.508 374.492 190.228C374.692 189.948 374.976 189.728 375.344 189.568C375.712 189.4 376.132 189.316 376.604 189.316C377.332 189.316 377.92 189.5 378.368 189.868C378.816 190.236 379.056 190.74 379.088 191.38H377.996C377.972 191.036 377.832 190.76 377.576 190.552C377.328 190.344 376.992 190.24 376.568 190.24C376.176 190.24 375.864 190.324 375.632 190.492C375.4 190.66 375.284 190.88 375.284 191.152C375.284 191.368 375.352 191.548 375.488 191.692C375.632 191.828 375.808 191.94 376.016 192.028C376.232 192.108 376.528 192.2 376.904 192.304C377.376 192.432 377.76 192.56 378.056 192.688C378.352 192.808 378.604 192.992 378.812 193.24C379.028 193.488 379.14 193.812 379.148 194.212C379.148 194.572 379.048 194.896 378.848 195.184C378.648 195.472 378.364 195.7 377.996 195.868C377.636 196.028 377.22 196.108 376.748 196.108ZM383.954 189.304C384.45 189.304 384.898 189.412 385.298 189.628C385.698 189.836 386.01 190.152 386.234 190.576C386.466 191 386.582 191.516 386.582 192.124V196H385.502V192.28C385.502 191.624 385.338 191.124 385.01 190.78C384.682 190.428 384.234 190.252 383.666 190.252C383.09 190.252 382.63 190.432 382.286 190.792C381.95 191.152 381.782 191.676 381.782 192.364V196H380.69V187.12H381.782V190.36C381.998 190.024 382.294 189.764 382.67 189.58C383.054 189.396 383.482 189.304 383.954 189.304Z" fill="black"/>
<path d="M579.323 194.124C580.339 193.308 581.135 192.64 581.711 192.12C582.287 191.592 582.771 191.044 583.163 190.476C583.563 189.9 583.763 189.336 583.763 188.784C583.763 188.264 583.635 187.856 583.379 187.56C583.131 187.256 582.727 187.104 582.167 187.104C581.623 187.104 581.199 187.276 580.895 187.62C580.599 187.956 580.439 188.408 580.415 188.976H579.359C579.391 188.08 579.663 187.388 580.175 186.9C580.687 186.412 581.347 186.168 582.155 186.168C582.979 186.168 583.631 186.396 584.111 186.852C584.599 187.308 584.843 187.936 584.843 188.736C584.843 189.4 584.643 190.048 584.243 190.68C583.851 191.304 583.403 191.856 582.899 192.336C582.395 192.808 581.751 193.36 580.967 193.992H585.095V194.904H579.323V194.124ZM586.357 190.572C586.357 189.196 586.581 188.124 587.029 187.356C587.477 186.58 588.261 186.192 589.381 186.192C590.493 186.192 591.273 186.58 591.721 187.356C592.169 188.124 592.393 189.196 592.393 190.572C592.393 191.972 592.169 193.06 591.721 193.836C591.273 194.612 590.493 195 589.381 195C588.261 195 587.477 194.612 587.029 193.836C586.581 193.06 586.357 191.972 586.357 190.572ZM591.313 190.572C591.313 189.876 591.265 189.288 591.169 188.808C591.081 188.32 590.893 187.928 590.605 187.632C590.325 187.336 589.917 187.188 589.381 187.188C588.837 187.188 588.421 187.336 588.133 187.632C587.853 187.928 587.665 188.32 587.569 188.808C587.481 189.288 587.437 189.876 587.437 190.572C587.437 191.292 587.481 191.896 587.569 192.384C587.665 192.872 587.853 193.264 588.133 193.56C588.421 193.856 588.837 194.004 589.381 194.004C589.917 194.004 590.325 193.856 590.605 193.56C590.893 193.264 591.081 192.872 591.169 192.384C591.265 191.896 591.313 191.292 591.313 190.572ZM593.892 190.572C593.892 189.196 594.116 188.124 594.564 187.356C595.012 186.58 595.796 186.192 596.916 186.192C598.028 186.192 598.808 186.58 599.256 187.356C599.704 188.124 599.928 189.196 599.928 190.572C599.928 191.972 599.704 193.06 599.256 193.836C598.808 194.612 598.028 195 596.916 195C595.796 195 595.012 194.612 594.564 193.836C594.116 193.06 593.892 191.972 593.892 190.572ZM598.848 190.572C598.848 189.876 598.8 189.288 598.704 188.808C598.616 188.32 598.428 187.928 598.14 187.632C597.86 187.336 597.452 187.188 596.916 187.188C596.372 187.188 595.956 187.336 595.668 187.632C595.388 187.928 595.2 188.32 595.104 188.808C595.016 189.288 594.972 189.876 594.972 190.572C594.972 191.292 595.016 191.896 595.104 192.384C595.2 192.872 595.388 193.264 595.668 193.56C595.956 193.856 596.372 194.004 596.916 194.004C597.452 194.004 597.86 193.856 598.14 193.56C598.428 193.264 598.616 192.872 598.704 192.384C598.8 191.896 598.848 191.292 598.848 190.572ZM601.428 190.572C601.428 189.196 601.652 188.124 602.1 187.356C602.548 186.58 603.332 186.192 604.452 186.192C605.564 186.192 606.344 186.58 606.792 187.356C607.24 188.124 607.464 189.196 607.464 190.572C607.464 191.972 607.24 193.06 606.792 193.836C606.344 194.612 605.564 195 604.452 195C603.332 195 602.548 194.612 602.1 193.836C601.652 193.06 601.428 191.972 601.428 190.572ZM606.384 190.572C606.384 189.876 606.336 189.288 606.24 188.808C606.152 188.32 605.964 187.928 605.676 187.632C605.396 187.336 604.988 187.188 604.452 187.188C603.908 187.188 603.492 187.336 603.204 187.632C602.924 187.928 602.736 188.32 602.64 188.808C602.552 189.288 602.508 189.876 602.508 190.572C602.508 191.292 602.552 191.896 602.64 192.384C602.736 192.872 602.924 193.264 603.204 193.56C603.492 193.856 603.908 194.004 604.452 194.004C604.988 194.004 605.396 193.856 605.676 193.56C605.964 193.264 606.152 192.872 606.24 192.384C606.336 191.896 606.384 191.292 606.384 190.572ZM608.963 190.572C608.963 189.196 609.187 188.124 609.635 187.356C610.083 186.58 610.867 186.192 611.987 186.192C613.099 186.192 613.879 186.58 614.327 187.356C614.775 188.124 614.999 189.196 614.999 190.572C614.999 191.972 614.775 193.06 614.327 193.836C613.879 194.612 613.099 195 611.987 195C610.867 195 610.083 194.612 609.635 193.836C609.187 193.06 608.963 191.972 608.963 190.572ZM613.919 190.572C613.919 189.876 613.871 189.288 613.775 188.808C613.687 188.32 613.499 187.928 613.211 187.632C612.931 187.336 612.523 187.188 611.987 187.188C611.443 187.188 611.027 187.336 610.739 187.632C610.459 187.928 610.271 188.32 610.175 188.808C610.087 189.288 610.043 189.876 610.043 190.572C610.043 191.292 610.087 191.896 610.175 192.384C610.271 192.872 610.459 193.264 610.739 193.56C611.027 193.856 611.443 194.004 611.987 194.004C612.523 194.004 612.931 193.856 613.211 193.56C613.499 193.264 613.687 192.872 613.775 192.384C613.871 191.896 613.919 191.292 613.919 190.572ZM616.498 190.572C616.498 189.196 616.722 188.124 617.17 187.356C617.618 186.58 618.402 186.192 619.522 186.192C620.634 186.192 621.414 186.58 621.862 187.356C622.31 188.124 622.534 189.196 622.534 190.572C622.534 191.972 622.31 193.06 621.862 193.836C621.414 194.612 620.634 195 619.522 195C618.402 195 617.618 194.612 617.17 193.836C616.722 193.06 616.498 191.972 616.498 190.572ZM621.454 190.572C621.454 189.876 621.406 189.288 621.31 188.808C621.222 188.32 621.034 187.928 620.746 187.632C620.466 187.336 620.058 187.188 619.522 187.188C618.978 187.188 618.562 187.336 618.274 187.632C617.994 187.928 617.806 188.32 617.71 188.808C617.622 189.288 617.578 189.876 617.578 190.572C617.578 191.292 617.622 191.896 617.71 192.384C617.806 192.872 617.994 193.264 618.274 193.56C618.562 193.856 618.978 194.004 619.522 194.004C620.058 194.004 620.466 193.856 620.746 193.56C621.034 193.264 621.222 192.872 621.31 192.384C621.406 191.896 621.454 191.292 621.454 190.572Z" fill="black"/>
<path d="M580.903 225.272H576.691V228.008C576.875 227.752 577.147 227.544 577.507 227.384C577.867 227.216 578.255 227.132 578.671 227.132C579.335 227.132 579.875 227.272 580.291 227.552C580.707 227.824 581.003 228.18 581.179 228.62C581.363 229.052 581.455 229.512 581.455 230C581.455 230.576 581.347 231.092 581.131 231.548C580.915 232.004 580.583 232.364 580.135 232.628C579.695 232.892 579.147 233.024 578.491 233.024C577.651 233.024 576.971 232.808 576.451 232.376C575.931 231.944 575.615 231.368 575.503 230.648H576.571C576.675 231.104 576.895 231.46 577.231 231.716C577.567 231.972 577.991 232.1 578.503 232.1C579.135 232.1 579.611 231.912 579.931 231.536C580.251 231.152 580.411 230.648 580.411 230.024C580.411 229.4 580.251 228.92 579.931 228.584C579.611 228.24 579.139 228.068 578.515 228.068C578.091 228.068 577.719 228.172 577.399 228.38C577.087 228.58 576.859 228.856 576.715 229.208H575.683V224.312H580.903V225.272ZM582.906 228.572C582.906 227.196 583.13 226.124 583.578 225.356C584.026 224.58 584.81 224.192 585.93 224.192C587.042 224.192 587.822 224.58 588.27 225.356C588.718 226.124 588.942 227.196 588.942 228.572C588.942 229.972 588.718 231.06 588.27 231.836C587.822 232.612 587.042 233 585.93 233C584.81 233 584.026 232.612 583.578 231.836C583.13 231.06 582.906 229.972 582.906 228.572ZM587.862 228.572C587.862 227.876 587.814 227.288 587.718 226.808C587.63 226.32 587.442 225.928 587.154 225.632C586.874 225.336 586.466 225.188 585.93 225.188C585.386 225.188 584.97 225.336 584.682 225.632C584.402 225.928 584.214 226.32 584.118 226.808C584.03 227.288 583.986 227.876 583.986 228.572C583.986 229.292 584.03 229.896 584.118 230.384C584.214 230.872 584.402 231.264 584.682 231.56C584.97 231.856 585.386 232.004 585.93 232.004C586.466 232.004 586.874 231.856 587.154 231.56C587.442 231.264 587.63 230.872 587.718 230.384C587.814 229.896 587.862 229.292 587.862 228.572ZM590.441 228.572C590.441 227.196 590.665 226.124 591.113 225.356C591.561 224.58 592.345 224.192 593.465 224.192C594.577 224.192 595.357 224.58 595.805 225.356C596.253 226.124 596.477 227.196 596.477 228.572C596.477 229.972 596.253 231.06 595.805 231.836C595.357 232.612 594.577 233 593.465 233C592.345 233 591.561 232.612 591.113 231.836C590.665 231.06 590.441 229.972 590.441 228.572ZM595.397 228.572C595.397 227.876 595.349 227.288 595.253 226.808C595.165 226.32 594.977 225.928 594.689 225.632C594.409 225.336 594.001 225.188 593.465 225.188C592.921 225.188 592.505 225.336 592.217 225.632C591.937 225.928 591.749 226.32 591.653 226.808C591.565 227.288 591.521 227.876 591.521 228.572C591.521 229.292 591.565 229.896 591.653 230.384C591.749 230.872 591.937 231.264 592.217 231.56C592.505 231.856 592.921 232.004 593.465 232.004C594.001 232.004 594.409 231.856 594.689 231.56C594.977 231.264 595.165 230.872 595.253 230.384C595.349 229.896 595.397 229.292 595.397 228.572ZM597.976 228.572C597.976 227.196 598.2 226.124 598.648 225.356C599.096 224.58 599.88 224.192 601 224.192C602.112 224.192 602.892 224.58 603.34 225.356C603.788 226.124 604.012 227.196 604.012 228.572C604.012 229.972 603.788 231.06 603.34 231.836C602.892 232.612 602.112 233 601 233C599.88 233 599.096 232.612 598.648 231.836C598.2 231.06 597.976 229.972 597.976 228.572ZM602.932 228.572C602.932 227.876 602.884 227.288 602.788 226.808C602.7 226.32 602.512 225.928 602.224 225.632C601.944 225.336 601.536 225.188 601 225.188C600.456 225.188 600.04 225.336 599.752 225.632C599.472 225.928 599.284 226.32 599.188 226.808C599.1 227.288 599.056 227.876 599.056 228.572C599.056 229.292 599.1 229.896 599.188 230.384C599.284 230.872 599.472 231.264 599.752 231.56C600.04 231.856 600.456 232.004 601 232.004C601.536 232.004 601.944 231.856 602.224 231.56C602.512 231.264 602.7 230.872 602.788 230.384C602.884 229.896 602.932 229.292 602.932 228.572ZM605.512 228.572C605.512 227.196 605.736 226.124 606.184 225.356C606.632 224.58 607.416 224.192 608.536 224.192C609.648 224.192 610.428 224.58 610.876 225.356C611.324 226.124 611.548 227.196 611.548 228.572C611.548 229.972 611.324 231.06 610.876 231.836C610.428 232.612 609.648 233 608.536 233C607.416 233 606.632 232.612 606.184 231.836C605.736 231.06 605.512 229.972 605.512 228.572ZM610.468 228.572C610.468 227.876 610.42 227.288 610.324 226.808C610.236 226.32 610.048 225.928 609.76 225.632C609.48 225.336 609.072 225.188 608.536 225.188C607.992 225.188 607.576 225.336 607.288 225.632C607.008 225.928 606.82 226.32 606.724 226.808C606.636 227.288 606.592 227.876 606.592 228.572C606.592 229.292 606.636 229.896 606.724 230.384C606.82 230.872 607.008 231.264 607.288 231.56C607.576 231.856 607.992 232.004 608.536 232.004C609.072 232.004 609.48 231.856 609.76 231.56C610.048 231.264 610.236 230.872 610.324 230.384C610.42 229.896 610.468 229.292 610.468 228.572ZM613.047 228.572C613.047 227.196 613.271 226.124 613.719 225.356C614.167 224.58 614.951 224.192 616.071 224.192C617.183 224.192 617.963 224.58 618.411 225.356C618.859 226.124 619.083 227.196 619.083 228.572C619.083 229.972 618.859 231.06 618.411 231.836C617.963 232.612 617.183 233 616.071 233C614.951 233 614.167 232.612 613.719 231.836C613.271 231.06 613.047 229.972 613.047 228.572ZM618.003 228.572C618.003 227.876 617.955 227.288 617.859 226.808C617.771 226.32 617.583 225.928 617.295 225.632C617.015 225.336 616.607 225.188 616.071 225.188C615.527 225.188 615.111 225.336 614.823 225.632C614.543 225.928 614.355 226.32 614.259 226.808C614.171 227.288 614.127 227.876 614.127 228.572C614.127 229.292 614.171 229.896 614.259 230.384C614.355 230.872 614.543 231.264 614.823 231.56C615.111 231.856 615.527 232.004 616.071 232.004C616.607 232.004 617.015 231.856 617.295 231.56C617.583 231.264 617.771 230.872 617.859 230.384C617.955 229.896 618.003 229.292 618.003 228.572ZM620.582 228.572C620.582 227.196 620.806 226.124 621.254 225.356C621.702 224.58 622.486 224.192 623.606 224.192C624.718 224.192 625.498 224.58 625.946 225.356C626.394 226.124 626.618 227.196 626.618 228.572C626.618 229.972 626.394 231.06 625.946 231.836C625.498 232.612 624.718 233 623.606 233C622.486 233 621.702 232.612 621.254 231.836C620.806 231.06 620.582 229.972 620.582 228.572ZM625.538 228.572C625.538 227.876 625.49 227.288 625.394 226.808C625.306 226.32 625.118 225.928 624.83 225.632C624.55 225.336 624.142 225.188 623.606 225.188C623.062 225.188 622.646 225.336 622.358 225.632C622.078 225.928 621.89 226.32 621.794 226.808C621.706 227.288 621.662 227.876 621.662 228.572C621.662 229.292 621.706 229.896 621.794 230.384C621.89 230.872 622.078 231.264 622.358 231.56C622.646 231.856 623.062 232.004 623.606 232.004C624.142 232.004 624.55 231.856 624.83 231.56C625.118 231.264 625.306 230.872 625.394 230.384C625.49 229.896 625.538 229.292 625.538 228.572Z" fill="black"/>
<path d="M591.999 259.32V258.324H594.255V267H593.151V259.32H591.999ZM601.663 259.272H597.451V262.008C597.635 261.752 597.907 261.544 598.267 261.384C598.627 261.216 599.015 261.132 599.431 261.132C600.095 261.132 600.635 261.272 601.051 261.552C601.467 261.824 601.763 262.18 601.939 262.62C602.123 263.052 602.215 263.512 602.215 264C602.215 264.576 602.107 265.092 601.891 265.548C601.675 266.004 601.343 266.364 600.895 266.628C600.455 266.892 599.907 267.024 599.251 267.024C598.411 267.024 597.731 266.808 597.211 266.376C596.691 265.944 596.375 265.368 596.263 264.648H597.331C597.435 265.104 597.655 265.46 597.991 265.716C598.327 265.972 598.751 266.1 599.263 266.1C599.895 266.1 600.371 265.912 600.691 265.536C601.011 265.152 601.171 264.648 601.171 264.024C601.171 263.4 601.011 262.92 600.691 262.584C600.371 262.24 599.899 262.068 599.275 262.068C598.851 262.068 598.479 262.172 598.159 262.38C597.847 262.58 597.619 262.856 597.475 263.208H596.443V258.312H601.663V259.272ZM603.666 262.572C603.666 261.196 603.89 260.124 604.338 259.356C604.786 258.58 605.57 258.192 606.69 258.192C607.802 258.192 608.582 258.58 609.03 259.356C609.478 260.124 609.702 261.196 609.702 262.572C609.702 263.972 609.478 265.06 609.03 265.836C608.582 266.612 607.802 267 606.69 267C605.57 267 604.786 266.612 604.338 265.836C603.89 265.06 603.666 263.972 603.666 262.572ZM608.622 262.572C608.622 261.876 608.574 261.288 608.478 260.808C608.39 260.32 608.202 259.928 607.914 259.632C607.634 259.336 607.226 259.188 606.69 259.188C606.146 259.188 605.73 259.336 605.442 259.632C605.162 259.928 604.974 260.32 604.878 260.808C604.79 261.288 604.746 261.876 604.746 262.572C604.746 263.292 604.79 263.896 604.878 264.384C604.974 264.872 605.162 265.264 605.442 265.56C605.73 265.856 606.146 266.004 606.69 266.004C607.226 266.004 607.634 265.856 607.914 265.56C608.202 265.264 608.39 264.872 608.478 264.384C608.574 263.896 608.622 263.292 608.622 262.572Z" fill="black"/>
<path d="M353.031 223.636L349.875 232H348.615L345.459 223.636H346.623L349.251 230.848L351.879 223.636H353.031ZM354.793 224.356C354.585 224.356 354.409 224.284 354.265 224.14C354.121 223.996 354.049 223.82 354.049 223.612C354.049 223.404 354.121 223.228 354.265 223.084C354.409 222.94 354.585 222.868 354.793 222.868C354.993 222.868 355.161 222.94 355.297 223.084C355.441 223.228 355.513 223.404 355.513 223.612C355.513 223.82 355.441 223.996 355.297 224.14C355.161 224.284 354.993 224.356 354.793 224.356ZM355.321 225.424V232H354.229V225.424H355.321ZM360.386 225.304C361.186 225.304 361.834 225.548 362.33 226.036C362.826 226.516 363.074 227.212 363.074 228.124V232H361.994V228.28C361.994 227.624 361.83 227.124 361.502 226.78C361.174 226.428 360.726 226.252 360.158 226.252C359.582 226.252 359.122 226.432 358.778 226.792C358.442 227.152 358.274 227.676 358.274 228.364V232H357.182V225.424H358.274V226.36C358.49 226.024 358.782 225.764 359.15 225.58C359.526 225.396 359.938 225.304 360.386 225.304ZM364.45 228.688C364.45 228.016 364.586 227.428 364.858 226.924C365.13 226.412 365.502 226.016 365.974 225.736C366.454 225.456 366.986 225.316 367.57 225.316C368.146 225.316 368.646 225.44 369.07 225.688C369.494 225.936 369.81 226.248 370.018 226.624V225.424H371.122V232H370.018V230.776C369.802 231.16 369.478 231.48 369.046 231.736C368.622 231.984 368.126 232.108 367.558 232.108C366.974 232.108 366.446 231.964 365.974 231.676C365.502 231.388 365.13 230.984 364.858 230.464C364.586 229.944 364.45 229.352 364.45 228.688ZM370.018 228.7C370.018 228.204 369.918 227.772 369.718 227.404C369.518 227.036 369.246 226.756 368.902 226.564C368.566 226.364 368.194 226.264 367.786 226.264C367.378 226.264 367.006 226.36 366.67 226.552C366.334 226.744 366.066 227.024 365.866 227.392C365.666 227.76 365.566 228.192 365.566 228.688C365.566 229.192 365.666 229.632 365.866 230.008C366.066 230.376 366.334 230.66 366.67 230.86C367.006 231.052 367.378 231.148 367.786 231.148C368.194 231.148 368.566 231.052 368.902 230.86C369.246 230.66 369.518 230.376 369.718 230.008C369.918 229.632 370.018 229.196 370.018 228.7ZM378.631 225.424L374.671 235.096H373.543L374.839 231.928L372.187 225.424H373.399L375.463 230.752L377.503 225.424H378.631Z" fill="black"/>
<path d="M348.109 264L346.117 260.58H344.797V264H343.705V255.636H346.405C347.037 255.636 347.569 255.744 348.001 255.96C348.441 256.176 348.769 256.468 348.985 256.836C349.201 257.204 349.309 257.624 349.309 258.096C349.309 258.672 349.141 259.18 348.805 259.62C348.477 260.06 347.981 260.352 347.317 260.496L349.417 264H348.109ZM344.797 259.704H346.405C346.997 259.704 347.441 259.56 347.737 259.272C348.033 258.976 348.181 258.584 348.181 258.096C348.181 257.6 348.033 257.216 347.737 256.944C347.449 256.672 347.005 256.536 346.405 256.536H344.797V259.704ZM353.874 264.108C353.258 264.108 352.698 263.968 352.194 263.688C351.698 263.408 351.306 263.012 351.018 262.5C350.738 261.98 350.598 261.38 350.598 260.7C350.598 260.028 350.742 259.436 351.03 258.924C351.326 258.404 351.726 258.008 352.23 257.736C352.734 257.456 353.298 257.316 353.922 257.316C354.546 257.316 355.11 257.456 355.614 257.736C356.118 258.008 356.514 258.4 356.802 258.912C357.098 259.424 357.246 260.02 357.246 260.7C357.246 261.38 357.094 261.98 356.79 262.5C356.494 263.012 356.09 263.408 355.578 263.688C355.066 263.968 354.498 264.108 353.874 264.108ZM353.874 263.148C354.266 263.148 354.634 263.056 354.978 262.872C355.322 262.688 355.598 262.412 355.806 262.044C356.022 261.676 356.13 261.228 356.13 260.7C356.13 260.172 356.026 259.724 355.818 259.356C355.61 258.988 355.338 258.716 355.002 258.54C354.666 258.356 354.302 258.264 353.91 258.264C353.51 258.264 353.142 258.356 352.806 258.54C352.478 258.716 352.214 258.988 352.014 259.356C351.814 259.724 351.714 260.172 351.714 260.7C351.714 261.236 351.81 261.688 352.002 262.056C352.202 262.424 352.466 262.7 352.794 262.884C353.122 263.06 353.482 263.148 353.874 263.148ZM361.946 257.304C362.442 257.304 362.89 257.412 363.29 257.628C363.69 257.836 364.002 258.152 364.226 258.576C364.458 259 364.574 259.516 364.574 260.124V264H363.494V260.28C363.494 259.624 363.33 259.124 363.002 258.78C362.674 258.428 362.226 258.252 361.658 258.252C361.082 258.252 360.622 258.432 360.278 258.792C359.942 259.152 359.774 259.676 359.774 260.364V264H358.682V255.12H359.774V258.36C359.99 258.024 360.286 257.764 360.662 257.58C361.046 257.396 361.474 257.304 361.946 257.304ZM365.95 260.688C365.95 260.016 366.086 259.428 366.358 258.924C366.63 258.412 367.002 258.016 367.474 257.736C367.954 257.456 368.486 257.316 369.07 257.316C369.646 257.316 370.146 257.44 370.57 257.688C370.994 257.936 371.31 258.248 371.518 258.624V257.424H372.622V264H371.518V262.776C371.302 263.16 370.978 263.48 370.546 263.736C370.122 263.984 369.626 264.108 369.058 264.108C368.474 264.108 367.946 263.964 367.474 263.676C367.002 263.388 366.63 262.984 366.358 262.464C366.086 261.944 365.95 261.352 365.95 260.688ZM371.518 260.7C371.518 260.204 371.418 259.772 371.218 259.404C371.018 259.036 370.746 258.756 370.402 258.564C370.066 258.364 369.694 258.264 369.286 258.264C368.878 258.264 368.506 258.36 368.17 258.552C367.834 258.744 367.566 259.024 367.366 259.392C367.166 259.76 367.066 260.192 367.066 260.688C367.066 261.192 367.166 261.632 367.366 262.008C367.566 262.376 367.834 262.66 368.17 262.86C368.506 263.052 368.878 263.148 369.286 263.148C369.694 263.148 370.066 263.052 370.402 262.86C370.746 262.66 371.018 262.376 371.218 262.008C371.418 261.632 371.518 261.196 371.518 260.7ZM377.671 257.304C378.471 257.304 379.119 257.548 379.615 258.036C380.111 258.516 380.359 259.212 380.359 260.124V264H379.279V260.28C379.279 259.624 379.115 259.124 378.787 258.78C378.459 258.428 378.011 258.252 377.443 258.252C376.867 258.252 376.407 258.432 376.063 258.792C375.727 259.152 375.559 259.676 375.559 260.364V264H374.467V257.424H375.559V258.36C375.775 258.024 376.067 257.764 376.435 257.58C376.811 257.396 377.223 257.304 377.671 257.304Z" fill="black"/>
<rect x="236" y="65" width="252" height="29" rx="6" fill="#0556F3"/>
<path d="M271.307 78.812C271.307 77.996 271.495 77.264 271.871 76.616C272.255 75.968 272.771 75.464 273.419 75.104C274.075 74.736 274.791 74.552 275.567 74.552C276.455 74.552 277.243 74.772 277.931 75.212C278.627 75.644 279.131 76.26 279.443 77.06H277.799C277.583 76.62 277.283 76.292 276.899 76.076C276.515 75.86 276.071 75.752 275.567 75.752C275.015 75.752 274.523 75.876 274.091 76.124C273.659 76.372 273.319 76.728 273.071 77.192C272.831 77.656 272.711 78.196 272.711 78.812C272.711 79.428 272.831 79.968 273.071 80.432C273.319 80.896 273.659 81.256 274.091 81.512C274.523 81.76 275.015 81.884 275.567 81.884C276.071 81.884 276.515 81.776 276.899 81.56C277.283 81.344 277.583 81.016 277.799 80.576H279.443C279.131 81.376 278.627 81.992 277.931 82.424C277.243 82.856 276.455 83.072 275.567 83.072C274.783 83.072 274.067 82.892 273.419 82.532C272.771 82.164 272.255 81.656 271.871 81.008C271.495 80.36 271.307 79.628 271.307 78.812ZM283.913 83.108C283.289 83.108 282.725 82.968 282.221 82.688C281.717 82.4 281.321 82 281.033 81.488C280.745 80.968 280.601 80.368 280.601 79.688C280.601 79.016 280.749 78.42 281.045 77.9C281.341 77.38 281.745 76.98 282.257 76.7C282.769 76.42 283.341 76.28 283.973 76.28C284.605 76.28 285.177 76.42 285.689 76.7C286.201 76.98 286.605 77.38 286.901 77.9C287.197 78.42 287.345 79.016 287.345 79.688C287.345 80.36 287.193 80.956 286.889 81.476C286.585 81.996 286.169 82.4 285.641 82.688C285.121 82.968 284.545 83.108 283.913 83.108ZM283.913 81.92C284.265 81.92 284.593 81.836 284.897 81.668C285.209 81.5 285.461 81.248 285.653 80.912C285.845 80.576 285.941 80.168 285.941 79.688C285.941 79.208 285.849 78.804 285.665 78.476C285.481 78.14 285.237 77.888 284.933 77.72C284.629 77.552 284.301 77.468 283.949 77.468C283.597 77.468 283.269 77.552 282.965 77.72C282.669 77.888 282.433 78.14 282.257 78.476C282.081 78.804 281.993 79.208 281.993 79.688C281.993 80.4 282.173 80.952 282.533 81.344C282.901 81.728 283.361 81.92 283.913 81.92ZM290.065 74.12V83H288.697V74.12H290.065ZM297.849 76.388V83H296.481V82.22C296.265 82.492 295.981 82.708 295.629 82.868C295.285 83.02 294.917 83.096 294.525 83.096C294.005 83.096 293.537 82.988 293.121 82.772C292.713 82.556 292.389 82.236 292.149 81.812C291.917 81.388 291.801 80.876 291.801 80.276V76.388H293.157V80.072C293.157 80.664 293.305 81.12 293.601 81.44C293.897 81.752 294.301 81.908 294.813 81.908C295.325 81.908 295.729 81.752 296.025 81.44C296.329 81.12 296.481 80.664 296.481 80.072V76.388H297.849ZM307.658 76.28C308.178 76.28 308.642 76.388 309.05 76.604C309.466 76.82 309.79 77.14 310.022 77.564C310.262 77.988 310.382 78.5 310.382 79.1V83H309.026V79.304C309.026 78.712 308.878 78.26 308.582 77.948C308.286 77.628 307.882 77.468 307.37 77.468C306.858 77.468 306.45 77.628 306.146 77.948C305.85 78.26 305.702 78.712 305.702 79.304V83H304.346V79.304C304.346 78.712 304.198 78.26 303.902 77.948C303.606 77.628 303.202 77.468 302.69 77.468C302.178 77.468 301.77 77.628 301.466 77.948C301.17 78.26 301.022 78.712 301.022 79.304V83H299.654V76.388H301.022V77.144C301.246 76.872 301.53 76.66 301.874 76.508C302.218 76.356 302.586 76.28 302.978 76.28C303.506 76.28 303.978 76.392 304.394 76.616C304.81 76.84 305.13 77.164 305.354 77.588C305.554 77.188 305.866 76.872 306.29 76.64C306.714 76.4 307.17 76.28 307.658 76.28ZM315.459 76.28C315.979 76.28 316.443 76.388 316.851 76.604C317.267 76.82 317.591 77.14 317.823 77.564C318.055 77.988 318.171 78.5 318.171 79.1V83H316.815V79.304C316.815 78.712 316.667 78.26 316.371 77.948C316.075 77.628 315.671 77.468 315.159 77.468C314.647 77.468 314.239 77.628 313.935 77.948C313.639 78.26 313.491 78.712 313.491 79.304V83H312.123V76.388H313.491V77.144C313.715 76.872 313.999 76.66 314.343 76.508C314.695 76.356 315.067 76.28 315.459 76.28ZM322.316 83.108C321.796 83.108 321.328 83.016 320.912 82.832C320.504 82.64 320.18 82.384 319.94 82.064C319.7 81.736 319.572 81.372 319.556 80.972H320.972C320.996 81.252 321.128 81.488 321.368 81.68C321.616 81.864 321.924 81.956 322.292 81.956C322.676 81.956 322.972 81.884 323.18 81.74C323.396 81.588 323.504 81.396 323.504 81.164C323.504 80.916 323.384 80.732 323.144 80.612C322.912 80.492 322.54 80.36 322.028 80.216C321.532 80.08 321.128 79.948 320.816 79.82C320.504 79.692 320.232 79.496 320 79.232C319.776 78.968 319.664 78.62 319.664 78.188C319.664 77.836 319.768 77.516 319.976 77.228C320.184 76.932 320.48 76.7 320.864 76.532C321.256 76.364 321.704 76.28 322.208 76.28C322.96 76.28 323.564 76.472 324.02 76.856C324.484 77.232 324.732 77.748 324.764 78.404H323.396C323.372 78.108 323.252 77.872 323.036 77.696C322.82 77.52 322.528 77.432 322.16 77.432C321.8 77.432 321.524 77.5 321.332 77.636C321.14 77.772 321.044 77.952 321.044 78.176C321.044 78.352 321.108 78.5 321.236 78.62C321.364 78.74 321.52 78.836 321.704 78.908C321.888 78.972 322.16 79.056 322.52 79.16C323 79.288 323.392 79.42 323.696 79.556C324.008 79.684 324.276 79.876 324.5 80.132C324.724 80.388 324.84 80.728 324.848 81.152C324.848 81.528 324.744 81.864 324.536 82.16C324.328 82.456 324.032 82.688 323.648 82.856C323.272 83.024 322.828 83.108 322.316 83.108ZM332.311 83.108C331.687 83.108 331.123 82.968 330.619 82.688C330.115 82.4 329.719 82 329.431 81.488C329.143 80.968 328.999 80.368 328.999 79.688C328.999 79.016 329.147 78.42 329.443 77.9C329.739 77.38 330.143 76.98 330.655 76.7C331.167 76.42 331.739 76.28 332.371 76.28C333.003 76.28 333.575 76.42 334.087 76.7C334.599 76.98 335.003 77.38 335.299 77.9C335.595 78.42 335.743 79.016 335.743 79.688C335.743 80.36 335.591 80.956 335.287 81.476C334.983 81.996 334.567 82.4 334.039 82.688C333.519 82.968 332.943 83.108 332.311 83.108ZM332.311 81.92C332.663 81.92 332.991 81.836 333.295 81.668C333.607 81.5 333.859 81.248 334.051 80.912C334.243 80.576 334.339 80.168 334.339 79.688C334.339 79.208 334.247 78.804 334.063 78.476C333.879 78.14 333.635 77.888 333.331 77.72C333.027 77.552 332.699 77.468 332.347 77.468C331.995 77.468 331.667 77.552 331.363 77.72C331.067 77.888 330.831 78.14 330.655 78.476C330.479 78.804 330.391 79.208 330.391 79.688C330.391 80.4 330.571 80.952 330.931 81.344C331.299 81.728 331.759 81.92 332.311 81.92ZM338.463 77.348C338.663 77.012 338.927 76.752 339.255 76.568C339.591 76.376 339.987 76.28 340.443 76.28V77.696H340.095C339.559 77.696 339.151 77.832 338.871 78.104C338.599 78.376 338.463 78.848 338.463 79.52V83H337.095V76.388H338.463V77.348ZM349.726 74.66V75.776H346.186V78.236H348.946V79.352H346.186V83H344.818V74.66H349.726ZM351.69 75.512C351.442 75.512 351.234 75.428 351.066 75.26C350.898 75.092 350.814 74.884 350.814 74.636C350.814 74.388 350.898 74.18 351.066 74.012C351.234 73.844 351.442 73.76 351.69 73.76C351.93 73.76 352.134 73.844 352.302 74.012C352.47 74.18 352.554 74.388 352.554 74.636C352.554 74.884 352.47 75.092 352.302 75.26C352.134 75.428 351.93 75.512 351.69 75.512ZM352.362 76.388V83H350.994V76.388H352.362ZM360.218 79.532C360.218 79.78 360.202 80.004 360.17 80.204H355.118C355.158 80.732 355.354 81.156 355.706 81.476C356.058 81.796 356.49 81.956 357.002 81.956C357.738 81.956 358.258 81.648 358.562 81.032H360.038C359.838 81.64 359.474 82.14 358.946 82.532C358.426 82.916 357.778 83.108 357.002 83.108C356.37 83.108 355.802 82.968 355.298 82.688C354.802 82.4 354.41 82 354.122 81.488C353.842 80.968 353.702 80.368 353.702 79.688C353.702 79.008 353.838 78.412 354.11 77.9C354.39 77.38 354.778 76.98 355.274 76.7C355.778 76.42 356.354 76.28 357.002 76.28C357.626 76.28 358.182 76.416 358.67 76.688C359.158 76.96 359.538 77.344 359.81 77.84C360.082 78.328 360.218 78.892 360.218 79.532ZM358.79 79.1C358.782 78.596 358.602 78.192 358.25 77.888C357.898 77.584 357.462 77.432 356.942 77.432C356.47 77.432 356.066 77.584 355.73 77.888C355.394 78.184 355.194 78.588 355.13 79.1H358.79ZM362.932 74.12V83H361.564V74.12H362.932ZM364.272 79.664C364.272 79 364.408 78.412 364.68 77.9C364.96 77.388 365.336 76.992 365.808 76.712C366.288 76.424 366.82 76.28 367.404 76.28C367.836 76.28 368.26 76.376 368.676 76.568C369.1 76.752 369.436 77 369.684 77.312V74.12H371.064V83H369.684V82.004C369.46 82.324 369.148 82.588 368.748 82.796C368.356 83.004 367.904 83.108 367.392 83.108C366.816 83.108 366.288 82.964 365.808 82.676C365.336 82.38 364.96 81.972 364.68 81.452C364.408 80.924 364.272 80.328 364.272 79.664ZM369.684 79.688C369.684 79.232 369.588 78.836 369.396 78.5C369.212 78.164 368.968 77.908 368.664 77.732C368.36 77.556 368.032 77.468 367.68 77.468C367.328 77.468 367 77.556 366.696 77.732C366.392 77.9 366.144 78.152 365.952 78.488C365.768 78.816 365.676 79.208 365.676 79.664C365.676 80.12 365.768 80.52 365.952 80.864C366.144 81.208 366.392 81.472 366.696 81.656C367.008 81.832 367.336 81.92 367.68 81.92C368.032 81.92 368.36 81.832 368.664 81.656C368.968 81.48 369.212 81.224 369.396 80.888C369.588 80.544 369.684 80.144 369.684 79.688ZM375.261 83.108C374.741 83.108 374.273 83.016 373.857 82.832C373.449 82.64 373.125 82.384 372.885 82.064C372.645 81.736 372.517 81.372 372.501 80.972H373.917C373.941 81.252 374.073 81.488 374.313 81.68C374.561 81.864 374.869 81.956 375.237 81.956C375.621 81.956 375.917 81.884 376.125 81.74C376.341 81.588 376.449 81.396 376.449 81.164C376.449 80.916 376.329 80.732 376.089 80.612C375.857 80.492 375.485 80.36 374.973 80.216C374.477 80.08 374.073 79.948 373.761 79.82C373.449 79.692 373.177 79.496 372.945 79.232C372.721 78.968 372.609 78.62 372.609 78.188C372.609 77.836 372.713 77.516 372.921 77.228C373.129 76.932 373.425 76.7 373.809 76.532C374.201 76.364 374.649 76.28 375.153 76.28C375.905 76.28 376.509 76.472 376.965 76.856C377.429 77.232 377.677 77.748 377.709 78.404H376.341C376.317 78.108 376.197 77.872 375.981 77.696C375.765 77.52 375.473 77.432 375.105 77.432C374.745 77.432 374.469 77.5 374.277 77.636C374.085 77.772 373.989 77.952 373.989 78.176C373.989 78.352 374.053 78.5 374.181 78.62C374.309 78.74 374.465 78.836 374.649 78.908C374.833 78.972 375.105 79.056 375.465 79.16C375.945 79.288 376.337 79.42 376.641 79.556C376.953 79.684 377.221 79.876 377.445 80.132C377.669 80.388 377.785 80.728 377.793 81.152C377.793 81.528 377.689 81.864 377.481 82.16C377.273 82.456 376.977 82.688 376.593 82.856C376.217 83.024 375.773 83.108 375.261 83.108ZM385.256 83.108C384.632 83.108 384.068 82.968 383.564 82.688C383.06 82.4 382.664 82 382.376 81.488C382.088 80.968 381.944 80.368 381.944 79.688C381.944 79.016 382.092 78.42 382.388 77.9C382.684 77.38 383.088 76.98 383.6 76.7C384.112 76.42 384.684 76.28 385.316 76.28C385.948 76.28 386.52 76.42 387.032 76.7C387.544 76.98 387.948 77.38 388.244 77.9C388.54 78.42 388.688 79.016 388.688 79.688C388.688 80.36 388.536 80.956 388.232 81.476C387.928 81.996 387.512 82.4 386.984 82.688C386.464 82.968 385.888 83.108 385.256 83.108ZM385.256 81.92C385.608 81.92 385.936 81.836 386.24 81.668C386.552 81.5 386.804 81.248 386.996 80.912C387.188 80.576 387.284 80.168 387.284 79.688C387.284 79.208 387.192 78.804 387.008 78.476C386.824 78.14 386.58 77.888 386.276 77.72C385.972 77.552 385.644 77.468 385.292 77.468C384.94 77.468 384.612 77.552 384.308 77.72C384.012 77.888 383.776 78.14 383.6 78.476C383.424 78.804 383.336 79.208 383.336 79.688C383.336 80.4 383.516 80.952 383.876 81.344C384.244 81.728 384.704 81.92 385.256 81.92ZM391.409 77.348C391.609 77.012 391.873 76.752 392.201 76.568C392.537 76.376 392.933 76.28 393.389 76.28V77.696H393.041C392.505 77.696 392.097 77.832 391.817 78.104C391.545 78.376 391.409 78.848 391.409 79.52V83H390.041V76.388H391.409V77.348ZM402.791 81.296H399.299L398.699 83H397.271L400.259 74.648H401.843L404.831 83H403.391L402.791 81.296ZM402.407 80.18L401.051 76.304L399.683 80.18H402.407ZM407.726 77.504V81.164C407.726 81.412 407.782 81.592 407.894 81.704C408.014 81.808 408.214 81.86 408.494 81.86H409.334V83H408.254C407.638 83 407.166 82.856 406.838 82.568C406.51 82.28 406.346 81.812 406.346 81.164V77.504H405.566V76.388H406.346V74.744H407.726V76.388H409.334V77.504H407.726ZM412.191 77.504V81.164C412.191 81.412 412.247 81.592 412.359 81.704C412.479 81.808 412.679 81.86 412.959 81.86H413.799V83H412.719C412.103 83 411.631 82.856 411.303 82.568C410.975 82.28 410.811 81.812 410.811 81.164V77.504H410.031V76.388H410.811V74.744H412.191V76.388H413.799V77.504H412.191ZM416.428 77.348C416.628 77.012 416.892 76.752 417.22 76.568C417.556 76.376 417.952 76.28 418.408 76.28V77.696H418.06C417.524 77.696 417.116 77.832 416.836 78.104C416.564 78.376 416.428 78.848 416.428 79.52V83H415.06V76.388H416.428V77.348ZM420.362 75.512C420.114 75.512 419.906 75.428 419.738 75.26C419.57 75.092 419.486 74.884 419.486 74.636C419.486 74.388 419.57 74.18 419.738 74.012C419.906 73.844 420.114 73.76 420.362 73.76C420.602 73.76 420.806 73.844 420.974 74.012C421.142 74.18 421.226 74.388 421.226 74.636C421.226 74.884 421.142 75.092 420.974 75.26C420.806 75.428 420.602 75.512 420.362 75.512ZM421.034 76.388V83H419.666V76.388H421.034ZM424.198 77.372C424.43 77.052 424.746 76.792 425.146 76.592C425.554 76.384 426.006 76.28 426.502 76.28C427.086 76.28 427.614 76.42 428.086 76.7C428.558 76.98 428.93 77.38 429.202 77.9C429.474 78.412 429.61 79 429.61 79.664C429.61 80.328 429.474 80.924 429.202 81.452C428.93 81.972 428.554 82.38 428.074 82.676C427.602 82.964 427.078 83.108 426.502 83.108C425.99 83.108 425.534 83.008 425.134 82.808C424.742 82.608 424.43 82.352 424.198 82.04V83H422.83V74.12H424.198V77.372ZM428.218 79.664C428.218 79.208 428.122 78.816 427.93 78.488C427.746 78.152 427.498 77.9 427.186 77.732C426.882 77.556 426.554 77.468 426.202 77.468C425.858 77.468 425.53 77.556 425.218 77.732C424.914 77.908 424.666 78.164 424.474 78.5C424.29 78.836 424.198 79.232 424.198 79.688C424.198 80.144 424.29 80.544 424.474 80.888C424.666 81.224 424.914 81.48 425.218 81.656C425.53 81.832 425.858 81.92 426.202 81.92C426.554 81.92 426.882 81.832 427.186 81.656C427.498 81.472 427.746 81.208 427.93 80.864C428.122 80.52 428.218 80.12 428.218 79.664ZM436.951 76.388V83H435.583V82.22C435.367 82.492 435.083 82.708 434.731 82.868C434.387 83.02 434.019 83.096 433.627 83.096C433.107 83.096 432.639 82.988 432.223 82.772C431.815 82.556 431.491 82.236 431.251 81.812C431.019 81.388 430.903 80.876 430.903 80.276V76.388H432.259V80.072C432.259 80.664 432.407 81.12 432.703 81.44C432.999 81.752 433.403 81.908 433.915 81.908C434.427 81.908 434.831 81.752 435.127 81.44C435.431 81.12 435.583 80.664 435.583 80.072V76.388H436.951ZM440.351 77.504V81.164C440.351 81.412 440.407 81.592 440.519 81.704C440.639 81.808 440.839 81.86 441.119 81.86H441.959V83H440.879C440.263 83 439.791 82.856 439.463 82.568C439.135 82.28 438.971 81.812 438.971 81.164V77.504H438.191V76.388H438.971V74.744H440.351V76.388H441.959V77.504H440.351ZM449.28 79.532C449.28 79.78 449.264 80.004 449.232 80.204H444.18C444.22 80.732 444.416 81.156 444.768 81.476C445.12 81.796 445.552 81.956 446.064 81.956C446.8 81.956 447.32 81.648 447.624 81.032H449.1C448.9 81.64 448.536 82.14 448.008 82.532C447.488 82.916 446.84 83.108 446.064 83.108C445.432 83.108 444.864 82.968 444.36 82.688C443.864 82.4 443.472 82 443.184 81.488C442.904 80.968 442.764 80.368 442.764 79.688C442.764 79.008 442.9 78.412 443.172 77.9C443.452 77.38 443.84 76.98 444.336 76.7C444.84 76.42 445.416 76.28 446.064 76.28C446.688 76.28 447.244 76.416 447.732 76.688C448.22 76.96 448.6 77.344 448.872 77.84C449.144 78.328 449.28 78.892 449.28 79.532ZM447.852 79.1C447.844 78.596 447.664 78.192 447.312 77.888C446.96 77.584 446.524 77.432 446.004 77.432C445.532 77.432 445.128 77.584 444.792 77.888C444.456 78.184 444.256 78.588 444.192 79.1H447.852ZM453.027 83.108C452.507 83.108 452.039 83.016 451.623 82.832C451.215 82.64 450.891 82.384 450.651 82.064C450.411 81.736 450.283 81.372 450.267 80.972H451.683C451.707 81.252 451.839 81.488 452.079 81.68C452.327 81.864 452.635 81.956 453.003 81.956C453.387 81.956 453.683 81.884 453.891 81.74C454.107 81.588 454.215 81.396 454.215 81.164C454.215 80.916 454.095 80.732 453.855 80.612C453.623 80.492 453.251 80.36 452.739 80.216C452.243 80.08 451.839 79.948 451.527 79.82C451.215 79.692 450.943 79.496 450.711 79.232C450.487 78.968 450.375 78.62 450.375 78.188C450.375 77.836 450.479 77.516 450.687 77.228C450.895 76.932 451.191 76.7 451.575 76.532C451.967 76.364 452.415 76.28 452.919 76.28C453.671 76.28 454.275 76.472 454.731 76.856C455.195 77.232 455.443 77.748 455.475 78.404H454.107C454.083 78.108 453.963 77.872 453.747 77.696C453.531 77.52 453.239 77.432 452.871 77.432C452.511 77.432 452.235 77.5 452.043 77.636C451.851 77.772 451.755 77.952 451.755 78.176C451.755 78.352 451.819 78.5 451.947 78.62C452.075 78.74 452.231 78.836 452.415 78.908C452.599 78.972 452.871 79.056 453.231 79.16C453.711 79.288 454.103 79.42 454.407 79.556C454.719 79.684 454.987 79.876 455.211 80.132C455.435 80.388 455.551 80.728 455.559 81.152C455.559 81.528 455.455 81.864 455.247 82.16C455.039 82.456 454.743 82.688 454.359 82.856C453.983 83.024 453.539 83.108 453.027 83.108Z" fill="white"/>
<rect x="67" y="102" width="103" height="29" rx="6" fill="#0556F3"/>
<path d="M90.107 113.144C90.107 113.568 90.007 113.968 89.807 114.344C89.607 114.72 89.287 115.028 88.847 115.268C88.407 115.5 87.843 115.616 87.155 115.616H85.643V119H84.275V110.66H87.155C87.795 110.66 88.335 110.772 88.775 110.996C89.223 111.212 89.555 111.508 89.771 111.884C89.995 112.26 90.107 112.68 90.107 113.144ZM87.155 114.5C87.675 114.5 88.063 114.384 88.319 114.152C88.575 113.912 88.703 113.576 88.703 113.144C88.703 112.232 88.187 111.776 87.155 111.776H85.643V114.5H87.155ZM92.7797 113.348C92.9797 113.012 93.2437 112.752 93.5717 112.568C93.9077 112.376 94.3037 112.28 94.7597 112.28V113.696H94.4117C93.8757 113.696 93.4677 113.832 93.1877 114.104C92.9157 114.376 92.7797 114.848 92.7797 115.52V119H91.4117V112.388H92.7797V113.348ZM96.7132 111.512C96.4652 111.512 96.2572 111.428 96.0892 111.26C95.9212 111.092 95.8372 110.884 95.8372 110.636C95.8372 110.388 95.9212 110.18 96.0892 110.012C96.2572 109.844 96.4652 109.76 96.7132 109.76C96.9532 109.76 97.1572 109.844 97.3252 110.012C97.4932 110.18 97.5772 110.388 97.5772 110.636C97.5772 110.884 97.4932 111.092 97.3252 111.26C97.1572 111.428 96.9532 111.512 96.7132 111.512ZM97.3852 112.388V119H96.0172V112.388H97.3852ZM107.185 112.28C107.705 112.28 108.169 112.388 108.577 112.604C108.993 112.82 109.317 113.14 109.549 113.564C109.789 113.988 109.909 114.5 109.909 115.1V119H108.553V115.304C108.553 114.712 108.405 114.26 108.109 113.948C107.813 113.628 107.409 113.468 106.897 113.468C106.385 113.468 105.977 113.628 105.673 113.948C105.377 114.26 105.229 114.712 105.229 115.304V119H103.873V115.304C103.873 114.712 103.725 114.26 103.429 113.948C103.133 113.628 102.729 113.468 102.217 113.468C101.705 113.468 101.297 113.628 100.993 113.948C100.697 114.26 100.549 114.712 100.549 115.304V119H99.1813V112.388H100.549V113.144C100.773 112.872 101.057 112.66 101.401 112.508C101.745 112.356 102.113 112.28 102.505 112.28C103.033 112.28 103.505 112.392 103.921 112.616C104.337 112.84 104.657 113.164 104.881 113.588C105.081 113.188 105.393 112.872 105.817 112.64C106.241 112.4 106.697 112.28 107.185 112.28ZM111.194 115.664C111.194 115 111.33 114.412 111.602 113.9C111.882 113.388 112.258 112.992 112.73 112.712C113.21 112.424 113.738 112.28 114.314 112.28C114.834 112.28 115.286 112.384 115.67 112.592C116.062 112.792 116.374 113.044 116.606 113.348V112.388H117.986V119H116.606V118.016C116.374 118.328 116.058 118.588 115.658 118.796C115.258 119.004 114.802 119.108 114.29 119.108C113.722 119.108 113.202 118.964 112.73 118.676C112.258 118.38 111.882 117.972 111.602 117.452C111.33 116.924 111.194 116.328 111.194 115.664ZM116.606 115.688C116.606 115.232 116.51 114.836 116.318 114.5C116.134 114.164 115.89 113.908 115.586 113.732C115.282 113.556 114.954 113.468 114.602 113.468C114.25 113.468 113.922 113.556 113.618 113.732C113.314 113.9 113.066 114.152 112.874 114.488C112.69 114.816 112.598 115.208 112.598 115.664C112.598 116.12 112.69 116.52 112.874 116.864C113.066 117.208 113.314 117.472 113.618 117.656C113.93 117.832 114.258 117.92 114.602 117.92C114.954 117.92 115.282 117.832 115.586 117.656C115.89 117.48 116.134 117.224 116.318 116.888C116.51 116.544 116.606 116.144 116.606 115.688ZM121.151 113.348C121.351 113.012 121.615 112.752 121.943 112.568C122.279 112.376 122.675 112.28 123.131 112.28V113.696H122.783C122.247 113.696 121.839 113.832 121.559 114.104C121.287 114.376 121.151 114.848 121.151 115.52V119H119.783V112.388H121.151V113.348ZM130.34 112.388L126.284 122.108H124.868L126.212 118.892L123.608 112.388H125.132L126.992 117.428L128.924 112.388H130.34ZM137.106 115.7L140.154 119H138.306L135.858 116.156V119H134.49V110.12H135.858V115.28L138.258 112.388H140.154L137.106 115.7ZM147.194 115.532C147.194 115.78 147.178 116.004 147.146 116.204H142.094C142.134 116.732 142.33 117.156 142.682 117.476C143.034 117.796 143.466 117.956 143.978 117.956C144.714 117.956 145.234 117.648 145.538 117.032H147.014C146.814 117.64 146.45 118.14 145.922 118.532C145.402 118.916 144.754 119.108 143.978 119.108C143.346 119.108 142.778 118.968 142.274 118.688C141.778 118.4 141.386 118 141.098 117.488C140.818 116.968 140.678 116.368 140.678 115.688C140.678 115.008 140.814 114.412 141.086 113.9C141.366 113.38 141.754 112.98 142.25 112.7C142.754 112.42 143.33 112.28 143.978 112.28C144.602 112.28 145.158 112.416 145.646 112.688C146.134 112.96 146.514 113.344 146.786 113.84C147.058 114.328 147.194 114.892 147.194 115.532ZM145.766 115.1C145.758 114.596 145.578 114.192 145.226 113.888C144.874 113.584 144.438 113.432 143.918 113.432C143.446 113.432 143.042 113.584 142.706 113.888C142.37 114.184 142.17 114.588 142.106 115.1H145.766ZM154.493 112.388L150.437 122.108H149.021L150.365 118.892L147.761 112.388H149.285L151.145 117.428L153.077 112.388H154.493Z" fill="white"/>
<rect x="45" y="191" width="72" height="66" rx="6" fill="#0556F3"/>
<path d="M69.1109 208L67.1909 204.664H66.1469V208H64.7789V199.66H67.6589C68.2989 199.66 68.8389 199.772 69.2789 199.996C69.7269 200.22 70.0589 200.52 70.2749 200.896C70.4989 201.272 70.6109 201.692 70.6109 202.156C70.6109 202.7 70.4509 203.196 70.1309 203.644C69.8189 204.084 69.3349 204.384 68.6789 204.544L70.7429 208H69.1109ZM66.1469 203.572H67.6589C68.1709 203.572 68.5549 203.444 68.8109 203.188C69.0749 202.932 69.2069 202.588 69.2069 202.156C69.2069 201.724 69.0789 201.388 68.8229 201.148C68.5669 200.9 68.1789 200.776 67.6589 200.776H66.1469V203.572ZM75.2289 208.108C74.6049 208.108 74.0409 207.968 73.5369 207.688C73.0329 207.4 72.6369 207 72.3489 206.488C72.0609 205.968 71.9169 205.368 71.9169 204.688C71.9169 204.016 72.0649 203.42 72.3609 202.9C72.6569 202.38 73.0609 201.98 73.5729 201.7C74.0849 201.42 74.6569 201.28 75.2889 201.28C75.9209 201.28 76.4929 201.42 77.0049 201.7C77.5169 201.98 77.9209 202.38 78.2169 202.9C78.5129 203.42 78.6609 204.016 78.6609 204.688C78.6609 205.36 78.5089 205.956 78.2049 206.476C77.9009 206.996 77.4849 207.4 76.9569 207.688C76.4369 207.968 75.8609 208.108 75.2289 208.108ZM75.2289 206.92C75.5809 206.92 75.9089 206.836 76.2129 206.668C76.5249 206.5 76.7769 206.248 76.9689 205.912C77.1609 205.576 77.2569 205.168 77.2569 204.688C77.2569 204.208 77.1649 203.804 76.9809 203.476C76.7969 203.14 76.5529 202.888 76.2489 202.72C75.9449 202.552 75.6169 202.468 75.2649 202.468C74.9129 202.468 74.5849 202.552 74.2809 202.72C73.9849 202.888 73.7489 203.14 73.5729 203.476C73.3969 203.804 73.3089 204.208 73.3089 204.688C73.3089 205.4 73.4889 205.952 73.8489 206.344C74.2169 206.728 74.6769 206.92 75.2289 206.92ZM88.8933 201.388L86.8413 208H85.4013L84.0693 203.116L82.7373 208H81.2973L79.2333 201.388H80.6253L82.0053 206.704L83.4093 201.388H84.8373L86.1813 206.68L87.5493 201.388H88.8933ZM92.3156 208.108C91.7956 208.108 91.3276 208.016 90.9116 207.832C90.5036 207.64 90.1796 207.384 89.9396 207.064C89.6996 206.736 89.5716 206.372 89.5556 205.972H90.9716C90.9956 206.252 91.1276 206.488 91.3676 206.68C91.6156 206.864 91.9236 206.956 92.2916 206.956C92.6756 206.956 92.9716 206.884 93.1796 206.74C93.3956 206.588 93.5036 206.396 93.5036 206.164C93.5036 205.916 93.3836 205.732 93.1436 205.612C92.9116 205.492 92.5396 205.36 92.0276 205.216C91.5316 205.08 91.1276 204.948 90.8156 204.82C90.5036 204.692 90.2316 204.496 89.9996 204.232C89.7756 203.968 89.6636 203.62 89.6636 203.188C89.6636 202.836 89.7676 202.516 89.9756 202.228C90.1836 201.932 90.4796 201.7 90.8636 201.532C91.2556 201.364 91.7036 201.28 92.2076 201.28C92.9596 201.28 93.5636 201.472 94.0196 201.856C94.4836 202.232 94.7316 202.748 94.7636 203.404H93.3956C93.3716 203.108 93.2516 202.872 93.0356 202.696C92.8196 202.52 92.5276 202.432 92.1596 202.432C91.7996 202.432 91.5236 202.5 91.3316 202.636C91.1396 202.772 91.0436 202.952 91.0436 203.176C91.0436 203.352 91.1076 203.5 91.2356 203.62C91.3636 203.74 91.5196 203.836 91.7036 203.908C91.8876 203.972 92.1596 204.056 92.5196 204.16C92.9996 204.288 93.3916 204.42 93.6956 204.556C94.0076 204.684 94.2756 204.876 94.4996 205.132C94.7236 205.388 94.8396 205.728 94.8476 206.152C94.8476 206.528 94.7436 206.864 94.5356 207.16C94.3276 207.456 94.0316 207.688 93.6476 207.856C93.2716 208.024 92.8276 208.108 92.3156 208.108ZM97.8258 206.356L96.3738 209.668H95.4858L96.3378 206.356H97.8258ZM61.7398 226L59.8198 222.664H58.7758V226H57.4078V217.66H60.2878C60.9278 217.66 61.4678 217.772 61.9078 217.996C62.3558 218.22 62.6878 218.52 62.9038 218.896C63.1278 219.272 63.2398 219.692 63.2398 220.156C63.2398 220.7 63.0798 221.196 62.7598 221.644C62.4478 222.084 61.9638 222.384 61.3078 222.544L63.3718 226H61.7398ZM58.7758 221.572H60.2878C60.7998 221.572 61.1838 221.444 61.4398 221.188C61.7038 220.932 61.8358 220.588 61.8358 220.156C61.8358 219.724 61.7078 219.388 61.4518 219.148C61.1958 218.9 60.8078 218.776 60.2878 218.776H58.7758V221.572ZM71.0498 222.532C71.0498 222.78 71.0338 223.004 71.0018 223.204H65.9498C65.9898 223.732 66.1858 224.156 66.5378 224.476C66.8898 224.796 67.3218 224.956 67.8338 224.956C68.5698 224.956 69.0898 224.648 69.3938 224.032H70.8698C70.6698 224.64 70.3058 225.14 69.7778 225.532C69.2578 225.916 68.6098 226.108 67.8338 226.108C67.2018 226.108 66.6338 225.968 66.1298 225.688C65.6338 225.4 65.2418 225 64.9538 224.488C64.6738 223.968 64.5338 223.368 64.5338 222.688C64.5338 222.008 64.6698 221.412 64.9418 220.9C65.2218 220.38 65.6098 219.98 66.1058 219.7C66.6098 219.42 67.1858 219.28 67.8338 219.28C68.4578 219.28 69.0138 219.416 69.5018 219.688C69.9898 219.96 70.3698 220.344 70.6418 220.84C70.9138 221.328 71.0498 221.892 71.0498 222.532ZM69.6218 222.1C69.6138 221.596 69.4338 221.192 69.0818 220.888C68.7298 220.584 68.2938 220.432 67.7738 220.432C67.3018 220.432 66.8978 220.584 66.5618 220.888C66.2258 221.184 66.0258 221.588 65.9618 222.1H69.6218ZM71.9401 222.688C71.9401 222.008 72.0761 221.412 72.3481 220.9C72.6281 220.38 73.0121 219.98 73.5001 219.7C73.9881 219.42 74.5481 219.28 75.1801 219.28C75.9801 219.28 76.6401 219.472 77.1601 219.856C77.6881 220.232 78.0441 220.772 78.2281 221.476H76.7521C76.6321 221.148 76.4401 220.892 76.1761 220.708C75.9121 220.524 75.5801 220.432 75.1801 220.432C74.6201 220.432 74.1721 220.632 73.8361 221.032C73.5081 221.424 73.3441 221.976 73.3441 222.688C73.3441 223.4 73.5081 223.956 73.8361 224.356C74.1721 224.756 74.6201 224.956 75.1801 224.956C75.9721 224.956 76.4961 224.608 76.7521 223.912H78.2281C78.0361 224.584 77.6761 225.12 77.1481 225.52C76.6201 225.912 75.9641 226.108 75.1801 226.108C74.5481 226.108 73.9881 225.968 73.5001 225.688C73.0121 225.4 72.6281 225 72.3481 224.488C72.0761 223.968 71.9401 223.368 71.9401 222.688ZM82.4594 226.108C81.8354 226.108 81.2714 225.968 80.7674 225.688C80.2634 225.4 79.8674 225 79.5794 224.488C79.2914 223.968 79.1474 223.368 79.1474 222.688C79.1474 222.016 79.2954 221.42 79.5914 220.9C79.8874 220.38 80.2914 219.98 80.8034 219.7C81.3154 219.42 81.8874 219.28 82.5194 219.28C83.1514 219.28 83.7234 219.42 84.2354 219.7C84.7474 219.98 85.1514 220.38 85.4474 220.9C85.7434 221.42 85.8914 222.016 85.8914 222.688C85.8914 223.36 85.7394 223.956 85.4354 224.476C85.1314 224.996 84.7154 225.4 84.1874 225.688C83.6674 225.968 83.0914 226.108 82.4594 226.108ZM82.4594 224.92C82.8114 224.92 83.1394 224.836 83.4434 224.668C83.7554 224.5 84.0074 224.248 84.1994 223.912C84.3914 223.576 84.4874 223.168 84.4874 222.688C84.4874 222.208 84.3954 221.804 84.2114 221.476C84.0274 221.14 83.7834 220.888 83.4794 220.72C83.1754 220.552 82.8474 220.468 82.4954 220.468C82.1434 220.468 81.8154 220.552 81.5114 220.72C81.2154 220.888 80.9794 221.14 80.8034 221.476C80.6274 221.804 80.5394 222.208 80.5394 222.688C80.5394 223.4 80.7194 223.952 81.0794 224.344C81.4474 224.728 81.9074 224.92 82.4594 224.92ZM88.6118 220.348C88.8118 220.012 89.0758 219.752 89.4038 219.568C89.7398 219.376 90.1358 219.28 90.5918 219.28V220.696H90.2438C89.7078 220.696 89.2998 220.832 89.0198 221.104C88.7478 221.376 88.6118 221.848 88.6118 222.52V226H87.2438V219.388H88.6118V220.348ZM91.3932 222.664C91.3932 222 91.5292 221.412 91.8012 220.9C92.0812 220.388 92.4572 219.992 92.9292 219.712C93.4092 219.424 93.9412 219.28 94.5252 219.28C94.9572 219.28 95.3812 219.376 95.7972 219.568C96.2212 219.752 96.5572 220 96.8052 220.312V217.12H98.1852V226H96.8052V225.004C96.5812 225.324 96.2692 225.588 95.8692 225.796C95.4772 226.004 95.0252 226.108 94.5132 226.108C93.9372 226.108 93.4092 225.964 92.9292 225.676C92.4572 225.38 92.0812 224.972 91.8012 224.452C91.5292 223.924 91.3932 223.328 91.3932 222.664ZM96.8052 222.688C96.8052 222.232 96.7092 221.836 96.5172 221.5C96.3332 221.164 96.0892 220.908 95.7852 220.732C95.4812 220.556 95.1532 220.468 94.8012 220.468C94.4492 220.468 94.1212 220.556 93.8172 220.732C93.5132 220.9 93.2652 221.152 93.0732 221.488C92.8892 221.816 92.7972 222.208 92.7972 222.664C92.7972 223.12 92.8892 223.52 93.0732 223.864C93.2652 224.208 93.5132 224.472 93.8172 224.656C94.1292 224.832 94.4572 224.92 94.8012 224.92C95.1532 224.92 95.4812 224.832 95.7852 224.656C96.0892 224.48 96.3332 224.224 96.5172 223.888C96.7092 223.544 96.8052 223.144 96.8052 222.688ZM102.382 226.108C101.862 226.108 101.394 226.016 100.978 225.832C100.57 225.64 100.246 225.384 100.006 225.064C99.766 224.736 99.638 224.372 99.622 223.972H101.038C101.062 224.252 101.194 224.488 101.434 224.68C101.682 224.864 101.99 224.956 102.358 224.956C102.742 224.956 103.038 224.884 103.246 224.74C103.462 224.588 103.57 224.396 103.57 224.164C103.57 223.916 103.45 223.732 103.21 223.612C102.978 223.492 102.606 223.36 102.094 223.216C101.598 223.08 101.194 222.948 100.882 222.82C100.57 222.692 100.298 222.496 100.066 222.232C99.842 221.968 99.73 221.62 99.73 221.188C99.73 220.836 99.834 220.516 100.042 220.228C100.25 219.932 100.546 219.7 100.93 219.532C101.322 219.364 101.77 219.28 102.274 219.28C103.026 219.28 103.63 219.472 104.086 219.856C104.55 220.232 104.798 220.748 104.83 221.404H103.462C103.438 221.108 103.318 220.872 103.102 220.696C102.886 220.52 102.594 220.432 102.226 220.432C101.866 220.432 101.59 220.5 101.398 220.636C101.206 220.772 101.11 220.952 101.11 221.176C101.11 221.352 101.174 221.5 101.302 221.62C101.43 221.74 101.586 221.836 101.77 221.908C101.954 221.972 102.226 222.056 102.586 222.16C103.066 222.288 103.458 222.42 103.762 222.556C104.074 222.684 104.342 222.876 104.566 223.132C104.79 223.388 104.906 223.728 104.914 224.152C104.914 224.528 104.81 224.864 104.602 225.16C104.394 225.456 104.098 225.688 103.714 225.856C103.338 226.024 102.894 226.108 102.382 226.108ZM49.1706 240.664C49.1706 240 49.3066 239.412 49.5786 238.9C49.8586 238.388 50.2346 237.992 50.7066 237.712C51.1866 237.424 51.7146 237.28 52.2906 237.28C52.8106 237.28 53.2626 237.384 53.6466 237.592C54.0386 237.792 54.3506 238.044 54.5826 238.348V237.388H55.9626V244H54.5826V243.016C54.3506 243.328 54.0346 243.588 53.6346 243.796C53.2346 244.004 52.7786 244.108 52.2666 244.108C51.6986 244.108 51.1786 243.964 50.7066 243.676C50.2346 243.38 49.8586 242.972 49.5786 242.452C49.3066 241.924 49.1706 241.328 49.1706 240.664ZM54.5826 240.688C54.5826 240.232 54.4866 239.836 54.2946 239.5C54.1106 239.164 53.8666 238.908 53.5626 238.732C53.2586 238.556 52.9306 238.468 52.5786 238.468C52.2266 238.468 51.8986 238.556 51.5946 238.732C51.2906 238.9 51.0426 239.152 50.8506 239.488C50.6666 239.816 50.5746 240.208 50.5746 240.664C50.5746 241.12 50.6666 241.52 50.8506 241.864C51.0426 242.208 51.2906 242.472 51.5946 242.656C51.9066 242.832 52.2346 242.92 52.5786 242.92C52.9306 242.92 53.2586 242.832 53.5626 242.656C53.8666 242.48 54.1106 242.224 54.2946 241.888C54.4866 241.544 54.5826 241.144 54.5826 240.688ZM61.0954 237.28C61.6154 237.28 62.0794 237.388 62.4874 237.604C62.9034 237.82 63.2274 238.14 63.4594 238.564C63.6914 238.988 63.8074 239.5 63.8074 240.1V244H62.4514V240.304C62.4514 239.712 62.3034 239.26 62.0074 238.948C61.7114 238.628 61.3074 238.468 60.7954 238.468C60.2834 238.468 59.8754 238.628 59.5714 238.948C59.2754 239.26 59.1274 239.712 59.1274 240.304V244H57.7594V237.388H59.1274V238.144C59.3514 237.872 59.6354 237.66 59.9794 237.508C60.3314 237.356 60.7034 237.28 61.0954 237.28ZM65.0963 240.664C65.0963 240 65.2323 239.412 65.5043 238.9C65.7843 238.388 66.1603 237.992 66.6323 237.712C67.1123 237.424 67.6443 237.28 68.2283 237.28C68.6603 237.28 69.0843 237.376 69.5003 237.568C69.9243 237.752 70.2603 238 70.5083 238.312V235.12H71.8883V244H70.5083V243.004C70.2843 243.324 69.9723 243.588 69.5723 243.796C69.1803 244.004 68.7283 244.108 68.2163 244.108C67.6403 244.108 67.1123 243.964 66.6323 243.676C66.1603 243.38 65.7843 242.972 65.5043 242.452C65.2323 241.924 65.0963 241.328 65.0963 240.664ZM70.5083 240.688C70.5083 240.232 70.4123 239.836 70.2203 239.5C70.0363 239.164 69.7923 238.908 69.4883 238.732C69.1843 238.556 68.8563 238.468 68.5043 238.468C68.1523 238.468 67.8243 238.556 67.5203 238.732C67.2163 238.9 66.9683 239.152 66.7763 239.488C66.5923 239.816 66.5003 240.208 66.5003 240.664C66.5003 241.12 66.5923 241.52 66.7763 241.864C66.9683 242.208 67.2163 242.472 67.5203 242.656C67.8323 242.832 68.1603 242.92 68.5043 242.92C68.8563 242.92 69.1843 242.832 69.4883 242.656C69.7923 242.48 70.0363 242.224 70.2203 241.888C70.4123 241.544 70.5083 241.144 70.5083 240.688ZM78.3983 238.504V242.164C78.3983 242.412 78.4543 242.592 78.5663 242.704C78.6863 242.808 78.8863 242.86 79.1663 242.86H80.0063V244H78.9263C78.3103 244 77.8383 243.856 77.5103 243.568C77.1823 243.28 77.0183 242.812 77.0183 242.164V238.504H76.2383V237.388H77.0183V235.744H78.3983V237.388H80.0063V238.504H78.3983ZM87.2552 237.388V244H85.8872V243.22C85.6712 243.492 85.3872 243.708 85.0352 243.868C84.6912 244.02 84.3232 244.096 83.9312 244.096C83.4112 244.096 82.9432 243.988 82.5272 243.772C82.1192 243.556 81.7952 243.236 81.5552 242.812C81.3232 242.388 81.2072 241.876 81.2072 241.276V237.388H82.5632V241.072C82.5632 241.664 82.7112 242.12 83.0072 242.44C83.3032 242.752 83.7072 242.908 84.2192 242.908C84.7312 242.908 85.1352 242.752 85.4312 242.44C85.7352 242.12 85.8872 241.664 85.8872 241.072V237.388H87.2552ZM90.4282 238.36C90.6602 238.056 90.9762 237.8 91.3762 237.592C91.7762 237.384 92.2282 237.28 92.7322 237.28C93.3082 237.28 93.8322 237.424 94.3042 237.712C94.7842 237.992 95.1602 238.388 95.4322 238.9C95.7042 239.412 95.8402 240 95.8402 240.664C95.8402 241.328 95.7042 241.924 95.4322 242.452C95.1602 242.972 94.7842 243.38 94.3042 243.676C93.8322 243.964 93.3082 244.108 92.7322 244.108C92.2282 244.108 91.7802 244.008 91.3882 243.808C90.9962 243.6 90.6762 243.344 90.4282 243.04V247.144H89.0602V237.388H90.4282V238.36ZM94.4482 240.664C94.4482 240.208 94.3522 239.816 94.1602 239.488C93.9762 239.152 93.7282 238.9 93.4162 238.732C93.1122 238.556 92.7842 238.468 92.4322 238.468C92.0882 238.468 91.7602 238.556 91.4482 238.732C91.1442 238.908 90.8962 239.164 90.7042 239.5C90.5202 239.836 90.4282 240.232 90.4282 240.688C90.4282 241.144 90.5202 241.544 90.7042 241.888C90.8962 242.224 91.1442 242.48 91.4482 242.656C91.7602 242.832 92.0882 242.92 92.4322 242.92C92.7842 242.92 93.1122 242.832 93.4162 242.656C93.7282 242.472 93.9762 242.208 94.1602 241.864C94.3522 241.52 94.4482 241.12 94.4482 240.664ZM98.561 235.12V244H97.193V235.12H98.561ZM106.417 240.532C106.417 240.78 106.401 241.004 106.369 241.204H101.317C101.357 241.732 101.553 242.156 101.905 242.476C102.257 242.796 102.689 242.956 103.201 242.956C103.937 242.956 104.457 242.648 104.761 242.032H106.237C106.037 242.64 105.673 243.14 105.145 243.532C104.625 243.916 103.977 244.108 103.201 244.108C102.569 244.108 102.001 243.968 101.497 243.688C101.001 243.4 100.609 243 100.321 242.488C100.041 241.968 99.901 241.368 99.901 240.688C99.901 240.008 100.037 239.412 100.309 238.9C100.589 238.38 100.977 237.98 101.473 237.7C101.977 237.42 102.553 237.28 103.201 237.28C103.825 237.28 104.381 237.416 104.869 237.688C105.357 237.96 105.737 238.344 106.009 238.84C106.281 239.328 106.417 239.892 106.417 240.532ZM104.989 240.1C104.981 239.596 104.801 239.192 104.449 238.888C104.097 238.584 103.661 238.432 103.141 238.432C102.669 238.432 102.265 238.584 101.929 238.888C101.593 239.184 101.393 239.588 101.329 240.1H104.989ZM110.163 244.108C109.643 244.108 109.175 244.016 108.759 243.832C108.351 243.64 108.027 243.384 107.787 243.064C107.547 242.736 107.419 242.372 107.403 241.972H108.819C108.843 242.252 108.975 242.488 109.215 242.68C109.463 242.864 109.771 242.956 110.139 242.956C110.523 242.956 110.819 242.884 111.027 242.74C111.243 242.588 111.351 242.396 111.351 242.164C111.351 241.916 111.231 241.732 110.991 241.612C110.759 241.492 110.387 241.36 109.875 241.216C109.379 241.08 108.975 240.948 108.663 240.82C108.351 240.692 108.079 240.496 107.847 240.232C107.623 239.968 107.511 239.62 107.511 239.188C107.511 238.836 107.615 238.516 107.823 238.228C108.031 237.932 108.327 237.7 108.711 237.532C109.103 237.364 109.551 237.28 110.055 237.28C110.807 237.28 111.411 237.472 111.867 237.856C112.331 238.232 112.579 238.748 112.611 239.404H111.243C111.219 239.108 111.099 238.872 110.883 238.696C110.667 238.52 110.375 238.432 110.007 238.432C109.647 238.432 109.371 238.5 109.179 238.636C108.987 238.772 108.891 238.952 108.891 239.176C108.891 239.352 108.955 239.5 109.083 239.62C109.211 239.74 109.367 239.836 109.551 239.908C109.735 239.972 110.007 240.056 110.367 240.16C110.847 240.288 111.239 240.42 111.543 240.556C111.855 240.684 112.123 240.876 112.347 241.132C112.571 241.388 112.687 241.728 112.695 242.152C112.695 242.528 112.591 242.864 112.383 243.16C112.175 243.456 111.879 243.688 111.495 243.856C111.119 244.024 110.675 244.108 110.163 244.108Z" fill="white"/>
<path d="M241.003 125.083C241.049 125.633 241.533 126.042 242.083 125.997L251.052 125.249C251.602 125.203 252.011 124.72 251.965 124.17C251.92 123.619 251.436 123.21 250.886 123.256L242.913 123.92L242.249 115.948C242.203 115.398 241.72 114.989 241.17 115.035C240.619 115.08 240.21 115.564 240.256 116.114L241.003 125.083ZM263.237 98.3541L241.237 124.354L242.763 125.646L264.763 99.6459L263.237 98.3541Z" fill="black"/>
<path d="M381.357 125.766C381.78 126.121 382.41 126.066 382.766 125.643L388.554 118.752C388.91 118.329 388.855 117.698 388.432 117.343C388.009 116.988 387.378 117.043 387.023 117.465L381.877 123.591L375.752 118.446C375.329 118.09 374.698 118.145 374.343 118.568C373.988 118.991 374.043 119.622 374.465 119.977L381.357 125.766ZM379.004 102.087L381.004 125.087L382.996 124.913L380.996 101.913L379.004 102.087Z" fill="black"/>
<path d="M156.493 151.87C156.974 151.598 157.142 150.987 156.87 150.507L152.433 142.677C152.161 142.196 151.55 142.027 151.07 142.3C150.589 142.572 150.421 143.182 150.693 143.663L154.637 150.623L147.677 154.567C147.196 154.839 147.027 155.45 147.3 155.93C147.572 156.411 148.182 156.579 148.663 156.307L156.493 151.87ZM108.733 138.964L155.733 151.964L156.267 150.036L109.267 137.036L108.733 138.964Z" fill="black"/>
<path d="M163.707 192.707C164.098 192.317 164.098 191.683 163.707 191.293L157.343 184.929C156.953 184.538 156.319 184.538 155.929 184.929C155.538 185.319 155.538 185.953 155.929 186.343L161.586 192L155.929 197.657C155.538 198.047 155.538 198.681 155.929 199.071C156.319 199.462 156.953 199.462 157.343 199.071L163.707 192.707ZM127 193H163V191H127V193Z" fill="black"/>
<path d="M163.707 229.707C164.098 229.317 164.098 228.683 163.707 228.293L157.343 221.929C156.953 221.538 156.319 221.538 155.929 221.929C155.538 222.319 155.538 222.953 155.929 223.343L161.586 229L155.929 234.657C155.538 235.047 155.538 235.681 155.929 236.071C156.319 236.462 156.953 236.462 157.343 236.071L163.707 229.707ZM127 230H163V228H127V230Z" fill="black"/>
<path d="M163.707 267.707C164.098 267.317 164.098 266.683 163.707 266.293L157.343 259.929C156.953 259.538 156.319 259.538 155.929 259.929C155.538 260.319 155.538 260.953 155.929 261.343L161.586 267L155.929 272.657C155.538 273.047 155.538 273.681 155.929 274.071C156.319 274.462 156.953 274.462 157.343 274.071L163.707 267.707ZM127 268H163V266H127V268Z" fill="black"/>
<line x1="126" y1="191" x2="126" y2="268" stroke="black" stroke-width="2"/>
<defs>
<filter id="filter0_d_621_151" x="152" y="132" width="619" height="183" filterUnits="userSpaceOnUse" color-interpolation-filters="sRGB">
<feFlood flood-opacity="0" result="BackgroundImageFix"/>
<feColorMatrix in="SourceAlpha" type="matrix" values="0 0 0 0 0 0 0 0 0 0 0 0 0 0 0 0 0 0 127 0" result="hardAlpha"/>
<feOffset dy="12"/>
<feGaussianBlur stdDeviation="9"/>
<feComposite in2="hardAlpha" operator="out"/>
<feColorMatrix type="matrix" values="0 0 0 0 0.0196078 0 0 0 0 0.337255 0 0 0 0 0.952941 0 0 0 0.05 0"/>
<feBlend mode="normal" in2="BackgroundImageFix" result="effect1_dropShadow_621_151"/>
<feBlend mode="normal" in="SourceGraphic" in2="effect1_dropShadow_621_151" result="shape"/>
</filter>
</defs>
</svg>
