<svg width="38" height="33" viewBox="0 0 38 33" fill="none" xmlns="http://www.w3.org/2000/svg">
<path d="M10.0062 25.0606L12.333 22.2643L4.84251 16.5018L12.333 10.7392L10.0062 7.94299L0.698917 15.1037C0.48084 15.2714 0.304789 15.4841 0.183804 15.7261C0.0628189 15.9682 0 16.2333 0 16.5018C0 16.7703 0.0628189 17.0354 0.183804 17.2774C0.304789 17.5195 0.48084 17.7322 0.698917 17.8999L10.0062 25.0606ZM27.2246 7.94299L24.8978 10.7392L32.3883 16.5018L24.8978 22.2643L27.2246 25.0606L36.5319 17.8999C36.7499 17.7322 36.926 17.5195 37.047 17.2774C37.1679 17.0354 37.2308 16.7703 37.2308 16.5018C37.2308 16.2333 37.1679 15.9682 37.047 15.7261C36.926 15.4841 36.7499 15.2714 36.5319 15.1037L27.2246 7.94299ZM24.1551 0.776934L16.7093 33L13.0738 32.2231L20.5196 0L24.1551 0.776934Z" fill="#0556F3"/>
</svg>
