<svg width="39" height="38" viewBox="0 0 39 38" fill="none" xmlns="http://www.w3.org/2000/svg">
<path d="M33.2542 38H4.74953C2.12755 38 0 35.8724 0 33.2505V4.74953C0 2.1238 2.12755 0 4.74953 0H33.2542C35.8762 0 38.0037 2.12755 38.0037 4.74953V33.2505C38.0037 35.8724 35.8762 38 33.2542 38Z" fill="#1DA1F2"/>
<path d="M14.5968 28.6507C23.5603 28.6507 28.4634 21.223 28.4634 14.7842C28.4634 14.5744 28.4596 14.3647 28.4484 14.1549C29.3998 13.4657 30.2276 12.608 30.8793 11.6303C30.0066 12.0199 29.0664 12.2783 28.0813 12.3982C29.0889 11.7951 29.8605 10.84 30.2238 9.7013C29.2837 10.2594 28.2386 10.6639 27.1299 10.8849C26.2422 9.93728 24.9761 9.34546 23.5715 9.34546C20.8783 9.34546 18.6984 11.5292 18.6984 14.2186C18.6984 14.6007 18.7396 14.9715 18.8257 15.3311C14.7766 15.1288 11.1845 13.1885 8.77977 10.2407C8.36026 10.9599 8.12053 11.7989 8.12053 12.6904C8.12053 14.3797 8.98205 15.8742 10.2893 16.7469C9.49146 16.7207 8.73858 16.5035 8.08308 16.1364C8.08308 16.1589 8.08308 16.1776 8.08308 16.2001C8.08308 18.5599 9.76489 20.5301 11.9936 20.9796C11.5853 21.0919 11.1545 21.1519 10.7088 21.1519C10.3942 21.1519 10.0908 21.1219 9.79111 21.0657C10.4129 23.0022 12.2108 24.4106 14.3421 24.4518C12.6753 25.7591 10.574 26.5382 8.28909 26.5382C7.89579 26.5382 7.50624 26.5157 7.12793 26.4707C9.2817 27.8454 11.8438 28.6507 14.5968 28.6507Z" fill="white"/>
</svg>
