<svg width="38" height="38" viewBox="0 0 38 38" fill="none" xmlns="http://www.w3.org/2000/svg">
<path d="M33.2509 38H4.74906C2.12734 38 0 35.8727 0 33.2509V4.75281C0 2.12734 2.12734 0 4.74906 0H33.2509C35.8764 0 38 2.12734 38 4.75281V33.2509C38 35.8727 35.8727 38 33.2509 38Z" fill="#25D366"/>
<path fill-rule="evenodd" clip-rule="evenodd" d="M28.5879 9.41935C26.0298 6.85755 22.6253 5.44556 18.9998 5.44556C11.5317 5.44556 5.44927 11.5242 5.44927 18.9924C5.44927 21.3819 6.071 23.7115 7.25826 25.7639L5.33691 32.7864L12.5204 30.9025C14.5017 31.9811 16.7302 32.5504 18.9961 32.5504H18.9998C26.468 32.5504 32.5504 26.4718 32.5541 19.0036C32.5541 15.3856 31.1459 11.9811 28.5879 9.41935ZM18.9998 30.2658H18.9961C16.9736 30.2658 14.9923 29.7227 13.262 28.6965L12.85 28.4531L8.58785 29.5692L9.72643 25.4156L9.45676 24.9886C8.32942 23.1946 7.73392 21.1235 7.73392 18.9961C7.73766 12.7864 12.7901 7.7377 19.0036 7.7377C22.0111 7.7377 24.8388 8.90998 26.9661 11.0411C29.0935 13.1684 30.262 15.9999 30.262 19.0074C30.262 25.2134 25.2096 30.2658 18.9998 30.2658Z" fill="white"/>
<path fill-rule="evenodd" clip-rule="evenodd" d="M25.1799 21.8314C24.8428 21.6629 23.1761 20.8427 22.8653 20.7303C22.5544 20.6179 22.3297 20.5618 22.105 20.8988C21.8803 21.2397 21.2286 22 21.0338 22.2247C20.8353 22.4494 20.6406 22.4794 20.2997 22.3071C19.9627 22.1385 18.869 21.779 17.5769 20.6292C16.5694 19.7303 15.8915 18.6217 15.693 18.2846C15.4945 17.9475 15.6705 17.764 15.8428 17.5917C15.9964 17.4419 16.1799 17.1985 16.3522 17C16.5207 16.8015 16.5769 16.6629 16.6892 16.4344C16.8016 16.2097 16.7454 16.0112 16.6593 15.8427C16.5731 15.6741 15.899 14.0075 15.6143 13.3296C15.3372 12.6704 15.06 12.7565 14.8503 12.749C14.6518 12.7378 14.4271 12.7378 14.2024 12.7378C13.9776 12.7378 13.6106 12.8239 13.2997 13.161C12.9889 13.5018 12.1162 14.3183 12.1162 15.985C12.1162 17.6517 13.3297 19.2621 13.4982 19.4869C13.6668 19.7116 15.8877 23.1311 19.2848 24.5992C20.0937 24.9475 20.723 25.1573 21.2173 25.3108C22.0301 25.5693 22.7679 25.5318 23.3484 25.4457C24.0001 25.3483 25.3522 24.6254 25.6331 23.8352C25.914 23.0449 25.914 22.367 25.8316 22.2247C25.7454 22.0861 25.517 22 25.1799 21.8314Z" fill="white"/>
</svg>
