<?xml version="1.0" encoding="utf-8"?>
<svg width="28px" height="28px" viewBox="0 0 28 28" version="1.1" xmlns:xlink="http://www.w3.org/1999/xlink" xmlns="http://www.w3.org/2000/svg">
  <defs>
    <path d="M0 0L28 0L28 28L0 28L0 0Z" id="path_1" />
    <clipPath id="mask_1">
      <use xlink:href="#path_1" />
    </clipPath>
  </defs>
  <g id="Facebook-icon">
    <path d="M0 0L28 0L28 28L0 28L0 0Z" id="Background" fill="none" fill-rule="evenodd" stroke="none" />
    <g clip-path="url(#mask_1)">
      <path d="M22.3999 3.7334L5.59994 3.7334C4.56861 3.7334 3.73328 4.56873 3.73328 5.60007L3.73328 22.4001C3.73328 23.4314 4.56861 24.2667 5.59994 24.2667L14.9333 24.2667L14.9333 15.8667L12.1333 15.8667L12.1333 13.0667L14.9333 13.0667L14.9333 11.5631C14.9333 8.71646 16.3202 7.46673 18.6862 7.46673C19.8193 7.46673 20.4185 7.55073 20.7022 7.589L20.7022 10.2667L19.0885 10.2667C18.0842 10.2667 17.7333 10.7969 17.7333 11.8702L17.7333 13.0667L20.677 13.0667L20.2775 15.8667L17.7333 15.8667L17.7333 24.2667L22.3999 24.2667C23.4313 24.2667 24.2666 23.4314 24.2666 22.4001L24.2666 5.60007C24.2666 4.56873 23.4303 3.7334 22.3999 3.7334L22.3999 3.7334Z" id="Shape" fill="#A9ADB4" stroke="none" />
    </g>
  </g>
</svg>