<?xml version="1.0" encoding="utf-8"?>
<svg width="28px" height="28px" viewBox="0 0 28 28" version="1.1" xmlns:xlink="http://www.w3.org/1999/xlink" xmlns="http://www.w3.org/2000/svg">
  <defs>
    <path d="M0 0L28 0L28 28L0 28L0 0Z" id="path_1" />
    <clipPath id="mask_1">
      <use xlink:href="#path_1" />
    </clipPath>
  </defs>
  <g id="Instagram-Old-icon">
    <path d="M0 0L28 0L28 28L0 28L0 0Z" id="Background" fill="none" fill-rule="evenodd" stroke="none" />
    <g clip-path="url(#mask_1)">
      <path d="M7.875 3.5C5.46904 3.5 3.5 5.46904 3.5 7.875L3.5 20.125C3.5 22.531 5.46904 24.5 7.875 24.5L20.125 24.5C22.531 24.5 24.5 22.531 24.5 20.125L24.5 7.875C24.5 5.46904 22.531 3.5 20.125 3.5L7.875 3.5L7.875 3.5ZM18.375 7L20.125 7C20.6092 7 21 7.39083 21 7.875C21 8.35917 20.6092 8.75 20.125 8.75L18.375 8.75C17.8908 8.75 17.5 8.35917 17.5 7.875C17.5 7.39083 17.8908 7 18.375 7L18.375 7ZM14 10.5C15.9434 10.5 17.5 12.0566 17.5 14C17.5 15.9434 15.9434 17.5 14 17.5C12.0566 17.5 10.5 15.9434 10.5 14C10.5 12.0566 12.0566 10.5 14 10.5L14 10.5ZM5.25 11.6665L9.30599 11.6665C8.95335 12.371 8.75 13.1617 8.75 13.9998C8.75 16.889 11.1109 19.2498 14 19.2498C16.8891 19.2498 19.25 16.889 19.25 13.9998C19.25 13.1617 19.0466 12.371 18.694 11.6665L22.75 11.6665L22.75 20.1248C22.75 21.5852 21.5854 22.7498 20.125 22.7498L7.875 22.7498C6.41463 22.7498 5.25 21.5852 5.25 20.1248L5.25 11.6665L5.25 11.6665Z" id="Shape" fill="#A9ADB4" fill-rule="evenodd" stroke="none" />
    </g>
  </g>
</svg>