<?xml version="1.0" encoding="utf-8"?>
<svg width="28px" height="28px" viewBox="0 0 28 28" version="1.1" xmlns:xlink="http://www.w3.org/1999/xlink" xmlns="http://www.w3.org/2000/svg">
  <defs>
    <path d="M0 0L28 0L28 28L0 28L0 0Z" id="path_1" />
    <clipPath id="mask_1">
      <use xlink:href="#path_1" />
    </clipPath>
  </defs>
  <g id="Twitter-icon">
    <path d="M0 0L28 0L28 28L0 28L0 0Z" id="Background" fill="none" fill-rule="evenodd" stroke="none" />
    <g clip-path="url(#mask_1)">
      <path d="M26.0862 6.01125C25.9141 5.83333 25.6493 5.78258 25.4235 5.88642L25.3278 5.93017C25.2467 5.9675 25.1657 6.00483 25.084 6.04158C25.3214 5.663 25.5098 5.25817 25.6399 4.83933C25.7122 4.60833 25.6335 4.35575 25.4422 4.20642C25.2508 4.05708 24.9872 4.04133 24.7801 4.16792C24.1145 4.57217 23.4752 4.86325 22.8143 5.06625C21.8167 4.0985 20.4582 3.5 18.9584 3.5C15.8977 3.5 13.4168 5.98092 13.4168 9.04167C13.4168 9.04458 13.4168 9.16008 13.4168 9.33333L12.834 9.28667C7.16225 8.61583 5.54758 4.80083 5.4805 4.63633C5.372 4.36217 5.13283 4.16208 4.84408 4.102C4.55592 4.04075 4.25667 4.13117 4.04783 4.33942C3.93233 4.4555 2.91675 5.53 2.91675 7.58333C2.91675 9.04633 3.56892 10.2328 4.413 11.1557C4.01983 10.9159 3.79058 10.7217 3.78475 10.7164C3.51583 10.4819 3.13083 10.4329 2.81117 10.5951C2.49267 10.7578 2.30483 11.0979 2.33692 11.4543C2.348 11.5774 2.5965 13.9119 5.29325 15.6748L4.8015 15.764C4.50342 15.8183 4.25433 16.023 4.1435 16.3053C4.03325 16.5882 4.07642 16.9073 4.25842 17.15C4.31967 17.2323 5.45892 18.7133 7.93283 19.565C6.61158 20.0054 4.79625 20.4167 2.62508 20.4167C2.28208 20.4167 1.97 20.6173 1.82825 20.93C1.68592 21.2427 1.74017 21.6096 1.9665 21.8674C2.06042 21.9753 4.33717 24.5 10.2084 24.5C19.9577 24.5 24.5001 15.4496 24.5001 9.33333L24.5001 9.04167C24.5001 8.95533 24.4907 8.87075 24.4873 8.78558C25.7076 7.60608 26.1667 6.72117 26.1888 6.67742C26.2991 6.45575 26.2583 6.18858 26.0862 6.01125L26.0862 6.01125Z" id="Shape" fill="#A9ADB4" stroke="none" />
    </g>
  </g>
</svg>